<?xml version="1.0" encoding="iso-8859-1"?>
<!-- Generator: Adobe Illustrator 18.0.0, SVG Export Plug-In . SVG Version: 6.00 Build 0)  -->
<!DOCTYPE svg PUBLIC "-//W3C//DTD SVG 1.1//EN" "http://www.w3.org/Graphics/SVG/1.1/DTD/svg11.dtd">
<svg version="1.1" id="Capa_1" xmlns="http://www.w3.org/2000/svg" xmlns:xlink="http://www.w3.org/1999/xlink" x="0px" y="0px"
	 viewBox="0 0 257.317 257.317" style="enable-background:new 0 0 257.317 257.317;" xml:space="preserve">
<g>
	<path d="M211.383,0H45.934c-2.526,0-4.573,2.048-4.573,4.574v248.17c0,2.526,2.047,4.574,4.573,4.574h165.449
		c2.526,0,4.573-2.048,4.573-4.574V4.574C215.957,2.048,213.91,0,211.383,0z M206.81,248.17H50.507V9.148H206.81V248.17z"/>
	<path d="M81.503,221.75h94.313c2.526,0,4.573-2.047,4.573-4.574v-47.157c0-2.526-2.047-4.574-4.573-4.574H81.503
		c-2.526,0-4.573,2.048-4.573,4.574v47.157C76.929,219.703,78.976,221.75,81.503,221.75z M86.076,174.593h85.166v38.01H86.076
		V174.593z"/>
	<path d="M81.503,139.025h94.313c2.526,0,4.573-2.048,4.573-4.574V40.141c0-2.526-2.047-4.574-4.573-4.574H81.503
		c-2.526,0-4.573,2.048-4.573,4.574v94.311C76.929,136.977,78.976,139.025,81.503,139.025z M86.076,44.715h85.166v85.163H86.076
		V44.715z"/>
	<path d="M175.734,152.237c0,8.324,6.772,15.097,15.097,15.097s15.097-6.772,15.097-15.097s-6.773-15.097-15.097-15.097
		S175.734,143.913,175.734,152.237z M190.831,144.763c4.121,0,7.474,3.353,7.474,7.474s-3.352,7.474-7.474,7.474
		c-4.121,0-7.474-3.353-7.474-7.474S186.71,144.763,190.831,144.763z"/>
</g>
<g>
</g>
<g>
</g>
<g>
</g>
<g>
</g>
<g>
</g>
<g>
</g>
<g>
</g>
<g>
</g>
<g>
</g>
<g>
</g>
<g>
</g>
<g>
</g>
<g>
</g>
<g>
</g>
<g>
</g>
</svg>
