<svg xmlns="http://www.w3.org/2000/svg" xmlns:xlink="http://www.w3.org/1999/xlink" viewBox="0 0 90.4 93.48"><defs><style>.cls-1{fill:none;}.cls-2{fill:#c7c7c7;}.cls-3{fill:#ddd;}.cls-4{fill:#afafaf;}.cls-5{fill:#999;}.cls-6{fill:#3e3e3e;}.cls-7{fill:#6b6b6b;}.cls-8{fill:#545454;}.cls-9{fill:#2a2a2a;}.cls-10{fill:#b3b3b3;}.cls-11{fill:#828282;}.cls-12{clip-path:url(#clip-path);}.cls-13{fill:#3a3a3a;}.cls-14{clip-path:url(#clip-path-2);}.cls-15{fill:#373737;}.cls-16{fill:#262626;}.cls-17{fill:#5e96ff;}.cls-18{fill:#4e8bff;}.cls-19{fill:#f4f4f4;}.cls-20{fill:url(#linear-gradient);}.cls-21{clip-path:url(#clip-path-3);}.cls-22{fill:#e3c97f;}.cls-23{fill:#f3e396;}.cls-24{fill:#c5a666;}.cls-25{fill:#d2b372;}.cls-26{fill:#a07f4c;}.cls-27{fill:#bb9d5f;}.cls-28{fill:#9c7a4c;}.cls-29{fill:#d6b975;}.cls-30{fill:#c7a65f;}.cls-31{fill:#7d633b;}.cls-32{fill:#a18853;}.cls-33{fill:#f2c799;}.cls-34{fill:#c29a77;}.cls-35{fill:#94765a;}.cls-36{fill:#d9b389;}.cls-37{fill:#e6bd91;}.cls-38{fill:#858585;}.cls-39{fill:#ecb68f;}.cls-40{fill:#d23530;}.cls-41{fill:#3b66c2;}.cls-42{fill:#477beb;}.cls-43{fill:#e3af8a;}.cls-44{fill:#484848;}.cls-45{fill:#d1ac84;}.cls-46{fill:#feb891;}.cls-47{fill:#598bb8;}.cls-48{fill:#456c8f;}.cls-49{fill:#f5f2e9;}.cls-50{fill:#cfcfcf;}.cls-51{fill:#4e4e4e;}.cls-52{fill:#323232;}.cls-53{fill:#9d9d9d;}.cls-54{fill:#5f5f5f;}.cls-55{clip-path:url(#clip-path-4);}.cls-56{fill:#b5b5b5;}.cls-57{fill:#717171;}.cls-58{fill:#e8e8e8;}.cls-59{clip-path:url(#clip-path-5);}.cls-60{clip-path:url(#clip-path-6);}.cls-61{fill:#457ce3;}.cls-62{fill:#b89565;}.cls-63{fill:#dbaf70;}.cls-64{fill:#8f744e;}.cls-65{fill:#dbb681;}.cls-66{fill:#d4ac74;}</style><clipPath id="clip-path"><path class="cls-1" d="M81.16,51.74a5,5,0,0,0-.72,2.41,1.28,1.28,0,0,0,2.13,1.23A5.45,5.45,0,0,0,85,51.14a1.28,1.28,0,0,0-2.13-1.23A5,5,0,0,0,81.16,51.74Z"/></clipPath><clipPath id="clip-path-2"><path class="cls-1" d="M69.94,58.21a5,5,0,0,0-.72,2.41,1.28,1.28,0,0,0,2.13,1.23,5.45,5.45,0,0,0,2.45-4.24,1.28,1.28,0,0,0-2.13-1.23A5,5,0,0,0,69.94,58.21Z"/></clipPath><linearGradient id="linear-gradient" x1="19.64" y1="61.06" x2="87.76" y2="36.58" gradientUnits="userSpaceOnUse"><stop offset="0" stop-color="#a3a3a3"/><stop offset="0.02" stop-color="#a4a4a4"/><stop offset="0.34" stop-color="#b8b8b8"/><stop offset="0.66" stop-color="#c3c3c3"/><stop offset="1" stop-color="#c7c7c7"/></linearGradient><clipPath id="clip-path-3"><polygon class="cls-1" points="88.52 13.86 88.52 38.64 22.66 76.66 22.66 51.88 67.05 26.25 88.52 13.86"/></clipPath><clipPath id="clip-path-4"><path class="cls-1" d="M74.74,75.73a.93.93,0,0,0-.13.45.24.24,0,0,0,.4.23,1,1,0,0,0,.46-.79.24.24,0,0,0-.4-.23A.93.93,0,0,0,74.74,75.73Z"/></clipPath><clipPath id="clip-path-5"><path class="cls-1" d="M68.24,72a.93.93,0,0,0-.13.45.24.24,0,0,0,.4.23,1,1,0,0,0,.46-.79.24.24,0,0,0-.4-.23A.93.93,0,0,0,68.24,72Z"/></clipPath><clipPath id="clip-path-6"><path class="cls-1" d="M83.74,70.53a.93.93,0,0,0-.13.45.24.24,0,0,0,.4.23,1,1,0,0,0,.46-.79.24.24,0,0,0-.4-.23A.93.93,0,0,0,83.74,70.53Z"/></clipPath></defs><title>i12</title><g id="Слой_2" data-name="Слой 2"><g id="Layer_2" data-name="Layer 2"><polygon class="cls-2" points="33.65 79.76 34.3 80.14 34.3 72.8 33.65 72.43 33.65 79.76"/><polygon class="cls-2" points="34.95 79.76 34.3 80.14 34.3 72.8 34.95 72.43 34.95 79.76"/><polygon class="cls-2" points="34.3 80.14 34.3 79.39 21.95 86.51 21.95 87.26 34.3 80.14"/><polygon class="cls-3" points="33.65 79.01 34.3 79.39 21.95 86.51 21.3 86.14 33.65 79.01"/><polygon class="cls-2" points="34.3 76.23 34.3 75.48 21.95 82.6 21.95 83.35 34.3 76.23"/><polygon class="cls-3" points="33.65 75.1 34.3 75.48 21.95 82.6 21.3 82.23 33.65 75.1"/><polygon class="cls-4" points="19.65 91.64 19.65 92.26 21.75 93.48 21.75 92.86 19.65 91.64"/><polygon class="cls-2" points="24.26 91.41 24.26 92.03 21.75 93.48 21.75 92.86 24.26 91.41"/><polygon class="cls-3" points="21.75 92.86 24.26 91.41 22.16 90.2 19.65 91.64 21.75 92.86"/><polygon class="cls-4" points="21.3 91.74 21.95 92.11 21.95 79.93 21.3 79.55 21.3 91.74"/><polygon class="cls-2" points="22.61 91.74 21.95 92.11 21.95 79.93 22.61 79.55 22.61 91.74"/><polygon class="cls-2" points="13.99 68.42 14.64 68.8 14.64 61.46 13.99 61.09 13.99 68.42"/><polygon class="cls-4" points="15.29 68.42 14.64 68.8 14.64 61.46 15.29 61.09 15.29 68.42"/><polygon class="cls-5" points="14.64 68.8 14.64 68.05 2.3 75.17 2.3 75.92 14.64 68.8"/><polygon class="cls-2" points="13.99 67.67 14.64 68.05 2.3 75.17 1.65 74.8 13.99 67.67"/><polygon class="cls-5" points="14.64 64.89 14.64 64.14 2.3 71.26 2.3 72.01 14.64 64.89"/><polygon class="cls-3" points="13.99 63.76 14.64 64.14 2.3 71.26 1.65 70.89 13.99 63.76"/><polygon class="cls-4" points="0 80.3 0 80.92 2.1 82.14 2.1 81.52 0 80.3"/><polygon class="cls-2" points="4.61 80.07 4.61 80.69 2.1 82.14 2.1 81.52 4.61 80.07"/><polygon class="cls-3" points="2.1 81.52 4.61 80.07 2.5 78.86 0 80.3 2.1 81.52"/><polygon class="cls-4" points="1.65 80.4 2.3 80.77 2.3 68.59 1.65 68.21 1.65 80.4"/><polygon class="cls-5" points="2.95 80.4 2.3 80.77 2.3 68.59 2.95 68.21 2.95 80.4"/><polygon class="cls-6" points="66.07 31.14 89.49 44.66 89.49 42.78 66.07 29.27 66.07 31.14"/><polygon class="cls-7" points="89.49 44.66 89.72 44.53 89.72 42.65 89.49 42.78 89.49 44.66"/><polygon class="cls-8" points="89.72 42.65 89.49 42.78 66.07 29.27 66.3 29.14 89.72 42.65"/><path class="cls-9" d="M79.27,58.63a2.5,2.5,0,0,1-.84-.81,4.31,4.31,0,0,1-.59-2.36A10.82,10.82,0,0,1,82.72,47a4.29,4.29,0,0,1,2.34-.66,2.47,2.47,0,0,1,1.12.32l-3.76-2.17a3.44,3.44,0,0,0-3.46.34,10.82,10.82,0,0,0-4.89,8.47,3.43,3.43,0,0,0,1.43,3.17Z"/><path class="cls-6" d="M82.72,58.29a10.82,10.82,0,0,0,4.89-8.47,3.44,3.44,0,0,0-1.43-3.17,2.47,2.47,0,0,0-1.12-.32,4.29,4.29,0,0,0-2.34.66,10.82,10.82,0,0,0-4.89,8.47,4.31,4.31,0,0,0,.59,2.36,2.5,2.5,0,0,0,.84.81A3.44,3.44,0,0,0,82.72,58.29Z"/><path class="cls-10" d="M85.48,51.05c0-1.76-1.24-2.47-2.76-1.59A6.1,6.1,0,0,0,80,54.23c0,1.76,1.24,2.47,2.76,1.59A6.1,6.1,0,0,0,85.48,51.05Z"/><path class="cls-11" d="M84.41,49.73a1.13,1.13,0,0,0-.74-.12,2.33,2.33,0,0,0-.78.3,5.47,5.47,0,0,0-2.45,4.24,2.33,2.33,0,0,0,.13.82,1.13,1.13,0,0,0,.47.59,1.53,1.53,0,0,0,1.52-.18A5.44,5.44,0,0,0,85,51.14,1.53,1.53,0,0,0,84.41,49.73Z"/><path class="cls-5" d="M83.66,49.61a2.33,2.33,0,0,0-.78.3,5.47,5.47,0,0,0-2.45,4.24,2.33,2.33,0,0,0,.13.82,2.23,2.23,0,0,0,.78-.3,5.44,5.44,0,0,0,2.45-4.24A2.23,2.23,0,0,0,83.66,49.61Z"/><g class="cls-12"><path class="cls-9" d="M81.44,53.85a.61.61,0,0,1-.2-.2,1.05,1.05,0,0,1-.14-.57A2.64,2.64,0,0,1,82.29,51a1,1,0,0,1,.57-.16.6.6,0,0,1,.27.08l-.92-.53a.84.84,0,0,0-.84.08,2.64,2.64,0,0,0-1.19,2.07.84.84,0,0,0,.35.77Z"/><path class="cls-13" d="M82.29,53.77a2.64,2.64,0,0,0,1.19-2.07.84.84,0,0,0-.35-.77.6.6,0,0,0-.27-.08,1,1,0,0,0-.57.16,2.64,2.64,0,0,0-1.19,2.07,1.05,1.05,0,0,0,.14.57.61.61,0,0,0,.2.2A.84.84,0,0,0,82.29,53.77Z"/><path class="cls-8" d="M82.83,51.44a.39.39,0,0,0-.18-.05h0a.72.72,0,0,0-.33.1,1.72,1.72,0,0,0-.78,1.34.69.69,0,0,0,.08.34l0,0a.42.42,0,0,0,.13.13.55.55,0,0,0,.55-.05,1.72,1.72,0,0,0,.78-1.34A.54.54,0,0,0,82.83,51.44Z"/><path class="cls-7" d="M82.62,51.39a.72.72,0,0,0-.33.1,1.72,1.72,0,0,0-.78,1.34.69.69,0,0,0,.08.34.7.7,0,0,0,.33-.1,1.71,1.71,0,0,0,.78-1.34A.71.71,0,0,0,82.62,51.39Z"/></g><path class="cls-9" d="M68,65.11a2.5,2.5,0,0,1-.84-.81,4.31,4.31,0,0,1-.59-2.36,10.82,10.82,0,0,1,4.89-8.47,4.29,4.29,0,0,1,2.34-.66,2.47,2.47,0,0,1,1.12.32L71.21,51a3.44,3.44,0,0,0-3.46.34,10.82,10.82,0,0,0-4.89,8.47,3.43,3.43,0,0,0,1.43,3.17Z"/><path class="cls-6" d="M71.51,64.77A10.82,10.82,0,0,0,76.4,56.3,3.44,3.44,0,0,0,75,53.13a2.47,2.47,0,0,0-1.12-.32,4.29,4.29,0,0,0-2.34.66,10.82,10.82,0,0,0-4.89,8.47,4.31,4.31,0,0,0,.59,2.36,2.5,2.5,0,0,0,.84.81A3.44,3.44,0,0,0,71.51,64.77Z"/><path class="cls-10" d="M74.27,57.53c0-1.76-1.24-2.47-2.76-1.59a6.1,6.1,0,0,0-2.76,4.78c0,1.76,1.24,2.47,2.76,1.59A6.1,6.1,0,0,0,74.27,57.53Z"/><path class="cls-11" d="M73.19,56.2a1.13,1.13,0,0,0-.74-.12,2.33,2.33,0,0,0-.78.3,5.47,5.47,0,0,0-2.45,4.24,2.33,2.33,0,0,0,.13.82,1.13,1.13,0,0,0,.47.59,1.53,1.53,0,0,0,1.52-.18,5.44,5.44,0,0,0,2.45-4.24A1.53,1.53,0,0,0,73.19,56.2Z"/><path class="cls-5" d="M72.45,56.09a2.33,2.33,0,0,0-.78.3,5.47,5.47,0,0,0-2.45,4.24,2.33,2.33,0,0,0,.13.82,2.23,2.23,0,0,0,.78-.3,5.44,5.44,0,0,0,2.45-4.24A2.23,2.23,0,0,0,72.45,56.09Z"/><g class="cls-14"><path class="cls-9" d="M70.23,60.33a.61.61,0,0,1-.2-.2,1.05,1.05,0,0,1-.14-.57,2.64,2.64,0,0,1,1.19-2.07,1,1,0,0,1,.57-.16.6.6,0,0,1,.27.08L71,56.88a.84.84,0,0,0-.84.08A2.64,2.64,0,0,0,69,59a.84.84,0,0,0,.35.77Z"/><path class="cls-13" d="M71.07,60.24a2.64,2.64,0,0,0,1.19-2.07.84.84,0,0,0-.35-.77.6.6,0,0,0-.27-.08,1,1,0,0,0-.57.16,2.64,2.64,0,0,0-1.19,2.07,1.05,1.05,0,0,0,.14.57.61.61,0,0,0,.2.2A.84.84,0,0,0,71.07,60.24Z"/><path class="cls-8" d="M71.62,57.92a.39.39,0,0,0-.18-.05h0a.72.72,0,0,0-.33.1,1.72,1.72,0,0,0-.78,1.34.69.69,0,0,0,.08.34l0,0a.42.42,0,0,0,.13.13.55.55,0,0,0,.55-.05,1.72,1.72,0,0,0,.78-1.34A.54.54,0,0,0,71.62,57.92Z"/><path class="cls-7" d="M71.4,57.87a.72.72,0,0,0-.33.1,1.72,1.72,0,0,0-.78,1.34.69.69,0,0,0,.08.34.7.7,0,0,0,.33-.1,1.71,1.71,0,0,0,.78-1.34A.71.71,0,0,0,71.4,57.87Z"/></g><path class="cls-15" d="M90.4,47.12l-1.3.75c-.8-1.69-2.5-2.31-4.56-1.54-.18.06-.44.19-.67.3l-.41.21L71.9,53.52s-.73.46-1.08.73a14.22,14.22,0,0,0-4.56,6.81l-1.3.75a17,17,0,0,1,5.86-9c.35-.26,1.08-.71,1.08-.71l11.56-6.67s.73-.39,1.08-.53a4.6,4.6,0,0,1,4.12,0A4.05,4.05,0,0,1,90.4,47.12Z"/><path class="cls-16" d="M88.66,44.93a4.6,4.6,0,0,0-4.12,0c-.35.14-1.08.53-1.08.53L71.9,52.12s-.73.45-1.08.71a17,17,0,0,0-5.86,9l-5.44-3.14a17,17,0,0,1,5.86-9c.35-.26,1.08-.71,1.08-.71L78,42.31s.73-.39,1.08-.53a4.6,4.6,0,0,1,4.12,0Z"/><polygon class="cls-11" points="38.46 69.09 46.63 73.81 46.63 67.09 38.46 62.37 38.46 69.09"/><polygon class="cls-4" points="62.96 64.38 46.63 73.81 46.63 67.09 62.96 57.66 62.96 64.38"/><polygon class="cls-8" points="49.01 65.71 47.82 66.4 47.82 73.12 49.01 72.43 49.01 65.71"/><polygon class="cls-8" points="53.26 63.26 52.07 63.95 52.07 70.67 53.26 69.98 53.26 63.26"/><polygon class="cls-8" points="57.52 60.8 56.33 61.49 56.33 68.21 57.52 67.52 57.52 60.8"/><polygon class="cls-8" points="61.77 58.35 60.58 59.03 60.58 65.75 61.77 65.07 61.77 58.35"/><polygon class="cls-17" points="89.72 39.33 21.46 78.73 21.46 81.61 89.72 42.21 89.72 39.33"/><polygon class="cls-18" points="21.46 81.61 21.46 78.73 1.29 67.09 1.29 69.97 21.46 81.61"/><path class="cls-3" d="M21.46,51.19V78.73l68.26-39.4V11.79Zm1.2,25.47V53.23l45.56-26.3,20.3,11.71Z"/><polygon class="cls-5" points="88.52 13.86 88.52 38.64 22.66 76.66 22.66 51.88 67.05 26.25 88.52 13.86"/><polygon class="cls-19" points="21.46 51.19 89.72 11.78 69.54 0 1.29 39.41 21.46 51.19"/><polygon class="cls-20" points="88.52 38.64 22.66 76.66 22.66 53.23 68.22 26.93 88.52 38.64"/><polygon class="cls-11" points="68.22 26.93 22.66 53.23 22.66 51.88 68.22 25.58 68.22 26.93"/><g class="cls-21"><polygon class="cls-22" points="38.77 44.57 44.32 41.37 40.45 39.14 34.91 42.34 38.77 44.57"/><path class="cls-23" d="M34.91,42.34l3.86,2.23,5.55-3.2-3.86-2.23Zm1.08.17-.3-.17,4.77-2.75,3.08,1.78-4.77,2.75Z"/><polygon class="cls-24" points="38.77 49.02 44.32 45.82 44.32 41.37 38.77 44.57 38.77 49.02"/><path class="cls-25" d="M43.93,42V45.6l-4.77,2.75V44.79L43.93,42Zm.39-.67-5.55,3.2V49l5.55-3.2V41.37Z"/><polygon class="cls-26" points="34.91 46.8 38.77 49.02 38.77 44.57 34.91 42.34 34.91 46.8"/><path class="cls-27" d="M35.3,43l3.08,1.78v3.56L35.3,46.57V43Zm-.39-.67V46.8L38.77,49V44.57l-3.86-2.23Z"/><polygon class="cls-28" points="35.69 42.34 35.99 42.51 40.45 39.93 40.45 39.59 35.69 42.34"/><polygon class="cls-29" points="43.54 41.37 43.24 41.54 40.45 39.93 40.45 39.59 43.54 41.37"/><polygon class="cls-28" points="43.93 42.04 43.63 42.21 43.63 45.42 43.93 45.6 43.93 42.04"/><polygon class="cls-29" points="39.16 48.35 39.16 48 43.63 45.42 43.93 45.6 39.16 48.35"/><polygon class="cls-30" points="35.3 43.01 35.6 43.19 35.6 46.4 35.3 46.57 35.3 43.01"/><polygon class="cls-29" points="38.38 48.35 38.38 48 35.6 46.4 35.3 46.57 38.38 48.35"/><polygon class="cls-31" points="37.71 46.98 37.52 46.87 37.52 46.04 37.71 46.15 37.71 46.98"/><polygon class="cls-31" points="37.38 45.96 37.62 45.42 37.86 46.24 37.38 45.96"/><polygon class="cls-19" points="40.18 42.07 41.4 41.37 40.77 41 39.54 41.71 40.18 42.07"/><polygon class="cls-31" points="36.81 46.67 36.84 46.68 36.84 46.02 36.81 46 36.81 46.67"/><polygon class="cls-31" points="36.71 46.61 36.78 46.65 36.78 45.98 36.71 45.94 36.71 46.61"/><polygon class="cls-31" points="36.64 46.57 36.69 46.6 36.69 45.93 36.64 45.9 36.64 46.57"/><polygon class="cls-31" points="36.55 46.52 36.62 46.56 36.62 45.89 36.55 45.85 36.55 46.52"/><polygon class="cls-31" points="36.47 46.47 36.54 46.51 36.54 45.84 36.47 45.8 36.47 46.47"/><polygon class="cls-31" points="36.4 46.43 36.46 46.46 36.46 45.8 36.4 45.76 36.4 46.43"/><polygon class="cls-31" points="36.32 46.38 36.37 46.41 36.37 45.75 36.32 45.72 36.32 46.38"/><polygon class="cls-31" points="36.25 46.34 36.28 46.36 36.28 45.69 36.25 45.68 36.25 46.34"/><polygon class="cls-31" points="36.16 46.29 36.21 46.32 36.21 45.65 36.16 45.63 36.16 46.29"/><polygon class="cls-31" points="36.09 46.25 36.12 46.27 36.12 45.6 36.09 45.59 36.09 46.25"/><polygon class="cls-31" points="36 46.2 36.05 46.23 36.05 45.56 36 45.53 36 46.2"/><polygon class="cls-31" points="35.93 46.16 35.96 46.17 35.96 45.51 35.93 45.49 35.93 46.16"/><polygon class="cls-32" points="42.25 44.08 43.35 43.45 43.35 43.34 42.25 43.97 42.25 44.08"/><polygon class="cls-32" points="42.25 44.3 43.35 43.67 43.35 43.56 42.25 44.19 42.25 44.3"/><polygon class="cls-32" points="42.64 44.29 43.35 43.88 43.35 43.78 42.64 44.18 42.64 44.29"/><polygon class="cls-33" points="72.31 30.39 66.47 27.02 69.39 25.33 75.24 28.7 72.31 30.39"/><polygon class="cls-34" points="73.58 29.66 67.73 26.29 68.13 26.06 73.97 29.43 73.58 29.66"/><polygon class="cls-35" points="73.76 29.55 67.92 26.18 67.94 26.17 73.79 29.54 73.76 29.55"/><polygon class="cls-36" points="72.31 34.85 72.31 30.39 75.24 28.7 75.24 33.16 72.31 34.85"/><polygon class="cls-34" points="73.59 34.11 73.59 29.66 73.98 29.43 73.98 33.88 73.59 34.11"/><polygon class="cls-35" points="73.77 34.01 73.77 29.55 73.8 29.53 73.8 33.99 73.77 34.01"/><polygon class="cls-37" points="72.31 34.85 66.47 31.48 66.47 27.02 72.31 30.39 72.31 34.85"/><polygon class="cls-6" points="67.76 31.75 67.27 31.46 67.27 31.39 67.76 31.68 67.76 31.75"/><polygon class="cls-6" points="67.44 31.49 67.4 31.47 67.4 31.08 67.44 31.1 67.44 31.49"/><polygon class="cls-6" points="67.66 31.62 67.63 31.6 67.63 31.21 67.66 31.23 67.66 31.62"/><polygon class="cls-6" points="67.42 30.88 67.47 31.12 67.37 31.06 67.42 30.88 67.42 30.88"/><polygon class="cls-6" points="67.6 31.19 67.64 31.01 67.69 31.25 67.6 31.19"/><polygon class="cls-6" points="71.39 33.79 71.42 33.8 71.42 33.14 71.39 33.13 71.39 33.79"/><polygon class="cls-6" points="71.29 33.73 71.36 33.77 71.36 33.11 71.29 33.06 71.29 33.73"/><polygon class="cls-6" points="71.22 33.69 71.27 33.72 71.27 33.05 71.22 33.02 71.22 33.69"/><polygon class="cls-6" points="71.13 33.64 71.2 33.68 71.2 33.01 71.13 32.97 71.13 33.64"/><polygon class="cls-6" points="71.05 33.59 71.12 33.63 71.12 32.97 71.05 32.93 71.05 33.59"/><polygon class="cls-6" points="70.97 33.55 71.03 33.58 71.03 32.92 70.97 32.88 70.97 33.55"/><polygon class="cls-6" points="70.9 33.51 70.95 33.53 70.95 32.87 70.9 32.84 70.9 33.51"/><polygon class="cls-6" points="70.83 33.47 70.86 33.48 70.86 32.81 70.83 32.8 70.83 33.47"/><polygon class="cls-6" points="70.74 33.41 70.79 33.44 70.79 32.78 70.74 32.75 70.74 33.41"/><polygon class="cls-6" points="70.67 33.37 70.7 33.39 70.7 32.72 70.67 32.71 70.67 33.37"/><polygon class="cls-6" points="70.58 33.32 70.63 33.35 70.63 32.69 70.58 32.65 70.58 33.32"/><polygon class="cls-6" points="70.51 33.28 70.54 33.3 70.54 32.63 70.51 32.62 70.51 33.28"/><path class="cls-6" d="M74.47,32.8h.11l.1-.26,0-.05-.14.08a.13.13,0,0,0,0,.05Z"/><path class="cls-6" d="M74.66,32.63l0,0h0l0,0,.11-.07.06-.15,0,0h0l0,0h0a.07.07,0,0,0,0,0l0,0Z"/><path class="cls-6" d="M74.75,32.75l.06.09.06,0,0,0a.09.09,0,0,0,0-.07v0l-.06-.07Z"/><path class="cls-6" d="M74.68,33l.06.09v0h0l.07,0,0,0v0l.06-.16,0,0-.13.07h0v0Z"/><path class="cls-6" d="M74.5,33l0,.08a.11.11,0,0,0,0,0s0,0,0,0,0,0,0,0l.12-.07V33Z"/><path class="cls-6" d="M74.38,32.93h0l0,.08s0,.06,0,.06l.07.1a.12.12,0,0,1,0-.06l.07-.17h0l-.06-.08Z"/><polygon class="cls-19" points="68.53 29.75 67.31 29.04 67.31 28.31 68.53 29.01 68.53 29.75"/><polygon class="cls-38" points="68.47 29.18 67.37 28.55 67.37 28.44 68.47 29.07 68.47 29.18"/><polygon class="cls-38" points="68.47 29.4 67.37 28.77 67.37 28.66 68.47 29.29 68.47 29.4"/><polygon class="cls-38" points="68.07 29.39 67.37 28.98 67.37 28.88 68.07 29.28 68.07 29.39"/><polygon class="cls-22" points="68.07 40.66 73.61 37.46 69.75 35.23 64.21 38.43 68.07 40.66"/><path class="cls-23" d="M64.21,38.43l3.86,2.23,5.55-3.2-3.86-2.23Zm1.08.17-.3-.17,4.77-2.75,3.08,1.78-4.77,2.75Z"/><polygon class="cls-24" points="68.07 45.12 73.61 41.92 73.61 37.46 68.07 40.66 68.07 45.12"/><path class="cls-25" d="M73.23,38.13v3.56l-4.77,2.75V40.89l4.77-2.75Zm.39-.67-5.55,3.2v4.46l5.55-3.2V37.46Z"/><polygon class="cls-26" points="64.21 42.89 68.07 45.12 68.07 40.66 64.21 38.43 64.21 42.89"/><path class="cls-27" d="M64.6,39.11l3.08,1.78v3.56L64.6,42.67V39.11Zm-.39-.67v4.46l3.86,2.23V40.66l-3.86-2.23Z"/><polygon class="cls-28" points="64.99 38.43 65.29 38.61 69.75 36.03 69.75 35.68 64.99 38.43"/><polygon class="cls-29" points="72.84 37.46 72.54 37.63 69.75 36.03 69.75 35.68 72.84 37.46"/><polygon class="cls-28" points="73.23 38.13 72.93 38.31 72.93 41.52 73.23 41.69 73.23 38.13"/><polygon class="cls-29" points="68.46 44.44 68.46 44.1 72.93 41.52 73.23 41.69 68.46 44.44"/><polygon class="cls-30" points="64.6 39.11 64.9 39.28 64.9 42.49 64.6 42.66 64.6 39.11"/><polygon class="cls-29" points="67.68 44.44 67.68 44.1 64.9 42.49 64.6 42.66 67.68 44.44"/><polygon class="cls-31" points="67.01 43.07 66.82 42.96 66.82 42.14 67.01 42.25 67.01 43.07"/><polygon class="cls-31" points="66.68 42.05 66.92 41.52 67.16 42.33 66.68 42.05"/><polygon class="cls-19" points="69.48 38.17 70.7 37.46 70.06 37.1 68.84 37.8 69.48 38.17"/><polygon class="cls-31" points="66.11 42.76 66.14 42.77 66.14 42.11 66.11 42.1 66.11 42.76"/><polygon class="cls-31" points="66.01 42.7 66.08 42.74 66.08 42.08 66.01 42.04 66.01 42.7"/><polygon class="cls-31" points="65.94 42.66 65.99 42.69 65.99 42.02 65.94 42 65.94 42.66"/><polygon class="cls-31" points="65.85 42.61 65.92 42.65 65.92 41.99 65.85 41.94 65.85 42.61"/><polygon class="cls-31" points="65.77 42.56 65.84 42.6 65.84 41.94 65.77 41.9 65.77 42.56"/><polygon class="cls-31" points="65.7 42.52 65.75 42.55 65.75 41.89 65.7 41.85 65.7 42.52"/><polygon class="cls-31" points="65.62 42.48 65.67 42.51 65.67 41.84 65.62 41.81 65.62 42.48"/><polygon class="cls-31" points="65.55 42.44 65.58 42.45 65.58 41.79 65.55 41.77 65.55 42.44"/><polygon class="cls-31" points="65.46 42.38 65.51 42.41 65.51 41.75 65.46 41.72 65.46 42.38"/><polygon class="cls-31" points="65.39 42.34 65.42 42.36 65.42 41.69 65.39 41.68 65.39 42.34"/><polygon class="cls-31" points="65.3 42.29 65.36 42.32 65.36 41.66 65.3 41.62 65.3 42.29"/><polygon class="cls-31" points="65.23 42.25 65.26 42.27 65.26 41.6 65.23 41.59 65.23 42.25"/><polygon class="cls-32" points="71.55 40.17 72.65 39.54 72.65 39.43 71.55 40.06 71.55 40.17"/><polygon class="cls-32" points="71.55 40.39 72.65 39.76 72.65 39.65 71.55 40.28 71.55 40.39"/><polygon class="cls-32" points="71.94 40.38 72.65 39.98 72.65 39.87 71.94 40.28 71.94 40.38"/><polygon class="cls-33" points="49.38 39.94 45.52 37.71 49.38 35.48 53.24 37.71 49.38 39.94"/><polygon class="cls-34" points="51.12 38.94 47.26 36.71 47.65 36.48 51.51 38.71 51.12 38.94"/><polygon class="cls-35" points="51.3 38.83 47.44 36.6 47.46 36.59 51.32 38.81 51.3 38.83"/><polygon class="cls-37" points="49.38 44.39 45.52 42.16 45.52 37.71 49.38 39.94 49.38 44.39"/><polygon class="cls-36" points="53.24 42.16 49.38 44.39 49.38 39.94 53.24 37.71 53.24 42.16"/><polygon class="cls-34" points="51.51 38.71 51.51 43.16 51.12 43.39 51.12 38.94 51.51 38.71"/><polygon class="cls-35" points="51.32 38.81 51.32 43.27 51.3 43.28 51.3 38.83 51.32 38.81"/><polygon class="cls-6" points="46.52 42.25 46.02 41.96 46.02 41.88 46.52 42.17 46.52 42.25"/><polygon class="cls-6" points="46.19 41.98 46.15 41.96 46.15 41.57 46.19 41.59 46.19 41.98"/><polygon class="cls-6" points="46.42 42.11 46.38 42.09 46.38 41.7 46.42 41.73 46.42 42.11"/><polygon class="cls-6" points="46.17 41.38 46.22 41.61 46.12 41.56 46.17 41.38 46.17 41.38"/><polygon class="cls-6" points="46.35 41.69 46.4 41.51 46.45 41.74 46.35 41.69"/><polygon class="cls-6" points="48.75 43.48 48.78 43.49 48.78 42.82 48.75 42.81 48.75 43.48"/><polygon class="cls-6" points="48.65 43.41 48.72 43.46 48.72 42.79 48.65 42.75 48.65 43.41"/><polygon class="cls-6" points="48.58 43.38 48.63 43.4 48.63 42.74 48.58 42.71 48.58 43.38"/><polygon class="cls-6" points="48.49 43.32 48.56 43.36 48.56 42.7 48.49 42.66 48.49 43.32"/><polygon class="cls-6" points="48.41 43.28 48.48 43.32 48.48 42.65 48.41 42.61 48.41 43.28"/><polygon class="cls-6" points="48.34 43.23 48.4 43.27 48.4 42.6 48.34 42.57 48.34 43.23"/><polygon class="cls-6" points="48.26 43.19 48.31 43.22 48.31 42.55 48.26 42.53 48.26 43.19"/><polygon class="cls-6" points="48.19 43.15 48.22 43.17 48.22 42.5 48.19 42.49 48.19 43.15"/><polygon class="cls-6" points="48.1 43.1 48.15 43.13 48.15 42.46 48.1 42.43 48.1 43.1"/><polygon class="cls-6" points="48.03 43.06 48.06 43.07 48.06 42.41 48.03 42.39 48.03 43.06"/><polygon class="cls-6" points="47.94 43 47.99 43.04 47.99 42.37 47.94 42.34 47.94 43"/><polygon class="cls-6" points="47.87 42.97 47.9 42.98 47.9 42.32 47.87 42.3 47.87 42.97"/><path class="cls-6" d="M52.32,41.9h.11l.1-.26,0-.05-.14.08a.12.12,0,0,0,0,.05Z"/><path class="cls-6" d="M52.52,41.73l0,0h0l0,0,.11-.07.06-.15,0,0h0l0,0h0a.07.07,0,0,0,0,0l0,0Z"/><path class="cls-6" d="M52.61,41.85l.06.09.06,0,0,0a.09.09,0,0,0,0-.07v0l-.06-.07Z"/><path class="cls-6" d="M52.54,42.12l.06.09v0h0l.07,0,0,0v0l.06-.16,0,0L52.6,42h0v0Z"/><path class="cls-6" d="M52.36,42.15l0,.08a.11.11,0,0,0,0,0s0,0,0,0,0,0,0,0l.12-.07v-.15Z"/><path class="cls-6" d="M52.23,42h0l0,.08s0,.06,0,.06l.07.1a.12.12,0,0,1,0-.06l.07-.17h0L52.35,42Z"/><polygon class="cls-19" points="47.13 40.17 45.91 39.46 45.91 38.73 47.13 39.43 47.13 40.17"/><polygon class="cls-38" points="47.07 39.6 45.97 38.97 45.97 38.86 47.07 39.49 47.07 39.6"/><polygon class="cls-38" points="47.07 39.82 45.97 39.19 45.97 39.08 47.07 39.71 47.07 39.82"/><polygon class="cls-38" points="46.67 39.81 45.97 39.41 45.97 39.3 46.67 39.7 46.67 39.81"/><polygon class="cls-33" points="77.89 35.68 74.03 33.45 77.89 31.22 81.75 33.45 77.89 35.68"/><polygon class="cls-34" points="79.63 34.68 75.77 32.45 76.16 32.22 80.02 34.45 79.63 34.68"/><polygon class="cls-35" points="79.81 34.57 75.95 32.34 75.97 32.33 79.83 34.56 79.81 34.57"/><polygon class="cls-37" points="77.89 40.14 74.03 37.91 74.03 33.45 77.89 35.68 77.89 40.14"/><polygon class="cls-36" points="81.75 37.91 77.89 40.14 77.89 35.68 81.75 33.45 81.75 37.91"/><polygon class="cls-34" points="80.02 34.45 80.02 38.91 79.63 39.14 79.63 34.68 80.02 34.45"/><polygon class="cls-35" points="79.83 34.56 79.83 39.02 79.81 39.03 79.81 34.57 79.83 34.56"/><polygon class="cls-6" points="75.03 37.99 74.53 37.7 74.53 37.63 75.03 37.92 75.03 37.99"/><polygon class="cls-6" points="74.7 37.73 74.66 37.7 74.66 37.32 74.7 37.34 74.7 37.73"/><polygon class="cls-6" points="74.93 37.86 74.89 37.84 74.89 37.45 74.93 37.47 74.93 37.86"/><polygon class="cls-6" points="74.68 37.12 74.73 37.36 74.64 37.3 74.68 37.12 74.68 37.12"/><polygon class="cls-6" points="74.86 37.43 74.91 37.25 74.96 37.49 74.86 37.43"/><polygon class="cls-6" points="77.27 39.22 77.29 39.23 77.29 38.57 77.27 38.56 77.27 39.22"/><polygon class="cls-6" points="77.16 39.16 77.23 39.2 77.23 38.54 77.16 38.49 77.16 39.16"/><polygon class="cls-6" points="77.09 39.12 77.14 39.15 77.14 38.48 77.09 38.46 77.09 39.12"/><polygon class="cls-6" points="77 39.07 77.07 39.11 77.07 38.45 77 38.4 77 39.07"/><polygon class="cls-6" points="76.92 39.02 76.99 39.06 76.99 38.4 76.92 38.36 76.92 39.02"/><polygon class="cls-6" points="76.85 38.98 76.91 39.01 76.91 38.35 76.85 38.31 76.85 38.98"/><polygon class="cls-6" points="76.77 38.94 76.82 38.96 76.82 38.3 76.77 38.27 76.77 38.94"/><polygon class="cls-6" points="76.7 38.9 76.73 38.91 76.73 38.25 76.7 38.23 76.7 38.9"/><polygon class="cls-6" points="76.61 38.84 76.66 38.87 76.66 38.21 76.61 38.18 76.61 38.84"/><polygon class="cls-6" points="76.54 38.8 76.57 38.82 76.57 38.15 76.54 38.14 76.54 38.8"/><polygon class="cls-6" points="76.45 38.75 76.51 38.78 76.51 38.12 76.45 38.08 76.45 38.75"/><polygon class="cls-6" points="76.38 38.71 76.41 38.73 76.41 38.06 76.38 38.05 76.38 38.71"/><path class="cls-6" d="M80.83,37.65h.11l.1-.26,0-.05-.14.08a.13.13,0,0,0,0,.05Z"/><path class="cls-6" d="M81,37.48l0,0h0l0,0,.11-.07.06-.15,0,0h0l0,0h0a.07.07,0,0,0,0,0l0,0Z"/><path class="cls-6" d="M81.12,37.6l.06.09.06,0,0,0a.09.09,0,0,0,0-.07v0l-.06-.07Z"/><path class="cls-6" d="M81,37.86l.06.09v0h0l.07,0,0,0v0l.06-.16,0,0-.13.07h0v0Z"/><path class="cls-6" d="M80.87,37.9l0,.08a.11.11,0,0,0,0,0s0,0,0,0,0,0,0,0L81,38v-.15Z"/><path class="cls-6" d="M80.74,37.78h0l0,.08s0,.06,0,.06l.07.1a.12.12,0,0,1,0-.06l.07-.17h0l-.06-.08Z"/><polygon class="cls-19" points="75.64 35.91 74.42 35.21 74.42 34.47 75.64 35.18 75.64 35.91"/><polygon class="cls-38" points="75.58 35.35 74.48 34.71 74.48 34.6 75.58 35.24 75.58 35.35"/><polygon class="cls-38" points="75.58 35.56 74.48 34.93 74.48 34.82 75.58 35.45 75.58 35.56"/><polygon class="cls-38" points="75.19 35.56 74.48 35.15 74.48 35.04 75.19 35.45 75.19 35.56"/><polygon class="cls-33" points="64.6 31.79 60.74 29.56 64.6 27.33 68.46 29.56 64.6 31.79"/><polygon class="cls-34" points="66.33 30.79 62.47 28.56 62.87 28.33 66.72 30.56 66.33 30.79"/><polygon class="cls-35" points="66.52 30.68 62.66 28.45 62.68 28.44 66.54 30.66 66.52 30.68"/><polygon class="cls-37" points="64.6 36.24 60.74 34.01 60.74 29.56 64.6 31.79 64.6 36.24"/><polygon class="cls-36" points="68.46 34.01 64.6 36.24 64.6 31.79 68.46 29.56 68.46 34.01"/><polygon class="cls-34" points="66.72 30.56 66.72 35.01 66.33 35.24 66.33 30.79 66.72 30.56"/><polygon class="cls-35" points="66.54 30.66 66.54 35.12 66.52 35.13 66.52 30.68 66.54 30.66"/><polygon class="cls-6" points="61.73 34.1 61.24 33.81 61.24 33.73 61.73 34.02 61.73 34.1"/><polygon class="cls-6" points="61.41 33.83 61.37 33.81 61.37 33.42 61.41 33.44 61.41 33.83"/><polygon class="cls-6" points="61.63 33.96 61.6 33.94 61.6 33.55 61.63 33.58 61.63 33.96"/><polygon class="cls-6" points="61.39 33.23 61.44 33.46 61.34 33.41 61.39 33.23 61.39 33.23"/><polygon class="cls-6" points="61.57 33.54 61.62 33.36 61.66 33.59 61.57 33.54"/><polygon class="cls-6" points="63.97 35.33 63.99 35.34 63.99 34.67 63.97 34.66 63.97 35.33"/><polygon class="cls-6" points="63.86 35.27 63.94 35.31 63.94 34.64 63.86 34.6 63.86 35.27"/><polygon class="cls-6" points="63.8 35.23 63.84 35.25 63.84 34.59 63.8 34.56 63.8 35.23"/><polygon class="cls-6" points="63.7 35.17 63.78 35.22 63.78 34.55 63.7 34.51 63.7 35.17"/><polygon class="cls-6" points="63.62 35.13 63.7 35.17 63.7 34.5 63.62 34.46 63.62 35.13"/><polygon class="cls-6" points="63.55 35.08 63.61 35.12 63.61 34.45 63.55 34.42 63.55 35.08"/><polygon class="cls-6" points="63.48 35.04 63.52 35.07 63.52 34.4 63.48 34.38 63.48 35.04"/><polygon class="cls-6" points="63.41 35 63.43 35.02 63.43 34.35 63.41 34.34 63.41 35"/><polygon class="cls-6" points="63.31 34.95 63.36 34.98 63.36 34.31 63.31 34.28 63.31 34.95"/><polygon class="cls-6" points="63.25 34.91 63.27 34.92 63.27 34.26 63.25 34.24 63.25 34.91"/><polygon class="cls-6" points="63.15 34.85 63.21 34.89 63.21 34.22 63.15 34.19 63.15 34.85"/><polygon class="cls-6" points="63.09 34.82 63.11 34.83 63.11 34.17 63.09 34.15 63.09 34.82"/><path class="cls-6" d="M67.54,33.75h.11l.1-.26,0-.05-.14.08a.13.13,0,0,0,0,.05Z"/><path class="cls-6" d="M67.73,33.58l0,0h0l0,0,.11-.07.06-.15,0,0h0l0,0h0a.07.07,0,0,0,0,0l0,0Z"/><path class="cls-6" d="M67.82,33.7l.06.09.06,0,0,0a.09.09,0,0,0,0-.07v0l-.06-.07Z"/><path class="cls-6" d="M67.75,34l.06.09v0h0l.07,0,0,0v0l.06-.16,0,0-.13.07h0v0Z"/><path class="cls-6" d="M67.57,34l0,.08a.12.12,0,0,0,0,0s0,0,0,0,0,0,0,0l.12-.07v-.15Z"/><path class="cls-6" d="M67.45,33.89h0l0,.08s0,.06,0,.06l.07.1a.12.12,0,0,1,0-.06l.07-.17h0l-.06-.08Z"/><polygon class="cls-19" points="62.34 32.02 61.12 31.31 61.12 30.58 62.34 31.28 62.34 32.02"/><polygon class="cls-38" points="62.28 31.45 61.19 30.82 61.19 30.71 62.28 31.34 62.28 31.45"/><polygon class="cls-38" points="62.28 31.67 61.19 31.04 61.19 30.93 62.28 31.56 62.28 31.67"/><polygon class="cls-38" points="61.89 31.66 61.19 31.25 61.19 31.15 61.89 31.55 61.89 31.66"/><polygon class="cls-22" points="58.73 35.13 54.87 32.91 58.73 30.68 62.59 32.91 58.73 35.13"/><path class="cls-23" d="M58.73,30.68l-3.86,2.23,3.86,2.23,3.86-2.23Zm0,4-3.08-1.78,3.08-1.78,3.08,1.78-.3.17Z"/><polygon class="cls-24" points="58.73 39.59 54.87 37.36 54.87 32.91 58.73 35.13 58.73 39.59"/><path class="cls-25" d="M55.26,33.58l3.08,1.78v3.56l-3.08-1.78V33.58Zm-.39-.67v4.46l3.86,2.23V35.13l-3.86-2.23Z"/><polygon class="cls-26" points="62.59 37.36 58.73 39.59 58.73 35.13 62.59 32.91 62.59 37.36"/><path class="cls-27" d="M62.2,33.58v3.56l-3.08,1.78V35.36l3.08-1.78Zm.39-.67-3.86,2.23v4.46l3.86-2.23V32.91Z"/><polygon class="cls-28" points="61.81 32.91 61.51 33.08 58.73 31.47 58.73 31.13 61.81 32.91"/><polygon class="cls-29" points="55.65 32.91 55.95 33.08 58.73 31.47 58.73 31.13 55.65 32.91"/><polygon class="cls-28" points="55.26 33.58 55.55 33.75 55.55 36.97 55.26 37.14 55.26 33.58"/><polygon class="cls-29" points="58.34 38.92 58.34 38.57 55.55 36.97 55.26 37.14 58.34 38.92"/><polygon class="cls-30" points="62.2 33.58 61.9 33.75 61.9 36.97 62.2 37.14 62.2 33.58"/><polygon class="cls-29" points="59.12 38.92 59.12 38.57 61.9 36.97 62.2 37.14 59.12 38.92"/><polygon class="cls-31" points="59.78 37.55 59.97 37.44 59.97 36.61 59.78 36.72 59.78 37.55"/><polygon class="cls-31" points="60.12 36.53 59.88 35.99 59.64 36.8 60.12 36.53"/><polygon class="cls-19" points="59 33.61 57.78 32.91 58.42 32.54 59.64 33.25 59 33.61"/><polygon class="cls-31" points="60.68 37.23 60.66 37.25 60.66 36.58 60.68 36.57 60.68 37.23"/><polygon class="cls-31" points="60.78 37.17 60.71 37.22 60.71 36.55 60.78 36.51 60.78 37.17"/><polygon class="cls-31" points="60.85 37.13 60.8 37.16 60.8 36.5 60.85 36.47 60.85 37.13"/><polygon class="cls-31" points="60.95 37.08 60.87 37.12 60.87 36.46 60.95 36.42 60.95 37.08"/><polygon class="cls-31" points="61.02 37.03 60.95 37.08 60.95 36.41 61.02 36.37 61.02 37.03"/><polygon class="cls-31" points="61.1 36.99 61.04 37.03 61.04 36.36 61.1 36.33 61.1 36.99"/><polygon class="cls-31" points="61.17 36.95 61.12 36.98 61.12 36.31 61.17 36.28 61.17 36.95"/><polygon class="cls-31" points="61.24 36.91 61.22 36.92 61.22 36.26 61.24 36.24 61.24 36.91"/><polygon class="cls-31" points="61.33 36.86 61.28 36.88 61.28 36.22 61.33 36.19 61.33 36.86"/><polygon class="cls-31" points="61.4 36.82 61.38 36.83 61.38 36.17 61.4 36.15 61.4 36.82"/><polygon class="cls-31" points="61.5 36.76 61.44 36.8 61.44 36.13 61.5 36.1 61.5 36.76"/><polygon class="cls-31" points="61.56 36.73 61.54 36.74 61.54 36.07 61.56 36.06 61.56 36.73"/><polygon class="cls-32" points="56.93 35.62 55.83 34.99 55.83 34.88 56.93 35.51 56.93 35.62"/><polygon class="cls-32" points="56.93 35.84 55.83 35.21 55.83 35.1 56.93 35.73 56.93 35.84"/><polygon class="cls-32" points="56.54 35.83 55.83 35.43 55.83 35.32 56.54 35.72 56.54 35.83"/></g><path class="cls-39" d="M58.27,40.8a8.88,8.88,0,0,0,.28,3.39c.52,1.1,1.32,1,1,1.29a.7.7,0,0,1-.57-.15c-.34-.23.1,1,.1,1s-.15.36-.43.11c0,0-.22.07-.32-.24,0,0-.22,0-.32-.41s-.27-.61-.15-1.09A13.19,13.19,0,0,1,57,42.82a4.09,4.09,0,0,1,.4-2.93Z"/><path class="cls-40" d="M58.34,38.29s1.19.89,0,3.83a2.38,2.38,0,0,0-1.53-.64Z"/><path class="cls-6" d="M56.43,53.8a4,4,0,0,0,1.32,1.09c.59.19.64.59.52.69-.75.66-3.31-.41-3.55-.65s.12-1.1.12-1.1Z"/><path class="cls-41" d="M56.9,54.16s-1.95.67-2.34.18-1.26-11-1.26-11,2.65,0,2.68.41C56.36,49.29,55.74,52.48,56.9,54.16Z"/><path class="cls-6" d="M53.81,55a3.33,3.33,0,0,0,.65,1.13c.37.33.15.83-.75.68a1.82,1.82,0,0,1-1.62-1.86Z"/><path class="cls-42" d="M54.09,55.29a1.93,1.93,0,0,1-2,0c-.9-.65-.64-7-1.16-9.94s.6-4.08.6-4.08L54,42.94s.07,8-.07,9.16A17,17,0,0,0,54.09,55.29Z"/><path class="cls-40" d="M57.12,36.6a3.82,3.82,0,0,0-4.41,1.57,12.82,12.82,0,0,0-1.77,4.25c.39,1,2.19,1.87,5.16,2.47a6.21,6.21,0,0,0,.08-1.27,4.22,4.22,0,0,1,.45-1.6c.34-.74,1-.66,1.73-1.69C59,39.48,58.76,38.48,57.12,36.6Z"/><path class="cls-43" d="M57.41,35.6a4,4,0,0,1-.4,1c-.14.15.41,1.48.63,1.52a.76.76,0,0,0,.9-.59,2.86,2.86,0,0,1,.53-.79Z"/><path class="cls-39" d="M57.73,34.67a2.07,2.07,0,0,0,.2,2.7,1.08,1.08,0,0,0,1.33.13,4,4,0,0,0,1.22-1.37,1.4,1.4,0,0,0-.78-1.88A1.53,1.53,0,0,0,57.73,34.67Z"/><path class="cls-44" d="M60.44,36.33s-1,.55-1.68-.83c0-.08-.39.19-.42.13-.6-1-1,.72-1,.72s-.38-.25.21-1.38,1.68-1.89,2.84-.6A1.39,1.39,0,0,1,60.44,36.33Z"/><polygon class="cls-33" points="56.18 44.72 59.73 44.4 57.67 41.49 54.13 41.81 56.18 44.72"/><polygon class="cls-34" points="55.26 43.42 58.81 43.09 58.6 42.8 55.05 43.12 55.26 43.42"/><polygon class="cls-35" points="55.16 43.27 58.71 42.95 58.7 42.94 55.15 43.26 55.16 43.27"/><polygon class="cls-37" points="54.69 47.95 58.23 47.63 59.73 44.4 56.18 44.72 54.69 47.95"/><polygon class="cls-45" points="52.64 45.05 54.69 47.95 56.18 44.72 54.13 41.81 52.64 45.05"/><polygon class="cls-34" points="55.05 43.12 53.56 46.35 53.77 46.65 55.26 43.42 55.05 43.12"/><polygon class="cls-35" points="55.15 43.26 53.66 46.49 53.67 46.51 55.16 43.27 55.15 43.26"/><polygon class="cls-6" points="57.48 47.36 57.94 47.31 57.97 47.26 57.51 47.3 57.48 47.36"/><polygon class="cls-6" points="57.81 47.27 57.85 47.27 57.98 46.99 57.94 46.99 57.81 47.27"/><polygon class="cls-6" points="57.6 47.29 57.64 47.29 57.77 47.01 57.73 47.01 57.6 47.29"/><polygon class="cls-6" points="58.03 46.84 57.91 47 58 46.99 58.03 46.84 58.03 46.84"/><polygon class="cls-6" points="57.79 47.01 57.82 46.86 57.7 47.02 57.79 47.01"/><polygon class="cls-6" points="55.45 47.5 55.43 47.5 55.65 47.02 55.67 47.02 55.45 47.5"/><polygon class="cls-6" points="55.55 47.49 55.48 47.5 55.7 47.02 55.77 47.01 55.55 47.49"/><polygon class="cls-6" points="55.61 47.48 55.57 47.49 55.79 47.01 55.83 47 55.61 47.48"/><polygon class="cls-6" points="55.7 47.48 55.63 47.48 55.85 47 55.92 46.99 55.7 47.48"/><polygon class="cls-6" points="55.77 47.47 55.7 47.48 55.92 46.99 55.99 46.99 55.77 47.47"/><polygon class="cls-6" points="55.84 47.46 55.78 47.47 56.01 46.99 56.06 46.98 55.84 47.46"/><polygon class="cls-6" points="55.91 47.46 55.86 47.46 56.08 46.98 56.13 46.98 55.91 47.46"/><polygon class="cls-6" points="55.97 47.45 55.95 47.45 56.17 46.97 56.19 46.97 55.97 47.45"/><polygon class="cls-6" points="56.05 47.44 56.01 47.45 56.23 46.97 56.27 46.96 56.05 47.44"/><polygon class="cls-6" points="56.12 47.44 56.09 47.44 56.32 46.96 56.34 46.96 56.12 47.44"/><polygon class="cls-6" points="56.2 47.43 56.15 47.44 56.37 46.95 56.43 46.95 56.2 47.43"/><polygon class="cls-6" points="56.26 47.42 56.24 47.43 56.46 46.95 56.48 46.94 56.26 47.42"/><path class="cls-6" d="M53.4,45a.1.1,0,0,0,0,0l-.07-.11a.15.15,0,0,1,0,0v.22l.08,0Z"/><path class="cls-6" d="M53.31,44.91a.13.13,0,0,0,0,0,.05.05,0,0,0,0,0h0l0,0h0V45l.06.09v0h0l0,0Z"/><path class="cls-6" d="M53.17,44.9l-.06,0,0,0a.07.07,0,0,0,0,.06v0l0,0,.08,0Z"/><path class="cls-6" d="M53.17,45.12v0h0l-.07-.1,0,0v.14a.13.13,0,0,0,0,0v0l0,.05h0l0,0,.07,0Z"/><path class="cls-6" d="M53.22,45.24l0,.11.06.09,0,0,0,0v-.1Z"/><path class="cls-6" d="M53.35,45.2l-.07,0h0v.14a.09.09,0,0,1,0,0l.08,0s0,0,0,0v-.06h0Z"/><polygon class="cls-19" points="57.74 45.65 58.86 45.54 59.1 45.01 57.98 45.11 57.74 45.65"/><polygon class="cls-38" points="57.97 45.25 58.98 45.16 59.02 45.08 58.01 45.17 57.97 45.25"/><polygon class="cls-38" points="57.9 45.41 58.91 45.32 58.94 45.24 57.94 45.33 57.9 45.41"/><polygon class="cls-38" points="58.19 45.54 58.83 45.48 58.87 45.4 58.23 45.46 58.19 45.54"/><path class="cls-39" d="M53.13,40a9.67,9.67,0,0,0,.62,3.65c.67,1.14,1.53.92,1.24,1.3a.76.76,0,0,1-.63-.11c-.39-.21.21,1.13.21,1.13s-.13.4-.45.16c0,0-.23.1-.37-.23,0,0-.24,0-.38-.42s-.35-.64-.26-1.16c0,0-.94-1.57-1.32-2.44a2.82,2.82,0,0,1,.3-2.79Z"/><path class="cls-40" d="M55.48,38.29a5.78,5.78,0,0,1-2,2.34s-1.53-1-1.69-1.49,2.06-3.12,3.3-2.55C55.05,36.59,55.91,36.93,55.48,38.29Z"/><path class="cls-46" d="M50.22,65.25a.14.14,0,0,0-.1.17l0,.15-.23.38a.14.14,0,0,0,.05.19c.07,0,.3.09.34,0,.28-.45.15-.53.13-.61l-.05-.21A.14.14,0,0,0,50.22,65.25Z"/><path class="cls-46" d="M50,65.08a.14.14,0,0,0-.13.15l0,.19-.2.36a.14.14,0,1,0,.25.13c.28-.52.25-.36.22-.71A.14.14,0,0,0,50,65.08Z"/><path class="cls-46" d="M49.7,65a.14.14,0,0,0-.13.2l.09.18-.09.36a.14.14,0,1,0,.27.07c.1-.42.12-.44.09-.51l-.11-.23A.14.14,0,0,0,49.7,65Z"/><path class="cls-46" d="M47.16,64.5l-.51.65.74.77a2.87,2.87,0,0,0,1.11-1s-.28-.12-.25-.29c0,0-.31-.14-.29-.34Z"/><path class="cls-46" d="M48.87,64.61a.15.15,0,0,1-.11.21l-.17,0-.31.21a.15.15,0,0,1-.17-.24l.34-.23s.09,0,.27,0A.15.15,0,0,1,48.87,64.61Z"/><path class="cls-46" d="M48.69,64.4a.15.15,0,0,1-.15.14h-.17l-.32.29a.15.15,0,0,1-.2-.22l.36-.33a.15.15,0,0,1,.11,0h.23A.15.15,0,0,1,48.69,64.4Z"/><path class="cls-46" d="M48.25,64.17a.18.18,0,0,1-.16.2l-.25,0-.42.35a.18.18,0,1,1-.24-.28c.45-.38.47-.42.56-.43l.31,0A.18.18,0,0,1,48.25,64.17Z"/><path class="cls-47" d="M51.19,64.2a.06.06,0,0,1,0,0l0,0-2.51,2.55a.15.15,0,0,1-.15,0l-2.12-.93,0,0,0,0a.08.08,0,0,1,0-.06l2.51-2.55a.15.15,0,0,1,.15,0l2.12.93A.06.06,0,0,1,51.19,64.2Z"/><path class="cls-48" d="M51.19,64.2v.07a.08.08,0,0,1,0,.06l-2.51,2.55a.15.15,0,0,1-.15,0L46.39,66a.06.06,0,0,1,0,0v-.07l0,0,0,0,2.12.93a.15.15,0,0,0,.15,0l2.51-2.55,0,0A.06.06,0,0,0,51.19,64.2Z"/><polygon class="cls-49" points="48.57 66.67 46.59 65.81 48.96 63.4 50.94 64.27 48.57 66.67"/><polygon class="cls-50" points="50.68 64.36 49.97 64.05 49.99 64.03 50.71 64.34 50.68 64.36"/><polygon class="cls-50" points="50.57 64.48 49.86 64.17 49.88 64.14 50.59 64.45 50.57 64.48"/><polygon class="cls-50" points="50.46 64.59 49.75 64.28 49.77 64.25 50.48 64.57 50.46 64.59"/><polygon class="cls-50" points="50.35 64.7 49.64 64.39 49.66 64.37 50.37 64.68 50.35 64.7"/><polygon class="cls-50" points="48.7 66.38 48.34 66.22 48.37 66.2 48.73 66.35 48.7 66.38"/><polygon class="cls-50" points="47.66 65.92 46.95 65.61 46.97 65.59 47.69 65.9 47.66 65.92"/><polygon class="cls-50" points="50.11 64.95 48.35 64.18 48.38 64.16 50.13 64.92 50.11 64.95"/><polygon class="cls-50" points="49.96 65.1 48.21 64.33 48.23 64.31 49.98 65.08 49.96 65.1"/><path class="cls-50" d="M49,66.09l-1.79-.78.84-.86,1.79.78Zm-1.72-.79L49,66l.79-.8-1.72-.75Z"/><polygon class="cls-50" points="47.74 65.51 47.7 65.5 48.52 64.66 48.55 64.68 47.74 65.51"/><polygon class="cls-50" points="48.36 65.78 48.33 65.77 49.14 64.94 49.18 64.95 48.36 65.78"/><polygon class="cls-50" points="49.68 65.38 47.93 64.62 47.95 64.59 49.71 65.36 49.68 65.38"/><polygon class="cls-50" points="49.4 65.67 47.65 64.9 47.68 64.87 49.43 65.64 49.4 65.67"/><polygon class="cls-50" points="49.13 65.94 47.37 65.18 47.4 65.15 49.16 65.92 49.13 65.94"/><polygon class="cls-50" points="48.12 64.9 47.93 64.81 47.96 64.78 48.15 64.87 48.12 64.9"/><polygon class="cls-50" points="48.37 65.44 48.17 65.36 48.2 65.33 48.4 65.41 48.37 65.44"/><polygon class="cls-50" points="49.54 65.22 49.34 65.14 49.37 65.11 49.57 65.19 49.54 65.22"/><path class="cls-51" d="M50.56,63.79l-.13-.06a.18.18,0,0,0-.1-.25.45.45,0,0,0-.39,0l-.16-.07a.14.14,0,0,0-.15,0l-.14.14s0,.08,0,.1l.78.34a.14.14,0,0,0,.15,0l.14-.14S50.6,63.81,50.56,63.79Zm-.3-.24a.12.12,0,0,1,.08.15L50,63.55A.31.31,0,0,1,50.26,63.54Z"/><path class="cls-46" d="M47.88,64.61a2.15,2.15,0,0,1-.68.27.21.21,0,1,1-.07-.41h.29l.33-.12A.16.16,0,0,1,47.88,64.61Z"/><path class="cls-52" d="M46.49,82.24c-.1.48-2.65,1.48-3.37,1h0A.25.25,0,0,1,43,83a3.11,3.11,0,0,1,.09-.8.32.32,0,0,1,.13-.18c.14-.09.58-.44.74-.54s-.09.46,1.36.34C46.34,81.58,46.57,81.78,46.49,82.24Z"/><path class="cls-52" d="M48.66,83c-.1.48-2.65,1.48-3.37,1h0a.25.25,0,0,1-.09-.25,3.11,3.11,0,0,1,.09-.8.32.32,0,0,1,.13-.18c.14-.09.58-.44.74-.54s-.09.46,1.36.34C48.51,82.35,48.74,82.55,48.66,83Z"/><path class="cls-39" d="M42.11,65.65s.06,1.23,1,.9l.75-.36L43,65.56Z"/><path class="cls-40" d="M43,62.77a9.53,9.53,0,0,0-.92,2.94,1.06,1.06,0,0,0,1,.46Z"/><path class="cls-41" d="M43.06,69.17a6.36,6.36,0,0,0-.19,3.62c.6,2,.25,8.13.19,9.47,0,0,.77.74,1.85-.22a30.14,30.14,0,0,0,.28-6.54,28.72,28.72,0,0,1,.1-6Z"/><path class="cls-39" d="M43.56,59.74A3.84,3.84,0,0,1,44,62a5.84,5.84,0,0,0,1.82.35,1,1,0,0,1,.47-1.08c.63-.45.29-1.33.29-1.33s.28.08.06-.28a.7.7,0,0,1-.12-.39,1.46,1.46,0,0,0-.24-.59S44.52,57.29,43.56,59.74Z"/><path class="cls-42" d="M44.28,69.87s-1,1.41,0,4.1.9,9,.9,9a1.59,1.59,0,0,0,2.08-.4s0-5.85.21-7.23a11.36,11.36,0,0,0-.19-4.86Z"/><path class="cls-40" d="M44.05,61.84a3.37,3.37,0,0,0-1.63,3.86,14.65,14.65,0,0,1,.28,4.72,4.4,4.4,0,0,0,4.76.76,50.71,50.71,0,0,1,.14-5.48,3,3,0,0,0-1.45-2.79,1.89,1.89,0,0,1-.3-.69S44,62.25,44.05,61.84Z"/><path class="cls-44" d="M44,61.08a1,1,0,0,0,1-.18s-.33-.91.37-.86a1.8,1.8,0,0,1,.15-.64,1.49,1.49,0,0,1,.88-.49s-.41-1.66-2.31-.56C44.1,58.35,42.77,59.2,44,61.08Z"/><path class="cls-41" d="M42.8,59.29l1,.76s1.62-.62,1.84-1.25c0,0,1.41-.14,1.45-.75s-.15-.72-.15-.72l-1.08.42-1.18-.59a3.35,3.35,0,0,0-1.23.52A2.41,2.41,0,0,0,42.8,59.29Z"/><path class="cls-46" d="M49.1,66.09a1.47,1.47,0,0,1,.08-.65,1.24,1.24,0,0,1,.19-.25.13.13,0,0,1,.18,0c.06.06.08.09,0,.34l0,0a3.41,3.41,0,0,0-.05.52.17.17,0,0,1-.34,0Z"/><path class="cls-46" d="M48.8,66.38l.63.56c.47-.42.69-.37.88-.77,0,0-.23-.06-.22-.2s-.25-.07-.25-.23c0,0-.4.17-.43-.25C49.21,65.69,49,66.1,48.8,66.38Z"/><path class="cls-46" d="M46.92,65.14a8.89,8.89,0,0,1,.72,2.1l1.17-.85c.18-.19.39-.24.58-.05a.42.42,0,0,1,.1.57l-1.26,1.46a1.1,1.1,0,0,1-.55.35c-.73.19-1.53-.43-2.37-2.92Z"/><path class="cls-40" d="M45.86,67.76s-1.47-3.19-.07-3.57,1.53.79,1.53.79a5.52,5.52,0,0,0,.4,1.83A2,2,0,0,0,45.86,67.76Z"/><path class="cls-6" d="M86.18,65.64a3.26,3.26,0,0,1,.9,1c.08.2-.45.43-.82.82-.64.68-1.83,1.08-2.32.67a1.18,1.18,0,0,1,.59-.75c.77-.46.53-.7.53-.7Z"/><path class="cls-6" d="M84.51,68.34s.39,1.69-.05,1.92-2.45-.59-3-1.24,1.81,0,2.25-1Z"/><path class="cls-41" d="M82.8,56.32s-1.87,5.84-.34,7.22a10.6,10.6,0,0,1,2.36,3.34,2.28,2.28,0,0,0,1.64-1.19S85,62.59,84.26,62c0,0,2.18-3.89,1.17-5.55Z"/><path class="cls-42" d="M84.57,55.89s-1,6-.69,7,.22,4-.73,5.22c0,0,1,1.33,2,1,0,0,1.73-4.17,1.19-6,0,0,2.16-4.86,1-7Z"/><path class="cls-50" d="M74,74.51v1.17c0,.28.19.39.43.25a1,1,0,0,0,.43-.75l0-1.15,0,0Z"/><path class="cls-53" d="M74,74.54v1.17c0,.28.19.39.43.25a1,1,0,0,0,.43-.75V74Z"/><path class="cls-54" d="M74.29,75.56a.41.41,0,0,1,.19-.32c.1-.06.19,0,.19.11a.41.41,0,0,1-.19.32C74.37,75.73,74.29,75.68,74.29,75.56Z"/><path class="cls-9" d="M74.51,76.8a.38.38,0,0,1-.13-.12.65.65,0,0,1-.09-.35A1.63,1.63,0,0,1,75,75a.65.65,0,0,1,.35-.1.37.37,0,0,1,.17,0L75,74.67a.52.52,0,0,0-.52.05A1.63,1.63,0,0,0,73.73,76a.52.52,0,0,0,.22.48Z"/><path class="cls-13" d="M75,76.75a1.63,1.63,0,0,0,.74-1.28.52.52,0,0,0-.22-.48.37.37,0,0,0-.17,0A.65.65,0,0,0,75,75a1.63,1.63,0,0,0-.74,1.28.65.65,0,0,0,.09.35.38.38,0,0,0,.13.12A.52.52,0,0,0,75,76.75Z"/><path class="cls-10" d="M75.55,75.6c0-.33-.23-.46-.52-.3a1.14,1.14,0,0,0-.52.89c0,.33.23.46.52.3A1.14,1.14,0,0,0,75.55,75.6Z"/><path class="cls-11" d="M75.35,75.35a.21.21,0,0,0-.14,0,.44.44,0,0,0-.15.06,1,1,0,0,0-.46.79.43.43,0,0,0,0,.15.21.21,0,0,0,.09.11.29.29,0,0,0,.28,0,1,1,0,0,0,.46-.79A.29.29,0,0,0,75.35,75.35Z"/><path class="cls-5" d="M75.21,75.33a.44.44,0,0,0-.15.06,1,1,0,0,0-.46.79.43.43,0,0,0,0,.15.42.42,0,0,0,.15-.06,1,1,0,0,0,.46-.79A.42.42,0,0,0,75.21,75.33Z"/><g class="cls-55"><path class="cls-9" d="M74.79,76.12l0,0a.2.2,0,0,1,0-.11.49.49,0,0,1,.22-.39.2.2,0,0,1,.11,0h.05l-.17-.1a.16.16,0,0,0-.16,0,.49.49,0,0,0-.22.39.16.16,0,0,0,.07.14Z"/><path class="cls-13" d="M75,76.11a.49.49,0,0,0,.22-.39.16.16,0,0,0-.07-.14h-.05a.2.2,0,0,0-.11,0,.49.49,0,0,0-.22.39.2.2,0,0,0,0,.11l0,0A.16.16,0,0,0,75,76.11Z"/><path class="cls-8" d="M75.05,75.67h0l-.06,0a.32.32,0,0,0-.15.25.13.13,0,0,0,0,.06h0l0,0a.1.1,0,0,0,.1,0,.32.32,0,0,0,.15-.25A.1.1,0,0,0,75.05,75.67Z"/><path class="cls-7" d="M75,75.66l-.06,0a.32.32,0,0,0-.15.25.13.13,0,0,0,0,.06l.06,0a.32.32,0,0,0,.15-.25A.13.13,0,0,0,75,75.66Z"/></g><path class="cls-50" d="M74.71,74.92v1.17c0,.28.19.39.43.25a1,1,0,0,0,.43-.75l0-1.15,0,0Z"/><path class="cls-56" d="M74.75,74.94v1.17c0,.28.19.39.43.25a1,1,0,0,0,.43-.75V74.44Z"/><polygon class="cls-57" points="75.22 76.13 75.4 75.9 75.4 75.65 75.34 75.64 75.22 75.63 75.03 75.87 75.03 76.08 75.03 76.12 75.22 76.13"/><path class="cls-51" d="M75.21,76a.25.25,0,0,0,.11-.2c0-.07-.05-.1-.11-.07a.25.25,0,0,0-.11.2C75.1,76,75.15,76.05,75.21,76Z"/><path class="cls-54" d="M75.25,76a.25.25,0,0,0,.11-.2c0-.07-.05-.1-.11-.07a.25.25,0,0,0-.11.2C75.13,76,75.18,76.07,75.25,76Z"/><polygon class="cls-54" points="75.03 76.12 75.03 76.08 75.03 75.87 75.22 75.63 75.34 75.64 75.4 75.65 75.34 75.61 75.15 75.6 74.96 75.83 74.96 76.08 75.03 76.12"/><polygon class="cls-50" points="74 74.51 74 74.56 74.75 74.99 74.75 74.94 74 74.51"/><polygon class="cls-58" points="75.61 74.44 74.75 74.94 74.01 74.51 74.87 74.01 75.61 74.44"/><path class="cls-50" d="M67.5,70.76v1.17c0,.28.19.39.43.25a1,1,0,0,0,.43-.75l0-1.15,0,0Z"/><path class="cls-53" d="M67.54,70.78V72c0,.28.19.39.43.25a1,1,0,0,0,.43-.75V70.28Z"/><path class="cls-54" d="M67.79,71.81a.41.41,0,0,1,.19-.32c.1-.06.19,0,.19.11a.41.41,0,0,1-.19.32C67.87,72,67.79,71.93,67.79,71.81Z"/><path class="cls-9" d="M68,73a.38.38,0,0,1-.13-.12.65.65,0,0,1-.09-.35,1.63,1.63,0,0,1,.74-1.28.65.65,0,0,1,.35-.1.37.37,0,0,1,.17,0l-.57-.33A.52.52,0,0,0,68,71a1.63,1.63,0,0,0-.74,1.28.52.52,0,0,0,.22.48Z"/><path class="cls-13" d="M68.53,73a1.63,1.63,0,0,0,.74-1.28.52.52,0,0,0-.22-.48.37.37,0,0,0-.17,0,.65.65,0,0,0-.35.1,1.63,1.63,0,0,0-.74,1.28.65.65,0,0,0,.09.35A.38.38,0,0,0,68,73,.52.52,0,0,0,68.53,73Z"/><path class="cls-10" d="M69,71.85c0-.33-.23-.46-.52-.3a1.14,1.14,0,0,0-.52.89c0,.33.23.46.52.3A1.14,1.14,0,0,0,69,71.85Z"/><path class="cls-11" d="M68.85,71.6a.21.21,0,0,0-.14,0,.43.43,0,0,0-.15.06,1,1,0,0,0-.46.79.44.44,0,0,0,0,.15.21.21,0,0,0,.09.11.29.29,0,0,0,.28,0,1,1,0,0,0,.46-.79A.29.29,0,0,0,68.85,71.6Z"/><path class="cls-5" d="M68.71,71.58a.43.43,0,0,0-.15.06,1,1,0,0,0-.46.79.44.44,0,0,0,0,.15.42.42,0,0,0,.15-.06,1,1,0,0,0,.46-.79A.42.42,0,0,0,68.71,71.58Z"/><g class="cls-59"><path class="cls-9" d="M68.29,72.37l0,0a.2.2,0,0,1,0-.11.49.49,0,0,1,.22-.39.2.2,0,0,1,.11,0h.05l-.17-.1a.16.16,0,0,0-.16,0,.49.49,0,0,0-.22.39.16.16,0,0,0,.07.14Z"/><path class="cls-13" d="M68.45,72.36a.49.49,0,0,0,.22-.39.16.16,0,0,0-.07-.14h-.05a.2.2,0,0,0-.11,0,.49.49,0,0,0-.22.39.2.2,0,0,0,0,.11l0,0A.16.16,0,0,0,68.45,72.36Z"/><path class="cls-8" d="M68.55,71.92h0l-.06,0a.32.32,0,0,0-.15.25.13.13,0,0,0,0,.06h0l0,0a.1.1,0,0,0,.1,0A.32.32,0,0,0,68.6,72,.1.1,0,0,0,68.55,71.92Z"/><path class="cls-7" d="M68.51,71.91l-.06,0a.32.32,0,0,0-.15.25.13.13,0,0,0,0,.06l.06,0a.32.32,0,0,0,.15-.25A.13.13,0,0,0,68.51,71.91Z"/></g><path class="cls-50" d="M68.21,71.17v1.17c0,.28.19.39.43.25a1,1,0,0,0,.43-.75l0-1.15,0,0Z"/><path class="cls-56" d="M68.25,71.19v1.17c0,.28.19.39.43.25a1,1,0,0,0,.43-.75V70.69Z"/><polygon class="cls-57" points="68.71 72.38 68.9 72.15 68.9 71.9 68.84 71.89 68.71 71.88 68.53 72.11 68.53 72.33 68.53 72.36 68.71 72.38"/><path class="cls-51" d="M68.71,72.26a.25.25,0,0,0,.11-.2c0-.07-.05-.1-.11-.07a.25.25,0,0,0-.11.2C68.6,72.27,68.65,72.3,68.71,72.26Z"/><path class="cls-54" d="M68.75,72.28a.25.25,0,0,0,.11-.2c0-.07-.05-.1-.11-.07a.25.25,0,0,0-.11.2C68.63,72.29,68.68,72.32,68.75,72.28Z"/><polygon class="cls-54" points="68.53 72.36 68.53 72.33 68.53 72.11 68.71 71.88 68.84 71.89 68.9 71.9 68.84 71.86 68.65 71.84 68.46 72.08 68.46 72.33 68.53 72.36"/><polygon class="cls-50" points="67.5 70.76 67.5 70.81 68.25 71.24 68.25 71.19 67.5 70.76"/><polygon class="cls-58" points="69.11 70.69 68.25 71.19 67.5 70.76 68.37 70.26 69.11 70.69"/><path class="cls-50" d="M83,69.32v1.17c0,.28.19.39.43.25a1,1,0,0,0,.43-.75l0-1.15,0,0Z"/><path class="cls-53" d="M83,69.34v1.17c0,.28.19.39.43.25a1,1,0,0,0,.43-.75V68.84Z"/><path class="cls-54" d="M83.29,70.37a.41.41,0,0,1,.19-.32c.1-.06.19,0,.19.11a.41.41,0,0,1-.19.32C83.37,70.53,83.29,70.48,83.29,70.37Z"/><path class="cls-9" d="M83.51,71.6a.38.38,0,0,1-.13-.12.65.65,0,0,1-.09-.35A1.63,1.63,0,0,1,84,69.85a.65.65,0,0,1,.35-.1.37.37,0,0,1,.17,0L84,69.47a.52.52,0,0,0-.52.05,1.63,1.63,0,0,0-.74,1.28.52.52,0,0,0,.22.48Z"/><path class="cls-13" d="M84,71.55a1.63,1.63,0,0,0,.74-1.28.52.52,0,0,0-.22-.48.37.37,0,0,0-.17,0,.65.65,0,0,0-.35.1,1.63,1.63,0,0,0-.74,1.28.65.65,0,0,0,.09.35.38.38,0,0,0,.13.12A.52.52,0,0,0,84,71.55Z"/><path class="cls-10" d="M84.55,70.4c0-.33-.23-.46-.52-.3a1.14,1.14,0,0,0-.52.89c0,.33.23.46.52.3A1.14,1.14,0,0,0,84.55,70.4Z"/><path class="cls-11" d="M84.35,70.16a.21.21,0,0,0-.14,0,.44.44,0,0,0-.15.06,1,1,0,0,0-.46.79.43.43,0,0,0,0,.15.21.21,0,0,0,.09.11.29.29,0,0,0,.28,0,1,1,0,0,0,.46-.79A.29.29,0,0,0,84.35,70.16Z"/><path class="cls-5" d="M84.21,70.13a.44.44,0,0,0-.15.06,1,1,0,0,0-.46.79.43.43,0,0,0,0,.15.42.42,0,0,0,.15-.06,1,1,0,0,0,.46-.79A.42.42,0,0,0,84.21,70.13Z"/><g class="cls-60"><path class="cls-9" d="M83.79,70.93l0,0a.2.2,0,0,1,0-.11A.49.49,0,0,1,84,70.4a.2.2,0,0,1,.11,0h.05l-.17-.1a.16.16,0,0,0-.16,0,.49.49,0,0,0-.22.39.16.16,0,0,0,.07.14Z"/><path class="cls-13" d="M84,70.91a.49.49,0,0,0,.22-.39.16.16,0,0,0-.07-.14h-.05a.2.2,0,0,0-.11,0,.49.49,0,0,0-.22.39.2.2,0,0,0,0,.11l0,0A.16.16,0,0,0,84,70.91Z"/><path class="cls-8" d="M84.05,70.48h0l-.06,0a.32.32,0,0,0-.15.25.13.13,0,0,0,0,.06h0l0,0a.1.1,0,0,0,.1,0,.32.32,0,0,0,.15-.25A.1.1,0,0,0,84.05,70.48Z"/><path class="cls-7" d="M84,70.47l-.06,0a.32.32,0,0,0-.15.25.13.13,0,0,0,0,.06l.06,0a.32.32,0,0,0,.15-.25A.13.13,0,0,0,84,70.47Z"/></g><path class="cls-50" d="M83.71,69.72V70.9c0,.28.19.39.43.25a1,1,0,0,0,.43-.75l0-1.15,0,0Z"/><path class="cls-56" d="M83.75,69.75v1.17c0,.28.19.39.43.25a1,1,0,0,0,.43-.75V69.25Z"/><polygon class="cls-57" points="84.22 70.94 84.4 70.7 84.4 70.45 84.34 70.45 84.22 70.44 84.03 70.67 84.03 70.89 84.03 70.92 84.22 70.94"/><path class="cls-51" d="M84.22,70.82a.25.25,0,0,0,.11-.2c0-.07-.05-.1-.11-.07a.25.25,0,0,0-.11.2C84.1,70.83,84.15,70.85,84.22,70.82Z"/><path class="cls-54" d="M84.25,70.84a.25.25,0,0,0,.11-.2c0-.07-.05-.1-.11-.07a.25.25,0,0,0-.11.2C84.13,70.84,84.18,70.87,84.25,70.84Z"/><polygon class="cls-54" points="84.03 70.92 84.03 70.89 84.03 70.67 84.22 70.44 84.34 70.45 84.4 70.45 84.34 70.42 84.15 70.4 83.96 70.63 83.96 70.88 84.03 70.92"/><polygon class="cls-50" points="83.01 69.32 83.01 69.37 83.75 69.8 83.75 69.75 83.01 69.32"/><polygon class="cls-58" points="84.62 69.25 83.75 69.75 83.01 69.32 83.87 68.82 84.62 69.25"/><polygon class="cls-18" points="66.93 70.99 66.93 71.33 74.03 75.43 74.03 75.09 66.93 70.99"/><polygon class="cls-61" points="85 68.76 85 69.1 74.03 75.43 74.03 75.09 85 68.76"/><polygon class="cls-17" points="74.03 75.09 85 68.76 77.89 64.66 66.93 70.99 74.03 75.09"/><path class="cls-11" d="M84.24,68.95a.22.22,0,0,1-.22-.22V61.6a.22.22,0,0,1,.07-.16L86,59.57a.22.22,0,0,1,.32.32L84.46,61.7v7A.22.22,0,0,1,84.24,68.95Z"/><path class="cls-11" d="M78,65.32a.22.22,0,0,1-.22-.22V58a.22.22,0,0,1,.07-.16l1.87-1.87a.22.22,0,0,1,.32.32l-1.81,1.81v7A.22.22,0,0,1,78,65.32Z"/><path class="cls-11" d="M86.11,60a.22.22,0,0,1-.11,0L79.72,56.3a.22.22,0,1,1,.22-.39l6.28,3.63a.22.22,0,0,1-.11.42Z"/><path class="cls-11" d="M84.24,64.44a.22.22,0,0,1-.11,0l-6.28-3.63a.22.22,0,0,1,.22-.39L84.35,64a.22.22,0,0,1-.11.42Z"/><path class="cls-11" d="M81.1,67.14a.22.22,0,0,1-.22-.22V62.4a.22.22,0,0,1,.45,0v4.51A.22.22,0,0,1,81.1,67.14Z"/><path class="cls-39" d="M82.28,51.48s-1.48,3.68-1.87,4.19-.51.68-.24,1.15a.6.6,0,0,0,.59.3.21.21,0,0,0,.2-.24c0-.24.09-.38.27-.19,0,0,.27.22.22-.05-.1-.56-.33-.7-.12-1.25s2.45-3,2.12-3.74Z"/><path class="cls-40" d="M82,51.77a4.6,4.6,0,0,1,1.49.56c.24.26,1.07-3.81,1.07-3.81a3,3,0,0,0-2,1.52A4.92,4.92,0,0,0,82,51.77Z"/><path class="cls-40" d="M87.69,57c0,.28-3.53,1.34-5-.68a7.9,7.9,0,0,0,.1-4.41,2.75,2.75,0,0,1,.64-2.65,2.36,2.36,0,0,1,2.43-.78A3.75,3.75,0,0,1,88,49.84C89.08,51.38,87.86,53.73,87.69,57Z"/><path class="cls-43" d="M86.65,47.93a2.62,2.62,0,0,0,0,.87c0,.2-1.05.83-1.24.74a.77.77,0,0,1-.53-.85A2.47,2.47,0,0,0,85,47.8Z"/><path class="cls-39" d="M87.39,46.5a2,2,0,0,1-1.62,2,1,1,0,0,1-1.12-.62,3.82,3.82,0,0,1-.22-1.74,1.34,1.34,0,0,1,1.63-1.05A1.46,1.46,0,0,1,87.39,46.5Z"/><path class="cls-44" d="M84.36,46.35s.52-.29,1.77.26c.08,0,.2.36.26.33,1-.49.39,1.11.39,1.11s.43,0,.58-1.21-.31-2.4-1.91-2A1.33,1.33,0,0,0,84.36,46.35Z"/><path class="cls-39" d="M86.57,52.19a4.75,4.75,0,0,0-.07,1.27.35.35,0,0,1,0,.23c-.33.61-1.92,3.46-2.54,3.81s-1,1.09-.28,1.41c.45.21.55-.07.57-.28a.34.34,0,0,1,.19-.29.69.69,0,0,0,.45-.63c0-.55,3.64-2.56,3.19-5.61a.35.35,0,0,0-.06-.14c-.12-.18-.51-.58-1.29,0A.34.34,0,0,0,86.57,52.19Z"/><path class="cls-40" d="M86.27,52.52s1.52,0,1.95.58c0,0,.4-2.29-.14-2.87C87.14,49.21,86.27,50.91,86.27,52.52Z"/><polygon class="cls-62" points="34.05 62.26 44.44 56.26 44.44 55.99 34.05 61.99 34.05 62.26"/><polygon class="cls-63" points="34.05 61.99 44.44 55.99 43.56 55.49 33.17 61.49 34.05 61.99"/><polygon class="cls-64" points="33.17 61.75 34.05 62.26 34.05 61.99 33.17 61.49 33.17 61.75"/><polygon class="cls-62" points="30 59.91 40.39 53.91 40.39 53.65 30 59.65 30 59.91"/><polygon class="cls-63" points="30 59.65 40.39 53.65 39.51 53.14 29.11 59.14 30 59.65"/><polygon class="cls-64" points="29.11 59.41 30 59.91 30 59.65 29.11 59.14 29.11 59.41"/><polygon class="cls-62" points="25.94 57.57 36.33 51.57 36.33 51.31 25.94 57.31 25.94 57.57"/><polygon class="cls-63" points="25.94 57.31 36.33 51.31 35.45 50.8 25.06 56.8 25.94 57.31"/><polygon class="cls-64" points="25.06 57.06 25.94 57.57 25.94 57.31 25.06 56.8 25.06 57.06"/><polygon class="cls-62" points="34.05 61.99 34.65 61.65 34.65 60.11 34.05 60.46 34.05 61.99"/><polygon class="cls-64" points="33.17 61.49 34.05 61.99 34.05 60.46 33.17 59.95 33.17 61.49"/><polygon class="cls-64" points="33.17 59.95 33.77 59.6 34.65 60.11 34.05 60.46 33.17 59.95"/><polygon class="cls-62" points="38.82 59.24 39.68 58.75 39.68 57.21 38.82 57.71 38.82 59.24"/><polygon class="cls-64" points="37.94 58.74 38.82 59.25 38.82 57.71 37.94 57.2 37.94 58.74"/><polygon class="cls-64" points="38.07 57.12 38.67 56.78 39.55 57.28 38.95 57.63 38.07 57.12"/><polygon class="cls-62" points="43.84 56.34 44.44 55.99 44.44 54.46 43.84 54.81 43.84 56.34"/><polygon class="cls-64" points="42.96 55.83 43.84 56.34 43.84 54.81 42.96 54.3 42.96 55.83"/><polygon class="cls-64" points="42.96 54.3 43.56 53.95 44.44 54.46 43.84 54.81 42.96 54.3"/><polygon class="cls-62" points="30 59.65 30.6 59.31 30.6 57.77 30 58.12 30 59.65"/><polygon class="cls-64" points="29.11 59.14 30 59.65 30 58.12 29.11 57.61 29.11 59.14"/><polygon class="cls-64" points="29.11 57.61 29.71 57.26 30.6 57.77 30 58.12 29.11 57.61"/><polygon class="cls-62" points="34.76 56.9 35.62 56.41 35.62 54.87 34.76 55.37 34.76 56.9"/><polygon class="cls-64" points="33.88 56.4 34.76 56.91 34.76 55.37 33.88 54.86 33.88 56.4"/><polygon class="cls-64" points="34.01 54.78 34.61 54.44 35.49 54.94 34.89 55.29 34.01 54.78"/><polygon class="cls-62" points="39.79 54 40.39 53.65 40.39 52.12 39.79 52.46 39.79 54"/><polygon class="cls-64" points="38.91 53.49 39.79 54 39.79 52.46 38.91 51.95 38.91 53.49"/><polygon class="cls-64" points="38.91 51.95 39.51 51.61 40.39 52.12 39.79 52.46 38.91 51.95"/><polygon class="cls-62" points="25.94 57.31 26.54 56.96 26.54 55.43 25.94 55.77 25.94 57.31"/><polygon class="cls-64" points="25.06 56.8 25.94 57.31 25.94 55.77 25.06 55.27 25.06 56.8"/><polygon class="cls-64" points="25.06 55.27 25.66 54.92 26.54 55.43 25.94 55.77 25.06 55.27"/><polygon class="cls-62" points="30.71 54.56 31.57 54.06 31.57 52.53 30.71 53.02 30.71 54.56"/><polygon class="cls-64" points="29.82 54.06 30.71 54.56 30.71 53.03 29.82 52.52 29.82 54.06"/><polygon class="cls-64" points="29.95 52.44 30.55 52.09 31.44 52.6 30.84 52.95 29.95 52.44"/><polygon class="cls-62" points="35.73 51.66 36.33 51.31 36.33 49.77 35.73 50.12 35.73 51.66"/><polygon class="cls-64" points="34.85 51.15 35.73 51.66 35.73 50.12 34.85 49.61 34.85 51.15"/><polygon class="cls-64" points="34.85 49.61 35.45 49.27 36.33 49.77 35.73 50.12 34.85 49.61"/><polygon class="cls-62" points="34.05 60.72 44.44 54.72 44.44 54.46 34.05 60.46 34.05 60.72"/><polygon class="cls-65" points="34.05 60.46 44.44 54.46 43.56 53.95 33.17 59.95 34.05 60.46"/><polygon class="cls-64" points="33.17 60.21 34.05 60.72 34.05 60.46 33.17 59.95 33.17 60.21"/><polygon class="cls-62" points="30 58.38 40.39 52.38 40.39 52.12 30 58.12 30 58.38"/><polygon class="cls-65" points="30 58.12 40.39 52.12 39.51 51.61 29.11 57.61 30 58.12"/><polygon class="cls-64" points="29.11 57.87 30 58.38 30 58.12 29.11 57.61 29.11 57.87"/><polygon class="cls-62" points="25.94 56.04 36.33 50.04 36.33 49.77 25.94 55.77 25.94 56.04"/><polygon class="cls-65" points="25.94 55.77 36.33 49.77 35.45 49.27 25.06 55.27 25.94 55.77"/><polygon class="cls-64" points="25.06 55.53 25.94 56.04 25.94 55.77 25.06 55.27 25.06 55.53"/><polygon class="cls-62" points="34.05 60.46 25.06 55.27 25.06 54.86 34.05 60.05 34.05 60.46"/><polygon class="cls-65" points="34.05 60.05 25.06 54.86 25.94 54.35 34.93 59.54 34.05 60.05"/><polygon class="cls-66" points="34.93 59.95 34.05 60.46 34.05 60.05 34.93 59.54 34.93 59.95"/><polygon class="cls-62" points="36.43 59.09 27.44 53.89 27.44 53.49 36.43 58.68 36.43 59.09"/><polygon class="cls-65" points="36.43 58.68 27.44 53.49 28.32 52.98 37.31 58.17 36.43 58.68"/><polygon class="cls-66" points="37.31 58.58 36.43 59.09 36.43 58.68 37.31 58.17 37.31 58.58"/><polygon class="cls-62" points="38.81 57.71 29.81 52.52 29.81 52.11 38.81 57.31 38.81 57.71"/><polygon class="cls-65" points="38.81 57.31 29.81 52.11 30.7 51.61 39.69 56.8 38.81 57.31"/><polygon class="cls-66" points="39.69 57.2 38.81 57.71 38.81 57.31 39.69 56.8 39.69 57.2"/><polygon class="cls-62" points="41.19 56.34 32.19 51.15 32.19 50.74 41.19 55.93 41.19 56.34"/><polygon class="cls-65" points="41.19 55.93 32.19 50.74 33.07 50.23 42.07 55.42 41.19 55.93"/><polygon class="cls-66" points="42.07 55.83 41.19 56.34 41.19 55.93 42.07 55.42 42.07 55.83"/><polygon class="cls-62" points="43.56 54.97 34.57 49.77 34.57 49.37 43.56 54.56 43.56 54.97"/><polygon class="cls-65" points="43.56 54.56 34.57 49.37 35.45 48.86 44.44 54.05 43.56 54.56"/><polygon class="cls-66" points="44.44 54.46 43.56 54.97 43.56 54.56 44.44 54.05 44.44 54.46"/><polygon class="cls-4" points="21.46 51.05 21.46 78.73 11.46 72.97 11.29 72.86 1.29 67.09 1.29 39.41 11.29 45.18 11.46 45.28 21.46 51.05"/></g></g></svg>