<svg xmlns="http://www.w3.org/2000/svg" xmlns:xlink="http://www.w3.org/1999/xlink" viewBox="0 0 90.74 62.65"><defs><style>.cls-1{fill:none;}.cls-2{fill:#2a2a2a;}.cls-3{fill:#3a3a3a;}.cls-4{fill:#b3b3b3;}.cls-5{fill:#828282;}.cls-6{fill:#999;}.cls-7{clip-path:url(#clip-path);}.cls-8{fill:#545454;}.cls-9{fill:#6b6b6b;}.cls-10{fill:#afafaf;}.cls-11{fill:#ddd;}.cls-12{clip-path:url(#clip-path-2);}.cls-13{clip-path:url(#clip-path-3);}.cls-14{clip-path:url(#clip-path-4);}.cls-15{clip-path:url(#clip-path-5);}.cls-16{clip-path:url(#clip-path-6);}.cls-17{fill:#4e8bff;}.cls-18{fill:#262626;}.cls-19{fill:#4e4e4e;}.cls-20{fill:#e8e8e8;}.cls-21{fill:#5f5f5f;}.cls-22{fill:#373737;}.cls-23{fill:#d9d9d9;}.cls-24{fill:#5e96ff;}.cls-25{fill:url(#linear-gradient);}.cls-26{fill:#3e3e3e;}.cls-27{fill:#fff;}.cls-28{fill:#f4f4f4;}.cls-29{fill:#457ce3;}.cls-30{fill:#717171;}.cls-31{fill:#75a5ff;}</style><clipPath id="clip-path"><path class="cls-1" d="M16.88,60.57a1.18,1.18,0,0,0-.17.57.3.3,0,0,0,.51.29,1.29,1.29,0,0,0,.58-1,.3.3,0,0,0-.51-.29A1.18,1.18,0,0,0,16.88,60.57Z"/></clipPath><clipPath id="clip-path-2"><path class="cls-1" d="M18,61.23a1.18,1.18,0,0,0-.17.57.3.3,0,0,0,.51.29,1.29,1.29,0,0,0,.58-1,.3.3,0,0,0-.51-.29A1.18,1.18,0,0,0,18,61.23Z"/></clipPath><clipPath id="clip-path-3"><path class="cls-1" d="M56.17,53.89a1.18,1.18,0,0,0-.17.57.3.3,0,0,0,.51.29,1.29,1.29,0,0,0,.58-1,.3.3,0,0,0-.51-.29A1.18,1.18,0,0,0,56.17,53.89Z"/></clipPath><clipPath id="clip-path-4"><path class="cls-1" d="M57.31,54.54a1.18,1.18,0,0,0-.17.57.3.3,0,0,0,.51.29,1.29,1.29,0,0,0,.58-1,.3.3,0,0,0-.51-.29A1.18,1.18,0,0,0,57.31,54.54Z"/></clipPath><clipPath id="clip-path-5"><path class="cls-1" d="M11.47,30.68a1.18,1.18,0,0,0-.17.57.3.3,0,0,0,.51.29,1.29,1.29,0,0,0,.58-1,.3.3,0,0,0-.51-.29A1.18,1.18,0,0,0,11.47,30.68Z"/></clipPath><clipPath id="clip-path-6"><path class="cls-1" d="M12.61,31.34a1.18,1.18,0,0,0-.17.57.3.3,0,0,0,.51.29,1.29,1.29,0,0,0,.58-1A.3.3,0,0,0,13,30.9,1.18,1.18,0,0,0,12.61,31.34Z"/></clipPath><linearGradient id="linear-gradient" x1="34.24" y1="29.95" x2="42.06" y2="43.48" gradientUnits="userSpaceOnUse"><stop offset="0" stop-color="#f5f5f5"/><stop offset="0.43" stop-color="#e8e8e8"/><stop offset="1" stop-color="#cfcfcf"/></linearGradient></defs><title>i2</title><g id="Слой_2" data-name="Слой 2"><g id="Layer_2" data-name="Layer 2"><path class="cls-2" d="M16.59,61.93a.48.48,0,0,1-.16-.15.82.82,0,0,1-.11-.45,2.07,2.07,0,0,1,.93-1.62.82.82,0,0,1,.45-.13.47.47,0,0,1,.21.06l-.72-.41a.66.66,0,0,0-.66.07,2.07,2.07,0,0,0-.93,1.62.66.66,0,0,0,.27.61Z"/><path class="cls-3" d="M17.25,61.87a2.07,2.07,0,0,0,.93-1.62.66.66,0,0,0-.27-.61.47.47,0,0,0-.21-.06.82.82,0,0,0-.45.13,2.07,2.07,0,0,0-.93,1.62.82.82,0,0,0,.11.45.48.48,0,0,0,.16.15A.66.66,0,0,0,17.25,61.87Z"/><path class="cls-4" d="M17.91,60.41c0-.42-.29-.59-.65-.38a1.45,1.45,0,0,0-.65,1.13c0,.42.29.59.65.38A1.45,1.45,0,0,0,17.91,60.41Z"/><path class="cls-5" d="M17.65,60.1a.27.27,0,0,0-.18,0,.55.55,0,0,0-.19.07,1.3,1.3,0,0,0-.58,1,.55.55,0,0,0,0,.2.27.27,0,0,0,.11.14.36.36,0,0,0,.36,0,1.29,1.29,0,0,0,.58-1A.36.36,0,0,0,17.65,60.1Z"/><path class="cls-6" d="M17.47,60.07a.55.55,0,0,0-.19.07,1.3,1.3,0,0,0-.58,1,.55.55,0,0,0,0,.2.53.53,0,0,0,.19-.07,1.29,1.29,0,0,0,.58-1A.53.53,0,0,0,17.47,60.07Z"/><g class="cls-7"><path class="cls-2" d="M16.95,61.08l0,0a.25.25,0,0,1,0-.14.63.63,0,0,1,.28-.49.25.25,0,0,1,.14,0l.06,0-.22-.13a.2.2,0,0,0-.2,0,.63.63,0,0,0-.28.49.2.2,0,0,0,.08.18Z"/><path class="cls-3" d="M17.15,61.06a.63.63,0,0,0,.28-.49.2.2,0,0,0-.08-.18l-.06,0a.25.25,0,0,0-.14,0,.63.63,0,0,0-.28.49.25.25,0,0,0,0,.14l0,0A.2.2,0,0,0,17.15,61.06Z"/><path class="cls-8" d="M17.28,60.5h-.05l-.08,0a.41.41,0,0,0-.18.32.16.16,0,0,0,0,.08h0l0,0a.13.13,0,0,0,.13,0,.41.41,0,0,0,.18-.32A.13.13,0,0,0,17.28,60.5Z"/><path class="cls-9" d="M17.23,60.49l-.08,0a.41.41,0,0,0-.18.32.16.16,0,0,0,0,.08l.08,0a.41.41,0,0,0,.18-.32A.17.17,0,0,0,17.23,60.49Z"/></g><polygon class="cls-6" points="17.09 61.6 17.33 61.74 17.33 55.28 17.09 55.14 17.09 61.6"/><polygon class="cls-10" points="17.33 61.74 17.57 61.6 17.57 55.14 17.33 55.28 17.33 61.74"/><polygon class="cls-11" points="17.33 55.28 17.09 55.14 17.33 55 17.57 55.14 17.33 55.28"/><path class="cls-2" d="M17.73,62.59a.48.48,0,0,1-.16-.15.82.82,0,0,1-.11-.45,2.07,2.07,0,0,1,.93-1.62.82.82,0,0,1,.45-.13.47.47,0,0,1,.21.06l-.72-.41a.66.66,0,0,0-.66.07,2.07,2.07,0,0,0-.93,1.62.66.66,0,0,0,.27.61Z"/><path class="cls-3" d="M18.39,62.53a2.07,2.07,0,0,0,.93-1.62.66.66,0,0,0-.27-.61.47.47,0,0,0-.21-.06.82.82,0,0,0-.45.13A2.07,2.07,0,0,0,17.46,62a.82.82,0,0,0,.11.45.48.48,0,0,0,.16.15A.66.66,0,0,0,18.39,62.53Z"/><path class="cls-4" d="M19,61.07c0-.42-.29-.59-.65-.38a1.45,1.45,0,0,0-.65,1.13c0,.42.29.59.65.38A1.45,1.45,0,0,0,19,61.07Z"/><path class="cls-5" d="M18.79,60.75a.27.27,0,0,0-.18,0,.55.55,0,0,0-.19.07,1.3,1.3,0,0,0-.58,1,.55.55,0,0,0,0,.2.27.27,0,0,0,.11.14.36.36,0,0,0,.36,0,1.29,1.29,0,0,0,.58-1A.36.36,0,0,0,18.79,60.75Z"/><path class="cls-6" d="M18.61,60.73a.55.55,0,0,0-.19.07,1.3,1.3,0,0,0-.58,1,.55.55,0,0,0,0,.2.53.53,0,0,0,.19-.07,1.29,1.29,0,0,0,.58-1A.53.53,0,0,0,18.61,60.73Z"/><g class="cls-12"><path class="cls-2" d="M18.09,61.73l0,0a.25.25,0,0,1,0-.14.63.63,0,0,1,.28-.49.25.25,0,0,1,.14,0l.06,0-.22-.13a.2.2,0,0,0-.2,0,.63.63,0,0,0-.28.49.2.2,0,0,0,.08.18Z"/><path class="cls-3" d="M18.29,61.71a.63.63,0,0,0,.28-.49.2.2,0,0,0-.08-.18l-.06,0a.25.25,0,0,0-.14,0,.63.63,0,0,0-.28.49.25.25,0,0,0,0,.14l0,0A.2.2,0,0,0,18.29,61.71Z"/><path class="cls-8" d="M18.42,61.16h-.05l-.08,0a.41.41,0,0,0-.18.32.16.16,0,0,0,0,.08h0l0,0a.13.13,0,0,0,.13,0,.41.41,0,0,0,.18-.32A.13.13,0,0,0,18.42,61.16Z"/><path class="cls-9" d="M18.36,61.15l-.08,0a.41.41,0,0,0-.18.32.16.16,0,0,0,0,.08l.08,0a.41.41,0,0,0,.18-.32A.17.17,0,0,0,18.36,61.15Z"/></g><path class="cls-2" d="M55.88,55.25a.48.48,0,0,1-.16-.15.82.82,0,0,1-.11-.45A2.07,2.07,0,0,1,56.54,53a.82.82,0,0,1,.45-.13.47.47,0,0,1,.21.06l-.72-.41a.66.66,0,0,0-.66.07,2.07,2.07,0,0,0-.93,1.62.66.66,0,0,0,.27.61Z"/><path class="cls-3" d="M56.54,55.18a2.07,2.07,0,0,0,.93-1.62.66.66,0,0,0-.27-.61.47.47,0,0,0-.21-.06.82.82,0,0,0-.45.13,2.07,2.07,0,0,0-.93,1.62.82.82,0,0,0,.11.45.48.48,0,0,0,.16.15A.66.66,0,0,0,56.54,55.18Z"/><path class="cls-4" d="M57.2,53.72c0-.42-.29-.59-.65-.38a1.45,1.45,0,0,0-.65,1.13c0,.42.29.59.65.38A1.45,1.45,0,0,0,57.2,53.72Z"/><path class="cls-5" d="M56.94,53.41a.27.27,0,0,0-.18,0,.55.55,0,0,0-.19.07,1.3,1.3,0,0,0-.58,1,.55.55,0,0,0,0,.2.27.27,0,0,0,.11.14.36.36,0,0,0,.36,0,1.29,1.29,0,0,0,.58-1A.36.36,0,0,0,56.94,53.41Z"/><path class="cls-6" d="M56.77,53.38a.55.55,0,0,0-.19.07,1.3,1.3,0,0,0-.58,1,.55.55,0,0,0,0,.2.53.53,0,0,0,.19-.07,1.29,1.29,0,0,0,.58-1A.53.53,0,0,0,56.77,53.38Z"/><g class="cls-13"><path class="cls-2" d="M56.24,54.39l0,0a.25.25,0,0,1,0-.14.63.63,0,0,1,.28-.49.25.25,0,0,1,.14,0l.06,0-.22-.13a.2.2,0,0,0-.2,0,.63.63,0,0,0-.28.49.2.2,0,0,0,.08.18Z"/><path class="cls-3" d="M56.44,54.37a.63.63,0,0,0,.28-.49.2.2,0,0,0-.08-.18l-.06,0a.25.25,0,0,0-.14,0,.63.63,0,0,0-.28.49.25.25,0,0,0,0,.14l0,0A.2.2,0,0,0,56.44,54.37Z"/><path class="cls-8" d="M56.57,53.82h-.05l-.08,0a.41.41,0,0,0-.18.32.16.16,0,0,0,0,.08h0l0,0a.13.13,0,0,0,.13,0,.41.41,0,0,0,.18-.32A.13.13,0,0,0,56.57,53.82Z"/><path class="cls-9" d="M56.52,53.8l-.08,0a.41.41,0,0,0-.18.32.16.16,0,0,0,0,.08l.08,0a.41.41,0,0,0,.18-.32A.17.17,0,0,0,56.52,53.8Z"/></g><polygon class="cls-6" points="56.38 54.91 56.62 55.05 56.62 48.59 56.38 48.45 56.38 54.91"/><polygon class="cls-10" points="56.62 55.05 56.86 54.91 56.86 48.45 56.62 48.59 56.62 55.05"/><polygon class="cls-11" points="56.62 48.59 56.38 48.45 56.62 48.31 56.86 48.45 56.62 48.59"/><path class="cls-2" d="M57,55.9a.48.48,0,0,1-.16-.15.82.82,0,0,1-.11-.45,2.07,2.07,0,0,1,.93-1.62.82.82,0,0,1,.45-.13.47.47,0,0,1,.21.06l-.72-.41a.66.66,0,0,0-.66.07A2.07,2.07,0,0,0,56,54.88a.66.66,0,0,0,.27.61Z"/><path class="cls-3" d="M57.68,55.84a2.07,2.07,0,0,0,.93-1.62.66.66,0,0,0-.27-.61.47.47,0,0,0-.21-.06.82.82,0,0,0-.45.13,2.07,2.07,0,0,0-.93,1.62.82.82,0,0,0,.11.45.48.48,0,0,0,.16.15A.66.66,0,0,0,57.68,55.84Z"/><path class="cls-4" d="M58.34,54.38c0-.42-.29-.59-.65-.38A1.45,1.45,0,0,0,57,55.14c0,.42.29.59.65.38A1.45,1.45,0,0,0,58.34,54.38Z"/><path class="cls-5" d="M58.08,54.07a.27.27,0,0,0-.18,0,.55.55,0,0,0-.19.07,1.3,1.3,0,0,0-.58,1,.55.55,0,0,0,0,.2.27.27,0,0,0,.11.14.36.36,0,0,0,.36,0,1.29,1.29,0,0,0,.58-1A.36.36,0,0,0,58.08,54.07Z"/><path class="cls-6" d="M57.91,54a.55.55,0,0,0-.19.07,1.3,1.3,0,0,0-.58,1,.55.55,0,0,0,0,.2.53.53,0,0,0,.19-.07,1.29,1.29,0,0,0,.58-1A.53.53,0,0,0,57.91,54Z"/><g class="cls-14"><path class="cls-2" d="M57.38,55l0,0a.25.25,0,0,1,0-.14.63.63,0,0,1,.28-.49.25.25,0,0,1,.14,0l.06,0-.22-.13a.2.2,0,0,0-.2,0,.63.63,0,0,0-.28.49.2.2,0,0,0,.08.18Z"/><path class="cls-3" d="M57.58,55a.63.63,0,0,0,.28-.49.2.2,0,0,0-.08-.18l-.06,0a.25.25,0,0,0-.14,0,.63.63,0,0,0-.28.49.25.25,0,0,0,0,.14l0,0A.2.2,0,0,0,57.58,55Z"/><path class="cls-8" d="M57.71,54.47h-.05l-.08,0a.41.41,0,0,0-.18.32.16.16,0,0,0,0,.08h0l0,0a.13.13,0,0,0,.13,0,.41.41,0,0,0,.18-.32A.13.13,0,0,0,57.71,54.47Z"/><path class="cls-9" d="M57.66,54.46l-.08,0a.41.41,0,0,0-.18.32.16.16,0,0,0,0,.08l.08,0a.41.41,0,0,0,.18-.32A.17.17,0,0,0,57.66,54.46Z"/></g><path class="cls-2" d="M11.18,32a.48.48,0,0,1-.16-.15.82.82,0,0,1-.11-.45,2.07,2.07,0,0,1,.93-1.62.82.82,0,0,1,.45-.13.47.47,0,0,1,.21.06l-.72-.41a.66.66,0,0,0-.66.07A2.07,2.07,0,0,0,10.19,31a.66.66,0,0,0,.27.61Z"/><path class="cls-3" d="M11.84,32a2.07,2.07,0,0,0,.93-1.62.66.66,0,0,0-.27-.61.47.47,0,0,0-.21-.06.82.82,0,0,0-.45.13,2.07,2.07,0,0,0-.93,1.62.82.82,0,0,0,.11.45.48.48,0,0,0,.16.15A.66.66,0,0,0,11.84,32Z"/><path class="cls-4" d="M12.5,30.52c0-.42-.29-.59-.65-.38a1.45,1.45,0,0,0-.65,1.13c0,.42.29.59.65.38A1.45,1.45,0,0,0,12.5,30.52Z"/><path class="cls-5" d="M12.24,30.2a.27.27,0,0,0-.18,0,.55.55,0,0,0-.19.07,1.3,1.3,0,0,0-.58,1,.55.55,0,0,0,0,.2.27.27,0,0,0,.11.14.36.36,0,0,0,.36,0,1.29,1.29,0,0,0,.58-1A.36.36,0,0,0,12.24,30.2Z"/><path class="cls-6" d="M12.07,30.17a.55.55,0,0,0-.19.07,1.3,1.3,0,0,0-.58,1,.55.55,0,0,0,0,.2.53.53,0,0,0,.19-.07,1.29,1.29,0,0,0,.58-1A.53.53,0,0,0,12.07,30.17Z"/><g class="cls-15"><path class="cls-2" d="M11.54,31.18l0,0a.25.25,0,0,1,0-.14.63.63,0,0,1,.28-.49.25.25,0,0,1,.14,0l.06,0-.22-.13a.2.2,0,0,0-.2,0,.63.63,0,0,0-.28.49.2.2,0,0,0,.08.18Z"/><path class="cls-3" d="M11.74,31.16a.63.63,0,0,0,.28-.49.2.2,0,0,0-.08-.18l-.06,0a.25.25,0,0,0-.14,0,.63.63,0,0,0-.28.49.25.25,0,0,0,0,.14l0,0A.2.2,0,0,0,11.74,31.16Z"/><path class="cls-8" d="M11.87,30.61h-.05l-.08,0a.41.41,0,0,0-.18.32.16.16,0,0,0,0,.08h0l0,0a.13.13,0,0,0,.13,0,.41.41,0,0,0,.18-.32A.13.13,0,0,0,11.87,30.61Z"/><path class="cls-9" d="M11.82,30.6l-.08,0a.41.41,0,0,0-.18.32.16.16,0,0,0,0,.08l.08,0a.41.41,0,0,0,.18-.32A.17.17,0,0,0,11.82,30.6Z"/></g><polygon class="cls-6" points="11.68 31.71 11.92 31.84 11.92 25.38 11.68 25.24 11.68 31.71"/><polygon class="cls-10" points="11.92 31.84 12.16 31.71 12.16 25.24 11.92 25.38 11.92 31.84"/><polygon class="cls-11" points="11.92 25.38 11.68 25.24 11.92 25.1 12.16 25.24 11.92 25.38"/><path class="cls-2" d="M12.32,32.7a.48.48,0,0,1-.16-.15.82.82,0,0,1-.11-.45A2.07,2.07,0,0,1,13,30.47a.82.82,0,0,1,.45-.13.47.47,0,0,1,.21.06L12.92,30a.66.66,0,0,0-.66.07,2.07,2.07,0,0,0-.93,1.62.66.66,0,0,0,.27.61Z"/><path class="cls-3" d="M13,32.63A2.07,2.07,0,0,0,13.92,31a.66.66,0,0,0-.27-.61.47.47,0,0,0-.21-.06.82.82,0,0,0-.45.13A2.07,2.07,0,0,0,12,32.09a.82.82,0,0,0,.11.45.48.48,0,0,0,.16.15A.66.66,0,0,0,13,32.63Z"/><path class="cls-4" d="M13.64,31.17c0-.42-.29-.59-.65-.38a1.45,1.45,0,0,0-.65,1.13c0,.42.29.59.65.38A1.45,1.45,0,0,0,13.64,31.17Z"/><path class="cls-5" d="M13.38,30.86a.27.27,0,0,0-.18,0,.55.55,0,0,0-.19.07,1.3,1.3,0,0,0-.58,1,.55.55,0,0,0,0,.2.27.27,0,0,0,.11.14.36.36,0,0,0,.36,0,1.29,1.29,0,0,0,.58-1A.36.36,0,0,0,13.38,30.86Z"/><path class="cls-6" d="M13.2,30.83a.55.55,0,0,0-.19.07,1.3,1.3,0,0,0-.58,1,.55.55,0,0,0,0,.2.53.53,0,0,0,.19-.07,1.29,1.29,0,0,0,.58-1A.53.53,0,0,0,13.2,30.83Z"/><g class="cls-16"><path class="cls-2" d="M12.68,31.84l0,0a.25.25,0,0,1,0-.14.63.63,0,0,1,.28-.49.25.25,0,0,1,.14,0l.06,0L12.86,31a.2.2,0,0,0-.2,0,.63.63,0,0,0-.28.49.2.2,0,0,0,.08.18Z"/><path class="cls-3" d="M12.88,31.82a.63.63,0,0,0,.28-.49.2.2,0,0,0-.08-.18l-.06,0a.25.25,0,0,0-.14,0,.63.63,0,0,0-.28.49.25.25,0,0,0,0,.14l0,0A.2.2,0,0,0,12.88,31.82Z"/><path class="cls-8" d="M13,31.27H13l-.08,0a.41.41,0,0,0-.18.32.16.16,0,0,0,0,.08h0l0,0a.13.13,0,0,0,.13,0,.41.41,0,0,0,.18-.32A.13.13,0,0,0,13,31.27Z"/><path class="cls-9" d="M13,31.25l-.08,0a.41.41,0,0,0-.18.32.16.16,0,0,0,0,.08l.08,0a.41.41,0,0,0,.18-.32A.17.17,0,0,0,13,31.25Z"/></g><path class="cls-17" d="M4.07,23.89s2-2.75,7.81-3.13a2.17,2.17,0,0,1,1.45,3.77,13.55,13.55,0,0,1-6.22,3.74Z"/><path class="cls-18" d="M8,27a1.29,1.29,0,0,1-.5,1.12l-.13.07A1.69,1.69,0,0,1,5.89,28a4,4,0,0,1-2.13-3.19,1.24,1.24,0,0,1,.62-1.19l.14-.06a1.8,1.8,0,0,1,1.37.19A4,4,0,0,1,8,27Z"/><path class="cls-8" d="M8,27a1.29,1.29,0,0,1-.5,1.12l-.13.07A1.69,1.69,0,0,1,5.89,28a4,4,0,0,1-2.13-3.19,1.24,1.24,0,0,1,.62-1.19l.14-.06a1.8,1.8,0,0,1,1.37.19A4,4,0,0,1,8,27Z"/><path class="cls-18" d="M7.82,26.69c0,1-.78,1.35-1.74.87a3.27,3.27,0,0,1-1.74-2.6c0-1,.78-1.35,1.74-.87A3.27,3.27,0,0,1,7.82,26.69Z"/><path class="cls-19" d="M6.71,26a.28.28,0,0,1-.12.25l-.14,0h0c-1.5.4-.91-.56-.67-.9l.09-.12h0a.36.36,0,0,1,.36,0A.89.89,0,0,1,6.71,26Z"/><path class="cls-17" d="M15,33.51s2-2.75,7.81-3.13a2.17,2.17,0,0,1,1.45,3.77,13.55,13.55,0,0,1-6.22,3.74Z"/><path class="cls-8" d="M19,36.59a1.29,1.29,0,0,1-.5,1.12l-.13.07a1.69,1.69,0,0,1-1.51-.13,4,4,0,0,1-2.13-3.19,1.24,1.24,0,0,1,.62-1.19l.14-.06a1.8,1.8,0,0,1,1.37.19A4,4,0,0,1,19,36.59Z"/><path class="cls-18" d="M18.79,36.3c0,1-.78,1.35-1.74.87a3.27,3.27,0,0,1-1.74-2.6c0-1,.78-1.35,1.74-.87A3.27,3.27,0,0,1,18.79,36.3Z"/><path class="cls-19" d="M17.68,35.62a.28.28,0,0,1-.12.25l-.14,0h0c-1.5.4-.91-.56-.67-.9l.09-.12h0a.36.36,0,0,1,.36,0A.89.89,0,0,1,17.68,35.62Z"/><polygon class="cls-20" points="39.05 30.86 37.46 31.78 24.24 39.41 0.69 16.44 6.44 13.56 23.03 24.06 27.92 26.14 39.05 30.86"/><polygon class="cls-21" points="24.24 39.41 23.56 40.1 0 17.13 0.69 16.44 24.24 39.41"/><polygon class="cls-22" points="24.11 40.79 0.55 17.81 0 17.13 23.56 40.1 24.11 40.79"/><polygon class="cls-23" points="39.05 30.86 37.05 32.02 26.96 26.7 27.92 26.14 39.05 30.86"/><path class="cls-17" d="M44.06,48.41s2.27-3.05,8.65-3.47a2.12,2.12,0,0,1,.66.08,2.43,2.43,0,0,1,.94,4.1,15,15,0,0,1-6.89,4.14Z"/><path class="cls-18" d="M48.42,51.83a1.43,1.43,0,0,1-.55,1.24l-.14.08A1.88,1.88,0,0,1,46.07,53a4.44,4.44,0,0,1-2.36-3.54,1.38,1.38,0,0,1,.69-1.32l.15-.06a2,2,0,0,1,1.51.21A4.44,4.44,0,0,1,48.42,51.83Z"/><path class="cls-8" d="M48.42,51.83a1.43,1.43,0,0,1-.55,1.24l-.14.08A1.88,1.88,0,0,1,46.07,53a4.44,4.44,0,0,1-2.36-3.54,1.38,1.38,0,0,1,.69-1.32l.15-.06a2,2,0,0,1,1.51.21A4.44,4.44,0,0,1,48.42,51.83Z"/><path class="cls-18" d="M48.21,51.5c0,1.06-.86,1.49-1.92,1a3.62,3.62,0,0,1-1.92-2.88c0-1.06.86-1.49,1.92-1A3.62,3.62,0,0,1,48.21,51.5Z"/><path class="cls-19" d="M47,50.75a.31.31,0,0,1-.13.28l-.16,0h0c-1.66.45-1-.62-.74-1l.1-.13h0a.4.4,0,0,1,.4,0A1,1,0,0,1,47,50.75Z"/><path class="cls-17" d="M62.5,53.7s2.27-3.05,8.65-3.47a2.12,2.12,0,0,1,.66.08,2.43,2.43,0,0,1,.94,4.1,15,15,0,0,1-6.89,4.14Z"/><path class="cls-8" d="M66.86,57.13a1.43,1.43,0,0,1-.55,1.24l-.14.08a1.88,1.88,0,0,1-1.67-.14,4.44,4.44,0,0,1-2.36-3.54,1.38,1.38,0,0,1,.69-1.32l.15-.06a2,2,0,0,1,1.52.21A4.44,4.44,0,0,1,66.86,57.13Z"/><path class="cls-18" d="M66.65,56.8c0,1.06-.86,1.49-1.92,1a3.62,3.62,0,0,1-1.92-2.88c0-1.06.86-1.49,1.92-1A3.62,3.62,0,0,1,66.65,56.8Z"/><path class="cls-19" d="M65.42,56a.31.31,0,0,1-.13.28l-.16,0h0c-1.66.45-1-.62-.74-1l.1-.13h0a.4.4,0,0,1,.4,0A1,1,0,0,1,65.42,56Z"/><path class="cls-9" d="M74.42,17.52a.69.69,0,0,0,.23-.22,1.19,1.19,0,0,0,.16-.65,3,3,0,0,0-1.35-2.34,1.19,1.19,0,0,0-.65-.18.68.68,0,0,0-.31.09l1-.6a1,1,0,0,1,1,.09A3,3,0,0,1,75.85,16a1,1,0,0,1-.4.88Z"/><path class="cls-3" d="M73.46,17.43a3,3,0,0,1-1.35-2.34,1,1,0,0,1,.4-.88.68.68,0,0,1,.31-.09,1.19,1.19,0,0,1,.65.18,3,3,0,0,1,1.35,2.34,1.19,1.19,0,0,1-.16.65.69.69,0,0,1-.23.22A1,1,0,0,1,73.46,17.43Z"/><polygon class="cls-17" points="67.04 16.6 59.76 20.76 51.93 12.42 54.17 11.13 67.04 16.6"/><polygon class="cls-24" points="59.76 20.76 59.78 21.09 51.95 12.75 51.93 12.42 59.76 20.76"/><polygon points="67.04 16.6 67.06 16.93 59.78 21.09 59.76 20.76 67.04 16.6"/><path class="cls-25" d="M64.12,32.05h0c-39.77,22.71-45.91,26.4-48,27.38h0a6.31,6.31,0,0,1-1.44.46C8.52,61.51.65,62.56,2,56.4c0-.24.6-2.9,3.8-7.24a9.56,9.56,0,0,1,3-2.65C8.68,46.57,58.86,17.83,59,17.78,60.46,17,74.78,9.5,75.2,17,75.47,21.81,65.09,31.57,64.12,32.05Z"/><rect class="cls-26" x="20.44" y="48.82" width="1.01" height="1.51" transform="translate(-21.86 16.95) rotate(-29.78)"/><rect class="cls-26" x="25.23" y="46.08" width="1.01" height="1.51" transform="translate(-19.87 18.97) rotate(-29.79)"/><rect class="cls-26" x="30.02" y="43.34" width="1.01" height="1.51" transform="translate(-17.88 20.99) rotate(-29.79)"/><path class="cls-26" d="M4.54,51s-1.09,3.75,8.33,1.8l-.27,1.4S1.73,55.71,4.54,51Z"/><path class="cls-17" d="M64.12,32.05h0l-32,18.29-.57.33C16,59.6,16.9,59.12,16.07,59.45h0a10.16,10.16,0,0,1-1.44.46C8.5,61.51.66,62.55,2,56.4c1.63,3.4,9.18,1.56,12.76.67,1.76-.46-2,1.52,49.19-27.77,0,0,11.07-7.48,11.26-12.3C75.47,21.82,64.77,31.73,64.12,32.05Z"/><polygon class="cls-11" points="74.18 0.21 73.28 14.31 64 19.61 69.92 2.68 74.18 0.21"/><polygon class="cls-27" points="74.18 0.21 72.03 1.46 69.92 2.68 69.6 2.49 71.67 1.25 73.81 0 74.18 0.21"/><polygon class="cls-28" points="69.92 2.68 64 19.61 63.68 19.42 69.6 2.49 69.92 2.68"/><polygon class="cls-17" points="84.28 25.08 83.96 25.26 81.39 26.73 64.28 23.65 71.55 19.48 84.28 25.08"/><polygon class="cls-29" points="84.28 25.08 84.3 25.41 81.41 27.06 81.39 26.73 84.28 25.08"/><polygon class="cls-24" points="81.39 26.73 81.41 27.06 64.3 23.98 64.28 23.65 81.39 26.73"/><polygon class="cls-20" points="90.74 53.7 84.98 56.58 33.37 44.64 48.12 36.13 51.46 37.79 61.83 42.98 67.15 45.64 90.74 53.7"/><polygon class="cls-22" points="84.85 57.95 33.23 46.01 32.69 45.33 84.3 57.27 84.85 57.95"/><polygon class="cls-30" points="90.74 53.7 90.6 55.08 84.85 57.95 84.3 57.27 84.98 56.58 90.74 53.7"/><polygon class="cls-21" points="84.98 56.58 84.3 57.27 32.69 45.33 33.37 44.64 84.98 56.58"/><path class="cls-6" d="M17.54,54.62h0a.06.06,0,0,1,0,0,11.91,11.91,0,0,0-1.33-3.45.06.06,0,0,1,0,0,.06.06,0,0,1,0,0l1.57-.9a.06.06,0,0,1,.08,0,12,12,0,0,1,1.34,3.49.06.06,0,0,1,0,.06l-1.57.9Zm-1.25-3.5a12,12,0,0,1,1.3,3.35L19,53.63a11.78,11.78,0,0,0-1.29-3.35Z"/><polygon class="cls-23" points="61.83 42.98 60.83 43.56 49.44 38.96 51.46 37.79 61.83 42.98"/><polygon class="cls-17" points="72.03 1.46 74.18 0.21 73.28 14.31 71.12 15.55 72.03 1.46"/><polygon class="cls-31" points="74.18 0.21 72.03 1.46 71.67 1.25 73.81 0 74.18 0.21"/></g></g></svg>