<svg xmlns="http://www.w3.org/2000/svg" viewBox="0 0 70.44 93.45"><defs><style>.cls-1{fill:#6b6b6b;}.cls-2{fill:#545454;}.cls-3{fill:#828282;}.cls-4{fill:#afafaf;}.cls-5{fill:#999;}.cls-6{fill:#f0d587;}.cls-7{fill:#feed9d;}.cls-8{fill:#d7b56f;}.cls-9{fill:#e2c07b;}.cls-10{fill:#b79157;}.cls-11{fill:#cead69;}.cls-12{fill:#b08a56;}.cls-13{fill:#e5c67d;}.cls-14{fill:#d8b567;}.cls-15{fill:#957646;}.cls-16{fill:#fff;}.cls-17{fill:#b89b5f;}.cls-18{fill:#f2c799;}.cls-19{fill:#c29a77;}.cls-20{fill:#94765a;}.cls-21{fill:#e6bd91;}.cls-22{fill:#d9b389;}.cls-23{fill:#3e3e3e;}.cls-24{fill:#f4f4f4;}.cls-25{fill:#858585;}.cls-26{fill:#c7c7c7;}</style></defs><title>i6</title><g id="Слой_2" data-name="Слой 2"><g id="Layer_2" data-name="Layer 2"><polygon class="cls-1" points="68.52 63.66 69.48 64.21 69.48 14.46 68.52 13.91 68.52 63.66"/><polygon class="cls-2" points="70.44 63.66 69.48 64.21 69.48 14.46 70.44 13.91 70.44 63.66"/><polygon class="cls-3" points="69.48 14.46 68.52 13.91 69.48 13.36 70.44 13.91 69.48 14.46"/><polygon class="cls-1" points="0 82.57 0.96 83.12 0.96 33.37 0 32.82 0 82.57"/><polygon class="cls-2" points="1.92 82.57 0.96 83.12 0.96 33.37 1.92 32.82 1.92 82.57"/><polygon class="cls-3" points="0.96 33.37 0 32.82 0.96 32.27 1.92 32.82 0.96 33.37"/><polygon class="cls-4" points="19.11 78.78 69.35 49.77 51.36 39.38 1.12 68.39 19.11 78.78"/><polygon class="cls-3" points="69.35 49.77 69.35 50.64 19.11 79.65 19.11 78.78 69.35 49.77"/><polygon class="cls-5" points="1.12 68.39 1.12 69.26 19.11 79.65 19.11 78.78 1.12 68.39"/><polygon class="cls-6" points="53.68 47.26 42.42 40.76 50.26 36.23 61.52 42.73 53.68 47.26"/><path class="cls-7" d="M50.26,36.23l-7.84,4.52,11.26,6.5,7.84-4.52Zm3.42,10.11L44,40.76l6.26-3.61,9.68,5.59-.61.35Z"/><polygon class="cls-8" points="53.68 56.31 42.42 49.8 42.42 40.76 53.68 47.26 53.68 56.31"/><path class="cls-9" d="M43.21,42.13l9.68,5.59v7.22l-9.68-5.59V42.13Zm-.79-1.37v9l11.26,6.5v-9l-11.26-6.5Z"/><polygon class="cls-10" points="61.52 51.78 53.68 56.31 53.68 47.26 61.52 42.73 61.52 51.78"/><path class="cls-11" d="M60.73,44.1v7.22l-6.25,3.61V47.71l6.25-3.61Zm.79-1.37-7.84,4.52v9l7.84-4.52v-9Z"/><polygon class="cls-12" points="59.94 42.73 59.33 43.08 50.26 37.85 50.26 37.14 59.94 42.73"/><polygon class="cls-13" points="44.01 40.76 44.62 41.11 50.26 37.85 50.26 37.14 44.01 40.76"/><polygon class="cls-12" points="43.21 42.13 43.82 42.48 43.82 49 43.21 49.35 43.21 42.13"/><polygon class="cls-13" points="52.89 54.94 52.89 54.23 43.82 49 43.21 49.35 52.89 54.94"/><polygon class="cls-14" points="60.73 44.1 60.12 44.45 60.12 50.97 60.73 51.33 60.73 44.1"/><polygon class="cls-13" points="54.48 54.94 54.47 54.23 60.12 50.97 60.73 51.33 54.48 54.94"/><polygon class="cls-15" points="55.83 52.15 56.21 51.93 56.21 50.25 55.83 50.47 55.83 52.15"/><polygon class="cls-15" points="56.51 50.09 56.02 48.99 55.53 50.65 56.51 50.09"/><polygon class="cls-16" points="50.82 42.2 48.34 40.76 49.63 40.02 52.11 41.45 50.82 42.2"/><polygon class="cls-15" points="57.65 51.52 57.6 51.55 57.6 50.2 57.65 50.17 57.65 51.52"/><polygon class="cls-15" points="57.86 51.4 57.72 51.48 57.72 50.13 57.86 50.05 57.86 51.4"/><polygon class="cls-15" points="58 51.32 57.9 51.37 57.9 50.02 58 49.97 58 51.32"/><polygon class="cls-15" points="58.19 51.21 58.04 51.29 58.04 49.95 58.19 49.86 58.19 51.21"/><polygon class="cls-15" points="58.35 51.12 58.2 51.2 58.2 49.85 58.35 49.77 58.35 51.12"/><polygon class="cls-15" points="58.5 51.03 58.38 51.1 58.38 49.75 58.5 49.68 58.5 51.03"/><polygon class="cls-15" points="58.65 50.94 58.55 51 58.55 49.65 58.65 49.59 58.65 50.94"/><polygon class="cls-15" points="58.79 50.86 58.74 50.89 58.74 49.54 58.79 49.51 58.79 50.86"/><polygon class="cls-15" points="58.98 50.75 58.88 50.81 58.88 49.46 58.98 49.4 58.98 50.75"/><polygon class="cls-15" points="59.11 50.67 59.06 50.7 59.06 49.35 59.11 49.33 59.11 50.67"/><polygon class="cls-15" points="59.31 50.56 59.19 50.63 59.19 49.28 59.31 49.21 59.31 50.56"/><polygon class="cls-15" points="59.44 50.49 59.39 50.52 59.39 49.16 59.44 49.14 59.44 50.49"/><polygon class="cls-17" points="46.62 46.27 44.39 44.98 44.39 44.76 46.62 46.05 46.62 46.27"/><polygon class="cls-17" points="46.62 46.71 44.39 45.43 44.39 45.2 46.62 46.49 46.62 46.71"/><polygon class="cls-17" points="45.82 46.7 44.39 45.87 44.39 45.65 45.82 46.47 45.82 46.7"/><polygon class="cls-6" points="27.77 63.5 16.51 56.99 24.34 52.47 35.6 58.97 27.77 63.5"/><path class="cls-7" d="M24.34,52.47,16.51,57l11.26,6.5L35.6,59Zm3.42,10.11L18.09,57l6.26-3.61L34,59l-.61.35Z"/><polygon class="cls-8" points="27.77 72.55 16.51 66.04 16.51 56.99 27.77 63.5 27.77 72.55"/><path class="cls-9" d="M17.3,58.36,27,64v7.22L17.3,65.59V58.36ZM16.51,57v9l11.26,6.5v-9L16.51,57Z"/><polygon class="cls-10" points="35.6 68.02 27.77 72.55 27.77 63.5 35.6 58.97 35.6 68.02"/><path class="cls-11" d="M34.81,60.34v7.22l-6.25,3.61V64l6.25-3.61ZM35.6,59,27.77,63.5v9L35.6,68V59Z"/><polygon class="cls-12" points="34.02 58.97 33.41 59.32 24.34 54.09 24.34 53.38 34.02 58.97"/><polygon class="cls-13" points="18.09 56.99 18.7 57.35 24.34 54.09 24.34 53.38 18.09 56.99"/><polygon class="cls-12" points="17.3 58.37 17.91 58.72 17.91 65.23 17.3 65.59 17.3 58.37"/><polygon class="cls-13" points="26.98 71.17 26.98 70.47 17.91 65.23 17.3 65.59 26.98 71.17"/><polygon class="cls-14" points="34.81 60.34 34.2 60.69 34.2 67.21 34.81 67.56 34.81 60.34"/><polygon class="cls-13" points="28.56 71.17 28.56 70.47 34.2 67.21 34.81 67.56 28.56 71.17"/><polygon class="cls-15" points="29.91 68.39 30.3 68.17 30.3 66.49 29.91 66.71 29.91 68.39"/><polygon class="cls-15" points="30.59 66.33 30.1 65.23 29.62 66.89 30.59 66.33"/><polygon class="cls-16" points="24.9 58.43 22.43 57 23.71 56.26 26.19 57.69 24.9 58.43"/><polygon class="cls-15" points="31.73 67.76 31.69 67.79 31.69 66.44 31.73 66.41 31.73 67.76"/><polygon class="cls-15" points="31.95 67.64 31.8 67.72 31.8 66.37 31.95 66.29 31.95 67.64"/><polygon class="cls-15" points="32.08 67.56 31.99 67.61 31.99 66.26 32.08 66.21 32.08 67.56"/><polygon class="cls-15" points="32.27 67.45 32.12 67.53 32.12 66.18 32.27 66.1 32.27 67.45"/><polygon class="cls-15" points="32.43 67.36 32.29 67.44 32.29 66.09 32.43 66 32.43 67.36"/><polygon class="cls-15" points="32.58 67.27 32.46 67.34 32.46 65.99 32.58 65.92 32.58 67.27"/><polygon class="cls-15" points="32.73 67.18 32.64 67.24 32.64 65.89 32.73 65.83 32.73 67.18"/><polygon class="cls-15" points="32.87 67.1 32.82 67.13 32.82 65.78 32.87 65.75 32.87 67.1"/><polygon class="cls-15" points="33.06 66.99 32.96 67.05 32.96 65.7 33.06 65.64 33.06 66.99"/><polygon class="cls-15" points="33.2 66.91 33.15 66.94 33.15 65.59 33.2 65.56 33.2 66.91"/><polygon class="cls-15" points="33.4 66.8 33.28 66.87 33.28 65.52 33.4 65.45 33.4 66.8"/><polygon class="cls-15" points="33.52 66.73 33.47 66.75 33.47 65.4 33.52 65.38 33.52 66.73"/><polygon class="cls-17" points="20.7 62.51 18.47 61.22 18.47 61 20.7 62.29 20.7 62.51"/><polygon class="cls-17" points="20.7 62.95 18.47 61.67 18.47 61.45 20.7 62.73 20.7 62.95"/><polygon class="cls-17" points="19.9 62.94 18.47 62.11 18.47 61.89 19.9 62.71 19.9 62.94"/><polygon class="cls-18" points="41.98 53.7 35.32 49.85 41.98 46.01 48.63 49.85 41.98 53.7"/><polygon class="cls-19" points="44.97 51.97 38.31 48.13 38.99 47.74 45.65 51.58 44.97 51.97"/><polygon class="cls-20" points="45.29 51.79 38.63 47.94 38.66 47.92 45.32 51.77 45.29 51.79"/><polygon class="cls-21" points="41.98 61.39 35.32 57.54 35.32 49.85 41.98 53.7 41.98 61.39"/><polygon class="cls-22" points="48.63 57.54 41.98 61.39 41.98 53.7 48.63 49.85 48.63 57.54"/><polygon class="cls-19" points="45.65 51.58 45.65 59.27 44.97 59.66 44.97 51.97 45.65 51.58"/><polygon class="cls-20" points="45.32 51.77 45.32 59.45 45.29 59.48 45.29 51.79 45.32 51.77"/><polygon class="cls-23" points="37.03 57.69 36.18 57.19 36.18 57.06 37.03 57.55 37.03 57.69"/><polygon class="cls-23" points="36.47 57.23 36.4 57.19 36.4 56.52 36.47 56.56 36.47 57.23"/><polygon class="cls-23" points="36.86 57.46 36.8 57.42 36.8 56.75 36.86 56.79 36.86 57.46"/><polygon class="cls-23" points="36.44 56.19 36.52 56.59 36.35 56.5 36.44 56.19 36.44 56.19"/><polygon class="cls-23" points="36.75 56.72 36.83 56.41 36.91 56.82 36.75 56.72"/><polygon class="cls-23" points="40.89 59.81 40.93 59.83 40.93 58.68 40.89 58.66 40.89 59.81"/><polygon class="cls-23" points="40.71 59.7 40.84 59.77 40.84 58.63 40.71 58.55 40.71 59.7"/><polygon class="cls-23" points="40.59 59.63 40.68 59.68 40.68 58.54 40.59 58.49 40.59 59.63"/><polygon class="cls-23" points="40.43 59.54 40.56 59.62 40.56 58.47 40.43 58.4 40.43 59.54"/><polygon class="cls-23" points="40.3 59.46 40.42 59.53 40.42 58.39 40.3 58.32 40.3 59.46"/><polygon class="cls-23" points="40.17 59.39 40.27 59.45 40.27 58.3 40.17 58.24 40.17 59.39"/><polygon class="cls-23" points="40.04 59.31 40.12 59.36 40.12 58.22 40.04 58.17 40.04 59.31"/><polygon class="cls-23" points="39.92 59.25 39.96 59.27 39.96 58.13 39.92 58.1 39.92 59.25"/><polygon class="cls-23" points="39.76 59.16 39.85 59.2 39.85 58.06 39.76 58.01 39.76 59.16"/><polygon class="cls-23" points="39.65 59.09 39.69 59.11 39.69 57.97 39.65 57.94 39.65 59.09"/><polygon class="cls-23" points="39.48 58.99 39.58 59.05 39.58 57.9 39.48 57.84 39.48 58.99"/><polygon class="cls-23" points="39.37 58.93 39.41 58.95 39.41 57.81 39.37 57.78 39.37 58.93"/><path class="cls-23" d="M47,57.09l.19,0,.17-.44a.32.32,0,0,1,.05-.09l-.24.14a.22.22,0,0,0-.06.09Z"/><path class="cls-23" d="M47.38,56.8l.05.08h0l-.05.06.2-.11.1-.25,0,.06h0l0-.06,0,0h0a.11.11,0,0,0-.08.06l0,.06Z"/><path class="cls-23" d="M47.53,57l.11.15.1-.06,0,0a.16.16,0,0,0,0-.11.09.09,0,0,0,0,0l-.1-.13Z"/><path class="cls-23" d="M47.42,57.46l.1.16v-.08h0l.12-.07,0,0,0-.05.11-.28-.06,0-.23.13h0V57.2Z"/><path class="cls-23" d="M47.11,57.52l-.05.13a.19.19,0,0,0,0,.07,0,0,0,0,0,0,0s.06,0,.06,0l.2-.12V57.4Z"/><path class="cls-23" d="M46.89,57.33h.06l-.05.13c0,.08,0,.1,0,.1l.12.17a.2.2,0,0,1,0-.1l.12-.29h.07l-.1-.15Z"/><polygon class="cls-24" points="38.09 54.1 35.98 52.88 35.98 51.62 38.09 52.84 38.09 54.1"/><polygon class="cls-25" points="37.98 53.12 36.09 52.03 36.09 51.84 37.98 52.93 37.98 53.12"/><polygon class="cls-25" points="37.98 53.5 36.09 52.41 36.09 52.22 37.98 53.31 37.98 53.5"/><polygon class="cls-25" points="37.3 53.48 36.09 52.78 36.09 52.6 37.3 53.3 37.3 53.48"/><polygon class="cls-4" points="19.11 61.44 69.35 32.43 51.36 22.04 1.12 51.05 19.11 61.44"/><polygon class="cls-3" points="69.35 32.43 69.35 33.3 19.11 62.31 19.11 61.44 69.35 32.43"/><polygon class="cls-5" points="1.12 51.05 1.12 51.92 19.11 62.31 19.11 61.44 1.12 51.05"/><polygon class="cls-18" points="26.95 42.59 17.53 37.16 26.95 31.72 36.36 37.16 26.95 42.59"/><polygon class="cls-19" points="31.17 40.15 21.75 34.72 22.72 34.16 32.13 39.6 31.17 40.15"/><polygon class="cls-20" points="31.63 39.89 22.21 34.45 22.26 34.42 31.68 39.86 31.63 39.89"/><polygon class="cls-21" points="26.95 53.47 17.53 48.03 17.53 37.16 26.95 42.59 26.95 53.47"/><polygon class="cls-22" points="36.36 48.03 26.95 53.47 26.95 42.59 36.36 37.16 36.36 48.03"/><polygon class="cls-19" points="32.13 39.6 32.13 50.47 31.17 51.03 31.17 40.15 32.13 39.6"/><polygon class="cls-20" points="31.68 39.86 31.68 50.73 31.63 50.76 31.63 39.89 31.68 39.86"/><polygon class="cls-23" points="19.96 48.23 18.74 47.53 18.74 47.35 19.96 48.05 19.96 48.23"/><polygon class="cls-23" points="19.16 47.59 19.07 47.53 19.07 46.59 19.16 46.64 19.16 47.59"/><polygon class="cls-23" points="19.71 47.91 19.62 47.85 19.62 46.91 19.71 46.96 19.71 47.91"/><polygon class="cls-23" points="19.11 46.11 19.23 46.69 18.99 46.55 19.11 46.11 19.11 46.11"/><polygon class="cls-23" points="19.55 46.87 19.67 46.43 19.79 47 19.55 46.87"/><polygon class="cls-23" points="25.41 51.23 25.47 51.26 25.47 49.64 25.41 49.61 25.41 51.23"/><polygon class="cls-23" points="25.16 51.08 25.33 51.19 25.33 49.56 25.16 49.46 25.16 51.08"/><polygon class="cls-23" points="24.99 50.99 25.11 51.05 25.11 49.43 24.99 49.37 24.99 50.99"/><polygon class="cls-23" points="24.76 50.86 24.94 50.96 24.94 49.34 24.76 49.23 24.76 50.86"/><polygon class="cls-23" points="24.57 50.74 24.75 50.85 24.75 49.22 24.57 49.12 24.57 50.74"/><polygon class="cls-23" points="24.39 50.64 24.53 50.72 24.53 49.1 24.39 49.02 24.39 50.64"/><polygon class="cls-23" points="24.21 50.53 24.32 50.6 24.32 48.98 24.21 48.91 24.21 50.53"/><polygon class="cls-23" points="24.04 50.44 24.1 50.47 24.1 48.85 24.04 48.82 24.04 50.44"/><polygon class="cls-23" points="23.82 50.31 23.93 50.38 23.93 48.76 23.82 48.69 23.82 50.31"/><polygon class="cls-23" points="23.65 50.21 23.71 50.25 23.71 48.63 23.65 48.59 23.65 50.21"/><polygon class="cls-23" points="23.41 50.08 23.56 50.16 23.56 48.54 23.41 48.45 23.41 50.08"/><polygon class="cls-23" points="23.26 49.99 23.32 50.02 23.32 48.4 23.26 48.37 23.26 49.99"/><path class="cls-23" d="M34.11,47.39l.26,0,.24-.62a.46.46,0,0,1,.08-.13l-.34.2a.31.31,0,0,0-.08.13Z"/><path class="cls-23" d="M34.59,47l.07.11h0l-.07.09.28-.16.14-.36-.06.08h0l-.07-.08,0,0h0a.16.16,0,0,0-.11.08l0,.08Z"/><path class="cls-23" d="M34.81,47.27l.16.22.14-.08.07-.06a.22.22,0,0,0,.06-.16.13.13,0,0,0,0-.07l-.13-.18Z"/><path class="cls-23" d="M34.64,47.91l.14.23V48h0l.18-.1,0-.05,0-.07.15-.4a.29.29,0,0,1-.08.07l-.32.18h0v-.09Z"/><path class="cls-23" d="M34.2,48l-.07.19a.28.28,0,0,0,0,.1s0,.06,0,.06.09,0,.09,0l.29-.17v-.36Z"/><path class="cls-23" d="M33.89,47.72H34l-.07.18c0,.11,0,.14,0,.14l.17.24a.28.28,0,0,1,0-.15l.16-.41h.09l-.15-.21Z"/><polygon class="cls-24" points="21.45 43.16 18.47 41.44 18.47 39.65 21.45 41.37 21.45 43.16"/><polygon class="cls-25" points="21.3 41.78 18.62 40.23 18.62 39.97 21.3 41.51 21.3 41.78"/><polygon class="cls-25" points="21.3 42.31 18.62 40.77 18.62 40.5 21.3 42.04 21.3 42.31"/><polygon class="cls-25" points="20.33 42.29 18.62 41.3 18.62 41.03 20.33 42.02 20.33 42.29"/><polygon class="cls-18" points="55.53 28.38 48.88 24.54 55.53 20.7 62.19 24.54 55.53 28.38"/><polygon class="cls-19" points="58.52 26.66 51.86 22.81 52.55 22.42 59.2 26.27 58.52 26.66"/><polygon class="cls-20" points="58.84 26.47 52.19 22.63 52.22 22.61 58.88 26.45 58.84 26.47"/><polygon class="cls-21" points="55.53 36.07 48.88 32.23 48.88 24.54 55.53 28.38 55.53 36.07"/><polygon class="cls-22" points="62.19 32.23 55.53 36.07 55.53 28.38 62.19 24.54 62.19 32.23"/><polygon class="cls-19" points="59.2 26.27 59.2 33.95 58.52 34.35 58.52 26.66 59.2 26.27"/><polygon class="cls-20" points="58.88 26.45 58.88 34.14 58.85 34.16 58.85 26.47 58.88 26.45"/><polygon class="cls-23" points="50.59 32.37 49.73 31.87 49.73 31.75 50.59 32.24 50.59 32.37"/><polygon class="cls-23" points="50.03 31.91 49.96 31.88 49.96 31.21 50.03 31.25 50.03 31.91"/><polygon class="cls-23" points="50.42 32.14 50.35 32.1 50.35 31.43 50.42 31.47 50.42 32.14"/><polygon class="cls-23" points="49.99 30.87 50.08 31.28 49.91 31.18 49.99 30.87 49.99 30.87"/><polygon class="cls-23" points="50.3 31.41 50.39 31.1 50.47 31.5 50.3 31.41"/><polygon class="cls-23" points="54.45 34.49 54.49 34.52 54.49 33.37 54.45 33.34 54.45 34.49"/><polygon class="cls-23" points="54.27 34.39 54.39 34.46 54.39 33.31 54.27 33.24 54.27 34.39"/><polygon class="cls-23" points="54.15 34.32 54.23 34.37 54.23 33.22 54.15 33.17 54.15 34.32"/><polygon class="cls-23" points="53.99 34.23 54.12 34.3 54.12 33.15 53.99 33.08 53.99 34.23"/><polygon class="cls-23" points="53.85 34.15 53.98 34.22 53.98 33.07 53.85 33 53.85 34.15"/><polygon class="cls-23" points="53.73 34.07 53.83 34.13 53.83 32.99 53.73 32.93 53.73 34.07"/><polygon class="cls-23" points="53.6 34 53.68 34.05 53.68 32.9 53.6 32.85 53.6 34"/><polygon class="cls-23" points="53.48 33.93 53.52 33.96 53.52 32.81 53.48 32.79 53.48 33.93"/><polygon class="cls-23" points="53.32 33.84 53.41 33.89 53.41 32.74 53.32 32.69 53.32 33.84"/><polygon class="cls-23" points="53.2 33.77 53.25 33.8 53.25 32.65 53.2 32.63 53.2 33.77"/><polygon class="cls-23" points="53.04 33.67 53.14 33.73 53.14 32.59 53.04 32.53 53.04 33.67"/><polygon class="cls-23" points="52.93 33.61 52.97 33.64 52.97 32.49 52.93 32.47 52.93 33.61"/><path class="cls-23" d="M60.6,31.78l.19,0,.17-.44a.33.33,0,0,1,.05-.09l-.24.14a.22.22,0,0,0-.06.09Z"/><path class="cls-23" d="M60.94,31.49l.05.08h0l-.05.06.2-.11.1-.25,0,.06h0l0-.06,0,0h0a.11.11,0,0,0-.08.06l0,.06Z"/><path class="cls-23" d="M61.09,31.69l.11.15.1-.06,0,0a.16.16,0,0,0,0-.11.09.09,0,0,0,0,0l-.1-.13Z"/><path class="cls-23" d="M61,32.15l.1.16v-.08h0l.12-.07,0,0,0-.05.11-.28-.06,0-.23.13h0v-.06Z"/><path class="cls-23" d="M60.66,32.21l-.05.13a.2.2,0,0,0,0,.07s0,0,0,0,.06,0,.06,0l.2-.12v-.25Z"/><path class="cls-23" d="M60.45,32h.06l-.05.13c0,.08,0,.1,0,.1l.12.17a.2.2,0,0,1,0-.1L60.7,32h.07l-.1-.15Z"/><polygon class="cls-24" points="51.65 28.79 49.54 27.57 49.54 26.3 51.65 27.52 51.65 28.79"/><polygon class="cls-25" points="51.54 27.81 49.65 26.71 49.65 26.53 51.54 27.62 51.54 27.81"/><polygon class="cls-25" points="51.54 28.18 49.65 27.09 49.65 26.9 51.54 28 51.54 28.18"/><polygon class="cls-25" points="50.86 28.17 49.65 27.47 49.65 27.28 50.86 27.98 50.86 28.17"/><polygon class="cls-1" points="17.88 92.89 18.84 93.45 18.84 43.7 17.88 43.15 17.88 92.89"/><polygon class="cls-2" points="19.8 92.89 18.84 93.45 18.84 43.7 19.8 43.15 19.8 92.89"/><polygon class="cls-3" points="18.84 43.7 17.88 43.15 18.84 42.59 19.8 43.15 18.84 43.7"/><polygon class="cls-6" points="44.23 35.3 36.91 31.07 44.23 26.84 51.55 31.07 44.23 35.3"/><path class="cls-7" d="M44.23,26.84l-7.32,4.23,7.32,4.23,7.32-4.23Zm0,7.6-5.85-3.37,5.85-3.37,5.84,3.37-.57.33Z"/><polygon class="cls-8" points="44.23 43.75 36.91 39.52 36.91 31.07 44.23 35.3 44.23 43.75"/><path class="cls-9" d="M37.65,32.35l5.84,3.37v6.75L37.65,39.1V32.35Zm-.74-1.28v8.46l7.32,4.23V35.3l-7.32-4.23Z"/><polygon class="cls-10" points="51.55 39.52 44.23 43.75 44.23 35.3 51.55 31.07 51.55 39.52"/><path class="cls-11" d="M50.81,32.35V39.1L45,42.47V35.72l5.84-3.37Zm.74-1.28L44.23,35.3v8.46l7.32-4.23V31.07Z"/><polygon class="cls-12" points="50.08 31.07 49.51 31.4 44.23 28.35 44.23 27.7 50.08 31.07"/><polygon class="cls-13" points="38.39 31.07 38.96 31.4 44.23 28.35 44.23 27.7 38.39 31.07"/><polygon class="cls-12" points="37.65 32.35 38.22 32.68 38.22 38.77 37.65 39.1 37.65 32.35"/><polygon class="cls-13" points="43.49 42.47 43.49 41.81 38.22 38.77 37.65 39.1 43.49 42.47"/><polygon class="cls-14" points="50.81 32.35 50.24 32.68 50.24 38.77 50.81 39.1 50.81 32.35"/><polygon class="cls-13" points="44.97 42.47 44.97 41.81 50.24 38.77 50.81 39.1 44.97 42.47"/><polygon class="cls-15" points="46.23 39.87 46.59 39.67 46.59 38.1 46.23 38.3 46.23 39.87"/><polygon class="cls-15" points="46.87 37.94 46.41 36.92 45.96 38.47 46.87 37.94"/><polygon class="cls-16" points="44.76 32.41 42.44 31.08 43.64 30.38 45.96 31.72 44.76 32.41"/><polygon class="cls-15" points="47.94 39.28 47.89 39.31 47.89 38.05 47.94 38.02 47.94 39.28"/><polygon class="cls-15" points="48.14 39.17 48 39.25 48 37.98 48.14 37.91 48.14 39.17"/><polygon class="cls-15" points="48.27 39.09 48.17 39.15 48.17 37.88 48.27 37.83 48.27 39.09"/><polygon class="cls-15" points="48.44 38.99 48.3 39.07 48.3 37.81 48.44 37.73 48.44 38.99"/><polygon class="cls-15" points="48.59 38.9 48.45 38.98 48.45 37.72 48.59 37.64 48.59 38.9"/><polygon class="cls-15" points="48.73 38.82 48.62 38.89 48.62 37.63 48.73 37.56 48.73 38.82"/><polygon class="cls-15" points="48.87 38.74 48.78 38.79 48.78 37.53 48.87 37.48 48.87 38.74"/><polygon class="cls-15" points="49 38.67 48.96 38.69 48.96 37.43 49 37.41 49 38.67"/><polygon class="cls-15" points="49.18 38.56 49.09 38.62 49.09 37.36 49.18 37.3 49.18 38.56"/><polygon class="cls-15" points="49.3 38.49 49.26 38.52 49.26 37.26 49.3 37.23 49.3 38.49"/><polygon class="cls-15" points="49.49 38.38 49.38 38.45 49.38 37.19 49.49 37.12 49.49 38.38"/><polygon class="cls-15" points="49.61 38.32 49.56 38.34 49.56 37.08 49.61 37.05 49.61 38.32"/><polygon class="cls-17" points="40.83 36.22 38.74 35.02 38.74 34.81 40.83 36.01 40.83 36.22"/><polygon class="cls-17" points="40.83 36.64 38.74 35.44 38.74 35.23 40.83 36.43 40.83 36.64"/><polygon class="cls-17" points="40.08 36.62 38.74 35.85 38.74 35.64 40.08 36.41 40.08 36.62"/><polygon class="cls-5" points="0 31.98 0 32.82 18.84 43.7 18.84 42.86 0 31.98"/><polygon class="cls-3" points="70.44 13.07 70.44 13.91 18.84 43.7 18.84 42.86 70.44 13.07"/><polygon class="cls-26" points="18.84 42.86 70.44 13.07 51.6 2.19 0 31.98 18.84 42.86"/><polygon class="cls-18" points="45.32 7.86 54.39 2.62 49.85 0 40.78 5.24 45.32 7.86"/><polygon class="cls-19" points="43.36 6.72 52.43 1.49 51.82 1.13 42.75 6.37 43.36 6.72"/><polygon class="cls-20" points="43.07 6.56 52.14 1.32 52.1 1.3 43.03 6.54 43.07 6.56"/><polygon class="cls-22" points="45.32 14.78 45.32 7.86 40.78 5.24 40.78 12.16 45.32 14.78"/><polygon class="cls-19" points="43.35 13.63 43.35 6.72 42.73 6.36 42.73 13.28 43.35 13.63"/><polygon class="cls-20" points="43.06 13.47 43.06 6.55 43.02 6.53 43.02 13.45 43.06 13.47"/><polygon class="cls-21" points="45.32 14.78 54.39 9.54 54.39 2.62 45.32 7.86 45.32 14.78"/><polygon class="cls-23" points="52.38 9.97 53.16 9.53 53.16 9.41 52.38 9.85 52.38 9.97"/><polygon class="cls-23" points="52.89 9.56 52.95 9.53 52.95 8.93 52.89 8.96 52.89 9.56"/><polygon class="cls-23" points="52.54 9.77 52.6 9.73 52.6 9.13 52.54 9.16 52.54 9.77"/><polygon class="cls-23" points="52.92 8.62 52.85 8.99 53 8.9 52.92 8.62 52.92 8.62"/><polygon class="cls-23" points="52.64 9.1 52.57 8.82 52.49 9.19 52.64 9.1"/><polygon class="cls-23" points="46.75 13.13 46.71 13.16 46.71 12.12 46.75 12.1 46.75 13.13"/><polygon class="cls-23" points="46.91 13.04 46.8 13.11 46.8 12.07 46.91 12.01 46.91 13.04"/><polygon class="cls-23" points="47.02 12.98 46.94 13.02 46.94 11.99 47.02 11.95 47.02 12.98"/><polygon class="cls-23" points="47.16 12.9 47.05 12.96 47.05 11.93 47.16 11.87 47.16 12.9"/><polygon class="cls-23" points="47.28 12.83 47.17 12.89 47.17 11.86 47.28 11.79 47.28 12.83"/><polygon class="cls-23" points="47.4 12.76 47.31 12.81 47.31 11.78 47.4 11.73 47.4 12.76"/><polygon class="cls-23" points="47.51 12.69 47.44 12.74 47.44 11.7 47.51 11.66 47.51 12.69"/><polygon class="cls-23" points="47.62 12.63 47.58 12.65 47.58 11.62 47.62 11.6 47.62 12.63"/><polygon class="cls-23" points="47.76 12.55 47.69 12.59 47.69 11.56 47.76 11.52 47.76 12.55"/><polygon class="cls-23" points="47.87 12.49 47.83 12.51 47.83 11.48 47.87 11.46 47.87 12.49"/><polygon class="cls-23" points="48.02 12.4 47.93 12.45 47.93 11.42 48.02 11.37 48.02 12.4"/><polygon class="cls-23" points="48.12 12.35 48.08 12.37 48.08 11.33 48.12 11.31 48.12 12.35"/><path class="cls-23" d="M41.88,11.34a.2.2,0,0,0-.05-.08l-.22-.13a.29.29,0,0,1,0,.08l.15.4.17,0Z"/><path class="cls-23" d="M41.63,11.22l0-.05a.1.1,0,0,0-.07-.05h0l0,.05h0l0-.05.09.23.18.1,0-.06h0l0-.07Z"/><path class="cls-23" d="M41.36,11.3l-.09.12a.08.08,0,0,0,0,0,.14.14,0,0,0,0,.1l0,0,.09.05.1-.14Z"/><path class="cls-23" d="M41.55,11.69v.06h0l-.21-.12-.05,0,.09.25,0,0,0,0,.11.06h0v.08l.09-.15Z"/><path class="cls-23" d="M41.73,11.86v.23l.18.11s0,0,.06,0a0,0,0,0,0,0,0,.17.17,0,0,0,0-.07l0-.12Z"/><path class="cls-23" d="M41.93,11.69l-.09.13h.06l.1.26a.18.18,0,0,1,0,.09l.11-.16s0,0,0-.09l0-.12h.05Z"/><polygon class="cls-24" points="51.2 6.86 53.09 5.76 53.09 4.63 51.2 5.72 51.2 6.86"/><polygon class="cls-25" points="51.29 5.98 52.99 4.99 52.99 4.83 51.29 5.81 51.29 5.98"/><polygon class="cls-25" points="51.29 6.32 52.99 5.33 52.99 5.17 51.29 6.15 51.29 6.32"/><polygon class="cls-25" points="51.9 6.3 52.99 5.67 52.99 5.5 51.9 6.13 51.9 6.3"/><polygon class="cls-18" points="52.13 12.88 61.2 7.65 56.66 5.03 47.59 10.26 52.13 12.88"/><polygon class="cls-19" points="50.16 11.75 59.23 6.51 58.62 6.16 49.55 11.39 50.16 11.75"/><polygon class="cls-20" points="49.88 11.58 58.95 6.35 58.91 6.33 49.84 11.56 49.88 11.58"/><polygon class="cls-22" points="52.13 19.8 52.13 12.88 47.59 10.26 47.59 17.18 52.13 19.8"/><polygon class="cls-19" points="50.15 18.66 50.15 11.74 49.54 11.39 49.54 18.31 50.15 18.66"/><polygon class="cls-20" points="49.87 18.5 49.87 11.58 49.83 11.55 49.83 18.47 49.87 18.5"/><polygon class="cls-21" points="52.13 19.8 61.2 14.57 61.2 7.65 52.13 12.88 52.13 19.8"/><polygon class="cls-23" points="59.19 15 59.96 14.55 59.96 14.43 59.19 14.88 59.19 15"/><polygon class="cls-23" points="59.7 14.59 59.76 14.55 59.76 13.95 59.7 13.98 59.7 14.59"/><polygon class="cls-23" points="59.34 14.79 59.41 14.76 59.41 14.16 59.34 14.19 59.34 14.79"/><polygon class="cls-23" points="59.73 13.65 59.65 14.01 59.8 13.93 59.73 13.65 59.73 13.65"/><polygon class="cls-23" points="59.45 14.13 59.38 13.85 59.3 14.22 59.45 14.13"/><polygon class="cls-23" points="53.55 18.16 53.52 18.18 53.52 17.15 53.55 17.13 53.55 18.16"/><polygon class="cls-23" points="53.72 18.07 53.6 18.13 53.6 17.1 53.72 17.04 53.72 18.07"/><polygon class="cls-23" points="53.82 18.01 53.75 18.05 53.75 17.02 53.82 16.97 53.82 18.01"/><polygon class="cls-23" points="53.97 17.92 53.85 17.99 53.85 16.96 53.97 16.89 53.97 17.92"/><polygon class="cls-23" points="54.09 17.85 53.98 17.92 53.98 16.89 54.09 16.82 54.09 17.85"/><polygon class="cls-23" points="54.2 17.79 54.11 17.84 54.11 16.81 54.2 16.75 54.2 17.79"/><polygon class="cls-23" points="54.32 17.72 54.24 17.76 54.24 16.73 54.32 16.69 54.32 17.72"/><polygon class="cls-23" points="54.42 17.66 54.39 17.68 54.39 16.65 54.42 16.63 54.42 17.66"/><polygon class="cls-23" points="54.57 17.57 54.49 17.62 54.49 16.59 54.57 16.54 54.57 17.57"/><polygon class="cls-23" points="54.67 17.52 54.64 17.54 54.64 16.5 54.67 16.48 54.67 17.52"/><polygon class="cls-23" points="54.83 17.43 54.73 17.48 54.73 16.45 54.83 16.39 54.83 17.43"/><polygon class="cls-23" points="54.92 17.37 54.88 17.39 54.88 16.36 54.92 16.34 54.92 17.37"/><path class="cls-23" d="M48.68,16.37a.2.2,0,0,0-.05-.08l-.22-.13a.29.29,0,0,1,0,.08l.15.4.17,0Z"/><path class="cls-23" d="M48.43,16.24l0-.05a.1.1,0,0,0-.07-.05h0l0,.05h0l0-.05.09.23.18.1,0-.06h0l0-.07Z"/><path class="cls-23" d="M48.17,16.33l-.09.12a.08.08,0,0,0,0,0,.14.14,0,0,0,0,.1l0,0,.09.05.1-.14Z"/><path class="cls-23" d="M48.36,16.72v.06h0l-.21-.12-.05,0,.09.25,0,0,0,0,.11.06h0v.08l.09-.15Z"/><path class="cls-23" d="M48.53,16.89v.23l.18.11s0,0,.06,0a0,0,0,0,0,0,0,.18.18,0,0,0,0-.07l0-.12Z"/><path class="cls-23" d="M48.73,16.72l-.09.13h.06l.1.26a.18.18,0,0,1,0,.09l.11-.16s0,0,0-.09l0-.12h.05Z"/><polygon class="cls-24" points="58 11.88 59.9 10.79 59.9 9.65 58 10.74 58 11.88"/><polygon class="cls-25" points="58.1 11 59.8 10.02 59.8 9.85 58.1 10.83 58.1 11"/><polygon class="cls-25" points="58.1 11.34 59.8 10.36 59.8 10.19 58.1 11.17 58.1 11.34"/><polygon class="cls-25" points="58.71 11.33 59.8 10.7 59.8 10.53 58.71 11.16 58.71 11.33"/><polygon class="cls-18" points="37.76 17.72 25.25 10.5 31.51 6.89 44.01 14.1 37.76 17.72"/><polygon class="cls-19" points="40.46 16.15 27.96 8.94 28.8 8.45 41.31 15.67 40.46 16.15"/><polygon class="cls-20" points="40.86 15.93 28.36 8.71 28.41 8.68 40.91 15.89 40.86 15.93"/><polygon class="cls-22" points="37.76 27.25 37.76 17.72 44.01 14.1 44.01 23.64 37.76 27.25"/><polygon class="cls-19" points="40.48 25.68 40.48 16.14 41.32 15.66 41.32 25.19 40.48 25.68"/><polygon class="cls-20" points="40.87 25.45 40.87 15.92 40.93 15.88 40.93 25.42 40.87 25.45"/><polygon class="cls-21" points="37.76 27.25 25.25 20.04 25.25 10.5 37.76 17.72 37.76 27.25"/><polygon class="cls-23" points="28.02 20.63 26.96 20.02 26.96 19.86 28.02 20.47 28.02 20.63"/><polygon class="cls-23" points="27.32 20.07 27.24 20.02 27.24 19.19 27.32 19.24 27.32 20.07"/><polygon class="cls-23" points="27.81 20.35 27.73 20.3 27.73 19.47 27.81 19.52 27.81 20.35"/><polygon class="cls-23" points="27.28 18.77 27.38 19.27 27.18 19.16 27.28 18.77 27.28 18.77"/><polygon class="cls-23" points="27.66 19.44 27.77 19.05 27.87 19.55 27.66 19.44"/><polygon class="cls-23" points="35.79 24.99 35.84 25.02 35.84 23.6 35.79 23.57 35.79 24.99"/><polygon class="cls-23" points="35.57 24.86 35.72 24.95 35.72 23.53 35.57 23.44 35.57 24.86"/><polygon class="cls-23" points="35.42 24.78 35.52 24.84 35.52 23.42 35.42 23.36 35.42 24.78"/><polygon class="cls-23" points="35.22 24.66 35.38 24.75 35.38 23.33 35.22 23.24 35.22 24.66"/><polygon class="cls-23" points="35.05 24.57 35.21 24.66 35.21 23.23 35.05 23.14 35.05 24.57"/><polygon class="cls-23" points="34.89 24.48 35.02 24.55 35.02 23.13 34.89 23.05 34.89 24.48"/><polygon class="cls-23" points="34.73 24.38 34.84 24.44 34.84 23.02 34.73 22.96 34.73 24.38"/><polygon class="cls-23" points="34.59 24.3 34.64 24.33 34.64 22.91 34.59 22.88 34.59 24.3"/><polygon class="cls-23" points="34.39 24.18 34.49 24.24 34.49 22.82 34.39 22.76 34.39 24.18"/><polygon class="cls-23" points="34.25 24.1 34.3 24.13 34.3 22.71 34.25 22.68 34.25 24.1"/><polygon class="cls-23" points="34.04 23.98 34.16 24.05 34.16 22.63 34.04 22.56 34.04 23.98"/><polygon class="cls-23" points="33.9 23.9 33.95 23.93 33.95 22.51 33.9 22.48 33.9 23.9"/><path class="cls-23" d="M42.37,22.87l.23,0,.21-.55a.4.4,0,0,1,.07-.11l-.3.18a.27.27,0,0,0-.07.11Z"/><path class="cls-23" d="M42.78,22.5l.07.1h0l-.06.08.24-.14.12-.31-.06.07h0L43,22.23l0,0h0a.14.14,0,0,0-.1.07l0,.07Z"/><path class="cls-23" d="M43,22.76l.14.19.13-.07.06-.05a.2.2,0,0,0,.05-.14.11.11,0,0,0,0-.06l-.12-.16Z"/><path class="cls-23" d="M42.83,23.32l.13.2v-.1h0l.15-.09,0,0,0-.06.13-.35a.25.25,0,0,1-.07.06l-.28.16h0V23Z"/><path class="cls-23" d="M42.44,23.4l-.07.16a.24.24,0,0,0,0,.09s0,0,0,.06.08,0,.08,0l.25-.15v-.31Z"/><path class="cls-23" d="M42.17,23.15h.08l-.06.16c0,.1,0,.12,0,.13l.15.21a.25.25,0,0,1,0-.13l.14-.36h.08L42.44,23Z"/><polygon class="cls-24" points="29.66 16.34 27.05 14.83 27.05 13.26 29.66 14.77 29.66 16.34"/><polygon class="cls-25" points="29.53 15.13 27.18 13.77 27.18 13.54 29.53 14.89 29.53 15.13"/><polygon class="cls-25" points="29.53 15.59 27.18 14.24 27.18 14.01 29.53 15.36 29.53 15.59"/><polygon class="cls-25" points="28.69 15.58 27.18 14.71 27.18 14.47 28.69 15.34 28.69 15.58"/><polygon class="cls-6" points="18.1 26.8 9.26 21.69 18.1 16.58 26.95 21.69 18.1 26.8"/><path class="cls-7" d="M18.1,16.58l-8.84,5.1L18.1,26.8l8.84-5.11Zm0,9.18L11,21.69l7.06-4.08,7.06,4.08-.69.4Z"/><polygon class="cls-8" points="18.1 37.01 9.26 31.9 9.26 21.69 18.1 26.8 18.1 37.01"/><path class="cls-9" d="M10.15,23.24l7.06,4.08v8.15l-7.06-4.08V23.24Zm-.89-1.55V31.9L18.1,37V26.8L9.26,21.69Z"/><polygon class="cls-10" points="26.95 31.9 18.1 37.01 18.1 26.8 26.95 21.69 26.95 31.9"/><path class="cls-11" d="M26.06,23.24v8.15L19,35.46V27.31l7.06-4.08Zm.89-1.55L18.1,26.8V37l8.84-5.11V21.69Z"/><polygon class="cls-12" points="25.16 21.69 24.48 22.09 18.1 18.41 18.1 17.61 25.16 21.69"/><polygon class="cls-13" points="11.05 21.69 11.73 22.09 18.1 18.41 18.1 17.61 11.05 21.69"/><polygon class="cls-12" points="10.15 23.24 10.84 23.63 10.84 30.99 10.15 31.39 10.15 23.24"/><polygon class="cls-13" points="17.21 35.46 17.21 34.67 10.84 30.99 10.15 31.39 17.21 35.46"/><polygon class="cls-14" points="26.05 23.24 25.37 23.63 25.37 30.99 26.05 31.39 26.05 23.24"/><polygon class="cls-13" points="19 35.46 19 34.67 25.37 30.99 26.05 31.39 19 35.46"/><polygon class="cls-15" points="20.52 32.32 20.96 32.07 20.96 30.17 20.52 30.43 20.52 32.32"/><polygon class="cls-15" points="21.29 29.99 20.74 28.75 20.19 30.62 21.29 29.99"/><polygon class="cls-16" points="18.74 23.31 15.94 21.7 17.39 20.86 20.19 22.47 18.74 23.31"/><polygon class="cls-15" points="22.58 31.61 22.53 31.64 22.53 30.11 22.58 30.08 22.58 31.61"/><polygon class="cls-15" points="22.82 31.47 22.65 31.56 22.65 30.04 22.82 29.95 22.82 31.47"/><polygon class="cls-15" points="22.98 31.38 22.86 31.44 22.86 29.92 22.98 29.86 22.98 31.38"/><polygon class="cls-15" points="23.19 31.26 23.02 31.35 23.02 29.83 23.19 29.73 23.19 31.26"/><polygon class="cls-15" points="23.37 31.15 23.2 31.25 23.2 29.72 23.37 29.63 23.37 31.15"/><polygon class="cls-15" points="23.54 31.05 23.4 31.13 23.4 29.61 23.54 29.53 23.54 31.05"/><polygon class="cls-15" points="23.71 30.95 23.6 31.02 23.6 29.5 23.71 29.43 23.71 30.95"/><polygon class="cls-15" points="23.86 30.86 23.81 30.9 23.81 29.37 23.86 29.34 23.86 30.86"/><polygon class="cls-15" points="24.08 30.74 23.97 30.81 23.97 29.28 24.08 29.22 24.08 30.74"/><polygon class="cls-15" points="24.23 30.65 24.18 30.68 24.18 29.16 24.23 29.13 24.23 30.65"/><polygon class="cls-15" points="24.46 30.52 24.32 30.6 24.32 29.08 24.46 29 24.46 30.52"/><polygon class="cls-15" points="24.6 30.44 24.54 30.47 24.54 28.95 24.6 28.92 24.6 30.44"/><polygon class="cls-17" points="13.99 27.91 11.48 26.46 11.48 26.21 13.99 27.66 13.99 27.91"/><polygon class="cls-17" points="13.99 28.41 11.48 26.96 11.48 26.71 13.99 28.16 13.99 28.41"/><polygon class="cls-17" points="13.09 28.39 11.48 27.46 11.48 27.21 13.09 28.14 13.09 28.39"/></g></g></svg>