<svg xmlns="http://www.w3.org/2000/svg" xmlns:xlink="http://www.w3.org/1999/xlink" viewBox="0 0 59.99 89.54"><defs><style>.cls-1{fill:none;}.cls-2{fill:#3e3e3e;}.cls-3{fill:#3b66c2;}.cls-4{fill:#477beb;}.cls-5{fill:#cfcfcf;}.cls-6{fill:#9d9d9d;}.cls-7{fill:#5f5f5f;}.cls-8{fill:#2a2a2a;}.cls-9{fill:#3a3a3a;}.cls-10{fill:#b3b3b3;}.cls-11{fill:#828282;}.cls-12{fill:#999;}.cls-13{clip-path:url(#clip-path);}.cls-14{fill:#545454;}.cls-15{fill:#6b6b6b;}.cls-16{fill:#b5b5b5;}.cls-17{fill:#717171;}.cls-18{fill:#4e4e4e;}.cls-19{fill:#e8e8e8;}.cls-20{clip-path:url(#clip-path-2);}.cls-21{clip-path:url(#clip-path-3);}.cls-22{fill:#4e8bff;}.cls-23{fill:#457ce3;}.cls-24{fill:#5e96ff;}.cls-25{fill:#ecb68f;}.cls-26{fill:#d23530;}.cls-27{fill:#e3af8a;}.cls-28{fill:#484848;}</style><clipPath id="clip-path"><path class="cls-1" d="M21.79,86.42a2.6,2.6,0,0,0-.38,1.26.67.67,0,0,0,1.11.64A2.85,2.85,0,0,0,23.8,86.1a.67.67,0,0,0-1.11-.64A2.6,2.6,0,0,0,21.79,86.42Z"/></clipPath><clipPath id="clip-path-2"><path class="cls-1" d="M3.66,75.95a2.6,2.6,0,0,0-.38,1.26.8.8,0,0,0,.32.74.8.8,0,0,0,.8-.09,2.6,2.6,0,0,0,.9-1,2.6,2.6,0,0,0,.38-1.26.8.8,0,0,0-.32-.74.8.8,0,0,0-.8.09A2.6,2.6,0,0,0,3.66,75.95Z"/></clipPath><clipPath id="clip-path-3"><path class="cls-1" d="M46.91,71.92a2.6,2.6,0,0,0-.38,1.26.67.67,0,0,0,1.11.64,2.84,2.84,0,0,0,1.28-2.21A.67.67,0,0,0,47.81,71,2.6,2.6,0,0,0,46.91,71.92Z"/></clipPath></defs><title>i7</title><g id="Слой_2" data-name="Слой 2"><g id="Layer_2" data-name="Layer 2"><path class="cls-2" d="M53.72,58.26a9.08,9.08,0,0,1,2.51,2.84c.23.55-1.27,1.2-2.3,2.3-1.78,1.9-5.1,3-6.47,1.88a3.29,3.29,0,0,1,1.64-2.09c2.16-1.27,1.47-2,1.47-2Z"/><path class="cls-2" d="M49.06,65.8s1.08,4.72-.15,5.36-6.84-1.64-8.27-3.47,5.06.07,6.28-2.84Z"/><path class="cls-3" d="M44.29,32.27s-5.23,16.28-.94,20.13a29.57,29.57,0,0,1,6.57,9.31,6.35,6.35,0,0,0,4.57-3.32s-4-8.62-6.14-10.18c0,0,6.08-10.86,3.26-15.5Z"/><path class="cls-4" d="M49.23,31.08S46.47,47.73,47.29,50.5s.63,11.19-2,14.56c0,0,2.7,3.72,5.56,2.71,0,0,4.82-11.62,3.31-16.84,0,0,6-13.55,2.84-19.41Z"/><path class="cls-5" d="M19.74,83v3.27c0,.77.54,1.08,1.21.7a2.67,2.67,0,0,0,1.21-2.09l.11-3.21-.11-.06Z"/><path class="cls-6" d="M19.85,83.09v3.27c0,.77.54,1.08,1.21.7A2.67,2.67,0,0,0,22.26,85V81.69Z"/><path class="cls-7" d="M20.54,86a1.14,1.14,0,0,1,.52-.9c.29-.16.52,0,.52.3a1.14,1.14,0,0,1-.52.9C20.77,86.42,20.54,86.28,20.54,86Z"/><path class="cls-8" d="M21.16,89.41a1,1,0,0,1-.35-.34,1.81,1.81,0,0,1-.25-1,4.54,4.54,0,0,1,2.05-3.56,1.8,1.8,0,0,1,1-.28,1,1,0,0,1,.47.14l-1.58-.91a1.44,1.44,0,0,0-1.45.14A4.54,4.54,0,0,0,19,87.16a1.44,1.44,0,0,0,.6,1.33Z"/><path class="cls-9" d="M22.61,89.26a4.54,4.54,0,0,0,2.05-3.56,1.45,1.45,0,0,0-.6-1.33,1,1,0,0,0-.47-.14,1.8,1.8,0,0,0-1,.28,4.54,4.54,0,0,0-2.05,3.56,1.81,1.81,0,0,0,.25,1,1,1,0,0,0,.35.34A1.44,1.44,0,0,0,22.61,89.26Z"/><path class="cls-10" d="M24,86.06c0-.92-.65-1.29-1.44-.83a3.19,3.19,0,0,0-1.44,2.49c0,.92.65,1.29,1.44.83A3.19,3.19,0,0,0,24,86.06Z"/><path class="cls-11" d="M23.49,85.37a.59.59,0,0,0-.39-.06,1.21,1.21,0,0,0-.41.16,2.85,2.85,0,0,0-1.28,2.21,1.22,1.22,0,0,0,.07.43.59.59,0,0,0,.25.31.8.8,0,0,0,.8-.09,2.84,2.84,0,0,0,1.28-2.21A.8.8,0,0,0,23.49,85.37Z"/><path class="cls-12" d="M23.1,85.31a1.21,1.21,0,0,0-.41.16,2.85,2.85,0,0,0-1.28,2.21,1.22,1.22,0,0,0,.07.43,1.16,1.16,0,0,0,.41-.16,2.84,2.84,0,0,0,1.28-2.21A1.16,1.16,0,0,0,23.1,85.31Z"/><g class="cls-13"><path class="cls-8" d="M21.94,87.52a.32.32,0,0,1-.11-.1.55.55,0,0,1-.08-.3A1.38,1.38,0,0,1,22.38,86a.55.55,0,0,1,.3-.08.31.31,0,0,1,.14,0l-.48-.28a.44.44,0,0,0-.44,0,1.38,1.38,0,0,0-.62,1.08.44.44,0,0,0,.18.4Z"/><path class="cls-9" d="M22.38,87.48A1.38,1.38,0,0,0,23,86.4a.44.44,0,0,0-.18-.4.31.31,0,0,0-.14,0,.55.55,0,0,0-.3.08,1.38,1.38,0,0,0-.62,1.08.55.55,0,0,0,.08.3.32.32,0,0,0,.11.1A.44.44,0,0,0,22.38,87.48Z"/><path class="cls-14" d="M22.67,86.26l-.09,0h0a.37.37,0,0,0-.17.05A.9.9,0,0,0,22,87a.36.36,0,0,0,0,.18v0a.22.22,0,0,0,.07.07.29.29,0,0,0,.29,0,.9.9,0,0,0,.41-.7A.28.28,0,0,0,22.67,86.26Z"/><path class="cls-15" d="M22.55,86.24a.37.37,0,0,0-.17.05A.9.9,0,0,0,22,87a.36.36,0,0,0,0,.18.37.37,0,0,0,.17-.05.89.89,0,0,0,.41-.7A.37.37,0,0,0,22.55,86.24Z"/></g><path class="cls-5" d="M21.72,84.16v3.27c0,.77.54,1.08,1.21.7A2.67,2.67,0,0,0,24.13,86l.11-3.21-.11-.06Z"/><path class="cls-16" d="M21.82,84.22v3.27c0,.77.54,1.08,1.21.7a2.67,2.67,0,0,0,1.21-2.09V82.83Z"/><polygon class="cls-17" points="23.12 87.55 23.64 86.89 23.64 86.19 23.46 86.18 23.12 86.15 22.59 86.8 22.59 87.41 22.59 87.5 23.12 87.55"/><path class="cls-18" d="M23.12,87.22a.71.71,0,0,0,.32-.55c0-.2-.14-.29-.32-.18a.71.71,0,0,0-.32.55C22.8,87.23,22.94,87.32,23.12,87.22Z"/><path class="cls-7" d="M23.21,87.27a.71.71,0,0,0,.32-.55c0-.2-.14-.29-.32-.18a.71.71,0,0,0-.32.55C22.89,87.29,23,87.37,23.21,87.27Z"/><polygon class="cls-7" points="22.59 87.5 22.59 87.41 22.59 86.8 23.12 86.15 23.46 86.18 23.64 86.19 23.46 86.09 22.94 86.05 22.42 86.7 22.42 87.39 22.59 87.5"/><polygon class="cls-5" points="19.74 83.03 19.74 83.16 21.82 84.36 21.82 84.22 19.74 83.03"/><polygon class="cls-19" points="24.24 82.83 21.82 84.22 19.75 83.03 22.16 81.63 24.24 82.83"/><path class="cls-5" d="M1.61,72.55v3.27c0,.77.54,1.08,1.21.7A2.67,2.67,0,0,0,4,74.43l.11-3.21L4,71.16Z"/><path class="cls-6" d="M1.71,72.61v3.27c0,.77.54,1.08,1.21.7a2.67,2.67,0,0,0,1.21-2.09V71.22Z"/><path class="cls-7" d="M2.4,75.48a1.14,1.14,0,0,1,.52-.9c.29-.17.52,0,.52.3a1.14,1.14,0,0,1-.52.9C2.63,75.95,2.4,75.81,2.4,75.48Z"/><path class="cls-8" d="M3,78.93a1.05,1.05,0,0,1-.35-.34,1.81,1.81,0,0,1-.25-1A4.54,4.54,0,0,1,4.47,74a1.8,1.8,0,0,1,1-.28,1,1,0,0,1,.47.14L4.35,73a1.44,1.44,0,0,0-1.45.14A4.54,4.54,0,0,0,.84,76.69,1.44,1.44,0,0,0,1.44,78Z"/><path class="cls-9" d="M4.47,78.79a4.54,4.54,0,0,0,2.05-3.56,1.45,1.45,0,0,0-.6-1.33,1,1,0,0,0-.47-.14,1.8,1.8,0,0,0-1,.28A4.54,4.54,0,0,0,2.42,77.6a1.81,1.81,0,0,0,.25,1,1.05,1.05,0,0,0,.35.34A1.44,1.44,0,0,0,4.47,78.79Z"/><path class="cls-10" d="M5.91,75.59c0-.92-.65-1.29-1.44-.83A3.19,3.19,0,0,0,3,77.25c0,.92.65,1.29,1.44.83A3.19,3.19,0,0,0,5.91,75.59Z"/><path class="cls-11" d="M5.35,74.9A.59.59,0,0,0,5,74.84a1.21,1.21,0,0,0-.41.16,2.61,2.61,0,0,0-.9,1,2.6,2.6,0,0,0-.38,1.26,1.21,1.21,0,0,0,.07.43.59.59,0,0,0,.25.31.8.8,0,0,0,.8-.09,2.6,2.6,0,0,0,.9-1,2.6,2.6,0,0,0,.38-1.26A.8.8,0,0,0,5.35,74.9Z"/><path class="cls-12" d="M5,74.84a1.21,1.21,0,0,0-.41.16,2.61,2.61,0,0,0-.9,1,2.6,2.6,0,0,0-.38,1.26,1.21,1.21,0,0,0,.07.43,1.16,1.16,0,0,0,.41-.16,2.58,2.58,0,0,0,.9-1A2.59,2.59,0,0,0,5,75.27,1.16,1.16,0,0,0,5,74.84Z"/><g class="cls-20"><path class="cls-8" d="M3.81,77a.32.32,0,0,1-.11-.1.55.55,0,0,1-.08-.3,1.38,1.38,0,0,1,.62-1.08.55.55,0,0,1,.3-.08.31.31,0,0,1,.14,0l-.48-.28a.44.44,0,0,0-.44,0,1.38,1.38,0,0,0-.62,1.08.44.44,0,0,0,.18.4Z"/><path class="cls-9" d="M4.24,77a1.38,1.38,0,0,0,.62-1.08.44.44,0,0,0-.18-.4.31.31,0,0,0-.14,0,.55.55,0,0,0-.3.08,1.38,1.38,0,0,0-.62,1.08.55.55,0,0,0,.08.3.32.32,0,0,0,.11.1A.44.44,0,0,0,4.24,77Z"/><path class="cls-14" d="M4.53,75.79l-.09,0h0a.37.37,0,0,0-.17.05.9.9,0,0,0-.41.7.36.36,0,0,0,0,.18v0a.22.22,0,0,0,.07.07.29.29,0,0,0,.29,0,.9.9,0,0,0,.4-.7A.28.28,0,0,0,4.53,75.79Z"/><path class="cls-15" d="M4.42,75.76a.37.37,0,0,0-.17.05.9.9,0,0,0-.41.7.36.36,0,0,0,0,.18.37.37,0,0,0,.17-.05.89.89,0,0,0,.41-.7A.37.37,0,0,0,4.42,75.76Z"/></g><path class="cls-5" d="M3.58,73.69V77c0,.77.54,1.08,1.21.7A2.67,2.67,0,0,0,6,75.57l.11-3.21L6,72.3Z"/><path class="cls-16" d="M3.68,73.75V77c0,.77.54,1.08,1.21.7A2.67,2.67,0,0,0,6.1,75.63V72.36Z"/><polygon class="cls-17" points="4.98 77.07 5.5 76.42 5.5 75.72 5.33 75.71 4.98 75.68 4.46 76.33 4.46 76.94 4.46 77.03 4.98 77.07"/><path class="cls-18" d="M5,76.74a.71.71,0,0,0,.32-.55c0-.2-.14-.29-.32-.18a.71.71,0,0,0-.32.55C4.66,76.76,4.8,76.85,5,76.74Z"/><path class="cls-7" d="M5.07,76.79a.71.71,0,0,0,.32-.55c0-.2-.14-.29-.32-.18a.71.71,0,0,0-.32.55C4.75,76.81,4.89,76.9,5.07,76.79Z"/><polygon class="cls-7" points="4.46 77.03 4.46 76.94 4.46 76.33 4.98 75.68 5.33 75.71 5.5 75.72 5.33 75.62 4.8 75.57 4.28 76.22 4.28 76.92 4.46 77.03"/><polygon class="cls-5" points="1.61 72.55 1.61 72.69 3.68 73.89 3.68 73.75 1.61 72.55"/><polygon class="cls-19" points="6.1 72.36 3.68 73.75 1.61 72.55 4.02 71.16 6.1 72.36"/><path class="cls-5" d="M44.86,68.53v3.27c0,.77.54,1.08,1.21.7a2.67,2.67,0,0,0,1.21-2.09l.11-3.21-.11-.06Z"/><path class="cls-6" d="M45,68.59v3.27c0,.77.54,1.08,1.21.7a2.67,2.67,0,0,0,1.21-2.09V67.19Z"/><path class="cls-7" d="M45.65,71.46a1.14,1.14,0,0,1,.52-.9c.29-.16.52,0,.52.3a1.14,1.14,0,0,1-.52.9C45.88,71.92,45.65,71.79,45.65,71.46Z"/><path class="cls-8" d="M46.27,74.91a1,1,0,0,1-.35-.34,1.81,1.81,0,0,1-.25-1A4.54,4.54,0,0,1,47.72,70a1.8,1.8,0,0,1,1-.28,1,1,0,0,1,.47.14L47.6,69a1.44,1.44,0,0,0-1.45.14,4.54,4.54,0,0,0-2.05,3.56,1.44,1.44,0,0,0,.6,1.33Z"/><path class="cls-9" d="M47.72,74.76a4.54,4.54,0,0,0,2.05-3.56,1.45,1.45,0,0,0-.6-1.33,1,1,0,0,0-.47-.14,1.8,1.8,0,0,0-1,.28,4.54,4.54,0,0,0-2.05,3.56,1.81,1.81,0,0,0,.25,1,1,1,0,0,0,.35.34A1.44,1.44,0,0,0,47.72,74.76Z"/><path class="cls-10" d="M49.16,71.56c0-.92-.65-1.29-1.44-.83a3.19,3.19,0,0,0-1.44,2.49c0,.92.65,1.29,1.44.83A3.19,3.19,0,0,0,49.16,71.56Z"/><path class="cls-11" d="M48.6,70.87a.59.59,0,0,0-.39-.06,1.21,1.21,0,0,0-.41.16,2.85,2.85,0,0,0-1.28,2.21,1.22,1.22,0,0,0,.07.43.59.59,0,0,0,.25.31.8.8,0,0,0,.79-.09,2.84,2.84,0,0,0,1.28-2.21A.8.8,0,0,0,48.6,70.87Z"/><path class="cls-12" d="M48.21,70.81a1.21,1.21,0,0,0-.41.16,2.85,2.85,0,0,0-1.28,2.21,1.22,1.22,0,0,0,.07.43,1.16,1.16,0,0,0,.41-.16,2.84,2.84,0,0,0,1.28-2.21A1.16,1.16,0,0,0,48.21,70.81Z"/><g class="cls-21"><path class="cls-8" d="M47.06,73a.32.32,0,0,1-.11-.1.55.55,0,0,1-.08-.3,1.38,1.38,0,0,1,.62-1.08.55.55,0,0,1,.3-.08.31.31,0,0,1,.14,0l-.48-.28a.44.44,0,0,0-.44,0,1.38,1.38,0,0,0-.62,1.08.44.44,0,0,0,.18.4Z"/><path class="cls-9" d="M47.5,73a1.38,1.38,0,0,0,.62-1.08.44.44,0,0,0-.18-.4.31.31,0,0,0-.14,0,.55.55,0,0,0-.3.08,1.38,1.38,0,0,0-.62,1.08.55.55,0,0,0,.08.3.32.32,0,0,0,.11.1A.44.44,0,0,0,47.5,73Z"/><path class="cls-14" d="M47.78,71.76l-.09,0h0a.37.37,0,0,0-.17.05.9.9,0,0,0-.41.7.36.36,0,0,0,0,.18v0a.22.22,0,0,0,.07.07.29.29,0,0,0,.29,0,.9.9,0,0,0,.41-.7A.28.28,0,0,0,47.78,71.76Z"/><path class="cls-15" d="M47.67,71.74a.37.37,0,0,0-.17.05.9.9,0,0,0-.41.7.36.36,0,0,0,0,.18.37.37,0,0,0,.17-.05.89.89,0,0,0,.4-.7A.37.37,0,0,0,47.67,71.74Z"/></g><path class="cls-5" d="M46.83,69.66v3.27c0,.77.54,1.08,1.21.7a2.67,2.67,0,0,0,1.21-2.09l.11-3.21-.11-.06Z"/><path class="cls-16" d="M46.93,69.73V73c0,.77.54,1.08,1.21.7a2.67,2.67,0,0,0,1.21-2.09V68.33Z"/><polygon class="cls-17" points="48.23 73.05 48.76 72.39 48.76 71.69 48.58 71.68 48.23 71.65 47.71 72.3 47.71 72.91 47.71 73 48.23 73.05"/><path class="cls-18" d="M48.23,72.72a.71.71,0,0,0,.32-.55c0-.2-.14-.29-.32-.18a.71.71,0,0,0-.32.55C47.91,72.74,48.05,72.82,48.23,72.72Z"/><path class="cls-7" d="M48.32,72.77a.71.71,0,0,0,.32-.55c0-.2-.14-.29-.32-.18a.71.71,0,0,0-.32.55C48,72.79,48.14,72.87,48.32,72.77Z"/><polygon class="cls-7" points="47.71 73 47.71 72.91 47.71 72.3 48.23 71.65 48.58 71.68 48.76 71.69 48.58 71.59 48.05 71.55 47.53 72.2 47.53 72.9 47.71 73"/><polygon class="cls-5" points="44.86 68.53 44.86 68.66 46.94 69.86 46.94 69.72 44.86 68.53"/><polygon class="cls-19" points="49.35 68.33 46.93 69.73 44.86 68.53 47.27 67.13 49.35 68.33"/><polygon class="cls-22" points="0 73.19 0 74.15 19.81 85.59 19.81 84.63 0 73.19"/><polygon class="cls-23" points="50.4 66.97 50.4 67.92 19.81 85.59 19.81 84.63 50.4 66.97"/><polygon class="cls-24" points="19.81 84.63 50.4 66.97 30.59 55.53 0 73.19 19.81 84.63"/><path class="cls-11" d="M48.3,67.5a.62.62,0,0,1-.62-.62V47a.62.62,0,0,1,.18-.44l5.23-5.23a.62.62,0,0,1,.88.88l-5,5V66.88A.62.62,0,0,1,48.3,67.5Z"/><path class="cls-11" d="M30.78,57.39a.62.62,0,0,1-.62-.62V36.89a.62.62,0,0,1,.18-.44l5.23-5.23a.62.62,0,1,1,.88.88l-5,5V56.77A.62.62,0,0,1,30.78,57.39Z"/><path class="cls-11" d="M53.52,42.41a.62.62,0,0,1-.31-.08L35.69,32.21a.62.62,0,0,1,.62-1.08L53.84,41.24a.62.62,0,0,1-.31,1.16Z"/><path class="cls-11" d="M48.3,54.91a.62.62,0,0,1-.31-.08L30.47,44.71a.62.62,0,0,1,.62-1.08L48.61,53.75a.62.62,0,0,1-.31,1.16Z"/><path class="cls-11" d="M39.54,62.45a.62.62,0,0,1-.62-.62V49.23a.62.62,0,0,1,1.25,0V61.82A.62.62,0,0,1,39.54,62.45Z"/><path class="cls-25" d="M42.82,18.77S38.7,29,37.62,30.48c-1.23,1.62-1.42,1.91-.66,3.2a1.68,1.68,0,0,0,1.64.83.6.6,0,0,0,.56-.67c-.09-.66.25-1.07.77-.54,0,0,.76.61.62-.15-.28-1.55-.93-2-.33-3.5s6.84-8.34,5.92-10.43Z"/><path class="cls-26" d="M42.16,19.58s3.42.75,4.16,1.56,3-10.62,3-10.62a8.41,8.41,0,0,0-5.64,4.24A13.74,13.74,0,0,0,42.16,19.58Z"/><path class="cls-26" d="M57.92,34.26c0,.78-9.84,3.74-14-1.9,0,0,2.2-6.45.29-12.3A7.68,7.68,0,0,1,46,12.67a6.59,6.59,0,0,1,6.79-2.17,10.48,10.48,0,0,1,5.93,3.7C61.8,18.47,58.41,25,57.92,34.26Z"/><path class="cls-27" d="M55,8.87a7.3,7.3,0,0,0,.1,2.42c.09.55-2.93,2.31-3.47,2.07A2.15,2.15,0,0,1,50.18,11a6.89,6.89,0,0,0,.21-2.49Z"/><path class="cls-25" d="M57.09,4.88s.15,4.87-4.51,5.64a2.89,2.89,0,0,1-3.14-1.72A10.66,10.66,0,0,1,48.81,4,3.75,3.75,0,0,1,53.37,1C57.17,1.78,57.09,4.88,57.09,4.88Z"/><path class="cls-28" d="M48.62,4.44s1.45-.8,4.95.72c.22.1.55,1,.73.93,2.89-1.38,1.09,3.1,1.09,3.1s1.2,0,1.62-3.37-.85-6.7-5.33-5.6A3.7,3.7,0,0,0,48.62,4.44Z"/><path class="cls-25" d="M54.8,20.74a13.24,13.24,0,0,0-.21,3.55,1,1,0,0,1-.1.64c-.93,1.7-5.36,9.65-7.1,10.62-2,1.08-2.72,3-.78,3.92,1.26.57,1.55-.19,1.59-.79a1,1,0,0,1,.53-.81A1.93,1.93,0,0,0,50,36.1c0-1.54,10.15-7.15,8.91-15.66a1,1,0,0,0-.16-.4c-.35-.51-1.43-1.61-3.6.11A1,1,0,0,0,54.8,20.74Z"/><path class="cls-26" d="M54,21.66s4.25,0,5.43,1.63c0,0,1.11-6.4-.39-8C56.39,12.43,54,17.18,54,21.66Z"/></g></g></svg>