<svg xmlns="http://www.w3.org/2000/svg" xmlns:xlink="http://www.w3.org/1999/xlink" viewBox="0 0 89.7 76.07"><defs><style>.cls-1{isolation:isolate;}.cls-2,.cls-42{fill:#e4ecf5;}.cls-2{mix-blend-mode:multiply;}.cls-3{fill:#4d637a;}.cls-4{fill:#5c7a99;}.cls-5{fill:#3e4d5d;}.cls-6{fill:#3a4a5d;}.cls-7{fill:#c78b3d;}.cls-8{fill:#e5a045;}.cls-9{fill:#edad5a;}.cls-10{fill:#ebb977;}.cls-11{fill:#f0c184;}.cls-12{fill:#e0a75c;}.cls-13{fill:#dea050;}.cls-14{fill:#f5cc98;}.cls-15{fill:#ffc800;}.cls-16{fill:#354555;}.cls-17{fill:#45596e;}.cls-18{fill:#25303b;}.cls-19{fill:#fa0;}.cls-20{fill:#50667d;}.cls-21{fill:#7597ba;}.cls-22{fill:#313e4a;}.cls-23{fill:#15202e;}.cls-24{fill:#0c121a;}.cls-25{fill:#dde8ff;}.cls-26{fill:#798dab;}.cls-27{fill:#bed0eb;}.cls-28{fill:#59738f;}.cls-29{fill:url(#linear-gradient);}.cls-30{fill:#ffc936;}.cls-31{fill:#ffde6e;}.cls-32{fill:#7292b5;}.cls-33{fill:url(#linear-gradient-2);}.cls-34{fill:#5d7794;}.cls-35{fill:url(#linear-gradient-3);}.cls-36{fill:#efab30;}.cls-37{fill:#f5c59a;}.cls-38{fill:#8faac4;}.cls-39{fill:#0d0d0d;}.cls-40{fill:#ba3e2f;}.cls-41{fill:#de4d3a;}.cls-43{fill:url(#linear-gradient-4);}.cls-44{fill:url(#linear-gradient-5);}.cls-45{fill:#e8b07d;}.cls-46{fill:url(#linear-gradient-6);}.cls-47{fill:#5f7fa1;}.cls-48{fill:#ff8d7d;}.cls-49{fill:url(#linear-gradient-7);}.cls-50{fill:#ff4b33;}.cls-51{fill:url(#linear-gradient-8);}.cls-52{fill:#efd630;}</style><linearGradient id="linear-gradient" x1="25.79" y1="41.62" x2="26.2" y2="51.56" gradientUnits="userSpaceOnUse"><stop offset="0" stop-color="#fa0"/><stop offset="0.13" stop-color="#ffb615"/><stop offset="0.35" stop-color="#ffc630"/><stop offset="0.56" stop-color="#ffd144"/><stop offset="0.78" stop-color="#ffd850"/><stop offset="1" stop-color="#ffda54"/></linearGradient><linearGradient id="linear-gradient-2" x1="61.16" y1="10.08" x2="61.89" y2="10.08" gradientTransform="translate(-19.16 6.79) rotate(7.34)" gradientUnits="userSpaceOnUse"><stop offset="0.5" stop-color="#3e4d5d"/><stop offset="0.76" stop-color="#3f4f60"/><stop offset="0.94" stop-color="#435568"/><stop offset="1" stop-color="#45596e"/></linearGradient><linearGradient id="linear-gradient-3" x1="43.14" y1="30.71" x2="47.82" y2="29.54" gradientUnits="userSpaceOnUse"><stop offset="0.5" stop-color="#303c47"/><stop offset="0.64" stop-color="#323f4b"/><stop offset="0.78" stop-color="#384756"/><stop offset="0.9" stop-color="#425568"/><stop offset="0.93" stop-color="#45596e"/></linearGradient><linearGradient id="linear-gradient-4" x1="660.52" y1="8.25" x2="660.52" y2="4.98" gradientTransform="translate(-629.93 22.68) rotate(-0.4)" gradientUnits="userSpaceOnUse"><stop offset="0.13" stop-color="#fcd1a9"/><stop offset="0.56" stop-color="#f2b98c"/></linearGradient><linearGradient id="linear-gradient-5" x1="638.35" y1="10.56" x2="638.89" y2="4.63" gradientTransform="translate(-606.44 11.56) rotate(0.24)" gradientUnits="userSpaceOnUse"><stop offset="0" stop-color="#f2b98c"/><stop offset="0.41" stop-color="#f7c69b"/><stop offset="0.91" stop-color="#fcd1a9"/></linearGradient><linearGradient id="linear-gradient-6" x1="29.59" y1="41.6" x2="25.34" y2="34.23" gradientUnits="userSpaceOnUse"><stop offset="0" stop-color="#45596e"/><stop offset="0.02" stop-color="#465a6f"/><stop offset="0.37" stop-color="#526c86"/><stop offset="0.71" stop-color="#597694"/><stop offset="1" stop-color="#5c7a99"/></linearGradient><linearGradient id="linear-gradient-7" x1="20.5" y1="26.02" x2="19.8" y2="24.82" gradientUnits="userSpaceOnUse"><stop offset="0.62" stop-color="#ff624d"/><stop offset="1" stop-color="#ff8d7d"/></linearGradient><linearGradient id="linear-gradient-8" x1="30.21" y1="31.64" x2="29.51" y2="30.44" xlink:href="#linear-gradient-7"/></defs><title>i1</title><g class="cls-1"><g id="Слой_2" data-name="Слой 2"><g id="_лой_1" data-name="—лой_1"><g id="loader_4" data-name="loader 4"><path class="cls-2" d="M.81,62.73l21.62,12.2L33.52,76l2.08-1,.84-2.11,17.31-10,3.5-.48L59.85,61l-6.23-5.89,11.64-6.69L61,45.3l14.67-8.15L57.84,26.62,44.17,34.7.82,59.91A1.63,1.63,0,0,0,.81,62.73Z"/><g class="cls-1"><polygon class="cls-3" points="68.59 22.77 65.27 24.18 67.06 25.23 70.39 23.82 68.59 22.77"/><path class="cls-4" d="M65.26,24.18,52,31.83a.5.5,0,0,1-.5.05l1.8,1a.5.5,0,0,0,.5-.05l13.24-7.65Z"/><polygon class="cls-4" points="52.39 24.63 50.59 23.59 51.34 23.16 53.14 24.2 52.39 24.63"/><path class="cls-5" d="M52.39,33.24V24.63l-1.8-1V32.2a.75.75,0,0,0,.32.69l1.8,1A.75.75,0,0,1,52.39,33.24Z"/><path class="cls-6" d="M67.06,25.23,53.82,32.88c-.38.22-.69.07-.69-.35V24.2l-.74.43v8.61c0,.7.53,1,1.17.6l16.82-9.72v-.3Z"/></g><g class="cls-1"><polygon class="cls-3" points="75.29 26.62 71.96 28.02 73.76 29.07 77.09 27.66 75.29 26.62"/><path class="cls-4" d="M72,28,58.72,35.68a.5.5,0,0,1-.5.05l1.8,1a.5.5,0,0,0,.5-.05l13.24-7.65Z"/><polygon class="cls-4" points="59.09 28.48 57.29 27.43 58.04 27 59.84 28.05 59.09 28.48"/><path class="cls-5" d="M59.09,37.09V28.48l-1.8-1V36a.75.75,0,0,0,.32.69l1.8,1A.75.75,0,0,1,59.09,37.09Z"/><path class="cls-6" d="M73.76,29.07,60.52,36.72c-.38.22-.69.07-.69-.35V28l-.74.43v8.61c0,.7.53,1,1.17.6L77.08,28v-.3Z"/></g><g class="cls-1"><polygon class="cls-7" points="65.72 39.07 65.72 39.48 67.82 40.71 67.82 40.26 65.72 39.07"/><polygon class="cls-8" points="68.34 40.29 68.34 40.71 67.82 40.71 67.82 40.24 68.34 40.29"/><polygon class="cls-9" points="68.34 40.29 68.34 40.71 89.69 28.38 89.69 27.97 68.34 40.29"/><path class="cls-10" d="M89.69,27.38V28L68.34,40.29h-.51l-2.11-1.23L72.81,35,75,33.72,87.84,26.3Z"/></g><g class="cls-1"><polygon class="cls-8" points="68.34 40.26 67.83 40.26 67.61 38.02 68.52 38.06 68.34 40.26"/><polygon class="cls-9" points="71.39 36.42 71.39 38.49 68.34 40.26 68.34 38.2 71.39 36.42"/><polygon class="cls-7" points="67.83 38.2 67.83 40.26 65.81 39.11 65.81 37.04 67.83 38.2"/><path class="cls-11" d="M71.4,36.42,68.34,38.2h-.51l-2-1.16,3.31-1.92Z"/></g><g class="cls-1"><polygon class="cls-9" points="80.81 31 80.81 33.06 77.5 34.98 77.5 32.92 80.81 31"/><polygon class="cls-7" points="77.5 32.92 77.5 34.98 75.22 33.68 75.23 31.61 77.5 32.92"/><polygon class="cls-11" points="80.81 31 77.5 32.92 75.23 31.61 78.53 29.69 80.81 31"/></g><g class="cls-1"><polygon class="cls-9" points="89.7 25.86 89.7 27.93 86.9 29.55 86.9 27.49 89.7 25.86"/><polygon class="cls-7" points="86.9 27.49 86.9 29.55 84.63 28.25 84.62 26.18 86.9 27.49"/><path class="cls-11" d="M89.7,25.86l-2.8,1.63-2.28-1.3,3.31-1.92,1.77,1C89.7,25.54,89.7,25.6,89.7,25.86Z"/></g><polygon class="cls-12" points="77.5 34.98 74.67 35.08 73.65 34.5 74.99 33.72 75.22 33.68 77.5 34.98"/><polygon class="cls-12" points="86.9 29.55 84.18 29.6 83.17 29.02 84.39 28.29 84.63 28.25 86.9 29.55"/><g class="cls-1"><polygon class="cls-7" points="65.72 36.67 65.72 37.08 67.83 38.31 67.83 37.89 65.72 36.67"/><polygon class="cls-8" points="68.34 37.89 68.34 38.31 67.83 38.31 67.83 37.89 68.34 37.89"/><polygon class="cls-9" points="68.34 37.89 68.34 38.31 89.69 25.98 89.69 25.57 68.34 37.89"/><path class="cls-11" d="M65.72,36.67l2.11,1.23h.51L89.69,25.57V25L87.84,23.9Z"/></g><polygon class="cls-12" points="72.79 35.32 71.25 34.83 70.08 34.15 70.42 33.95 72.79 35.32"/><polygon class="cls-12" points="77.5 32.62 75.96 32.13 74.76 31.45 75.13 31.24 77.5 32.62"/><polygon class="cls-12" points="82.19 29.89 80.65 29.41 79.48 28.73 79.82 28.53 82.19 29.89"/><polygon class="cls-12" points="86.89 27.18 85.35 26.7 84.19 26.01 84.53 25.82 86.89 27.18"/><g class="cls-1"><polygon class="cls-7" points="57.19 34.14 57.19 34.55 59.56 35.93 59.56 35.48 57.19 34.14"/><polygon class="cls-9" points="59.56 35.52 59.56 35.93 81.67 23.17 81.67 22.76 59.56 35.52"/><polygon class="cls-10" points="81.67 22.76 59.56 35.52 57.19 34.14 64.27 30.05 66.46 28.79 79.3 21.37 81.67 22.76"/></g><g class="cls-1"><polygon class="cls-13" points="62.86 31.49 62.86 33.56 59.56 35.48 59.56 33.41 62.86 31.49"/><polygon class="cls-7" points="59.56 33.41 59.56 35.48 57.28 34.18 57.28 32.11 59.56 33.41"/><polygon class="cls-11" points="62.86 31.49 59.56 33.41 57.28 32.11 60.58 30.19 62.86 31.49"/></g><g class="cls-1"><polygon class="cls-13" points="72.28 26.07 72.28 28.14 68.96 30.05 68.97 27.99 72.28 26.07"/><polygon class="cls-7" points="68.97 27.99 68.96 30.05 66.69 28.75 66.69 26.68 68.97 27.99"/><polygon class="cls-11" points="72.28 26.07 68.97 27.99 66.69 26.68 70 24.76 72.28 26.07"/></g><g class="cls-1"><polygon class="cls-13" points="81.67 20.64 81.67 22.7 78.37 24.63 78.37 22.56 81.67 20.64"/><polygon class="cls-7" points="78.37 22.56 78.37 24.63 76.09 23.32 76.09 21.26 78.37 22.56"/><polygon class="cls-11" points="78.37 22.56 76.09 21.26 79.39 19.34 81.67 20.64 78.37 22.56"/></g><polygon class="cls-12" points="68.96 30.05 65.97 30.23 64.96 29.64 66.69 28.65 66.69 28.75 68.96 30.05"/><polygon class="cls-12" points="78.37 24.63 75.45 24.76 74.43 24.18 76.09 23.23 76.09 23.32 78.37 24.63"/><g class="cls-1"><polygon class="cls-7" points="57.19 31.74 57.19 32.15 59.55 33.53 59.55 33.11 57.19 31.74"/><polygon class="cls-9" points="59.55 33.11 59.55 33.53 81.67 20.76 81.67 20.35 59.55 33.11"/><polygon class="cls-11" points="57.19 31.74 59.55 33.11 81.67 20.35 79.3 18.97 57.19 31.74"/></g><polygon class="cls-12" points="64.26 30.39 63.9 30.6 61.55 29.22 61.89 29.02 64.26 30.39"/><polygon class="cls-12" points="68.96 27.69 68.62 27.88 66.23 26.52 66.6 26.31 68.96 27.69"/><polygon class="cls-12" points="73.66 24.96 73.29 25.18 70.94 23.8 71.29 23.6 73.66 24.96"/><polygon class="cls-12" points="78.36 22.26 78 22.47 75.65 21.08 75.99 20.89 78.36 22.26"/><g class="cls-1"><polygon class="cls-7" points="49.74 29.82 49.74 30.23 51.6 31.27 51.6 30.82 49.74 29.82"/><polygon class="cls-9" points="51.59 30.86 51.6 31.27 73.69 18.56 73.69 18.14 51.59 30.86"/><path class="cls-10" d="M73.69,18.14,51.6,30.86l-1.86-1c0-.26,0-.32,0-.59l6.57-3.79,2.18-1.26,12.85-7.41Z"/></g><g class="cls-1"><polygon class="cls-13" points="54.89 26.89 54.89 28.96 51.58 30.82 51.58 28.76 54.89 26.89"/><polygon class="cls-7" points="51.58 28.76 51.58 30.82 49.72 29.79 49.72 27.72 51.58 28.76"/><path class="cls-11" d="M54.89,26.89l-3.31,1.92-1.77-1v-.59l2.8-1.63Z"/></g><g class="cls-1"><polygon class="cls-13" points="64.31 21.46 64.31 23.53 60.99 25.45 61 23.38 64.31 21.46"/><polygon class="cls-7" points="61 23.38 60.99 25.45 58.72 24.15 58.73 22.08 61 23.38"/><polygon class="cls-11" points="64.31 21.46 61 23.38 58.73 22.08 62.03 20.16 64.31 21.46"/></g><g class="cls-1"><polygon class="cls-13" points="73.7 16.03 73.7 18.1 70.4 20.02 70.4 17.95 73.7 16.03"/><polygon class="cls-7" points="70.4 17.95 70.4 20.02 68.12 18.72 68.12 16.65 70.4 17.95"/><polygon class="cls-11" points="70.4 17.95 68.12 16.65 71.43 14.73 73.7 16.03 70.4 17.95"/></g><g class="cls-1"><polygon class="cls-7" points="49.72 27.4 49.73 27.82 51.58 28.92 51.58 28.51 49.72 27.4"/><polygon class="cls-9" points="51.58 28.51 51.58 28.92 73.7 16.16 73.7 15.74 51.58 28.51"/><path class="cls-11" d="M51.58,28.51,73.7,15.74l-2-1.18H71L49.73,26.84v.59Z"/></g><polygon class="cls-12" points="56.29 25.78 55.93 26 53.58 24.62 53.92 24.42 56.29 25.78"/><polygon class="cls-12" points="60.99 23.08 60.66 23.27 58.26 21.92 58.63 21.7 60.99 23.08"/><polygon class="cls-12" points="65.69 20.36 65.33 20.57 62.98 19.2 63.32 19 65.69 20.36"/><polygon class="cls-12" points="70.39 17.65 70 17.88 67.69 16.48 68.02 16.29 70.39 17.65"/><g class="cls-1"><polygon class="cls-9" points="71.39 35.71 71.39 36.12 68.34 37.89 68.34 37.48 71.39 35.71"/><polygon class="cls-8" points="67.83 37.48 67.83 37.89 68.34 37.89 68.34 37.48 67.83 37.48"/><polygon class="cls-7" points="67.83 37.48 67.83 37.89 49.72 27.44 49.72 27.02 67.83 37.48"/><path class="cls-14" d="M71.39,35.71l-3.05,1.77h-.51L49.72,27c0-.26,0-.33,0-.59l2.8-1.63Z"/></g><g class="cls-1"><polygon class="cls-9" points="80.8 30.28 80.8 30.69 77.5 32.62 77.5 32.2 80.8 30.28"/><polygon class="cls-7" points="77.5 32.2 77.5 32.62 58.62 21.72 58.63 21.3 77.5 32.2"/><polygon class="cls-14" points="80.8 30.28 77.5 32.2 58.63 21.3 61.93 19.38 80.8 30.28"/></g><g class="cls-1"><polygon class="cls-9" points="76.1 32.99 76.1 33.4 72.79 35.32 72.8 34.91 76.1 32.99"/><polygon class="cls-7" points="72.8 34.91 72.79 35.32 53.92 24.42 53.92 24.01 72.8 34.91"/><polygon class="cls-14" points="76.1 32.99 72.8 34.91 53.92 24.01 57.23 22.09 76.1 32.99"/></g><g class="cls-1"><polygon class="cls-9" points="89.69 25.14 89.69 25.56 86.89 27.18 86.89 26.77 89.69 25.14"/><polygon class="cls-7" points="86.89 26.77 86.89 27.18 68.02 16.29 68.02 15.88 86.89 26.77"/><path class="cls-14" d="M89.69,25.14l-2.8,1.63L68,15.88l3-1.72h.68l18,10.41C89.69,24.82,89.69,24.88,89.69,25.14Z"/></g><g class="cls-1"><polygon class="cls-9" points="85.5 27.56 85.5 27.97 82.19 29.89 82.19 29.48 85.5 27.56"/><polygon class="cls-7" points="82.19 29.48 82.19 29.89 63.32 19 63.32 18.58 82.19 29.48"/><polygon class="cls-14" points="85.5 27.56 82.19 29.48 63.32 18.58 66.63 16.66 85.5 27.56"/></g><path class="cls-15" d="M68.33,21.64,44.9,8.12a.79.79,0,0,0-.86,0l-.73.42.26.39L43.89,15v1L44,29l.88-.51V16.63L68.32,30.15l.13,12.94.88-.51V23.24A2.08,2.08,0,0,0,68.33,21.64ZM49.67,18.37,44.9,15.62V9.13l4.76,2.75Zm6.44,3.72L50.68,19V12.47l5.42,3.13Zm6.52,3.76-5.51-3.18V16.18l5.51,3.18Zm5.7,3.29-4.68-2.7V19.95l3.49,2A2.37,2.37,0,0,1,68.32,24Z"/><g class="cls-1"><polygon class="cls-16" points="67.8 40.33 67.8 42.04 68.4 41.69 68.4 39.98 67.8 40.33"/><polygon class="cls-17" points="44.75 26.36 44.16 26.7 67.8 40.33 68.4 39.98 44.75 26.36"/><polygon class="cls-18" points="44.16 26.7 44.15 28.41 67.8 42.04 67.8 40.33 44.16 26.7"/></g><g class="cls-1"><polygon class="cls-16" points="67.82 34.88 67.81 36.59 68.41 36.24 68.42 34.54 67.82 34.88"/><polygon class="cls-17" points="44.77 20.91 44.17 21.26 67.82 34.88 68.42 34.54 44.77 20.91"/><polygon class="cls-18" points="44.17 21.26 44.17 22.96 67.81 36.59 67.82 34.88 44.17 21.26"/></g><path class="cls-19" d="M67.45,22.16,44,8.63c-.56-.33-1-.14-1,.42V28.4L44,29V17.14L67.44,30.67V42.51l1,.59V23.75A2.08,2.08,0,0,0,67.45,22.16ZM48.78,18.88,44,16.13V9.64l4.76,2.75Zm6.44,3.72L49.8,19.47V13l5.42,3.13Zm6.52,3.76-5.51-3.18V16.69l5.51,3.18Zm5.7,3.29-4.68-2.7V20.46l4.68,2.7Z"/><g class="cls-1"><polygon class="cls-20" points="52.24 2.88 48.8 4.58 49.16 43.65 52.35 41.8 52.24 2.88"/><polygon class="cls-5" points="49.05 4.72 48.12 4.18 48.23 43.11 49.16 43.65 49.05 4.72"/><polygon class="cls-21" points="51.32 2.33 48.12 4.18 49.05 4.72 52.24 2.88 51.32 2.33"/></g><g class="cls-1"><polygon class="cls-20" points="62.64 8.9 59.2 10.6 59.55 49.67 62.75 47.82 62.64 8.9"/><polygon class="cls-5" points="59.44 10.74 58.52 10.2 58.63 49.13 59.55 49.67 59.44 10.74"/><polygon class="cls-21" points="61.72 8.36 58.52 10.2 59.44 10.74 62.64 8.9 61.72 8.36"/></g><g class="cls-1"><polygon class="cls-6" points="63.04 6.76 58.7 8.91 59.15 12.22 63.18 9.9 63.04 6.76"/><polygon class="cls-5" points="59.01 9.09 57.84 8.41 57.98 11.54 59.15 12.22 59.01 9.09"/><polygon class="cls-21" points="61.87 6.08 57.84 8.41 59.01 9.09 63.04 6.76 61.87 6.08"/></g><g class="cls-1"><polygon class="cls-6" points="52.59 0.68 48.25 2.83 48.7 6.14 52.73 3.82 52.59 0.68"/><polygon class="cls-5" points="48.56 3.01 47.4 2.33 47.54 5.46 48.7 6.14 48.56 3.01"/><polygon class="cls-21" points="51.43 0 47.4 2.33 48.56 3.01 52.59 0.68 51.43 0"/></g><polygon class="cls-18" points="59.15 12.22 47.61 5.5 47.45 2.36 58.94 9.05 59.15 12.22"/><polygon class="cls-21" points="58.38 8.72 48.34 2.88 49.69 2.36 59.15 7.66 58.38 8.72"/><g class="cls-1"><polygon class="cls-17" points="42.91 58.97 22.36 47.03 24.27 41.7 44.81 53.64 42.91 58.97"/><path class="cls-22" d="M16.73,54.57,37.28,66.51a2.92,2.92,0,0,1,1.24,2.55c0,.71,0,2,0,2.05L18,59.17c0-.06,0-1.34,0-2.05A2.92,2.92,0,0,0,16.73,54.57Z"/><g class="cls-1"><path class="cls-23" d="M32.41,66.6a2.36,2.36,0,0,1,2.38-.23l2.32,1.35c-.61-.35-5.33,7.79-4.73,8.13L30.06,74.5a2.33,2.33,0,0,1-1-2.14A7.33,7.33,0,0,1,32.41,66.6Z"/><path class="cls-24" d="M34.74,67.95c1.84-1.06,3.34-.21,3.35,1.91a7.34,7.34,0,0,1-3.33,5.76c-1.84,1.06-3.34.21-3.35-1.91A7.33,7.33,0,0,1,34.74,67.95Z"/></g><path class="cls-25" d="M35,74.3a4.83,4.83,0,0,0,2.18-3.78c0-1.39-1-2-2.18-1.26A4.83,4.83,0,0,0,32.79,73C32.79,74.43,33.77,75,35,74.3Z"/><path class="cls-26" d="M35.11,74.4a4.83,4.83,0,0,0,2.18-3.78c0-1.39-1-2-2.18-1.26a4.83,4.83,0,0,0-2.18,3.78C32.92,74.53,33.9,75.09,35.11,74.4Z"/><path class="cls-27" d="M34.24,74.27a1.66,1.66,0,0,0,.81-.25,4.18,4.18,0,0,0,1.89-3.27c0-.79-.37-1.27-1-1.27a1.66,1.66,0,0,0-.81.25A4.18,4.18,0,0,0,33.28,73C33.28,73.79,33.65,74.27,34.24,74.27Z"/><path class="cls-25" d="M33.5,73.83a1.66,1.66,0,0,0,.81-.25,4.18,4.18,0,0,0,1.89-3.27,1.62,1.62,0,0,0-.2-.83c.58,0,.94.5.94,1.27A4.18,4.18,0,0,1,35.05,74a1.66,1.66,0,0,1-.81.25.85.85,0,0,1-.76-.44Z"/><g class="cls-1"><path class="cls-23" d="M13.06,55.48a2.36,2.36,0,0,1,2.38-.23l2.32,1.35c-.61-.35-5.33,7.79-4.73,8.13l-2.32-1.35a2.33,2.33,0,0,1-1-2.14A7.33,7.33,0,0,1,13.06,55.48Z"/><path class="cls-24" d="M15.39,56.83c1.84-1.06,3.34-.21,3.35,1.91a7.34,7.34,0,0,1-3.33,5.76c-1.84,1.06-3.34.21-3.35-1.91A7.33,7.33,0,0,1,15.39,56.83Z"/></g><path class="cls-25" d="M15.63,63.18a4.83,4.83,0,0,0,2.18-3.78c0-1.39-1-2-2.18-1.26a4.83,4.83,0,0,0-2.18,3.78C13.44,63.31,14.42,63.88,15.63,63.18Z"/><path class="cls-26" d="M15.76,63.28a4.83,4.83,0,0,0,2.18-3.78c0-1.39-1-2-2.18-1.26A4.83,4.83,0,0,0,13.57,62C13.57,63.41,14.55,64,15.76,63.28Z"/><path class="cls-27" d="M14.89,63.15a1.66,1.66,0,0,0,.81-.25,4.18,4.18,0,0,0,1.89-3.27c0-.79-.37-1.27-1-1.27a1.66,1.66,0,0,0-.81.25,4.18,4.18,0,0,0-1.89,3.27C13.93,62.67,14.3,63.15,14.89,63.15Z"/><path class="cls-25" d="M14.15,62.71a1.66,1.66,0,0,0,.81-.25,4.18,4.18,0,0,0,1.89-3.27,1.62,1.62,0,0,0-.2-.83c.58,0,.94.5.94,1.27A4.18,4.18,0,0,1,15.7,62.9a1.66,1.66,0,0,1-.81.25.85.85,0,0,1-.76-.44Z"/><g class="cls-1"><path class="cls-23" d="M54.68,46.23c1.6-.92,3-1,4.09-.4l4,2.32c-1-.61-9.17,13.4-8.14,14l-4-2.32A4,4,0,0,1,49,56.14,12.61,12.61,0,0,1,54.68,46.23Z"/><path class="cls-24" d="M58.68,48.55c3.17-1.83,5.76-.36,5.77,3.29a12.63,12.63,0,0,1-5.73,9.91C55.55,63.58,53,62.1,53,58.46A12.61,12.61,0,0,1,58.68,48.55Z"/></g><path class="cls-25" d="M59.09,59.49A8.32,8.32,0,0,0,62.85,53c0-2.39-1.69-3.37-3.76-2.17a8.32,8.32,0,0,0-3.76,6.51C55.34,59.71,57,60.68,59.09,59.49Z"/><path class="cls-26" d="M59.32,59.65a8.32,8.32,0,0,0,3.76-6.51c0-2.39-1.69-3.37-3.76-2.17a8.32,8.32,0,0,0-3.76,6.51C55.56,59.87,57.25,60.84,59.32,59.65Z"/><path class="cls-27" d="M57.83,59.43A2.86,2.86,0,0,0,59.22,59a7.19,7.19,0,0,0,3.25-5.63c0-1.35-.63-2.19-1.66-2.19a2.86,2.86,0,0,0-1.39.43,7.19,7.19,0,0,0-3.25,5.63C56.17,58.59,56.81,59.43,57.83,59.43Z"/><path class="cls-25" d="M56.55,58.68a2.86,2.86,0,0,0,1.39-.43,7.19,7.19,0,0,0,3.25-5.63,2.79,2.79,0,0,0-.34-1.43c1,0,1.62.85,1.62,2.19A7.19,7.19,0,0,1,59.22,59a2.86,2.86,0,0,1-1.39.43,1.47,1.47,0,0,1-1.32-.76Z"/><path class="cls-28" d="M42.77,33.31a5.29,5.29,0,0,0-4.11.27c-.16.07-.33.16-.49.25l-6.23,3.7,1.24.7L26.7,41.79l-1.2-.65-1.23.56L44.81,53.64l13.91-7.88c.16-.09.32-.18.49-.25a5.29,5.29,0,0,1,4.11-.27Z"/><path class="cls-5" d="M29.35,71.64a5.57,5.57,0,0,1-.18-1.34L29,67,8.47,55v3.37a5.79,5.79,0,0,0,.15,1.36,3.55,3.55,0,0,0,.86,1.66L30,73.35A3.62,3.62,0,0,1,29.35,71.64Z"/><path class="cls-17" d="M44.81,53.64l13.91-7.88c.16-.09.32-.18.49-.25a5.29,5.29,0,0,1,4.11-.27,1.15,1.15,0,0,1,.23.57v.6c-1.3-.92-3.22-.87-5.36.37A15.81,15.81,0,0,0,51.76,55a9.82,9.82,0,0,0-.54,2.39c0,.32-.08,1.47-.08,1.51,0,2-.08,4.87-.08,5L38.56,71.11c0-.06,0-1.34,0-2.05-.09-2.47-1.85-3.61-4.22-2.25A9.54,9.54,0,0,0,30,73.35a3.55,3.55,0,0,1-.86-1.66A5.78,5.78,0,0,1,29,70.33V67l13.89-8Z"/><path class="cls-29" d="M23.09,38.51a3.07,3.07,0,0,0-3.08.32L8.47,45.54,29,57.48l11.54-6.72a3.07,3.07,0,0,1,3.08-.32Z"/><path class="cls-30" d="M26.73,56.19l11.73-6.77A3.11,3.11,0,0,1,41.09,49l1,.6-.53-1.37a1.58,1.58,0,0,0-1.09-.9c-2.23-.6-8-1.06-13.78-1.3Z"/><polygon class="cls-19" points="26.73 54.55 11.38 45.62 11.38 47.27 26.73 56.19 26.73 54.55"/><path class="cls-31" d="M41,47.51a2.79,2.79,0,0,0-2.55.26L26.73,54.55,11.38,45.62l11.73-6.77a3,3,0,0,1,2.67-.18l2.83,1.65,7.74,4.5Z"/><polygon class="cls-19" points="29.01 66.96 8.47 55.02 8.47 45.54 29.69 57.84 29.01 66.96"/><path class="cls-30" d="M40.56,50.77c2.35-1.35,4.26-.34,4.26,2.27v.61L42.91,59,29,67V57.48Z"/><polygon class="cls-28" points="50.32 51.48 46.38 53.74 47.39 55.41 52.28 52.61 50.32 51.48"/><polygon class="cls-5" points="50.32 51.48 52.28 52.61 52.4 49.36 50.32 48.13 50.32 51.48"/><path class="cls-17" d="M44.52,51.48a3.33,3.33,0,0,1,.24.85l1.18.67.45.74,3.93-2.26V48.13Z"/></g><g class="cls-1"><path class="cls-18" d="M38,14.31a3.49,3.49,0,0,0-1.38-3l-1.75-.7a3.07,3.07,0,0,1,1.33,2.83l0,21.75,1.55.9Z"/><path class="cls-21" d="M35.64,9.45c-1.17-.68-2.88-.55-4.78.55L13.3,20.08l1.55.9L32.41,10.9c1.9-1.1,3.61-1.23,4.78-.55Z"/><polygon class="cls-18" points="15.22 21.18 13.3 20.08 13.33 42.72 14.88 43.62 15.22 21.18"/><path class="cls-17" d="M38.78,13.71c0-3.58-2.85-4.84-6.37-2.81L14.85,21l0,22.64,1-.58,0-21.61,16.56-9.5c3-1.71,5.36-.65,5.36,2.37L37.8,36l1-.58Z"/></g><path class="cls-4" d="M54.27,21.66a.63.63,0,0,1-.32-.09l-17.3-9.9a.64.64,0,0,1,.63-1.1l17.3,9.9a.64.64,0,0,1-.32,1.19Z"/><polygon class="cls-6" points="51.04 38.4 47.4 44.52 51.6 42.49 52.53 37.94 51.04 38.4"/><polygon class="cls-18" points="37.22 26.77 37.7 30.82 41.69 33.12 39.87 40.17 47.4 44.52 51.28 38.66 55.27 40.97 56.35 35.67 54.16 36.56 37.22 26.77"/><path class="cls-6" d="M37.48,27.2,53.3,36.56a1.48,1.48,0,0,0,1.5,0l1.55-.9L38.78,25.52l-1.3.75A.54.54,0,0,0,37.48,27.2Z"/><path class="cls-6" d="M45.36,44.66s-2-1-1.59-1.72l.95-2.69c.17-.35.54-.56,1.14-.3l1.27.7c.49.27.65.63.53,1l-1.13,2.46A1.08,1.08,0,0,1,45.36,44.66Z"/><path class="cls-32" d="M45.16,44.63l-.59-.25c-.65-.34-1.56-.75-1.16-1.43l1.13-2.46c.17-.35.4-.77,1-.52,0,0,1,.48,1.4.72a.7.7,0,0,1,.36,1l-1.13,2.46C45.88,44.57,45.54,44.75,45.16,44.63Z"/><path class="cls-4" d="M46.44,42l-.09,0-1.44-.7a.21.21,0,1,1,.19-.38l1.44.7a.21.21,0,0,1-.09.4Z"/><path class="cls-4" d="M46,42.89l-.09,0-1.44-.7a.21.21,0,0,1,.19-.38l1.44.7a.21.21,0,0,1-.09.4Z"/><path class="cls-4" d="M45.57,43.77l-.09,0L44,43a.21.21,0,1,1,.19-.38l1.44.7a.21.21,0,0,1-.09.4Z"/><path class="cls-6" d="M41.78,42.71s-2-1-1.59-1.72l.95-2.69c.17-.35.54-.56,1.14-.3l1.27.7c.49.27.65.63.53,1l-1.13,2.46A1.08,1.08,0,0,1,41.78,42.71Z"/><path class="cls-32" d="M41.58,42.67,41,42.43c-.65-.34-1.56-.75-1.16-1.43L41,38.53c.17-.35.41-.77,1-.52,0,0,1,.48,1.4.72a.7.7,0,0,1,.36,1l-1.13,2.46C42.31,42.61,42,42.79,41.58,42.67Z"/><path class="cls-4" d="M42.86,40l-.09,0-1.44-.7a.21.21,0,1,1,.19-.38l1.44.7a.21.21,0,0,1-.09.4Z"/><path class="cls-4" d="M42.45,40.93l-.09,0-1.44-.7a.21.21,0,1,1,.19-.38l1.44.7a.21.21,0,0,1-.09.4Z"/><path class="cls-4" d="M42,41.82l-.09,0-1.44-.7a.21.21,0,0,1,.19-.38l1.44.7a.21.21,0,0,1-.09.4Z"/><g class="cls-1"><path class="cls-18" d="M40.53,28.68h-.07a.42.42,0,0,1-.35-.48l.52-3.35a.42.42,0,0,1,.84.13l-.52,3.35A.42.42,0,0,1,40.53,28.68Z"/><path class="cls-17" d="M42.26,22.48l-1.18.34-.42,3.95.66-.22c.09,0,.15-.08.16-.14l1-4C42.47,22.41,42.35,22.45,42.26,22.48Z"/><path class="cls-33" d="M40.82,22.74l-.22-.16c-.06,0-.12,0-.11-.08l-.41,4a.16.16,0,0,0,.08.14l.08.07a.5.5,0,0,0,.42.07l.52-4A.39.39,0,0,1,40.82,22.74Z"/><path class="cls-34" d="M42.39,22.19,42,21.93a.55.55,0,0,0-.53-.05l-.94.52c-.11.06-.11.17,0,.25l.19.15a.5.5,0,0,0,.42.07l1.15-.36C42.5,22.44,42.53,22.3,42.39,22.19Z"/></g><g class="cls-1"><path class="cls-17" d="M48.47,29.36l-1,.28.94,3.22.81-.27c.26-.09.41-.22.43-.37L49,28.9C49,29.06,48.73,29.27,48.47,29.36Z"/><path class="cls-35" d="M45.79,29.41l-2.69-1.55c-.34-.2-.64-.27-.61-.47l.6,3c0,.2.12.42.47.62l2.72,1.57a3.07,3.07,0,0,0,2.18.29l-.6-3.2A2.74,2.74,0,0,1,45.79,29.41Z"/><path class="cls-34" d="M48.59,28.5l-2.72-1.57a3.07,3.07,0,0,0-2.18-.29l-.81.27c-.6.2-.58.64,0,1l2.72,1.57a3.07,3.07,0,0,0,2.18.29l.81-.27C49.22,29.3,49.2,28.85,48.59,28.5Z"/></g><g class="cls-1"><path class="cls-18" d="M48,27.41l0,.75a.58.58,0,0,0,0-.14,1.45,1.45,0,0,0-1-.7l-.09-.83a1.75,1.75,0,0,1,1.14.74A1,1,0,0,1,48,27.41Z"/><path class="cls-18" d="M46.06,26.42l.09.77a7.36,7.36,0,0,0-2,.05A5.61,5.61,0,0,0,42,28a1.44,1.44,0,0,0-.6.65l-.09-.77a1.3,1.3,0,0,1,.54-.67A5.73,5.73,0,0,1,44,26.41,7.59,7.59,0,0,1,46.06,26.42Z"/><polygon class="cls-18" points="46.96 26.37 46.84 27.32 45.62 28.13 45.43 27.35 46.96 26.37"/><polygon class="cls-18" points="43.4 28.02 43.33 28.84 41.39 28.99 41.26 28.19 43.4 28.02"/><polygon class="cls-18" points="44.49 28.27 44.55 29.1 43.33 28.84 43.24 27.99 44.49 28.27"/><path class="cls-18" d="M45.72,27.6l-.58.46.21.85.53-.52a.12.12,0,0,0,0-.1l-.09-.77S45.76,27.57,45.72,27.6Z"/><polygon class="cls-18" points="45.07 29.07 45.16 29.84 44.55 29.1 44.41 28.16 45.07 29.07"/><path class="cls-18" d="M47.84,28.41l-.21.13a5.64,5.64,0,0,1-1.81.7l-.3.06a8.55,8.55,0,0,1-3.39,0c-1-.22-1.63-.61-1.68-1.1l.09.77c.06.49.63.92,1.67,1.14a9,9,0,0,0,3.52-.07A7,7,0,0,0,48,29.24c.58-.38.84-.8.79-1.17l-.09-.77C48.7,27.67,48.42,28,47.84,28.41Z"/><path class="cls-6" d="M47,26.16a9,9,0,0,0-5.75.92,1.51,1.51,0,0,0-.79,1c0,.56.55,1,1.68,1.27a9,9,0,0,0,3.58-.08h.06a6.46,6.46,0,0,0,2.11-.83C49.21,27.58,48.82,26.54,47,26.16ZM45,29.07a7,7,0,0,1-2.43,0c-.73-.15-1.17-.43-1.3-.77l0-.06,1.94-.15,1.23.26.6.73Zm-.3-1.87a1.1,1.1,0,0,0-.63.07l-1,.46-1.85.14a1.44,1.44,0,0,1,.6-.65,5.61,5.61,0,0,1,2.14-.74,7.36,7.36,0,0,1,2-.05l-1.21.8Zm2.44,1.13a4.7,4.7,0,0,1-1.31.57l-.61-.75.53-.52c.1-.1,0-.2-.15-.24l-.1,0,1.22-.81a1.45,1.45,0,0,1,1,.7C47.91,27.59,47.72,28,47.19,28.33Z"/></g><g class="cls-1"><path class="cls-36" d="M36.35,44.81a1.65,1.65,0,0,1-.67.66L31.1,48.41a1.67,1.67,0,0,1-1.73,0l-6.9-4a.57.57,0,0,1,0-1l4.78-2.79a3.53,3.53,0,0,1,1.37-.42Z"/><path class="cls-18" d="M22.37,42.15V43a1,1,0,0,0,.5.87l7.37,4.19L30,46.56Z"/><path class="cls-6" d="M35.65,41.06l-3.91-2.19a4.11,4.11,0,0,0-3.74,0l-5.63,3.29,7.87,4.58,5.44-3.5C36.71,42.63,36.69,41.66,35.65,41.06Z"/><path class="cls-17" d="M35.68,43.23,30,46.64v1.14a.33.33,0,0,0,.5.29l5.12-3A1.31,1.31,0,0,0,36.44,44V42.16A1.31,1.31,0,0,1,35.68,43.23Z"/></g><path class="cls-37" d="M30.57,33.84a5.31,5.31,0,0,0,2.14.41c.13,0,.14-.12.25-.16s.38,0,.48-.06.1-.17.15-.23.11-.05.12-.08a.52.52,0,0,0,0-.26s-.09-.12-.1-.16a.31.31,0,0,0-.15-.25,1.81,1.81,0,0,0-.49-.25c-.33-.09-1-.23-1.33-.28a.87.87,0,0,0-1,.57C30.41,33.44,30.43,33.78,30.57,33.84Z"/><path class="cls-37" d="M31.69,32.66a2.17,2.17,0,0,1,.48-.13,2.11,2.11,0,0,0,.32,0,.31.31,0,0,0,.24-.13c.05-.07.08-.21-.06-.2a6.14,6.14,0,0,1-.72-.1,1.79,1.79,0,0,0-.94.52C31,32.71,31.42,32.75,31.69,32.66Z"/><path class="cls-37" d="M31,32.54l-4.45-1.27c.65-1.32,2-4.12,2.31-5.12A1.49,1.49,0,0,0,28,24.1c-1-.3-1.54.76-1.74,1.16a61.66,61.66,0,0,0-2.53,6.47c-.25.92,1.12,1.51,1.38,1.56a51.37,51.37,0,0,0,5.51.58s.49-.14.58-.51A.8.8,0,0,0,31,32.54Z"/><path class="cls-38" d="M28.13,28.19A22.05,22.05,0,0,0,29,26.13c.18-.56.3-1.8-.83-2.13s-1.72.84-1.92,1.24-.53,1.27-.78,1.84a3.6,3.6,0,0,0,1,.67C27.76,28.31,28.13,28.19,28.13,28.19Z"/><path class="cls-39" d="M39.41,43.48a1.41,1.41,0,0,0,.83-.39c.39-.38.43-.57.7-.79s1-.87,1.15-1a1.43,1.43,0,0,0,.35-1.13c-.11-.73-.55-.57-.92-.41a5.19,5.19,0,0,0-.77.57,2,2,0,0,1-.82.33c-.15,0,0,.74,0,.74.05.37-.5.92-.88.79s-.63-.28-.57,0C38.64,42.85,38.72,43.5,39.41,43.48Z"/><path class="cls-18" d="M42.09,39.53c-.21-.15-.44,0-.68.15a6.72,6.72,0,0,1-.72.43,5.79,5.79,0,0,1-.82.31c-.15,0,0,.67,0,.67a.43.43,0,0,1,0,.16.78.78,0,0,1-.12.25,1.07,1.07,0,0,1-.21.22.88.88,0,0,1-.27.15.48.48,0,0,1-.28,0c-.25-.09-.63-.28-.57,0l.08.38a3.41,3.41,0,0,0,.09.35c.06.18.1.25.18.28a1.51,1.51,0,0,0,.41,0,1.23,1.23,0,0,0,.8-.32c.08-.08.34.09.39,0a3.69,3.69,0,0,1,.49-.56c.16-.13.24-.18.39-.32l.17-.16c.31-.31.19-.67.24-.72a1.55,1.55,0,0,0,.48-.73.64.64,0,0,0,0-.5Z"/><path class="cls-39" d="M42.87,46.59a1.41,1.41,0,0,0,.83-.38c.39-.38.43-.57.7-.78s1-.87,1.16-1a1.43,1.43,0,0,0,.35-1.13c-.11-.73-.72-.65-1.1-.49-.22.09-.35.45-.6.64a2,2,0,0,1-.82.33c-.15,0,0,.74,0,.74.05.37-.5.92-.89.79s-.63-.28-.57,0C42.09,46,42.17,46.61,42.87,46.59Z"/><path class="cls-18" d="M45.56,42.66a.81.81,0,0,0-.82-.17c-.22.09-.35.45-.6.64a2,2,0,0,1-.82.33c-.15,0,0,.74,0,.74a.43.43,0,0,1,0,.16.78.78,0,0,1-.12.25,1.07,1.07,0,0,1-.21.22.89.89,0,0,1-.27.15.48.48,0,0,1-.28,0,2,2,0,0,0-.48-.15h-.06s0,.06,0,.13a6.64,6.64,0,0,0,.16.73c.12.36.15.3.59.29a1.24,1.24,0,0,0,.8-.32c.08-.08.34.09.39,0a3.7,3.7,0,0,1,.49-.56,5,5,0,0,0,.56-.48c.31-.31.2-.67.25-.72a1.53,1.53,0,0,0,.35-.44,1.81,1.81,0,0,0,.14-.29.92.92,0,0,0,0-.29.34.34,0,0,0,0-.2Z"/><path class="cls-40" d="M40.81,40a29.07,29.07,0,0,1-2.13-3.65c-.35-.7-.95-1.68-.95-1.68s-.87-1-1.71-.28l-7.74,3.71a9.22,9.22,0,0,0-.36,2.29c.37,1.81,2.67,1.94,2.67,1.94a19.42,19.42,0,0,0,2-.75,22.47,22.47,0,0,0,3.65-3.2,18.41,18.41,0,0,1,1.68,2.71c.44,1,.56,1.36,1.12,1.26C40.1,42.17,41.05,40.34,40.81,40Z"/><path class="cls-41" d="M44.3,43.68a28.29,28.29,0,0,1-2.7-3.75l-.91-1.36-.09-.09a1.84,1.84,0,0,0-1.39-.58h-.07a2.81,2.81,0,0,0-.64,0l-.05,0-3.14.26c-.87.08-3.77.24-3.77.24s-.53.15-.52.63c.08,2.79,1.36,3.75,1.36,3.75s3.7-1,6.16-1.6l.08.19c.72,1.44,2.53,2.78,3.27,4.24.23.47.3.91,1.46.06C43.7,45.47,44.59,44,44.3,43.68Z"/><path class="cls-40" d="M30.86,37.17l-3-.44s-.24,1.46-.26,1.66a5.5,5.5,0,0,0,.6,2.62c.53.75.91.63,1.62-.13A6.63,6.63,0,0,1,30.86,37.17Z"/><path class="cls-41" d="M34.84,38.63a3.19,3.19,0,0,0-.08-.66L30,37.15c-.45,1.91-.69,3.91,0,4.58,0,0,.41,1.29,2.32,1.12.69-.06,1-1.13,2-2.37a2,2,0,0,0,.35-.62C34.77,39.71,34.83,39.06,34.84,38.63Z"/><path class="cls-42" d="M34.84,30.39c0,1.15-.59,5.6-.21,8,0,.15-.49,1.19-1,1.3a9.18,9.18,0,0,1-3.74.08,4.16,4.16,0,0,1-1.68-.68,1.28,1.28,0,0,1-.6-1.13,27.42,27.42,0,0,0-.12-4.8c-.07-.3-.86-3.43-1-4.25a10.4,10.4,0,0,1-.08-3.44c.16-.73,1.06-1.55,1.74-1.45a5.31,5.31,0,0,1,.55.19c.77.32,2.25.93,2.82,1.26.15.08.37.24.62.41.61.43,2.34,1.74,2.34,1.74.43.4.35,1,.44,2C34.89,29.54,34.86,29.51,34.84,30.39Z"/><path class="cls-41" d="M34.93,32a60.38,60.38,0,0,0-.09,6.59A2.23,2.23,0,0,1,33.7,39.8a10,10,0,0,1-3.84.2,3.88,3.88,0,0,1-1.63-.84c-.47-.33-.68-.52-.69-1a29.51,29.51,0,0,0-.06-5.06c-.07-.3-.86-3.1-.82-3.37A6,6,0,0,0,27,28.25s-.27-3.06,1.44-4.12c.16-.1.83.3.83.3-1.77,1.27-1.2,3.28-.9,3.41.11,0,1.35.49,1.86.64a.49.49,0,0,0,.56-.23,4.1,4.1,0,0,1,1.92-2c.18-.07.74.55.74.55-2.28,1.48-1.88,2.78-1.88,2.78C31.79,33.05,35,31.16,34.93,32Z"/><path class="cls-37" d="M45.3,30.31a2.37,2.37,0,0,0,.34-.51c.07-.17-.09-.31-.21-.2s-.24.35-.32.42-.43.36-.41.27.31-.25.43-.39a3.6,3.6,0,0,0,.37-.64c.07-.18-.11-.37-.25-.24s-.29.49-.41.59-.37.33-.41.29.34-.34.4-.43.24-.23.25-.33,0-.23-.13-.23-.34.22-.51.39a2.16,2.16,0,0,1-.88.45c0-.1,0-.21.11-.24a2.31,2.31,0,0,0,.3-.2.34.34,0,0,0,.18-.24c0-.1,0-.18-.13-.1a5.4,5.4,0,0,1-.66.21,2.09,2.09,0,0,0-.65,1,1.16,1.16,0,0,0-.14.23L38,32.09c-.53-.81-1.64-2.51-2.2-3.39-.88-1.39-2-1.14-2.3-.88-.86.66-.29,2-.06,2.38a19,19,0,0,0,3.17,3.92,1.19,1.19,0,0,0,.19.17,1.88,1.88,0,0,0,1.53.18,40.12,40.12,0,0,0,4.87-2.86,2.19,2.19,0,0,0,.41,0,3.26,3.26,0,0,0,1.14-.45,4.13,4.13,0,0,0,.6-.41,2.34,2.34,0,0,0,.22-.31.13.13,0,0,0-.15-.18c-.09,0-.17.24-.22.27s-.33.25-.31.16S45.19,30.43,45.3,30.31Z"/><path class="cls-38" d="M36.61,29.74c-.28-.44-.62-.88-.81-1.18-.88-1.39-2-1.1-2.34-.84-.86.66-.33,2-.09,2.43s.49.89.73,1.23a3,3,0,0,0,1.12-.49A8.16,8.16,0,0,0,36.61,29.74Z"/><path class="cls-43" d="M29.41,23.11l0,2.57a.6.6,0,0,0,.36.49,1.9,1.9,0,0,0,1.72,0,.6.6,0,0,0,.35-.5l0-2.57Z"/><path class="cls-44" d="M33.37,21.18A3.14,3.14,0,0,0,33.2,19c-.61-.28-2.25,1.75-2.39,2.38a1.85,1.85,0,0,0,.07,1.1c.05.15.53.66.68.89a2.56,2.56,0,0,1,.2,1c0,.2,0,.42,0,.42a.47.47,0,0,0,.47-.06,5,5,0,0,0,.78-1A4.15,4.15,0,0,0,33.52,22,7.87,7.87,0,0,0,33.37,21.18Z"/><path class="cls-45" d="M32.3,22.22a1.51,1.51,0,0,0,.25.5c.11.13.07.32.2.3.28,0,.14-.71.17-1s-.09-.64-.31-.46A.67.67,0,0,0,32.3,22.22Z"/><path class="cls-18" d="M33.2,18.82a2,2,0,0,0-.85-.64,2.76,2.76,0,0,0-2.55.09,4.93,4.93,0,0,0-1.28.9,3,3,0,0,0-.66,1.38,7.82,7.82,0,0,0-.06,1,3.79,3.79,0,0,0,.31,1.29,3.13,3.13,0,0,0,.53.91,3.8,3.8,0,0,0,.42.41,1.8,1.8,0,0,0,1.19.59A1.53,1.53,0,0,0,31.8,24a5.85,5.85,0,0,1,.49-2,1,1,0,0,1,.35-.44c.13-.08.2,0,.25.16a.57.57,0,0,0,.23.18l.11.05s0-.71,0-.75a1.42,1.42,0,0,1,.06-.88c.06-.19.13-.35.18-.57A1.52,1.52,0,0,0,33.2,18.82Z"/><path class="cls-38" d="M32.34,26s-2.87,1.09-3.27-.36a.76.76,0,0,1,.35-.88,1,1,0,0,0,.92.66,3.89,3.89,0,0,0,1.53-.21Z"/><g class="cls-1"><path class="cls-17" d="M29.92,41.17,30,46.64l4.06-2-1.49.08a1,1,0,0,1-1.07-1V40.47Z"/><path class="cls-46" d="M29.52,37l-3.61-2.08a1.43,1.43,0,0,0-1.45-.14L23,35.61c.37-.21.79,0,1.36.3L28,38a4.3,4.3,0,0,1,2,3.44l1.59-.93A4.46,4.46,0,0,0,29.52,37Z"/><path class="cls-18" d="M28,37.83l-3.61-2.08c-1.12-.65-2-.13-2,1.16l0,5.31L30,46.64l0-5.31A4.46,4.46,0,0,0,28,37.83Z"/></g><ellipse class="cls-6" cx="49.35" cy="44.88" rx="0.61" ry="0.36"/><path class="cls-47" d="M49.35,45.08h-.1a.42.42,0,0,1-.31-.51l2.38-9.88c.35-1.53-.42-1.81-.67-1.9l-.82-.28a.42.42,0,1,1,.25-.81c.3.09.63.21.86.3.64.24,1.65.92,1.2,2.89l-2.39,9.88A.42.42,0,0,1,49.35,45.08Z"/><path class="cls-18" d="M51,31.68A1,1,0,0,1,49.75,33a.87.87,0,0,1-.45-.45,1,1,0,0,1,1.28-1.28A.86.86,0,0,1,51,31.68Z"/><g class="cls-1"><path class="cls-18" d="M56.81,25.24a3.49,3.49,0,0,0-1.38-3l-1.75-.7A3.07,3.07,0,0,1,55,24.32l0,21.75,1.55.9Z"/><path class="cls-21" d="M54.43,20.38c-1.17-.68-2.88-.55-4.78.55L32.09,31l1.55.9L51.2,21.83c1.9-1.1,3.61-1.23,4.78-.55Z"/><polygon class="cls-18" points="34.01 32.1 32.09 31.01 32.12 53.65 33.67 54.54 34.01 32.1"/><path class="cls-17" d="M57.57,24.64c0-3.58-2.85-4.84-6.37-2.81L33.64,31.91l0,22.64,1-.58,0-21.61,16.56-9.5c3-1.71,5.36-.65,5.36,2.37l0,21.75,1-.58Z"/></g><path class="cls-4" d="M37.19,15.83a.64.64,0,0,1-.42-1.11c.11-.1,2.84-2.47,5.69-1.19a.64.64,0,1,1-.52,1.16c-2.11-1-4.31,1-4.33,1A.63.63,0,0,1,37.19,15.83Z"/><path class="cls-4" d="M43.24,19.3a.64.64,0,0,1-.42-1.11c.12-.1,2.84-2.47,5.69-1.19A.64.64,0,0,1,48,18.17c-2.11-1-4.3,1-4.33,1A.63.63,0,0,1,43.24,19.3Z"/><polygon class="cls-21" points="33.64 31.91 13.3 20.08 29.57 10.74 49.79 22.54 33.64 31.91"/><polygon class="cls-18" points="33.64 33.91 13.3 22.08 13.3 20.08 33.64 31.91 33.64 33.91"/><g class="cls-1"><path class="cls-48" d="M17.74,23.07a.28.28,0,0,0-.28,0l-.64.37a.28.28,0,0,1,.28,0l2.55,1.47.64-.37Z"/><path class="cls-49" d="M20.29,24.54l-.64.37a.88.88,0,0,1,.4.69v.49a.28.28,0,0,1-.12.26l.64-.37a.28.28,0,0,0,.12-.26v-.49A.88.88,0,0,0,20.29,24.54Z"/><path class="cls-50" d="M19.65,24.91,17.1,23.44c-.22-.13-.4,0-.4.23v.49a.88.88,0,0,0,.4.69l2.55,1.47c.22.13.4,0,.4-.23v-.49A.88.88,0,0,0,19.65,24.91Z"/></g><g class="cls-1"><path class="cls-48" d="M27.45,28.69a.28.28,0,0,0-.28,0l-.64.37a.28.28,0,0,1,.28,0l2.55,1.47.64-.37Z"/><path class="cls-51" d="M30,30.16l-.64.37a.88.88,0,0,1,.4.69v.49a.28.28,0,0,1-.12.26l.64-.37a.28.28,0,0,0,.12-.26v-.49A.88.88,0,0,0,30,30.16Z"/><path class="cls-50" d="M29.36,30.53l-2.55-1.47c-.22-.13-.4,0-.4.23v.49a.88.88,0,0,0,.4.69l2.55,1.47c.22.13.4,0,.4-.23v-.49A.88.88,0,0,0,29.36,30.53Z"/></g><path class="cls-4" d="M40.68,21.92a1.15,1.15,0,0,1,0,2.17,4.16,4.16,0,0,1-3.76,0,1.15,1.15,0,0,1,0-2.17A4.15,4.15,0,0,1,40.68,21.92Z"/><path class="cls-19" d="M41.27,22.6l-1-3.85h-3l-.91,3.63c-.21.48,0,1,.64,1.38a3.89,3.89,0,0,0,3.52,0A1.15,1.15,0,0,0,41.27,22.6Z"/><path class="cls-30" d="M38.8,23.76a3.19,3.19,0,0,1-1.55-.36c-.2-.12-.65-.43-.46-.84,0,0,.85-3.38.85-3.38H40l.89,3.52c0,.22-.14.48-.5.69A3.2,3.2,0,0,1,38.8,23.76Z"/><path class="cls-52" d="M38.8,22.49a2.34,2.34,0,0,1-.65-.09s.09-1.64.49-1.95a.39.39,0,0,1,.34,0c.4.31.49,1.95.49,1.95A2.33,2.33,0,0,1,38.8,22.49Z"/><path class="cls-30" d="M39.86,18.14a.64.64,0,0,1,0,1.22,2.33,2.33,0,0,1-2.11,0,.64.64,0,0,1,0-1.22A2.33,2.33,0,0,1,39.86,18.14Z"/><path class="cls-52" d="M39.71,18.23a.55.55,0,0,1,0,1,2,2,0,0,1-1.81,0,.55.55,0,0,1,0-1A2,2,0,0,1,39.71,18.23Z"/></g></g></g></g></svg>