<svg xmlns="http://www.w3.org/2000/svg" xmlns:xlink="http://www.w3.org/1999/xlink" viewBox="0 0 28.34 46.25"><defs><style>.cls-1{isolation:isolate;}.cls-10,.cls-2{fill:#e4ecf5;}.cls-2{mix-blend-mode:multiply;}.cls-3{fill:#f5c59a;}.cls-4{fill:#0d0d0d;}.cls-5{fill:#151b21;}.cls-6{fill:#fcd1a9;}.cls-7{fill:#25303b;}.cls-8{fill:#3a4a5d;}.cls-9{fill:#fff;}.cls-11{fill:#b8cbe0;}.cls-12{fill:#87a7c7;}.cls-13{fill:#ba3e2f;}.cls-14{fill:#ff624d;}.cls-15{fill:#de4d3a;}.cls-16{fill:url(#linear-gradient);}.cls-17{fill:#87450f;}.cls-18{fill:#ebad77;}.cls-19{fill:#45596e;}.cls-20{fill:#5c7a99;}</style><linearGradient id="linear-gradient" x1="-1171.25" y1="55.88" x2="-1173.86" y2="51.99" gradientTransform="translate(1192.48 -39.45) rotate(0.44)" gradientUnits="userSpaceOnUse"><stop offset="0.07" stop-color="#fcd1a9"/><stop offset="0.13" stop-color="#facba1"/><stop offset="0.31" stop-color="#f4bb8c"/><stop offset="0.43" stop-color="#f2b585"/></linearGradient></defs><title>i7</title><g class="cls-1"><g id="Слой_2" data-name="Слой 2"><g id="_лой_1" data-name="—лой_1"><g id="male_with_tablet" data-name="male with tablet"><path class="cls-2" d="M9.56,45.29c0,1.22,4.26.93,8.82.93s9.95-.61,9.95-1.83-6.12-.35-10.51-1.6C10,40.55,9.56,44.07,9.56,45.29Z"/><path class="cls-3" d="M15.48,43.82c0,.48-.42.54-.66.61a8,8,0,0,0-1.46.4,6.35,6.35,0,0,1-1.71.83c-.66.22-1.18,0-1.14-.53s.6-.57,1-.85A10.83,10.83,0,0,0,13,43.21a3.61,3.61,0,0,0,.79-1.36c.44-.48,1.68-.37,1.66.3S15.52,43.33,15.48,43.82Z"/><path class="cls-4" d="M15.54,43.92c0,.31-.14.75-.41.82a11.4,11.4,0,0,0-1.75.35,6.58,6.58,0,0,1-1.79.73c-.68.21-1.2-.08-1.15-.57s.34-.44.7-.76,1.12-.66,1.56-1a5.82,5.82,0,0,0,.46-.43c.33-.34.63,0,.87.29a1.23,1.23,0,0,0,1-.19c.17-.18.35-.31.39-.19A4.84,4.84,0,0,1,15.54,43.92Z"/><path class="cls-5" d="M11.44,44.22a5.48,5.48,0,0,0,1.33-.94,6.36,6.36,0,0,0,.38-.76c.21-.39.77.23.94.45a1.61,1.61,0,0,0,.94-.34c.18-.16.43-.42.54-.21a5.12,5.12,0,0,1,0,1.43c-.07.51-.45.52-.7.58l-.21.05a10.32,10.32,0,0,0-1.26.34,8,8,0,0,1-1.77.7c-.63.14-1.18.13-1.12-.6C10.5,44.56,11.07,44.46,11.44,44.22Z"/><path class="cls-6" d="M25.62,42.59c-.05.45-.23,1.05-.22,1.39s0,.16-.13.29c-.2.31-.3.64-.61.77s-.48.36-.82.14A1.11,1.11,0,0,1,23.4,44a10.13,10.13,0,0,1,.33-1.81,3.13,3.13,0,0,0,.42-1.24c.36-.36,1.48-.27,1.46.28S25.68,42.14,25.62,42.59Z"/><path class="cls-4" d="M25.65,42.86c0,.39,0,.76,0,.93a2.24,2.24,0,0,1-.42,1.27c-.67.79-1.77.8-2.1.12-.15-.3.08-.84.23-1.24s.44-1.62.47-1.76c.34-1.29,1.73-1.65,1.9-.42A4.79,4.79,0,0,1,25.65,42.86Z"/><path class="cls-5" d="M23.1,44.44l0-.08a2.38,2.38,0,0,1,.12-.29,10.05,10.05,0,0,0,.39-2.23c.19-.71.64-.91,1.39-.55,0,0,.45.21.55.28s.07-.21.1-.06a2.76,2.76,0,0,1,0,.67c0,.26-.07.73-.07,1a4.92,4.92,0,0,1-.23,1.19,1.77,1.77,0,0,1-.6.84,1.24,1.24,0,0,1-1.6-.16A.79.79,0,0,1,23.1,44.44Z"/><path class="cls-7" d="M20.7,22.6c-.56-.25-2.49-.92-2.82-1.06a10.46,10.46,0,0,0-2.45-.94,28.28,28.28,0,0,0-1.23,5c-.26,1.38-.69,4.12-.8,5.62a1.39,1.39,0,0,0,0,.33c0,.14,0,.27,0,.38a.87.87,0,0,0,0,.25c0,.34.05.77.09,1.32.08,1.21-.74,7.54-1.08,9.74,0,.32,1.18.3,2.44,0a1.14,1.14,0,0,0,1-.88,75.38,75.38,0,0,0,.82-8.15,9,9,0,0,0-.32-2.3,8.23,8.23,0,0,0,.46-.86C17.76,29.11,19.69,25,20.7,22.6Z"/><path class="cls-8" d="M25.76,40.75c-.88-2.39-.76-5.21-1.42-7.67a10.85,10.85,0,0,0-1.15-2.31c.19-1.62.11-6.39.21-8.32a1.48,1.48,0,0,0-1.47-.34,21.49,21.49,0,0,0-3.84,1c.34,1.32,2.12,8.25,2.36,8.64a13,13,0,0,0,.62,1.64c.46,1.12,1.49,7.39,2.21,9.51.11.31,1.11,0,1.68-.5C25.34,42.08,26,41.37,25.76,40.75Z"/><path class="cls-6" d="M7.26,13.74a.91.91,0,0,1-.8.32,3.1,3.1,0,0,1-1.17-.18c-.06,0-.65-.28-.78-.34s-.26,0-.35-.14,0-.22.12-.21a1.92,1.92,0,0,1,.34.1c.06,0,.38.19.33.1s-.33-.22-.47-.3S4,13,3.91,12.82s0-.29.18-.24.43.14.52.19.5.29.48.19-.34-.22-.5-.32a7.33,7.33,0,0,1-.68-.35c-.17-.14,0-.34.2-.26s.57.22.71.28.43.27.46.22-.39-.3-.48-.37-.32-.13-.36-.23-.07-.23.1-.25a1.15,1.15,0,0,1,.59.19c.22.11.8.27,1,.36a2.41,2.41,0,0,1,1.13.91C7.46,13.47,7.42,13.49,7.26,13.74Z"/><g class="cls-1"><path class="cls-7" d="M.13,8.72l4-2.3a.17.17,0,0,1,.1,0h.13a.17.17,0,0,0-.1,0l-4,2.3a.32.32,0,0,0-.12.36l2.2,7.07a.21.21,0,0,0,.17.16H2.39a.21.21,0,0,1-.17-.16L0,9.08A.32.32,0,0,1,.13,8.72Z"/><path class="cls-8" d="M.26,8.73l4-2.3a.19.19,0,0,1,.27.14l2.2,7.07A.32.32,0,0,1,6.6,14l-4,2.3a.19.19,0,0,1-.27-.14L.14,9.09A.32.32,0,0,1,.26,8.73Z"/><polygon class="cls-9" points="0.4 9.63 2.4 15.97 6.57 13.58 4.57 7.24 0.4 9.63"/><polygon class="cls-10" points="1.98 9.57 2.06 9.78 3.86 8.75 3.78 8.54 1.98 9.57"/><polygon class="cls-10" points="1.18 10.69 1.26 10.9 4.79 8.88 4.71 8.67 1.18 10.69"/><polygon class="cls-10" points="1.35 11.24 1.43 11.45 4.96 9.43 4.88 9.22 1.35 11.24"/><polygon class="cls-10" points="1.52 11.79 1.6 12 5.12 9.98 5.04 9.77 1.52 11.79"/><polygon class="cls-10" points="1.68 12.34 1.76 12.55 5.29 10.53 5.21 10.32 1.68 12.34"/><polygon class="cls-10" points="1.85 12.89 1.93 13.1 5.46 11.08 5.38 10.87 1.85 12.89"/><polygon class="cls-10" points="3.39 12.66 3.47 12.87 5.63 11.63 5.55 11.42 3.39 12.66"/><polygon class="cls-10" points="2.35 14.54 2.44 14.75 3.43 14.16 3.35 13.95 2.35 14.54"/></g><path class="cls-2" d="M1,9.42c0,.11.19,0,.19,0L4.4,7.66s0-.19-.12-.21H4.21Z"/><path class="cls-11" d="M1,9.42,4.21,7.66s0-.18-.12-.21a2.38,2.38,0,0,0-1.17.13A.63.63,0,0,0,2,7.34a.79.79,0,0,0-.38,1A1.9,1.9,0,0,0,1,9.12.53.53,0,0,0,1,9.42ZM2.59,7.51c0,.07-.09.2-.29.31s-.39.14-.43.07.09-.2.3-.32S2.55,7.45,2.59,7.51Z"/><path class="cls-12" d="M1.66,8.86A6.64,6.64,0,0,1,4.21,7.66L1,9.42Z"/><path class="cls-6" d="M6.57,13.21c-.11-.11-.31-.79-.46-.91s-.21-.12-.3-.21a.32.32,0,0,1-.13-.27c0-.11,0-.23.19-.13s.5.26.69.35a2.86,2.86,0,0,1,.67.66C7.41,13.26,7,13.64,6.57,13.21Z"/><path class="cls-6" d="M15.05,15.29a24.52,24.52,0,0,0,2.08-6.8c.09-1.25-.67-1.45-1.45-1.4-.59,0-1.07.85-1.3,1.37a22.13,22.13,0,0,0-1.57,5c-1.58-.33-3.88-.39-5.56-.68-.35.19-.33.35-.43.72a1,1,0,0,0-.06.52c1.8.76,4.24,1.86,5.92,2.39A1.94,1.94,0,0,0,15,15.31Z"/><path class="cls-13" d="M13.56,10.24c.21-.61.48-1.26.74-1.86S15.09,7.05,15.68,7c.78-.05,1.62.22,1.53,1.47a13.13,13.13,0,0,1-.55,3A10.84,10.84,0,0,1,15,10.95,4.4,4.4,0,0,1,13.56,10.24Z"/><path class="cls-7" d="M18.09,19.32l-2.36-.39a6.57,6.57,0,0,0-.12.71c0,.34-.17.72-.08,1,.27.84,1.2,1.32,1.7,2a1.08,1.08,0,0,0,.79.5A13.18,13.18,0,0,1,18.09,19.32Z"/><path class="cls-8" d="M23.28,21.18a4.91,4.91,0,0,0-.4-1.43l-5.31-.51c.21,1.26-.27,2.83.59,4,.22.29,1.74,0,2.31-.22a11.6,11.6,0,0,1,1.78-.46c.24,0,1.08.28,1.09.24A3.9,3.9,0,0,0,23.28,21.18Z"/><path class="cls-14" d="M23.41,21.59c0,.27-.74.49-1.16.63a11,11,0,0,1-4.16.09,3.83,3.83,0,0,1-2.59-1.19c-.51-.68,0-1.45.08-2.11a17.77,17.77,0,0,0-.09-3.37c0-.32-.17-1.56-.26-2.06a23.7,23.7,0,0,1-.37-2.71,12.45,12.45,0,0,1,.06-2.66c.15-.8.38-1.31,1.24-1.34a13.33,13.33,0,0,1,4.35.57A16.91,16.91,0,0,1,23.71,9c.94.58.39,1.12.31,2.12,0,.23-.14.52-.29,1.19C23.14,15,23.33,18.63,23.41,21.59Z"/><path class="cls-15" d="M15.74,12.72l.61.08a.4.4,0,0,0,.43-.44l.13-1.44-1.59-.25v1.49A.55.55,0,0,0,15.74,12.72Z"/><path class="cls-16" d="M18.06,3.73C18.05,5,18,6.18,18,7.41c0,.25.13.39.38.53a2,2,0,0,0,1.78,0,.6.6,0,0,0,.39-.52c.14-1.28.29-2.56.48-3.83Z"/><path class="cls-13" d="M18.07,7.07a5.93,5.93,0,0,0,.34.74c.07.08,0,.23-.07.49-.15-.94-1.12.09-1.12.09s-.1-1.14.29-1.47C17.65,6.79,18.07,7.07,18.07,7.07Z"/><path class="cls-6" d="M22.22,3.33c-.36.71-1.34,1-1.77,1.48s-.36.85-.58,1.18a1.53,1.53,0,0,1-.53.54,4.5,4.5,0,0,1-1,.46,1.74,1.74,0,0,1-.78.09A.84.84,0,0,1,17,6.82c-.11-.12,0,0-.12-.15a.75.75,0,0,1-.15-.33c0-.19-.13-.67-.17-.88a6.33,6.33,0,0,1-.05-1.27,8.88,8.88,0,0,1,.18-1,8.88,8.88,0,0,1,.2-1.56A1.63,1.63,0,0,1,18,.59,5.24,5.24,0,0,1,20.15.15,2.24,2.24,0,0,1,21.79,1a3,3,0,0,1,.48,2A1.11,1.11,0,0,1,22.22,3.33Z"/><polygon class="cls-13" points="18.12 9.98 18.68 10.1 19.02 8.08 18.39 7.94 18.12 9.98"/><circle class="cls-15" cx="18.51" cy="9.32" r="0.1"/><circle class="cls-15" cx="18.67" cy="8.49" r="0.1"/><path class="cls-13" d="M20.63,6.76a6.46,6.46,0,0,1-1.5,1.17c-.2.1-.21.76-.21.76s.38-.62.51-.53a1.44,1.44,0,0,1,.7.83c0,.18.59-.56.78-1.1A3.81,3.81,0,0,0,20.63,6.76Z"/><path class="cls-7" d="M20.88,5.75s-.21.11-.2-.07,0-.43,0-.57c.06-.32.22-.83.07-1.07s-.41,0-.49.16-.16.45-.22.54-.23-.06-.29-.15a.65.65,0,0,1,0-.46c.05-.16-.12-.35-.16-.52v0c0-.09.08-.14.1-.22s.1-.25-.05-.25a5.53,5.53,0,0,1-.6.07,3.55,3.55,0,0,1-2.23-.89,1.05,1.05,0,0,1,0-.84A2.92,2.92,0,0,1,19.89.06C21.36.42,22.45,1.15,22.38,3,22.37,3.27,21.69,5.44,20.88,5.75Z"/><path class="cls-17" d="M21.51,1.76l-.3-.24c.3-.07.35-.28.68-.1a1.55,1.55,0,0,0-.52-.79,2.16,2.16,0,0,0-1.2-.48h-.05a4.24,4.24,0,0,0-1.68.36l-.57.25s.5,0,.43,0a2.82,2.82,0,0,0-1.41.83,3.82,3.82,0,0,1,1,.52c.21.16-.22.06-.22.09a1.87,1.87,0,0,0,1.8.07,5.25,5.25,0,0,1,.73-.17L19.51,2c.17,0,.66-.11.76-.14A2,2,0,0,1,21.51,1.76Z"/><path class="cls-18" d="M20.29,4.47a1.57,1.57,0,0,1-.2.62c-.1.21.08.43.27.35a1.28,1.28,0,0,0,.73-1.07.53.53,0,0,0-.62-.6C20.14,3.81,20.3,4.24,20.29,4.47Z"/><path class="cls-6" d="M20.23,4.39a1.45,1.45,0,0,1-.12.62c-.1.21.08.43.27.35a1.27,1.27,0,0,0,.73-1.07.54.54,0,0,0-.62-.6C20.16,3.73,20.24,4.17,20.23,4.39Z"/><path class="cls-18" d="M20.9,4.33a.55.55,0,0,0-.24-.39c-.11-.09-.19.13-.23.15s0-.14,0-.17,0-.16.2-.09a.59.59,0,0,1,.31.57,1,1,0,0,1-.39.56A1.18,1.18,0,0,0,20.9,4.33Z"/><path class="cls-18" d="M20.47,4.51c0,.06-.16.23-.07.25s.26-.2.26-.31-.16-.23-.22-.17S20.49,4.46,20.47,4.51Z"/><path class="cls-14" d="M16.38,3.41a9,9,0,0,0,1.36.5,2,2,0,0,0,1.82-.16l.51-.3A4.87,4.87,0,0,0,19,2.56a3.23,3.23,0,0,0-2.4-.4L16,2.48C15.18,3.11,15.93,3.19,16.38,3.41Z"/><path class="cls-13" d="M21.1.4A5.43,5.43,0,0,0,17.36.33l2.71,3.11s2,.37,2.22,0A2.67,2.67,0,0,0,21.1.4Z"/><path class="cls-15" d="M19.71.7C18.33,0,17,0,16.73,1.11a7.49,7.49,0,0,0-.11,1,4,4,0,0,1,1.18.33,21.56,21.56,0,0,1,2.27,1l.22-.76C20.42,2,20.61,1.17,19.71.7Z"/><ellipse class="cls-14" cx="20.24" cy="0.15" rx="0.21" ry="0.09"/><path class="cls-6" d="M26.52,15.45a31.42,31.42,0,0,0-2.11-5.86c-.16-.41-1-1-1.5-.75-.88.55-.94,2.51-.77,3a25.1,25.1,0,0,0,1.62,3.94c-1.56.85-3.26,1.91-4.83,2.68a1.12,1.12,0,0,0-.33-.09,2,2,0,0,0-.93-.2c-.25,0-.57.1-.78.09s-.13.12-.09.21a.33.33,0,0,0,.25.15c.11,0,.21,0,.36,0a.73.73,0,0,1,.22.09,2.38,2.38,0,0,1-.82.14c-.24,0-.52-.09-.65,0s0,.19,0,.27.3.06.41.1.59,0,.6.08-.35,0-.51,0-.51-.18-.7-.19-.21.26,0,.35a3.64,3.64,0,0,0,.7.26c.18,0,.52,0,.58,0s-.4.06-.5.05-.36-.12-.52-.13-.2.21,0,.29a2.39,2.39,0,0,0,.6.17c.17,0,.48,0,.56,0s-.29.07-.34.08-.25-.1-.34-.07a.13.13,0,0,0,0,.24,2.37,2.37,0,0,0,.38.1,4.18,4.18,0,0,0,.73-.07A3.3,3.3,0,0,0,19,20.16l.17-.12c1.73-.58,5-1.6,6.38-2A1.85,1.85,0,0,0,26.52,15.45Z"/><path class="cls-15" d="M22.49,13.14c-.14-.38-.28-.86-.43-1.32s-.1-2.51.78-3.05c.47-.29,1.5.39,1.66.8.34.84.64,1.56.93,2.24,0,0-.15.48-1,.87A5.78,5.78,0,0,1,22.49,13.14Z"/><polygon class="cls-7" points="15.11 18.41 15.43 18.53 15.45 18.45 15.11 18.41"/><path class="cls-8" d="M15.39,18.5a.13.13,0,0,0,.09.14l2.07.59.89.25a.23.23,0,0,0,.29-.17.24.24,0,0,0-.17-.3l-.94-.19-2.1-.42A.12.12,0,0,0,15.39,18.5Z"/><path class="cls-19" d="M15.39,18.5a.13.13,0,0,0,.09.14l2.07.59c.07,0-.07-.14.08-.4l-2.1-.42A.12.12,0,0,0,15.39,18.5Z"/><path class="cls-20" d="M18,19.6a.18.18,0,0,0,.11,0,.31.31,0,0,0,.1-.18.07.07,0,0,0-.06-.09s-.08,0-.09.06a.16.16,0,0,1,0,.09,1.48,1.48,0,0,1-.45-.12.38.38,0,0,0-.25,0,.17.17,0,0,0-.1.09.07.07,0,0,0,0,.1.07.07,0,0,0,.1,0,.18.18,0,0,1,.16,0A1.58,1.58,0,0,0,18,19.6Z"/></g></g></g></g></svg>