<svg xmlns="http://www.w3.org/2000/svg" xmlns:xlink="http://www.w3.org/1999/xlink" viewBox="0 0 169.06 105.98"><defs><style>.cls-1{isolation:isolate;}.cls-105,.cls-2{mix-blend-mode:multiply;}.cls-2{fill:url(#Ѕезым_нный_градиент_2);}.cls-3{fill:#b2b2b2;}.cls-4{fill:#888;}.cls-5{fill:#5a5c54;}.cls-6{fill:url(#Ѕезым_нный_градиент_35);}.cls-7{fill:#424852;}.cls-8{fill:url(#Ѕезым_нный_градиент_35-2);}.cls-9{fill:url(#Ѕезым_нный_градиент_40);}.cls-10{fill:#d7d9db;}.cls-11{fill:url(#Ѕезым_нный_градиент_34);}.cls-12{fill:#e3e5e6;}.cls-13{fill:url(#Ѕезым_нный_градиент_34-2);}.cls-14{fill:#d9dbdd;}.cls-15{fill:url(#Ѕезым_нный_градиент_34-3);}.cls-16{fill:url(#Ѕезым_нный_градиент_35-3);}.cls-17{fill:url(#Ѕезым_нный_градиент_35-4);}.cls-18{fill:url(#Ѕезым_нный_градиент_40-2);}.cls-19{fill:url(#Ѕезым_нный_градиент_34-4);}.cls-20{fill:url(#Ѕезым_нный_градиент_34-5);}.cls-21{fill:url(#Ѕезым_нный_градиент_34-6);}.cls-22{fill:#725986;}.cls-23{fill:#add1b9;}.cls-24{fill:#878787;}.cls-25{fill:#747474;}.cls-26{fill:#a4a4a4;}.cls-27{fill:#4f4f4f;}.cls-28{fill:url(#Ѕезым_нный_градиент_35-5);}.cls-29{fill:url(#Ѕезым_нный_градиент_35-6);}.cls-30{fill:url(#Ѕезым_нный_градиент_40-3);}.cls-31{fill:url(#Ѕезым_нный_градиент_34-7);}.cls-32{fill:url(#Ѕезым_нный_градиент_4);}.cls-33{fill:url(#Ѕезым_нный_градиент_34-8);}.cls-34{fill:url(#Ѕезым_нный_градиент_35-7);}.cls-35{fill:url(#Ѕезым_нный_градиент_35-8);}.cls-36{fill:url(#Ѕезым_нный_градиент_40-4);}.cls-37{fill:url(#Ѕезым_нный_градиент_34-9);}.cls-38{fill:url(#Ѕезым_нный_градиент_4-2);}.cls-39{fill:url(#Ѕезым_нный_градиент_34-10);}.cls-40{fill:#d9483d;}.cls-41{fill:#ff574c;}.cls-42{fill:#b23625;}.cls-43{fill:#bdc1c4;}.cls-44{fill:url(#Ѕезым_нный_градиент_28);}.cls-45{fill:url(#Ѕезым_нный_градиент_34-11);}.cls-46{fill:#bbb;}.cls-47{fill:#a6a9ab;}.cls-48{fill:url(#Ѕезым_нный_градиент_21);}.cls-49{fill:#e1f0f0;}.cls-50{fill:#b9c6c7;}.cls-51{fill:#dde2e6;}.cls-52{fill:url(#Ѕезым_нный_градиент_21-2);}.cls-53{fill:url(#Ѕезым_нный_градиент_25);}.cls-54{fill:#bfcccc;}.cls-55{fill:url(#Ѕезым_нный_градиент_21-3);}.cls-56{fill:url(#Ѕезым_нный_градиент_25-2);}.cls-57{fill:url(#Ѕезым_нный_градиент_21-4);}.cls-58{fill:#c4372a;}.cls-59{fill:url(#Ѕезым_нный_градиент_20);}.cls-60{fill:#828282;}.cls-61{fill:#bdcedf;}.cls-62{fill:#e2e9ec;}.cls-63{fill:#ae6800;}.cls-64{fill:#74c7ac;}.cls-65{fill:url(#Ѕезым_нный_градиент_21-5);}.cls-66{fill:#8d9296;}.cls-67{fill:#80898a;}.cls-68{fill:#9faaab;}.cls-69{fill:#aa2513;}.cls-70{fill:#3a4044;}.cls-71{fill:url(#Ѕезым_нный_градиент_35-9);}.cls-72{fill:url(#Ѕезым_нный_градиент_40-5);}.cls-73{fill:url(#Ѕезым_нный_градиент_34-12);}.cls-74{fill:url(#Ѕезым_нный_градиент_4-3);}.cls-75{fill:url(#Ѕезым_нный_градиент_34-13);}.cls-76{fill:#6ba9b0;}.cls-77{fill:#4e98a1;}.cls-78{fill:#eac72f;}.cls-79{fill:#ff7660;}.cls-80{fill:#ff8c6f;}.cls-81{fill:#ff6056;}.cls-82{fill:#c6d4d4;}.cls-83{fill:#cedbdb;}.cls-84{fill:#99afba;}.cls-85{fill:#d84e42;}.cls-86{fill:url(#Ѕезым_нный_градиент_21-6);}.cls-87{fill:url(#Ѕезым_нный_градиент_25-3);}.cls-88{fill:url(#Ѕезым_нный_градиент_21-7);}.cls-89{fill:url(#Ѕезым_нный_градиент_25-4);}.cls-90{fill:url(#Ѕезым_нный_градиент_21-8);}.cls-91{fill:#b03a28;}.cls-92{fill:#538b94;}.cls-93{fill:#75a2a9;}.cls-94{fill:#b5d6c7;}.cls-95{fill:#cf9219;}.cls-96{fill:#b06a00;}.cls-97{fill:url(#Ѕезым_нный_градиент_20-2);}.cls-98{fill:url(#Ѕезым_нный_градиент_21-9);}.cls-99{fill:#a83832;}.cls-100{fill:#a93e38;}.cls-101{fill:#ed8333;}.cls-102{fill:#edbd51;}.cls-103{fill:#cf5633;}.cls-104{fill:#7895a4;}.cls-105{fill:#8b8b8b;}.cls-106{fill:#f9fcfc;}.cls-107{fill:#e0e0e0;}.cls-108{fill:#f8ffff;}.cls-109{fill:#6bb5ff;}.cls-110{fill:#981500;}.cls-111{fill:#73818e;}.cls-112{fill:#4b4146;}</style><linearGradient id="Ѕезым_нный_градиент_2" x1="51.34" y1="-16846.8" x2="107.82" y2="-16748.98" gradientTransform="matrix(1, 0, 0, -1, 0, -16743.85)" gradientUnits="userSpaceOnUse"><stop offset="0" stop-color="#ededed"/><stop offset="1" stop-color="#e6e6e6"/></linearGradient><linearGradient id="Ѕезым_нный_градиент_35" x1="123.56" y1="-16749.3" x2="111.7" y2="-16769.84" gradientTransform="matrix(1, 0, 0, -1, 0, -16743.85)" gradientUnits="userSpaceOnUse"><stop offset="0.13" stop-color="#68737b"/><stop offset="0.13" stop-color="#6c7880"/><stop offset="0.44" stop-color="#6c7880"/><stop offset="0.44" stop-color="#50585e"/><stop offset="0.84" stop-color="#50585e"/><stop offset="0.84" stop-color="#3b4145"/></linearGradient><linearGradient id="Ѕезым_нный_градиент_35-2" x1="129.23" y1="-16752.5" x2="117.38" y2="-16773.04" xlink:href="#Ѕезым_нный_градиент_35"/><linearGradient id="Ѕезым_нный_градиент_40" x1="129.59" y1="-16768.35" x2="123.65" y2="-16761.07" gradientTransform="matrix(1, 0, 0, -1, 0, -16743.85)" gradientUnits="userSpaceOnUse"><stop offset="0.13" stop-color="#dbe0e3"/><stop offset="0.13" stop-color="#e0e5e8"/><stop offset="0.44" stop-color="#e0e5e8"/><stop offset="0.44" stop-color="#c0c4c6"/><stop offset="0.84" stop-color="#c0c4c6"/><stop offset="0.84" stop-color="#a8abad"/></linearGradient><linearGradient id="Ѕезым_нный_градиент_34" x1="130.42" y1="-16759.01" x2="123.46" y2="-16771.08" gradientTransform="matrix(1, 0, 0, -1, 0, -16743.85)" gradientUnits="userSpaceOnUse"><stop offset="0.16" stop-color="#797b7d"/><stop offset="0.16" stop-color="#919496"/><stop offset="0.56" stop-color="#919496"/><stop offset="0.56" stop-color="#b1b5b8"/><stop offset="0.87" stop-color="#b1b5b8"/><stop offset="0.87" stop-color="#acb0b3"/></linearGradient><linearGradient id="Ѕезым_нный_градиент_34-2" x1="128.08" y1="-16759.74" x2="123.21" y2="-16768.18" xlink:href="#Ѕезым_нный_градиент_34"/><linearGradient id="Ѕезым_нный_градиент_34-3" x1="127.64" y1="-16762.7" x2="125.41" y2="-16766.55" xlink:href="#Ѕезым_нный_градиент_34"/><linearGradient id="Ѕезым_нный_градиент_35-3" x1="103.16" y1="-16761.08" x2="91.3" y2="-16781.61" xlink:href="#Ѕезым_нный_градиент_35"/><linearGradient id="Ѕезым_нный_градиент_35-4" x1="108.83" y1="-16764.28" x2="96.97" y2="-16784.82" xlink:href="#Ѕезым_нный_градиент_35"/><linearGradient id="Ѕезым_нный_градиент_40-2" x1="109.18" y1="-16780.13" x2="103.24" y2="-16772.85" xlink:href="#Ѕезым_нный_градиент_40"/><linearGradient id="Ѕезым_нный_градиент_34-4" x1="110.02" y1="-16770.79" x2="103.05" y2="-16782.86" xlink:href="#Ѕезым_нный_градиент_34"/><linearGradient id="Ѕезым_нный_градиент_34-5" x1="107.68" y1="-16771.52" x2="102.8" y2="-16779.96" xlink:href="#Ѕезым_нный_градиент_34"/><linearGradient id="Ѕезым_нный_градиент_34-6" x1="107.23" y1="-16774.48" x2="105.01" y2="-16778.33" xlink:href="#Ѕезым_нный_градиент_34"/><linearGradient id="Ѕезым_нный_градиент_35-5" x1="153.54" y1="-16766.73" x2="141.68" y2="-16787.27" xlink:href="#Ѕезым_нный_градиент_35"/><linearGradient id="Ѕезым_нный_градиент_35-6" x1="159.22" y1="-16769.93" x2="147.36" y2="-16790.47" xlink:href="#Ѕезым_нный_градиент_35"/><linearGradient id="Ѕезым_нный_градиент_40-3" x1="160.5" y1="-16775.38" x2="152.7" y2="-16788.89" xlink:href="#Ѕезым_нный_градиент_40"/><linearGradient id="Ѕезым_нный_градиент_34-7" x1="160.41" y1="-16776.44" x2="153.44" y2="-16788.51" xlink:href="#Ѕезым_нный_градиент_34"/><linearGradient id="Ѕезым_нный_градиент_4" x1="158.06" y1="-16777.17" x2="153.19" y2="-16785.61" gradientTransform="matrix(1, 0, 0, -1, 0, -16743.85)" gradientUnits="userSpaceOnUse"><stop offset="0.13" stop-color="#acb0b3"/><stop offset="0.13" stop-color="#b1b5b8"/><stop offset="0.44" stop-color="#b1b5b8"/><stop offset="0.44" stop-color="#919496"/><stop offset="0.84" stop-color="#919496"/><stop offset="0.84" stop-color="#797b7d"/></linearGradient><linearGradient id="Ѕезым_нный_градиент_34-8" x1="157.62" y1="-16780.13" x2="155.39" y2="-16783.98" xlink:href="#Ѕезым_нный_градиент_34"/><linearGradient id="Ѕезым_нный_градиент_35-7" x1="133.14" y1="-16778.51" x2="121.28" y2="-16799.04" xlink:href="#Ѕезым_нный_градиент_35"/><linearGradient id="Ѕезым_нный_градиент_35-8" x1="138.81" y1="-16781.71" x2="126.95" y2="-16802.25" xlink:href="#Ѕезым_нный_градиент_35"/><linearGradient id="Ѕезым_нный_градиент_40-4" x1="140.1" y1="-16787.16" x2="132.3" y2="-16800.67" xlink:href="#Ѕезым_нный_градиент_40"/><linearGradient id="Ѕезым_нный_градиент_34-9" x1="140" y1="-16788.22" x2="133.04" y2="-16800.29" xlink:href="#Ѕезым_нный_градиент_34"/><linearGradient id="Ѕезым_нный_градиент_4-2" x1="137.66" y1="-16788.95" x2="132.79" y2="-16797.39" xlink:href="#Ѕезым_нный_градиент_4"/><linearGradient id="Ѕезым_нный_градиент_34-10" x1="137.21" y1="-16791.91" x2="134.99" y2="-16795.76" xlink:href="#Ѕезым_нный_градиент_34"/><linearGradient id="Ѕезым_нный_градиент_28" x1="122.22" y1="-16767.86" x2="130.31" y2="-16767.86" gradientTransform="matrix(1, 0, 0, -1, 0, -16743.85)" gradientUnits="userSpaceOnUse"><stop offset="0.16" stop-color="#4d4e4f"/><stop offset="0.16" stop-color="#646668"/><stop offset="0.56" stop-color="#646668"/><stop offset="0.56" stop-color="#85888a"/><stop offset="0.87" stop-color="#85888a"/><stop offset="0.87" stop-color="#808385"/></linearGradient><linearGradient id="Ѕезым_нный_градиент_34-11" x1="128.65" y1="-16760.29" x2="123.42" y2="-16769.35" xlink:href="#Ѕезым_нный_градиент_34"/><linearGradient id="Ѕезым_нный_градиент_21" x1="58.03" y1="-16775.6" x2="62.22" y2="-16775.6" gradientTransform="matrix(1, 0, 0, -1, 0, -16743.85)" gradientUnits="userSpaceOnUse"><stop offset="0.16" stop-color="#a7aaac"/><stop offset="0.16" stop-color="#bec2c5"/><stop offset="0.56" stop-color="#bec2c5"/><stop offset="0.56" stop-color="#dee3e7"/><stop offset="0.87" stop-color="#dee3e7"/><stop offset="0.87" stop-color="#d9dee2"/></linearGradient><linearGradient id="Ѕезым_нный_градиент_21-2" x1="38.02" y1="-16798.15" x2="44.43" y2="-16798.15" xlink:href="#Ѕезым_нный_градиент_21"/><linearGradient id="Ѕезым_нный_градиент_25" x1="37.66" y1="-16796.67" x2="44.79" y2="-16796.67" gradientTransform="matrix(1, 0, 0, -1, 0, -16743.85)" gradientUnits="userSpaceOnUse"><stop offset="0.16" stop-color="#bcc0c2"/><stop offset="0.16" stop-color="#d3d7db"/><stop offset="0.56" stop-color="#d3d7db"/><stop offset="0.56" stop-color="#f3f8fd"/><stop offset="0.87" stop-color="#f3f8fd"/><stop offset="0.87" stop-color="#eef3f8"/></linearGradient><linearGradient id="Ѕезым_нный_градиент_21-3" x1="38.02" y1="-16794.13" x2="44.43" y2="-16794.13" xlink:href="#Ѕезым_нный_градиент_21"/><linearGradient id="Ѕезым_нный_градиент_25-2" x1="37.66" y1="-16791.32" x2="44.79" y2="-16791.32" xlink:href="#Ѕезым_нный_градиент_25"/><linearGradient id="Ѕезым_нный_градиент_21-4" x1="38.02" y1="-16789.86" x2="44.43" y2="-16789.86" xlink:href="#Ѕезым_нный_градиент_21"/><linearGradient id="Ѕезым_нный_градиент_20" x1="22.48" y1="-16814.14" x2="24.81" y2="-16818.17" gradientTransform="matrix(1, 0, 0, -1, 0, -16743.85)" gradientUnits="userSpaceOnUse"><stop offset="0.13" stop-color="#d9dee2"/><stop offset="0.13" stop-color="#dee3e7"/><stop offset="0.44" stop-color="#dee3e7"/><stop offset="0.44" stop-color="#bec2c5"/><stop offset="0.84" stop-color="#bec2c5"/><stop offset="0.84" stop-color="#a7aaac"/></linearGradient><linearGradient id="Ѕезым_нный_градиент_21-5" x1="108.03" y1="-16811.88" x2="102.26" y2="-16801.88" xlink:href="#Ѕезым_нный_градиент_21"/><linearGradient id="Ѕезым_нный_градиент_35-9" x1="72.13" y1="-16821.41" x2="60.27" y2="-16841.95" xlink:href="#Ѕезым_нный_градиент_35"/><linearGradient id="Ѕезым_нный_градиент_40-5" x1="73.41" y1="-16826.86" x2="65.61" y2="-16840.37" xlink:href="#Ѕезым_нный_градиент_40"/><linearGradient id="Ѕезым_нный_градиент_34-12" x1="73.32" y1="-16827.92" x2="66.35" y2="-16839.99" xlink:href="#Ѕезым_нный_градиент_34"/><linearGradient id="Ѕезым_нный_градиент_4-3" x1="70.97" y1="-16828.65" x2="66.1" y2="-16837.09" xlink:href="#Ѕезым_нный_градиент_4"/><linearGradient id="Ѕезым_нный_градиент_34-13" x1="70.53" y1="-16831.6" x2="68.3" y2="-16835.46" xlink:href="#Ѕезым_нный_градиент_34"/><linearGradient id="Ѕезым_нный_градиент_21-6" x1="70.88" y1="-16818.45" x2="77.29" y2="-16818.45" xlink:href="#Ѕезым_нный_градиент_21"/><linearGradient id="Ѕезым_нный_градиент_25-3" x1="70.52" y1="-16816.96" x2="77.65" y2="-16816.96" xlink:href="#Ѕезым_нный_градиент_25"/><linearGradient id="Ѕезым_нный_градиент_21-7" x1="70.88" y1="-16814.43" x2="77.29" y2="-16814.43" xlink:href="#Ѕезым_нный_градиент_21"/><linearGradient id="Ѕезым_нный_градиент_25-4" x1="70.52" y1="-16811.62" x2="77.65" y2="-16811.62" xlink:href="#Ѕезым_нный_градиент_25"/><linearGradient id="Ѕезым_нный_градиент_21-8" x1="70.88" y1="-16810.16" x2="77.29" y2="-16810.16" xlink:href="#Ѕезым_нный_градиент_21"/><linearGradient id="Ѕезым_нный_градиент_20-2" x1="53.5" y1="-16832.05" x2="55.82" y2="-16836.09" xlink:href="#Ѕезым_нный_градиент_20"/><linearGradient id="Ѕезым_нный_градиент_21-9" x1="89.11" y1="-16795.51" x2="93.29" y2="-16795.51" xlink:href="#Ѕезым_нный_градиент_21"/></defs><title>i2</title><g class="cls-1"><g id="Слой_2" data-name="Слой 2"><g id="Layer_1" data-name="Layer 1"><g id="_Группа_" data-name="&lt;Группа&gt;"><path id="_Составной_контур_" data-name="&lt;Составной контур&gt;" class="cls-2" d="M13.65,80.53,41.17,95.23,23.8,81.78l-3.22-1.46A25.72,25.72,0,0,0,33.84,77c4.74-3,4.87-6.68.53-8.61a50.85,50.85,0,0,1,10.18,1.11l.37-1.37-.57-7.21L49,62.47l11.23-7A4,4,0,0,0,63,55l13.95-8.54a4.74,4.74,0,0,0,.65-2.34c5.32,1.65,13.5.51,18.48-2.6s4.87-7.2-.43-9a19.31,19.31,0,0,0-6.55-.84c-1.91.05-2.88-1.9-1.39-2.83l3.55-2.2c1.09-.67,2.8-.23,3.12.88.38,1.34,1.72,2.52,4,3.28,5.31,1.79,13.72.66,18.79-2.51s4.87-7.2-.43-9c-2.28-.77-99.14,61.47-102.05,61.7-1.37.11,42.47,25.55,43.55,24.89L168.42,40.33l-52-24.46,4.6-3.12-5.62-1.89-.88.61-8.45-2.85-7.79,1.57L88.24,16l-4.66-.35-1,.4c1.39-2-.27-2.56-2.14-3.19l.34.08h0c-2.92-1-9.05,1-13.7,4.46s-5.94,6.81-3.36,7.91l-1.39-.41,1.3.44a9,9,0,0,0,4.7-.14L66.27,27l2.14,2-3.89,2.65L61.71,32l-1.62,1-9.62-3.24-11.7-2.29-2.08,1.35L25.74,25.21c-4.64,2.19-5.1,9.7-5.13,11.91a2.16,2.16,0,0,0-1,.55l-4.47-1.51a4.37,4.37,0,0,1-1.07-.47l-.06,0a.4.4,0,0,1-.17-.26c0-.22.2-.45.17-.83l-.27-.15-1.08-.61L11.32,33,11,32.81h0l-.36.57A4.5,4.5,0,0,0,10.22,35c0,1.21,1,1.8,2.95,2.45l5.66,1.91a1.74,1.74,0,0,0,0,.4,51.67,51.67,0,0,0-7.61,7.26l2.2-.07,7.61,5.48C9.7,59.91,3.56,64.87,3.56,64.87l-.67-.23L0,66.82s10.65,9.92,11.57,11.73c0,.68.44,1.15,1.36,1.74l0,0,.1,0,.54.33Z"/><g id="_Группа_2" data-name="&lt;Группа&gt;"><g id="_Группа_3" data-name="&lt;Группа&gt;"><polygon id="_Контур_" data-name="&lt;Контур&gt;" class="cls-3" points="167.22 24.06 169.06 23.12 136.3 4.2 134.46 5.15 167.22 24.06"/><polygon id="_Контур_2" data-name="&lt;Контур&gt;" class="cls-4" points="167.22 29.26 169.06 28.31 169.06 23.12 167.22 24.06 167.22 29.26"/><polygon id="_Контур_3" data-name="&lt;Контур&gt;" class="cls-5" points="134.46 5.15 167.22 24.06 167.22 29.26 134.46 10.34 134.46 5.15"/></g><g id="_Группа_4" data-name="&lt;Группа&gt;"><g id="_Группа_5" data-name="&lt;Группа&gt;"><path id="_Контур_4" data-name="&lt;Контур&gt;" class="cls-6" d="M107.62,20.25a5,5,0,0,0,1.94,4.43c1.63,1.09,5.12,3,5.12,3,4.91-2.83,14.54-12.67,14.54-17.58,0-2.13-4.59-3.75-5.85-4.56-1.63-1-4.1-.89-6.88.71C111.59,9.07,107.62,15.34,107.62,20.25Z"/><path id="_Контур_5" data-name="&lt;Контур&gt;" class="cls-7" d="M112.42,23c0,4.91,4,6.59,8.88,3.76s8.88-9.11,8.88-14-4-6.59-8.88-3.76S112.42,18.14,112.42,23Z"/><path id="_Контур_6" data-name="&lt;Контур&gt;" class="cls-8" d="M113.29,23.45a5,5,0,0,0,1.94,4.43c1.63,1.09,5.12,3,5.12,3C125.26,28,134.9,18.19,134.9,13.28c0-2.13-4.59-3.75-5.85-4.56-1.63-1-4.1-.89-6.88.71C117.27,12.27,113.29,18.54,113.29,23.45Z"/><path id="_Контур_7" data-name="&lt;Контур&gt;" class="cls-7" d="M118.1,26.25c0,4.91,4,6.59,8.88,3.76s8.88-9.11,8.88-14-4-6.59-8.88-3.76S118.1,21.34,118.1,26.25Z"/><path id="_Контур_8" data-name="&lt;Контур&gt;" class="cls-9" d="M120.72,24.26c0,3.26,2.64,4.37,5.9,2.49s5.9-6,5.9-9.3-2.64-4.37-5.9-2.49S120.72,21,120.72,24.26Z"/><path id="_Контур_9" data-name="&lt;Контур&gt;" class="cls-10" d="M121.08,24.53c0,3.26,2.64,4.37,5.9,2.49s5.9-6,5.9-9.3-2.64-4.37-5.9-2.49S121.08,21.27,121.08,24.53Z"/><path id="_Контур_10" data-name="&lt;Контур&gt;" class="cls-11" d="M132.27,18.07c0,2.92-2.37,6.66-5.29,8.35s-5.29.68-5.29-2.24a5.55,5.55,0,0,1,.09-1,11.45,11.45,0,0,1,5.2-7.36c.21-.12.42-.23.63-.32C130.24,14.29,132.27,15.36,132.27,18.07Z"/><path id="_Контур_11" data-name="&lt;Контур&gt;" class="cls-12" d="M129.7,17.76v0a8.28,8.28,0,0,1-4,6.31,4.62,4.62,0,0,1-1.17.51,2,2,0,0,1-2.61-1,1.64,1.64,0,0,1-.13-.39,7.72,7.72,0,0,1,.29-1.2,11.89,11.89,0,0,1,4.16-5.66,8.72,8.72,0,0,1,.75-.5l.53-.27.1-.05C128.84,15.46,129.68,16.27,129.7,17.76Z"/><path id="_Контур_12" data-name="&lt;Контур&gt;" class="cls-13" d="M129.34,17.21c0,2.17-2.74,6.12-4.92,7.41l0,0-.09,0a.93.93,0,0,1-.28-.09l-.11,0a13.73,13.73,0,0,1-2-.89,1.64,1.64,0,0,1-.13-.39,7.72,7.72,0,0,1,.29-1.2,11.89,11.89,0,0,1,4.16-5.66,8.72,8.72,0,0,1,.75-.5l.53-.27a13.61,13.61,0,0,1,1.6,1.4h0Z"/><path id="_Контур_13" data-name="&lt;Контур&gt;" class="cls-14" d="M129.84,18.66a7.16,7.16,0,0,1-3.45,5.45c-1.9,1.1-3.45.44-3.45-1.46A3.63,3.63,0,0,1,123,22a7.47,7.47,0,0,1,3.39-4.8l.41-.21C128.52,16.2,129.84,16.89,129.84,18.66Z"/><path id="_Контур_14" data-name="&lt;Контур&gt;" class="cls-15" d="M128.2,19.8a3.49,3.49,0,0,1-1.68,2.65c-.93.53-1.68.22-1.68-.71a1.76,1.76,0,0,1,0-.32,3.64,3.64,0,0,1,1.65-2.34l.2-.1C127.56,18.6,128.2,18.94,128.2,19.8Z"/><path id="_Контур_15" data-name="&lt;Контур&gt;" class="cls-12" d="M126.76,20a1.4,1.4,0,0,1-.67,1.06c-.37.21-.67.09-.67-.28a.71.71,0,0,1,0-.13,1.46,1.46,0,0,1,.66-.94l.08,0C126.51,19.55,126.76,19.68,126.76,20Z"/></g><g id="_Группа_6" data-name="&lt;Группа&gt;"><path id="_Контур_16" data-name="&lt;Контур&gt;" class="cls-16" d="M87.21,32a5,5,0,0,0,1.94,4.43c1.63,1.09,5.12,3,5.12,3,4.91-2.83,14.54-12.67,14.54-17.58,0-2.13-4.59-3.75-5.85-4.56-1.63-1-4.1-.89-6.88.71C91.19,20.84,87.21,27.12,87.21,32Z"/><path id="_Контур_17" data-name="&lt;Контур&gt;" class="cls-7" d="M92,34.83c0,4.91,4,6.59,8.88,3.76s8.88-9.11,8.88-14-4-6.59-8.88-3.76S92,29.92,92,34.83Z"/><path id="_Контур_18" data-name="&lt;Контур&gt;" class="cls-17" d="M92.89,35.23a5,5,0,0,0,1.94,4.43c1.63,1.09,5.12,3,5.12,3C104.86,39.81,114.5,30,114.5,25.06c0-2.13-4.59-3.75-5.85-4.56-1.63-1-4.1-.89-6.88.71C96.86,24,92.89,30.32,92.89,35.23Z"/><path id="_Контур_19" data-name="&lt;Контур&gt;" class="cls-7" d="M97.69,38c0,4.91,4,6.59,8.88,3.76s8.88-9.11,8.88-14-4-6.59-8.88-3.76S97.69,33.12,97.69,38Z"/><path id="_Контур_20" data-name="&lt;Контур&gt;" class="cls-18" d="M100.32,36c0,3.26,2.64,4.37,5.9,2.49s5.9-6,5.9-9.3-2.64-4.37-5.9-2.49S100.32,32.78,100.32,36Z"/><path id="_Контур_21" data-name="&lt;Контур&gt;" class="cls-10" d="M100.68,36.3c0,3.26,2.64,4.37,5.9,2.49s5.9-6,5.9-9.3-2.64-4.37-5.9-2.49S100.68,33,100.68,36.3Z"/><path id="_Контур_22" data-name="&lt;Контур&gt;" class="cls-19" d="M111.87,29.85c0,2.92-2.37,6.66-5.29,8.35s-5.29.68-5.29-2.24a5.55,5.55,0,0,1,.09-1,11.45,11.45,0,0,1,5.2-7.36c.21-.12.42-.23.63-.32C109.83,26.07,111.87,27.13,111.87,29.85Z"/><path id="_Контур_23" data-name="&lt;Контур&gt;" class="cls-12" d="M109.3,29.54v0a8.28,8.28,0,0,1-4,6.31,4.62,4.62,0,0,1-1.17.51,2,2,0,0,1-2.61-1,1.64,1.64,0,0,1-.13-.39,7.71,7.71,0,0,1,.29-1.2,11.88,11.88,0,0,1,4.16-5.66,8.74,8.74,0,0,1,.75-.5l.53-.27.1-.05C108.44,27.24,109.28,28,109.3,29.54Z"/><path id="_Контур_24" data-name="&lt;Контур&gt;" class="cls-20" d="M108.93,29c0,2.17-2.74,6.12-4.92,7.41l0,0-.09,0a.93.93,0,0,1-.28-.09l-.11,0a13.72,13.72,0,0,1-2-.89,1.64,1.64,0,0,1-.13-.39,7.71,7.71,0,0,1,.29-1.2,11.88,11.88,0,0,1,4.16-5.66,8.74,8.74,0,0,1,.75-.5l.53-.27a13.61,13.61,0,0,1,1.6,1.4h0Z"/><path id="_Контур_25" data-name="&lt;Контур&gt;" class="cls-14" d="M109.44,30.44A7.16,7.16,0,0,1,106,35.89c-1.9,1.1-3.45.44-3.45-1.46a3.62,3.62,0,0,1,.06-.65A7.47,7.47,0,0,1,106,29l.41-.21C108.11,28,109.44,28.67,109.44,30.44Z"/><path id="_Контур_26" data-name="&lt;Контур&gt;" class="cls-21" d="M107.8,31.58a3.49,3.49,0,0,1-1.68,2.65c-.93.53-1.68.22-1.68-.71a1.77,1.77,0,0,1,0-.32,3.64,3.64,0,0,1,1.65-2.34l.2-.1C107.15,30.38,107.8,30.72,107.8,31.58Z"/><path id="_Контур_27" data-name="&lt;Контур&gt;" class="cls-12" d="M106.36,31.81a1.4,1.4,0,0,1-.67,1.06c-.37.21-.67.09-.67-.28a.7.7,0,0,1,0-.13,1.46,1.46,0,0,1,.66-.94l.08,0C106.1,31.33,106.36,31.46,106.36,31.81Z"/></g></g><polygon id="_Контур_28" data-name="&lt;Контур&gt;" class="cls-22" points="138.31 21.84 136.88 22.66 136.88 13.62 138.31 12.79 138.31 21.84"/><path id="_Контур_29" data-name="&lt;Контур&gt;" class="cls-23" d="M121.94,24.14c0,2.78,2.26,3.74,5,2.13s5-5.17,5-7.95-2.26-3.74-5-2.13S121.94,21.36,121.94,24.14Z"/><polygon id="_Контур_30" data-name="&lt;Контур&gt;" class="cls-24" points="160.57 20.89 106.58 48.85 87.74 36.84 133.16 10.62 140.28 9.17 160.57 20.89"/><polygon id="_Контур_31" data-name="&lt;Контур&gt;" class="cls-25" points="160.57 20.89 152 22.63 133.16 10.62 140.28 9.17 160.57 20.89"/><polygon id="_Контур_32" data-name="&lt;Контур&gt;" class="cls-26" points="107.9 26.79 129.93 14.07 142.53 21.23 120.51 33.95 107.9 26.79"/><ellipse id="_Контур_33" data-name="&lt;Контур&gt;" class="cls-24" cx="126.26" cy="22.45" rx="7.51" ry="4.89"/><polygon id="_Контур_34" data-name="&lt;Контур&gt;" class="cls-27" points="160.57 25.04 106.58 56.21 106.58 48.85 152 22.63 160.57 20.89 160.57 25.04"/><polygon id="_Контур_35" data-name="&lt;Контур&gt;" class="cls-25" points="120.51 33.95 142.53 21.23 143.86 23.85 119.18 38.1 120.51 33.95"/><g id="_Группа_7" data-name="&lt;Группа&gt;"><path id="_Контур_36" data-name="&lt;Контур&gt;" class="cls-28" d="M137.6,37.68a5,5,0,0,0,1.94,4.43c1.63,1.09,5.12,3,5.12,3,4.91-2.83,14.54-12.67,14.54-17.58,0-2.13-4.59-3.75-5.85-4.56-1.63-1-4.1-.89-6.88.71C141.58,26.5,137.6,32.77,137.6,37.68Z"/><path id="_Контур_37" data-name="&lt;Контур&gt;" class="cls-7" d="M142.4,40.48c0,4.91,4,6.59,8.88,3.76s8.88-9.11,8.88-14-4-6.59-8.88-3.76S142.4,35.57,142.4,40.48Z"/><path id="_Контур_38" data-name="&lt;Контур&gt;" class="cls-29" d="M143.27,40.88a5,5,0,0,0,1.94,4.43c1.63,1.09,5.12,3,5.12,3,4.91-2.83,14.54-12.67,14.54-17.58,0-2.13-4.59-3.75-5.85-4.56-1.63-1-4.1-.89-6.88.71C147.25,29.7,143.27,36,143.27,40.88Z"/><path id="_Контур_39" data-name="&lt;Контур&gt;" class="cls-7" d="M148.08,43.68c0,4.91,4,6.59,8.88,3.76s8.88-9.11,8.88-14-4-6.59-8.88-3.76S148.08,38.77,148.08,43.68Z"/><path id="_Контур_40" data-name="&lt;Контур&gt;" class="cls-30" d="M150.7,41.69c0,3.26,2.64,4.37,5.9,2.49s5.9-6,5.9-9.3-2.64-4.37-5.9-2.49S150.7,38.43,150.7,41.69Z"/><path id="_Контур_41" data-name="&lt;Контур&gt;" class="cls-10" d="M151.07,42c0,3.26,2.64,4.37,5.9,2.49s5.9-6,5.9-9.3-2.64-4.37-5.9-2.49S151.07,38.7,151.07,42Z"/><path id="_Контур_42" data-name="&lt;Контур&gt;" class="cls-31" d="M162.25,35.5c0,2.92-2.37,6.66-5.29,8.35s-5.29.68-5.29-2.24a5.56,5.56,0,0,1,.09-1,11.45,11.45,0,0,1,5.2-7.36c.21-.12.42-.23.63-.32C160.22,31.72,162.25,32.79,162.25,35.5Z"/><path id="_Контур_43" data-name="&lt;Контур&gt;" class="cls-12" d="M159.68,35.19v0a8.28,8.28,0,0,1-4,6.31,4.62,4.62,0,0,1-1.17.51,2,2,0,0,1-2.61-1,1.65,1.65,0,0,1-.13-.39,7.72,7.72,0,0,1,.29-1.2,11.88,11.88,0,0,1,4.16-5.66,8.68,8.68,0,0,1,.75-.5l.53-.27.1-.05C158.82,32.89,159.66,33.7,159.68,35.19Z"/><path id="_Контур_44" data-name="&lt;Контур&gt;" class="cls-32" d="M159.32,34.64c0,2.17-2.74,6.12-4.92,7.41l0,0-.09,0a.93.93,0,0,1-.28-.09l-.11,0a13.72,13.72,0,0,1-2-.89,1.65,1.65,0,0,1-.13-.39,7.72,7.72,0,0,1,.29-1.2,11.88,11.88,0,0,1,4.16-5.66,8.68,8.68,0,0,1,.75-.5l.53-.27a13.62,13.62,0,0,1,1.6,1.4h0Z"/><path id="_Контур_45" data-name="&lt;Контур&gt;" class="cls-14" d="M159.82,36.09a7.16,7.16,0,0,1-3.45,5.45c-1.9,1.1-3.45.44-3.45-1.46a3.63,3.63,0,0,1,.06-.65,7.47,7.47,0,0,1,3.39-4.8l.41-.21C158.5,33.63,159.82,34.32,159.82,36.09Z"/><path id="_Контур_46" data-name="&lt;Контур&gt;" class="cls-33" d="M158.19,37.23a3.49,3.49,0,0,1-1.68,2.65c-.93.53-1.68.22-1.68-.71a1.77,1.77,0,0,1,0-.32,3.64,3.64,0,0,1,1.65-2.34l.2-.1C157.54,36,158.19,36.37,158.19,37.23Z"/><path id="_Контур_47" data-name="&lt;Контур&gt;" class="cls-12" d="M156.75,37.46a1.4,1.4,0,0,1-.67,1.06c-.37.21-.67.09-.67-.28a.71.71,0,0,1,0-.13,1.46,1.46,0,0,1,.66-.94l.08,0C156.49,37,156.75,37.11,156.75,37.46Z"/></g><g id="_Группа_8" data-name="&lt;Группа&gt;"><path id="_Контур_48" data-name="&lt;Контур&gt;" class="cls-34" d="M117.19,49.45a5,5,0,0,0,1.94,4.43c1.63,1.09,5.12,3,5.12,3C129.17,54,138.8,44.19,138.8,39.29c0-2.13-4.59-3.75-5.85-4.56-1.63-1-4.1-.89-6.88.71C121.17,38.27,117.19,44.55,117.19,49.45Z"/><path id="_Контур_49" data-name="&lt;Контур&gt;" class="cls-7" d="M122,52.25c0,4.91,4,6.59,8.88,3.76s8.88-9.11,8.88-14-4-6.59-8.88-3.76S122,47.35,122,52.25Z"/><path id="_Контур_50" data-name="&lt;Контур&gt;" class="cls-35" d="M122.87,52.66a5,5,0,0,0,1.94,4.43c1.63,1.09,5.12,3,5.12,3,4.91-2.83,14.54-12.67,14.54-17.58,0-2.13-4.59-3.75-5.85-4.56-1.63-1-4.1-.89-6.88.71C126.85,41.48,122.87,47.75,122.87,52.66Z"/><path id="_Контур_51" data-name="&lt;Контур&gt;" class="cls-7" d="M127.68,55.46c0,4.91,4,6.59,8.88,3.76s8.88-9.11,8.88-14-4-6.59-8.88-3.76S127.68,50.55,127.68,55.46Z"/><path id="_Контур_52" data-name="&lt;Контур&gt;" class="cls-36" d="M130.3,53.47c0,3.26,2.64,4.37,5.9,2.49s5.9-6,5.9-9.3-2.64-4.37-5.9-2.49S130.3,50.21,130.3,53.47Z"/><path id="_Контур_53" data-name="&lt;Контур&gt;" class="cls-10" d="M130.66,53.73c0,3.26,2.64,4.37,5.9,2.49s5.9-6,5.9-9.3-2.64-4.37-5.9-2.49S130.66,50.48,130.66,53.73Z"/><path id="_Контур_54" data-name="&lt;Контур&gt;" class="cls-37" d="M141.85,47.28c0,2.92-2.37,6.66-5.29,8.35s-5.29.68-5.29-2.24a5.55,5.55,0,0,1,.09-1,11.45,11.45,0,0,1,5.2-7.36c.21-.12.42-.23.63-.32C139.82,43.5,141.85,44.56,141.85,47.28Z"/><path id="_Контур_55" data-name="&lt;Контур&gt;" class="cls-12" d="M139.28,47v0a8.28,8.28,0,0,1-4,6.31,4.62,4.62,0,0,1-1.17.51,2,2,0,0,1-2.61-1,1.64,1.64,0,0,1-.13-.39,7.72,7.72,0,0,1,.29-1.2,11.88,11.88,0,0,1,4.16-5.66,8.72,8.72,0,0,1,.75-.5l.53-.27.1-.05C138.42,44.67,139.26,45.47,139.28,47Z"/><path id="_Контур_56" data-name="&lt;Контур&gt;" class="cls-38" d="M138.91,46.42c0,2.16-2.74,6.12-4.92,7.41l0,0-.09,0a.93.93,0,0,1-.28-.09l-.11,0a13.73,13.73,0,0,1-2-.89,1.64,1.64,0,0,1-.13-.39,7.72,7.72,0,0,1,.29-1.2,11.88,11.88,0,0,1,4.16-5.66,8.72,8.72,0,0,1,.75-.5l.53-.27a13.61,13.61,0,0,1,1.6,1.4h0Z"/><path id="_Контур_57" data-name="&lt;Контур&gt;" class="cls-14" d="M139.42,47.87A7.16,7.16,0,0,1,136,53.32c-1.9,1.1-3.45.44-3.45-1.46a3.63,3.63,0,0,1,.06-.65,7.47,7.47,0,0,1,3.39-4.8l.41-.21C138.09,45.41,139.42,46.1,139.42,47.87Z"/><path id="_Контур_58" data-name="&lt;Контур&gt;" class="cls-39" d="M137.78,49a3.49,3.49,0,0,1-1.68,2.65c-.93.53-1.68.22-1.68-.71a1.77,1.77,0,0,1,0-.32,3.64,3.64,0,0,1,1.65-2.34l.2-.1C137.14,47.81,137.78,48.15,137.78,49Z"/><path id="_Контур_59" data-name="&lt;Контур&gt;" class="cls-12" d="M136.34,49.24a1.4,1.4,0,0,1-.67,1.06c-.37.21-.67.09-.67-.28a.71.71,0,0,1,0-.13,1.46,1.46,0,0,1,.66-.94l.08,0C136.08,48.75,136.34,48.89,136.34,49.24Z"/></g><g id="_Группа_9" data-name="&lt;Группа&gt;"><g id="_Группа_10" data-name="&lt;Группа&gt;"><path id="_Контур_60" data-name="&lt;Контур&gt;" class="cls-40" d="M132.55,41c0,.46-3.25,3.83-6.13,8.94a37.49,37.49,0,0,0-3.28,7.63l-7.84-5a20.75,20.75,0,0,1,2.39-7.69,31.71,31.71,0,0,1,7-8.88Z"/></g><path id="_Контур_61" data-name="&lt;Контур&gt;" class="cls-41" d="M132.55,41c0,.46-3.25,3.83-6.13,8.94l-8.73-5a31.71,31.71,0,0,1,7-8.88Z"/><path id="_Контур_62" data-name="&lt;Контур&gt;" class="cls-42" d="M124.14,57.21l-1,.36c.86-9.32,9.07-16.28,9.42-16.57l.47.66C132.94,41.73,124.94,48.52,124.14,57.21Z"/></g><polygon id="_Контур_63" data-name="&lt;Контур&gt;" class="cls-27" points="107.9 26.79 120.51 33.95 119.18 38.1 106.58 30.94 107.9 26.79"/><polygon id="_Контур_64" data-name="&lt;Контур&gt;" class="cls-43" points="107.95 24.84 109.62 33.11 109.62 42.01 112.43 40.38 112.43 45.32 109.62 46.94 108.84 47.38 106.29 48.86 106.29 25.8 107.95 24.84"/><g id="_Группа_11" data-name="&lt;Группа&gt;"><path id="_Контур_65" data-name="&lt;Контур&gt;" class="cls-44" d="M122.22,21.68v2.15c0,1.45,1.81,2.63,4,2.63s4-1.18,4-2.63V21.55Z"/><path id="_Контур_66" data-name="&lt;Контур&gt;" class="cls-45" d="M118.75,19.64v1c0,2.7,3.36,4.89,7.51,4.89s7.51-2.19,7.51-4.89V19.4Z"/><ellipse id="_Контур_67" data-name="&lt;Контур&gt;" class="cls-46" cx="126.26" cy="19.64" rx="7.51" ry="4.89"/></g><polygon id="_Контур_68" data-name="&lt;Контур&gt;" class="cls-47" points="112.43 40.38 109.62 38.2 109.62 42.01 112.43 40.38"/><polygon id="_Контур_69" data-name="&lt;Контур&gt;" class="cls-47" points="107.95 24.84 107.29 23.9 107.29 25.22 107.95 24.84"/></g><g id="_Группа_12" data-name="&lt;Группа&gt;"><path id="_Контур_70" data-name="&lt;Контур&gt;" class="cls-48" d="M58,17.94V44.27c0,.75.94,1.36,2.09,1.36s2.09-.61,2.09-1.36V17.87Z"/><ellipse id="_Контур_71" data-name="&lt;Контур&gt;" class="cls-49" cx="60.13" cy="17.94" rx="2.09" ry="1.36"/><g id="_Группа_13" data-name="&lt;Группа&gt;"><path id="_Контур_72" data-name="&lt;Контур&gt;" class="cls-50" d="M63.57,6.49a2.67,2.67,0,0,1-1,2.31L62,9.25a2,2,0,0,0-.77,1.6V17.6a1.11,1.11,0,0,1-1.09.56,1.13,1.13,0,0,1-1.06-.52V10.3a3.57,3.57,0,0,1,1.32-2.77l2.31-2.08S63.47,5.25,63.57,6.49Z"/><path id="_Контур_73" data-name="&lt;Контур&gt;" class="cls-51" d="M59.5,18V10.65a3.57,3.57,0,0,1,1.32-2.77l2.31-2.08a.64.64,0,0,1,.26,0,.66.66,0,0,0-.71-.35L60.37,7.53a3.57,3.57,0,0,0-1.32,2.77v7.35a.84.84,0,0,0,.48.4Z"/><path id="_Контур_74" data-name="&lt;Контур&gt;" class="cls-47" d="M63.21,8,62,9.14a3.57,3.57,0,0,0-1.32,2.77v6.15a.85.85,0,0,0,.55-.46V10.85A2,2,0,0,1,62,9.25l.56-.46A2.85,2.85,0,0,0,63.21,8Z"/></g></g><g id="_Группа_14" data-name="&lt;Группа&gt;"><path id="_Контур_75" data-name="&lt;Контур&gt;" class="cls-52" d="M38,52.78v1c0,1.15,1.43,2.09,3.2,2.09s3.2-.93,3.2-2.09V52.68Z"/><path id="_Контур_76" data-name="&lt;Контур&gt;" class="cls-53" d="M37.66,51.13v1.16c0,1.28,1.6,2.32,3.56,2.32s3.56-1,3.56-2.32V51Z"/><ellipse id="_Контур_77" data-name="&lt;Контур&gt;" class="cls-54" cx="41.23" cy="51.13" rx="3.56" ry="2.32"/><path id="_Контур_78" data-name="&lt;Контур&gt;" class="cls-55" d="M38,47.84v2.88c0,1.15,1.43,2.09,3.2,2.09s3.2-.93,3.2-2.09v-3Z"/><path id="_Контур_79" data-name="&lt;Контур&gt;" class="cls-56" d="M37.66,45.79v1.16c0,1.28,1.6,2.32,3.56,2.32s3.56-1,3.56-2.32V45.67Z"/><ellipse id="_Контур_80" data-name="&lt;Контур&gt;" class="cls-54" cx="41.23" cy="45.79" rx="3.56" ry="2.32"/><path id="_Контур_81" data-name="&lt;Контур&gt;" class="cls-57" d="M38,44.5v1c0,1.15,1.43,2.09,3.2,2.09s3.2-.93,3.2-2.09V44.39Z"/><path id="_Контур_82" data-name="&lt;Контур&gt;" class="cls-49" d="M44.43,44.5c0,1.15-1.43,2.09-3.2,2.09S36,45.92,36,44.77s3.43-2.35,5.2-2.35S44.43,43.35,44.43,44.5Z"/></g><path id="_Контур_83" data-name="&lt;Контур&gt;" class="cls-23" d="M26.27,79.58c0,2.95,2.39,4,5.33,2.26s5.33-6.91,5.33-9.85-2.39-2.51-5.33-.81C32.49,70.65,26.27,81.37,26.27,79.58Z"/><g id="_Группа_15" data-name="&lt;Группа&gt;"><g id="_Группа_16" data-name="&lt;Группа&gt;"><path id="_Контур_84" data-name="&lt;Контур&gt;" class="cls-58" d="M47.16,66.89c-.88-5-2.87-7.51-5.92-7.53l-.54,0c-.31-.55-3.54.15-4,.45-.23.15-4,5.09-10.6,16.66l-6-3.34c1.16-6.12,9.09-18,16.27-18h.05a6.07,6.07,0,0,1,2.62.58c1,.5,5.79,2.57,6.67,4h0C46.51,61.09,46.74,64.53,47.16,66.89Z"/></g></g><g id="_Группа_17" data-name="&lt;Группа&gt;"><g id="_Группа_18" data-name="&lt;Группа&gt;"><path id="_Контур_85" data-name="&lt;Контур&gt;" class="cls-59" d="M25.84,71.85V73.2a.59.59,0,0,1-.32.53c-.17.09-1.07.76-1.26.65l-3-3.62a1.58,1.58,0,0,1-.8-1.37l-1.59-.66c0-.2,1-.63,1.12-.73l.06,0a.59.59,0,0,1,.59,0L25,70.48A1.58,1.58,0,0,1,25.84,71.85Z"/><path id="_Контур_86" data-name="&lt;Контур&gt;" class="cls-60" d="M24.74,72.49v1.35a.59.59,0,0,1-.89.51l-4.41-2.51a1.58,1.58,0,0,1-.8-1.37V69.12a.59.59,0,0,1,.89-.51l4.41,2.51A1.58,1.58,0,0,1,24.74,72.49Z"/></g><path id="_Контур_87" data-name="&lt;Контур&gt;" class="cls-61" d="M21.35,71.39a.76.76,0,0,1-.09.39c-.17.31-.59.37-1.06.09A2.37,2.37,0,0,1,19,70c0-.46.26-.71.66-.66a1.25,1.25,0,0,1,.51.17A2.39,2.39,0,0,1,21.35,71.39Z"/><path id="_Контур_88" data-name="&lt;Контур&gt;" class="cls-61" d="M23.93,72.94a.76.76,0,0,1-.09.39c-.18.31-.59.37-1.07.1a2.42,2.42,0,0,1-1.15-1.83c0-.47.26-.71.65-.67a1.25,1.25,0,0,1,.51.17A2.41,2.41,0,0,1,23.93,72.94Z"/><path id="_Контур_89" data-name="&lt;Контур&gt;" class="cls-62" d="M21.35,71.39a.76.76,0,0,1-.09.39,1.25,1.25,0,0,1-.51-.17,2.39,2.39,0,0,1-1.15-1.83.76.76,0,0,1,.09-.39,1.25,1.25,0,0,1,.51.17A2.39,2.39,0,0,1,21.35,71.39Z"/><path id="_Контур_90" data-name="&lt;Контур&gt;" class="cls-62" d="M23.93,72.94a.76.76,0,0,1-.09.39,1.09,1.09,0,0,1-.51-.16,2.43,2.43,0,0,1-1.16-1.83.8.8,0,0,1,.09-.4,1.25,1.25,0,0,1,.51.17A2.41,2.41,0,0,1,23.93,72.94Z"/></g><polygon id="_Контур_91" data-name="&lt;Контур&gt;" class="cls-63" points="25.98 76.99 86.89 38.8 86.89 29.33 25.98 67.52 25.98 76.99"/><polygon id="_Контур_92" data-name="&lt;Контур&gt;" class="cls-64" points="43.62 63.62 60.9 55.09 60.9 48.89 43.62 58.86 43.62 63.62"/><polygon id="_Контур_93" data-name="&lt;Контур&gt;" class="cls-64" points="61.28 59.13 86.89 44.34 86.89 34.6 61.28 49.39 61.28 59.13"/><polygon id="_Контур_94" data-name="&lt;Контур&gt;" class="cls-64" points="86.89 29.73 62.41 43.86 62.41 46.58 86.89 32.45 86.89 29.73"/><path id="_Контур_95" data-name="&lt;Контур&gt;" class="cls-40" d="M107.29,17.32l-15,20.84-29.88,5.7V18.52c0-2.07,1.89-6.32,3.14-8C70.24,4.37,72.45,2.31,77.31,0Z"/><path id="_Контур_96" data-name="&lt;Контур&gt;" class="cls-42" d="M85.06,33.64c0-2.07,1.93-7.06,3.05-8.8,4.3-6.66,7.87-8.81,12.66-11.1V12.61L82,2.91c-4.86,2.31-8.67,6.9-11.23,13.44-.76,1.93-2.1,5.51-2.1,7.59L67.13,46.77,86,43.17Z"/><path id="_Контур_97" data-name="&lt;Контур&gt;" class="cls-41" d="M85.06,32.51c0-2.07,1.93-7.06,3.05-8.8C92.42,17,96,14.9,100.78,12.61L82,1.78c-4.86,2.31-8.67,6.9-11.23,13.44-.76,1.93-2.1,5.51-2.1,7.59L67.13,45.64,86,42Z"/><polygon id="_Контур_98" data-name="&lt;Контур&gt;" class="cls-27" points="51.57 95.82 107.9 62.84 107.9 56.62 51.57 86.91 51.57 95.82"/><g id="_Группа_19" data-name="&lt;Группа&gt;"><path id="_Контур_99" data-name="&lt;Контур&gt;" class="cls-65" d="M99.81,72.78l13.31-7.87c1.77-1,1.93-4.06.36-6.78S109.2,54,107.43,55L94,63Z"/><ellipse id="_Контур_100" data-name="&lt;Контур&gt;" class="cls-66" cx="96.97" cy="67.85" rx="3.7" ry="5.69" transform="translate(-20.93 57.57) rotate(-30)"/><ellipse id="_Контур_101" data-name="&lt;Контур&gt;" class="cls-67" cx="96.33" cy="68.22" rx="2.97" ry="4.56" transform="translate(-21.2 57.3) rotate(-30)"/></g><polygon id="_Контур_102" data-name="&lt;Контур&gt;" class="cls-68" points="73.61 85.63 90.88 75.66 90.88 69.46 73.61 79.43 73.61 85.63"/><polygon id="_Контур_103" data-name="&lt;Контур&gt;" class="cls-67" points="89.92 73.55 89.92 70.71 87.88 71.78 87.88 72.42 87.88 75.19 89.92 75.97 89.92 73.55"/><polygon id="_Контур_104" data-name="&lt;Контур&gt;" class="cls-51" points="90.93 75.39 74.78 84.71 76.74 85.85 92.89 76.52 90.93 75.39"/><polygon id="_Контур_105" data-name="&lt;Контур&gt;" class="cls-43" points="88.92 68.31 72.77 77.63 74.73 78.77 90.88 69.44 88.92 68.31"/><polygon id="_Контур_106" data-name="&lt;Контур&gt;" class="cls-4" points="74.78 84.71 74.78 85.17 76.74 86.3 76.74 85.85 74.78 84.71"/><polygon id="_Контур_107" data-name="&lt;Контур&gt;" class="cls-3" points="92.89 76.98 76.74 86.3 76.74 85.85 92.89 76.52 92.89 76.98"/><polygon id="_Контур_108" data-name="&lt;Контур&gt;" class="cls-51" points="87.96 72.42 71.81 81.74 73.77 82.88 89.92 73.55 87.96 72.42"/><polygon id="_Контур_109" data-name="&lt;Контур&gt;" class="cls-3" points="89.92 74.01 73.77 83.33 73.77 82.88 89.92 73.55 89.92 74.01"/><polygon id="_Контур_110" data-name="&lt;Контур&gt;" class="cls-42" points="76.02 76.6 92.4 67.15 92.4 35.52 76.77 44.81 77.22 49.92 78.06 48.36 76.02 61.49 76.02 76.6"/><path id="_Контур_111" data-name="&lt;Контур&gt;" class="cls-69" d="M49.8,87.6,76,76.6V61.49C70,58.3,49.8,73.26,49.8,73.26Z"/><path id="_Контур_112" data-name="&lt;Контур&gt;" class="cls-70" d="M80.75,86.32l-4.82-2.64a14.26,14.26,0,0,0-1.64-4.86l.54,0C77.87,78.81,79.87,81.34,80.75,86.32Z"/><g id="_Группа_20" data-name="&lt;Группа&gt;"><path id="_Контур_113" data-name="&lt;Контур&gt;" class="cls-71" d="M56.18,92.36a5,5,0,0,0,1.94,4.43c1.63,1.09,5.12,3,5.12,3,4.91-2.83,14.54-12.67,14.54-17.58,0-2.13-4.59-3.75-5.85-4.56-1.63-1-4.1-.89-6.88.71C60.16,81.18,56.18,87.45,56.18,92.36Z"/><path id="_Контур_114" data-name="&lt;Контур&gt;" class="cls-7" d="M61,95.16c0,4.91,4,6.59,8.88,3.76s8.88-9.11,8.88-14-4-6.59-8.88-3.76S61,90.25,61,95.16Z"/><path id="_Контур_115" data-name="&lt;Контур&gt;" class="cls-72" d="M63.61,93.17c0,3.26,2.64,4.37,5.9,2.49s5.9-6,5.9-9.3-2.64-4.37-5.9-2.49S63.61,89.91,63.61,93.17Z"/><path id="_Контур_116" data-name="&lt;Контур&gt;" class="cls-10" d="M64,93.43c0,3.26,2.64,4.37,5.9,2.49s5.9-6,5.9-9.3-2.64-4.37-5.9-2.49S64,90.18,64,93.43Z"/><path id="_Контур_117" data-name="&lt;Контур&gt;" class="cls-73" d="M75.16,87c0,2.92-2.37,6.66-5.29,8.35s-5.29.68-5.29-2.24a5.56,5.56,0,0,1,.09-1,11.45,11.45,0,0,1,5.2-7.36c.21-.12.42-.23.63-.32C73.13,83.2,75.16,84.26,75.16,87Z"/><path id="_Контур_118" data-name="&lt;Контур&gt;" class="cls-12" d="M72.59,86.67v0a8.28,8.28,0,0,1-4,6.31,4.62,4.62,0,0,1-1.17.51,2,2,0,0,1-2.61-1,1.65,1.65,0,0,1-.13-.39,7.72,7.72,0,0,1,.29-1.2,11.88,11.88,0,0,1,4.16-5.66,8.68,8.68,0,0,1,.75-.5l.53-.27.1-.05C71.73,84.36,72.57,85.17,72.59,86.67Z"/><path id="_Контур_119" data-name="&lt;Контур&gt;" class="cls-74" d="M72.23,86.11c0,2.17-2.74,6.12-4.92,7.41l0,0-.09,0a.93.93,0,0,1-.28-.09l-.11,0a13.72,13.72,0,0,1-2-.89,1.65,1.65,0,0,1-.13-.39,7.72,7.72,0,0,1,.29-1.2,11.88,11.88,0,0,1,4.16-5.66,8.68,8.68,0,0,1,.75-.5l.53-.27a13.62,13.62,0,0,1,1.6,1.4h0Z"/><path id="_Контур_120" data-name="&lt;Контур&gt;" class="cls-14" d="M72.74,87.57A7.16,7.16,0,0,1,69.28,93c-1.9,1.1-3.45.44-3.45-1.46a3.63,3.63,0,0,1,.06-.65,7.47,7.47,0,0,1,3.39-4.8l.41-.21C71.41,85.11,72.74,85.8,72.74,87.57Z"/><path id="_Контур_121" data-name="&lt;Контур&gt;" class="cls-75" d="M71.1,88.71a3.49,3.49,0,0,1-1.68,2.65c-.93.53-1.68.22-1.68-.71a1.77,1.77,0,0,1,0-.32A3.64,3.64,0,0,1,69.42,88l.2-.1C70.45,87.51,71.1,87.85,71.1,88.71Z"/><path id="_Контур_122" data-name="&lt;Контур&gt;" class="cls-12" d="M69.66,88.93A1.4,1.4,0,0,1,69,90c-.37.21-.67.09-.67-.28a.71.71,0,0,1,0-.13,1.46,1.46,0,0,1,.66-.94l.08,0C69.4,88.45,69.66,88.59,69.66,88.93Z"/></g><path id="_Контур_123" data-name="&lt;Контур&gt;" class="cls-51" d="M79,58.38a1.25,1.25,0,0,1-1-.46,1.21,1.21,0,0,1-.24-1l1.29-8.58a4.65,4.65,0,0,1,2-2.93l4.38-2.79a1.39,1.39,0,0,1,2.15,1.18v7.72a3.61,3.61,0,0,1-1.8,3.12l-6.24,3.6a1.23,1.23,0,0,1-.61.17Z"/><path id="_Контур_124" data-name="&lt;Контур&gt;" class="cls-76" d="M79.38,57.87l6.24-3.6a3.2,3.2,0,0,0,1.6-2.77V43.77a1,1,0,0,0-1.53-.84l-4.38,2.79a4.2,4.2,0,0,0-1.85,2.65L78.16,57A.82.82,0,0,0,79.38,57.87Z"/><path id="_Контур_125" data-name="&lt;Контур&gt;" class="cls-51" d="M79.31,69.87a1.15,1.15,0,0,1-1.15-1.15v-5.9A1.7,1.7,0,0,1,79,61.35L81.38,60a1.15,1.15,0,0,1,1.73,1v5.9a1.7,1.7,0,0,1-.85,1.47l-2.38,1.37A1.16,1.16,0,0,1,79.31,69.87Z"/><path id="_Контур_126" data-name="&lt;Контур&gt;" class="cls-77" d="M82.06,68l-2.38,1.37a.75.75,0,0,1-1.12-.65v-5.9a1.29,1.29,0,0,1,.65-1.12l2.38-1.37A.75.75,0,0,1,82.7,61v5.9A1.29,1.29,0,0,1,82.06,68Z"/><polygon id="_Контур_127" data-name="&lt;Контур&gt;" class="cls-51" points="107.25 55.02 89.11 65.57 89.11 68.29 89.76 68.69 107.9 55.42 107.25 55.02"/><polygon id="_Контур_128" data-name="&lt;Контур&gt;" class="cls-47" points="107.9 55.42 89.76 65.97 89.76 68.69 107.9 58.14 107.9 55.42"/><g id="_Группа_21" data-name="&lt;Группа&gt;"><path id="_Контур_129" data-name="&lt;Контур&gt;" class="cls-67" d="M94.05,64.77v.43a.56.56,0,0,1-.28.47l-1.84,1.07a.22.22,0,0,1-.33-.19v-.12l1.54-.9a.56.56,0,0,0,.28-.47v-.31l.3-.17A.22.22,0,0,1,94.05,64.77Z"/><path id="_Контур_130" data-name="&lt;Контур&gt;" class="cls-78" d="M93.42,64.75v.31a.56.56,0,0,1-.28.47l-1.54.9v-.31a.56.56,0,0,1,.28-.47Z"/></g><g id="_Группа_22" data-name="&lt;Группа&gt;"><path id="_Контур_131" data-name="&lt;Контур&gt;" class="cls-67" d="M107,57.08v.43a.56.56,0,0,1-.28.47l-1.84,1.07a.22.22,0,0,1-.33-.19v-.12l1.54-.9a.56.56,0,0,0,.28-.47v-.31l.3-.17A.22.22,0,0,1,107,57.08Z"/><path id="_Контур_132" data-name="&lt;Контур&gt;" class="cls-78" d="M106.42,57.07v.31a.56.56,0,0,1-.28.47l-1.54.9v-.31a.56.56,0,0,1,.28-.47Z"/></g><g id="_Группа_23" data-name="&lt;Группа&gt;"><path id="_Контур_133" data-name="&lt;Контур&gt;" class="cls-67" d="M102.72,59.64v.43a.56.56,0,0,1-.28.47l-1.84,1.07a.22.22,0,0,1-.33-.19v-.12l1.54-.9a.56.56,0,0,0,.28-.47v-.31l.3-.17A.22.22,0,0,1,102.72,59.64Z"/><path id="_Контур_134" data-name="&lt;Контур&gt;" class="cls-78" d="M102.09,59.63v.31a.56.56,0,0,1-.28.47l-1.54.9V61a.56.56,0,0,1,.28-.47Z"/></g><g id="_Группа_24" data-name="&lt;Группа&gt;"><path id="_Контур_135" data-name="&lt;Контур&gt;" class="cls-67" d="M98.38,62.21v.43a.56.56,0,0,1-.28.47l-1.84,1.07a.22.22,0,0,1-.33-.19v-.12l1.54-.9a.56.56,0,0,0,.28-.47v-.31l.3-.17A.22.22,0,0,1,98.38,62.21Z"/><path id="_Контур_136" data-name="&lt;Контур&gt;" class="cls-78" d="M97.75,62.19v.31a.56.56,0,0,1-.28.47l-1.54.9v-.31a.56.56,0,0,1,.28-.47Z"/></g><path id="_Контур_137" data-name="&lt;Контур&gt;" class="cls-79" d="M47.24,29.35C47.63,38,79.53,55,77.22,46.67,76.54,44.22,92.4,35.95,92.4,35.95S75.26,30,62.41,18.63C62.41,18.63,47,24.71,47.24,29.35Z"/><path id="_Контур_138" data-name="&lt;Контур&gt;" class="cls-42" d="M85.83,33.26C80.21,30.73,71.89,26.95,64.53,21c-5.4,2.69-15.75,8.3-15.59,11.74a5.49,5.49,0,0,0,.26,1.37c3.59,4.58,11.47,9.83,18,12.87,3,.55,4.87-.15,4.14-2.77C70.73,42,83.16,35.52,85.83,33.26Z"/><path id="_Контур_139" data-name="&lt;Контур&gt;" class="cls-80" d="M85.83,33.26a99,99,0,0,1-21.3-12.84c-5.4,2.69-15.75,8.3-15.59,11.74a5.49,5.49,0,0,0,.26,1.37c3.59,4.58,11.47,9.83,18,12.87,3,.55,4.87-.15,4.14-2.77C70.73,41.48,82.81,34.87,85.83,33.26Z"/><path id="_Контур_140" data-name="&lt;Контур&gt;" class="cls-81" d="M75.72,61.55c-6.06,1.71-23.89,10.12-23.89,10.12L28.78,57.84S37.23,51.61,46,44.17c6.57-5.56,28.64,16,29.93,17.26C75.88,61.46,75.8,61.51,75.72,61.55Z"/><polygon id="_Контур_141" data-name="&lt;Контур&gt;" class="cls-42" points="69.57 58.37 47.24 72.03 30.67 59.45 51.81 42.35 69.57 58.37"/><polygon id="_Контур_142" data-name="&lt;Контур&gt;" class="cls-79" points="71.89 56.9 47.24 71.17 30.67 58.6 51.81 41.5 71.89 56.9"/><polygon id="_Контур_143" data-name="&lt;Контур&gt;" class="cls-80" points="69.75 52.16 45.02 68.83 30.56 62.26 54.95 43.78 69.75 52.16"/><path id="_Контур_144" data-name="&lt;Контур&gt;" class="cls-82" d="M36.94,63.76l3.73-2.92a25.24,25.24,0,0,0-9.53-3.47,3.47,3.47,0,0,0-3.23,1.21l-1.39,1.66Z"/><path id="_Контур_145" data-name="&lt;Контур&gt;" class="cls-49" d="M53,73.43V85.77L49.8,87.6l-.55-13.9,0-.52L36.94,63.76l3.73-2.92C43.3,62,48.27,66.44,51,69A6.16,6.16,0,0,1,53,73.43Z"/><path id="_Контур_146" data-name="&lt;Контур&gt;" class="cls-83" d="M53,73.43V85.77L49.8,87.6l-.55-13.9L52.78,72A6,6,0,0,1,53,73.43Z"/><path id="_Контур_147" data-name="&lt;Контур&gt;" class="cls-84" d="M28.22,59.72l2.87.54A40.28,40.28,0,0,1,43.28,66.9l5.3,5a3.84,3.84,0,0,1,1.22,2.8V95L26,81.3V61.58A1.89,1.89,0,0,1,28.22,59.72Z"/><polygon id="_Контур_148" data-name="&lt;Контур&gt;" class="cls-49" points="18.56 72.01 56.47 93.88 58.82 93.48 59.98 94.15 57.21 95.85 17.23 72.78 18.56 72.01"/><path id="_Контур_149" data-name="&lt;Контур&gt;" class="cls-84" d="M60,94.15l-.85,9-.7.42a2.29,2.29,0,0,1-1.35.34,2.34,2.34,0,0,1-1.1-.3L18.11,81.7a1.72,1.72,0,0,1-.88-1.51V72.78L56,95.14a2.34,2.34,0,0,0,1.1.3,2.29,2.29,0,0,0,1.35-.34Z"/><path id="_Контур_150" data-name="&lt;Контур&gt;" class="cls-83" d="M60,94.15l-.85,9-.7.42a2.29,2.29,0,0,1-1.35.34V95.44a2.29,2.29,0,0,0,1.35-.34Z"/><path id="_Контур_151" data-name="&lt;Контур&gt;" class="cls-85" d="M59.12,101.74l-.7.43a2.39,2.39,0,0,1-2.45,0L17.23,79.85v.35a1.75,1.75,0,0,0,.87,1.51L56,103.56a2.39,2.39,0,0,0,2.45,0l.7-.43.14-1.43Z"/><polygon id="_Контур_152" data-name="&lt;Контур&gt;" class="cls-49" points="23.84 84.99 20.13 82.86 20.13 81.52 23.84 83.65 23.84 84.99"/><g id="_Группа_25" data-name="&lt;Группа&gt;"><path id="_Контур_153" data-name="&lt;Контур&gt;" class="cls-86" d="M70.88,73.08v1c0,1.15,1.43,2.09,3.2,2.09s3.2-.93,3.2-2.09V73Z"/><path id="_Контур_154" data-name="&lt;Контур&gt;" class="cls-87" d="M70.52,71.43v1.16c0,1.28,1.6,2.32,3.56,2.32s3.56-1,3.56-2.32V71.32Z"/><ellipse id="_Контур_155" data-name="&lt;Контур&gt;" class="cls-54" cx="74.08" cy="71.43" rx="3.56" ry="2.32"/><path id="_Контур_156" data-name="&lt;Контур&gt;" class="cls-88" d="M70.88,68.14V71c0,1.15,1.43,2.09,3.2,2.09s3.2-.93,3.2-2.09V68Z"/><path id="_Контур_157" data-name="&lt;Контур&gt;" class="cls-89" d="M70.52,66.09v1.16c0,1.28,1.6,2.32,3.56,2.32s3.56-1,3.56-2.32V66Z"/><ellipse id="_Контур_158" data-name="&lt;Контур&gt;" class="cls-54" cx="74.08" cy="66.09" rx="3.56" ry="2.32"/><path id="_Контур_159" data-name="&lt;Контур&gt;" class="cls-90" d="M70.88,64.8v1c0,1.15,1.43,2.09,3.2,2.09s3.2-.93,3.2-2.09V64.69Z"/><ellipse id="_Контур_160" data-name="&lt;Контур&gt;" class="cls-49" cx="74.08" cy="64.8" rx="3.2" ry="2.09"/></g><g id="_Группа_26" data-name="&lt;Группа&gt;"><path id="_Контур_161" data-name="&lt;Контур&gt;" class="cls-40" d="M80.75,86.32a14.64,14.64,0,0,0-1.57-4.75,4.87,4.87,0,0,0-4.35-2.78l-.54,0c-.31-.55-3.54.15-4,.46a27.32,27.32,0,0,0-7.17,6.28,55.36,55.36,0,0,0-6,8.72l-7.6-4.23c.51-2.65,3-5.88,6.36-8.7,4.36-3.71,10-6.72,14.12-6.72H70a6.07,6.07,0,0,1,2.62.58c1,.5,5.79,2.57,6.67,4h0a5,5,0,0,1,.52,1.42C80.23,82.26,80.44,84.58,80.75,86.32Z"/></g><path id="_Контур_162" data-name="&lt;Контур&gt;" class="cls-41" d="M79.84,80.64c-.22.3-.44.62-.66.93a4.87,4.87,0,0,0-4.35-2.78l-.54,0c-.31-.55-3.54.15-4,.46a27.32,27.32,0,0,0-7.17,6.28l-7.27-4.21c4.36-3.71,10-6.72,14.12-6.72H70a6.07,6.07,0,0,1,2.62.58c1,.5,5.79,2.57,6.67,4h0A5,5,0,0,1,79.84,80.64Z"/><polygon id="_Контур_163" data-name="&lt;Контур&gt;" class="cls-91" points="68.09 76.73 66.54 77.62 65.3 76.91 66.85 76.02 68.09 76.73"/><g id="_Группа_27" data-name="&lt;Группа&gt;"><path id="_Контур_164" data-name="&lt;Контур&gt;" class="cls-42" d="M82.24,86.06l-1.5.26c-.88-5-2.87-7.51-5.92-7.53l-.54,0c-6.15.55-14.45,9.31-15.47,14.66l-1.74.8c1.08-5.68,9.23-15.47,16.14-16.85a8.53,8.53,0,0,1,1.58-.16h0a6,6,0,0,1,4.47,1.94h0C80.57,80.54,81.64,82.68,82.24,86.06Z"/></g><polygon id="_Контур_165" data-name="&lt;Контур&gt;" class="cls-40" points="78.06 48.36 76.02 61.49 59.07 53.29 57.29 52.47 57.01 52.33 46.03 44.17 48.42 30.44 59.94 38.69 61.67 39.69 78.06 48.36"/><polygon id="_Контур_166" data-name="&lt;Контур&gt;" class="cls-92" points="77.25 48.67 75.31 60.04 59.07 52.18 57.28 51.35 57.24 51.33 47.17 43.76 49.09 32.41 50.52 33.24 56.91 36.93 59.94 38.68 61.67 39.68 77.25 48.67"/><polygon id="_Контур_167" data-name="&lt;Контур&gt;" class="cls-93" points="61.09 49.81 59.3 48.98 59.26 48.96 49.19 41.4 47.38 42.49 47.17 43.76 57.24 51.33 57.28 51.35 59.07 52.18 75.31 60.04 75.84 56.95 61.09 49.81"/><path id="_Контур_168" data-name="&lt;Контур&gt;" class="cls-94" d="M56.91,36.93a2.92,2.92,0,0,1-.5.35l-6.24,3.6A.82.82,0,0,1,49,40l1.31-6a3.7,3.7,0,0,1,.26-.8Z"/><g id="_Группа_28" data-name="&lt;Группа&gt;"><polygon id="_Контур_169" data-name="&lt;Контур&gt;" class="cls-95" points="68.87 76.3 67.32 77.19 66.07 76.48 67.63 75.59 68.87 76.3"/><polygon id="_Контур_170" data-name="&lt;Контур&gt;" class="cls-78" points="68.87 76.3 68.87 77.18 67.32 78.08 67.32 77.19 68.87 76.3 68.87 76.3"/><polygon id="_Контур_171" data-name="&lt;Контур&gt;" class="cls-96" points="67.32 77.19 67.32 78.08 66.07 77.36 66.07 76.48 67.32 77.19"/></g><g id="_Группа_29" data-name="&lt;Группа&gt;"><g id="_Группа_30" data-name="&lt;Группа&gt;"><path id="_Контур_172" data-name="&lt;Контур&gt;" class="cls-97" d="M56.86,89.76v1.35a.59.59,0,0,1-.32.53c-.17.09-1.07.76-1.26.65l-3-3.62a1.58,1.58,0,0,1-.8-1.37l-1.59-.66c0-.2,1-.63,1.12-.73l.06,0a.59.59,0,0,1,.59,0l4.41,2.51A1.58,1.58,0,0,1,56.86,89.76Z"/><path id="_Контур_173" data-name="&lt;Контур&gt;" class="cls-60" d="M55.76,90.41v1.35a.59.59,0,0,1-.89.51l-4.41-2.51a1.58,1.58,0,0,1-.8-1.37V87a.59.59,0,0,1,.89-.51L55,89A1.58,1.58,0,0,1,55.76,90.41Z"/></g><path id="_Контур_174" data-name="&lt;Контур&gt;" class="cls-61" d="M52.37,89.3a.76.76,0,0,1-.09.39c-.17.31-.59.37-1.06.09A2.37,2.37,0,0,1,50.05,88c0-.46.26-.71.66-.66a1.25,1.25,0,0,1,.51.17A2.39,2.39,0,0,1,52.37,89.3Z"/><path id="_Контур_175" data-name="&lt;Контур&gt;" class="cls-61" d="M55,90.86a.76.76,0,0,1-.09.39c-.18.31-.59.37-1.07.1a2.42,2.42,0,0,1-1.15-1.83c0-.47.26-.71.65-.67a1.25,1.25,0,0,1,.51.17A2.41,2.41,0,0,1,55,90.86Z"/><path id="_Контур_176" data-name="&lt;Контур&gt;" class="cls-62" d="M52.37,89.3a.76.76,0,0,1-.09.39,1.25,1.25,0,0,1-.51-.17,2.39,2.39,0,0,1-1.15-1.83.76.76,0,0,1,.09-.39,1.25,1.25,0,0,1,.51.17A2.39,2.39,0,0,1,52.37,89.3Z"/><path id="_Контур_177" data-name="&lt;Контур&gt;" class="cls-62" d="M55,90.86a.76.76,0,0,1-.09.39,1.09,1.09,0,0,1-.51-.16,2.43,2.43,0,0,1-1.16-1.83.8.8,0,0,1,.09-.4,1.25,1.25,0,0,1,.51.17A2.41,2.41,0,0,1,55,90.86Z"/></g><polygon id="_Контур_178" data-name="&lt;Контур&gt;" class="cls-40" points="61.67 39.68 61.67 39.69 59.07 52.18 58.78 53.16 57 52.33 57.28 51.35 59.94 38.69 59.94 38.68 61.67 39.68"/><g id="_Группа_31" data-name="&lt;Группа&gt;"><path id="_Контур_179" data-name="&lt;Контур&gt;" class="cls-98" d="M89.11,36.22V65.8c0,.75.94,1.36,2.09,1.36s2.09-.61,2.09-1.36V36.15Z"/><ellipse id="_Контур_180" data-name="&lt;Контур&gt;" class="cls-49" cx="91.2" cy="36.22" rx="2.09" ry="1.36"/><g id="_Группа_32" data-name="&lt;Группа&gt;"><path id="_Контур_181" data-name="&lt;Контур&gt;" class="cls-50" d="M94.65,24.76a2.67,2.67,0,0,1-1,2.31l-.56.46a2,2,0,0,0-.77,1.6v6.76a1.11,1.11,0,0,1-1.09.56,1.13,1.13,0,0,1-1.06-.52V28.58a3.57,3.57,0,0,1,1.32-2.77l2.31-2.08S94.55,23.53,94.65,24.76Z"/><path id="_Контур_182" data-name="&lt;Контур&gt;" class="cls-51" d="M90.58,36.27V28.92a3.57,3.57,0,0,1,1.32-2.77l2.31-2.08a.64.64,0,0,1,.26,0,.66.66,0,0,0-.71-.35L91.45,25.8a3.57,3.57,0,0,0-1.32,2.77v7.35a.84.84,0,0,0,.48.4Z"/><path id="_Контур_183" data-name="&lt;Контур&gt;" class="cls-47" d="M94.29,26.3l-1.23,1.11a3.57,3.57,0,0,0-1.32,2.77v6.15a.85.85,0,0,0,.55-.46V29.12a2,2,0,0,1,.77-1.6l.56-.46A2.85,2.85,0,0,0,94.29,26.3Z"/></g></g><path id="_Контур_184" data-name="&lt;Контур&gt;" class="cls-99" d="M47.24,29.35A7.65,7.65,0,0,0,48.08,31c5.49,6.69,30,17.32,30,17.32l-.84-1.69S53.78,35.95,47.24,29.35Z"/><g id="_Группа_33" data-name="&lt;Группа&gt;"><path id="_Контур_185" data-name="&lt;Контур&gt;" class="cls-100" d="M57.63,27.64l-.81.52c-.22.14-.24.38-.47.25L56,28.12c-.25-.14-.52-.67-.28-.82l.81-.51c.22-.14,1.1-.53,1.33-.39l.09,0C58.2,26.58,57.87,27.49,57.63,27.64Z"/><path id="_Контур_186" data-name="&lt;Контур&gt;" class="cls-101" d="M58.78,27.75l-1.29.82a.8.8,0,0,1-.82,0l-.31-.18c-.28-.16.09-1.31.35-1.47l.92-.08c.25-.15.63-.55.89-.4l.21.16A.9.9,0,0,1,58.78,27.75Z"/><path id="_Контур_187" data-name="&lt;Контур&gt;" class="cls-102" d="M58.45,27l-.81.52a.71.71,0,0,1-.73,0l-.1,0a.38.38,0,0,1,0-.65l.81-.51a.71.71,0,0,1,.73,0l.09,0A.38.38,0,0,1,58.45,27Z"/></g><g id="_Группа_34" data-name="&lt;Группа&gt;"><path id="_Контур_188" data-name="&lt;Контур&gt;" class="cls-100" d="M65,31.93l-.81.52c-.22.14-.24.38-.47.25l-.36-.29c-.25-.14-.52-.67-.28-.82l.81-.51c.22-.14,1.1-.53,1.33-.39l.09,0C65.59,30.87,65.26,31.78,65,31.93Z"/><path id="_Контур_189" data-name="&lt;Контур&gt;" class="cls-101" d="M66.17,32l-1.29.82a.8.8,0,0,1-.82,0l-.31-.18c-.28-.16.09-1.31.35-1.47l.92-.08c.25-.15.63-.55.89-.4l.21.16A.9.9,0,0,1,66.17,32Z"/><path id="_Контур_190" data-name="&lt;Контур&gt;" class="cls-102" d="M65.85,31.32l-.81.52a.71.71,0,0,1-.73,0l-.1,0a.38.38,0,0,1,0-.65l.81-.51a.71.71,0,0,1,.73,0l.09,0A.38.38,0,0,1,65.85,31.32Z"/></g><g id="_Группа_35" data-name="&lt;Группа&gt;"><path id="_Контур_191" data-name="&lt;Контур&gt;" class="cls-100" d="M72.42,36.22l-.81.52c-.22.14-.24.38-.47.25l-.36-.29c-.25-.14-.52-.67-.28-.82l.81-.51c.22-.14,1.1-.53,1.33-.39l.09,0C73,35.15,72.66,36.07,72.42,36.22Z"/><path id="_Контур_192" data-name="&lt;Контур&gt;" class="cls-101" d="M73.57,36.33l-1.29.82a.8.8,0,0,1-.82,0L71.15,37c-.28-.16.09-1.31.35-1.47l.92-.08c.25-.15.63-.55.89-.4l.21.16A.9.9,0,0,1,73.57,36.33Z"/><path id="_Контур_193" data-name="&lt;Контур&gt;" class="cls-102" d="M73.24,35.61l-.81.52a.71.71,0,0,1-.73,0l-.1,0a.38.38,0,0,1,0-.65l.81-.51a.71.71,0,0,1,.73,0l.09,0A.38.38,0,0,1,73.24,35.61Z"/></g><path id="_Контур_194" data-name="&lt;Контур&gt;" class="cls-103" d="M39.22,66.14a.49.49,0,0,1-.14.38c-.29.28-.93.25-1.7-.12-1-.5-1.82-1.43-1.82-2.07,0-.47.42-.65,1-.54a3.12,3.12,0,0,1,.8.28C38.4,64.58,39.22,65.51,39.22,66.14Z"/><path id="_Контур_195" data-name="&lt;Контур&gt;" class="cls-104" d="M28.84,76.78,46.36,86.86a.83.83,0,0,0,1.24-.72V75.28a2.05,2.05,0,0,0-1-1.78L29.05,63.43a.83.83,0,0,0-1.24.72V75A2.05,2.05,0,0,0,28.84,76.78Z"/><path id="_Контур_196" data-name="&lt;Контур&gt;" class="cls-83" d="M46.78,86.67,29.26,76.6a2.05,2.05,0,0,1-1-1.78V64a.81.81,0,0,1,.29-.63.82.82,0,0,0-.71.82V75a2.05,2.05,0,0,0,1,1.78L46.36,86.86a.82.82,0,0,0,1-.09A.81.81,0,0,1,46.78,86.67Z"/><g id="_Группа_36" data-name="&lt;Группа&gt;"><path id="_Контур_197" data-name="&lt;Контур&gt;" class="cls-42" d="M107.29,55.85,92.4,64.43V39.33a18.81,18.81,0,0,1,1.28-6.89c1.7-4.11,8.89-13.81,13.61-15.12Z"/></g><polygon id="_Контур_198" data-name="&lt;Контур&gt;" class="cls-49" points="31.25 89.25 27.55 87.13 27.55 85.78 31.25 87.91 31.25 89.25"/><polygon id="_Контур_199" data-name="&lt;Контур&gt;" class="cls-49" points="38.67 93.52 34.96 91.39 34.96 90.04 38.67 92.17 38.67 93.52"/><polygon id="_Контур_200" data-name="&lt;Контур&gt;" class="cls-49" points="46.08 97.78 42.38 95.64 42.38 94.3 46.08 96.43 46.08 97.78"/><polygon id="_Контур_201" data-name="&lt;Контур&gt;" class="cls-49" points="53.5 102.04 49.79 99.91 49.79 98.56 53.5 100.69 53.5 102.04"/><g id="_Группа_37" data-name="&lt;Группа&gt;"><path id="_Контур_202" data-name="&lt;Контур&gt;" class="cls-105" d="M30.75,88.37a2.13,2.13,0,0,1-1-1.64v-3c0-.59.44-.81,1-.5L38,87.46a2.13,2.13,0,0,1,1,1.64v3c0,.59-.44.81-1,.5Z"/><path id="_Контур_203" data-name="&lt;Контур&gt;" class="cls-106" d="M31,87.87a2.13,2.13,0,0,1-1-1.64v-3c0-.59.44-.81,1-.5L38.31,87a2.13,2.13,0,0,1,1,1.64v3c0,.59-.44.81-1,.5Z"/><path id="_Контур_204" data-name="&lt;Контур&gt;" class="cls-107" d="M30.75,88a2.13,2.13,0,0,1-1-1.64v-3c0-.59.44-.81,1-.5L38,87.05a2.13,2.13,0,0,1,1,1.64v3c0,.59-.44.81-1,.5Z"/><path id="_Контур_205" data-name="&lt;Контур&gt;" class="cls-108" d="M38,92l-7.27-4.25a1.73,1.73,0,0,1-.8-1.34v-3c0-.48.36-.66.8-.4L38,87.25a1.73,1.73,0,0,1,.8,1.34v3C38.82,92.08,38.47,92.26,38,92Z"/><g id="_Группа_38" data-name="&lt;Группа&gt;"><path id="_Контур_206" data-name="&lt;Контур&gt;" class="cls-109" d="M38.82,88.57A1.73,1.73,0,0,0,38,87.25L30.75,83c-.43-.25-.78-.08-.79.39Z"/><path id="_Контур_207" data-name="&lt;Контур&gt;" class="cls-109" d="M30,86.44a1.73,1.73,0,0,0,.79,1.31L38,92c.43.25.78.08.79-.39Z"/></g></g><g id="_Группа_39" data-name="&lt;Группа&gt;"><path id="_Контур_208" data-name="&lt;Контур&gt;" class="cls-110" d="M98.52,51.1a1.15,1.15,0,0,1-1.15-1.15V37.86a1.7,1.7,0,0,1,.85-1.47L100.59,35a1.15,1.15,0,0,1,1.73,1V48.1a1.7,1.7,0,0,1-.85,1.47l-2.38,1.37A1.16,1.16,0,0,1,98.52,51.1Z"/><path id="_Контур_209" data-name="&lt;Контур&gt;" class="cls-42" d="M101.35,49.22,99,50.59a.75.75,0,0,1-1.12-.65V37.86a1.29,1.29,0,0,1,.65-1.12l2.38-1.37A.75.75,0,0,1,102,36V48.1A1.29,1.29,0,0,1,101.35,49.22Z"/></g><g id="_Группа_40" data-name="&lt;Группа&gt;"><path id="_Контур_210" data-name="&lt;Контур&gt;" class="cls-101" d="M57.91,71.38l-.73.28a.52.52,0,0,0-.32.5v.27a.38.38,0,0,0,.48.36l.73-.28a.52.52,0,0,0,.32-.5v-.27A.38.38,0,0,0,57.91,71.38Z"/><path id="_Контур_211" data-name="&lt;Контур&gt;" class="cls-102" d="M58.09,71.58l-.73.28a.52.52,0,0,0-.32.5v.27a.38.38,0,0,0,.48.36l.73-.28a.52.52,0,0,0,.32-.5v-.27A.38.38,0,0,0,58.09,71.58Z"/></g><g id="_Группа_41" data-name="&lt;Группа&gt;"><path id="_Контур_212" data-name="&lt;Контур&gt;" class="cls-111" d="M47.6,84.66v.9c-4-1.94-14-7.1-19.82-10.88v-.91C33.61,77.54,43.55,82.7,47.6,84.66Z"/><path id="_Контур_213" data-name="&lt;Контур&gt;" class="cls-111" d="M47.6,82.95v.91c-4-2-14-7.11-19.82-10.89v-.91C33.61,75.83,43.55,81,47.6,82.95Z"/><path id="_Контур_214" data-name="&lt;Контур&gt;" class="cls-111" d="M47.6,81.23v.91A223.93,223.93,0,0,1,27.78,71.25v-.91A224,224,0,0,0,47.6,81.23Z"/><path id="_Контур_215" data-name="&lt;Контур&gt;" class="cls-111" d="M47.6,79.46v.91A224,224,0,0,1,27.78,69.49v-.85A224.32,224.32,0,0,0,47.6,79.46Z"/><g id="_Группа_42" data-name="&lt;Группа&gt;"><path id="_Контур_216" data-name="&lt;Контур&gt;" class="cls-84" d="M47.6,85.13V86c-4.46-2.2-14.33-7.41-19.82-10.94v-.91C33.27,77.72,43.14,82.94,47.6,85.13Z"/><path id="_Контур_217" data-name="&lt;Контур&gt;" class="cls-84" d="M47.6,83.41v.91c-4-2-14-7.11-19.82-10.89v-.91C33.61,76.3,43.55,81.46,47.6,83.41Z"/><path id="_Контур_218" data-name="&lt;Контур&gt;" class="cls-84" d="M47.6,81.71v.91c-4.46-2.2-14.33-7.41-19.82-10.94v-.91C33.27,74.3,43.14,79.52,47.6,81.71Z"/><path id="_Контур_219" data-name="&lt;Контур&gt;" class="cls-84" d="M47.6,79.93v.91A223.93,223.93,0,0,1,27.78,70V69A223.93,223.93,0,0,0,47.6,79.93Z"/></g><path id="_Контур_220" data-name="&lt;Контур&gt;" class="cls-111" d="M47.6,77.68v.91A224,224,0,0,1,27.78,67.71V66.8A224,224,0,0,0,47.6,77.68Z"/><path id="_Контур_221" data-name="&lt;Контур&gt;" class="cls-111" d="M47.6,76v.91c-4-2-14-7.11-19.82-10.9v-.91C33.61,68.87,43.55,74,47.6,76Z"/><path id="_Контур_222" data-name="&lt;Контур&gt;" class="cls-111" d="M47.54,75.14A224,224,0,0,1,27.82,64.31.73.73,0,0,1,28,64a.74.74,0,0,1,.37-.19l4.14,2.58.11.07c2,1.16,4.06,2.28,6,3.3l.15.08c2.61,1.28,8,4.31,8,4.31a1.59,1.59,0,0,1,.51.47A1.49,1.49,0,0,1,47.54,75.14Z"/><g id="_Группа_43" data-name="&lt;Группа&gt;"><path id="_Контур_223" data-name="&lt;Контур&gt;" class="cls-84" d="M47.6,78.17v.91c-4.46-2.2-14.33-7.41-19.82-10.94v-.91C33.27,70.76,43.14,76,47.6,78.17Z"/><path id="_Контур_224" data-name="&lt;Контур&gt;" class="cls-84" d="M47.6,76.45v.91c-4-2-14-7.11-19.82-10.9v-.91C33.61,69.34,43.55,74.5,47.6,76.45Z"/><path id="_Контур_225" data-name="&lt;Контур&gt;" class="cls-84" d="M47.6,75.59v.05c-4.46-2.19-14.33-7.4-19.82-10.93v-.19a.53.53,0,0,1,0-.21A.73.73,0,0,1,28,64c1.46.93,3,1.93,4.51,2.82l.11.07c2,1.16,4.06,2.28,6,3.3l.15.08c1.86,1,6.92,3.56,8.46,4.33a1.49,1.49,0,0,1,.28.57A1.63,1.63,0,0,1,47.6,75.59Z"/></g></g><g id="_Группа_44" data-name="&lt;Группа&gt;"><g id="_Группа_45" data-name="&lt;Группа&gt;"><path id="_Контур_226" data-name="&lt;Контур&gt;" class="cls-112" d="M64.82,57.86l-.44.3a1.19,1.19,0,0,1-1,0l-4.71-2.11c-.59-.27-.65-.7-.13-.93l.43-.19a1.26,1.26,0,0,1,.92,0l4.65,2C65.08,57.23,65.2,57.61,64.82,57.86Z"/><g id="_Группа_46" data-name="&lt;Группа&gt;"><polygon id="_Контур_227" data-name="&lt;Контур&gt;" class="cls-80" points="62.78 58.07 63.16 58.19 65.14 57.06 64.83 56.89 62.78 58.07"/><polygon id="_Контур_228" data-name="&lt;Контур&gt;" class="cls-80" points="61.78 57.69 62.15 57.8 64.14 56.67 63.83 56.51 61.78 57.69"/><polygon id="_Контур_229" data-name="&lt;Контур&gt;" class="cls-80" points="60.77 57.31 61.15 57.42 63.13 56.29 62.82 56.13 60.77 57.31"/><polygon id="_Контур_230" data-name="&lt;Контур&gt;" class="cls-80" points="59.77 56.93 60.15 57.04 62.13 55.91 61.82 55.74 59.77 56.93"/><polygon id="_Контур_231" data-name="&lt;Контур&gt;" class="cls-80" points="58.83 56.51 59.21 56.63 61.19 55.5 60.88 55.33 58.83 56.51"/><polygon id="_Контур_232" data-name="&lt;Контур&gt;" class="cls-80" points="58.04 56.01 58.41 56.12 60.4 54.99 60.09 54.82 58.04 56.01"/></g></g><g id="_Группа_47" data-name="&lt;Группа&gt;"><path id="_Контур_233" data-name="&lt;Контур&gt;" class="cls-112" d="M48.19,48.42l.45-.28a.83.83,0,0,1,.86.06L53,50.83a.54.54,0,0,1-.12,1l-.42.18a.86.86,0,0,1-.78-.1l-3.48-2.55C47.82,49.08,47.81,48.66,48.19,48.42Z"/><g id="_Группа_48" data-name="&lt;Группа&gt;"><polygon id="_Контур_234" data-name="&lt;Контур&gt;" class="cls-80" points="49.98 48.35 49.69 48.2 47.72 49.26 47.95 49.47 49.98 48.35"/><polygon id="_Контур_235" data-name="&lt;Контур&gt;" class="cls-80" points="50.75 48.84 50.45 48.69 48.49 49.75 48.71 49.95 50.75 48.84"/><polygon id="_Контур_236" data-name="&lt;Контур&gt;" class="cls-80" points="51.52 49.33 51.22 49.17 49.25 50.23 49.48 50.44 51.52 49.33"/><polygon id="_Контур_237" data-name="&lt;Контур&gt;" class="cls-80" points="52.28 49.81 51.98 49.66 50.02 50.72 50.24 50.93 52.28 49.81"/><polygon id="_Контур_238" data-name="&lt;Контур&gt;" class="cls-80" points="52.98 50.33 52.69 50.18 50.72 51.24 50.95 51.45 52.98 50.33"/><polygon id="_Контур_239" data-name="&lt;Контур&gt;" class="cls-80" points="53.54 50.93 53.24 50.78 51.28 51.84 51.5 52.05 53.54 50.93"/></g></g></g></g></g></g></g></svg>