<svg xmlns="http://www.w3.org/2000/svg" xmlns:xlink="http://www.w3.org/1999/xlink" viewBox="0 0 141.98 110.59"><defs><style>.cls-1{isolation:isolate;}.cls-2,.cls-50,.cls-68{mix-blend-mode:multiply;}.cls-2{fill:url(#Ѕезым_нный_градиент_2);}.cls-3{fill:#3a4044;}.cls-4{fill:#727272;}.cls-5{fill:#423131;}.cls-6{fill:url(#Ѕезым_нный_градиент_35);}.cls-7{fill:#424852;}.cls-8{fill:url(#Ѕезым_нный_градиент_40);}.cls-9{fill:#d7d9db;}.cls-10{fill:url(#Ѕезым_нный_градиент_34);}.cls-11{fill:#e3e5e6;}.cls-12{fill:url(#Ѕезым_нный_градиент_30);}.cls-13{fill:#d9dbdd;}.cls-14{fill:url(#Ѕезым_нный_градиент_34-2);}.cls-15{fill:#2a313c;}.cls-16{fill:url(#Ѕезым_нный_градиент_35-2);}.cls-17{fill:url(#Ѕезым_нный_градиент_40-2);}.cls-18{fill:url(#Ѕезым_нный_градиент_34-3);}.cls-19{fill:url(#Ѕезым_нный_градиент_30-2);}.cls-20{fill:url(#Ѕезым_нный_градиент_34-4);}.cls-21{fill:#9f4b12;}.cls-22{fill:#ae571d;}.cls-23{fill:#ed843e;}.cls-24{fill:#de7123;}.cls-25{fill:#c7621e;}.cls-26{fill:#538b94;}.cls-27{fill:#b5d6c7;}.cls-28{fill:#d6770b;}.cls-29{fill:#272e39;}.cls-30{fill:#73818e;}.cls-31{fill:#99afba;}.cls-32{fill:#c2601b;}.cls-33{fill:#e9b736;}.cls-34{fill:#525c61;}.cls-35{fill:#20232b;}.cls-36{fill:#9faaab;}.cls-37{fill:#cd661f;}.cls-38{fill:#e9be50;}.cls-39{fill:#d2a329;}.cls-40{fill:#bdcedf;}.cls-41{fill:#e2e9ec;}.cls-42{fill:#ff8118;}.cls-43{fill:#d36518;}.cls-44{fill:#555d69;}.cls-45{fill:#6ba9b0;}.cls-46{fill:#4b4146;}.cls-47{fill:#cf6621;}.cls-48{fill:#ed9f51;}.cls-49{fill:#bd7217;}.cls-50{fill:#8b8b8b;}.cls-51{fill:#f9fcfc;}.cls-52{fill:#e0e0e0;}.cls-53{fill:#f8ffff;}.cls-54{fill:#6bb5ff;}.cls-55{fill:#dde2e6;}.cls-56{fill:#b2b2b2;}.cls-57{fill:#929da6;}.cls-58{fill:#d1d1d1;}.cls-59{fill:#ed8333;}.cls-60{fill:#edbd51;}.cls-61{fill:#cbe0e0;}.cls-62{fill:#a6b8b6;}.cls-63{fill:#859494;}.cls-64{fill:#ff5440;}.cls-65{fill:#ffb81b;}.cls-66{fill:#e1b01b;}.cls-67{fill:#bf8f00;}.cls-69{fill:#deb159;}</style><linearGradient id="Ѕезым_нный_градиент_2" x1="43.51" y1="-16551.12" x2="91.92" y2="-16467.27" gradientTransform="matrix(1, 0, 0, -1, 0, -16440.1)" gradientUnits="userSpaceOnUse"><stop offset="0" stop-color="#ededed"/><stop offset="1" stop-color="#e6e6e6"/></linearGradient><linearGradient id="Ѕезым_нный_градиент_35" x1="117.8" y1="-16496.46" x2="109.07" y2="-16511.58" gradientTransform="matrix(1, 0, 0, -1, 0, -16440.1)" gradientUnits="userSpaceOnUse"><stop offset="0.13" stop-color="#68737b"/><stop offset="0.13" stop-color="#6c7880"/><stop offset="0.44" stop-color="#6c7880"/><stop offset="0.44" stop-color="#50585e"/><stop offset="0.84" stop-color="#50585e"/><stop offset="0.84" stop-color="#3b4145"/></linearGradient><linearGradient id="Ѕезым_нный_градиент_40" x1="118.75" y1="-16500.48" x2="113" y2="-16510.42" gradientTransform="matrix(1, 0, 0, -1, 0, -16440.1)" gradientUnits="userSpaceOnUse"><stop offset="0.13" stop-color="#dbe0e3"/><stop offset="0.13" stop-color="#e0e5e8"/><stop offset="0.44" stop-color="#e0e5e8"/><stop offset="0.44" stop-color="#c0c4c6"/><stop offset="0.84" stop-color="#c0c4c6"/><stop offset="0.84" stop-color="#a8abad"/></linearGradient><linearGradient id="Ѕезым_нный_градиент_34" x1="118.68" y1="-16501.26" x2="113.55" y2="-16510.14" gradientTransform="matrix(1, 0, 0, -1, 0, -16440.1)" gradientUnits="userSpaceOnUse"><stop offset="0.16" stop-color="#797b7d"/><stop offset="0.16" stop-color="#919496"/><stop offset="0.56" stop-color="#919496"/><stop offset="0.56" stop-color="#b1b5b8"/><stop offset="0.87" stop-color="#b1b5b8"/><stop offset="0.87" stop-color="#acb0b3"/></linearGradient><linearGradient id="Ѕезым_нный_градиент_30" x1="116.95" y1="-16501.79" x2="113.37" y2="-16508.01" gradientTransform="matrix(1, 0, 0, -1, 0, -16440.1)" gradientUnits="userSpaceOnUse"><stop offset="0.13" stop-color="#acb0b3"/><stop offset="0.13" stop-color="#b1b5b8"/><stop offset="0.44" stop-color="#b1b5b8"/><stop offset="0.44" stop-color="#919496"/><stop offset="0.84" stop-color="#919496"/><stop offset="0.84" stop-color="#797b7d"/></linearGradient><linearGradient id="Ѕезым_нный_градиент_34-2" x1="116.62" y1="-16503.97" x2="114.99" y2="-16506.81" xlink:href="#Ѕезым_нный_градиент_34"/><linearGradient id="Ѕезым_нный_градиент_35-2" x1="57.98" y1="-16531.01" x2="49.25" y2="-16546.13" xlink:href="#Ѕезым_нный_градиент_35"/><linearGradient id="Ѕезым_нный_градиент_40-2" x1="58.79" y1="-16534.95" x2="53.05" y2="-16544.89" xlink:href="#Ѕезым_нный_градиент_40"/><linearGradient id="Ѕезым_нный_градиент_34-3" x1="58.72" y1="-16535.73" x2="53.59" y2="-16544.61" xlink:href="#Ѕезым_нный_градиент_34"/><linearGradient id="Ѕезым_нный_градиент_30-2" x1="56.99" y1="-16536.27" x2="53.41" y2="-16542.48" xlink:href="#Ѕезым_нный_градиент_30"/><linearGradient id="Ѕезым_нный_градиент_34-4" x1="56.67" y1="-16538.44" x2="55.03" y2="-16541.28" xlink:href="#Ѕезым_нный_градиент_34"/></defs><title>i5</title><g class="cls-1"><g id="Слой_2" data-name="Слой 2"><g id="Layer_1" data-name="Layer 1"><g id="_Группа_" data-name="&lt;Группа&gt;"><path id="_Контур_" data-name="&lt;Контур&gt;" class="cls-2" d="M142,56.55,71.06,15.13,13.84,48.61l3.63,2.09.31-.18,1.15.67L6.06,59.82S5.42,67,8.79,72.71l-1.22.23S1.39,79.76.26,82.18c-.51,1.09-.41,1.6,1.6,3.12l1,.74c.93.64,2,1.3,3,1.93l.06,0c.11.06.22.14.36.21l.07,0c1.07.63,2.16,1.25,3.22,1.82l1.2.63,1.28.66-1.32.76,30.17,16.61c3.49,1.92,6.54,2.68,10,.68Z"/><g id="_Группа_2" data-name="&lt;Группа&gt;"><path id="_Контур_2" data-name="&lt;Контур&gt;" class="cls-3" d="M34.42,59a19.14,19.14,0,0,0,.35-2.16,3.66,3.66,0,0,0-.13-2,3.3,3.3,0,0,0-1.58-1.46,1.23,1.23,0,0,0-1.08,0,34,34,0,0,0-.91,4.87,27.29,27.29,0,0,0-.23,3,9.75,9.75,0,0,0,.05,2.68,1.91,1.91,0,0,0,.86.93.61.61,0,0,0,.46.15c.23-.06.3-.33.34-.56.16,0,1.23,1,1.34.79.33-.59-.62-2.06-.24-2.62s.87-.73,1-1.25a.6.6,0,0,0-.16-.68c-.22-.19-.48-.07-.37-.49S34.34,59.38,34.42,59Z"/><polygon id="_Контур_3" data-name="&lt;Контур&gt;" class="cls-4" points="66.35 96.69 64.36 95.53 61.22 95 66.35 98.01 66.35 96.69"/><path id="_Контур_4" data-name="&lt;Контур&gt;" class="cls-5" d="M119.56,61.83c0,.15,0,.31.06.46l1.38-.69,3.13,1.61c0-.15,0-.31-.06-.46L123.32,59c-.27-1.62-1.7-2.16-3.21-1.28l-1.22.71Z"/><g id="_Группа_3" data-name="&lt;Группа&gt;"><path id="_Контур_5" data-name="&lt;Контур&gt;" class="cls-6" d="M106.07,67.26a3.71,3.71,0,0,0,1.43,3.26c1.2.81,3.77,2.2,3.77,2.2C114.88,70.63,122,63.39,122,59.78c0-1.57-3.38-2.76-4.31-3.35-1.2-.77-3-.65-5.06.52C109,59,106.07,63.65,106.07,67.26Z"/><path id="_Контур_6" data-name="&lt;Контур&gt;" class="cls-7" d="M109.6,69.32c0,3.61,2.93,4.85,6.54,2.76s6.54-6.7,6.54-10.32-2.93-4.85-6.54-2.76S109.6,65.71,109.6,69.32Z"/><path id="_Контур_7" data-name="&lt;Контур&gt;" class="cls-8" d="M111.53,67.86c0,2.4,1.94,3.22,4.34,1.83s4.34-4.45,4.34-6.85-1.94-3.22-4.34-1.83S111.53,65.46,111.53,67.86Z"/><path id="_Контур_8" data-name="&lt;Контур&gt;" class="cls-9" d="M111.8,68.05c0,2.4,1.94,3.22,4.34,1.83s4.34-4.45,4.34-6.85-1.94-3.22-4.34-1.83S111.8,65.66,111.8,68.05Z"/><path id="_Контур_9" data-name="&lt;Контур&gt;" class="cls-10" d="M120,63.3a8.08,8.08,0,0,1-3.9,6.14c-2.14,1.24-3.9.5-3.9-1.65a4.09,4.09,0,0,1,.07-.73,8.43,8.43,0,0,1,3.83-5.41l.46-.24C118.54,60.52,120,61.3,120,63.3Z"/><path id="_Контур_10" data-name="&lt;Контур&gt;" class="cls-11" d="M118.14,63.07v0a6.1,6.1,0,0,1-2.95,4.65,3.4,3.4,0,0,1-.86.37,1.46,1.46,0,0,1-1.92-.77,1.21,1.21,0,0,1-.1-.29,5.68,5.68,0,0,1,.22-.89A8.75,8.75,0,0,1,115.59,62a6.4,6.4,0,0,1,.55-.37l.39-.2.07,0C117.51,61.38,118.13,62,118.14,63.07Z"/><path id="_Контур_11" data-name="&lt;Контур&gt;" class="cls-12" d="M117.88,62.67c0,1.59-2,4.51-3.62,5.45h0l-.07,0A.68.68,0,0,1,114,68l-.08,0a10.1,10.1,0,0,1-1.47-.66,1.21,1.21,0,0,1-.1-.29,5.68,5.68,0,0,1,.22-.89A8.75,8.75,0,0,1,115.59,62a6.4,6.4,0,0,1,.55-.37l.39-.2a10,10,0,0,1,1.18,1h0Z"/><path id="_Контур_12" data-name="&lt;Контур&gt;" class="cls-13" d="M118.25,63.74a5.27,5.27,0,0,1-2.54,4c-1.4.81-2.54.33-2.54-1.07a2.68,2.68,0,0,1,0-.48,5.5,5.5,0,0,1,2.5-3.53l.3-.16C117.27,61.92,118.25,62.43,118.25,63.74Z"/><path id="_Контур_13" data-name="&lt;Контур&gt;" class="cls-14" d="M117,64.58a2.57,2.57,0,0,1-1.24,2c-.68.39-1.24.16-1.24-.52a1.3,1.3,0,0,1,0-.23,2.68,2.68,0,0,1,1.22-1.72L116,64C116.57,63.69,117,63.94,117,64.58Z"/><path id="_Контур_14" data-name="&lt;Контур&gt;" class="cls-11" d="M116,64.74a1,1,0,0,1-.5.78c-.27.16-.5.06-.5-.21a.52.52,0,0,1,0-.09,1.07,1.07,0,0,1,.49-.69l.06,0C115.79,64.39,116,64.49,116,64.74Z"/></g><path id="_Контур_15" data-name="&lt;Контур&gt;" class="cls-15" d="M59.83,94.32,47.14,102.4s2.54-9,2.75-9.07S64.44,82.43,59.83,94.32Z"/><path id="_Контур_16" data-name="&lt;Контур&gt;" class="cls-5" d="M59.49,94.85c0,.15,0,.31.06.46l1.38-.69L64,96.23c0-.15,0-.32-.06-.46L63.24,92c-.27-1.62-1.7-2.16-3.21-1.28l-1.22.71Z"/><g id="_Группа_4" data-name="&lt;Группа&gt;"><path id="_Контур_17" data-name="&lt;Контур&gt;" class="cls-16" d="M47.3,100.92c0,1.55-.65,3.47.24,4.07,1.2.81,3.77,2.2,3.77,2.2C54.92,105.1,62,97.86,62,94.25c0-1.57-3.38-2.76-4.31-3.35-1.2-.77-3-.65-5.06.52A10.9,10.9,0,0,0,47.3,100.92Z"/><path id="_Контур_18" data-name="&lt;Контур&gt;" class="cls-7" d="M49.64,103.79c0,3.61,2.93,4.85,6.54,2.76s6.54-6.7,6.54-10.32-2.93-4.85-6.54-2.76S49.64,100.18,49.64,103.79Z"/><path id="_Контур_19" data-name="&lt;Контур&gt;" class="cls-17" d="M51.58,102.33c0,2.4,1.94,3.22,4.34,1.83s4.34-4.45,4.34-6.85-1.94-3.22-4.34-1.83S51.58,99.93,51.58,102.33Z"/><path id="_Контур_20" data-name="&lt;Контур&gt;" class="cls-9" d="M51.84,102.52c0,2.4,1.94,3.22,4.34,1.83s4.34-4.45,4.34-6.85-1.94-3.22-4.34-1.83S51.84,100.13,51.84,102.52Z"/><path id="_Контур_21" data-name="&lt;Контур&gt;" class="cls-18" d="M60.08,97.77a8.08,8.08,0,0,1-3.9,6.14c-2.14,1.24-3.9.5-3.9-1.65a4.09,4.09,0,0,1,.07-.73,8.43,8.43,0,0,1,3.83-5.41l.46-.24C58.58,95,60.08,95.77,60.08,97.77Z"/><path id="_Контур_22" data-name="&lt;Контур&gt;" class="cls-11" d="M58.19,97.55v0a6.1,6.1,0,0,1-2.95,4.65,3.4,3.4,0,0,1-.86.37,1.46,1.46,0,0,1-1.92-.77,1.21,1.21,0,0,1-.1-.29,5.69,5.69,0,0,1,.22-.89,8.75,8.75,0,0,1,3.06-4.16,6.42,6.42,0,0,1,.55-.36l.39-.2.07,0C57.55,95.85,58.17,96.44,58.19,97.55Z"/><path id="_Контур_23" data-name="&lt;Контур&gt;" class="cls-19" d="M57.92,97.14c0,1.59-2,4.51-3.62,5.45h0l-.07,0a.68.68,0,0,1-.21-.07l-.08,0a10.09,10.09,0,0,1-1.47-.66,1.21,1.21,0,0,1-.1-.29,5.69,5.69,0,0,1,.22-.89,8.75,8.75,0,0,1,3.06-4.16,6.42,6.42,0,0,1,.55-.36l.39-.2a10,10,0,0,1,1.18,1h0Z"/><path id="_Контур_24" data-name="&lt;Контур&gt;" class="cls-13" d="M58.29,98.21a5.27,5.27,0,0,1-2.54,4c-1.4.81-2.54.33-2.54-1.07a2.67,2.67,0,0,1,0-.48,5.5,5.5,0,0,1,2.5-3.53l.3-.16C57.32,96.4,58.29,96.91,58.29,98.21Z"/><path id="_Контур_25" data-name="&lt;Контур&gt;" class="cls-20" d="M57.09,99a2.57,2.57,0,0,1-1.24,2c-.68.39-1.24.16-1.24-.52a1.3,1.3,0,0,1,0-.23,2.68,2.68,0,0,1,1.22-1.72l.15-.08C56.61,98.16,57.09,98.41,57.09,99Z"/><path id="_Контур_26" data-name="&lt;Контур&gt;" class="cls-11" d="M56,99.21a1,1,0,0,1-.5.78c-.27.16-.5.06-.5-.21a.52.52,0,0,1,0-.09,1.07,1.07,0,0,1,.49-.69l.06,0C55.84,98.86,56,99,56,99.21Z"/></g><polygon id="_Контур_27" data-name="&lt;Контур&gt;" class="cls-21" points="50.61 34.97 81.22 53.61 81.22 87.97 50.61 69.33 50.61 34.97"/><polygon id="_Контур_28" data-name="&lt;Контур&gt;" class="cls-22" points="50.07 36.21 80.94 54.01 80.94 50.74 50.07 32.94 50.07 36.21"/><path id="_Контур_29" data-name="&lt;Контур&gt;" class="cls-23" d="M57.86,79.66,31.42,64.43l-.73.05s-8,4.84-10.43,7.59a6.09,6.09,0,0,0-1.71,4.14S25.95,83.15,45,91.45Z"/><path id="_Контур_30" data-name="&lt;Контур&gt;" class="cls-21" d="M40.46,85.91A48.87,48.87,0,0,1,47,79.67l3.14-2.3L33.36,67.51s-8.46,7.18-9.25,9.17S40.46,85.91,40.46,85.91Z"/><path id="_Контур_31" data-name="&lt;Контур&gt;" class="cls-24" d="M40.46,85.91A48.87,48.87,0,0,1,47,79.67l3.14-2.3L33.36,67.51s-8.09,8-8.88,10S40.46,85.91,40.46,85.91Z"/><path id="_Контур_32" data-name="&lt;Контур&gt;" class="cls-25" d="M47.91,86.79,46,88.46C27,80.16,19.61,73.23,19.61,73.23s0-.27.06-.41a6.34,6.34,0,0,0-1.11,3.4S25.95,83.15,45,91.45L48.8,88A4,4,0,0,1,47.91,86.79Z"/><path id="_Контур_33" data-name="&lt;Контур&gt;" class="cls-7" d="M30.53,64.63a42.57,42.57,0,0,0,10.7,8.66A145.17,145.17,0,0,0,56.89,80l1-.34L31.42,64.43l-.73.05Z"/><path id="_Контур_34" data-name="&lt;Контур&gt;" class="cls-7" d="M57.86,79.65c2.94-7.7,5-15,5-15A91.21,91.21,0,0,1,36.44,49.4a40.27,40.27,0,0,0-5,15s5.67,7.3,26.44,15.22Z"/><path id="_Контур_35" data-name="&lt;Контур&gt;" class="cls-26" d="M61.88,64.71c-.6,1.87-2,7.72-4.63,14.3C44.4,74.07,37.8,69.48,34.42,66.7c-.62-.5-1.12-.93-1.5-1.3-.54-.51-.87-.86-1-1.06a80.7,80.7,0,0,1,5-14.07l.46.37c.19.16.42.34.66.52,1.28,1,3.23,2.48,5.74,4.12l.81.53A90,90,0,0,0,61.88,64.71Z"/><path id="_Контур_36" data-name="&lt;Контур&gt;" class="cls-27" d="M44.51,55.81a4.91,4.91,0,0,1-1.95,3.4l-5.07,3.89-1,2a2.61,2.61,0,0,1-1,1l-1,.57c-.62-.5-1.12-.93-1.5-1.3l0-.35s1.44-8.16,3.81-13.23L38,51.16c1.28,1,3.23,2.48,5.74,4.12Z"/><path id="_Контур_37" data-name="&lt;Контур&gt;" class="cls-28" d="M18.56,76.22C25.59,82.5,45,91.45,45,91.45l-.12,9.73.34,4.71-26.72-17-.06-3.23Z"/><path id="_Контур_38" data-name="&lt;Контур&gt;" class="cls-29" d="M18.48,76.86C29.25,85.33,44.94,92,44.94,92l-.13,7.85C24.64,90.47,18.37,84.58,18.37,84.58l-.09-4.09Z"/><path id="_Контур_39" data-name="&lt;Контур&gt;" class="cls-30" d="M42.94,97.07q0,.48,0,.91c-4.72-2.2-16-7.79-23.28-13.53h0c0-.32,0-.63,0-.94l.05,0C26.92,89.29,38.22,94.87,42.94,97.07Z"/><path id="_Контур_40" data-name="&lt;Контур&gt;" class="cls-30" d="M42.94,95.36q0,.48,0,.91c-4.72-2.2-16-7.79-23.28-13.53h0c0-.32,0-.63,0-.94l.05,0C26.92,87.57,38.22,93.15,42.94,95.36Z"/><path id="_Контур_41" data-name="&lt;Контур&gt;" class="cls-30" d="M42.94,93.64q0,.48,0,.91c-4.72-2.21-16-7.79-23.28-13.53h0c0-.32,0-.63,0-.94l.05,0C26.92,85.85,38.22,91.43,42.94,93.64Z"/><path id="_Контур_42" data-name="&lt;Контур&gt;" class="cls-30" d="M42.94,91.87q0,.48,0,.91c-4.72-2.2-16-7.79-23.28-13.53h0c0-.32,0-.56,0-.87l.05,0C26.92,84.15,38.22,89.66,42.94,91.87Z"/><g id="_Группа_5" data-name="&lt;Группа&gt;"><path id="_Контур_43" data-name="&lt;Контур&gt;" class="cls-31" d="M44.8,98.46q0,.48,0,.91c-4.72-2.2-17.88-8.71-25.14-14.45l-1.32-1c0-.32,0-.63,0-.94l1.34,1C26.92,89.75,40.08,96.26,44.8,98.46Z"/><path id="_Контур_44" data-name="&lt;Контур&gt;" class="cls-31" d="M42.94,95.82q0,.48,0,.91c-4.72-2.2-16-7.79-23.28-13.53h0c0-.32,0-.63,0-.94l.05,0C26.92,88,38.22,93.62,42.94,95.82Z"/><path id="_Контур_45" data-name="&lt;Контур&gt;" class="cls-31" d="M44.8,95q0,.48,0,.91c-4.72-2.2-17.88-8.71-25.14-14.45,0,0-1.42-1-1.37-1,0-.32,0-.61,0-.92l1.34,1C26.92,86.32,40.08,92.82,44.8,95Z"/><path id="_Контур_46" data-name="&lt;Контур&gt;" class="cls-31" d="M42.94,92.33q0,.48,0,.91c-4.72-2.2-16-7.79-23.28-13.53h0c0-.32,0-.63,0-.94l.05,0C26.92,84.55,38.22,90.13,42.94,92.33Z"/></g><path id="_Контур_47" data-name="&lt;Контур&gt;" class="cls-32" d="M136.93,18.77v37l-1.87,1.08-9.38,5.41h0l-1.55.89c0-.15,0-.31-.06-.47l-.22-1.12L123.32,59c-.27-1.62-1.7-2.16-3.22-1.29l-7.82,4.52a7.52,7.52,0,0,0-3.21,5l-.52,3.27-.21,1.31-.07.55v.05l-1.55.89L81.21,88v-37Z"/><path id="_Контур_48" data-name="&lt;Контур&gt;" class="cls-33" d="M136.93,42.17V55.82l-1.87,1.08-9.38,5.41h0l-1.55.89c0-.15,0-.31-.06-.47l-.22-1.12L123.32,59c-.27-1.62-1.7-2.16-3.22-1.29l-7.82,4.52a7.52,7.52,0,0,0-3.21,5l-.52,3.27-.21,1.31-.07.55v.05l-1.55.89L81.21,88V74.33Z"/><polygon id="_Контур_49" data-name="&lt;Контур&gt;" class="cls-34" points="106.96 70.58 108.56 69.67 108.34 70.98 108.27 71.53 108.27 71.58 106.72 72.47 81.21 87.19 80.22 86.2 80.31 84.8 81.21 85.45 106.96 70.58"/><path id="_Контур_50" data-name="&lt;Контур&gt;" class="cls-34" d="M136.93,50.41,140,52.3l-14.31,9.22h0l-1.55.89c0-.15,0-.31-.06-.47l-.22-1.12,1.58-.91,11.5-6.65Z"/><polygon id="_Контур_51" data-name="&lt;Контур&gt;" class="cls-35" points="106.96 71.37 108.27 71.58 108.27 72.31 108.27 72.36 106.72 73.26 81.21 87.98 80.15 87.34 80.26 85.54 81.21 86.23 106.96 71.37"/><path id="_Контур_52" data-name="&lt;Контур&gt;" class="cls-35" d="M140,52.3V54l-14.31,8.26h0l-1.55.89c0-.15,0-1.66,0-1.66l1.3-.83Z"/><path id="_Контур_53" data-name="&lt;Контур&gt;" class="cls-33" d="M80.42,83.29l-.26,3.65-16.1,9.29h0c0-.15,0-.3-.06-.46l-.19-1-.35-1.72L63.24,92c-.27-1.62-1.7-2.16-3.21-1.29l-7.82,4.52a7.52,7.52,0,0,0-3.21,5l-.72,4.44,0,.21a3.77,3.77,0,0,0-.05.45s0,.05,0,.08l-.74.43.79-.58-3,1.74s-.15-1.14-.29-2.87c0-.6-.08-3.57-.12-4.28,0-.32,0-.66-.05-1,0-.9,0-1.88,0-2.85v-.06c0-.11,0-.22,0-.32v-.05c0-1,.06-2,.14-3,0-.39.08-.75.12-1.11a6.08,6.08,0,0,1,1.71-4.14c2.39-2.76,11.16-7.65,11.16-7.65h0l5.91,1Z"/><polygon id="_Контур_54" data-name="&lt;Контур&gt;" class="cls-36" points="80.15 86.94 64.49 95.97 64.49 93.48 80.31 84.4 80.15 86.94"/><path id="_Контур_55" data-name="&lt;Контур&gt;" class="cls-33" d="M80.42,70.2V83.29L65.17,91.91,64,92.55s.25-1.32-1.62-3.06c-1.5-1.39-4.13-3.06-5.19-4.77a3.59,3.59,0,0,1-.36-.75,2,2,0,0,1,0-1.16,32.78,32.78,0,0,1,1-3.16c2.93-7.69,5-15,5-15l11-10.35,3.66,1.5Z"/><path id="_Контур_56" data-name="&lt;Контур&gt;" class="cls-37" d="M80.42,70.2,63.78,80.61l-4.18,2.62L58.42,84l-1.2.76L50.3,89.14,46.5,91.52l-.8.27c0-.39-.74,0-.7-.34a6.08,6.08,0,0,1,1.71-4.14c2.39-2.76,11.16-7.65,11.16-7.65h0c2.93-7.69,5-15,5-15l11-10.35,3.66,1.5Z"/><path id="_Контур_57" data-name="&lt;Контур&gt;" class="cls-38" d="M63.45,93.07,63.24,92c-.27-1.62-1.7-2.16-3.21-1.29l-7.82,4.52a7.52,7.52,0,0,0-3.21,5l-.72,4.44-.68.44q0-.27.06-.58v-.24L47.38,100a8.1,8.1,0,0,1,1.83-5.79,6,6,0,0,1,1.58-1.37l8.52-4.92c1.41-.81,2.75-.51,3.3.69a2.37,2.37,0,0,1,.21.7Z"/><path id="_Контур_58" data-name="&lt;Контур&gt;" class="cls-39" d="M64.79,95.79l-.74.43c0-.15,0-.3-.06-.46l-.19-1-.35-1.72L63.24,92c-.27-1.62-1.7-2.16-3.21-1.29l-7.82,4.52a7.52,7.52,0,0,0-3.21,5l-.72,4.44,0,.21a3.77,3.77,0,0,0-.05.45s0,.05,0,.08l-.74.43c0-.18,0-.37.06-.57l.14-1,.69-5a8.23,8.23,0,0,1,3.51-5.44l8.53-4.92a2.64,2.64,0,0,1,2.22-.34,2.07,2.07,0,0,1,1.29,1.73l.66,4,.17,1C64.76,95.46,64.77,95.63,64.79,95.79Z"/><path id="_Контур_59" data-name="&lt;Контур&gt;" class="cls-40" d="M47.56,91v2a1.6,1.6,0,0,1-.79,1.38l-.63.37-.5.28a2.08,2.08,0,0,1-1.88.09l-4.25-1.93v-.92a20.27,20.27,0,0,1,.14-2.08l.65.29L44,92.15a1.92,1.92,0,0,0,1.76-.09l.41-.23Z"/><path id="_Контур_60" data-name="&lt;Контур&gt;" class="cls-41" d="M47.56,91v2a1.6,1.6,0,0,1-.14.66l-.53.3-.5.28a2.08,2.08,0,0,1-1.88.09l-4.25-1.93v-.92c0-.47,0-.74,0-1L44,92.15a1.92,1.92,0,0,0,1.76-.09l.41-.23Z"/><path id="_Контур_61" data-name="&lt;Контур&gt;" class="cls-40" d="M47.56,94.25V96.3a1.47,1.47,0,0,1-.12.6,1.51,1.51,0,0,1-.64.72l-.66.39-.5.28a2,2,0,0,1-1.88.08l-4.22-1.93c0-.91,0-1.88,0-2.86v-.06l.75.33L44,95.43a2,2,0,0,0,1.72-.1l.44-.25Z"/><path id="_Контур_62" data-name="&lt;Контур&gt;" class="cls-41" d="M47.56,94.25V96.3a1.47,1.47,0,0,1-.12.6l-.55.32-.5.28a2,2,0,0,1-1.88.08l-4.22-1.93c0-.58,0-1.2,0-1.82L44,95.43a2,2,0,0,0,1.72-.1l.44-.25Z"/><path id="_Контур_63" data-name="&lt;Контур&gt;" class="cls-42" d="M47.56,91v2a1.58,1.58,0,0,1-.79,1.38l-.63.37V91.82Z"/><path id="_Контур_64" data-name="&lt;Контур&gt;" class="cls-42" d="M47.56,94.25V96.3a1.51,1.51,0,0,1-.76,1.32l-.66.39V95.07Z"/><polygon id="_Контур_65" data-name="&lt;Контур&gt;" class="cls-43" points="80.94 54.01 137.97 21.08 137.97 17.8 80.94 50.74 80.94 54.01"/><path id="_Контур_66" data-name="&lt;Контур&gt;" class="cls-23" d="M62.88,64.52l.07.06-.07.05S46.65,58.69,36.44,49.41c0,0,13-9.53,14.83-8.7,11,5.1,24.35,13.83,26.23,15.07C75.28,55.54,62.88,64.52,62.88,64.52Z"/><polygon id="_Контур_67" data-name="&lt;Контур&gt;" class="cls-23" points="50.07 32.94 80.94 50.74 137.97 17.8 107.11 0 50.07 32.94"/><path id="_Контур_68" data-name="&lt;Контур&gt;" class="cls-40" d="M22.25,80.23v2.92l-4-2.81v-.05c0-1,.06-2,.14-3l.67.51Z"/><path id="_Контур_69" data-name="&lt;Контур&gt;" class="cls-40" d="M22.25,83.48v2.93l-3.93-2.83c0-.9,0-1.88,0-2.85v-.06l.77.55Z"/><path id="_Контур_70" data-name="&lt;Контур&gt;" class="cls-41" d="M22.25,80.23v1.59l-3.2-2.27V79.5c0-.55,0-1.11.05-1.67Z"/><path id="_Контур_71" data-name="&lt;Контур&gt;" class="cls-41" d="M22.25,83.48v1.6l-3.17-2.29c0-.51,0-1,0-1.57Z"/><path id="_Контур_72" data-name="&lt;Контур&gt;" class="cls-35" d="M43.11,103.61,16.83,87.94v2.65a2.54,2.54,0,0,0,1.13,2c8.92,6.83,25.14,14.68,25.14,14.68a3.7,3.7,0,0,0,3.71,0l1.78-.9v-3.64l-1.78.9A3.7,3.7,0,0,1,43.11,103.61Z"/><path id="_Контур_73" data-name="&lt;Контур&gt;" class="cls-34" d="M18.45,86.48l0,1.49c6.33,6.74,25.11,14.61,25.11,14.61a2.5,2.5,0,0,0,2.41.06l1.35-.51,1.29.59-1.8.92a3.66,3.66,0,0,1-3.66,0S27,97.32,17.24,88.65a.87.87,0,0,1,0-1.42Z"/><path id="_Контур_74" data-name="&lt;Контур&gt;" class="cls-38" d="M121.86,56.69a3.67,3.67,0,0,1,1.41-.27,4,4,0,0,1,.67.07l.58-.78a3.23,3.23,0,0,0-4.64-2.09L110.57,59a9,9,0,0,0-3.85,6l-.85,6.26.7.38.14,1.66.59-2.12.07-.55.21-1.31.52-3.27a7.52,7.52,0,0,1,3.21-5l7.82-4.52A2.07,2.07,0,0,1,121.86,56.69Z"/><path id="_Контур_75" data-name="&lt;Контур&gt;" class="cls-39" d="M125.68,62.3h0l-1.55.89c0-.15,0-.31-.06-.47l-.22-1.12L123.32,59c-.27-1.62-1.7-2.16-3.22-1.29l-7.82,4.52a7.52,7.52,0,0,0-3.21,5l-.52,3.27-.21,1.31-.07.55v.05l-1.55.89c0-.2,0-.41.07-.63l.17-1.26.73-5.24a9,9,0,0,1,3.85-6l9.31-5.38c1.81-1,3.51-.41,3.84,1.52l.73,4.4.18,1.06C125.64,61.94,125.66,62.12,125.68,62.3Z"/><g id="_Группа_6" data-name="&lt;Группа&gt;"><path id="_Контур_76" data-name="&lt;Контур&gt;" class="cls-44" d="M62.71,81.25A1.29,1.29,0,0,1,61.43,80V78.68a28.65,28.65,0,0,1,3.38-14.12L74.27,60a1.54,1.54,0,0,1,2.27,1.36l1,6.18a5.32,5.32,0,0,1-2.05,4.18L67,77l-.93,2a2.91,2.91,0,0,1-1.18,1.28l-1.53.88A1.28,1.28,0,0,1,62.71,81.25Z"/><path id="_Контур_77" data-name="&lt;Контур&gt;" class="cls-45" d="M75.3,71.27l-8.83,5.37-1,2.05a2.39,2.39,0,0,1-1,1l-1.48.85a.78.78,0,0,1-1.17-.68V78.64s.9-9.87,3.21-13.58l9.44-4.51a1,1,0,0,1,1.53.91l1.08,6.07A4.73,4.73,0,0,1,75.3,71.27Z"/></g><g id="_Группа_7" data-name="&lt;Группа&gt;"><path id="_Контур_78" data-name="&lt;Контур&gt;" class="cls-46" d="M48.29,78.28l-.43.29a1.15,1.15,0,0,1-1,0l-4.54-2c-.57-.26-.62-.67-.12-.9l.42-.19a1.21,1.21,0,0,1,.89,0l4.48,2C48.54,77.67,48.65,78,48.29,78.28Z"/><g id="_Группа_8" data-name="&lt;Группа&gt;"><polygon id="_Контур_79" data-name="&lt;Контур&gt;" class="cls-47" points="46.32 78.48 46.69 78.59 48.6 77.51 48.3 77.34 46.32 78.48"/><polygon id="_Контур_80" data-name="&lt;Контур&gt;" class="cls-47" points="45.35 78.12 45.72 78.23 47.63 77.14 47.33 76.98 45.35 78.12"/><polygon id="_Контур_81" data-name="&lt;Контур&gt;" class="cls-47" points="44.39 77.75 44.75 77.86 46.66 76.77 46.36 76.61 44.39 77.75"/><polygon id="_Контур_82" data-name="&lt;Контур&gt;" class="cls-47" points="43.42 77.38 43.78 77.49 45.7 76.4 45.4 76.24 43.42 77.38"/><polygon id="_Контур_83" data-name="&lt;Контур&gt;" class="cls-47" points="42.52 76.98 42.88 77.09 44.79 76 44.49 75.84 42.52 76.98"/><polygon id="_Контур_84" data-name="&lt;Контур&gt;" class="cls-47" points="41.75 76.5 42.12 76.61 44.03 75.52 43.73 75.36 41.75 76.5"/></g></g><g id="_Группа_9" data-name="&lt;Группа&gt;"><path id="_Контур_85" data-name="&lt;Контур&gt;" class="cls-46" d="M32.27,69.19l.43-.27a.8.8,0,0,1,.83.06l3.39,2.53a.52.52,0,0,1-.11,1l-.4.17a.83.83,0,0,1-.75-.09L32.3,70.11C31.91,69.82,31.9,69.42,32.27,69.19Z"/><g id="_Группа_10" data-name="&lt;Группа&gt;"><polygon id="_Контур_86" data-name="&lt;Контур&gt;" class="cls-47" points="34 69.12 33.71 68.97 31.82 70 32.04 70.19 34 69.12"/><polygon id="_Контур_87" data-name="&lt;Контур&gt;" class="cls-47" points="34.73 69.59 34.45 69.44 32.56 70.47 32.77 70.66 34.73 69.59"/><polygon id="_Контур_88" data-name="&lt;Контур&gt;" class="cls-47" points="35.47 70.06 35.19 69.91 33.29 70.94 33.51 71.13 35.47 70.06"/><polygon id="_Контур_89" data-name="&lt;Контур&gt;" class="cls-47" points="36.21 70.53 35.92 70.38 34.03 71.4 34.25 71.6 36.21 70.53"/><polygon id="_Контур_90" data-name="&lt;Контур&gt;" class="cls-47" points="36.89 71.03 36.6 70.88 34.71 71.9 34.93 72.1 36.89 71.03"/><polygon id="_Контур_91" data-name="&lt;Контур&gt;" class="cls-47" points="37.42 71.61 37.14 71.46 35.24 72.48 35.46 72.68 37.42 71.61"/></g></g><g id="_Группа_11" data-name="&lt;Группа&gt;"><path id="_Контур_92" data-name="&lt;Контур&gt;" class="cls-48" d="M44.14,100.82a1.13,1.13,0,0,0-.65-1l-3.61-1.65-.7-.32a.57.57,0,0,0-.77.54v.43a1.12,1.12,0,0,0,.65,1l4.31,2a.57.57,0,0,0,.77-.54Z"/><path id="_Контур_93" data-name="&lt;Контур&gt;" class="cls-49" d="M43.86,101.33l-4.31-2a1.12,1.12,0,0,1-.65-1V97.9a.5.5,0,0,1,0-.12.59.59,0,0,0-.51.57v.43a1.12,1.12,0,0,0,.65,1l4.31,2a.56.56,0,0,0,.76-.4A.54.54,0,0,1,43.86,101.33Z"/></g><g id="_Группа_12" data-name="&lt;Группа&gt;"><path id="_Контур_94" data-name="&lt;Контур&gt;" class="cls-48" d="M23.36,89.4a1.42,1.42,0,0,0-.61-1.15l-2.55-1.72-.66-.44a.46.46,0,0,0-.72.4v.44a1.41,1.41,0,0,0,.61,1.14l3.21,2.17a.46.46,0,0,0,.72-.41Z"/><path id="_Контур_95" data-name="&lt;Контур&gt;" class="cls-49" d="M23.1,89.87l-3.21-2.17a1.41,1.41,0,0,1-.61-1.14v-.44a.47.47,0,0,1,0-.11.46.46,0,0,0-.48.48v.44a1.41,1.41,0,0,0,.61,1.14l3.21,2.17a.44.44,0,0,0,.71-.27A.56.56,0,0,1,23.1,89.87Z"/></g><g id="_Группа_13" data-name="&lt;Группа&gt;"><path id="_Контур_96" data-name="&lt;Контур&gt;" class="cls-50" d="M25,98.79a2,2,0,0,1-.86-1.59v-3c0-.59.39-.84.86-.56l6.41,3.82A2,2,0,0,1,32.22,99v3c0,.59-.39.84-.86.56Z"/><path id="_Контур_97" data-name="&lt;Контур&gt;" class="cls-51" d="M25.2,98.26a2,2,0,0,1-.86-1.59v-3c0-.59.39-.84.86-.56l6.41,3.82a2,2,0,0,1,.86,1.59v3c0,.59-.39.84-.86.56Z"/><path id="_Контур_98" data-name="&lt;Контур&gt;" class="cls-52" d="M25,98.38a2,2,0,0,1-.86-1.59v-3c0-.59.39-.84.86-.56L31.35,97a2,2,0,0,1,.86,1.59v3c0,.59-.39.84-.86.56Z"/><path id="_Контур_99" data-name="&lt;Контур&gt;" class="cls-53" d="M31.36,102l-6.41-3.82a1.65,1.65,0,0,1-.7-1.29v-3c0-.48.31-.69.7-.45l6.41,3.82a1.65,1.65,0,0,1,.7,1.29v3C32.06,102,31.74,102.22,31.36,102Z"/><g id="_Группа_14" data-name="&lt;Группа&gt;"><path id="_Контур_100" data-name="&lt;Контур&gt;" class="cls-54" d="M32.05,98.49a1.65,1.65,0,0,0-.7-1.27L24.95,93.4c-.38-.23-.69,0-.7.44Z"/><path id="_Контур_101" data-name="&lt;Контур&gt;" class="cls-54" d="M24.25,96.9a1.65,1.65,0,0,0,.7,1.27L31.36,102c.38.23.69,0,.7-.44Z"/></g></g><g id="_Группа_15" data-name="&lt;Группа&gt;"><polygon id="_Контур_102" data-name="&lt;Контур&gt;" class="cls-55" points="80.18 86.89 64.79 95.79 66.35 96.69 81.73 87.79 80.18 86.89"/><polygon id="_Контур_103" data-name="&lt;Контур&gt;" class="cls-56" points="81.73 89.11 66.35 98.01 66.35 96.69 81.73 87.79 81.73 89.11"/></g><g id="_Группа_16" data-name="&lt;Группа&gt;"><polygon id="_Контур_104" data-name="&lt;Контур&gt;" class="cls-55" points="75.06 75.9 74.84 75.77 78.1 73.83 78.32 73.95 75.06 75.9"/><polygon id="_Контур_105" data-name="&lt;Контур&gt;" class="cls-4" points="75.33 77.53 74.84 77.27 74.84 75.77 75.06 75.9 75.33 77.53"/><polygon id="_Контур_106" data-name="&lt;Контур&gt;" class="cls-36" points="78.32 73.95 75.06 75.9 75.33 77.53 78.59 75.58 78.32 73.95"/></g><g id="_Группа_17" data-name="&lt;Группа&gt;"><path id="_Контур_107" data-name="&lt;Контур&gt;" class="cls-57" d="M29.44,88a3.11,3.11,0,0,0,1.68,2.12c.92.51,1.66.37,1.65-.29a3.11,3.11,0,0,0-1.68-2.12C30.17,87.17,29.44,87.3,29.44,88Z"/><path id="_Контур_108" data-name="&lt;Контур&gt;" class="cls-58" d="M29.09,88.23a3.11,3.11,0,0,0,1.68,2.12c.92.51,1.66.37,1.65-.29a3.11,3.11,0,0,0-1.68-2.12C29.82,87.43,29.08,87.56,29.09,88.23Z"/></g><g id="_Группа_18" data-name="&lt;Группа&gt;"><path id="_Контур_109" data-name="&lt;Контур&gt;" class="cls-21" d="M49.67,46.1l-.81.52c-.22.14-.24.38-.47.25L48,46.58c-.25-.14-.52-.67-.28-.82l.82-.52c.22-.14,1.11-.53,1.34-.39l.09,0C50.25,45,49.91,46,49.67,46.1Z"/><path id="_Контур_110" data-name="&lt;Контур&gt;" class="cls-59" d="M50.83,46.21l-1.3.83a.8.8,0,0,1-.82,0l-.31-.18c-.28-.16.09-1.31.36-1.48l.93-.08c.25-.15.63-.55.89-.4l.21.16A.9.9,0,0,1,50.83,46.21Z"/><path id="_Контур_111" data-name="&lt;Контур&gt;" class="cls-60" d="M50.5,45.49l-.81.52A.71.71,0,0,1,49,46l-.1,0a.38.38,0,0,1,0-.66l.82-.52a.71.71,0,0,1,.73,0l.09,0A.38.38,0,0,1,50.5,45.49Z"/></g><g id="_Группа_19" data-name="&lt;Группа&gt;"><path id="_Контур_112" data-name="&lt;Контур&gt;" class="cls-21" d="M57.1,50.4l-.81.52c-.22.14-.24.38-.47.25l-.36-.29c-.25-.14-.52-.67-.28-.82l.82-.52c.22-.14,1.11-.53,1.34-.39l.09,0C57.67,49.34,57.34,50.26,57.1,50.4Z"/><path id="_Контур_113" data-name="&lt;Контур&gt;" class="cls-59" d="M58.25,50.52l-1.3.83a.8.8,0,0,1-.82,0l-.31-.18c-.28-.16.09-1.31.36-1.48l.93-.08c.25-.15.63-.55.89-.4l.21.16A.9.9,0,0,1,58.25,50.52Z"/><path id="_Контур_114" data-name="&lt;Контур&gt;" class="cls-60" d="M57.92,49.79l-.81.52a.71.71,0,0,1-.73,0l-.1,0a.38.38,0,0,1,0-.66l.82-.52a.71.71,0,0,1,.73,0l.09,0A.38.38,0,0,1,57.92,49.79Z"/></g><g id="_Группа_20" data-name="&lt;Группа&gt;"><path id="_Контур_115" data-name="&lt;Контур&gt;" class="cls-21" d="M64.52,54.71l-.81.52c-.22.14-.24.38-.47.25l-.36-.29c-.25-.14-.52-.67-.28-.82l.82-.52c.22-.14,1.11-.53,1.34-.39l.09,0C65.09,53.64,64.76,54.56,64.52,54.71Z"/><path id="_Контур_116" data-name="&lt;Контур&gt;" class="cls-59" d="M65.67,54.82l-1.3.83a.8.8,0,0,1-.82,0l-.31-.18c-.28-.16.09-1.31.36-1.48l.93-.08c.25-.15.63-.55.89-.4l.21.16A.9.9,0,0,1,65.67,54.82Z"/><path id="_Контур_117" data-name="&lt;Контур&gt;" class="cls-60" d="M65.35,54.1l-.81.52a.71.71,0,0,1-.73,0l-.1,0a.38.38,0,0,1,0-.66l.82-.52a.71.71,0,0,1,.73,0l.09,0A.38.38,0,0,1,65.35,54.1Z"/></g><g id="_Группа_21" data-name="&lt;Группа&gt;"><polygon id="_Контур_118" data-name="&lt;Контур&gt;" class="cls-61" points="22.31 92.3 23.31 91.69 22.19 90.78 21.19 91.4 22.31 92.3"/><polygon id="_Контур_119" data-name="&lt;Контур&gt;" class="cls-62" points="22.31 97.22 23.31 96.6 23.31 91.69 22.31 92.3 22.31 97.22"/><polygon id="_Контур_120" data-name="&lt;Контур&gt;" class="cls-63" points="21.19 91.4 22.31 92.3 22.31 97.22 21.19 96.32 21.19 91.4"/></g><g id="_Группа_22" data-name="&lt;Группа&gt;"><polygon id="_Контур_121" data-name="&lt;Контур&gt;" class="cls-61" points="35.52 99.94 36.57 99.01 35.4 98.45 34.35 99.38 35.52 99.94"/><polygon id="_Контур_122" data-name="&lt;Контур&gt;" class="cls-62" points="35.52 104.86 36.57 103.93 36.57 99.01 35.52 99.94 35.52 104.86"/><polygon id="_Контур_123" data-name="&lt;Контур&gt;" class="cls-63" points="34.35 99.38 35.52 99.94 35.52 104.86 34.35 104.3 34.35 99.38"/></g><g id="_Группа_23" data-name="&lt;Группа&gt;"><path id="_Контур_124" data-name="&lt;Контур&gt;" class="cls-21" d="M85.24,49.84v.44a.56.56,0,0,1-.28.47L83.1,51.82a.22.22,0,0,1-.33-.19v-.12l1.55-.9a.56.56,0,0,0,.28-.47v-.31l.3-.17A.22.22,0,0,1,85.24,49.84Z"/><path id="_Контур_125" data-name="&lt;Контур&gt;" class="cls-64" d="M84.6,49.82v.31a.56.56,0,0,1-.28.47l-1.55.9V51.2a.56.56,0,0,1,.28-.48Z"/></g><g id="_Группа_24" data-name="&lt;Группа&gt;"><path id="_Контур_126" data-name="&lt;Контур&gt;" class="cls-21" d="M110.69,35v.44a.56.56,0,0,1-.28.47L108.55,37a.22.22,0,0,1-.33-.19v-.12l1.55-.9a.56.56,0,0,0,.28-.47V35l.3-.17A.22.22,0,0,1,110.69,35Z"/><path id="_Контур_127" data-name="&lt;Контур&gt;" class="cls-65" d="M110.06,35v.31a.56.56,0,0,1-.28.47l-1.55.9v-.31a.56.56,0,0,1,.28-.48Z"/></g><g id="_Группа_25" data-name="&lt;Группа&gt;"><path id="_Контур_128" data-name="&lt;Контур&gt;" class="cls-21" d="M136.14,20.18v.44a.56.56,0,0,1-.28.47L134,22.16a.22.22,0,0,1-.33-.19v-.12l1.55-.9a.56.56,0,0,0,.28-.47v-.31l.3-.17A.22.22,0,0,1,136.14,20.18Z"/><path id="_Контур_129" data-name="&lt;Контур&gt;" class="cls-64" d="M135.51,20.16v.31a.56.56,0,0,1-.28.47l-1.55.9v-.31a.56.56,0,0,1,.28-.48Z"/></g><g id="_Группа_26" data-name="&lt;Группа&gt;"><path id="_Контур_130" data-name="&lt;Контур&gt;" class="cls-38" d="M86.15,80.21v.44a.56.56,0,0,1-.28.47L84,82.2a.22.22,0,0,1-.33-.19v-.12l1.55-.9a.56.56,0,0,0,.28-.47V80.2l.3-.17A.22.22,0,0,1,86.15,80.21Z"/><path id="_Контур_131" data-name="&lt;Контур&gt;" class="cls-64" d="M85.52,80.2v.31a.56.56,0,0,1-.28.47l-1.55.9v-.31A.56.56,0,0,1,84,81.1Z"/></g><g id="_Группа_27" data-name="&lt;Группа&gt;"><path id="_Контур_132" data-name="&lt;Контур&gt;" class="cls-38" d="M133.68,52.52V53a.56.56,0,0,1-.28.47l-1.85,1.08a.22.22,0,0,1-.33-.19v-.12l1.55-.9a.56.56,0,0,0,.28-.47v-.31l.3-.17A.22.22,0,0,1,133.68,52.52Z"/><path id="_Контур_133" data-name="&lt;Контур&gt;" class="cls-64" d="M133,52.51v.31a.56.56,0,0,1-.28.47l-1.55.9v-.31a.56.56,0,0,1,.28-.48Z"/></g><g id="_Группа_28" data-name="&lt;Группа&gt;"><path id="_Контур_134" data-name="&lt;Контур&gt;" class="cls-59" d="M55.75,86.76l-.73.38a.61.61,0,0,0-.32.54V88a.33.33,0,0,0,.48.3l.73-.39a.61.61,0,0,0,.32-.54v-.27A.33.33,0,0,0,55.75,86.76Z"/><path id="_Контур_135" data-name="&lt;Контур&gt;" class="cls-60" d="M55.94,86.93l-.73.38a.61.61,0,0,0-.32.54v.27a.33.33,0,0,0,.48.3L56.1,88a.61.61,0,0,0,.32-.54v-.27A.33.33,0,0,0,55.94,86.93Z"/></g><g id="_Группа_29" data-name="&lt;Группа&gt;"><g id="_Группа_30" data-name="&lt;Группа&gt;"><path id="_Составной_контур_" data-name="&lt;Составной контур&gt;" class="cls-66" d="M91.18,53.81c1.77-1,3-.42,3,1.5a6.07,6.07,0,0,1-3,5l-2.36,1.36V55.21Zm-1,5.71,1-.59a3.3,3.3,0,0,0,1.5-2.77c0-1.14-.66-1.55-1.57-1l-1,.55Z"/><path id="_Составной_контур_2" data-name="&lt;Составной контур&gt;" class="cls-66" d="M96.35,52.12V53.4L99,51.85v1.29l-2.68,1.55V56l3.06-1.77v1.29L94.92,58.1V51.65l4.4-2.54V50.4Z"/><path id="_Составной_контур_3" data-name="&lt;Составной контур&gt;" class="cls-66" d="M104.14,51.41v1.37L100.33,55V48.53l1.43-.83v5.08Z"/><path id="_Составной_контур_4" data-name="&lt;Составной контур&gt;" class="cls-66" d="M104.83,52.38V45.93l1.43-.82v6.45Z"/><path id="_Составной_контур_5" data-name="&lt;Составной контур&gt;" class="cls-66" d="M109,50l-2.18-5.19,1.53-.88,1.44,3.92,1.44-5.58,1.47-.85-2.21,7.73Z"/><path id="_Составной_контур_6" data-name="&lt;Составной контур&gt;" class="cls-66" d="M114.66,41.55v1.28l2.68-1.55v1.29l-2.68,1.55v1.3l3.06-1.77v1.29l-4.49,2.59V41.08l4.4-2.54v1.29Z"/><path id="_Составной_контур_7" data-name="&lt;Составной контур&gt;" class="cls-66" d="M121.19,41.12l0,0-1.08.63v1.82l-1.43.83V38l2.51-1.45c1.49-.86,2.34-.54,2.34.9a4,4,0,0,1-1,2.66l1.18,1.45-1.62.94Zm0-1.27a1.82,1.82,0,0,0,1-1.61c0-.67-.36-.81-1-.45l-1.08.63v2.06Z"/><path id="_Составной_контур_8" data-name="&lt;Составной контур&gt;" class="cls-66" d="M127.3,39.41l-1.42.82v-2L123.8,35l1.43-.82,1.36,2,1.32-3.58,1.43-.83-2,5.55Z"/></g></g><g id="_Группа_31" data-name="&lt;Группа&gt;"><path id="_Составной_контур_9" data-name="&lt;Составной контур&gt;" class="cls-67" d="M87.27,80.64V72.7l16.67-9.62V71Zm.42-7.69v7l15.83-9.14v-7Z"/></g><g id="_Группа_32" data-name="&lt;Группа&gt;" class="cls-68"><path id="_Составной_контур_10" data-name="&lt;Составной контур&gt;" class="cls-69" d="M65.09,92.16,60.35,82.6V78.17c.69-2,3.88-14.22,3.91-14.34l0-.07.07,0,12.36-7,2.8,14.16-.09,13.22Zm-4.39-9.61,4.54,9.11,13.82-7.81.09-13-2.7-13.64L64.59,64c-.29,1.12-3.19,12.28-3.89,14.27Z"/></g><path id="_Контур_136" data-name="&lt;Контур&gt;" class="cls-3" d="M62.18,78c.17-1.18-.12-3,.86-3.94a1.39,1.39,0,0,1,1-.23c.42,0,.84,0,1.27,0a1.91,1.91,0,0,1,1.3.53c.78.65.49,2.14.42,3-.09,1.13-.27,2.25-.4,3.37a6.31,6.31,0,0,1-.34,1.71c-.38.9-1.44,1.07-2.3,1.1a1.58,1.58,0,0,1-1.3-.44,1.16,1.16,0,0,1-.25-.92c0-.47,0-.94,0-1.41a1.06,1.06,0,0,0,0-.37.18.18,0,0,0-.06-.09.2.2,0,0,0-.14,0,3.25,3.25,0,0,0-1,.52,1.68,1.68,0,0,1-1.08.3A.27.27,0,0,1,60,81a.3.3,0,0,1-.06-.15,2.74,2.74,0,0,1,.57-2.4c.41-.49,1-.43,1.53-.4h.07a.11.11,0,0,0,.08,0A.11.11,0,0,0,62.18,78Z"/></g></g></g></g></g></svg>