<svg xmlns="http://www.w3.org/2000/svg" xmlns:xlink="http://www.w3.org/1999/xlink" viewBox="0 0 156.59 93.52"><defs><style>.cls-1,.cls-27,.cls-54,.cls-70{fill:none;}.cls-2{isolation:isolate;}.cls-27,.cls-3{mix-blend-mode:multiply;}.cls-3{fill:url(#Ѕезым_нный_градиент_2);}.cls-4{fill:#423131;}.cls-5{fill:url(#Ѕезым_нный_градиент_35);}.cls-6{fill:#424852;}.cls-7{fill:url(#Ѕезым_нный_градиент_40);}.cls-8{fill:#d7d9db;}.cls-9{fill:url(#Ѕезым_нный_градиент_34);}.cls-10{fill:#e3e5e6;}.cls-11{fill:url(#Ѕезым_нный_градиент_24);}.cls-12{fill:#d9dbdd;}.cls-13{fill:url(#Ѕезым_нный_градиент_34-2);}.cls-14{fill:#add1b9;}.cls-15{fill:#74c7ac;}.cls-16{fill:#cd661f;}.cls-17{fill:#ed843e;}.cls-18{fill:#9f4b12;}.cls-19{fill:#de7123;}.cls-20{fill:#3a4044;}.cls-21{fill:#538b94;}.cls-22{fill:#de752f;}.cls-23{fill:#e9b736;}.cls-24{fill:#dde2e6;}.cls-25{fill:#727272;}.cls-26{fill:#9faaab;}.cls-27{stroke:#deb159;stroke-width:0.36px;}.cls-27,.cls-54,.cls-70{stroke-miterlimit:10;}.cls-28{fill:#e9be50;}.cls-29{fill:#d2a329;}.cls-30{fill:#b2b2b2;}.cls-31{fill:#bdcedf;}.cls-32{fill:#ff8118;}.cls-33{fill:#555d69;}.cls-34{fill:#6ba9b0;}.cls-35{fill:url(#Ѕезым_нный_градиент_35-2);}.cls-36{fill:url(#Ѕезым_нный_градиент_40-2);}.cls-37{fill:url(#Ѕезым_нный_градиент_34-3);}.cls-38{fill:url(#Ѕезым_нный_градиент_24-2);}.cls-39{fill:url(#Ѕезым_нный_градиент_34-4);}.cls-40{fill:#d6770b;}.cls-41{fill:#a64f00;}.cls-42{fill:#4e6073;}.cls-43{fill:#919ca8;}.cls-44{fill:#cddbdc;}.cls-45{fill:#b4c9cb;}.cls-46{fill:#202a32;}.cls-47{fill:#525c61;}.cls-48{fill:#ae571d;}.cls-49{fill:#c2601b;}.cls-50{fill:#20232b;}.cls-51{fill:#d36518;}.cls-52{fill:#ff5440;}.cls-53{fill:#ffb81b;}.cls-54{stroke:#bf8f00;stroke-width:0.42px;}.cls-55{fill:#9a9a9a;}.cls-56{fill:#dbdbdb;}.cls-57{fill:#9a0f0f;}.cls-58{fill:#db4040;}.cls-59{fill:#d48600;}.cls-60{fill:#ffb432;}.cls-61{fill:#ed8333;}.cls-62{fill:#edbd51;}.cls-63{fill:#4c4e57;}.cls-64{fill:#07090c;}.cls-65{fill:#e0e0e0;}.cls-66{fill:#4b4146;}.cls-67{clip-path:url(#clip-path);}.cls-68{fill:#795b39;}.cls-69{fill:#a78147;}.cls-70{stroke:#783e00;stroke-width:0.11px;}.cls-71{fill:#783e00;}.cls-72{fill:#cdb67d;}.cls-73{fill:#d6c190;}.cls-74{fill:#838383;}.cls-75{fill:#313131;}.cls-76{fill:#b39e71;}.cls-77{fill:#aa8d5b;}.cls-78{fill:#d4d4d4;}.cls-79{fill:#f1bc95;}.cls-80{fill:#d18d6d;}.cls-81{fill:#1b1b1b;}.cls-82{fill:#2a2a2a;}.cls-83{fill:#7d98ae;}.cls-84{fill:#758fa1;}.cls-85{fill:#87a4bb;}.cls-86{fill:#6081fc;}.cls-87{fill:#2e5fd1;}.cls-88{fill:#c77752;}.cls-89{fill:#87b7ff;}.cls-90{fill:#deb08a;}.cls-91{fill:#f0b88f;}.cls-92{fill:#df9876;}.cls-93{fill:#4f2900;}.cls-94{fill:#422200;}.cls-95{fill:#d2b371;}.cls-96{fill:#a17f4c;}.cls-97{fill:#f5df95;}.cls-98{fill:#fee9ab;}.cls-99{fill:#dbc68a;}.cls-100{fill:#654532;}.cls-101{fill:#ebebeb;}.cls-102{fill:#bfbfbf;}.cls-103{fill:#365aeb;}</style><linearGradient id="Ѕезым_нный_градиент_2" x1="54.85" y1="-16226.08" x2="106.06" y2="-16137.38" gradientTransform="matrix(1, 0, 0, -1, 0, -16137.07)" gradientUnits="userSpaceOnUse"><stop offset="0" stop-color="#ededed"/><stop offset="1" stop-color="#e6e6e6"/></linearGradient><linearGradient id="Ѕезым_нный_градиент_35" x1="144.17" y1="-16169.64" x2="135.42" y2="-16184.78" gradientTransform="matrix(1, 0, 0, -1, 0, -16137.07)" gradientUnits="userSpaceOnUse"><stop offset="0.13" stop-color="#68737b"/><stop offset="0.13" stop-color="#6c7880"/><stop offset="0.44" stop-color="#6c7880"/><stop offset="0.44" stop-color="#50585e"/><stop offset="0.84" stop-color="#50585e"/><stop offset="0.84" stop-color="#3b4145"/></linearGradient><linearGradient id="Ѕезым_нный_градиент_40" x1="145.12" y1="-16173.66" x2="139.36" y2="-16183.62" gradientTransform="matrix(1, 0, 0, -1, 0, -16137.07)" gradientUnits="userSpaceOnUse"><stop offset="0.13" stop-color="#dbe0e3"/><stop offset="0.13" stop-color="#e0e5e8"/><stop offset="0.44" stop-color="#e0e5e8"/><stop offset="0.44" stop-color="#c0c4c6"/><stop offset="0.84" stop-color="#c0c4c6"/><stop offset="0.84" stop-color="#a8abad"/></linearGradient><linearGradient id="Ѕезым_нный_градиент_34" x1="145.05" y1="-16174.44" x2="139.91" y2="-16183.34" gradientTransform="matrix(1, 0, 0, -1, 0, -16137.07)" gradientUnits="userSpaceOnUse"><stop offset="0.16" stop-color="#797b7d"/><stop offset="0.16" stop-color="#919496"/><stop offset="0.56" stop-color="#919496"/><stop offset="0.56" stop-color="#b1b5b8"/><stop offset="0.87" stop-color="#b1b5b8"/><stop offset="0.87" stop-color="#acb0b3"/></linearGradient><linearGradient id="Ѕезым_нный_градиент_24" x1="143.32" y1="-16174.98" x2="139.73" y2="-16181.2" gradientTransform="matrix(1, 0, 0, -1, 0, -16137.07)" gradientUnits="userSpaceOnUse"><stop offset="0.13" stop-color="#acb0b3"/><stop offset="0.13" stop-color="#b1b5b8"/><stop offset="0.44" stop-color="#b1b5b8"/><stop offset="0.44" stop-color="#919496"/><stop offset="0.84" stop-color="#919496"/><stop offset="0.84" stop-color="#797b7d"/></linearGradient><linearGradient id="Ѕезым_нный_градиент_34-2" x1="142.99" y1="-16177.16" x2="141.35" y2="-16180" xlink:href="#Ѕезым_нный_градиент_34"/><linearGradient id="Ѕезым_нный_градиент_35-2" x1="88.19" y1="-16201.57" x2="79.44" y2="-16216.71" xlink:href="#Ѕезым_нный_градиент_35"/><linearGradient id="Ѕезым_нный_градиент_40-2" x1="89.13" y1="-16205.59" x2="83.38" y2="-16215.55" xlink:href="#Ѕезым_нный_градиент_40"/><linearGradient id="Ѕезым_нный_градиент_34-3" x1="89.06" y1="-16206.37" x2="83.93" y2="-16215.27" xlink:href="#Ѕезым_нный_градиент_34"/><linearGradient id="Ѕезым_нный_градиент_24-2" x1="87.34" y1="-16206.91" x2="83.74" y2="-16213.13" xlink:href="#Ѕезым_нный_градиент_24"/><linearGradient id="Ѕезым_нный_градиент_34-4" x1="87.01" y1="-16209.09" x2="85.37" y2="-16211.93" xlink:href="#Ѕезым_нный_градиент_34"/><clipPath id="clip-path"><polygon id="_Обтравочный_контур_" data-name="&lt;Обтравочный контур&gt;" class="cls-1" points="60.78 60.5 39.3 48.08 39.3 69.08 60.78 81.5 60.78 60.5"/></clipPath></defs><title>i6</title><g class="cls-2"><g id="Слой_2" data-name="Слой 2"><g id="Layer_1" data-name="Layer 1"><g id="_Группа_" data-name="&lt;Группа&gt;"><g id="_Группа_2" data-name="&lt;Группа&gt;"><path id="_Контур_" data-name="&lt;Контур&gt;" class="cls-3" d="M153.94,34.9,134.18,22.43l4.21-3.26-1.14-.74-1.09-.7c-1-.61-2.06-1.24-3.15-1.86l-.07,0c-.11-.08-.25-.14-.36-.21l-.06,0c-1.09-.62-2.23-1.21-3.35-1.75l-1.28-.58c-2.63-1.16-3.52-1.22-5.41-.92C118.28,13,105,17.25,105,17.25l-.41.71C94.7,16,82.27,16.37,82.27,16.37l-15,7.45-1.16-.67.31-.18-3.63-2.1L0,57.14l3.63,2.1.31-.18L62.65,93.52l92.19-51.88C157.71,40,156.79,36.53,153.94,34.9Z"/><g id="_Группа_3" data-name="&lt;Группа&gt;"><path id="_Контур_2" data-name="&lt;Контур&gt;" class="cls-4" d="M145.82,36.58c0,.15,0,.31.06.46l1.38-.69L150.39,38c0-.15,0-.32-.06-.46l-.75-3.79c-.27-1.63-1.7-2.16-3.22-1.29l-1.23.71Z"/><g id="_Группа_4" data-name="&lt;Группа&gt;"><path id="_Контур_3" data-name="&lt;Контур&gt;" class="cls-5" d="M132.41,43.48a3.72,3.72,0,0,0,1.43,3.26c1.2.81,3.78,2.2,3.78,2.2,3.62-2.09,10.73-9.35,10.73-13,0-1.57-3.39-2.76-4.31-3.36-1.2-.77-3-.66-5.07.52C135.35,35.24,132.41,39.86,132.41,43.48Z"/><path id="_Контур_4" data-name="&lt;Контур&gt;" class="cls-6" d="M136,45.55c0,3.62,2.93,4.86,6.55,2.77s6.55-6.72,6.55-10.34-2.93-4.86-6.55-2.77S136,41.93,136,45.55Z"/><path id="_Контур_5" data-name="&lt;Контур&gt;" class="cls-7" d="M137.89,44.08c0,2.4,1.95,3.22,4.35,1.84s4.35-4.46,4.35-6.86-1.95-3.22-4.35-1.84S137.89,41.68,137.89,44.08Z"/><path id="_Контур_6" data-name="&lt;Контур&gt;" class="cls-8" d="M138.16,44.27c0,2.4,1.95,3.22,4.35,1.84s4.35-4.46,4.35-6.86-1.95-3.22-4.35-1.84S138.16,41.87,138.16,44.27Z"/><path id="_Контур_7" data-name="&lt;Контур&gt;" class="cls-9" d="M146.41,39.51a8.09,8.09,0,0,1-3.9,6.16c-2.15,1.24-3.9.5-3.9-1.65a4.1,4.1,0,0,1,.07-.73,8.44,8.44,0,0,1,3.84-5.42l.46-.24C144.91,36.73,146.41,37.51,146.41,39.51Z"/><path id="_Контур_8" data-name="&lt;Контур&gt;" class="cls-10" d="M144.51,39.29v0a6.11,6.11,0,0,1-3,4.66,3.41,3.41,0,0,1-.87.37,1.47,1.47,0,0,1-1.93-.77,1.21,1.21,0,0,1-.1-.29,5.7,5.7,0,0,1,.22-.89A8.77,8.77,0,0,1,142,38.23a6.43,6.43,0,0,1,.55-.37l.39-.2.07,0C143.88,37.59,144.5,38.18,144.51,39.29Z"/><path id="_Контур_9" data-name="&lt;Контур&gt;" class="cls-11" d="M144.25,38.88c0,1.6-2,4.51-3.63,5.46h0l-.07,0a.68.68,0,0,1-.21-.07l-.08,0a10.12,10.12,0,0,1-1.47-.66,1.21,1.21,0,0,1-.1-.29,5.7,5.7,0,0,1,.22-.89A8.77,8.77,0,0,1,142,38.23a6.43,6.43,0,0,1,.55-.37l.39-.2a10,10,0,0,1,1.18,1h0Z"/><path id="_Контур_10" data-name="&lt;Контур&gt;" class="cls-12" d="M144.62,40a5.28,5.28,0,0,1-2.55,4c-1.4.81-2.55.33-2.55-1.08a2.67,2.67,0,0,1,0-.48,5.51,5.51,0,0,1,2.5-3.54l.3-.16C143.64,38.13,144.62,38.65,144.62,40Z"/><path id="_Контур_11" data-name="&lt;Контур&gt;" class="cls-13" d="M143.41,40.79a2.57,2.57,0,0,1-1.24,2c-.68.39-1.24.16-1.24-.52a1.31,1.31,0,0,1,0-.23,2.68,2.68,0,0,1,1.22-1.72l.15-.08C142.93,39.91,143.41,40.16,143.41,40.79Z"/><path id="_Контур_12" data-name="&lt;Контур&gt;" class="cls-10" d="M142.35,41a1,1,0,0,1-.5.78c-.27.16-.5.06-.5-.21a.52.52,0,0,1,0-.09,1.07,1.07,0,0,1,.49-.69l.06,0C142.16,40.6,142.35,40.7,142.35,41Z"/></g><path id="_Контур_13" data-name="&lt;Контур&gt;" class="cls-14" d="M118.6,22.65a8.29,8.29,0,0,1-4,6.3c-2.21,1.27-4,.52-4-1.69a8.28,8.28,0,0,1,4-6.3C116.81,19.69,118.6,20.44,118.6,22.65Z"/><polygon id="_Контур_14" data-name="&lt;Контур&gt;" class="cls-15" points="91.54 41.78 106.22 33.3 106.22 28.54 91.54 39.28 91.54 41.78"/><polygon id="_Контур_15" data-name="&lt;Контур&gt;" class="cls-15" points="100.24 21.43 96.78 25.69 96.78 21.56 100.24 19.56 100.24 21.43"/><path id="_Контур_16" data-name="&lt;Контур&gt;" class="cls-16" d="M152.77,27.22v.05c0,.1,0,.21,0,.33v.06c0,1,0,2,0,2.9,0,.37,0,.72-.05,1.07q-.06,1.13-.12,2.11c-.14,1.9-.29,3.21-.29,3.21l-1.14.59-.74.43c0-.15,0-.31-.06-.46l-.19-1-.35-1.72-.21-1.09c-.27-1.63-1.7-2.17-3.21-1.29l-4.07,2.35L138.53,37a7.54,7.54,0,0,0-3.21,5l-.24,1.52-.48,2.93,0,.21a3.78,3.78,0,0,0-.05.45s0,.05,0,.08l-.74.43L118,56.63V47.19h0l7.38-10.23,11.45-14.59,3.22-1.27S148.4,19,150.79,19c1.08,0,1.43,2.51,1.71,4.45l.12,1a2.49,2.49,0,0,1,0,.27C152.72,25.5,152.76,26.36,152.77,27.22Z"/><path id="_Контур_17" data-name="&lt;Контур&gt;" class="cls-17" d="M125.13,3.89a74.05,74.05,0,0,1,13.56,6.51c7.88,4.93,13.06,8.8,13.06,8.8l-15.28,4.23L111.1,6.31S122.09,3.4,125.13,3.89Z"/><path id="_Контур_18" data-name="&lt;Контур&gt;" class="cls-18" d="M138.68,10.4a71.22,71.22,0,0,0-9.64-5c-2.95.21-12.93,3.33-12.93,3.33l15.55,10.8,16.29-3.06C145.68,14.92,142.5,12.79,138.68,10.4Z"/><path id="_Контур_19" data-name="&lt;Контур&gt;" class="cls-19" d="M138.68,10.4a51.8,51.8,0,0,0-8.08-4.28c-2.95.21-14.49,2.64-14.49,2.64l15.55,10.8,16.29-3.06C145.68,14.92,142.5,12.79,138.68,10.4Z"/><path id="_Контур_20" data-name="&lt;Контур&gt;" class="cls-20" d="M136.33,23.37A41.4,41.4,0,0,0,113,6.47Z"/><path id="_Контур_21" data-name="&lt;Контур&gt;" class="cls-21" d="M136.46,23.42l-.59.2-8-6.63L102,1.93A51.13,51.13,0,0,1,112.15,6C117.46,8.85,123.73,10.06,136.46,23.42Z"/><path id="_Контур_22" data-name="&lt;Контур&gt;" class="cls-22" d="M101.36,1.74C115.91,6.1,127.85,17,127.85,17L118,21.9,91.54,6.65S99.51,1.19,101.36,1.74Z"/><path id="_Контур_23" data-name="&lt;Контур&gt;" class="cls-16" d="M142.34,33.18c0,.55,0,1.08-.05,1.6L138.53,37a7.54,7.54,0,0,0-3.21,5l-.24,1.52-.82.48L118,53.29V21.9L127.85,17s6.17,4.79,8.87,7c.57.46,3.4-.82,3.67-.11.39,1,1.12,4.66,1.57,6.37A10.78,10.78,0,0,1,142.34,33.18Z"/><path id="_Контур_24" data-name="&lt;Контур&gt;" class="cls-23" d="M152.77,27.22v.05c0,.1,0,.21,0,.33v.06c0,1,0,2,0,2.9,0,.37,0,.72-.05,1.07q-.06,1.13-.12,2.11c-.14,1.9-.29,3.21-.29,3.21l-1.14.59-.74.43c0-.15,0-.31-.06-.46l-.19-1-.35-1.72-.21-1.09c-.27-1.63-1.7-2.17-3.21-1.29l-4.07,2.35L138.53,37a7.54,7.54,0,0,0-3.21,5l-.24,1.52-.48,2.93,0,.21a3.78,3.78,0,0,0-.05.45s0,.05,0,.08l-.74.43L118,56.63V47.19h0V39l34.37-17.74C152.48,22.1,152.76,26.36,152.77,27.22Z"/><g id="_Группа_5" data-name="&lt;Группа&gt;"><polygon id="_Контур_25" data-name="&lt;Контур&gt;" class="cls-24" points="120.55 39.1 120.33 38.97 123.6 37.02 123.82 37.15 120.55 39.1"/><polygon id="_Контур_26" data-name="&lt;Контур&gt;" class="cls-25" points="120.82 40.73 120.33 40.48 120.33 38.97 120.55 39.1 120.82 40.73"/><polygon id="_Контур_27" data-name="&lt;Контур&gt;" class="cls-26" points="123.82 37.15 120.55 39.1 120.82 40.73 124.09 38.79 123.82 37.15"/></g><polygon id="_Контур_28" data-name="&lt;Контур&gt;" class="cls-27" points="126.64 17.81 118.12 22.39 118.12 42.83 118.8 53.41 131.94 45.78 133.67 37.97 136.33 31.66 136.07 25.49 126.64 17.81"/><path id="_Контур_29" data-name="&lt;Контур&gt;" class="cls-28" d="M149.79,34.8l-.21-1.09c-.27-1.63-1.7-2.17-3.21-1.29L138.53,37a7.54,7.54,0,0,0-3.21,5l-.72,4.45-.68.44c0-.18-1.78-.24-1.78-.24l.35-1.1a44.35,44.35,0,0,0,1.32-5.85,7.77,7.77,0,0,1,1.72-3.72,6,6,0,0,1,1.59-1.37l8.54-4.93c1.41-.81,2.76-.51,3.31.69a2.37,2.37,0,0,1,.21.7Z"/><path id="_Контур_30" data-name="&lt;Контур&gt;" class="cls-29" d="M151.13,37.53l-.74.43c0-.15,0-.31-.06-.46l-.19-1-.35-1.72-.21-1.09c-.27-1.63-1.7-2.17-3.21-1.29l-4.07,2.35L138.53,37a7.54,7.54,0,0,0-3.21,5l-.24,1.52-.48,2.93,0,.21a3.78,3.78,0,0,0-.05.45s0,.05,0,.08l-.74.43c0-.18,0-.37.06-.57l.14-1,.28-2.07.41-2.91a8.24,8.24,0,0,1,3.52-5.45l4.17-2.4,4.37-2.53a2.64,2.64,0,0,1,2.23-.34A2.08,2.08,0,0,1,150.24,32l.66,4,.17,1C151.1,37.2,151.11,37.37,151.13,37.53Z"/><g id="_Группа_6" data-name="&lt;Группа&gt;"><polygon id="_Контур_31" data-name="&lt;Контур&gt;" class="cls-26" points="133.09 46.07 117.4 55.12 117.4 52.62 133.25 43.53 133.09 46.07"/><g id="_Группа_7" data-name="&lt;Группа&gt;"><polygon id="_Контур_32" data-name="&lt;Контур&gt;" class="cls-24" points="133.12 46.02 117.7 54.94 119.26 55.84 134.67 46.92 133.12 46.02"/><polygon id="_Контур_33" data-name="&lt;Контур&gt;" class="cls-30" points="134.67 48.24 119.26 57.16 119.26 55.84 134.67 46.92 134.67 48.24"/></g></g><path id="_Контур_34" data-name="&lt;Контур&gt;" class="cls-31" d="M152.77,26.71v.05l-1.41.81,0,0-.58.34h0a.48.48,0,0,1-.44,0,1,1,0,0,1-.36-.7V25.47l1.42-.82,1.27-.73C152.71,24.8,152.76,25.75,152.77,26.71Z"/><path id="_Контур_35" data-name="&lt;Контур&gt;" class="cls-31" d="M152.77,27.05v.06c0,1,0,2,0,2.9l-1.38.79,0,0-.58.34h0a.48.48,0,0,1-.44,0,1,1,0,0,1-.36-.69V28.69l1.42-.82Z"/><path id="_Контур_36" data-name="&lt;Контур&gt;" class="cls-32" d="M151.35,24.65v2.93l0,0a2.42,2.42,0,0,1-.58.34h0a.48.48,0,0,1-.44,0,1,1,0,0,1-.36-.7,7.33,7.33,0,0,1,0-1.79Z"/><path id="_Контур_37" data-name="&lt;Контур&gt;" class="cls-32" d="M151.35,27.9v2.94l0,0a2.41,2.41,0,0,1-.58.34h0a.48.48,0,0,1-.44,0,1,1,0,0,1-.36-.69,7,7,0,0,1,0-1.81Z"/><g id="_Группа_8" data-name="&lt;Группа&gt;"><path id="_Контур_38" data-name="&lt;Контур&gt;" class="cls-33" d="M134.84,29.93a4,4,0,0,0,.6-2.39l-.18-1.23s-5.12-3.86-8.34-6.7l-6.1,3a2.11,2.11,0,0,0-.64.53,4.55,4.55,0,0,0-.55,2.84l.22,6.83c.22,1.54.91,2.33,1.82,2.1l10-5.17.84,1a.66.66,0,0,0,.89.14l1.05-.56A1.26,1.26,0,0,0,134.84,29.93Z"/><path id="_Контур_39" data-name="&lt;Контур&gt;" class="cls-34" d="M121.75,34.24,131.93,29,132.8,30a.54.54,0,0,0,.73.11l1-.54a2.13,2.13,0,0,0,.62-1.72L135,26.68s-6.24-4.93-8.16-6.34l-6.09,3a2.86,2.86,0,0,0-.8,2.26l.18,6.76C120.32,33.76,120.92,34.45,121.75,34.24Z"/></g><g id="_Группа_9" data-name="&lt;Группа&gt;"><path id="_Контур_40" data-name="&lt;Контур&gt;" class="cls-4" d="M90,70c0,.15,0,.31.06.46l1.38-.69,3.13,1.62c0-.15,0-.32-.06-.46l-.75-3.79c-.27-1.63-1.7-2.16-3.22-1.29l-1.23.71Z"/><g id="_Группа_10" data-name="&lt;Группа&gt;"><path id="_Контур_41" data-name="&lt;Контур&gt;" class="cls-35" d="M76.43,75.41a3.72,3.72,0,0,0,1.43,3.26c1.2.81,3.78,2.2,3.78,2.2,3.62-2.09,10.73-9.35,10.73-13,0-1.57-3.39-2.76-4.31-3.36-1.2-.77-3-.66-5.07.52C79.36,67.16,76.43,71.79,76.43,75.41Z"/><path id="_Контур_42" data-name="&lt;Контур&gt;" class="cls-6" d="M80,77.48c0,3.62,2.93,4.86,6.55,2.77s6.55-6.72,6.55-10.34-2.93-4.86-6.55-2.77S80,73.86,80,77.48Z"/><path id="_Контур_43" data-name="&lt;Контур&gt;" class="cls-36" d="M81.91,76c0,2.4,1.95,3.22,4.35,1.84s4.35-4.46,4.35-6.86-1.95-3.22-4.35-1.84S81.91,73.61,81.91,76Z"/><path id="_Контур_44" data-name="&lt;Контур&gt;" class="cls-8" d="M82.18,76.2c0,2.4,1.95,3.22,4.35,1.84s4.35-4.46,4.35-6.86S88.93,68,86.53,69.34,82.18,73.8,82.18,76.2Z"/><path id="_Контур_45" data-name="&lt;Контур&gt;" class="cls-37" d="M90.43,71.44a8.09,8.09,0,0,1-3.9,6.16c-2.15,1.24-3.9.5-3.9-1.65a4.1,4.1,0,0,1,.07-.73,8.45,8.45,0,0,1,3.84-5.42l.46-.24C88.93,68.66,90.43,69.44,90.43,71.44Z"/><path id="_Контур_46" data-name="&lt;Контур&gt;" class="cls-10" d="M88.53,71.22v0a6.11,6.11,0,0,1-3,4.66,3.41,3.41,0,0,1-.87.37,1.47,1.47,0,0,1-1.93-.77,1.21,1.21,0,0,1-.1-.29,5.69,5.69,0,0,1,.22-.89A8.76,8.76,0,0,1,86,70.16a6.43,6.43,0,0,1,.55-.37l.39-.2.07,0C87.9,69.52,88.52,70.11,88.53,71.22Z"/><path id="_Контур_47" data-name="&lt;Контур&gt;" class="cls-38" d="M88.26,70.81c0,1.6-2,4.51-3.63,5.46h0l-.07,0a.69.69,0,0,1-.21-.07l-.08,0a10.13,10.13,0,0,1-1.47-.66,1.21,1.21,0,0,1-.1-.29,5.69,5.69,0,0,1,.22-.89A8.76,8.76,0,0,1,86,70.16a6.43,6.43,0,0,1,.55-.37l.39-.2a10,10,0,0,1,1.18,1h0Z"/><path id="_Контур_48" data-name="&lt;Контур&gt;" class="cls-12" d="M88.64,71.88a5.28,5.28,0,0,1-2.55,4c-1.4.81-2.55.33-2.55-1.08a2.68,2.68,0,0,1,0-.48,5.51,5.51,0,0,1,2.5-3.54l.3-.16C87.66,70.06,88.64,70.57,88.64,71.88Z"/><path id="_Контур_49" data-name="&lt;Контур&gt;" class="cls-39" d="M87.43,72.72a2.57,2.57,0,0,1-1.24,2c-.68.39-1.24.16-1.24-.52a1.3,1.3,0,0,1,0-.23,2.68,2.68,0,0,1,1.22-1.72l.15-.08C87,71.84,87.43,72.08,87.43,72.72Z"/><path id="_Контур_50" data-name="&lt;Контур&gt;" class="cls-10" d="M86.37,72.89a1,1,0,0,1-.5.78c-.27.16-.5.06-.5-.21a.52.52,0,0,1,0-.09,1.08,1.08,0,0,1,.49-.69l.06,0C86.18,72.53,86.37,72.63,86.37,72.89Z"/></g><polygon id="_Контур_51" data-name="&lt;Контур&gt;" class="cls-40" points="34.7 35.03 65.37 52.61 65.37 88.14 34.7 69.46 34.7 35.03"/><polygon id="_Контур_52" data-name="&lt;Контур&gt;" class="cls-41" points="38.45 41.38 59.92 53.69 59.92 83.25 38.45 70.83 38.45 41.38"/><polygon id="_Контур_53" data-name="&lt;Контур&gt;" class="cls-42" points="39.3 47.13 60.78 59.44 60.78 81.5 39.3 69.08 39.3 47.13"/><polygon id="_Контур_54" data-name="&lt;Контур&gt;" class="cls-43" points="60.78 56.6 60.78 81.5 39.3 69.08 60.78 56.6"/><g id="_Группа_11" data-name="&lt;Группа&gt;"><polygon id="_Контур_55" data-name="&lt;Контур&gt;" class="cls-44" points="39.3 41.9 60.78 54.2 60.78 56.15 39.3 43.73 39.3 41.9"/><polygon id="_Контур_56" data-name="&lt;Контур&gt;" class="cls-45" points="39.3 43.66 60.78 55.97 60.78 57.91 39.3 45.49 39.3 43.66"/></g><g id="_Группа_12" data-name="&lt;Группа&gt;"><polygon id="_Контур_57" data-name="&lt;Контур&gt;" class="cls-44" points="39.3 45.4 60.78 57.71 60.78 59.65 39.3 47.23 39.3 45.4"/><polygon id="_Контур_58" data-name="&lt;Контур&gt;" class="cls-46" points="39.3 46.59 60.78 58.9 60.78 60.5 39.3 48.08 39.3 46.59"/></g><g id="_Группа_13" data-name="&lt;Группа&gt;"><polygon id="_Контур_59" data-name="&lt;Контур&gt;" class="cls-47" points="39.3 69.08 60.78 81.49 60.78 84.16 39.3 71.02 39.3 69.08"/><polygon id="_Контур_60" data-name="&lt;Контур&gt;" class="cls-45" points="39.3 71.67 60.78 83.97 60.78 85.92 39.3 73.5 39.3 71.67"/></g><polygon id="_Контур_61" data-name="&lt;Контур&gt;" class="cls-48" points="34.16 36.28 65.09 54.12 65.09 50.83 34.16 33 34.16 36.28"/><path id="_Контур_62" data-name="&lt;Контур&gt;" class="cls-49" d="M121.19,18.81V55.92L119.32,57,96.08,70.44h0l-1.56.9c0-.15,0-.32-.06-.47l-.22-1.12-.52-2.67c-.27-1.63-1.7-2.17-3.22-1.29l-7.83,4.53a7.54,7.54,0,0,0-3.21,5l-.52,3.28-.21,1.31-.07.55v.05l-1.56.9L65.37,88.14V51Z"/><path id="_Контур_63" data-name="&lt;Контур&gt;" class="cls-23" d="M121.19,42.28V55.92L119.32,57,96.08,70.44h0l-1.56.9c0-.15,0-.32-.06-.47l-.22-1.12-.52-2.67c-.27-1.63-1.7-2.17-3.22-1.29l-7.83,4.53a7.54,7.54,0,0,0-3.21,5l-.52,3.28-.21,1.31-.07.55v.05l-1.56.9L65.37,88.14V74.49Z"/><polygon id="_Контур_64" data-name="&lt;Контур&gt;" class="cls-47" points="77.33 78.74 78.92 77.82 78.71 79.14 78.64 79.69 78.64 79.74 77.08 80.63 62.46 88.06 29.21 68.69 34.7 65.39 34.7 67.51 38.45 69.67 39.3 69.08 39.3 70.16 65.75 85.39 77.33 78.74"/><path id="_Контур_65" data-name="&lt;Контур&gt;" class="cls-47" d="M121.91,53.77,96.08,69.66h0l-1.56.9c0-.15,0-.32-.06-.47L94.24,69l1.59-.92,25.37-14.68Z"/><polygon id="_Контур_66" data-name="&lt;Контур&gt;" class="cls-50" points="77.33 79.53 78.64 79.74 78.64 80.47 78.64 80.52 77.08 81.42 62.46 89.81 29.1 70.49 29.21 68.69 62.46 88.06 77.33 79.53"/><path id="_Контур_67" data-name="&lt;Контур&gt;" class="cls-50" d="M121.91,53.77v1.75L96.08,70.45h0l-1.56.9c0-.15,0-1.67,0-1.67l1.3-.83Z"/><polygon id="_Контур_68" data-name="&lt;Контур&gt;" class="cls-51" points="65.09 54.12 122.24 21.12 122.24 17.84 65.09 50.83 65.09 54.12"/><path id="_Контур_69" data-name="&lt;Контур&gt;" class="cls-28" d="M92.25,64.82a3.67,3.67,0,0,1,1.42-.27,4,4,0,0,1,.68.07l.58-.78a3.23,3.23,0,0,0-4.65-2.09l-9.33,5.39a9.05,9.05,0,0,0-3.86,6l-.85,6.28.7.38.14,1.66.59-2.12.07-.55L78,77.43l.52-3.28a7.54,7.54,0,0,1,3.21-5l7.83-4.53A2.07,2.07,0,0,1,92.25,64.82Z"/><path id="_Контур_70" data-name="&lt;Контур&gt;" class="cls-29" d="M96.08,70.44h0l-1.56.9c0-.15,0-.32-.06-.47l-.22-1.12-.52-2.67c-.27-1.63-1.7-2.17-3.22-1.29l-7.83,4.53a7.54,7.54,0,0,0-3.21,5l-.52,3.28-.21,1.31-.07.55v.05l-1.56.9c0-.2,0-.41.07-.63l.17-1.26.73-5.25a9.05,9.05,0,0,1,3.86-6l9.33-5.39c1.81-1,3.52-.41,3.85,1.53l.73,4.41L96,69.91C96,70.08,96.06,70.26,96.08,70.44Z"/><g id="_Группа_14" data-name="&lt;Группа&gt;"><path id="_Контур_71" data-name="&lt;Контур&gt;" class="cls-18" d="M69.4,49.93v.44a.56.56,0,0,1-.28.47l-1.85,1.08a.22.22,0,0,1-.33-.19v-.12l1.55-.9a.56.56,0,0,0,.28-.47v-.31l.3-.17A.22.22,0,0,1,69.4,49.93Z"/><path id="_Контур_72" data-name="&lt;Контур&gt;" class="cls-52" d="M68.77,49.92v.31a.56.56,0,0,1-.28.47l-1.55.9V51.3a.56.56,0,0,1,.28-.48Z"/></g><g id="_Группа_15" data-name="&lt;Группа&gt;"><path id="_Контур_73" data-name="&lt;Контур&gt;" class="cls-18" d="M94.9,35.08v.44a.56.56,0,0,1-.28.47l-1.85,1.08a.22.22,0,0,1-.33-.19v-.12l1.55-.9a.56.56,0,0,0,.28-.47v-.31l.3-.17A.22.22,0,0,1,94.9,35.08Z"/><path id="_Контур_74" data-name="&lt;Контур&gt;" class="cls-53" d="M94.27,35.06v.31a.56.56,0,0,1-.28.47l-1.55.9v-.31a.56.56,0,0,1,.28-.48Z"/></g><g id="_Группа_16" data-name="&lt;Группа&gt;"><path id="_Контур_75" data-name="&lt;Контур&gt;" class="cls-18" d="M120.4,20.22v.44a.56.56,0,0,1-.28.47l-1.85,1.08a.22.22,0,0,1-.33-.19v-.12l1.55-.9a.56.56,0,0,0,.28-.47V20.2l.3-.17A.22.22,0,0,1,120.4,20.22Z"/><path id="_Контур_76" data-name="&lt;Контур&gt;" class="cls-52" d="M119.77,20.2v.31a.56.56,0,0,1-.28.47l-1.55.9v-.31a.56.56,0,0,1,.28-.48Z"/></g><g id="_Группа_17" data-name="&lt;Группа&gt;"><path id="_Контур_77" data-name="&lt;Контур&gt;" class="cls-28" d="M70.32,80.37v.44a.56.56,0,0,1-.28.47l-1.85,1.08a.22.22,0,0,1-.33-.19V82l1.55-.9a.56.56,0,0,0,.28-.47v-.31l.3-.17A.22.22,0,0,1,70.32,80.37Z"/><path id="_Контур_78" data-name="&lt;Контур&gt;" class="cls-52" d="M69.68,80.35v.31a.56.56,0,0,1-.28.47l-1.55.9v-.31a.56.56,0,0,1,.28-.48Z"/></g><g id="_Группа_18" data-name="&lt;Группа&gt;"><path id="_Контур_79" data-name="&lt;Контур&gt;" class="cls-28" d="M117.93,52.62v.44a.56.56,0,0,1-.28.47l-1.85,1.08a.22.22,0,0,1-.33-.19V54.3l1.55-.9a.56.56,0,0,0,.28-.47v-.31l.3-.17A.22.22,0,0,1,117.93,52.62Z"/><path id="_Контур_80" data-name="&lt;Контур&gt;" class="cls-52" d="M117.3,52.61v.31a.56.56,0,0,1-.28.47l-1.55.9V54a.56.56,0,0,1,.28-.48Z"/></g><g id="_Группа_19" data-name="&lt;Группа&gt;"><g id="_Группа_20" data-name="&lt;Группа&gt;"><path id="_Составной_контур_" data-name="&lt;Составной контур&gt;" class="cls-23" d="M75.38,53.91c1.77-1,3-.42,3,1.51a6.08,6.08,0,0,1-3,5L73,61.77V55.3Zm-1,5.72,1-.59a3.31,3.31,0,0,0,1.5-2.78c0-1.14-.66-1.55-1.57-1l-1,.55Z"/><path id="_Составной_контур_2" data-name="&lt;Составной контур&gt;" class="cls-23" d="M80.56,52.21v1.28l2.69-1.55v1.29l-2.69,1.55v1.3l3.06-1.77v1.29l-4.49,2.59V51.74l4.41-2.54v1.29Z"/><path id="_Составной_контур_3" data-name="&lt;Составной контур&gt;" class="cls-23" d="M88.37,51.5v1.38l-3.82,2.2V48.61L86,47.79v5.09Z"/><path id="_Составной_контур_4" data-name="&lt;Составной контур&gt;" class="cls-23" d="M89.06,52.48V46l1.43-.83v6.47Z"/><path id="_Составной_контур_5" data-name="&lt;Составной контур&gt;" class="cls-23" d="M93.23,50.07,91,44.86,92.57,44,94,47.91l1.44-5.59,1.47-.85-2.21,7.74Z"/><path id="_Составной_контур_6" data-name="&lt;Составной контур&gt;" class="cls-23" d="M98.91,41.62V42.9l2.69-1.55v1.29l-2.69,1.55v1.3L102,43.73V45l-4.49,2.59V41.15l4.41-2.54V39.9Z"/><path id="_Составной_контур_7" data-name="&lt;Составной контур&gt;" class="cls-23" d="M105.45,41.19l0,0-1.09.63v1.82l-1.43.83V38l2.52-1.45c1.49-.86,2.34-.54,2.34.9a4,4,0,0,1-1,2.67l1.18,1.45-1.62.94Zm0-1.27a1.83,1.83,0,0,0,1-1.61c0-.67-.36-.81-1-.45l-1.09.63v2.06Z"/><path id="_Составной_контур_8" data-name="&lt;Составной контур&gt;" class="cls-23" d="M111.57,39.48l-1.42.82v-2L108.06,35l1.43-.83,1.36,2,1.33-3.58,1.43-.83-2,5.56Z"/></g></g><polygon id="_Контур_81" data-name="&lt;Контур&gt;" class="cls-54" points="97.38 65.55 113.66 56.15 113.66 48.68 97.38 58.08 97.38 65.55"/></g><g id="_Группа_21" data-name="&lt;Группа&gt;"><path id="_Контур_82" data-name="&lt;Контур&gt;" class="cls-55" d="M64.32,76.46c0,.83-.68,1.12-1.51.64a3.13,3.13,0,0,1-1.51-2.38c0-.83.68-1.12,1.51-.64A3.13,3.13,0,0,1,64.32,76.46Z"/><path id="_Контур_83" data-name="&lt;Контур&gt;" class="cls-56" d="M63.87,76.45c0,.71-.57,1-1.28.54a2.66,2.66,0,0,1-1.28-2c0-.71.57-1,1.28-.54A2.66,2.66,0,0,1,63.87,76.45Z"/></g><g id="_Группа_22" data-name="&lt;Группа&gt;"><path id="_Контур_84" data-name="&lt;Контур&gt;" class="cls-57" d="M64.32,72c0,.83-.68,1.12-1.51.64a3.13,3.13,0,0,1-1.51-2.38c0-.83.68-1.12,1.51-.64A3.13,3.13,0,0,1,64.32,72Z"/><path id="_Контур_85" data-name="&lt;Контур&gt;" class="cls-58" d="M63.87,72c0,.71-.57,1-1.28.54a2.66,2.66,0,0,1-1.28-2c0-.71.57-1,1.28-.54A2.66,2.66,0,0,1,63.87,72Z"/></g><g id="_Группа_23" data-name="&lt;Группа&gt;"><path id="_Контур_86" data-name="&lt;Контур&gt;" class="cls-55" d="M38,61.29c0,.83-.68,1.12-1.51.64a3.13,3.13,0,0,1-1.51-2.38c0-.83.68-1.12,1.51-.64A3.13,3.13,0,0,1,38,61.29Z"/><path id="_Контур_87" data-name="&lt;Контур&gt;" class="cls-56" d="M37.5,61.27c0,.71-.57,1-1.28.54a2.66,2.66,0,0,1-1.28-2c0-.71.57-1,1.28-.54A2.66,2.66,0,0,1,37.5,61.27Z"/></g><g id="_Группа_24" data-name="&lt;Группа&gt;"><path id="_Контур_88" data-name="&lt;Контур&gt;" class="cls-57" d="M38,56.87c0,.83-.68,1.12-1.51.64a3.13,3.13,0,0,1-1.51-2.38c0-.83.68-1.12,1.51-.64A3.13,3.13,0,0,1,38,56.87Z"/><path id="_Контур_89" data-name="&lt;Контур&gt;" class="cls-58" d="M37.5,56.86c0,.71-.57,1-1.28.54a2.66,2.66,0,0,1-1.28-2c0-.71.57-1,1.28-.54A2.66,2.66,0,0,1,37.5,56.86Z"/></g><g id="_Группа_25" data-name="&lt;Группа&gt;"><path id="_Контур_90" data-name="&lt;Контур&gt;" class="cls-59" d="M63.87,56.88c0,.58-.47.78-1.05.45a2.19,2.19,0,0,1-1.05-1.66c0-.58.47-.78,1.05-.45A2.19,2.19,0,0,1,63.87,56.88Z"/><path id="_Контур_91" data-name="&lt;Контур&gt;" class="cls-60" d="M63.55,56.87c0,.49-.4.66-.9.38a1.86,1.86,0,0,1-.9-1.41c0-.49.4-.66.9-.38A1.86,1.86,0,0,1,63.55,56.87Z"/></g><g id="_Группа_26" data-name="&lt;Группа&gt;"><path id="_Контур_92" data-name="&lt;Контур&gt;" class="cls-59" d="M37.5,41.7c0,.58-.47.78-1.05.45a2.19,2.19,0,0,1-1.05-1.66c0-.58.47-.78,1.05-.45A2.19,2.19,0,0,1,37.5,41.7Z"/><path id="_Контур_93" data-name="&lt;Контур&gt;" class="cls-60" d="M37.18,41.69c0,.49-.4.66-.9.38a1.86,1.86,0,0,1-.9-1.41c0-.49.4-.66.9-.38A1.86,1.86,0,0,1,37.18,41.69Z"/></g><g id="_Группа_27" data-name="&lt;Группа&gt;"><path id="_Контур_94" data-name="&lt;Контур&gt;" class="cls-18" d="M42.77,39.42v.44a.56.56,0,0,0,.28.47l1.85,1.08a.22.22,0,0,0,.33-.19V41.1l-1.55-.9a.56.56,0,0,1-.28-.47v-.31l-.3-.17A.22.22,0,0,0,42.77,39.42Z"/><path id="_Контур_95" data-name="&lt;Контур&gt;" class="cls-53" d="M43.4,39.41v.31a.56.56,0,0,0,.28.47l1.55.9v-.31a.56.56,0,0,0-.28-.48Z"/></g><g id="_Группа_28" data-name="&lt;Группа&gt;"><path id="_Контур_96" data-name="&lt;Контур&gt;" class="cls-18" d="M48.1,42.53V43a.56.56,0,0,0,.28.47l1.85,1.08a.22.22,0,0,0,.33-.19v-.12L49,43.31a.56.56,0,0,1-.28-.47v-.31l-.3-.17A.22.22,0,0,0,48.1,42.53Z"/><path id="_Контур_97" data-name="&lt;Контур&gt;" class="cls-53" d="M48.73,42.52v.31a.56.56,0,0,0,.28.47l1.55.9V43.9a.56.56,0,0,0-.28-.48Z"/></g><g id="_Группа_29" data-name="&lt;Группа&gt;"><path id="_Контур_98" data-name="&lt;Контур&gt;" class="cls-18" d="M53.43,45.65v.44a.56.56,0,0,0,.28.47l1.85,1.08a.22.22,0,0,0,.33-.19v-.12l-1.55-.9a.56.56,0,0,1-.28-.47v-.31l-.3-.17A.22.22,0,0,0,53.43,45.65Z"/><path id="_Контур_99" data-name="&lt;Контур&gt;" class="cls-53" d="M54.07,45.63v.31a.56.56,0,0,0,.28.47l1.55.9V47a.56.56,0,0,0-.28-.48Z"/></g><g id="_Группа_30" data-name="&lt;Группа&gt;"><path id="_Контур_100" data-name="&lt;Контур&gt;" class="cls-18" d="M102.39,5.67l-.81.52c-.22.14-.24.38-.47.25l-.36-.29c-.25-.14-.52-.67-.28-.82l.82-.52c.22-.14,1.11-.53,1.34-.39l.09,0C103,4.6,102.63,5.52,102.39,5.67Z"/><path id="_Контур_101" data-name="&lt;Контур&gt;" class="cls-61" d="M103.54,5.78l-1.3.83a.8.8,0,0,1-.83,0l-.31-.18c-.28-.16.09-1.31.36-1.48l.93-.08c.25-.15.63-.55.89-.4l.21.16A.91.91,0,0,1,103.54,5.78Z"/><path id="_Контур_102" data-name="&lt;Контур&gt;" class="cls-62" d="M103.21,5.05l-.81.52a.71.71,0,0,1-.74,0l-.1,0a.39.39,0,0,1,0-.66l.82-.52a.72.72,0,0,1,.73,0l.09,0A.39.39,0,0,1,103.21,5.05Z"/></g><g id="_Группа_31" data-name="&lt;Группа&gt;"><path id="_Контур_103" data-name="&lt;Контур&gt;" class="cls-18" d="M110.64,9.45l-.81.52c-.22.14-.24.38-.47.25L109,9.94c-.25-.14-.52-.67-.28-.82l.82-.52c.22-.14,1.11-.53,1.34-.39l.09,0C111.21,8.39,110.88,9.31,110.64,9.45Z"/><path id="_Контур_104" data-name="&lt;Контур&gt;" class="cls-61" d="M111.79,9.57l-1.3.83a.8.8,0,0,1-.83,0l-.31-.18c-.28-.16.09-1.31.36-1.48l.93-.08c.25-.15.63-.55.89-.4l.21.16A.91.91,0,0,1,111.79,9.57Z"/><path id="_Контур_105" data-name="&lt;Контур&gt;" class="cls-62" d="M111.46,8.84l-.81.52a.71.71,0,0,1-.74,0l-.1,0a.39.39,0,0,1,0-.66l.82-.52a.72.72,0,0,1,.73,0l.09,0A.39.39,0,0,1,111.46,8.84Z"/></g><g id="_Группа_32" data-name="&lt;Группа&gt;"><path id="_Контур_106" data-name="&lt;Контур&gt;" class="cls-18" d="M117.26,14.29l-.81.52c-.22.14-.24.38-.47.25l-.36-.29c-.25-.14-.52-.67-.28-.82l.82-.52c.22-.14,1.11-.53,1.34-.39l.09,0C117.84,13.22,117.5,14.14,117.26,14.29Z"/><path id="_Контур_107" data-name="&lt;Контур&gt;" class="cls-61" d="M118.42,14.4l-1.3.83a.8.8,0,0,1-.83,0l-.31-.18c-.28-.16.09-1.31.36-1.48l.93-.08c.25-.15.63-.55.89-.4l.21.16A.91.91,0,0,1,118.42,14.4Z"/><path id="_Контур_108" data-name="&lt;Контур&gt;" class="cls-62" d="M118.09,13.68l-.81.52a.72.72,0,0,1-.74,0l-.1,0a.39.39,0,0,1,0-.66l.82-.52a.72.72,0,0,1,.73,0l.09,0A.39.39,0,0,1,118.09,13.68Z"/><polygon id="_Контур_109" data-name="&lt;Контур&gt;" class="cls-17" points="34.16 33 65.09 50.83 122.24 17.84 91.31 0 34.16 33"/></g><path id="_Контур_110" data-name="&lt;Контур&gt;" class="cls-63" d="M152.7,30.47l2.12,1.31c-1,2-1.5,4.57-2.45,5.26l-1.74,1V34.41l1.89-1.35C152.61,33,152.7,30.47,152.7,30.47Z"/><path id="_Контур_111" data-name="&lt;Контур&gt;" class="cls-50" d="M154.82,31.78v3.64c-1,2-.72,1.63-1.68,2.31l-1.53,1.14V35.24l1.53-1.14C154.1,33.41,153.87,33.79,154.82,31.78Z"/><polygon id="_Контур_112" data-name="&lt;Контур&gt;" class="cls-64" points="150.63 34.41 150.63 38.05 151.62 38.88 151.62 35.23 150.63 34.41"/><g id="_Группа_33" data-name="&lt;Группа&gt;"><path id="_Контур_113" data-name="&lt;Контур&gt;" class="cls-20" d="M139.26,20.77a2.47,2.47,0,0,1,1,1.47,4.2,4.2,0,0,1,0,1c0,.63-.07.85-.08,1.49a45.13,45.13,0,0,1-.31,5.65,3.77,3.77,0,0,1-.38,1.09c-.19.31-.72.9-1.12.77a3,3,0,0,1-.56-.23c-.31-.18-.65-2.65-.8-3a1.6,1.6,0,0,1-.12-.8l0-.73a1.63,1.63,0,0,0,0-.35c0-.19-.3-.18-.48-.23a.25.25,0,0,1-.11-.05.23.23,0,0,1-.05-.1,10.15,10.15,0,0,1-.19-1.21c0-.29-.1-.84.15-1.05.09-.08.65-.1.65-.17s0-.34,0-.74,0-.31,0-.66a16.66,16.66,0,0,1,.17-1.81c.05-.34,0-1.08.53-1.1a1.94,1.94,0,0,1,.8.31A8,8,0,0,1,139.26,20.77Z"/><path id="_Контур_114" data-name="&lt;Контур&gt;" class="cls-65" d="M137.68,20.72a39.37,39.37,0,0,0-.37,4.09,19.86,19.86,0,0,0,0,3.78c.19.45,1,3.06,1,3.06s.64-5,.72-7.62a12.59,12.59,0,0,0,0-2.44A2.6,2.6,0,0,0,137.68,20.72Z"/></g><g id="_Группа_34" data-name="&lt;Группа&gt;"><path id="_Контур_115" data-name="&lt;Контур&gt;" class="cls-66" d="M120.88,8.64l.4-.14a1.19,1.19,0,0,1,.8.1l3.41,1.8c.42.23.4.5,0,.59l-.37.07a1.25,1.25,0,0,1-.73-.11L121,9.21C120.58,9,120.55,8.76,120.88,8.64Z"/><g id="_Группа_35" data-name="&lt;Группа&gt;"><polygon id="_Контур_116" data-name="&lt;Контур&gt;" class="cls-19" points="122.54 8.72 122.26 8.61 120.51 9.1 120.73 9.24 122.54 8.72"/><polygon id="_Контур_117" data-name="&lt;Контур&gt;" class="cls-19" points="123.27 9.07 122.99 8.96 121.24 9.45 121.47 9.58 123.27 9.07"/><polygon id="_Контур_118" data-name="&lt;Контур&gt;" class="cls-19" points="124.01 9.41 123.73 9.3 121.98 9.79 122.2 9.93 124.01 9.41"/><polygon id="_Контур_119" data-name="&lt;Контур&gt;" class="cls-19" points="124.75 9.75 124.46 9.64 122.72 10.13 122.94 10.27 124.75 9.75"/><polygon id="_Контур_120" data-name="&lt;Контур&gt;" class="cls-19" points="125.43 10.11 125.14 10 123.4 10.49 123.62 10.62 125.43 10.11"/><polygon id="_Контур_121" data-name="&lt;Контур&gt;" class="cls-19" points="125.98 10.5 125.69 10.39 123.95 10.88 124.17 11.02 125.98 10.5"/></g></g><g id="_Группа_36" data-name="&lt;Группа&gt;"><path id="_Контур_122" data-name="&lt;Контур&gt;" class="cls-66" d="M134.6,18.08l-.46.13a1,1,0,0,1-.81-.18l-3-2.47c-.38-.31-.27-.64.24-.71l.42-.06a1.06,1.06,0,0,1,.73.2l3,2.4C135,17.66,135,18,134.6,18.08Z"/><g id="_Группа_37" data-name="&lt;Группа&gt;"><polygon id="_Контур_123" data-name="&lt;Контур&gt;" class="cls-19" points="132.88 17.84 133.14 18 135.14 17.55 134.95 17.37 132.88 17.84"/><polygon id="_Контур_124" data-name="&lt;Контур&gt;" class="cls-19" points="132.21 17.37 132.47 17.52 134.47 17.07 134.28 16.89 132.21 17.37"/><polygon id="_Контур_125" data-name="&lt;Контур&gt;" class="cls-19" points="131.54 16.89 131.81 17.05 133.81 16.6 133.62 16.42 131.54 16.89"/><polygon id="_Контур_126" data-name="&lt;Контур&gt;" class="cls-19" points="130.87 16.42 131.14 16.57 133.14 16.13 132.95 15.94 130.87 16.42"/><polygon id="_Контур_127" data-name="&lt;Контур&gt;" class="cls-19" points="130.27 15.93 130.53 16.09 132.53 15.64 132.34 15.45 130.27 15.93"/><polygon id="_Контур_128" data-name="&lt;Контур&gt;" class="cls-19" points="129.81 15.4 130.08 15.56 132.08 15.11 131.89 14.93 129.81 15.4"/></g></g></g></g><g id="_Группа_обтравки_" data-name="&lt;Группа обтравки&gt;"><g class="cls-67"><g id="_Группа_38" data-name="&lt;Группа&gt;"><g id="_Группа_39" data-name="&lt;Группа&gt;"><g id="_Группа_40" data-name="&lt;Группа&gt;"><g id="_Группа_41" data-name="&lt;Группа&gt;"><g id="_Группа_42" data-name="&lt;Группа&gt;"><polygon id="_Контур_129" data-name="&lt;Контур&gt;" class="cls-68" points="54.7 69.52 47.49 65.36 47.49 57.6 54.7 61.76 54.7 69.52"/><polygon id="_Контур_130" data-name="&lt;Контур&gt;" class="cls-69" points="60.42 58.44 54.7 61.76 54.7 69.52 60.42 66.21 60.42 58.44"/><polygon id="_Контур_131" data-name="&lt;Контур&gt;" class="cls-70" points="57.13 61.35 55.39 62.37 55.39 64.73 57.13 63.73 57.13 61.35"/></g><polygon id="_Контур_132" data-name="&lt;Контур&gt;" class="cls-71" points="56.53 62.65 56.53 63.83 55.98 64.14 55.99 62.96 55.72 63.11 56.26 61.95 56.8 62.49 56.53 62.65"/><polygon id="_Контур_133" data-name="&lt;Контур&gt;" class="cls-72" points="60.42 58.44 54.7 61.76 51.32 59.81 50.22 59.18 47.49 57.6 53.21 54.28 55.95 55.86 57.05 56.49 60.42 58.44"/></g></g><polygon id="_Контур_134" data-name="&lt;Контур&gt;" class="cls-73" points="51.32 59.81 50.22 59.18 55.95 55.86 57.05 56.49 51.32 59.81"/><g id="_Группа_43" data-name="&lt;Группа&gt;"><polygon id="_Контур_135" data-name="&lt;Контур&gt;" class="cls-74" points="50.09 66.19 48.02 65.01 48.02 63.22 50.09 64.4 50.09 66.19"/><polygon id="_Контур_136" data-name="&lt;Контур&gt;" class="cls-75" points="49.98 65.96 48.14 64.91 48.14 64.83 49.98 65.88 49.98 65.96"/><polygon id="_Контур_137" data-name="&lt;Контур&gt;" class="cls-75" points="49.98 65.74 48.14 64.69 48.14 64.61 49.98 65.66 49.98 65.74"/><polygon id="_Контур_138" data-name="&lt;Контур&gt;" class="cls-75" points="49.98 65.51 48.14 64.46 48.14 64.38 49.98 65.43 49.98 65.51"/><polygon id="_Контур_139" data-name="&lt;Контур&gt;" class="cls-75" points="49.98 65.29 48.14 64.24 48.14 64.16 49.98 65.21 49.98 65.29"/><polygon id="_Контур_140" data-name="&lt;Контур&gt;" class="cls-75" points="49.98 64.87 48.14 63.82 48.14 63.56 49.98 64.61 49.98 64.87"/></g><polygon id="_Контур_141" data-name="&lt;Контур&gt;" class="cls-76" points="50.22 59.18 50.22 61.79 50.44 61.18 50.68 62.04 51 61.48 51.28 62.38 51.32 59.81 50.22 59.18"/><polygon id="_Контур_142" data-name="&lt;Контур&gt;" class="cls-71" points="58.44 60.7 57.92 61 57.92 61.7 58.44 61.4 58.44 60.7"/><polygon id="_Контур_143" data-name="&lt;Контур&gt;" class="cls-71" points="59.17 60.27 58.65 60.58 58.65 61.28 59.17 60.98 59.17 60.27"/><polygon id="_Контур_144" data-name="&lt;Контур&gt;" class="cls-71" points="59.91 59.85 59.38 60.16 59.38 60.86 59.91 60.55 59.91 59.85"/></g><g id="_Группа_44" data-name="&lt;Группа&gt;"><g id="_Группа_45" data-name="&lt;Группа&gt;"><g id="_Группа_46" data-name="&lt;Группа&gt;"><g id="_Группа_47" data-name="&lt;Группа&gt;"><polygon id="_Контур_145" data-name="&lt;Контур&gt;" class="cls-68" points="47.82 73.5 40.61 69.35 40.61 61.59 47.82 65.75 47.82 73.5"/><polygon id="_Контур_146" data-name="&lt;Контур&gt;" class="cls-69" points="53.55 62.43 47.82 65.75 47.82 73.5 53.55 70.2 53.55 62.43"/><polygon id="_Контур_147" data-name="&lt;Контур&gt;" class="cls-70" points="50.25 65.34 48.51 66.35 48.51 68.72 50.25 67.71 50.25 65.34"/></g><polygon id="_Контур_148" data-name="&lt;Контур&gt;" class="cls-71" points="49.65 66.64 49.65 67.81 49.1 68.12 49.11 66.94 48.84 67.1 49.38 65.94 49.93 66.48 49.65 66.64"/><polygon id="_Контур_149" data-name="&lt;Контур&gt;" class="cls-72" points="53.54 62.43 47.82 65.75 44.44 63.8 43.34 63.17 40.61 61.59 46.34 58.27 49.07 59.84 50.17 60.48 53.54 62.43"/></g></g><polygon id="_Контур_150" data-name="&lt;Контур&gt;" class="cls-73" points="44.44 63.8 43.34 63.17 49.07 59.84 50.17 60.48 44.44 63.8"/><g id="_Группа_48" data-name="&lt;Группа&gt;"><polygon id="_Контур_151" data-name="&lt;Контур&gt;" class="cls-74" points="43.21 70.17 41.14 68.99 41.14 67.21 43.21 68.39 43.21 70.17"/><polygon id="_Контур_152" data-name="&lt;Контур&gt;" class="cls-75" points="43.1 69.95 41.26 68.9 41.26 68.82 43.1 69.87 43.1 69.95"/><polygon id="_Контур_153" data-name="&lt;Контур&gt;" class="cls-75" points="43.1 69.72 41.26 68.67 41.26 68.59 43.1 69.64 43.1 69.72"/><polygon id="_Контур_154" data-name="&lt;Контур&gt;" class="cls-75" points="43.1 69.5 41.26 68.45 41.26 68.37 43.1 69.42 43.1 69.5"/><polygon id="_Контур_155" data-name="&lt;Контур&gt;" class="cls-75" points="43.1 69.28 41.26 68.23 41.26 68.14 43.1 69.2 43.1 69.28"/><polygon id="_Контур_156" data-name="&lt;Контур&gt;" class="cls-75" points="43.1 68.85 41.26 67.8 41.26 67.55 43.1 68.6 43.1 68.85"/></g><polygon id="_Контур_157" data-name="&lt;Контур&gt;" class="cls-76" points="43.34 63.17 43.34 65.78 43.56 65.17 43.8 66.03 44.12 65.47 44.4 66.36 44.44 63.8 43.34 63.17"/><polygon id="_Контур_158" data-name="&lt;Контур&gt;" class="cls-71" points="51.56 64.69 51.04 64.99 51.04 65.69 51.56 65.39 51.56 64.69"/><polygon id="_Контур_159" data-name="&lt;Контур&gt;" class="cls-71" points="52.3 64.26 51.77 64.57 51.77 65.27 52.3 64.96 52.3 64.26"/><polygon id="_Контур_160" data-name="&lt;Контур&gt;" class="cls-71" points="53.03 63.84 52.51 64.14 52.51 64.84 53.03 64.54 53.03 63.84"/></g><g id="_Группа_49" data-name="&lt;Группа&gt;"><g id="_Группа_50" data-name="&lt;Группа&gt;"><g id="_Группа_51" data-name="&lt;Группа&gt;"><g id="_Группа_52" data-name="&lt;Группа&gt;"><polygon id="_Контур_161" data-name="&lt;Контур&gt;" class="cls-68" points="62.69 74.08 55.49 69.92 55.49 62.17 62.69 66.33 62.69 74.08"/><polygon id="_Контур_162" data-name="&lt;Контур&gt;" class="cls-77" points="68.42 63 62.69 66.33 62.69 74.08 68.42 70.78 68.42 63"/><polygon id="_Контур_163" data-name="&lt;Контур&gt;" class="cls-70" points="65.13 65.92 63.38 66.93 63.38 69.3 65.13 68.29 65.13 65.92"/></g><polygon id="_Контур_164" data-name="&lt;Контур&gt;" class="cls-71" points="64.53 67.21 64.52 68.39 63.98 68.7 63.98 67.52 63.71 67.68 64.26 66.52 64.8 67.06 64.53 67.21"/><polygon id="_Контур_165" data-name="&lt;Контур&gt;" class="cls-72" points="68.42 63.01 62.7 66.33 59.31 64.37 58.21 63.74 55.49 62.17 61.21 58.85 63.94 60.42 65.04 61.06 68.42 63.01"/></g></g><polygon id="_Контур_166" data-name="&lt;Контур&gt;" class="cls-73" points="59.31 64.37 58.21 63.74 63.94 60.42 65.04 61.06 59.31 64.37"/><g id="_Группа_53" data-name="&lt;Группа&gt;"><polygon id="_Контур_167" data-name="&lt;Контур&gt;" class="cls-74" points="58.09 70.75 56.02 69.57 56.02 67.78 58.09 68.97 58.09 70.75"/><polygon id="_Контур_168" data-name="&lt;Контур&gt;" class="cls-75" points="57.97 70.53 56.13 69.47 56.13 69.39 57.97 70.44 57.97 70.53"/><polygon id="_Контур_169" data-name="&lt;Контур&gt;" class="cls-75" points="57.97 70.3 56.13 69.25 56.13 69.17 57.97 70.22 57.97 70.3"/><polygon id="_Контур_170" data-name="&lt;Контур&gt;" class="cls-75" points="57.97 70.08 56.13 69.03 56.13 68.94 57.97 70 57.97 70.08"/><polygon id="_Контур_171" data-name="&lt;Контур&gt;" class="cls-75" points="57.97 69.85 56.13 68.8 56.13 68.72 57.97 69.77 57.97 69.85"/><polygon id="_Контур_172" data-name="&lt;Контур&gt;" class="cls-75" points="57.97 69.43 56.13 68.38 56.13 68.12 57.97 69.17 57.97 69.43"/></g><polygon id="_Контур_173" data-name="&lt;Контур&gt;" class="cls-76" points="58.21 63.74 58.21 66.36 58.43 65.74 58.67 66.61 58.99 66.05 59.28 66.94 59.31 64.37 58.21 63.74"/><polygon id="_Контур_174" data-name="&lt;Контур&gt;" class="cls-71" points="66.43 65.26 65.91 65.57 65.91 66.27 66.43 65.96 66.43 65.26"/><polygon id="_Контур_175" data-name="&lt;Контур&gt;" class="cls-71" points="67.17 64.84 66.64 65.14 66.64 65.84 67.17 65.54 67.17 64.84"/><polygon id="_Контур_176" data-name="&lt;Контур&gt;" class="cls-71" points="67.9 64.42 67.38 64.72 67.38 65.42 67.9 65.12 67.9 64.42"/></g><g id="_Группа_54" data-name="&lt;Группа&gt;"><g id="_Группа_55" data-name="&lt;Группа&gt;"><g id="_Группа_56" data-name="&lt;Группа&gt;"><g id="_Группа_57" data-name="&lt;Группа&gt;"><polygon id="_Контур_177" data-name="&lt;Контур&gt;" class="cls-68" points="55.81 78.07 48.61 73.91 48.61 66.16 55.81 70.31 55.81 78.07"/><polygon id="_Контур_178" data-name="&lt;Контур&gt;" class="cls-77" points="61.54 66.99 55.81 70.31 55.81 78.07 61.54 74.77 61.54 66.99"/><polygon id="_Контур_179" data-name="&lt;Контур&gt;" class="cls-70" points="58.25 69.91 56.5 70.92 56.5 73.29 58.25 72.28 58.25 69.91"/></g><polygon id="_Контур_180" data-name="&lt;Контур&gt;" class="cls-71" points="57.65 71.2 57.64 72.38 57.1 72.69 57.1 71.51 56.83 71.66 57.38 70.5 57.92 71.04 57.65 71.2"/><polygon id="_Контур_181" data-name="&lt;Контур&gt;" class="cls-72" points="61.54 66.99 55.82 70.31 52.43 68.36 51.34 67.73 48.61 66.15 54.33 62.83 57.06 64.41 58.16 65.04 61.54 66.99"/></g></g><polygon id="_Контур_182" data-name="&lt;Контур&gt;" class="cls-73" points="52.43 68.36 51.34 67.73 57.06 64.41 58.16 65.04 52.43 68.36"/><g id="_Группа_58" data-name="&lt;Группа&gt;"><polygon id="_Контур_183" data-name="&lt;Контур&gt;" class="cls-74" points="51.21 74.74 49.14 73.56 49.14 71.77 51.21 72.95 51.21 74.74"/><polygon id="_Контур_184" data-name="&lt;Контур&gt;" class="cls-75" points="51.09 74.51 49.25 73.46 49.25 73.38 51.09 74.43 51.09 74.51"/><polygon id="_Контур_185" data-name="&lt;Контур&gt;" class="cls-75" points="51.09 74.29 49.25 73.24 49.25 73.16 51.09 74.21 51.09 74.29"/><polygon id="_Контур_186" data-name="&lt;Контур&gt;" class="cls-75" points="51.09 74.06 49.25 73.01 49.25 72.93 51.09 73.98 51.09 74.06"/><polygon id="_Контур_187" data-name="&lt;Контур&gt;" class="cls-75" points="51.09 73.84 49.25 72.79 49.25 72.71 51.09 73.76 51.09 73.84"/><polygon id="_Контур_188" data-name="&lt;Контур&gt;" class="cls-75" points="51.09 73.42 49.25 72.37 49.25 72.11 51.09 73.16 51.09 73.42"/></g><polygon id="_Контур_189" data-name="&lt;Контур&gt;" class="cls-76" points="51.34 67.73 51.33 70.34 51.55 69.73 51.79 70.6 52.11 70.04 52.4 70.93 52.43 68.36 51.34 67.73"/><polygon id="_Контур_190" data-name="&lt;Контур&gt;" class="cls-71" points="59.55 69.25 59.03 69.55 59.03 70.25 59.55 69.95 59.55 69.25"/><polygon id="_Контур_191" data-name="&lt;Контур&gt;" class="cls-71" points="60.29 68.83 59.77 69.13 59.77 69.83 60.29 69.53 60.29 68.83"/><polygon id="_Контур_192" data-name="&lt;Контур&gt;" class="cls-71" points="61.02 68.4 60.5 68.71 60.5 69.41 61.02 69.1 61.02 68.4"/></g><g id="_Группа_59" data-name="&lt;Группа&gt;"><g id="_Группа_60" data-name="&lt;Группа&gt;"><g id="_Группа_61" data-name="&lt;Группа&gt;"><g id="_Группа_62" data-name="&lt;Группа&gt;"><polygon id="_Контур_193" data-name="&lt;Контур&gt;" class="cls-68" points="54.7 61.48 47.49 57.33 47.49 49.57 54.7 53.73 54.7 61.48"/><polygon id="_Контур_194" data-name="&lt;Контур&gt;" class="cls-69" points="60.42 50.41 54.7 53.73 54.7 61.48 60.42 58.18 60.42 50.41"/><polygon id="_Контур_195" data-name="&lt;Контур&gt;" class="cls-70" points="57.13 53.32 55.39 54.33 55.39 56.7 57.13 55.69 57.13 53.32"/></g><polygon id="_Контур_196" data-name="&lt;Контур&gt;" class="cls-71" points="56.53 54.61 56.53 55.79 55.98 56.1 55.99 54.92 55.72 55.08 56.26 53.92 56.8 54.46 56.53 54.61"/><polygon id="_Контур_197" data-name="&lt;Контур&gt;" class="cls-72" points="60.42 50.41 54.7 53.73 51.32 51.78 50.22 51.15 47.49 49.57 53.21 46.25 55.95 47.83 57.05 48.46 60.42 50.41"/></g></g><polygon id="_Контур_198" data-name="&lt;Контур&gt;" class="cls-73" points="51.32 51.78 50.22 51.15 55.95 47.83 57.05 48.46 51.32 51.78"/><g id="_Группа_63" data-name="&lt;Группа&gt;"><polygon id="_Контур_199" data-name="&lt;Контур&gt;" class="cls-74" points="50.09 58.16 48.02 56.97 48.02 55.19 50.09 56.37 50.09 58.16"/><polygon id="_Контур_200" data-name="&lt;Контур&gt;" class="cls-75" points="49.98 57.93 48.14 56.88 48.14 56.8 49.98 57.85 49.98 57.93"/><polygon id="_Контур_201" data-name="&lt;Контур&gt;" class="cls-75" points="49.98 57.7 48.14 56.65 48.14 56.57 49.98 57.62 49.98 57.7"/><polygon id="_Контур_202" data-name="&lt;Контур&gt;" class="cls-75" points="49.98 57.48 48.14 56.43 48.14 56.35 49.98 57.4 49.98 57.48"/><polygon id="_Контур_203" data-name="&lt;Контур&gt;" class="cls-75" points="49.98 57.26 48.14 56.21 48.14 56.12 49.98 57.17 49.98 57.26"/><polygon id="_Контур_204" data-name="&lt;Контур&gt;" class="cls-75" points="49.98 56.83 48.14 55.78 48.14 55.53 49.98 56.58 49.98 56.83"/></g><polygon id="_Контур_205" data-name="&lt;Контур&gt;" class="cls-76" points="50.22 51.15 50.22 53.76 50.44 53.15 50.68 54.01 51 53.45 51.28 54.34 51.32 51.78 50.22 51.15"/><polygon id="_Контур_206" data-name="&lt;Контур&gt;" class="cls-71" points="58.44 52.66 57.92 52.97 57.92 53.67 58.44 53.37 58.44 52.66"/><polygon id="_Контур_207" data-name="&lt;Контур&gt;" class="cls-71" points="59.17 52.24 58.65 52.55 58.65 53.25 59.17 52.94 59.17 52.24"/><polygon id="_Контур_208" data-name="&lt;Контур&gt;" class="cls-71" points="59.91 51.82 59.38 52.12 59.38 52.82 59.91 52.52 59.91 51.82"/></g><g id="_Группа_64" data-name="&lt;Группа&gt;"><g id="_Группа_65" data-name="&lt;Группа&gt;"><g id="_Группа_66" data-name="&lt;Группа&gt;"><g id="_Группа_67" data-name="&lt;Группа&gt;"><polygon id="_Контур_209" data-name="&lt;Контур&gt;" class="cls-68" points="47.82 65.47 40.61 61.31 40.61 53.56 47.82 57.72 47.82 65.47"/><polygon id="_Контур_210" data-name="&lt;Контур&gt;" class="cls-69" points="53.55 54.4 47.82 57.72 47.82 65.47 53.55 62.17 53.55 54.4"/><polygon id="_Контур_211" data-name="&lt;Контур&gt;" class="cls-70" points="50.25 57.31 48.51 58.32 48.51 60.69 50.25 59.68 50.25 57.31"/></g><polygon id="_Контур_212" data-name="&lt;Контур&gt;" class="cls-71" points="49.65 58.6 49.65 59.78 49.1 60.09 49.11 58.91 48.84 59.07 49.38 57.91 49.93 58.45 49.65 58.6"/><polygon id="_Контур_213" data-name="&lt;Контур&gt;" class="cls-72" points="53.54 54.4 47.82 57.72 44.44 55.76 43.34 55.13 40.61 53.56 46.34 50.24 49.07 51.81 50.17 52.45 53.54 54.4"/></g></g><polygon id="_Контур_214" data-name="&lt;Контур&gt;" class="cls-73" points="44.44 55.76 43.34 55.13 49.07 51.81 50.17 52.45 44.44 55.76"/><g id="_Группа_68" data-name="&lt;Группа&gt;"><polygon id="_Контур_215" data-name="&lt;Контур&gt;" class="cls-74" points="43.21 62.14 41.14 60.96 41.14 59.17 43.21 60.36 43.21 62.14"/><polygon id="_Контур_216" data-name="&lt;Контур&gt;" class="cls-75" points="43.1 61.92 41.26 60.87 41.26 60.78 43.1 61.84 43.1 61.92"/><polygon id="_Контур_217" data-name="&lt;Контур&gt;" class="cls-75" points="43.1 61.69 41.26 60.64 41.26 60.56 43.1 61.61 43.1 61.69"/><polygon id="_Контур_218" data-name="&lt;Контур&gt;" class="cls-75" points="43.1 61.47 41.26 60.42 41.26 60.34 43.1 61.39 43.1 61.47"/><polygon id="_Контур_219" data-name="&lt;Контур&gt;" class="cls-75" points="43.1 61.24 41.26 60.19 41.26 60.11 43.1 61.16 43.1 61.24"/><polygon id="_Контур_220" data-name="&lt;Контур&gt;" class="cls-75" points="43.1 60.82 41.26 59.77 41.26 59.52 43.1 60.57 43.1 60.82"/></g><polygon id="_Контур_221" data-name="&lt;Контур&gt;" class="cls-76" points="43.34 55.13 43.34 57.75 43.56 57.13 43.8 58 44.12 57.44 44.4 58.33 44.44 55.76 43.34 55.13"/><polygon id="_Контур_222" data-name="&lt;Контур&gt;" class="cls-71" points="51.56 56.65 51.04 56.96 51.04 57.66 51.56 57.35 51.56 56.65"/><polygon id="_Контур_223" data-name="&lt;Контур&gt;" class="cls-71" points="52.3 56.23 51.77 56.53 51.77 57.23 52.3 56.93 52.3 56.23"/><polygon id="_Контур_224" data-name="&lt;Контур&gt;" class="cls-71" points="53.03 55.81 52.51 56.11 52.51 56.81 53.03 56.51 53.03 55.81"/></g><g id="_Группа_69" data-name="&lt;Группа&gt;"><g id="_Группа_70" data-name="&lt;Группа&gt;"><g id="_Группа_71" data-name="&lt;Группа&gt;"><g id="_Группа_72" data-name="&lt;Группа&gt;"><polygon id="_Контур_225" data-name="&lt;Контур&gt;" class="cls-68" points="62.69 66.05 55.49 61.89 55.49 54.13 62.69 58.29 62.69 66.05"/><polygon id="_Контур_226" data-name="&lt;Контур&gt;" class="cls-77" points="68.42 54.97 62.69 58.29 62.69 66.05 68.42 62.75 68.42 54.97"/><polygon id="_Контур_227" data-name="&lt;Контур&gt;" class="cls-70" points="65.13 57.88 63.38 58.9 63.38 61.27 65.13 60.26 65.13 57.88"/></g><polygon id="_Контур_228" data-name="&lt;Контур&gt;" class="cls-71" points="64.53 59.18 64.52 60.36 63.98 60.67 63.98 59.49 63.71 59.64 64.26 58.48 64.8 59.02 64.53 59.18"/><polygon id="_Контур_229" data-name="&lt;Контур&gt;" class="cls-72" points="68.42 54.97 62.7 58.29 59.31 56.34 58.21 55.71 55.49 54.13 61.21 50.81 63.94 52.39 65.04 53.02 68.42 54.97"/></g></g><polygon id="_Контур_230" data-name="&lt;Контур&gt;" class="cls-73" points="59.31 56.34 58.21 55.71 63.94 52.39 65.04 53.02 59.31 56.34"/><g id="_Группа_73" data-name="&lt;Группа&gt;"><polygon id="_Контур_231" data-name="&lt;Контур&gt;" class="cls-74" points="58.09 62.72 56.02 61.54 56.02 59.75 58.09 60.93 58.09 62.72"/><polygon id="_Контур_232" data-name="&lt;Контур&gt;" class="cls-75" points="57.97 62.49 56.13 61.44 56.13 61.36 57.97 62.41 57.97 62.49"/><polygon id="_Контур_233" data-name="&lt;Контур&gt;" class="cls-75" points="57.97 62.27 56.13 61.22 56.13 61.14 57.97 62.19 57.97 62.27"/><polygon id="_Контур_234" data-name="&lt;Контур&gt;" class="cls-75" points="57.97 62.05 56.13 60.99 56.13 60.91 57.97 61.96 57.97 62.05"/><polygon id="_Контур_235" data-name="&lt;Контур&gt;" class="cls-75" points="57.97 61.82 56.13 60.77 56.13 60.69 57.97 61.74 57.97 61.82"/><polygon id="_Контур_236" data-name="&lt;Контур&gt;" class="cls-75" points="57.97 61.4 56.13 60.35 56.13 60.09 57.97 61.14 57.97 61.4"/></g><polygon id="_Контур_237" data-name="&lt;Контур&gt;" class="cls-76" points="58.21 55.71 58.21 58.32 58.43 57.71 58.67 58.58 58.99 58.02 59.28 58.91 59.31 56.34 58.21 55.71"/><polygon id="_Контур_238" data-name="&lt;Контур&gt;" class="cls-71" points="66.43 57.23 65.91 57.53 65.91 58.23 66.43 57.93 66.43 57.23"/><polygon id="_Контур_239" data-name="&lt;Контур&gt;" class="cls-71" points="67.17 56.81 66.64 57.11 66.64 57.81 67.17 57.51 67.17 56.81"/><polygon id="_Контур_240" data-name="&lt;Контур&gt;" class="cls-71" points="67.9 56.38 67.38 56.69 67.38 57.39 67.9 57.08 67.9 56.38"/></g><g id="_Группа_74" data-name="&lt;Группа&gt;"><g id="_Группа_75" data-name="&lt;Группа&gt;"><g id="_Группа_76" data-name="&lt;Группа&gt;"><g id="_Группа_77" data-name="&lt;Группа&gt;"><polygon id="_Контур_241" data-name="&lt;Контур&gt;" class="cls-68" points="55.81 70.04 48.61 65.88 48.61 58.12 55.81 62.28 55.81 70.04"/><polygon id="_Контур_242" data-name="&lt;Контур&gt;" class="cls-77" points="61.54 58.96 55.81 62.28 55.81 70.04 61.54 66.73 61.54 58.96"/><polygon id="_Контур_243" data-name="&lt;Контур&gt;" class="cls-70" points="58.25 61.87 56.5 62.89 56.5 65.25 58.25 64.25 58.25 61.87"/></g><polygon id="_Контур_244" data-name="&lt;Контур&gt;" class="cls-71" points="57.65 63.17 57.64 64.35 57.1 64.66 57.1 63.48 56.83 63.63 57.38 62.47 57.92 63.01 57.65 63.17"/><polygon id="_Контур_245" data-name="&lt;Контур&gt;" class="cls-72" points="61.54 58.96 55.82 62.28 52.43 60.33 51.34 59.7 48.61 58.12 54.33 54.8 57.06 56.38 58.16 57.01 61.54 58.96"/></g></g><polygon id="_Контур_246" data-name="&lt;Контур&gt;" class="cls-73" points="52.43 60.33 51.34 59.7 57.06 56.38 58.16 57.01 52.43 60.33"/><g id="_Группа_78" data-name="&lt;Группа&gt;"><polygon id="_Контур_247" data-name="&lt;Контур&gt;" class="cls-74" points="51.21 66.71 49.14 65.53 49.14 63.74 51.21 64.92 51.21 66.71"/><polygon id="_Контур_248" data-name="&lt;Контур&gt;" class="cls-75" points="51.09 66.48 49.25 65.43 49.25 65.35 51.09 66.4 51.09 66.48"/><polygon id="_Контур_249" data-name="&lt;Контур&gt;" class="cls-75" points="51.09 66.26 49.25 65.21 49.25 65.13 51.09 66.17 51.09 66.26"/><polygon id="_Контур_250" data-name="&lt;Контур&gt;" class="cls-75" points="51.09 66.03 49.25 64.98 49.25 64.9 51.09 65.95 51.09 66.03"/><polygon id="_Контур_251" data-name="&lt;Контур&gt;" class="cls-75" points="51.09 65.81 49.25 64.76 49.25 64.68 51.09 65.73 51.09 65.81"/><polygon id="_Контур_252" data-name="&lt;Контур&gt;" class="cls-75" points="51.09 65.39 49.25 64.34 49.25 64.08 51.09 65.13 51.09 65.39"/></g><polygon id="_Контур_253" data-name="&lt;Контур&gt;" class="cls-76" points="51.34 59.7 51.33 62.31 51.55 61.7 51.79 62.56 52.11 62 52.4 62.9 52.43 60.33 51.34 59.7"/><polygon id="_Контур_254" data-name="&lt;Контур&gt;" class="cls-71" points="59.55 61.22 59.03 61.52 59.03 62.22 59.55 61.92 59.55 61.22"/><polygon id="_Контур_255" data-name="&lt;Контур&gt;" class="cls-71" points="60.29 60.79 59.77 61.1 59.77 61.8 60.29 61.49 60.29 60.79"/><polygon id="_Контур_256" data-name="&lt;Контур&gt;" class="cls-71" points="61.02 60.37 60.5 60.68 60.5 61.38 61.02 61.07 61.02 60.37"/></g></g></g></g><g id="_Группа_79" data-name="&lt;Группа&gt;"><path id="_Контур_257" data-name="&lt;Контур&gt;" class="cls-78" d="M38.18,90.89c-1.35,2-5.61,3-9.51,2.17s-6-3.12-4.62-5.14,5.61-3,9.51-2.17S39.53,88.87,38.18,90.89Z"/><path id="_Контур_258" data-name="&lt;Контур&gt;" class="cls-79" d="M41.89,68.19h0c-.12,0-.21.06-.33,0a2.58,2.58,0,0,1-.47-.18,2.49,2.49,0,0,1-.38-.16c-.42-.27-.82-.59-1.24-.88-.6-.4-2-1.72-2-1.72-1.28.35-.48,1.89-.08,2.11a12.22,12.22,0,0,0,1.35.56c.28.11.56.23.83.36a.76.76,0,0,1,.25.27c.25.34.76.41,1,.78a1.63,1.63,0,0,1,.12.4s0,.07.05.07H41a.43.43,0,0,0,.24-.3,2,2,0,0,0-.1-.36c.12,0,.19.12.29.18a3.81,3.81,0,0,0,.92.32.81.81,0,0,0,.44.06.83.83,0,0,0,.27-.12.26.26,0,0,1,.08-.07h.08a.14.14,0,0,0,.1-.11.41.41,0,0,0,0-.15.13.13,0,0,0,.12-.1.31.31,0,0,0,0-.17.38.38,0,0,0-.2-.21.54.54,0,0,1-.18-.1.94.94,0,0,1-.06-.1.45.45,0,0,0-.17-.13A2.43,2.43,0,0,0,41.89,68.19Z"/><path id="_Контур_259" data-name="&lt;Контур&gt;" class="cls-80" d="M39.91,68.45a5.94,5.94,0,0,0-.47-.37c-.19-.13-.4-.21-.58-.34s-1.2-.65-1-1.2a1.61,1.61,0,0,0,.08-.42c0-.11,0-.27,0-.36a2.93,2.93,0,0,1-.32-.41,1.4,1.4,0,0,1-.24.61c-.12.14-.47.28-.52.46a.89.89,0,0,0,.1.47,1.33,1.33,0,0,0,.42.53,12.22,12.22,0,0,0,1.35.56c.18.07.38.13.55.21s.27.26.4.38a2.18,2.18,0,0,0,.37.25c.08,0,.6.51.5.17,0-.14-.19-.22-.3-.29Z"/><g id="_Группа_80" data-name="&lt;Группа&gt;"><g id="_Группа_81" data-name="&lt;Группа&gt;"><path id="_Контур_260" data-name="&lt;Контур&gt;" class="cls-81" d="M34,88l-.1.27a1,1,0,0,0-.1.5,3.71,3.71,0,0,1,0,.68L35.1,90l.52-.06s.16.15.19.17a2.83,2.83,0,0,0,1.35.64,4.32,4.32,0,0,0,1.12,0,.8.8,0,0,0,.23,0,1.54,1.54,0,0,0,.65-.5.68.68,0,0,0-.14-.8,4.36,4.36,0,0,0-1.87-1l-.43-1.1s-.86.25-.92.27a1.75,1.75,0,0,1-.75.16,2.18,2.18,0,0,0-.82,0l-.05,0a.13.13,0,0,0,0,.05C34.11,87.88,34.08,88,34,88Z"/></g><g id="_Группа_82" data-name="&lt;Группа&gt;"><path id="_Контур_261" data-name="&lt;Контур&gt;" class="cls-82" d="M38.94,89.34c.21.2,0,.45-.21.55a.83.83,0,0,1-.35.06,3.65,3.65,0,0,1-.81-.08,3.28,3.28,0,0,1-.63-.16,3.06,3.06,0,0,1-.52-.21c-.17-.11-.2-.34-.3-.5s-.23-.25-.31-.39-.1-.32,0-.37a3.1,3.1,0,0,0,.94-.85l.39,1s.21.06.24.07a5.6,5.6,0,0,1,.57.23,4,4,0,0,1,.67.38A2.94,2.94,0,0,1,38.94,89.34Z"/></g><path id="_Контур_262" data-name="&lt;Контур&gt;" class="cls-83" d="M34,87.74s-.35-4.15.32-5.53a4,4,0,0,0,.51-2.56c0-.56-.76-1.13-1.12-1.46a3.26,3.26,0,0,1-.7-.77,7.76,7.76,0,0,1-.61-1.18.67.67,0,0,0-.3-.42.81.81,0,0,1-.18-.07.35.35,0,0,1-.1-.14,10.23,10.23,0,0,1-.93-3.84c0-.26-.1-.54.18-.58s.49,0,.73,0a4.37,4.37,0,0,0,1.48-.54,7.4,7.4,0,0,0,.86-.57c.2-.15.47-.41.73-.21a.88.88,0,0,1,.24.38c.66,1.59,1.21,3.21,1.72,4.85.31,1,.61,1.9.89,2.87A3.84,3.84,0,0,1,38,79.47a28.28,28.28,0,0,1-.84,3.27,15,15,0,0,0-.33,2.47c0,.78,0,1.55,0,2.33A2,2,0,0,1,34,87.74Z"/><path id="_Контур_263" data-name="&lt;Контур&gt;" class="cls-84" d="M32.77,77.44c.35.36.66.77,1,1.13a3.58,3.58,0,0,1,.67.85c.19.36.09.54,0,.92q-.15.93-.3,1.87c-.08.51-.19,1-.24,1.53a22.27,22.27,0,0,0,0,4,2.82,2.82,0,0,0,.69.37,6.39,6.39,0,0,0-.14-1.35,13.26,13.26,0,0,1,.1-3.59,11.89,11.89,0,0,1,.45-1.79c.09-.25.18-.52.24-.78a2.49,2.49,0,0,0,.07-1,2.19,2.19,0,0,0-.08-.34,1.6,1.6,0,0,0-.45-.87c-.31-.25-.62-.52-.92-.79a6.92,6.92,0,0,1-1.52-1.89,6.81,6.81,0,0,1-.64-2.43c0-.42-.06-.85-.08-1.28,0-.14,0-.82.18-.85A2.24,2.24,0,0,1,30.7,71a1.83,1.83,0,0,0,0,.66c0,.26,0,.53,0,.79a4.81,4.81,0,0,0,.14.9,9.11,9.11,0,0,0,1,2.68A6.1,6.1,0,0,0,32.77,77.44Z"/><g id="_Группа_83" data-name="&lt;Группа&gt;"><path id="_Контур_264" data-name="&lt;Контур&gt;" class="cls-81" d="M24.28,85.94l-.19.21a.94.94,0,0,0-.28.43,3.72,3.72,0,0,1-.21.65l.95.89.5.14s.1.2.11.23a2.83,2.83,0,0,0,1,1.09,4.33,4.33,0,0,0,1,.44.79.79,0,0,0,.22.06,1.54,1.54,0,0,0,.79-.22.68.68,0,0,0,.17-.79A4.36,4.36,0,0,0,27,87.43V86.25s-.89-.09-.95-.09a1.76,1.76,0,0,1-.76-.13,2.18,2.18,0,0,0-.77-.3h-.05l-.05,0Z"/></g><g id="_Группа_84" data-name="&lt;Группа&gt;"><path id="_Контур_265" data-name="&lt;Контур&gt;" class="cls-82" d="M28.35,89c.12.26-.17.42-.4.43a.83.83,0,0,1-.35-.07,3.65,3.65,0,0,1-.72-.37,3.28,3.28,0,0,1-.53-.38,3.05,3.05,0,0,1-.4-.38c-.12-.17-.06-.39-.09-.58s-.12-.31-.15-.48,0-.34.15-.34A3.1,3.1,0,0,0,27,86.36v1.08s.18.14.2.16a5.54,5.54,0,0,1,.45.42,3.93,3.93,0,0,1,.48.61A2.87,2.87,0,0,1,28.35,89Z"/></g><path id="_Контур_266" data-name="&lt;Контур&gt;" class="cls-84" d="M31.11,74.07a4.27,4.27,0,0,1,0-.62L31.24,72a.59.59,0,0,0,0-.31.55.55,0,0,0-.19-.19,3.74,3.74,0,0,0-1.27-.57.68.68,0,0,0-.61.07.69.69,0,0,0-.15.25,7.38,7.38,0,0,0-.44,1.45,10.39,10.39,0,0,0-.29,1.51,12.07,12.07,0,0,1-.26,2,11.68,11.68,0,0,1-1.31,3.5,19.31,19.31,0,0,0-1,1.71,22.43,22.43,0,0,0-1.28,4.46,2.46,2.46,0,0,0,1.78.66l1-.13c.28-.71,2.17-5.9,2.6-6.3A5.06,5.06,0,0,0,30.8,79a4.88,4.88,0,0,0,.39-1.69,12.84,12.84,0,0,0,0-2.6C31.14,74.47,31.12,74.27,31.11,74.07Z"/><path id="_Контур_267" data-name="&lt;Контур&gt;" class="cls-85" d="M33.21,70.92,33,71a3.52,3.52,0,0,1-2.12,0c-.17,0-.37-.06-.47.08a.46.46,0,0,0-.06.25,8.93,8.93,0,0,1-.89,3c-.16.39-.21.78-.35,1.16s-.09.89-.23,1.32a5.75,5.75,0,0,1-.33.75l-.49,1c-.53,1.07-1.28,2-1.74,3.1a10.11,10.11,0,0,0-.41,1.23c-.23.84-.4,2.35-.54,3.21a2.37,2.37,0,0,0,0,.32,1.79,1.79,0,0,0,.84.1l1-.13a6.92,6.92,0,0,0,.55-1.35,13.32,13.32,0,0,0,.57-1.31,6.43,6.43,0,0,1,.95-1.81c.35-.5.71-1,1.07-1.51a9.19,9.19,0,0,0,1.52-3.63,3,3,0,0,1,.29-1,2.31,2.31,0,0,1,.88-.69c.12-.06.24-.11.36-.17A2,2,0,0,0,34,74,5,5,0,0,0,34.58,73c.1-.35.25-.7.37-1a5.88,5.88,0,0,1,.29-.74c.1-.21.23-.45.11-.65a.53.53,0,0,0-.37-.21A2.77,2.77,0,0,0,33.21,70.92Z"/><path id="_Контур_268" data-name="&lt;Контур&gt;" class="cls-86" d="M34,59.1a1.47,1.47,0,0,1,1.47,0c.65.47.75.86.95,2s.37,2.42.37,2.42l1.3,1.94s.25.84-.8,1.58S32.86,59.58,34,59.1Z"/><path id="_Контур_269" data-name="&lt;Контур&gt;" class="cls-87" d="M36.22,60.08a1.72,1.72,0,0,0-.72-1,1.47,1.47,0,0,0-1.47,0c-.19.08-.26.36-.23.77a5.78,5.78,0,0,0,1.14-.25,1.52,1.52,0,0,1,1.11.31C36.1,60,36.15,60,36.22,60.08Z"/><path id="_Контур_270" data-name="&lt;Контур&gt;" class="cls-86" d="M35.87,67c-.39,3.35-.4,4-.4,4s-1.73,2.41-6.82.63c0,0,.78-2.86.55-3.42s-1.89-2.77-1.86-4.07-.2-2.39,1.16-3.44a25,25,0,0,1,2-1.48,7.66,7.66,0,0,1,1.54-.77,2.65,2.65,0,0,1,1.57,0,3.49,3.49,0,0,1,2,1.24C36,60.38,36.26,63.62,35.87,67Z"/><path id="_Контур_271" data-name="&lt;Контур&gt;" class="cls-87" d="M33.63,58.4a2.65,2.65,0,0,0-1.57,0,7.67,7.67,0,0,0-1.54.77,25,25,0,0,0-2,1.48c-1.36,1-1.13,2.14-1.16,3.44s1.63,3.5,1.86,4.07-.55,3.42-.55,3.42a12.82,12.82,0,0,0,1.54.43s.08-1.49.08-1.59A12.85,12.85,0,0,0,30,66a5.76,5.76,0,0,0-1-1.67,2,2,0,0,1-.35-.94,6.53,6.53,0,0,1-.15-1.09,1.08,1.08,0,0,1,.07-.47,1.28,1.28,0,0,1,.29-.38,6.75,6.75,0,0,1,1.94-1.52A8.54,8.54,0,0,1,33,59.44a13.37,13.37,0,0,1,2.36-.05A4,4,0,0,0,33.63,58.4Z"/><path id="_Контур_272" data-name="&lt;Контур&gt;" class="cls-80" d="M34.35,60.67a.92.92,0,0,1-1.45.87c-.31-.23-.65-.51-1-.81a5.13,5.13,0,0,1-1.39-1.58,7.66,7.66,0,0,1,1.54-.77,2.65,2.65,0,0,1,1.57,0,11.14,11.14,0,0,1,.71,2.24Z"/><path id="_Контур_273" data-name="&lt;Контур&gt;" class="cls-88" d="M32.07,60.53a4,4,0,0,1,0-1.12c.05-.34.16-.67.19-1,0,0,0,0,0-.07l-.22.05a7.67,7.67,0,0,0-1.54.77,5.13,5.13,0,0,0,1.39,1.58l.29.25A4.25,4.25,0,0,1,32.07,60.53Z"/><path id="_Контур_274" data-name="&lt;Контур&gt;" class="cls-89" d="M30.75,59l-.06,0c-.1,0-.17.07-.25.12l-.47.29c-.19.11,0,.43.08.55a2.59,2.59,0,0,0,.38.6,4,4,0,0,0,1,.78,4.89,4.89,0,0,0,.82.4c.11,0,.74.37.81.28a.93.93,0,0,0,0-.18c0-.08,0-.17,0-.25a3.7,3.7,0,0,0,.07-.45c0-.14-.07-.11-.19-.13a2.48,2.48,0,0,1-.79-.34,4.84,4.84,0,0,1-.84-.67,2.4,2.4,0,0,1-.49-.83A.3.3,0,0,0,30.75,59Z"/><path id="_Контур_275" data-name="&lt;Контур&gt;" class="cls-89" d="M35,59.29c0-.18,0-.43-.18-.51a.47.47,0,0,0-.4.1.28.28,0,0,0-.14.33,1.57,1.57,0,0,1-.19,1,.39.39,0,0,0-.09.24.34.34,0,0,0,.07.13,2.52,2.52,0,0,1,.34.93.64.64,0,0,0,.25-.31l.32-.62a1,1,0,0,0,.09-.21,1,1,0,0,0,0-.24,1.55,1.55,0,0,0,0-.43A1.19,1.19,0,0,1,35,59.29Z"/><path id="_Контур_276" data-name="&lt;Контур&gt;" class="cls-90" d="M30.89,58v1a4.36,4.36,0,0,0,1.8,1c1.09.28,1.38,0,1.38,0l0-2.24S31.14,56.78,30.89,58Z"/><path id="_Контур_277" data-name="&lt;Контур&gt;" class="cls-80" d="M30.89,58v1a4.46,4.46,0,0,0,1.26.8,3.87,3.87,0,0,1,0-.48c0-.34.05-.69,0-1a3.45,3.45,0,0,0-.27-.95C31.39,57.43,31,57.59,30.89,58Z"/><path id="_Контур_278" data-name="&lt;Контур&gt;" class="cls-91" d="M34.83,59.55c-.2.66-.86.8-1.7.55a3.23,3.23,0,0,1-1.12-.7l-.31-.3L31.63,59l-.06-.07-.08-.09c-1.9-2.54-.5-2.67.08-3.68a1.09,1.09,0,0,1,.16-.22,1.24,1.24,0,0,1,.16-.16,3.85,3.85,0,0,1,2.93-.9,1.49,1.49,0,0,1,1,1,3.18,3.18,0,0,1,.19.72.48.48,0,0,1,0,.1A22,22,0,0,1,34.83,59.55Z"/><path id="_Контур_279" data-name="&lt;Контур&gt;" class="cls-92" d="M36,55.72h0a1.31,1.31,0,0,1-.48.06,5.47,5.47,0,0,1-1.3-.14c-.18,0-.43-.17-.62-.09a1.12,1.12,0,0,0-.43.3,1.46,1.46,0,0,0-.14.21,2.81,2.81,0,0,0-.38.82c-.06.3-.14.59-.21.88a3.37,3.37,0,0,1-.28.62,2.2,2.2,0,0,0-.14,1l-.31-.3L31.63,59l-.06-.07-.08-.09c-1.9-2.54-.5-2.67.08-3.68a1.09,1.09,0,0,1,.16-.22,1.24,1.24,0,0,1,.16-.16,2.41,2.41,0,0,1,1.37-.52,4,4,0,0,1,.93,0,3.3,3.3,0,0,1,1.16.36c.11.07.3.13.48.22a3.18,3.18,0,0,1,.19.72A.48.48,0,0,1,36,55.72Z"/><g id="_Группа_85" data-name="&lt;Группа&gt;"><path id="_Контур_280" data-name="&lt;Контур&gt;" class="cls-93" d="M31.27,58.42A2.2,2.2,0,0,0,31,57.22a1.37,1.37,0,0,1-.14-.44.9.9,0,0,1,.18-.6.39.39,0,0,1,.59,0,1.21,1.21,0,0,1,.18.48,6.24,6.24,0,0,1,.1.67s0,0,0,0l.39.12v0c.09-.44.23-.87.33-1.3.2-.87,1.09-1.09,2.57-.94a1,1,0,0,1,.8.35,2.11,2.11,0,0,0-.3-1.51,3.74,3.74,0,0,0-2-1.48,3,3,0,0,0-2.45.53,3.33,3.33,0,0,0-1.17,2.08,4.62,4.62,0,0,0,0,1.46,3.1,3.1,0,0,0,.76,1.69,4,4,0,0,0,.33.32S31.26,58.46,31.27,58.42Z"/><path id="_Контур_281" data-name="&lt;Контур&gt;" class="cls-94" d="M34.2,53.1a5.15,5.15,0,0,1,.85.4l.22.13.19.11a3.44,3.44,0,0,0-1.7-1.16,3,3,0,0,0-2.45.53,3.33,3.33,0,0,0-1.17,2.08,4.62,4.62,0,0,0,0,1.46,3.13,3.13,0,0,0,.55,1.41c0-.08,0-.15,0-.21,0-.37,0-.74,0-1.11a7.27,7.27,0,0,1,.27-1.89A2.73,2.73,0,0,1,33.33,53,2,2,0,0,1,34.2,53.1Z"/></g></g><g id="_Группа_86" data-name="&lt;Группа&gt;"><g id="_Группа_87" data-name="&lt;Группа&gt;"><g id="_Группа_88" data-name="&lt;Группа&gt;"><g id="_Группа_89" data-name="&lt;Группа&gt;"><polygon id="_Контур_282" data-name="&lt;Контур&gt;" class="cls-95" points="37.26 73.92 42.69 70.78 42.69 65.6 37.26 68.74 37.26 73.92"/><polygon id="_Контур_283" data-name="&lt;Контур&gt;" class="cls-96" points="32.94 66.23 37.26 68.74 37.26 73.92 32.94 71.43 32.94 66.23"/></g><polygon id="_Контур_284" data-name="&lt;Контур&gt;" class="cls-97" points="32.94 66.23 37.26 68.74 39.81 67.26 40.63 66.79 42.69 65.6 38.38 63.1 36.32 64.29 35.49 64.77 32.94 66.23"/></g></g><polygon id="_Контур_285" data-name="&lt;Контур&gt;" class="cls-98" points="39.81 67.26 40.63 66.79 36.32 64.29 35.49 64.77 39.81 67.26"/><polygon id="_Контур_286" data-name="&lt;Контур&gt;" class="cls-99" points="40.63 66.79 40.64 68.76 40.47 68.3 40.29 68.95 40.05 68.53 39.83 69.2 39.81 67.26 40.63 66.79"/><polygon id="_Контур_287" data-name="&lt;Контур&gt;" class="cls-100" points="34.44 67.93 34.83 68.16 34.83 68.69 34.44 68.46 34.44 67.93"/><polygon id="_Контур_288" data-name="&lt;Контур&gt;" class="cls-100" points="33.88 67.61 34.28 67.84 34.28 68.37 33.88 68.14 33.88 67.61"/><polygon id="_Контур_289" data-name="&lt;Контур&gt;" class="cls-100" points="33.33 67.3 33.73 67.53 33.73 68.05 33.33 67.83 33.33 67.3"/><g id="_Группа_90" data-name="&lt;Группа&gt;"><polygon id="_Контур_290" data-name="&lt;Контур&gt;" class="cls-101" points="37.42 63.94 38.64 64.66 39.56 64.14 38.34 63.42 37.42 63.94"/><polygon id="_Контур_291" data-name="&lt;Контур&gt;" class="cls-102" points="37.57 63.94 38.65 64.57 38.7 64.55 37.61 63.91 37.57 63.94"/><polygon id="_Контур_292" data-name="&lt;Контур&gt;" class="cls-102" points="37.69 63.87 38.77 64.51 38.81 64.48 37.73 63.85 37.69 63.87"/><polygon id="_Контур_293" data-name="&lt;Контур&gt;" class="cls-102" points="37.8 63.8 38.88 64.44 38.92 64.42 37.84 63.78 37.8 63.8"/><polygon id="_Контур_294" data-name="&lt;Контур&gt;" class="cls-102" points="37.92 63.74 39 64.38 39.04 64.35 37.96 63.71 37.92 63.74"/><polygon id="_Контур_295" data-name="&lt;Контур&gt;" class="cls-102" points="38.13 63.61 39.22 64.25 39.35 64.18 38.27 63.54 38.13 63.61"/></g><g id="_Группа_91" data-name="&lt;Группа&gt;"><g id="_Группа_92" data-name="&lt;Группа&gt;"><path id="_Составной_контур_9" data-name="&lt;Составной контур&gt;" class="cls-100" d="M36.93,70.3,36,69.77V68.54l.91.53Zm-.86-.56.81.47V69.1l-.81-.47Z"/></g><polygon id="_Контур_296" data-name="&lt;Контур&gt;" class="cls-100" points="36.34 69.22 36.34 69.81 36.61 69.96 36.61 69.38 36.74 69.45 36.47 68.88 36.2 69.15 36.34 69.22"/></g></g><g id="_Группа_93" data-name="&lt;Группа&gt;"><path id="_Контур_297" data-name="&lt;Контур&gt;" class="cls-79" d="M36.81,70l-.4.17-.1,0a3.65,3.65,0,0,1-.67.29,1.85,1.85,0,0,1-.72,0c-1-.2-2.78-1-3.88-1.06-.37-.1-.64.29-.73.59a2.3,2.3,0,0,0-.08.56,1.49,1.49,0,0,0,.29.63c.12.21.26.22.48.26l.61.09a12.38,12.38,0,0,0,1.68.09,8.49,8.49,0,0,1,2.8.12,1.33,1.33,0,0,0,.64.12,2.84,2.84,0,0,0,.46-.07,5.49,5.49,0,0,0,.8-.09c.27,0,.24.08.56-.45s0-.5,0-.5l0-.19a.14.14,0,0,0-.15-.18l-1.15-.07-.14-.09c.21-.14.63-.47.57-.63S37.08,69.89,36.81,70Z"/><path id="_Контур_298" data-name="&lt;Контур&gt;" class="cls-80" d="M30.8,71.2a.28.28,0,0,0,.09.23,1.53,1.53,0,0,0,.49.08,12.11,12.11,0,0,0,1.92.12,8.49,8.49,0,0,1,2.8.12,2,2,0,0,0,.5.12,2.73,2.73,0,0,0-1-.5,17.17,17.17,0,0,0-2.56-.17A8.32,8.32,0,0,1,31.59,71a3.74,3.74,0,0,1-.45-.13c-.09,0-.14-.09-.23,0A.49.49,0,0,0,30.8,71.2Z"/><path id="_Контур_299" data-name="&lt;Контур&gt;" class="cls-103" d="M29.22,61.32a2.27,2.27,0,0,1,.72.9,10.89,10.89,0,0,1,1,3.34c.14,1.22.14,3.18,1.41,3.86a.48.48,0,0,1,.13.08.29.29,0,0,1,.06.12,1.58,1.58,0,0,1,0,.57,3.56,3.56,0,0,1-.31,1.38.57.57,0,0,1-.16.2.67.67,0,0,1-.4.09H31a.75.75,0,0,1-.5-.23A4.73,4.73,0,0,1,29.29,69a17.77,17.77,0,0,0-.88-3c-.1-.25-.21-.51-.33-.75a4.57,4.57,0,0,1-.64-2.51,2.72,2.72,0,0,1,.76-1.4.93.93,0,0,1,.36-.22A.78.78,0,0,1,29.22,61.32Z"/></g></g></g></g></g></g></svg>