<?xml version="1.0" encoding="iso-8859-1"?>
<!-- Generator: Adobe Illustrator 19.0.0, SVG Export Plug-In . SVG Version: 6.00 Build 0)  -->
<svg version="1.1" id="Capa_1" xmlns="http://www.w3.org/2000/svg" xmlns:xlink="http://www.w3.org/1999/xlink" x="0px" y="0px"
	 viewBox="0 0 512 512" style="enable-background:new 0 0 512 512;" xml:space="preserve">
<g>
	<g>
		<path d="M80,352h-8c-4.8,0-8,3.2-8,8s3.2,8,8,8h8c4.8,0,8-3.2,8-8S84.8,352,80,352z"/>
	</g>
</g>
<g>
	<g>
		<path d="M112,352h-8c-4.8,0-8,3.2-8,8s3.2,8,8,8h8c4.8,0,8-3.2,8-8S116.8,352,112,352z"/>
	</g>
</g>
<g>
	<g>
		<path d="M48,352h-8c-4.8,0-8,3.2-8,8s3.2,8,8,8h8c4.8,0,8-3.2,8-8S52.8,352,48,352z"/>
	</g>
</g>
<g>
	<g>
		<path d="M512,0H0v432h203.2l-24.8,80h147.2l-24.8-80H512V0z M304,496H200l20-64h63.2L304,496z M496,416H295.2h-86.4H16v-24h480
			V416z M496,376H16V56h480V376z M496,40H16V16h480V40z"/>
	</g>
</g>
<g>
	<g>
		<path d="M64,208v120h64V208H64z M112,312H80v-88h32V312z"/>
	</g>
</g>
<g>
	<g>
		<path d="M144,176v152h64V176H144z M192,312h-32V192h32V312z"/>
	</g>
</g>
<g>
	<g>
		<path d="M224,160v168h64V160H224z M272,312h-32V176h32V312z"/>
	</g>
</g>
<g>
	<g>
		<path d="M304,120v208h64V120H304z M352,312h-32V136h32V312z"/>
	</g>
</g>
<g>
	<g>
		<path d="M384,80v248h64V80H384z M432,312h-32V96h32V312z"/>
	</g>
</g>
<g>
</g>
<g>
</g>
<g>
</g>
<g>
</g>
<g>
</g>
<g>
</g>
<g>
</g>
<g>
</g>
<g>
</g>
<g>
</g>
<g>
</g>
<g>
</g>
<g>
</g>
<g>
</g>
<g>
</g>
</svg>
