<?xml version="1.0"?>
<svg xmlns="http://www.w3.org/2000/svg" viewBox="0 0 64 64" width="512" height="512"><g id="Location"><path d="M59,2H39a3,3,0,0,0-3,3V25a3,3,0,0,0,3,3H59a3,3,0,0,0,3-3V5A3,3,0,0,0,59,2ZM51,4v9.131l-1.445-.963a1,1,0,0,0-1.11,0L47,13.131V4Zm9,21a1,1,0,0,1-1,1H39a1,1,0,0,1-1-1V5a1,1,0,0,1,1-1h6V15a1,1,0,0,0,1.555.832L49,14.2l2.445,1.63A1,1,0,0,0,53,15V4h6a1,1,0,0,1,1,1Z"/><path d="M13,62a1,1,0,0,1-.754-.343C11.828,61.177,2,49.831,2,44a11,11,0,0,1,22,0c0,5.831-9.828,17.177-10.246,17.657A1,1,0,0,1,13,62Zm0-27a9.011,9.011,0,0,0-9,9c0,3.875,5.926,11.775,9,15.458C16.073,55.774,22,47.873,22,44A9.011,9.011,0,0,0,13,35Z"/><path d="M13,49a5,5,0,1,1,5-5A5.006,5.006,0,0,1,13,49Zm0-8a3,3,0,1,0,3,3A3,3,0,0,0,13,41Z"/><path d="M57,62H18a1,1,0,0,1,0-2H57a3,3,0,0,0,0-6H32a5,5,0,0,1,0-10H47a3,3,0,0,0,0-6H32a5.006,5.006,0,0,1-5-5V29a3,3,0,0,0-3-3H9A7,7,0,0,1,9,12H33a1,1,0,0,1,0,2H9A5,5,0,0,0,9,24H24a5.006,5.006,0,0,1,5,5v4a3,3,0,0,0,3,3H47a5,5,0,0,1,0,10H32a3,3,0,0,0,0,6H57a5,5,0,0,1,0,10Z"/></g></svg>
