<?xml version="1.0" encoding="utf-8"?>
<!-- Generator: Adobe Illustrator 22.0.1, SVG Export Plug-In . SVG Version: 6.00 Build 0)  -->
<svg version="1.1" id="Layer_1" xmlns="http://www.w3.org/2000/svg" xmlns:xlink="http://www.w3.org/1999/xlink" x="0px" y="0px"
	 viewBox="0 0 502.2 359.7" style="enable-background:new 0 0 502.2 359.7;" xml:space="preserve">
<style type="text/css">
	.st0{fill:#003D90;}
</style>
<path class="st0" d="M88.5,306.9H3.7c-2,0-3.7-1.7-3.7-3.7V264c0-2,1.6-3.6,3.7-3.6c0,0,0,0,0,0h108.5c1.6,0,3,1,3.5,2.5
	c0.5,1.5,0,3.2-1.3,4.1c-12,8.8-20,22-22.2,36.8C91.9,305.6,90.3,306.9,88.5,306.9z M7.4,299.5h78c2.4-12,8.3-23.1,16.9-31.8H7.4
	V299.5z M498.6,306.9h-62.5c-1.8,0-3.4-1.3-3.6-3.2c-4.4-30.3-32.5-51.2-62.8-46.8c-24.2,3.5-43.3,22.6-46.8,46.8
	c-0.3,1.8-1.8,3.1-3.6,3.2H205.3c-1.8,0-3.4-1.3-3.6-3.2c-2.2-14.7-10.2-28-22.2-36.8c-1.3-0.9-1.8-2.6-1.3-4.1
	c0.5-1.5,1.9-2.5,3.5-2.5h108.2V67.1c0-8.4,0-24.1,11.4-24.1h84.4c43.5,0,92.3,93.6,92.3,109.4v108h20.7c2,0,3.7,1.6,3.7,3.6
	c0,0,0,0,0,0v39.2C502.3,305.3,500.7,306.9,498.6,306.9z M439.2,299.5h55.7v-31.8h-20.7c-2,0-3.7-1.6-3.7-3.6c0,0,0,0,0-0.1V152.3
	c0-14.2-47.4-102-85-102h-84.4c-4,0-4,12.2-4,16.8V264c0,2-1.6,3.7-3.6,3.7c0,0,0,0-0.1,0h-102c8.6,8.8,14.5,19.8,16.9,31.8h107.7
	c6.7-34,39.8-56.1,73.7-49.3C414.8,255.2,434.2,274.6,439.2,299.5z M275.8,246.4H19c-2,0-3.7-1.7-3.7-3.7V21.1
	c0-17.6,8.1-21.2,21.2-21.2h222.9c17.3,0,20.1,6,20.1,20.1v222.7C279.5,244.7,277.9,246.4,275.8,246.4L275.8,246.4z M22.7,239h249.4
	V20c0-11.3-0.5-12.7-12.7-12.7H36.5C25.7,7.3,22.7,9,22.7,21.1V239L22.7,239z M429.1,150.9H328.5c-2,0-3.7-1.6-3.7-3.6
	c0,0,0,0,0-0.1V88.4c0-2,1.6-3.7,3.7-3.7c0,0,0,0,0,0h58.8c17,0,46.6,51.3,46.6,60.9c0,1.2-0.3,2.3-0.9,3.3
	C432.1,150.2,430.6,151,429.1,150.9L429.1,150.9z M332.2,143.6h94c-6.5-15.9-15.8-30.6-27.3-43.3c-7.1-7.6-10.6-8.2-11.5-8.2h-55.1
	L332.2,143.6L332.2,143.6z M377.7,359.7c-26.5,0-47.9-21.5-47.9-48c0-26.5,21.5-47.9,48-47.9c26.5,0,47.9,21.5,47.9,47.9
	C425.6,338.2,404.1,359.7,377.7,359.7L377.7,359.7z M377.7,271.2c-22.4,0-40.6,18.2-40.6,40.6c0,22.4,18.2,40.6,40.6,40.6
	c22.4,0,40.6-18.2,40.6-40.6c0,0,0,0,0,0C418.2,289.3,400.1,271.2,377.7,271.2L377.7,271.2z M146.9,359.7c-26.5,0-47.9-21.5-47.9-48
	c0-26.5,21.5-47.9,48-47.9c26.5,0,47.9,21.5,47.9,47.9C194.9,338.2,173.4,359.7,146.9,359.7L146.9,359.7z M146.9,271.2
	c-22.4,0-40.6,18.2-40.6,40.6c0,22.4,18.2,40.6,40.6,40.6c22.4,0,40.6-18.2,40.6-40.6l0,0C187.5,289.3,169.3,271.2,146.9,271.2
	L146.9,271.2z M146.9,345.1c-18.4,0-33.4-14.9-33.5-33.3c0-18.4,14.9-33.4,33.3-33.5c0.1,0,0.1,0,0.2,0c1,0,1.8,0.8,1.8,1.9
	c0,1-0.8,1.8-1.8,1.8c-16.4,0-29.8,13.3-29.8,29.7c0,16.4,13.3,29.8,29.7,29.8c16.4,0,29.8-13.3,29.8-29.7c0,0,0-0.1,0-0.1
	c-0.1-1,0.7-1.9,1.7-1.9c1-0.1,1.9,0.7,1.9,1.7c0,0.1,0,0.1,0,0.2C180.3,330.2,165.3,345.1,146.9,345.1L146.9,345.1z M377.7,345.1
	c-18.4,0-33.4-15-33.4-33.4c0-18.4,15-33.4,33.4-33.4c18.4,0,33.4,15,33.4,33.4c0.1,1-0.7,1.9-1.7,1.9c-1,0.1-1.9-0.7-1.9-1.7
	c0-0.1,0-0.1,0-0.2c0-16.4-13.3-29.7-29.8-29.7c-16.4,0-29.7,13.3-29.7,29.8c0,16.4,13.3,29.7,29.7,29.7c1,0,1.8,0.8,1.8,1.8
	C379.5,344.3,378.7,345.1,377.7,345.1L377.7,345.1z M33.8,61c-1,0-1.8-0.8-1.8-1.8c0,0,0,0,0,0V35.6c0-12.7,6.4-19.1,19.1-19.1h27.6
	c1,0,1.8,0.8,1.8,1.9c0,1-0.8,1.8-1.8,1.8H51c-10.6,0-15.4,4.8-15.4,15.4v23.6C35.6,60.2,34.8,61,33.8,61L33.8,61z M243.9,229.8
	h-27.6c-1,0-1.8-0.8-1.8-1.9c0-1,0.8-1.8,1.8-1.8h27.6c10.6,0,15.4-4.8,15.4-15.4v-23.6c-0.1-1,0.7-1.9,1.7-1.9
	c1-0.1,1.9,0.7,1.9,1.7c0,0.1,0,0.1,0,0.2v23.6C262.9,223.4,256.5,229.8,243.9,229.8L243.9,229.8z"/>
</svg>
