<?xml version="1.0" encoding="utf-8"?>
<!-- Generator: Adobe Illustrator 22.0.1, SVG Export Plug-In . SVG Version: 6.00 Build 0)  -->
<svg version="1.1" id="Layer_1" xmlns="http://www.w3.org/2000/svg" xmlns:xlink="http://www.w3.org/1999/xlink" x="0px" y="0px"
	 viewBox="0 0 501.4 335.1" style="enable-background:new 0 0 501.4 335.1;" xml:space="preserve">
<style type="text/css">
	.st0{fill:#003D90;}
</style>
<path class="st0" d="M358.1,335.1H69.7c-23.3,0-25.7-11.5-29.4-28.9c-1.9-9.9-4.6-19.6-8-29.1c-7.1-19.4-13.4-34.4-18.5-46.4
	s-9-21.5-12-30.7c-2.7-5.8-2.4-12.6,0.7-18.2c5.2-7.2,17.3-8.6,37.9-8.6h450.2c4.2-0.1,7.9,2.6,9.3,6.5c8,19.3-19.3,87.1-45.5,113.3
	C423.8,323.8,397.7,335.1,358.1,335.1z M40.5,181c-14.4,0-28.2,0.7-31.5,5.3c-1.6,3.6-1.4,7.7,0.4,11.1c2.9,9,6.8,18.3,11.8,30.2
	c5.1,12.1,11.4,27.2,18.6,46.7c3.6,9.8,6.3,20,8.3,30.2c3.7,17.5,4.8,22.8,21.7,22.8h288.4c37.2,0,61.8-10.8,90.8-39.8
	c25.4-25.4,50.2-89.6,43.8-104.8c-0.2-1-1.1-1.7-2.1-1.7L40.5,181L40.5,181z M271.4,181c-1.5,0-2.8-0.8-3.5-2.2
	c-0.2-0.4-20.5-41.8-28.2-55.1c-7.1-12.4-10.7-14.6-23.9-14.6H84.3c-15.2,0-17.5,1.9-17.5,14.6v53.4c0.1,2.2-1.6,4-3.7,4
	c-2.2,0.1-4-1.6-4-3.7c0-0.1,0-0.2,0-0.3v-53.4c0-19.1,8.2-22.4,25.3-22.4H216c16.1,0,22.2,3.6,30.7,18.5
	c7.8,13.6,27.5,53.9,28.4,55.6c0.9,1.9,0.2,4.2-1.7,5.2l0,0C272.6,180.9,272,181,271.4,181L271.4,181z M155.4,109.1H96
	c-2.2,0-3.9-1.7-3.9-3.9l0,0V3.9C92.1,1.7,93.8,0,96,0l0,0h59.4c2.2,0,3.9,1.7,3.9,3.9l0,0v101.3
	C159.3,107.3,157.6,109.1,155.4,109.1L155.4,109.1L155.4,109.1z M99.9,101.3h51.6V7.7H99.9V101.3L99.9,101.3z M155.4,27.2H96
	c-1.1,0.1-2-0.8-2.1-1.8c-0.1-1.1,0.8-2,1.8-2.1c0.1,0,0.1,0,0.2,0h59.4c1.1,0,1.9,0.9,1.9,1.9C157.4,26.4,156.5,27.2,155.4,27.2z
	 M189.5,155.8c-10.2,0-18.5-8.3-18.5-18.5s8.3-18.5,18.5-18.5s18.5,8.3,18.5,18.5C208.1,147.6,199.8,155.8,189.5,155.8z
	 M189.5,122.7c-8.1,0-14.6,6.5-14.6,14.6s6.5,14.6,14.6,14.6s14.6-6.5,14.6-14.6l0,0C204.1,129.3,197.6,122.7,189.5,122.7z
	 M189.5,155.8c-10.2,0-18.5-8.3-18.5-18.5s8.3-18.5,18.5-18.5s18.5,8.3,18.5,18.5C208.1,147.6,199.8,155.8,189.5,155.8z
	 M189.5,122.7c-8.1,0-14.6,6.5-14.6,14.6s6.5,14.6,14.6,14.6s14.6-6.5,14.6-14.6l0,0C204.1,129.3,197.6,122.7,189.5,122.7z
	 M134.9,155.8c-10.2,0-18.5-8.3-18.5-18.5s8.3-18.5,18.5-18.5s18.5,8.3,18.5,18.5C153.5,147.5,145.2,155.8,134.9,155.8L134.9,155.8z
	 M134.9,122.7c-8.1,0-14.6,6.5-14.6,14.6s6.5,14.6,14.6,14.6s14.6-6.5,14.6-14.6l0,0C149.5,129.3,143,122.8,134.9,122.7L134.9,122.7
	z M406.3,260.1c-0.5,0-1-0.2-1.4-0.6c-21.9-21.9-29.9-56-30.2-57.5c-0.2-1.1,0.4-2.1,1.5-2.4c0.1,0,0.3,0,0.4,0H436
	c0.6,0,1.2,0.3,1.6,0.8s0.5,1.1,0.3,1.7c-0.4,1.5-10.8,38-30.2,57.4C407.3,259.9,406.9,260.1,406.3,260.1L406.3,260.1z M379.1,203.6
	c5.1,19.1,14.4,36.8,27.2,51.8c15-16.1,24.5-43.4,27.1-51.8H379.1L379.1,203.6z"/>
</svg>
