<svg xmlns="http://www.w3.org/2000/svg" viewBox="0 0 82.5 78.91"><defs><style>.cls-1{fill:none;stroke:#0f0f0f;stroke-linecap:round;stroke-linejoin:round;stroke-width:2.5px;}</style></defs><title>Ресурс 10</title><g id="Слой_2" data-name="Слой 2"><g id="Layer_2" data-name="Layer 2"><path class="cls-1" d="M61.11,41.21s10.91,4.27,12.78,6C78,51.1,79,60.72,79,66c0,4.42,2.21,9.57,2.21,9.57"/><path class="cls-1" d="M68.07,53.5c-2.79-3.15-5.34-3-7.42-5.07-4-3.95-3.66-3.66-7.37-7.25-2.2-2.13-3.7-3.38-5.9-1.91-1.85,1.24-1.66,2.83-.72,4.85,1.14,2.47,7.21,10.36,8.49,12.21a2.68,2.68,0,0,1,.47,1.34c.19,2.61.89,10,10.91,12.77"/><path class="cls-1" d="M56.71,73.3a7.73,7.73,0,0,1,3.76,4.36"/><path class="cls-1" d="M53.11,68H4.47a3.22,3.22,0,0,1-3.22-3.23V4.88A3.63,3.63,0,0,1,4.88,1.25H52.39A3.63,3.63,0,0,1,56,4.88v31.5"/><line class="cls-1" x1="12.85" y1="14.3" x2="44.42" y2="14.3"/><line class="cls-1" x1="12.85" y1="19.51" x2="44.42" y2="19.51"/><line class="cls-1" x1="12.85" y1="24.72" x2="27.32" y2="24.72"/><line class="cls-1" x1="12.25" y1="41.45" x2="12.25" y2="58.45"/><line class="cls-1" x1="17.58" y1="41.45" x2="17.58" y2="58.45"/><line class="cls-1" x1="21.58" y1="41.45" x2="21.58" y2="58.45"/><line class="cls-1" x1="25.58" y1="41.45" x2="25.58" y2="58.45"/><line class="cls-1" x1="30.92" y1="41.45" x2="30.92" y2="58.45"/><line class="cls-1" x1="36.25" y1="41.45" x2="36.25" y2="58.45"/><line class="cls-1" x1="40.25" y1="41.45" x2="40.25" y2="58.45"/></g></g></svg>