<svg xmlns="http://www.w3.org/2000/svg" viewBox="0 0 82.5 82.5"><defs><style>.cls-1{fill:none;stroke:#0f0f0f;stroke-linecap:round;stroke-linejoin:round;stroke-width:2.5px;}</style></defs><title>Ресурс 3</title><g id="Слой_2" data-name="Слой 2"><g id="Layer_2" data-name="Layer 2"><path class="cls-1" d="M38.75,49.75"/><circle class="cls-1" cx="41.25" cy="41.25" r="30.58"/><line class="cls-1" x1="41.25" y1="1.25" x2="41.25" y2="17.01"/><line class="cls-1" x1="41.25" y1="65.49" x2="41.25" y2="81.25"/><line class="cls-1" x1="1.25" y1="41.25" x2="17.01" y2="41.25"/><line class="cls-1" x1="65.49" y1="41.25" x2="81.25" y2="41.25"/><path class="cls-1" d="M41.84,21.84"/><path class="cls-1" d="M76.52,35.52A35.75,35.75,0,0,0,47,6"/><path class="cls-1" d="M47,76.52A35.75,35.75,0,0,0,76.52,47"/><path class="cls-1" d="M35.52,6A35.75,35.75,0,0,0,6,35.52"/><path class="cls-1" d="M6,47A35.75,35.75,0,0,0,35.52,76.52"/><polygon class="cls-1" points="41.77 37.9 58.25 30.69 58.25 49.23 41.77 57.48 24.25 49.23 24.25 30.69 41.77 37.9"/><polyline class="cls-1" points="24.25 30.69 41.25 25.02 58.25 30.69"/><line class="cls-1" x1="32.62" y1="34.13" x2="48.85" y2="27.55"/><line class="cls-1" x1="41.77" y1="37.9" x2="41.77" y2="57.48"/></g></g></svg>