<svg xmlns="http://www.w3.org/2000/svg" viewBox="0 0 72.67 82.5"><defs><style>.cls-1{fill:none;stroke:#0f0f0f;stroke-linecap:round;stroke-linejoin:round;stroke-width:2.5px;}</style></defs><title>Ресурс 4</title><g id="Слой_2" data-name="Слой 2"><g id="Layer_2" data-name="Layer 2"><path class="cls-1" d="M7.74,61.12A35.09,35.09,0,0,1,36.33,5.7c7.83,0,15.41,2.18,21.25,6.51"/><path class="cls-1" d="M64.42,19.76A35.09,35.09,0,0,1,36.33,75.87a35.27,35.27,0,0,1-21.15-6.7"/><polyline class="cls-1" points="45.57 14.03 57.63 12.21 52.02 1.25"/><polyline class="cls-1" points="27.67 67.12 15.18 69.17 21.56 81.25"/><polyline class="cls-1" points="56.54 39.44 56.54 50.6 37.24 60.25 16.73 50.6 16.73 39.55"/><polyline class="cls-1" points="16.73 28.89 37.24 37.33 56.54 28.89"/><line class="cls-1" x1="37.24" y1="37.33" x2="37.24" y2="60.25"/><polyline class="cls-1" points="37.24 37.33 31.21 46.38 10.7 36.73 16.73 28.89"/><polyline class="cls-1" points="16.73 28.89 36.63 22.25 56.54 28.89"/><polyline class="cls-1" points="56.54 28.89 61.97 36.73 43.87 45.77 37.24 37.33"/><line class="cls-1" x1="36.64" y1="22.25" x2="36.64" y2="30.69"/></g></g></svg>