<?xml version="1.0"?>
<svg xmlns="http://www.w3.org/2000/svg" viewBox="0 0 64 64" width="512" height="512"><g id="Insurrance"><path d="M20,44H18a1,1,0,0,1,0-2h2a1,1,0,0,1,0,2Z"/><path d="M39,44H24a1,1,0,0,1,0-2H39a1,1,0,0,1,0,2Z"/><path d="M39,48H18a1,1,0,0,1,0-2H39a1,1,0,0,1,0,2Z"/><path d="M39,52H18a1,1,0,0,1,0-2H39a1,1,0,0,1,0,2Z"/><path d="M36,56H18a1,1,0,0,1,0-2H36a1,1,0,0,1,0,2Z"/><path d="M19,32H18a1,1,0,0,1,0-2h1a1,1,0,0,1,0,2Z"/><path d="M44,32H23a1,1,0,0,1,0-2H44a1,1,0,0,1,0,2Z"/><path d="M23,36H18a1,1,0,0,1,0-2h5a1,1,0,0,1,0,2Z"/><path d="M44,36H27a1,1,0,0,1,0-2H44a1,1,0,0,1,0,2Z"/><path d="M52.707,10.293l-8-8A1,1,0,0,0,44,2H10A1,1,0,0,0,9,3V61a1,1,0,0,0,1,1H46a1,1,0,0,0,0-2H11V4H42v7a1,1,0,0,0,1,1h8V35a1,1,0,0,0,2,0V11A1,1,0,0,0,52.707,10.293ZM44,4.414,49.586,10H44Z"/><path d="M25,8a3,3,0,0,0-3,3V23a3,3,0,0,0,3,3H37a3,3,0,0,0,3-3V11a3,3,0,0,0-3-3Zm7,2v5.382l-.553-.277a1,1,0,0,0-.894,0L30,15.382V10Zm6,1V23a1,1,0,0,1-1,1H25a1,1,0,0,1-1-1V11a1,1,0,0,1,1-1h3v7a1,1,0,0,0,1.447.895L31,17.118l1.553.777A1,1,0,0,0,34,17V10h3A1,1,0,0,1,38,11Z"/><path d="M40,40H18a1,1,0,0,1,0-2H40a1,1,0,0,1,0,2Z"/><path d="M52,62a1,1,0,0,1-.555-.168L47.789,59.4A12.973,12.973,0,0,1,42,48.578V43a1,1,0,0,1,.594-.914l9-4a1,1,0,0,1,.812,0l9,4A1,1,0,0,1,62,43v5.578A12.973,12.973,0,0,1,56.211,59.4l-3.656,2.437A1,1,0,0,1,52,62ZM44,43.65v4.928a10.976,10.976,0,0,0,4.9,9.152L52,59.8l3.1-2.068h0A10.976,10.976,0,0,0,60,48.578V43.65l-8-3.556Z"/><path d="M50,54a1,1,0,0,1-.707-.293l-3-3a1,1,0,0,1,1.414-1.414L50,51.586l6.293-6.293a1,1,0,0,1,1.414,1.414l-7,7A1,1,0,0,1,50,54Z"/></g></svg>
