<?xml version="1.0" encoding="UTF-8"?>
<svg width="20px" height="20px" viewBox="0 0 20 20" version="1.1" xmlns="http://www.w3.org/2000/svg" xmlns:xlink="http://www.w3.org/1999/xlink">
    <!-- Generator: Sketch 59.1 (86144) - https://sketch.com -->
    <title>Search</title>
    <desc>Created with Sketch.</desc>
    <g id="Page-1" stroke="none" stroke-width="1" fill="none" fill-rule="evenodd">
        <g id="Black" transform="translate(-20.000000, -20.000000)" fill="#202020" fill-rule="nonzero">
            <path d="M28.1902036,20 C32.7135281,20 36.3804072,23.6668791 36.3804072,28.1902036 C36.3804072,30.0826613 35.7385573,31.825207 34.6606733,33.2120248 L39.7001431,38.252306 C40.0999523,38.6521152 40.0999523,39.3003339 39.7001431,39.7001431 C39.3003339,40.0999523 38.6521152,40.0999523 38.252306,39.7001431 L33.2120248,34.6606733 C31.825207,35.7385573 30.0826613,36.3804072 28.1902036,36.3804072 C23.6668791,36.3804072 20,32.7135281 20,28.1902036 C20,23.6668791 23.6668791,20 28.1902036,20 Z M28.1902036,22.0475509 C24.7977102,22.0475509 22.0475509,24.7977102 22.0475509,28.1902036 C22.0475509,31.582697 24.7977102,34.3328563 28.1902036,34.3328563 C31.582697,34.3328563 34.3328563,31.582697 34.3328563,28.1902036 C34.3328563,24.7977102 31.582697,22.0475509 28.1902036,22.0475509 Z" id="Search"></path>
        </g>
    </g>
</svg>