<svg id="Layer_2" height="512" viewBox="0 0 128 128" width="512" xmlns="http://www.w3.org/2000/svg" data-name="Layer 2"><path d="m103.5 0h-46.208a16.769 16.769 0 0 0 -16.75 16.75v11.167h-4.25a1.75 1.75 0 0 0 -1.75 1.75v6.75h-15.034a1.752 1.752 0 0 0 -1.257.533l-10.008 10.333a1.8 1.8 0 0 0 -.493 1.217v10.333a1.75 1.75 0 0 0 1.75 1.75h75.583a1.75 1.75 0 0 0 1.75-1.75v-10.333a1.8 1.8 0 0 0 -.493-1.217l-10.008-10.334a1.75 1.75 0 0 0 -1.257-.533h-15.033v-6.75a1.75 1.75 0 0 0 -1.75-1.75h-4.25v-11.166a3.254 3.254 0 0 1 3.25-3.25h46.208a3.254 3.254 0 0 1 3.25 3.25v109.5a1.75 1.75 0 0 0 1.75 1.75h10a1.75 1.75 0 0 0 1.75-1.75v-109.5a16.769 16.769 0 0 0 -16.75-16.75zm-92.25 57.083v-6.833h72.083v6.833zm69.7-10.333h-67.319l6.618-6.833h54.085zm-24.408-10.333h-18.5v-5h18.5zm60.208 88.083h-6.5v-107.75a6.757 6.757 0 0 0 -6.75-6.75h-46.208a6.757 6.757 0 0 0 -6.75 6.75v11.167h-6.5v-11.167a13.265 13.265 0 0 1 13.25-13.25h46.208a13.265 13.265 0 0 1 13.25 13.25z"/><path d="m30.745 76.333c0-3.472-4.824-8.258-5.791-9.182a1.75 1.75 0 0 0 -2.418 0c-.967.924-5.791 5.71-5.791 9.182a7 7 0 0 0 14 0zm-7 3.5a3.5 3.5 0 0 1 -3.5-3.5c0-1.055 1.649-3.4 3.5-5.417 1.851 2.01 3.5 4.358 3.5 5.417a3.5 3.5 0 0 1 -3.5 3.5z"/><path d="m54.292 76.333c0-3.472-4.824-8.258-5.791-9.182a1.75 1.75 0 0 0 -2.418 0c-.967.924-5.791 5.71-5.791 9.182a7 7 0 0 0 14 0zm-7 3.5a3.5 3.5 0 0 1 -3.5-3.5c0-1.055 1.649-3.4 3.5-5.417 1.851 2.01 3.5 4.358 3.5 5.417a3.5 3.5 0 0 1 -3.5 3.5z"/><path d="m72.047 67.151a1.75 1.75 0 0 0 -2.418 0c-.967.924-5.791 5.71-5.791 9.182a7 7 0 1 0 14 0c0-3.471-4.824-8.257-5.791-9.182zm-1.209 12.682a3.5 3.5 0 0 1 -3.5-3.5c0-1.055 1.649-3.4 3.5-5.417 1.851 2.01 3.5 4.358 3.5 5.417a3.5 3.5 0 0 1 -3.5 3.5z"/><path d="m36.728 89.226a1.75 1.75 0 0 0 -2.418 0c-.967.924-5.791 5.71-5.791 9.182a7 7 0 1 0 14 0c0-3.472-4.824-8.258-5.791-9.182zm-1.209 12.682a3.5 3.5 0 0 1 -3.5-3.5c0-1.055 1.649-3.4 3.5-5.415 1.851 2.012 3.5 4.36 3.5 5.415a3.5 3.5 0 0 1 -3.5 3.499z"/><path d="m60.274 89.226a1.75 1.75 0 0 0 -2.418 0c-.967.924-5.791 5.71-5.791 9.182a7 7 0 1 0 14 0c0-3.472-4.824-8.258-5.791-9.182zm-1.209 12.682a3.5 3.5 0 0 1 -3.5-3.5c0-1.055 1.649-3.4 3.5-5.415 1.851 2.012 3.5 4.36 3.5 5.415a3.5 3.5 0 0 1 -3.5 3.499z"/></svg>