<?xml version="1.0" encoding="utf-8"?>
<!-- Generator: Adobe Illustrator 22.0.1, SVG Export Plug-In . SVG Version: 6.00 Build 0)  -->
<svg version="1.1" id="Layer_1" xmlns="http://www.w3.org/2000/svg" xmlns:xlink="http://www.w3.org/1999/xlink" x="0px" y="0px"
	 viewBox="0 0 100 55" style="enable-background:new 0 0 100 55;" xml:space="preserve">
<style type="text/css">
	.st0{fill:#003D90;}
</style>
<title>Shape</title>
<desc>Created with Sketch.</desc>
<g id="Page-1">
	<path id="Shape" class="st0" d="M100,40c0,4.3-3.4,7.8-7.6,8c-0.2,3.7-3.3,6.6-7,6.6c-3.7,0-6.7-2.9-7-6.6l-5,0
		c-0.2,3.7-3.3,6.6-7,6.6c-3.7,0-6.7-2.9-7-6.6l-19,0c-0.2,3.7-3.3,6.6-7,6.6c-3.7,0-6.7-2.9-7-6.6l-5,0c-0.2,3.7-3.3,6.6-7,6.6
		c-3.7,0-6.8-2.9-7-6.6C3.3,47.7,0,44.2,0,40V8c0-4.4,3.6-8,8-8h68c13.3,0,24,10.7,24,24V40z M39.4,48l-10.6,0
		c0.1,1.2,0.7,2.3,1.7,3.2c2,1.7,4.9,1.4,6.6-0.6c0.1-0.2,0.4-0.2,0.5,0c0.2,0.1,0.2,0.4,0,0.5c-1.9,2.3-5.3,2.6-7.6,0.7
		c-1.1-0.9-1.8-2.3-1.9-3.7l-0.6,0c0.2,3.1,2.8,5.6,6,5.6C36.5,53.6,39.1,51.1,39.4,48z M20.4,48L9.7,48c0.1,1.2,0.7,2.3,1.7,3.2
		c2,1.7,4.9,1.4,6.6-0.6c0.1-0.2,0.4-0.2,0.5,0c0.2,0.1,0.2,0.4,0,0.5c-1.9,2.3-5.3,2.6-7.6,0.7C9.8,50.8,9.1,49.4,9,48l-0.6,0
		c0.2,3.1,2.8,5.6,6,5.6C17.5,53.6,20.1,51.1,20.4,48z M91.4,48l-10.6,0c0.1,1.2,0.7,2.3,1.7,3.2c2,1.7,4.9,1.4,6.6-0.6
		c0.1-0.2,0.4-0.2,0.5,0c0.2,0.1,0.2,0.4,0,0.5c-1.9,2.3-5.3,2.6-7.6,0.7c-1.1-0.9-1.8-2.3-1.9-3.7l-0.6,0c0.2,3.1,2.8,5.6,6,5.6
		C88.5,53.6,91.1,51.1,91.4,48z M72.4,48l-10.6,0l0,0.2c0.2,1.1,0.7,2.2,1.6,2.9c2,1.7,4.9,1.4,6.6-0.6c0.1-0.2,0.4-0.2,0.5,0
		c0.2,0.1,0.2,0.4,0,0.5c-1.9,2.3-5.3,2.6-7.6,0.7c-1.1-0.9-1.8-2.3-1.9-3.7l-0.6,0c0.2,3.1,2.8,5.6,6,5.6
		C69.5,53.6,72.1,51.1,72.4,48z M1,40c0,3.8,3.1,7,7,7l40,0V31H1V40z M99,40l-4,0c-1.1,0-2-0.9-2-2v-2c0-1.1,0.9-2,2-2l4,0v-3H65v16
		h27l0.2,0C96,46.9,99,43.8,99,40z M63,7H50c-0.6,0-1,0.4-1,1v39h15V8C64,7.4,63.6,7,63,7z M99,35h-4c-0.6,0-1,0.4-1,1v2
		c0,0.6,0.4,1,1,1h4V35z M62,30v1H51v-1H62z M76,1H8C4.1,1,1,4.1,1,8v22h47V8c0-1.1,0.9-2,2-2h13c1.1,0,2,0.9,2,2v22h34v-6
		C99,11.3,88.7,1,76,1z M79,6c8.3,0,15,6.7,15,15v1c0,1.1-0.9,2-2,2H71c-1.1,0-2-0.9-2-2V8c0-1.1,0.9-2,2-2H79z M22,6
		c1.1,0,2,0.9,2,2v14c0,1.1-0.9,2-2,2H8c-1.1,0-2-0.9-2-2V8c0-1.1,0.9-2,2-2H22z M42,6c1.1,0,2,0.9,2,2v14c0,1.1-0.9,2-2,2H28
		c-1.1,0-2-0.9-2-2V8c0-1.1,0.9-2,2-2H42z M79,7h-8c-0.6,0-1,0.4-1,1v14c0,0.6,0.4,1,1,1h21c0.6,0,1-0.4,1-1v-1C93,13.3,86.7,7,79,7
		z M22,7H8C7.4,7,7,7.4,7,8v14c0,0.6,0.4,1,1,1h14c0.6,0,1-0.4,1-1V8C23,7.4,22.6,7,22,7z M42,7H28c-0.6,0-1,0.4-1,1v14
		c0,0.6,0.4,1,1,1h14c0.6,0,1-0.4,1-1V8C43,7.4,42.6,7,42,7z"/>
</g>
</svg>
