<?xml version="1.0" encoding="UTF-8"?>
<svg width="72px" height="50px" viewBox="0 0 72 50" version="1.1" xmlns="http://www.w3.org/2000/svg" xmlns:xlink="http://www.w3.org/1999/xlink">
    <!-- Generator: Sketch 59.1 (86144) - https://sketch.com -->
    <title>Shape</title>
    <desc>Created with Sketch.</desc>
    <g id="Page-1" stroke="none" stroke-width="1" fill="none" fill-rule="evenodd">
        <g id="YouTube_full-color_icon_(2017)" fill="#FF0000" fill-rule="nonzero">
            <path d="M34.5314275,0.00386579448 L36.6794586,0.00299762576 C41.0380917,0.0239529909 58.7581695,0.191400067 63.6470584,1.52941175 C66.7058819,2.35294116 69.1176466,4.76470585 69.941176,7.82352936 C71.3107984,12.8279191 71.4069599,22.6912451 71.4121031,24.6976128 L71.4032509,26.100309 C71.3635404,29.0704354 71.1449064,37.6620515 69.941176,42.2352938 C69.1176466,45.2941173 66.7058819,47.705882 63.6470584,48.5294114 C59.0808819,49.7310371 43.3215651,49.9508081 37.7097137,49.9910031 L34.3779978,49.9951052 C29.496516,49.9667851 12.5795665,49.774613 7.76470583,48.4705879 C4.70588232,47.6470585 2.29411763,45.2352938 1.47058822,42.1764703 C0.158953807,37.2447249 0.0171810927,27.4463549 0.00185708008,25.3857892 L0.00398223879,24.372225 C0.0285703281,21.8861441 0.204976067,12.6328556 1.47058822,7.82352936 C2.29411763,4.76470585 4.76470585,2.29411763 7.76470583,1.47058822 C12.5816993,0.202958375 29.8552687,0.0280106295 34.5314275,0.00386579448 L34.5314275,0.00386579448 Z M28.5882351,14.2941175 L28.5882351,35.7058821 L47.1764703,24.9999998 L28.5882351,14.2941175 Z" id="Shape"></path>
        </g>
    </g>
</svg>