<svg xmlns="http://www.w3.org/2000/svg" viewBox="0 0 257.48 255.7"><defs><style>.cls-1{fill:#2c65d6;}.cls-2{fill:#3685fc;}.cls-3{fill:#3046b5;}.cls-4{fill:#f74169;}.cls-5{fill:#ca4560;}.cls-6{fill:#fe5773;}.cls-7{fill:#bddff4;}.cls-8{fill:#90caf4;}.cls-9{fill:#e2f1f7;}.cls-10{fill:#2030a5;}.cls-11{fill:#15298c;}</style></defs><title>i12</title><g id="Слой_2" data-name="Слой 2"><g id="Layer_1" data-name="Layer 1"><polygon class="cls-1" points="5.88 155.95 5.88 151.96 34.55 168.52 34.55 172.51 5.88 155.95"/><polygon class="cls-1" points="5.88 151.96 5.88 155.95 0.05 152.59 0.05 148.6 5.88 151.96"/><polygon class="cls-2" points="5.88 74.58 12.97 70.49 12.97 63.76 71.75 29.83 71.8 29.8 77.63 33.16 84.72 29.06 106.3 41.52 106.3 49.71 112.18 53.11 119.28 49.01 140.85 61.47 140.85 69.66 146.73 73.06 153.83 68.96 175.4 81.42 175.4 89.61 181.28 93 188.38 88.91 209.96 101.36 209.96 109.56 215.84 112.95 222.93 108.86 244.51 121.31 244.51 129.51 250.39 132.9 185.74 170.23 185.74 153.53 179.86 150.13 172.76 154.23 172.76 170.93 144.09 154.38 151.18 150.28 151.18 133.58 145.31 130.18 138.21 134.28 138.21 150.98 109.53 134.43 116.63 130.33 116.63 113.63 110.75 110.23 103.66 114.33 103.66 131.03 74.98 114.48 82.08 110.38 82.08 93.68 76.2 90.29 69.11 94.38 69.11 111.09 40.43 94.53 47.53 90.43 47.53 73.73 41.65 70.34 34.55 74.44 34.55 91.14 5.88 74.58"/><polygon class="cls-3" points="84.72 29.06 77.63 33.16 77.63 16.46 84.72 12.36 84.72 29.06"/><polygon class="cls-1" points="77.63 33.16 71.8 29.8 71.75 29.83 71.75 13.06 77.63 16.46 77.63 33.16"/><polygon class="cls-1" points="146.73 73.06 140.85 69.66 140.85 61.47 140.85 52.96 146.73 56.35 146.73 73.06"/><polygon class="cls-3" points="119.28 49.01 112.18 53.11 112.18 36.41 119.28 32.31 119.28 49.01"/><polygon class="cls-1" points="112.18 53.11 106.3 49.71 106.3 41.52 106.3 33.01 112.18 36.41 112.18 53.11"/><polygon class="cls-3" points="153.83 68.96 146.73 73.06 146.73 56.35 153.83 52.26 153.83 68.96"/><polygon class="cls-1" points="215.84 112.95 209.96 109.56 209.96 101.36 209.96 92.86 215.84 96.25 215.84 112.95"/><polygon class="cls-3" points="188.38 88.91 181.28 93 181.28 76.3 188.38 72.2 188.38 88.91"/><polygon class="cls-1" points="181.28 93 175.4 89.61 175.4 81.42 175.4 72.91 181.28 76.3 181.28 93"/><polygon class="cls-3" points="222.93 108.86 215.84 112.95 215.84 96.25 222.93 92.15 222.93 108.86"/><polygon class="cls-1" points="250.39 132.9 244.51 129.51 244.51 121.31 244.51 112.81 250.39 116.2 250.39 132.9"/><polygon class="cls-1" points="40.43 175.9 34.55 172.51 34.55 168.52 40.43 171.91 40.43 175.9"/><polygon class="cls-1" points="40.43 175.9 40.43 171.91 69.11 188.47 69.11 192.46 40.43 175.9"/><polygon class="cls-1" points="74.98 195.85 69.11 192.46 69.11 188.47 74.98 191.86 74.98 195.85"/><polygon class="cls-1" points="74.98 195.85 74.98 191.86 103.66 208.41 103.66 212.41 74.98 195.85"/><polygon class="cls-1" points="109.53 215.8 103.66 212.41 103.66 208.41 109.53 211.81 109.53 215.8"/><polygon class="cls-1" points="109.53 215.8 109.53 211.81 138.21 228.36 138.21 232.35 109.53 215.8"/><polygon class="cls-1" points="144.09 235.75 138.21 232.35 138.21 228.36 144.09 231.76 144.09 235.75"/><polygon class="cls-1" points="144.09 235.75 144.09 231.76 172.76 248.31 172.76 252.3 144.09 235.75"/><polygon class="cls-1" points="178.64 255.7 172.76 252.3 172.76 248.31 178.64 251.71 178.64 255.7"/><polygon class="cls-3" points="185.74 251.6 178.64 255.7 178.64 251.71 185.74 247.61 185.74 251.6"/><polygon class="cls-2" points="77.63 16.46 71.75 13.06 78.85 8.96 84.72 12.36 77.63 16.46"/><polygon class="cls-2" points="106.3 33.01 113.4 28.91 119.28 32.31 112.18 36.41 106.3 33.01"/><polygon class="cls-2" points="153.83 52.26 146.73 56.35 140.85 52.96 147.95 48.86 153.83 52.26"/><polygon class="cls-2" points="181.28 76.3 175.4 72.91 182.5 68.81 188.38 72.2 181.28 76.3"/><polygon class="cls-2" points="217.05 88.76 222.93 92.15 215.84 96.25 209.96 92.86 217.05 88.76"/><polygon class="cls-2" points="250.39 116.2 244.51 112.81 251.61 108.71 257.48 112.1 250.39 116.2"/><polygon class="cls-3" points="250.39 116.2 257.48 112.1 257.48 128.8 250.39 132.9 250.39 116.2"/><polygon class="cls-3" points="257.48 210.18 250.39 214.27 250.39 210.28 257.48 206.18 257.48 210.18"/><polygon class="cls-3" points="250.39 210.28 250.39 214.27 185.74 251.6 185.74 247.61 250.39 210.28"/><polygon class="cls-1" points="0.05 111.8 0.05 107.8 5.88 111.17 5.88 115.16 0.05 111.8"/><polygon class="cls-1" points="5.88 115.16 5.88 111.17 34.55 127.72 34.55 131.71 31.93 130.2 12.97 119.25 5.88 115.16"/><polygon class="cls-3" points="257.48 165.39 257.48 169.38 250.39 173.48 250.39 169.49 257.48 165.39"/><polygon class="cls-3" points="250.39 169.49 250.39 173.48 244.51 176.87 225.61 187.78 185.74 210.8 185.74 206.81 250.39 169.49"/><polygon class="cls-1" points="0.05 75.21 0.05 71.22 5.88 74.58 5.88 78.57 0.05 75.21"/><polygon class="cls-1" points="5.88 78.57 5.88 74.58 34.55 91.14 34.55 95.13 28.28 91.51 12.97 82.67 5.88 78.57"/><polygon class="cls-3" points="257.48 128.8 257.48 132.79 250.39 136.89 250.39 132.9 257.48 128.8"/><polygon class="cls-3" points="250.39 132.9 250.39 136.89 244.51 140.29 229.26 149.09 185.74 174.22 185.74 170.23 250.39 132.9"/><polygon class="cls-3" points="185.74 247.61 178.64 251.71 178.64 214.9 185.74 210.8 185.74 247.61"/><polygon class="cls-3" points="185.74 210.8 178.64 214.9 178.64 210.91 185.74 206.81 185.74 210.8"/><polygon class="cls-1" points="178.64 210.91 178.64 214.9 172.76 211.51 172.76 207.51 178.64 210.91"/><polygon class="cls-3" points="185.74 206.81 178.64 210.91 178.64 178.32 185.74 174.22 185.74 206.81"/><polygon class="cls-3" points="185.74 174.22 178.64 178.32 178.64 174.33 185.74 170.23 185.74 174.22"/><polygon class="cls-1" points="178.64 174.33 178.64 178.32 172.76 174.92 172.76 170.93 178.64 174.33"/><polygon class="cls-3" points="5.88 151.96 5.88 115.16 12.97 119.25 12.97 141.14 12.97 147.87 5.88 151.96"/><polygon class="cls-2" points="5.88 151.96 12.97 147.87 12.97 141.14 31.93 130.2 34.55 131.71 34.55 168.52 5.88 151.96"/><polygon class="cls-1" points="34.55 168.52 34.55 131.71 40.43 135.1 40.43 171.91 34.55 168.52"/><polygon class="cls-3" points="40.43 171.91 40.43 135.1 47.53 139.2 47.53 167.81 40.43 171.91"/><polygon class="cls-2" points="40.43 171.91 47.53 167.81 47.53 139.2 69.11 151.66 69.11 188.47 40.43 171.91"/><polygon class="cls-1" points="69.11 188.47 69.11 151.66 74.98 155.05 74.98 191.86 69.11 188.47"/><polygon class="cls-3" points="74.98 191.86 74.98 155.05 82.08 159.15 82.08 187.76 74.98 191.86"/><polygon class="cls-2" points="74.98 191.86 82.08 187.76 82.08 159.15 103.66 171.61 103.66 208.41 74.98 191.86"/><polygon class="cls-1" points="103.66 208.41 103.66 171.61 109.53 175 109.53 211.81 103.66 208.41"/><polygon class="cls-3" points="109.53 211.81 109.53 175 116.63 179.1 116.63 207.71 109.53 211.81"/><polygon class="cls-2" points="109.53 211.81 116.63 207.71 116.63 179.1 138.21 191.56 138.21 228.36 109.53 211.81"/><polygon class="cls-1" points="138.21 228.36 138.21 191.56 144.09 194.95 144.09 231.76 138.21 228.36"/><polygon class="cls-3" points="144.09 231.76 144.09 194.95 151.18 199.05 151.18 227.66 144.09 231.76"/><polygon class="cls-2" points="144.09 231.76 151.18 227.66 151.18 199.05 172.76 211.51 172.76 248.31 144.09 231.76"/><polygon class="cls-1" points="178.64 214.9 178.64 251.71 172.76 248.31 172.76 211.51 178.64 214.9"/><polygon class="cls-2" points="185.74 247.61 185.74 210.8 225.61 187.78 244.51 198.69 244.51 206.89 250.39 210.28 185.74 247.61"/><polygon class="cls-1" points="250.39 210.28 244.51 206.89 244.51 198.69 244.51 176.87 250.39 173.48 250.39 210.28"/><polygon class="cls-3" points="257.48 169.38 257.48 206.18 250.39 210.28 250.39 173.48 257.48 169.38"/><polygon class="cls-2" points="250.39 169.49 185.74 206.81 185.74 174.22 229.26 149.09 244.51 157.9 244.51 166.09 250.39 169.49"/><polygon class="cls-1" points="250.39 169.49 244.51 166.09 244.51 157.9 244.51 140.29 250.39 136.89 250.39 169.49"/><polygon class="cls-3" points="257.48 165.39 250.39 169.49 250.39 136.89 257.48 132.79 257.48 165.39"/><polygon class="cls-1" points="172.76 174.92 178.64 178.32 178.64 210.91 172.76 207.51 172.76 174.92"/><polygon class="cls-3" points="5.88 111.17 5.88 78.57 12.97 82.67 12.97 100.34 12.97 107.07 5.88 111.17"/><polygon class="cls-2" points="5.88 111.17 12.97 107.07 12.97 100.34 28.28 91.51 34.55 95.13 34.55 127.72 5.88 111.17"/><polygon class="cls-1" points="34.55 131.71 34.55 127.72 40.43 131.12 40.43 135.1 34.55 131.71"/><polygon class="cls-1" points="40.43 135.1 40.43 131.12 69.11 147.67 69.11 151.66 47.53 139.2 40.43 135.1"/><polygon class="cls-1" points="69.11 151.66 69.11 147.67 74.98 151.06 74.98 155.05 69.11 151.66"/><polygon class="cls-1" points="74.98 155.05 74.98 151.06 103.66 167.62 103.66 171.61 82.08 159.15 74.98 155.05"/><polygon class="cls-1" points="103.66 171.61 103.66 167.62 109.53 171.01 109.53 175 103.66 171.61"/><polygon class="cls-1" points="109.53 175 109.53 171.01 138.21 187.57 138.21 191.56 116.63 179.1 109.53 175"/><polygon class="cls-1" points="138.21 191.56 138.21 187.57 144.09 190.96 144.09 194.95 138.21 191.56"/><polygon class="cls-1" points="144.09 194.95 144.09 190.96 172.76 207.51 172.76 211.51 151.18 199.05 144.09 194.95"/><polygon class="cls-1" points="144.09 190.96 138.21 187.57 138.21 154.97 144.09 158.37 144.09 190.96"/><polygon class="cls-2" points="172.76 207.51 144.09 190.96 151.18 186.86 151.18 162.47 172.76 174.92 172.76 207.51"/><polygon class="cls-3" points="151.18 186.86 144.09 190.96 144.09 158.37 151.18 162.47 151.18 186.86"/><polygon class="cls-1" points="144.09 158.37 138.21 154.97 138.21 150.98 144.09 154.38 144.09 158.37"/><polygon class="cls-1" points="144.09 158.37 144.09 154.38 172.76 170.93 172.76 174.92 151.18 162.47 144.09 158.37"/><polygon class="cls-2" points="138.21 154.97 138.21 187.57 109.53 171.01 116.63 166.91 116.63 142.52 138.21 154.97"/><polygon class="cls-3" points="116.63 166.91 109.53 171.01 109.53 138.42 116.63 142.52 116.63 166.91"/><polygon class="cls-1" points="109.53 138.42 109.53 171.01 103.66 167.62 103.66 135.03 109.53 138.42"/><polygon class="cls-2" points="103.66 135.03 103.66 167.62 74.98 151.06 82.08 146.97 82.08 122.57 103.66 135.03"/><polygon class="cls-3" points="82.08 146.97 74.98 151.06 74.98 118.47 82.08 122.57 82.08 146.97"/><polygon class="cls-1" points="74.98 118.47 74.98 151.06 69.11 147.67 69.11 115.08 74.98 118.47"/><polygon class="cls-1" points="109.53 134.43 138.21 150.98 138.21 154.97 116.63 142.52 109.53 138.42 109.53 134.43"/><polygon class="cls-1" points="109.53 134.43 109.53 138.42 103.66 135.03 103.66 131.03 109.53 134.43"/><polygon class="cls-2" points="69.11 115.08 69.11 147.67 40.43 131.12 47.53 127.02 47.53 102.62 69.11 115.08"/><polygon class="cls-3" points="47.53 127.02 40.43 131.12 40.43 98.52 47.53 102.62 47.53 127.02"/><polygon class="cls-1" points="40.43 98.52 40.43 131.12 34.55 127.72 34.55 95.13 40.43 98.52"/><polygon class="cls-1" points="34.55 95.13 34.55 91.14 40.43 94.53 40.43 98.52 34.55 95.13"/><polygon class="cls-1" points="40.43 98.52 40.43 94.53 69.11 111.09 69.11 115.08 47.53 102.62 40.43 98.52"/><polygon class="cls-1" points="69.11 115.08 69.11 111.09 74.98 114.48 74.98 118.47 69.11 115.08"/><polygon class="cls-1" points="74.98 118.47 74.98 114.48 103.66 131.03 103.66 135.03 82.08 122.57 74.98 118.47"/><polygon class="cls-4" points="15.74 66.91 15.74 64.67 15.74 44.01 40.15 58.11 40.15 81.01 15.74 66.91"/><polygon class="cls-5" points="61.48 68.69 40.15 81.01 40.15 58.11 61.48 45.8 61.48 67.73 61.48 68.69"/><polygon class="cls-6" points="15.74 44.01 37.06 31.7 61.48 45.8 40.15 58.11 15.74 44.01"/><polygon class="cls-7" points="45.27 86.86 45.27 84.61 45.27 63.96 69.68 78.06 69.68 100.96 45.27 86.86"/><polygon class="cls-8" points="91.01 88.64 69.68 100.96 69.68 78.06 91.01 65.75 91.01 87.68 91.01 88.64"/><polygon class="cls-9" points="45.27 63.96 66.6 51.65 91.01 65.75 69.68 78.06 45.27 63.96"/><polygon class="cls-7" points="52.72 35.21 52.72 32.97 52.72 12.31 77.14 26.41 77.14 49.31 52.72 35.21"/><polygon class="cls-8" points="98.46 36.99 77.14 49.31 77.14 26.41 98.46 14.1 98.46 36.03 98.46 36.99"/><polygon class="cls-9" points="52.72 12.31 74.05 0 98.46 14.1 77.14 26.41 52.72 12.31"/><polygon class="cls-10" points="35.43 51.22 35.43 48.97 35.43 28.32 59.85 42.42 59.85 65.31 35.43 51.22"/><polygon class="cls-11" points="81.17 53 59.85 65.31 59.85 42.42 81.17 30.1 81.17 52.04 81.17 53"/><polygon class="cls-3" points="35.43 28.32 56.76 16.01 81.17 30.1 59.85 42.42 35.43 28.32"/><polygon class="cls-10" points="82.08 57.22 82.08 54.97 82.08 34.32 106.49 48.41 106.49 71.31 82.08 57.22"/><polygon class="cls-11" points="127.82 59 106.49 71.31 106.49 48.41 127.82 36.1 127.82 58.04 127.82 59"/><polygon class="cls-3" points="82.08 34.32 103.41 22.01 127.82 36.1 106.49 48.41 82.08 34.32"/><polygon class="cls-4" points="104.95 83.11 104.95 80.87 104.95 60.22 129.37 74.31 129.37 97.21 104.95 83.11"/><polygon class="cls-5" points="150.69 84.9 129.37 97.21 129.37 74.31 150.69 62 150.69 83.94 150.69 84.9"/><polygon class="cls-6" points="104.95 60.22 126.28 47.9 150.69 62 129.37 74.31 104.95 60.22"/><polygon class="cls-4" points="76.85 102.06 76.85 99.82 76.85 79.17 101.26 93.26 101.26 116.16 76.85 102.06"/><polygon class="cls-5" points="122.59 103.85 101.26 116.16 101.26 93.26 122.59 80.95 122.59 102.89 122.59 103.85"/><polygon class="cls-6" points="76.85 79.17 98.17 66.85 122.59 80.95 101.26 93.26 76.85 79.17"/><polygon class="cls-10" points="113.08 110.56 113.08 108.31 113.08 87.66 137.5 101.75 137.5 124.65 113.08 110.56"/><polygon class="cls-11" points="158.82 112.34 137.5 124.65 137.5 101.75 158.82 89.44 158.82 111.38 158.82 112.34"/><polygon class="cls-3" points="113.08 87.66 134.41 75.34 158.82 89.44 137.5 101.75 113.08 87.66"/><polygon class="cls-7" points="68.14 68.67 68.14 66.42 68.14 45.77 92.56 59.86 92.56 82.76 68.14 68.67"/><polygon class="cls-8" points="113.88 70.45 92.56 82.76 92.56 59.86 113.88 47.55 113.88 69.49 113.88 70.45"/><polygon class="cls-9" points="68.14 45.77 89.47 33.46 113.88 47.55 92.56 59.86 68.14 45.77"/><polygon class="cls-7" points="156.38 116.71 156.38 114.47 156.38 93.81 180.79 107.91 180.79 130.81 156.38 116.71"/><polygon class="cls-8" points="202.12 118.49 180.79 130.81 180.79 107.91 202.12 95.6 202.12 117.53 202.12 118.49"/><polygon class="cls-9" points="156.38 93.81 177.7 81.5 202.12 95.6 180.79 107.91 156.38 93.81"/><polygon class="cls-4" points="135.55 135.7 135.55 133.46 135.55 112.8 159.97 126.9 159.97 149.8 135.55 135.7"/><polygon class="cls-5" points="181.29 137.49 159.97 149.8 159.97 126.9 181.29 114.59 181.29 136.53 181.29 137.49"/><polygon class="cls-6" points="135.55 112.8 156.88 100.49 181.29 114.59 159.97 126.9 135.55 112.8"/><polygon class="cls-10" points="136.79 88.61 136.79 86.37 136.79 65.72 161.21 79.81 161.21 102.71 136.79 88.61"/><polygon class="cls-11" points="182.53 90.4 161.21 102.71 161.21 79.81 182.53 67.5 182.53 89.44 182.53 90.4"/><polygon class="cls-3" points="136.79 65.72 158.12 53.41 182.53 67.5 161.21 79.81 136.79 65.72"/><polygon class="cls-10" points="192.96 133.41 192.96 131.17 192.96 110.51 217.38 124.61 217.38 147.51 192.96 133.41"/><polygon class="cls-11" points="238.71 135.19 217.38 147.51 217.38 124.61 238.71 112.3 238.71 134.23 238.71 135.19"/><polygon class="cls-3" points="192.96 110.51 214.29 98.2 238.71 112.3 217.38 124.61 192.96 110.51"/><polygon class="cls-7" points="168.59 151.94 168.59 149.7 168.59 129.05 193 143.14 193 166.04 168.59 151.94"/><polygon class="cls-8" points="214.33 153.73 193 166.04 193 143.14 214.33 130.83 214.33 152.77 214.33 153.73"/><polygon class="cls-9" points="168.59 129.05 189.91 116.73 214.33 130.83 193 143.14 168.59 129.05"/><polygon class="cls-1" points="0.05 148.43 0.05 152.42 0 152.38 0 54.31 5.88 57.71 5.88 74.41 0.05 71.05 0.05 75.04 5.88 78.4 5.88 110.99 0.05 107.63 0.05 111.62 5.88 114.98 5.88 151.79 0.05 148.43"/><polygon class="cls-2" points="5.88 57.71 0 54.31 7.1 50.22 12.97 53.61 5.88 57.71"/><polygon class="cls-3" points="5.88 57.71 12.97 53.61 12.97 63.59 12.97 70.31 5.88 74.41 5.88 57.71"/><polygon class="cls-3" points="47.53 90.26 40.43 94.36 40.43 77.66 47.53 73.56 47.53 90.26"/><polygon class="cls-3" points="82.08 110.21 74.98 114.31 74.98 97.6 82.08 93.51 82.08 110.21"/><polygon class="cls-3" points="116.63 130.16 109.53 134.25 109.53 117.55 116.63 113.45 116.63 130.16"/><polygon class="cls-3" points="151.18 150.11 144.09 154.2 144.09 137.5 151.18 133.4 151.18 150.11"/><polygon class="cls-2" points="34.55 74.26 41.65 70.16 47.53 73.56 40.43 77.66 34.55 74.26"/><polygon class="cls-1" points="34.55 74.26 40.43 77.66 40.43 94.36 34.55 90.96 34.55 74.26"/><polygon class="cls-2" points="82.08 93.51 74.98 97.6 69.11 94.21 76.2 90.11 82.08 93.51"/><polygon class="cls-1" points="69.11 94.21 74.98 97.6 74.98 114.31 69.11 110.91 69.11 94.21"/><polygon class="cls-2" points="116.63 113.45 109.53 117.55 103.66 114.16 110.75 110.06 116.63 113.45"/><polygon class="cls-1" points="103.66 114.16 109.53 117.55 109.53 134.25 103.66 130.86 103.66 114.16"/><polygon class="cls-2" points="145.31 130.01 151.18 133.4 144.09 137.5 138.21 134.11 145.31 130.01"/><polygon class="cls-1" points="138.21 134.11 144.09 137.5 144.09 154.2 138.21 150.81 138.21 134.11"/><polygon class="cls-2" points="172.76 154.06 179.86 149.96 185.74 153.35 178.64 157.45 172.76 154.06"/><polygon class="cls-1" points="172.76 154.06 178.64 157.45 178.64 174.15 172.76 170.76 172.76 154.06"/><polygon class="cls-3" points="178.64 157.62 185.74 153.53 185.74 170.23 178.64 174.33 178.64 157.62"/><polygon class="cls-10" points="121.3 201.94 121.3 204.18 138.21 213.94 138.21 191.56 121.3 181.79 121.3 201.94"/><polygon class="cls-7" points="47.53 139.2 47.53 159.35 63.02 168.29 63.02 148.15 47.53 139.2"/><polygon class="cls-8" points="63.02 168.29 69.11 164.78 69.11 151.66 63.02 148.15 63.02 168.29"/><polygon class="cls-4" points="82.08 159.15 82.08 180.34 89.34 184.54 89.34 163.35 82.08 159.15"/><polygon class="cls-5" points="89.34 184.54 103.66 176.28 103.66 171.61 89.34 163.35 89.34 184.54"/><polygon class="cls-4" points="64.64 168.2 64.64 170.44 69.11 173.02 69.11 151.66 64.64 149.08 64.64 168.2"/><polygon class="cls-10" points="218.92 213.45 218.92 191.64 200.04 202.55 218.92 213.45"/><polygon class="cls-11" points="218.92 191.65 218.92 213.45 240.25 201.14 240.25 200.18 240.25 179.34 218.92 191.65"/><polygon class="cls-4" points="151.18 199.05 151.18 210.15 167.78 219.73 167.78 208.63 151.18 199.05"/><polygon class="cls-5" points="167.78 219.73 172.76 216.86 172.76 211.51 167.78 208.63 167.78 219.73"/><polygon class="cls-7" points="170.13 224.11 170.13 226.36 172.76 227.88 172.76 211.51 170.13 209.99 170.13 224.11"/><polygon class="cls-7" points="185.74 235.37 194.54 240.45 194.54 217.56 185.74 212.47 185.74 235.37"/><polygon class="cls-8" points="215.87 228.14 194.54 240.45 194.54 217.55 215.87 205.24 215.87 227.18 215.87 228.14"/><polygon class="cls-9" points="185.74 212.47 194.54 217.56 215.87 205.24 205.62 199.32 185.74 210.8 185.74 212.47"/><polygon class="cls-4" points="82.08 122.73 82.08 133.83 98.68 143.41 98.68 132.31 82.08 122.73"/><polygon class="cls-5" points="98.68 143.41 103.66 140.54 103.66 135.19 98.68 132.31 98.68 143.41"/><polygon class="cls-10" points="47.52 102.61 47.52 113.71 64.12 123.29 64.12 112.2 47.52 102.61"/><polygon class="cls-11" points="64.12 123.29 69.09 120.42 69.09 115.07 64.12 112.2 64.12 123.29"/><polygon class="cls-7" points="12.97 82.67 12.97 102.81 28.47 111.75 28.47 91.61 12.97 82.67"/><polygon class="cls-8" points="28.47 111.75 34.55 108.25 34.55 95.12 28.47 91.61 28.47 111.75"/><polygon class="cls-7" points="204.62 184.67 204.62 162.87 185.74 173.77 204.62 184.67"/><polygon class="cls-8" points="204.62 162.88 204.62 184.67 225.95 172.36 225.95 171.4 225.95 150.56 204.62 162.88"/><polygon class="cls-10" points="151.18 162.47 151.18 182.61 166.68 191.56 166.68 171.41 151.18 162.47"/><polygon class="cls-11" points="166.68 191.56 172.76 188.05 172.76 174.92 166.68 171.41 166.68 191.56"/></g></g></svg>