<svg xmlns="http://www.w3.org/2000/svg" viewBox="0 0 351.83 281.84"><defs><style>.cls-1{fill:#bddff4;}.cls-2{fill:#2030a5;}.cls-3{fill:#2c65d6;}.cls-4{fill:#3046b5;}.cls-5{fill:#5ea6d3;}.cls-6{fill:#90caf4;}.cls-7{fill:#e2f1f7;}</style></defs><title>i5</title><g id="Слой_2" data-name="Слой 2"><g id="Layer_1" data-name="Layer 1"><polygon class="cls-1" points="244.92 274.74 244.92 234.89 218.42 219.59 215.75 221.13 215.75 257.89 211.1 255.21 211.1 215.36 184.6 200.06 181.93 201.61 181.93 238.37 177.29 235.69 177.29 195.84 150.79 180.54 148.12 182.08 148.12 218.85 143.47 216.16 143.47 176.32 116.97 161.02 114.3 162.56 114.3 199.32 109.66 196.64 109.66 156.79 83.16 141.5 80.49 143.04 80.49 179.8 75.84 177.12 75.84 137.27 49.34 121.97 46.67 123.51 46.67 160.28 42.02 157.59 42.02 117.75 15.53 102.45 12.86 103.99 12.86 140.75 0 133.33 0 54.62 257.22 203.13 257.22 281.84 244.92 274.74"/><polygon class="cls-2" points="244.92 234.89 244.92 274.74 242.25 276.28 242.25 236.43 244.92 234.89"/><polygon class="cls-3" points="244.92 234.89 242.25 236.43 215.75 221.13 218.42 219.59 244.92 234.89"/><polygon class="cls-4" points="242.25 236.43 242.25 276.28 215.75 260.98 215.75 257.89 215.75 221.13 242.25 236.43"/><polygon class="cls-2" points="211.1 215.36 211.1 255.21 208.43 256.75 208.43 216.91 211.1 215.36"/><polygon class="cls-3" points="211.1 215.36 208.43 216.91 181.93 201.61 184.6 200.06 211.1 215.36"/><polygon class="cls-4" points="208.43 216.91 208.43 256.75 181.93 241.46 181.93 238.37 181.93 201.61 208.43 216.91"/><polygon class="cls-4" points="106.98 198.18 80.49 182.89 80.49 179.8 80.49 143.04 106.98 158.34 106.98 198.18"/><polygon class="cls-4" points="73.17 178.66 46.67 163.36 46.67 160.28 46.67 123.51 73.17 138.81 73.17 178.66"/><polygon class="cls-2" points="73.17 178.66 73.17 138.81 75.84 137.27 75.84 177.12 73.17 178.66"/><polygon class="cls-3" points="73.17 138.81 46.67 123.51 49.34 121.97 75.84 137.27 73.17 138.81"/><polygon class="cls-3" points="80.49 143.04 83.16 141.5 109.66 156.79 106.98 158.34 80.49 143.04"/><polygon class="cls-3" points="12.86 103.99 15.53 102.45 42.02 117.75 39.35 119.29 12.86 103.99"/><polygon class="cls-4" points="39.35 159.14 12.86 143.84 12.86 140.75 12.86 103.99 39.35 119.29 39.35 159.14"/><polygon class="cls-2" points="106.98 198.18 106.98 158.34 109.66 156.79 109.66 196.64 106.98 198.18"/><polygon class="cls-2" points="39.35 159.14 39.35 119.29 42.02 117.75 42.02 157.59 39.35 159.14"/><polygon class="cls-4" points="140.8 217.71 114.3 202.41 114.3 199.32 114.3 162.56 140.8 177.86 140.8 217.71"/><polygon class="cls-3" points="140.8 177.86 114.3 162.56 116.97 161.02 143.47 176.32 140.8 177.86"/><polygon class="cls-2" points="143.47 176.32 143.47 216.16 140.8 217.71 140.8 177.86 143.47 176.32"/><polygon class="cls-4" points="174.62 237.23 148.12 221.93 148.12 218.85 148.12 182.08 174.62 197.38 174.62 237.23"/><polygon class="cls-2" points="174.62 237.23 174.62 197.38 177.29 195.84 177.29 235.69 174.62 237.23"/><polygon class="cls-3" points="174.62 197.38 148.12 182.08 150.79 180.54 177.29 195.84 174.62 197.38"/><polygon class="cls-5" points="257.22 281.84 257.22 203.13 304.53 153.43 351.83 148.51 351.83 227.22 342.38 232.67 342.38 166.98 334.74 171.39 266.47 210.81 266.47 267.68 266.47 276.5 257.22 281.84"/><polygon class="cls-6" points="47.3 4.92 94.61 0 351.83 148.51 304.53 153.43 47.3 4.92"/><polygon class="cls-7" points="304.53 153.43 257.22 203.13 0 54.62 47.3 4.92 304.53 153.43"/><polygon class="cls-1" points="342.38 166.98 342.38 232.67 334.74 228.26 334.74 171.39 342.38 166.98"/><polygon class="cls-2" points="334.74 228.26 266.47 267.68 266.47 210.81 334.74 171.39 334.74 228.26"/></g></g></svg>