<svg xmlns="http://www.w3.org/2000/svg" viewBox="0 0 236.33 213.77"><defs><style>.cls-1{fill:#f74169;}.cls-2{fill:#bddff4;}.cls-3{fill:#fe5773;}.cls-4{fill:#ca4560;}.cls-5{fill:#e2f1f7;}.cls-6{fill:#90caf4;}</style></defs><title>i9</title><g id="Слой_2" data-name="Слой 2"><g id="Layer_1" data-name="Layer 1"><polygon class="cls-1" points="190.2 128.27 190.2 127.25 191.24 127.86 191.24 128.87 190.2 128.27"/><polygon class="cls-2" points="190.2 127.25 190.2 128.27 191.24 128.87 192.47 128.16 192.47 196.65 177.83 205.1 177.83 203.53 182.95 200.58 182.95 199.22 181.91 198.62 177.83 200.97 177.83 136.61 179 135.94 179 134.92 177.96 134.32 190.2 127.25"/><polygon class="cls-3" points="177.83 200.97 181.91 198.62 182.95 199.22 177.83 202.18 177.83 200.97"/><polygon class="cls-1" points="192.47 196.65 192.47 128.16 193.51 127.56 193.51 197.25 192.47 196.65"/><polygon class="cls-4" points="177.83 202.18 182.95 199.22 182.95 200.58 177.83 203.53 177.83 202.18"/><polygon class="cls-4" points="177.83 202.18 177.83 203.53 177.83 205.1 177.83 206.3 176.43 207.11 176.43 137.42 177.83 136.61 177.83 200.97 177.83 202.18"/><polygon class="cls-1" points="210.59 187.39 209.54 186.79 209.54 118.3 210.59 117.7 210.59 187.39"/><polygon class="cls-2" points="209.54 118.3 209.54 186.79 203.94 190.02 203.94 119.32 207.27 117.39 207.27 118.41 208.31 119.01 209.54 118.3"/><polygon class="cls-1" points="207.27 118.41 207.27 117.39 208.31 118 208.31 119.01 207.27 118.41"/><polygon class="cls-4" points="211.99 186.58 210.59 187.39 210.59 117.7 211.99 116.89 211.99 181.25 211.99 182.46 211.99 183.81 211.99 185.38 211.99 186.58"/><polygon class="cls-4" points="211.99 183.81 211.99 182.46 217.1 179.5 217.1 180.86 211.99 183.81"/><polygon class="cls-3" points="217.1 179.5 211.99 182.46 211.99 181.25 216.06 178.9 217.1 179.5"/><polygon class="cls-2" points="216.06 178.9 211.99 181.25 211.99 116.89 213.16 116.22 213.16 115.2 212.11 114.6 224.35 107.54 224.35 108.55 225.39 109.15 226.62 108.45 226.62 176.93 211.99 185.38 211.99 183.81 217.1 180.86 217.1 179.5 216.06 178.9"/><polygon class="cls-1" points="226.62 176.93 226.62 108.45 227.66 107.84 227.66 177.53 226.62 176.93"/><polygon class="cls-1" points="224.35 108.55 224.35 107.54 225.39 108.14 225.39 109.15 224.35 108.55"/><polygon class="cls-2" points="196.08 125.06 195.04 124.46 201.12 120.95 201.12 188.39 201.12 191.43 201.12 191.66 194.91 195.24 194.91 193.67 200.03 190.72 200.03 189.36 198.98 188.76 194.91 191.11 194.91 126.75 196.08 126.08 196.08 125.06"/><polygon class="cls-3" points="194.91 191.11 198.98 188.76 200.03 189.36 194.91 192.32 194.91 191.11"/><polygon class="cls-4" points="194.91 125.74 193.51 126.55 191.24 127.86 191.24 128.87 192.47 128.16 193.51 127.56 194.91 126.75 196.08 126.08 196.08 125.06 194.91 125.74"/><polygon class="cls-4" points="194.91 192.32 200.03 189.36 200.03 190.72 194.91 193.67 194.91 192.32"/><polygon class="cls-4" points="194.91 192.32 194.91 193.67 194.91 195.24 194.91 196.44 193.51 197.25 193.51 127.56 194.91 126.75 194.91 191.11 194.91 192.32"/><polygon class="cls-1" points="176.43 207.11 175.39 206.51 175.39 138.02 176.43 137.42 176.43 207.11"/><polygon class="cls-5" points="201.12 120.95 200.88 120.81 198.05 119.18 168.87 136.03 171.94 137.8 173.12 137.11 174.16 137.72 176.43 136.4 177.83 135.59 179 134.92 177.96 134.32 190.2 127.25 191.24 127.86 193.51 126.55 194.91 125.74 196.08 125.06 195.04 124.46 201.12 120.95"/><polygon class="cls-1" points="173.12 137.11 174.16 137.72 174.16 138.73 173.12 138.13 173.12 137.11"/><polygon class="cls-2" points="173.12 137.11 173.12 138.13 174.16 138.73 175.39 138.02 175.39 206.51 171.94 208.5 171.94 137.8 173.12 137.11"/><polygon class="cls-4" points="177.83 135.59 176.43 136.4 174.16 137.72 174.16 138.73 175.39 138.02 176.43 137.42 177.83 136.61 179 135.94 179 134.92 177.83 135.59"/><polygon class="cls-4" points="229.06 176.72 227.66 177.53 227.66 107.84 229.06 107.03 229.06 171.39 229.06 172.6 229.06 173.95 229.06 175.52 229.06 176.72"/><polygon class="cls-4" points="229.06 173.95 229.06 172.6 234.18 169.64 234.18 171 232.94 171.71 229.06 173.95"/><polygon class="cls-3" points="234.18 169.64 229.06 172.6 229.06 171.39 232.94 169.15 233.14 169.04 233.65 169.34 234.18 169.64"/><polygon class="cls-2" points="232.94 169.15 229.06 171.39 229.06 107.03 230.23 106.36 230.23 105.34 229.19 104.74 232.94 102.57 232.94 169.15"/><polygon class="cls-4" points="234.18 171 234.18 169.64 233.65 169.34 236.33 167.79 236.33 171.1 232.94 173.06 232.94 171.71 234.18 171"/><polygon class="cls-1" points="0 120 0 116.69 5.34 119.78 5.34 123.08 0 120"/><polygon class="cls-3" points="5.34 119.78 0 116.69 5.34 119.77 5.34 119.78"/><polygon class="cls-4" points="5.34 123.08 5.34 119.78 5.35 122.93 5.48 123 5.34 123.08"/><polygon class="cls-1" points="5.35 122.93 5.35 119.78 15.71 125.75 21.05 128.84 31.42 134.82 36.76 137.91 47.12 143.89 52.47 146.98 62.83 152.96 68.18 156.05 78.54 162.03 83.88 165.12 94.25 171.1 99.59 174.18 109.95 180.17 115.3 183.25 125.66 189.24 131.01 192.32 141.37 198.3 146.71 201.39 157.08 207.37 162.42 210.46 157.08 207.38 157.08 210.53 146.85 204.63 146.72 204.55 146.72 201.4 141.37 198.31 141.37 201.46 131.14 195.56 131.01 195.48 131.01 192.33 125.66 189.24 125.66 192.39 115.43 186.49 115.3 186.41 115.3 183.26 109.95 180.17 109.95 183.32 99.72 177.42 99.59 177.34 99.59 174.19 94.25 171.1 94.25 174.25 84.02 168.35 83.88 168.27 83.88 165.12 78.54 162.03 78.54 165.19 68.31 159.28 68.18 159.2 68.18 156.05 62.83 152.97 62.83 156.12 52.6 150.21 52.47 150.13 52.47 146.98 47.12 143.9 47.12 147.05 36.89 141.14 36.76 141.07 36.76 137.91 31.42 134.83 31.42 137.98 21.19 132.07 21.05 132 21.05 128.84 15.71 125.76 15.71 128.91 5.48 123 5.35 122.93"/><polygon class="cls-1" points="21.05 128.84 21.05 132 21.19 132.07 21.05 132.15 21.05 128.84 21.05 128.84"/><polygon class="cls-1" points="15.71 125.76 21.05 128.84 15.71 125.76 15.71 125.76"/><polygon class="cls-1" points="83.88 165.12 83.88 168.27 84.02 168.35 83.88 168.43 83.88 165.12 83.88 165.12"/><polygon class="cls-1" points="62.83 152.97 68.18 156.05 62.83 152.97 62.83 152.97"/><polygon class="cls-1" points="36.76 137.91 36.76 141.07 36.89 141.14 36.76 141.22 36.76 137.91 36.76 137.91"/><polygon class="cls-1" points="31.42 134.83 36.76 137.91 31.42 134.83 31.42 134.83"/><polygon class="cls-1" points="68.18 156.05 68.18 159.2 68.31 159.28 68.18 159.36 68.18 156.05 68.18 156.05"/><polygon class="cls-1" points="47.12 143.9 52.47 146.98 47.12 143.9 47.12 143.9"/><polygon class="cls-1" points="78.54 162.03 83.88 165.12 78.54 162.03 78.54 162.03"/><polygon class="cls-1" points="52.47 146.98 52.47 150.13 52.6 150.21 52.47 150.29 52.47 146.98 52.47 146.98"/><polygon class="cls-1" points="125.66 189.24 131.01 192.33 125.66 189.24 125.66 189.24"/><polygon class="cls-1" points="99.59 174.19 99.59 177.34 99.72 177.42 99.59 177.5 99.59 174.19 99.59 174.19"/><polygon class="cls-1" points="94.25 171.1 99.59 174.19 94.25 171.1 94.25 171.1"/><polygon class="cls-1" points="131.01 192.33 131.01 195.48 131.14 195.56 131.01 195.63 131.01 192.33 131.01 192.33"/><polygon class="cls-1" points="109.95 180.17 115.3 183.26 109.95 180.17 109.95 180.17"/><polygon class="cls-1" points="115.3 183.26 115.3 186.41 115.43 186.49 115.3 186.56 115.3 183.26 115.3 183.26"/><polygon class="cls-1" points="157.08 207.38 162.42 210.46 157.08 207.38 157.08 207.38"/><polygon class="cls-1" points="146.72 201.4 146.72 204.55 146.85 204.63 146.71 204.7 146.71 201.4 146.72 201.4"/><polygon class="cls-1" points="141.37 198.31 146.72 201.4 141.37 198.31 141.37 198.31"/><polygon class="cls-1" points="21.05 132.15 15.71 129.06 15.71 128.91 15.71 125.76 21.05 128.84 21.05 132.15"/><polygon class="cls-1" points="31.42 134.83 36.76 137.91 36.76 141.22 31.42 138.13 31.42 137.98 31.42 134.83"/><polygon class="cls-1" points="83.88 165.12 83.88 168.43 78.54 165.34 78.54 165.19 78.54 162.03 83.88 165.12"/><polygon class="cls-1" points="68.18 159.36 62.83 156.27 62.83 156.12 62.83 152.97 68.18 156.05 68.18 159.36"/><polygon class="cls-1" points="52.47 150.29 47.12 147.2 47.12 147.05 47.12 143.9 52.47 146.98 52.47 150.29"/><polygon class="cls-1" points="94.25 171.1 99.59 174.19 99.59 177.5 94.25 174.41 94.25 174.25 94.25 171.1"/><polygon class="cls-1" points="131.01 195.63 125.66 192.55 125.66 192.39 125.66 189.24 131.01 192.33 131.01 195.63"/><polygon class="cls-1" points="115.3 186.56 109.95 183.48 109.95 183.32 109.95 180.17 115.3 183.26 115.3 186.56"/><polygon class="cls-1" points="141.37 198.31 146.71 201.4 146.71 204.7 141.37 201.62 141.37 201.46 141.37 198.31"/><polygon class="cls-1" points="162.42 213.77 157.08 210.69 157.08 210.53 157.08 207.38 162.42 210.47 162.42 213.77"/><polygon class="cls-3" points="236.33 167.79 233.65 169.34 236.33 167.79 236.33 167.79"/><polygon class="cls-4" points="171.74 208.39 162.42 213.77 162.42 210.47 162.42 213.62 169.92 209.29 169.92 207.34 171.74 208.39"/><polygon class="cls-4" points="203.75 189.91 201.12 191.43 201.12 188.39 203.75 189.91"/><polygon class="cls-4" points="211.99 115.88 210.59 116.69 208.31 118 208.31 119.01 209.54 118.3 210.59 117.7 211.99 116.89 213.16 116.22 213.16 115.2 211.99 115.88"/><polygon class="cls-5" points="232.94 102.57 229.88 100.81 200.88 117.55 203.94 119.32 207.27 117.39 208.31 118 210.59 116.69 211.99 115.88 213.16 115.2 212.11 114.6 224.35 107.54 225.39 108.14 227.66 106.83 229.06 106.02 230.23 105.34 229.19 104.74 232.94 102.57"/><polygon class="cls-4" points="229.06 106.02 227.66 106.83 225.39 108.14 225.39 109.15 226.62 108.45 227.66 107.84 229.06 107.03 230.23 106.36 230.23 105.34 229.06 106.02"/><polygon class="cls-1" points="0 116.69 0 45.98 5.34 49.06 5.34 119.77 0.01 116.69 0 116.69"/><polygon class="cls-1" points="36.76 137.91 31.42 134.82 31.42 127.37 31.42 64.12 36.76 67.2 36.76 137.91"/><polygon class="cls-1" points="21.05 128.84 15.71 125.75 15.71 118.3 15.71 55.05 21.05 58.13 21.05 128.84"/><polygon class="cls-4" points="21.05 128.84 21.05 58.13 21.18 58.06 27.5 61.71 27.5 125.11 21.05 128.84 21.05 128.84"/><polygon class="cls-1" points="27.5 125.11 27.5 61.71 31.42 63.97 31.42 64.12 31.42 127.37 27.5 125.11"/><polygon class="cls-3" points="21.05 128.84 27.5 125.11 31.42 127.37 31.42 134.82 21.05 128.84"/><polygon class="cls-4" points="21.18 58.06 21.05 58.13 21.05 54.83 21.05 57.98 21.18 58.06"/><polygon class="cls-4" points="5.34 119.77 5.34 49.06 5.47 48.99 11.8 52.64 11.8 116.05 5.35 119.77 5.34 119.77"/><polygon class="cls-1" points="11.8 116.05 11.8 52.64 15.71 54.9 15.71 55.05 15.71 118.3 11.8 116.05"/><polygon class="cls-3" points="11.8 116.05 15.71 118.3 15.71 125.75 5.35 119.77 11.8 116.05"/><polygon class="cls-4" points="5.47 48.99 5.34 49.06 5.34 45.76 5.35 48.91 5.47 48.99"/><polygon class="cls-4" points="36.76 137.91 36.76 67.2 36.89 67.13 43.21 70.78 43.21 134.18 36.76 137.91 36.76 137.91"/><polygon class="cls-1" points="43.21 134.18 43.21 70.78 47.12 73.04 47.12 73.19 47.12 136.44 43.21 134.18"/><polygon class="cls-3" points="36.76 137.91 43.21 134.18 47.12 136.44 47.12 143.89 36.76 137.91"/><polygon class="cls-4" points="36.89 67.13 36.76 67.2 36.76 63.9 36.76 67.05 36.89 67.13"/><polygon class="cls-1" points="52.47 146.98 47.12 143.89 47.12 136.44 47.12 73.19 52.47 76.27 52.47 146.98"/><polygon class="cls-1" points="68.18 156.05 62.83 152.96 62.83 145.51 62.83 82.25 68.18 85.34 68.18 156.05"/><polygon class="cls-4" points="68.18 156.05 68.18 85.34 68.31 85.27 74.63 88.92 74.63 152.32 68.18 156.05 68.18 156.05"/><polygon class="cls-1" points="74.63 152.32 74.63 88.92 78.54 91.17 78.54 91.32 78.54 154.58 74.63 152.32"/><polygon class="cls-3" points="68.18 156.05 74.63 152.32 78.54 154.58 78.54 162.03 68.18 156.05"/><polygon class="cls-4" points="68.31 85.27 68.18 85.34 68.18 82.03 68.18 85.19 68.31 85.27"/><polygon class="cls-1" points="83.88 165.12 78.54 162.03 78.54 154.58 78.54 91.32 83.88 94.41 83.88 165.12"/><polygon class="cls-4" points="83.88 165.12 83.88 94.41 84.01 94.33 90.34 97.98 90.34 161.39 83.88 165.12 83.88 165.12"/><polygon class="cls-1" points="90.34 161.39 90.34 97.98 94.25 100.24 94.25 100.39 94.25 163.65 90.34 161.39"/><polygon class="cls-3" points="83.88 165.12 90.34 161.39 94.25 163.65 94.25 171.1 83.88 165.12"/><polygon class="cls-4" points="84.01 94.33 83.88 94.41 83.88 91.1 83.88 94.26 84.01 94.33"/><polygon class="cls-4" points="52.47 146.98 52.47 76.27 52.6 76.2 58.92 79.85 58.92 143.25 52.47 146.98 52.47 146.98"/><polygon class="cls-1" points="58.92 143.25 58.92 79.85 62.83 82.11 62.83 82.25 62.83 145.51 58.92 143.25"/><polygon class="cls-3" points="52.47 146.98 58.92 143.25 62.83 145.51 62.83 152.96 52.47 146.98"/><polygon class="cls-4" points="52.6 76.2 52.47 76.27 52.47 72.96 52.47 76.12 52.6 76.2"/><polygon class="cls-1" points="99.59 174.18 94.25 171.1 94.25 163.65 94.25 100.39 99.59 103.48 99.59 174.18"/><polygon class="cls-1" points="131.01 192.32 125.66 189.24 125.66 181.78 125.66 118.53 131.01 121.61 131.01 192.32"/><polygon class="cls-4" points="131.01 192.32 131.01 121.61 131.13 121.54 137.46 125.19 137.46 188.6 131.01 192.32 131.01 192.32"/><polygon class="cls-1" points="137.46 188.6 137.46 125.19 141.37 127.45 141.37 127.6 141.37 190.85 137.46 188.6"/><polygon class="cls-3" points="131.01 192.32 137.46 188.6 141.37 190.85 141.37 198.3 131.01 192.32"/><polygon class="cls-4" points="131.13 121.54 131.01 121.61 131.01 118.31 131.01 121.47 131.13 121.54"/><polygon class="cls-4" points="99.59 174.18 99.59 103.48 99.72 103.4 106.04 107.05 106.04 170.46 99.59 174.18 99.59 174.18"/><polygon class="cls-1" points="106.04 170.46 106.04 107.05 109.95 109.31 109.95 109.46 109.95 172.72 106.04 170.46"/><polygon class="cls-3" points="99.59 174.18 106.04 170.46 109.95 172.72 109.95 180.17 99.59 174.18"/><polygon class="cls-4" points="99.72 103.4 99.59 103.48 99.59 100.17 99.59 103.33 99.72 103.4"/><polygon class="cls-1" points="115.3 183.25 109.95 180.17 109.95 172.72 109.95 109.46 115.3 112.55 115.3 183.25"/><polygon class="cls-1" points="146.71 201.39 141.37 198.31 141.37 190.85 141.37 127.6 146.71 130.68 146.71 201.39"/><polygon class="cls-4" points="115.3 183.25 115.3 112.55 115.43 112.47 121.75 116.12 121.75 179.53 115.3 183.25 115.3 183.25"/><polygon class="cls-1" points="121.75 179.53 121.75 116.12 125.66 118.38 125.66 118.53 125.66 181.78 121.75 179.53"/><polygon class="cls-3" points="115.3 183.25 121.75 179.53 125.66 181.78 125.66 189.24 115.3 183.25"/><polygon class="cls-4" points="115.43 112.47 115.3 112.55 115.3 109.24 115.3 112.4 115.43 112.47"/><polygon class="cls-1" points="162.42 210.46 157.08 207.37 157.08 199.92 157.08 136.67 162.42 139.75 162.42 210.46"/><polygon class="cls-4" points="162.42 210.46 162.42 139.75 168.87 136.03 168.87 206.73 162.42 210.46 162.42 210.46"/><polygon class="cls-6" points="168.87 206.73 168.87 136.03 171.94 137.8 171.94 208.5 171.74 208.39 169.92 207.34 168.88 206.74 168.87 206.73"/><polygon class="cls-4" points="146.71 201.39 146.71 130.68 146.84 130.61 153.17 134.26 153.17 197.66 146.72 201.39 146.71 201.39"/><polygon class="cls-1" points="153.17 197.66 153.17 134.26 157.08 136.52 157.08 136.67 157.08 199.92 153.17 197.66"/><polygon class="cls-3" points="146.72 201.39 153.17 197.66 157.08 199.92 157.08 207.37 146.72 201.39"/><polygon class="cls-4" points="146.84 130.61 146.71 130.68 146.71 127.38 146.72 130.53 146.84 130.61"/><polygon class="cls-1" points="0 42.67 0 45.98 162.42 139.75 162.42 136.45 0 42.67"/><polygon class="cls-4" points="229.88 100.81 236.33 97.08 236.33 167.79 233.65 169.34 233.14 169.04 232.94 169.15 232.94 102.57 229.88 100.81"/><polygon class="cls-1" points="36.76 63.9 31.42 60.81 36.76 63.9 36.76 63.9"/><polygon class="cls-1" points="21.05 54.83 15.71 51.74 21.05 54.83 21.05 54.83"/><polygon class="cls-1" points="52.47 72.96 47.12 69.88 52.47 72.96 52.47 72.96"/><polygon class="cls-1" points="68.18 82.03 62.83 78.95 68.18 82.03 68.18 82.03"/><polygon class="cls-1" points="83.88 91.1 78.54 88.02 83.88 91.1 83.88 91.1"/><polygon class="cls-1" points="99.59 100.17 94.25 97.08 99.59 100.17 99.59 100.17"/><polygon class="cls-1" points="131.01 118.31 125.66 115.22 131.01 118.31 131.01 118.31"/><polygon class="cls-1" points="115.3 109.24 109.95 106.15 115.3 109.24 115.3 109.24"/><polygon class="cls-1" points="146.71 127.38 141.37 124.29 146.72 127.38 146.71 127.38"/><polygon class="cls-1" points="162.42 136.45 157.08 133.36 162.42 136.45 162.42 136.45"/><polygon class="cls-2" points="232.94 173.28 229.06 175.52 229.06 173.95 232.94 171.71 232.94 173.06 232.94 173.28"/><polygon class="cls-6" points="203.94 119.32 203.94 190.02 203.75 189.91 201.12 188.39 201.12 120.95 200.88 120.81 200.88 117.55 203.94 119.32"/><polygon class="cls-4" points="200.88 117.55 200.88 120.81 198.05 119.18 200.88 117.55"/><polygon class="cls-4" points="236.32 93.78 228.08 98.54 170.92 131.54 162.42 136.45 162.42 139.6 162.42 136.45 162.42 139.75 168.87 136.03 198.05 119.18 200.88 117.55 229.88 100.81 236.33 97.08 236.32 93.78"/><polygon class="cls-4" points="169.92 209.29 162.42 213.62 162.42 210.46 168.88 206.74 169.92 207.34 169.92 209.29"/><polygon class="cls-4" points="168.88 206.74 162.42 210.46 168.87 206.73 168.88 206.74"/><polygon class="cls-3" points="164.58 129.03 157.08 124.7 213.24 92.27 220.74 96.6 164.58 129.03"/><polygon class="cls-4" points="213.24 92.27 157.08 124.7 154.22 123.05 213.11 89.04 213.11 92.2 213.24 92.27"/><polygon class="cls-1" points="213.11 92.2 213.11 89.04 223.48 95.03 220.74 96.6 213.24 92.27 213.11 92.2"/><polygon class="cls-4" points="12.85 41.43 71.74 7.42 71.74 10.58 71.87 10.65 15.71 43.08 12.85 41.43"/><polygon class="cls-3" points="15.71 43.08 71.87 10.65 79.37 14.98 23.21 47.41 15.71 43.08"/><polygon class="cls-1" points="71.74 10.58 71.74 7.42 82.11 13.41 79.37 14.98 71.87 10.65 71.74 10.58"/><polygon class="cls-4" points="28.55 50.5 87.45 16.49 87.45 19.65 87.58 19.72 31.42 52.15 28.55 50.5"/><polygon class="cls-3" points="31.42 52.15 87.58 19.72 95.08 24.05 38.92 56.48 31.42 52.15"/><polygon class="cls-1" points="87.45 19.65 87.45 16.49 97.81 22.48 95.08 24.05 87.58 19.72 87.45 19.65"/><polygon class="cls-4" points="44.26 59.56 103.16 25.56 103.16 28.72 103.29 28.79 47.12 61.22 44.26 59.56"/><polygon class="cls-3" points="47.12 61.22 103.29 28.79 110.79 33.12 54.62 65.55 47.12 61.22"/><polygon class="cls-1" points="103.16 28.72 103.16 25.56 113.52 31.54 110.79 33.12 103.29 28.79 103.16 28.72"/><polygon class="cls-4" points="59.97 68.63 118.87 34.63 118.87 37.79 119 37.86 62.83 70.29 59.97 68.63"/><polygon class="cls-3" points="62.83 70.29 119 37.86 126.5 42.19 70.33 74.62 62.83 70.29"/><polygon class="cls-1" points="118.87 37.79 118.87 34.63 129.23 40.61 126.5 42.19 119 37.86 118.87 37.79"/><polygon class="cls-4" points="75.68 77.7 134.57 43.7 134.57 46.86 134.7 46.93 78.54 79.36 75.68 77.7"/><polygon class="cls-3" points="78.54 79.36 134.7 46.93 142.2 51.26 86.04 83.69 78.54 79.36"/><polygon class="cls-1" points="134.57 46.86 134.57 43.7 144.94 49.68 142.2 51.26 134.7 46.93 134.57 46.86"/><polygon class="cls-4" points="91.38 86.77 150.28 52.77 150.28 55.92 150.41 56 94.25 88.42 91.38 86.77"/><polygon class="cls-3" points="94.25 88.42 150.41 56 157.91 60.33 101.75 92.75 94.25 88.42"/><polygon class="cls-1" points="150.28 55.92 150.28 52.77 160.65 58.75 157.91 60.33 150.41 56 150.28 55.92"/><polygon class="cls-4" points="107.09 95.84 165.99 61.84 165.99 64.99 166.12 65.07 109.95 97.49 107.09 95.84"/><polygon class="cls-3" points="109.95 97.49 166.12 65.07 173.62 69.4 117.45 101.82 109.95 97.49"/><polygon class="cls-1" points="165.99 64.99 165.99 61.84 176.35 67.82 173.62 69.4 166.12 65.07 165.99 64.99"/><polygon class="cls-4" points="122.8 104.91 181.7 70.9 181.7 74.06 181.83 74.14 125.66 106.56 122.8 104.91"/><polygon class="cls-3" points="125.66 106.56 181.83 74.14 189.33 78.47 133.16 110.89 125.66 106.56"/><polygon class="cls-1" points="181.7 74.06 181.7 70.9 192.06 76.89 189.33 78.47 181.83 74.14 181.7 74.06"/><polygon class="cls-4" points="138.51 113.98 197.41 79.97 197.41 83.13 197.53 83.21 141.37 115.63 138.51 113.98"/><polygon class="cls-3" points="141.37 115.63 197.53 83.21 205.03 87.53 148.87 119.96 141.37 115.63"/><polygon class="cls-1" points="197.41 83.13 197.41 79.97 207.77 85.96 205.03 87.53 197.53 83.21 197.41 83.13"/><path class="cls-3" d="M231,90.69l-10.36-6-5.34-3.09-10.36-6-5.34-3.09-10.36-6-5.34-3.09-10.36-6-5.35-3.09-10.36-6-5.34-3.09-10.36-6-5.34-3.09-10.36-6L121,27.21l-10.36-6-5.35-3.09L95,12.16,89.61,9.07l-10.36-6S73.91,0,73.91,0L0,42.67l5.34,3.09,10.36,6,5.34,3.09,10.36,6,5.34,3.09,10.36,6L52.47,73l10.36,6L68.18,82l10.36,6,5.34,3.09,10.36,6,5.34,3.09,10.36,6,5.34,3.09,10.36,6,5.34,3.09,10.36,6,5.34,3.09,10.36,6,5.35,3.09,7.5-4.33,58.9-34,7.5-4.33ZM15.71,43.08l-2.86-1.65,58.9-34,10.36,6L79.37,15,23.21,47.41Zm15.71,9.07L28.55,50.5l58.9-34,10.36,6-2.73,1.58L38.92,56.48Zm15.71,9.07-2.86-1.65,58.9-34,10.36,6-2.73,1.58L54.62,65.55Zm15.71,9.07L60,68.63l58.9-34,10.36,6-2.73,1.58L70.33,74.62Zm15.71,9.07L75.68,77.7l58.9-34,10.36,6-2.73,1.58L86,83.69Zm15.71,9.07-2.86-1.65,58.9-34,10.36,6-2.73,1.58L101.75,92.75ZM110,97.49l-2.86-1.65,58.9-34,10.36,6-2.73,1.58-56.16,32.43Zm15.71,9.07-2.86-1.65,58.9-34,10.36,6-2.73,1.58-56.16,32.43Zm15.71,9.07L138.51,114l58.9-34,10.36,6L205,87.54,148.87,120Zm79.37-19L164.58,129l-7.5-4.33L154.21,123l58.9-34,10.36,6Z"/></g></g></svg>