<svg xmlns="http://www.w3.org/2000/svg" viewBox="0 0 85.83 81.57"><defs><style>.cls-1{fill:#c1e8e5;}.cls-2{fill:#a6d6d2;}.cls-3{fill:#2148a5;}.cls-4{fill:#295acf;}.cls-5{fill:#1a3982;}.cls-6{fill:#163070;}.cls-7{fill:#afbab0;}.cls-8{fill:#959e96;}.cls-9{fill:#b9c4ba;}.cls-10{fill:#abb5ac;}.cls-11{fill:#2ea9c7;}</style></defs><title>i10</title><g id="Слой_2" data-name="Слой 2"><g id="Layer_3" data-name="Layer 3"><polygon class="cls-1" points="30.55 48.81 30.55 81.57 24.39 78.02 24.39 77.13 7.24 67.22 6.46 67.67 2.17 65.19 2.17 32.42 2.94 32.36 16.36 31.23 28.07 45.74 30.55 48.81"/><polygon class="cls-2" points="30.55 50.51 30.55 52.36 15.15 32.83 2.17 34.18 2.17 33.31 2.94 32.36 16.36 31.23 28.07 45.74 30.55 50.51"/><polygon class="cls-2" points="81.32 52.26 30.55 81.57 30.55 48.81 81.32 19.49 81.32 52.26"/><polygon class="cls-3" points="83.49 19.19 56.71 34.65 29.93 50.11 14.97 30.92 0 32.83 26.78 17.37 53.55 1.91 68.52 0 83.49 19.19"/><polygon class="cls-4" points="14.97 30.92 68.52 0 53.55 1.91 0 32.83 14.97 30.92"/><polygon class="cls-5" points="29.93 50.87 14.97 31.68 0 33.58 0 32.83 14.97 30.92 29.93 50.11 29.93 50.87"/><polygon class="cls-6" points="29.93 50.11 29.93 50.87 83.49 19.95 83.49 19.19 29.93 50.11"/><polygon class="cls-2" points="24.39 52.32 24.39 77.13 7.24 67.22 6.46 67.67 6.47 41.97 7.24 42.41 24.39 52.32"/><polygon class="cls-7" points="24.39 52.32 24.39 77.12 7.24 67.22 7.24 42.41 24.39 52.32"/><polygon class="cls-8" points="7.24 42.41 7.24 42.79 24.39 52.7 24.39 52.32 7.24 42.41"/><polygon class="cls-8" points="7.24 44.48 7.24 44.86 24.39 54.77 24.39 54.39 7.24 44.48"/><polygon class="cls-8" points="7.24 46.55 7.24 46.93 24.39 56.84 24.39 56.46 7.24 46.55"/><polygon class="cls-8" points="7.24 48.62 7.24 49 24.39 58.91 24.39 58.53 7.24 48.62"/><polygon class="cls-8" points="7.24 50.69 7.24 51.07 24.39 60.98 24.39 60.6 7.24 50.69"/><polygon class="cls-8" points="7.24 52.76 7.24 53.14 24.39 63.05 24.39 62.67 7.24 52.76"/><polygon class="cls-8" points="7.24 54.83 7.24 55.21 24.39 65.12 24.39 64.74 7.24 54.83"/><polygon class="cls-8" points="7.24 56.9 7.24 57.28 24.39 67.19 24.39 66.81 7.24 56.9"/><polygon class="cls-8" points="7.24 58.97 7.24 59.35 24.39 69.26 24.39 68.88 7.24 58.97"/><polygon class="cls-8" points="7.24 61.04 7.24 61.42 24.39 71.33 24.39 70.95 7.24 61.04"/><polygon class="cls-8" points="7.24 63.11 7.24 63.49 24.39 73.4 24.39 73.02 7.24 63.11"/><polygon class="cls-8" points="7.24 65.18 7.24 65.56 24.39 75.47 24.39 75.09 7.24 65.18"/><polygon class="cls-8" points="85.83 62.97 74.3 69.62 74.3 65.56 85.83 58.91 85.83 62.97"/><polygon class="cls-9" points="85.83 58.91 74.3 65.56 62.77 58.91 74.3 52.26 85.83 58.91"/><polygon class="cls-10" points="62.77 58.91 62.77 62.97 74.3 69.62 74.3 65.56 62.77 58.91"/><polygon class="cls-8" points="68.99 66.56 67.54 67.39 67.54 64.53 68.99 63.7 68.99 66.56"/><polygon class="cls-9" points="68.99 63.7 67.54 64.53 61.32 60.94 62.77 60.11 68.99 63.7"/><polygon class="cls-10" points="61.32 60.94 61.32 63.8 67.54 67.39 67.54 64.53 61.32 60.94"/><polygon class="cls-8" points="67.54 67.39 66.09 68.23 66.09 66.37 67.54 65.53 67.54 67.39"/><polygon class="cls-9" points="67.54 65.53 66.09 66.37 59.87 62.78 61.32 61.94 67.54 65.53"/><polygon class="cls-10" points="59.87 62.78 59.87 64.64 66.09 68.23 66.09 66.37 59.87 62.78"/><polygon class="cls-8" points="66.09 68.23 64.63 69.07 64.63 68.21 66.09 67.37 66.09 68.23"/><polygon class="cls-9" points="66.09 67.37 64.63 68.21 58.42 64.62 59.87 63.78 66.09 67.37"/><polygon class="cls-10" points="58.42 64.62 58.42 65.48 64.63 69.07 64.63 68.21 58.42 64.62"/><polygon class="cls-10" points="73.42 32.28 73.42 52.76 64.37 57.98 64.37 37.5 72.68 32.71 73.42 32.28"/><polygon class="cls-3" points="72.68 32.71 72.68 52.33 64.37 57.14 64.37 37.5 72.68 32.71"/><polygon class="cls-9" points="72.69 52.34 73.42 52.76 64.38 57.98 64.38 57.13 72.69 52.34"/><path class="cls-9" d="M70.45,45.27a1.33,1.33,0,0,1-.75.1c0-.17.27-.32.38-.39.36-.25.77-.45,1.14-.69-.14-.21-.39-.3-.27-.6a.5.5,0,0,1,.73-.23.78.78,0,0,1,.49.65c0,.37-.31.56-.61.69A11.77,11.77,0,0,1,70.45,45.27Z"/><polygon class="cls-6" points="33.72 51.69 33.72 54.47 39.05 51.4 39.05 48.62 33.72 51.69"/><polygon class="cls-11" points="34.05 51.88 34.05 53.9 36.61 52.42 37.76 51.76 38.72 51.2 38.72 49.19 37.35 49.98 35.37 51.12 34.23 51.78 34.05 51.88"/><polygon class="cls-6" points="42.57 46.58 42.57 49.36 47.89 46.29 47.89 43.51 42.57 46.58"/><polygon class="cls-11" points="42.9 46.77 42.9 48.79 45.45 47.31 46.6 46.65 47.56 46.1 47.56 44.08 46.2 44.87 44.22 46.01 43.08 46.67 42.9 46.77"/><polygon class="cls-6" points="51.41 41.48 51.41 44.25 56.74 41.18 56.74 38.41 51.41 41.48"/><polygon class="cls-11" points="51.74 41.67 51.74 43.68 54.3 42.2 55.45 41.54 56.41 40.99 56.41 38.98 55.04 39.76 53.06 40.91 51.92 41.56 51.74 41.67"/></g></g></svg>