<svg xmlns="http://www.w3.org/2000/svg" viewBox="0 0 91.62 50.09"><defs><style>.cls-1{isolation:isolate;}.cls-2{fill:#c7c1a1;}.cls-3{fill:#e0ddc3;}.cls-4{fill:#59ab59;}.cls-5{fill:#d4d1ae;}.cls-6{fill:#47a147;}.cls-7{fill:#ebe4d3;mix-blend-mode:multiply;}.cls-8{fill:#f2c79a;}.cls-9{fill:#e3b788;}.cls-10{fill:#edc397;}.cls-11{fill:#deb081;}.cls-12{fill:#c99b6d;}.cls-13{fill:#d9ac7e;}.cls-14{fill:#f7cfa2;}.cls-15{fill:#edc091;}.cls-16{fill:#f2ca9f;}.cls-17{fill:#453224;}.cls-18{fill:#edb983;}.cls-19{fill:#dead7a;}.cls-20{fill:#0d2b86;}.cls-21{fill:#295acf;}</style></defs><title>i15</title><g class="cls-1"><g id="Слой_2" data-name="Слой 2"><g id="Layer_3" data-name="Layer 3"><path class="cls-2" d="M84.51,22.53c-4-3.22-6.37-5.44-10.12-8.85-4.47-.55-5.2-.82-9.81-1.67C61,8.39,58,5.68,54.86,2.42,51.24,2,50,1.74,45.81,1.19,30.66,9.94,15.15,18.27,0,27v.62c3.62.5,5.43.7,9.05,1.23,3.41,3,6.44,6.37,9.71,9.61,3.53.5,5.89.92,9.81,1.67C32.5,43.28,35.15,46.36,38.7,49h0a46.71,46.71,0,0,1,7.11,1.11L91.62,23.64V23C89,22.27,87.22,23.21,84.51,22.53Z"/><path class="cls-3" d="M45.81.57,0,27c3.62.5,5.43.7,9.05,1.23L54.86,1.79C51.24,1.39,50,1.11,45.81.57Z"/><path class="cls-4" d="M27,17.36c-1,.38-.83.88-1.54,1.34a7.18,7.18,0,0,1-2.44.74c-.86.13-1.7.21-2.57.43a7,7,0,0,0-2.81,1.39c-1.08,1-1.09,1.74-.38,2.27l11.16-6.44A5.38,5.38,0,0,0,27,17.36Z"/><path class="cls-4" d="M38.89,9c-1.86.35-3.94,1.24-4.31,2-.23.46.19.78.43,1.13a1.36,1.36,0,0,1,.21,1l7.36-4.25A10.92,10.92,0,0,0,38.89,9Z"/><path class="cls-3" d="M64.57,11.4,18.76,37.85c3.53.5,5.89.92,9.81,1.67L74.39,13.07C69.91,12.52,69.19,12.25,64.57,11.4Z"/><path class="cls-4" d="M60,20.26a24,24,0,0,1-4.82,1,2.77,2.77,0,0,1-2.24-.69,3.09,3.09,0,0,1-.47-1.41,3.57,3.57,0,0,0-.21-.63L28.17,32.42c.18.07.29.16.28.3s-.23.38-.47.57c-1.26,1-3.58,2.08-3.72,3s2.09,1.14,4.4.77a20.39,20.39,0,0,0,6.22-2.15,5.17,5.17,0,0,1,1.43.17L62.87,19.72A21.1,21.1,0,0,0,60,20.26Z"/><path class="cls-4" d="M65.77,15.18c-1.6.14-3.35.27-4.13-.18-.54-.3-.62-.86-1.51-1l-3.45,2a5.46,5.46,0,0,0,2.92,1.18,39.06,39.06,0,0,0,6.65.63l5.07-2.93C69.39,14.89,67.57,15,65.77,15.18Z"/><path class="cls-5" d="M54.86,1.79,9.05,28.24c3.41,3,6.44,6.37,9.71,9.61L64.57,11.4C61,7.77,58,5.05,54.86,1.79Z"/><path class="cls-6" d="M51.6,14.79A1.33,1.33,0,0,0,51,13.9c-.58-.3-1,.13-1.46.35-1,.53-2.89-.28-4-1.31a18.26,18.26,0,0,1-2.31-3.21,7.89,7.89,0,0,0-.68-.85l-7.36,4.25a7.14,7.14,0,0,1-1,2.51,4.5,4.5,0,0,1-5.15,1.74c-.24-.09-.48-.2-.72-.29L17.22,23.53c.89,2.27,4.38,5.4,7.75,6.92a17.39,17.39,0,0,1,2.3,1.1,2.94,2.94,0,0,1,.9.87L52.27,18.5A17.42,17.42,0,0,0,51.6,14.79Z"/><path class="cls-6" d="M59.62,13.57a2,2,0,0,0-3,1.23,3.14,3.14,0,0,0,0,1.16l3.45-2A2,2,0,0,0,59.62,13.57Z"/><path class="cls-5" d="M74.39,13.07,28.58,39.52c3.92,3.15,6.57,6.22,10.12,8.85L84.51,21.91C80.46,18.69,78.13,16.48,74.39,13.07Z"/><path class="cls-6" d="M53.68,27.55a1.4,1.4,0,0,1-.34-1.38c.27-.52,1.13-.7,1.94-.68,3.37.08,7,2.65,10.26,2.37,1-.09,1.92-.44,3-.51,1.54-.09,3.2.44,4.77.46a7,7,0,0,0,1.18-.09l3.78-2.19a3.41,3.41,0,0,0,.64-1.93c0-2.28-2-4.88-4.48-6.8A21.53,21.53,0,0,0,71.59,15l-.27-.14-5.07,2.93c.82.51,1.68,1,2.57,1.53a18.19,18.19,0,0,1,2.88,1.83,3.09,3.09,0,0,1,1.36,2.46c-.11.77-.86,1.31-1.69,1.68-1.42.64-3.71.79-5-.41s-.71-2.86-1.77-4.1a3.67,3.67,0,0,0-1.69-1L36.3,35.06a3,3,0,0,1,.84,1.58c.11.69-.08,1.42.42,2.11.91,1.26,3.19,1.38,4.64,1,.51-.15,1-.36,1.15-.78.16-.61-.64-1.33-1.45-1.74A15.22,15.22,0,0,1,39.5,36a1.59,1.59,0,0,1-.67-2,2.31,2.31,0,0,1,2.29-.77c2,.32,3,2.25,3.91,3.8a8.76,8.76,0,0,0,2.9,3.11,5.79,5.79,0,0,0,3.66.8l9.93-5.74a5.51,5.51,0,0,0-1.82-2.91C57.88,30.64,55,29.39,53.68,27.55Z"/><path class="cls-6" d="M66.78,29.47c-1,0-2,.33-3,.25l-.18,0a7.64,7.64,0,0,1-2.35-.85A7.51,7.51,0,0,0,58.89,28c-3.57-.41-.3,3.23,1.27,4,1.25.61,2.9,1,3.33,1.88a1,1,0,0,1,0,.13l6.4-3.7A8.76,8.76,0,0,0,66.78,29.47Z"/><path class="cls-3" d="M38.7,48.36a46.69,46.69,0,0,1,7.11,1.11L91.62,23c-2.84-.91-4.27-.4-7.11-1.11Z"/><path class="cls-4" d="M78.24,25.53l-3.78,2.19A8.89,8.89,0,0,0,78.24,25.53Z"/><path class="cls-4" d="M52.21,40.71c3.46-1.36,7.74-2.37,9.14-4.2a1.07,1.07,0,0,0,.16-1.31l-9.93,5.74Z"/><path class="cls-4" d="M69.94,30.33,63.54,34c.16.17.12.39.22.57.28.52,2.06.5,3.55,0a8.52,8.52,0,0,0,2.16-1.16q1.17-.82,2.18-1.64c.54-.43,1.06-.91.76-1.19a4.57,4.57,0,0,0-2.15-.26Z"/><polygon class="cls-7" points="54.52 18.08 56.51 18.54 36.81 29.91 37.38 31.81 37.77 31.97 32.46 37.1 32.77 37.1 42.82 40.38 50.46 32.55 43.82 30.71 43.15 30.71 62.05 19.8 62.53 19.91 63.72 21.02 64.29 18.89 64.83 15.97 54.52 18.08"/><polygon class="cls-8" points="32.46 37.1 24.28 35.98 22.23 28 30.52 28.97 32.46 37.1"/><polygon class="cls-9" points="29.78 29.59 31.29 35.88 24.93 35.13 23.36 28.93 23.84 28.99 29.78 29.59"/><polygon class="cls-10" points="29.78 29.59 31.17 35.38 25.28 34.68 23.84 28.99 29.78 29.59"/><polygon class="cls-11" points="39.4 31.99 32.46 37.1 30.52 28.97 37.38 24.01 39.4 31.99"/><polygon class="cls-12" points="36.85 25.41 38.39 31.58 32.95 35.43 31.44 29.15 36.49 25.68 36.85 25.41"/><polygon class="cls-13" points="36.49 25.68 37.92 31.38 32.84 34.97 31.44 29.15 36.49 25.68"/><polygon class="cls-14" points="37.38 24.01 30.52 28.97 22.23 28 29.07 22.93 37.38 24.01"/><polygon class="cls-15" points="35.72 24.42 35.29 24.75 30.34 28.24 24.43 27.63 23.9 27.56 29.23 23.57 35.72 24.42"/><polygon class="cls-16" points="35.29 24.75 30.34 28.24 24.43 27.63 29.32 23.94 35.29 24.75"/><path class="cls-17" d="M24.15,29.53l-.06-.24.15,0,.13.23v-.21l.47,0,.06.24a.23.23,0,0,1-.25.29l.06.25.26,0,0,.07-.61-.06,0-.07.26,0-.06-.25A.54.54,0,0,1,24.15,29.53Zm2.81.88-.6,0,0-.07.6,0Zm-.6-.52H26.3l0-.32.19.34h-.07l.08.34h-.08Zm.27,0h-.07l0-.32.19.34h-.07l.08.34h-.08ZM25,29.62l.16-.05a.89.89,0,0,1,.32,0l0-.08h.08l0,.08a1.3,1.3,0,0,1,.34.09l.2.08s0,0,0,0l-.5,0,.09.35c0,.12,0,.27-.12.25a.24.24,0,0,1-.14-.06.28.28,0,0,1-.09-.15h.08a.18.18,0,0,0,.06.1l.07,0c.05,0,.1,0,.05-.19l-.09-.35-.5,0S25,29.62,25,29.62Zm0-.22s0-.12,0-.12a.72.72,0,0,1,.1.14s0,.06-.05.05A.1.1,0,0,1,25,29.4Zm.26,0s0-.12,0-.12a.71.71,0,0,1,.1.13s0,.06-.05.05A.1.1,0,0,1,25.25,29.42Zm.29,0s0-.12,0-.12a.7.7,0,0,1,.1.13s0,.06-.05.05A.1.1,0,0,1,25.55,29.45Zm.26,0s0-.12,0-.12a.7.7,0,0,1,.1.13s0,.06-.05.05A.1.1,0,0,1,25.81,29.47Z"/><polygon class="cls-8" points="31.24 30.1 31.86 30.24 32.03 30.92 31.4 30.76 31.24 30.1"/><polygon class="cls-18" points="31.24 30.1 37.51 25.73 38.14 25.9 31.86 30.24 31.24 30.1"/><polygon class="cls-18" points="31.24 30.1 31.62 30.18 31.78 30.86 31.4 30.76 31.24 30.1"/><polygon class="cls-19" points="31.86 30.24 38.14 25.9 38.32 26.6 32.03 30.92 31.86 30.24"/><polygon class="cls-8" points="32.23 34.2 32.86 34.4 33.05 35.18 32.41 34.99 32.23 34.2"/><polygon class="cls-18" points="32.23 34.2 38.53 29.76 39.19 30.01 32.86 34.4 32.23 34.2"/><polygon class="cls-18" points="32.23 34.2 32.61 34.32 32.8 35.1 32.41 34.99 32.23 34.2"/><polygon class="cls-19" points="32.86 34.4 39.19 30.01 39.38 30.77 33.05 35.18 32.86 34.4"/><path class="cls-20" d="M36.43,24.6c-1-.27-2.37-.7-3-.87a4.67,4.67,0,0,1-.92-1.38c5.11-8,13.13-11.66,23.24-12.17a13.39,13.39,0,0,1-1.18-.9l-.21-1.38a61.55,61.55,0,0,1,8.12,2.79L62.9,12A10.66,10.66,0,0,0,60,13a13.41,13.41,0,0,0-1.18-.9C50.69,13,41.34,18,37,24.38A.54.54,0,0,1,36.43,24.6Z"/><path class="cls-21" d="M35.63,23.33c-1-.27-2.37-.7-3-.87a.18.18,0,0,1-.1-.28c5.11-8,12.32-12.76,23.14-13.39-.49-.31-.75-.48-1.3-.88a40.27,40.27,0,0,1,8.12,2.79,9.55,9.55,0,0,0-2.7,1,10.44,10.44,0,0,0-1.06-.92c-8.65,1-18.16,5.95-22.47,12.34A.54.54,0,0,1,35.63,23.33Z"/><path class="cls-7" d="M64.88,15.78a23.06,23.06,0,0,0,4.31.28s7.07,3.74,8,3.75,1.91-.48,1.72-1S71.08,15,71.08,15l-4.89-.14Z"/><path class="cls-20" d="M66,.57A3,3,0,0,0,63.08.26a5.89,5.89,0,0,0-1.78,1.21c-.28.36.53.93.53,1.51,0,2.18,2,10.14,3,12.68.17.41,1.48-.39,1.75-.74,1.16-1.56,3.59-5.06,3.59-7.1A9.26,9.26,0,0,0,66,.57Zm0,7.48a5.06,5.06,0,0,1-2.29-4c0-1.46,1-2.05,2.29-1.32a5.06,5.06,0,0,1,2.29,4C68.31,8.19,67.29,8.79,66,8.06Z"/><path class="cls-21" d="M64.88,1.23C62.56-.1,60.69,1,60.69,3.65c0,2.18,2.79,9.27,3.82,11.81a.56.56,0,0,0,1,.13c1.16-1.56,3.59-5.06,3.59-7.1A9.26,9.26,0,0,0,64.88,1.23Zm0,7.48a5.06,5.06,0,0,1-2.29-4c0-1.46,1-2.05,2.29-1.32a5.06,5.06,0,0,1,2.29,4C67.17,8.85,66.14,9.45,64.88,8.72Z"/></g></g></g></svg>