<svg xmlns="http://www.w3.org/2000/svg" viewBox="0 0 77.19 68.21"><defs><style>.cls-1{isolation:isolate;}.cls-2{fill:#112554;}.cls-3{fill:#2148a5;}.cls-4{fill:#383431;}.cls-5{fill:#0d2b86;}.cls-6{fill:#48433f;}.cls-7{fill:#302d2a;}.cls-8{fill:#8db0a1;}.cls-9{fill:#051238;}.cls-10{fill:#d1dbd3;}.cls-11{fill:#c8d1c9;}.cls-12{fill:#cfe8dc;}.cls-13{fill:#979e98;}.cls-14{fill:#5d615e;}.cls-15{fill:#54695e;}.cls-16{fill:#47cded;}.cls-17{fill:#c9fffb;opacity:0.3;mix-blend-mode:soft-light;}.cls-18{fill:#23293b;}.cls-19{fill:#2ea9c7;}</style></defs><title>i8</title><g class="cls-1"><g id="Слой_2" data-name="Слой 2"><g id="Layer_3" data-name="Layer 3"><path class="cls-2" d="M36.76,54.34c0-4.68,6-3.13,4.7.94S36.76,54.34,36.76,54.34Z"/><path class="cls-2" d="M69.7,35.09c0-4.68,6-3.13,4.7.94S69.7,35.09,69.7,35.09Z"/><path class="cls-3" d="M73.42,11q-5.32,4.1-10.61,8.22c-3.64,2.85-6.95,6.08-10.4,9.14-1.67,1.48-3.48,2.8-5.11,4.31-1.32,1.23-2,2.74-3.09,4.14A106.74,106.74,0,0,1,28.87,52.45c-.8.67-1.6,1.35-2.41,2C24.88,55.76,24,55.78,23,57.57a22.2,22.2,0,0,0-1.43,3.2A17.77,17.77,0,0,0,20,65.41c0,.35.3,1-.24,1.17a1.09,1.09,0,0,1-.47,0,68.23,68.23,0,0,1-6.59-1.8,23.24,23.24,0,0,1-9.91-7.17,8.28,8.28,0,0,1-1-1.26C.13,52.53-.18,45.26,3.5,40.81c.15-.19.32-.38.49-.56C8.18,35.87,14.32,34,16.76,30.37S25.1,16.24,30.76,12,53-.51,54.35,0,65.77,4.78,73.42,11Z"/><path class="cls-4" d="M32.82,67.76l7.77-13.05L37.9,53.18a2.56,2.56,0,0,0-.4-.23h0a3.91,3.91,0,0,0-3.58.48,11.88,11.88,0,0,0-5.37,9.31A3.86,3.86,0,0,0,30,66.12h0l.26.15Z"/><path class="cls-4" d="M66.28,48.44,74,35.39l-2.68-1.53a2.55,2.55,0,0,0-.4-.23h0a3.91,3.91,0,0,0-3.58.48A11.88,11.88,0,0,0,62,43.42a3.86,3.86,0,0,0,1.44,3.39h0l.26.15Z"/><path class="cls-5" d="M77.18,25.68a35.4,35.4,0,0,1-1.06,7.74A8.54,8.54,0,0,1,74,36.62c-.59-2.61-2.86-3.56-5.57-2.08a12.14,12.14,0,0,0-5.72,9.63C56.63,48,48.58,53,41.63,57.19c-.36-3.06-2.75-4.3-5.65-2.74a12.35,12.35,0,0,0-5.77,9.78,0,0,0,0,0,0,0,25.12,25.12,0,0,1-4.26,2c-4,.7-5.09.53-6.21.39l-.19,0c-1-.12-1.35-1.61-1.21-3.66a21,21,0,0,1,1-4.94A18.15,18.15,0,0,1,23,51.26c4.19-4.38,10.33-6.21,12.78-9.88s8.34-14.13,14-18.34,22.25-12.55,23.6-12C74.47,11.46,77.39,17.26,77.18,25.68Z"/><path class="cls-6" d="M42.14,58.17a11.88,11.88,0,0,1-5.37,9.31c-3,1.71-5.38.32-5.38-3.1a11.88,11.88,0,0,1,5.37-9.31C39.73,53.35,42.14,54.74,42.14,58.17Z"/><path class="cls-7" d="M40.14,60.08a6,6,0,0,1-2.7,4.68c-1.37.8-2.51.27-2.69-1.15,0-.14,0-.27,0-.42a6,6,0,0,1,2.71-4.68,1.87,1.87,0,0,1,.37-.18C39.13,57.78,40.14,58.51,40.14,60.08Z"/><path class="cls-8" d="M38.26,59.6a4.83,4.83,0,0,1-2.18,3.78,1.63,1.63,0,0,1-1.33.24c0-.14,0-.27,0-.42a6,6,0,0,1,2.71-4.68,1.87,1.87,0,0,1,.37-.18A1.66,1.66,0,0,1,38.26,59.6Z"/><path class="cls-6" d="M75.6,38.85a11.88,11.88,0,0,1-5.37,9.31c-3,1.71-5.38.32-5.38-3.1a11.88,11.88,0,0,1,5.37-9.31C73.19,34,75.6,35.42,75.6,38.85Z"/><path class="cls-7" d="M73.61,40.76a6,6,0,0,1-2.7,4.68c-1.37.8-2.51.27-2.69-1.15,0-.14,0-.27,0-.42A6,6,0,0,1,70.9,39.2a1.88,1.88,0,0,1,.37-.18C72.59,38.47,73.61,39.19,73.61,40.76Z"/><path class="cls-8" d="M71.73,40.28a4.83,4.83,0,0,1-2.18,3.78,1.63,1.63,0,0,1-1.33.24c0-.14,0-.27,0-.42A6,6,0,0,1,70.9,39.2a1.88,1.88,0,0,1,.37-.18A1.66,1.66,0,0,1,71.73,40.28Z"/><path class="cls-9" d="M16.67,57.48c2.36-4.63,6.94-6.82,8.7-7.66s-.07,6.69-1.26,7.66S15.94,58.92,16.67,57.48Z"/><path class="cls-10" d="M17.1,57.17c2.14-4.2,6.3-6.19,7.89-7s-.06,6.07-1.15,7S16.44,58.47,17.1,57.17Z"/><path class="cls-11" d="M22.85,56.36a1.56,1.56,0,0,1-2.17,1.25A2.5,2.5,0,0,1,19.15,55a1.56,1.56,0,0,1,2.17-1.25A2.5,2.5,0,0,1,22.85,56.36Z"/><path class="cls-12" d="M22,56.06a.87.87,0,0,1-1.21.7A1.39,1.39,0,0,1,20,55.28a.87.87,0,0,1,1.21-.7A1.39,1.39,0,0,1,22,56.06Z"/><path class="cls-11" d="M24.81,53.45a1,1,0,0,1-1.43.82,1.64,1.64,0,0,1-1-1.74,1,1,0,0,1,1.43-.82A1.64,1.64,0,0,1,24.81,53.45Z"/><path class="cls-12" d="M24.29,53.26a.58.58,0,0,1-.81.47.94.94,0,0,1-.57-1,.58.58,0,0,1,.81-.47A.94.94,0,0,1,24.29,53.26Z"/><path class="cls-9" d="M4.43,39.79a27.84,27.84,0,0,0-2.55,7c-.13.73-.62,2.33-1,1.27A4.94,4.94,0,0,1,.67,47C.4,45,2.4,42.22,3.61,40.76,4,40.22,4.37,39.85,4.43,39.79Z"/><path class="cls-12" d="M3.61,40.76a29.92,29.92,0,0,0-1.89,5.75c-.11.62-.48,1.87-.82,1.56A4.94,4.94,0,0,1,.67,47C.4,45,2.4,42.22,3.61,40.76Z"/><path class="cls-10" d="M1.64,48.29c.46-1,.88-3.92,1.8-5.76a.34.34,0,0,1,.48-.13c3.21,4,8.79,7.07,16.35,9.44a.34.34,0,0,1,.07.54A26.47,26.47,0,0,0,17.18,56a8.54,8.54,0,0,0-.75,1.37.34.34,0,0,1-.5.17c-6.41-2.17-11.36-5-14.16-8.78A.33.33,0,0,1,1.64,48.29Z"/><path class="cls-13" d="M19.8,52.22l-.09.09-.42.42-.42.45c-.13.13-.27.28-.4.43a6.14,6.14,0,0,0-.42.47c-.13.14-.26.29-.37.43l-.39.47q-.18.23-.33.45l-.19.28c-.07.11-.14.22-.22.33s-.18.31-.25.45-.2.37-.27.53c-6.75-2.29-11.28-5.1-13.86-8.59l0,0c0-.1.09-.22.13-.35s.11-.36.17-.57.08-.3.12-.46.09-.36.14-.54c0,0,0-.05,0-.07,0-.17.08-.35.13-.53L3,45.28c0-.16.09-.32.13-.48l.17-.56.15-.42h0c.06-.18.13-.36.2-.53L3.77,43C6.92,46.74,12.31,49.83,19.8,52.22Z"/><path class="cls-14" d="M15.89,58.16c-6.08-1.84-11.33-5-14.27-8.79l-.08,1.37C4,54.21,9.3,57.4,15.89,59.7Z"/><path class="cls-10" d="M17.29,55q-.18.23-.33.45A27,27,0,0,1,2.56,47c0-.18.09-.36.14-.54,0,0,0-.05,0-.07A26.8,26.8,0,0,0,17.29,55Z"/><path class="cls-10" d="M18,54.08c-.13.14-.26.29-.37.43A27.88,27.88,0,0,1,2.85,45.87L3,45.28A27.4,27.4,0,0,0,18,54.08Z"/><path class="cls-10" d="M18.87,53.18c-.13.13-.27.28-.4.43a28.14,28.14,0,0,1-15.34-8.8l.17-.56A27.41,27.41,0,0,0,18.87,53.18Z"/><path class="cls-10" d="M19.71,52.31l-.42.42a28.52,28.52,0,0,1-15.84-8.9h0c.06-.18.13-.36.2-.53A28.34,28.34,0,0,0,19.71,52.31Z"/><path class="cls-10" d="M16.55,56c-.09.16-.18.31-.25.45C8.48,54.34,4.23,50.41,2.27,48c.06-.17.11-.36.17-.57C4.26,49.76,8.46,53.84,16.55,56Z"/><path class="cls-15" d="M.65,49.75C.71,52,4.37,55.23,6.43,56.49S15.68,61.25,18.61,61a30.51,30.51,0,0,0,6.11-1.3s.94.14.94,3.29c0,2.87-3.58,3.73-5.86,3.75-1.43,0-6.69-.68-13.52-5.1S0,53.26,0,52A5.57,5.57,0,0,1,.65,49.75Z"/><path class="cls-16" d="M45.83,26.89a120.51,120.51,0,0,0-10,14.49c-2,.68-6.14-.64-10.06-2.59-.58-.28-1.16-.59-1.72-.9s-1.23-.7-1.81-1.06a33.12,33.12,0,0,1-2.9-2c-.3-.24-.59-.47-.85-.71a11,11,0,0,1-1.37-1.37c-.61-.74-.89-1.39-.74-1.88a72.78,72.78,0,0,1,9.38-13.8c0,1,1.38,2.24,3.55,3.58.59.37,1.25.74,1.94,1.11.53.28,1.08.56,1.66.84.88.42,1.8.84,2.75,1.23s2.07.84,3.11,1.21c.63.22,1.25.42,1.86.62A32.38,32.38,0,0,0,45.83,26.89Z"/><path class="cls-17" d="M35.66,23.84c-3.1,2.73-6.15,5.6-9.12,8.61-1.45,1.47-2.88,2.92-4.3,4.38a33.12,33.12,0,0,1-2.9-2c3.31-3,6.67-6.06,10-9.13,1.16-1.06,2.35-2.1,3.56-3.1C33.79,23,34.71,23.45,35.66,23.84Z"/><path class="cls-17" d="M31.25,21.77C27,25.85,22.73,30,18.49,34.13a11,11,0,0,1-1.37-1.37q2.31-2.57,4.8-5c2.4-2.42,4.87-4.78,7.39-7.05C29.9,21,30.56,21.4,31.25,21.77Z"/><path class="cls-17" d="M40.63,25.66C35.5,30,30.6,34.39,25.77,38.78c-.58-.28-1.16-.59-1.72-.9,4.5-3.7,9-7.46,13.39-11.65.43-.42.88-.82,1.33-1.19C39.4,25.27,40,25.47,40.63,25.66Z"/><path class="cls-9" d="M43.43,54.66a.32.32,0,0,1-.21-.06,2.84,2.84,0,0,1-.4-.49,3.81,3.81,0,0,0-4.57-1.67,1.11,1.11,0,0,1-.94-.2,1.13,1.13,0,0,1-.44-.87l-.15-8.31A2.92,2.92,0,0,1,37,41.67C39.92,35.9,46.52,27.31,48.41,26a41.45,41.45,0,0,1,5.68-3.5h.07l.07.06c.63.64.77,23.18.16,25.94-.13.61-8.19,5.32-10.38,6.07A1.92,1.92,0,0,1,43.43,54.66Zm-.05-.25s.08,0,.45-.08c2.28-.72,10.06-5.41,10.33-5.93.64-2.92.33-24.26-.09-25.65a47.61,47.61,0,0,0-5.51,3.43c-1.67,1.18-8.24,9.5-11.32,15.6A2.68,2.68,0,0,0,37,43.05l.15,8.31a.88.88,0,0,0,.34.68.86.86,0,0,0,.73.16A4.07,4.07,0,0,1,43,54a2.82,2.82,0,0,0,.36.44Z"/><path class="cls-18" d="M48.54,26.69c1-.7,4.82-2.72,5.11-2.86s.17,8,.24,10.46A2.7,2.7,0,0,1,53.06,36L39.28,42.27c-.77,0-1.47-.74-1.15-1.2C40.39,37.73,46.64,28,48.54,26.69Z"/><path class="cls-19" d="M38.84,41.71a.43.43,0,0,1-.19-.14.21.21,0,0,1,0-.25c2.82-3.79,8.43-13,10.11-14.18.8-.56,3.23-1.85,4.49-2.52,0,1.54,0,5.4.16,9.76a2.06,2.06,0,0,1-.6,1.3L38.94,41.74Z"/><polygon class="cls-9" points="73.23 15.16 55.28 24.84 55.05 22.66 73.06 12.79 73.23 15.16"/><polygon class="cls-9" points="68.47 21.45 55.4 28.4 55.36 26.21 68.49 19.26 68.47 21.45"/><polygon class="cls-9" points="63.41 27.86 55.39 32.17 55.41 29.83 63.42 25.68 63.41 27.86"/></g></g></g></svg>