<svg xmlns="http://www.w3.org/2000/svg" xmlns:xlink="http://www.w3.org/1999/xlink" viewBox="0 0 258.99 175.64"><defs><style>.cls-1{isolation:isolate;}.cls-2{mix-blend-mode:multiply;fill:url(#Ѕезым_нный_градиент_2);}.cls-3{fill:url(#Ѕезым_нный_градиент_21);}.cls-4{fill:#e1f0f0;}.cls-5{fill:#b9c6c7;}.cls-6{fill:#a6a9ab;}.cls-7{fill:#dde2e6;}.cls-8{fill:#d9dbdd;}.cls-9{fill:#72777a;}.cls-10{fill:#99afba;}.cls-11{fill:#cedbdb;}.cls-12{fill:url(#Ѕезым_нный_градиент_35);}.cls-13{fill:#424852;}.cls-14{fill:url(#Ѕезым_нный_градиент_40);}.cls-15{fill:#d7d9db;}.cls-16{fill:url(#Ѕезым_нный_градиент_34);}.cls-17{fill:#e3e5e6;}.cls-18{fill:url(#Ѕезым_нный_градиент_10);}.cls-19{fill:url(#Ѕезым_нный_градиент_34-2);}.cls-20{fill:url(#Ѕезым_нный_градиент_21-2);}.cls-21{fill:#8d9296;}.cls-22{fill:#80898a;}.cls-23{fill:url(#Ѕезым_нный_градиент_21-3);}.cls-24{fill:#eac72f;}.cls-25{fill:#1c8eb0;}.cls-26{fill:#4eceff;}.cls-27{fill:#74c7ac;}.cls-28{fill:#70caed;}.cls-29{fill:#78d9ff;}.cls-30{fill:#005677;}.cls-31{fill:#343434;}.cls-32{fill:#878787;}.cls-33{fill:#4f4f4f;}.cls-34{fill:#6ba9b0;}.cls-35{fill:#4e98a1;}.cls-36{fill:#006b96;}.cls-37{fill:#a93e38;}.cls-38{fill:#ed8333;}.cls-39{fill:#edbd51;}.cls-40{fill:url(#Ѕезым_нный_градиент_21-4);}.cls-41{fill:url(#Ѕезым_нный_градиент_35-2);}.cls-42{fill:url(#Ѕезым_нный_градиент_35-3);}.cls-43{fill:url(#Ѕезым_нный_градиент_40-2);}.cls-44{fill:url(#Ѕезым_нный_градиент_34-3);}.cls-45{fill:url(#Ѕезым_нный_градиент_34-4);}.cls-46{fill:url(#Ѕезым_нный_градиент_34-5);}.cls-47{fill:url(#Ѕезым_нный_градиент_35-4);}.cls-48{fill:url(#Ѕезым_нный_градиент_35-5);}.cls-49{fill:url(#Ѕезым_нный_градиент_40-3);}.cls-50{fill:url(#Ѕезым_нный_градиент_34-6);}.cls-51{fill:url(#Ѕезым_нный_градиент_34-7);}.cls-52{fill:url(#Ѕезым_нный_градиент_34-8);}.cls-53{fill:#d84e42;}.cls-54{fill:#3a4044;}.cls-55{fill:#b03a28;}.cls-56{fill:#9a1200;}.cls-57{fill:#747474;}.cls-58{fill:#333;}.cls-59{fill:url(#Ѕезым_нный_градиент_35-6);}.cls-60{fill:url(#Ѕезым_нный_градиент_35-7);}.cls-61{fill:#2fc8d8;}.cls-62{fill:#007d9a;}.cls-63{fill:url(#Ѕезым_нный_градиент_40-4);}.cls-64{fill:url(#Ѕезым_нный_градиент_34-9);}.cls-65{fill:url(#Ѕезым_нный_градиент_10-2);}.cls-66{fill:url(#Ѕезым_нный_градиент_34-10);}.cls-67{fill:#a4a4a4;}.cls-68{fill:url(#Ѕезым_нный_градиент_28);}.cls-69{fill:url(#Ѕезым_нный_градиент_34-11);}.cls-70{fill:#bbb;}.cls-71{fill:url(#Ѕезым_нный_градиент_35-8);}.cls-72{fill:url(#Ѕезым_нный_градиент_35-9);}.cls-73{fill:url(#Ѕезым_нный_градиент_40-5);}.cls-74{fill:url(#Ѕезым_нный_градиент_34-12);}.cls-75{fill:url(#Ѕезым_нный_градиент_10-3);}.cls-76{fill:url(#Ѕезым_нный_градиент_34-13);}.cls-77{fill:#b2b2b2;}.cls-78{fill:#888;}.cls-79{fill:#5a5c54;}.cls-80{fill:#bdc1c4;}.cls-81{fill:#878983;}.cls-82{fill:#db4040;}.cls-83{fill:#db721c;}.cls-84{fill:#850f0f;}.cls-85{fill:#fff5f5;}.cls-86{fill:#b88f8f;}.cls-87{fill:#ff8c2e;}.cls-88{fill:#b35000;}.cls-89{fill:#b32b2b;}.cls-90{fill:#f9fcfc;}.cls-91{fill:#e0e0e0;}.cls-92{fill:#f8ffff;}.cls-93{fill:#6bb5ff;}.cls-94{fill:#6da7ed;}.cls-95{fill:#1a2647;}.cls-96{fill:#4271ce;}.cls-97{fill:#3a3b36;}.cls-98{fill:url(#Ѕезым_нный_градиент_35-10);}.cls-99{fill:url(#Ѕезым_нный_градиент_40-6);}.cls-100{fill:url(#Ѕезым_нный_градиент_34-14);}.cls-101{fill:url(#Ѕезым_нный_градиент_10-4);}.cls-102{fill:url(#Ѕезым_нный_градиент_34-15);}.cls-103{fill:url(#Ѕезым_нный_градиент_35-11);}.cls-104{fill:url(#Ѕезым_нный_градиент_40-7);}.cls-105{fill:url(#Ѕезым_нный_градиент_34-16);}.cls-106{fill:url(#Ѕезым_нный_градиент_10-5);}.cls-107{fill:url(#Ѕезым_нный_градиент_34-17);}.cls-108{fill:#192535;}.cls-109{fill:#949494;}.cls-110{fill:#757575;}.cls-111{fill:#c4c4c4;}.cls-112{fill:#edf2f6;}.cls-113{fill:#c8d5e2;}.cls-114{fill:#c0ccd9;}.cls-115{fill:#6f7f87;}.cls-116{fill:#919191;}.cls-117{fill:#b7bcbd;}.cls-118{fill:#ebebeb;}.cls-119{fill:#607173;}.cls-120{fill:#7b8694;}.cls-121{fill:#9fbdbf;}.cls-122{fill:#d9d9d9;}.cls-123{fill:#b8b8b8;}.cls-124{fill:#c9d2db;}.cls-125{fill:#363636;}.cls-126{fill:#a4bbc7;}</style><linearGradient id="Ѕезым_нный_градиент_2" x1="81.42" y1="184.03" x2="177.57" y2="17.5" gradientUnits="userSpaceOnUse"><stop offset="0" stop-color="#ededed"/><stop offset="1" stop-color="#e6e6e6"/></linearGradient><linearGradient id="Ѕезым_нный_градиент_21" x1="198.36" y1="-16460.91" x2="202.55" y2="-16460.91" gradientTransform="matrix(1, 0, 0, -1, 0, -16435.44)" gradientUnits="userSpaceOnUse"><stop offset="0.16" stop-color="#a7aaac"/><stop offset="0.16" stop-color="#bec2c5"/><stop offset="0.56" stop-color="#bec2c5"/><stop offset="0.56" stop-color="#dee3e7"/><stop offset="0.87" stop-color="#dee3e7"/><stop offset="0.87" stop-color="#d9dee2"/></linearGradient><linearGradient id="Ѕезым_нный_градиент_35" x1="244.15" y1="-16488.36" x2="232.3" y2="-16508.9" gradientTransform="matrix(1, 0, 0, -1, 0, -16435.44)" gradientUnits="userSpaceOnUse"><stop offset="0.13" stop-color="#68737b"/><stop offset="0.13" stop-color="#6c7880"/><stop offset="0.44" stop-color="#6c7880"/><stop offset="0.44" stop-color="#50585e"/><stop offset="0.84" stop-color="#50585e"/><stop offset="0.84" stop-color="#3b4145"/></linearGradient><linearGradient id="Ѕезым_нный_градиент_40" x1="245.44" y1="-16493.81" x2="237.64" y2="-16507.32" gradientTransform="matrix(1, 0, 0, -1, 0, -16435.44)" gradientUnits="userSpaceOnUse"><stop offset="0.13" stop-color="#dbe0e3"/><stop offset="0.13" stop-color="#e0e5e8"/><stop offset="0.44" stop-color="#e0e5e8"/><stop offset="0.44" stop-color="#c0c4c6"/><stop offset="0.84" stop-color="#c0c4c6"/><stop offset="0.84" stop-color="#a8abad"/></linearGradient><linearGradient id="Ѕезым_нный_градиент_34" x1="245.34" y1="-16494.87" x2="238.38" y2="-16506.94" gradientTransform="matrix(1, 0, 0, -1, 0, -16435.44)" gradientUnits="userSpaceOnUse"><stop offset="0.16" stop-color="#797b7d"/><stop offset="0.16" stop-color="#919496"/><stop offset="0.56" stop-color="#919496"/><stop offset="0.56" stop-color="#b1b5b8"/><stop offset="0.87" stop-color="#b1b5b8"/><stop offset="0.87" stop-color="#acb0b3"/></linearGradient><linearGradient id="Ѕезым_нный_градиент_10" x1="243" y1="-16495.6" x2="238.13" y2="-16504.04" gradientTransform="matrix(1, 0, 0, -1, 0, -16435.44)" gradientUnits="userSpaceOnUse"><stop offset="0.13" stop-color="#acb0b3"/><stop offset="0.13" stop-color="#b1b5b8"/><stop offset="0.44" stop-color="#b1b5b8"/><stop offset="0.44" stop-color="#919496"/><stop offset="0.84" stop-color="#919496"/><stop offset="0.84" stop-color="#797b7d"/></linearGradient><linearGradient id="Ѕезым_нный_градиент_34-2" x1="242.56" y1="-16498.56" x2="240.33" y2="-16502.41" xlink:href="#Ѕезым_нный_градиент_34"/><linearGradient id="Ѕезым_нный_градиент_21-2" x1="225.73" y1="-16508.86" x2="219.96" y2="-16498.86" xlink:href="#Ѕезым_нный_градиент_21"/><linearGradient id="Ѕезым_нный_градиент_21-3" x1="198.65" y1="-16478.29" x2="188.35" y2="-16496.13" xlink:href="#Ѕезым_нный_градиент_21"/><linearGradient id="Ѕезым_нный_градиент_21-4" x1="232.1" y1="-16479.57" x2="236.29" y2="-16479.57" xlink:href="#Ѕезым_нный_градиент_21"/><linearGradient id="Ѕезым_нный_градиент_35-2" x1="173.22" y1="-16486.04" x2="161.36" y2="-16506.58" xlink:href="#Ѕезым_нный_градиент_35"/><linearGradient id="Ѕезым_нный_градиент_35-3" x1="178.89" y1="-16489.24" x2="167.04" y2="-16509.78" xlink:href="#Ѕезым_нный_градиент_35"/><linearGradient id="Ѕезым_нный_градиент_40-2" x1="179.25" y1="-16505.09" x2="173.31" y2="-16497.81" xlink:href="#Ѕезым_нный_градиент_40"/><linearGradient id="Ѕезым_нный_градиент_34-3" x1="180.08" y1="-16495.76" x2="173.12" y2="-16507.82" xlink:href="#Ѕезым_нный_градиент_34"/><linearGradient id="Ѕезым_нный_градиент_34-4" x1="177.74" y1="-16496.48" x2="172.87" y2="-16504.92" xlink:href="#Ѕезым_нный_градиент_34"/><linearGradient id="Ѕезым_нный_градиент_34-5" x1="177.3" y1="-16499.44" x2="175.07" y2="-16503.29" xlink:href="#Ѕезым_нный_градиент_34"/><linearGradient id="Ѕезым_нный_градиент_35-4" x1="152.82" y1="-16497.82" x2="140.96" y2="-16518.35" xlink:href="#Ѕезым_нный_градиент_35"/><linearGradient id="Ѕезым_нный_градиент_35-5" x1="158.49" y1="-16501.02" x2="146.63" y2="-16521.56" xlink:href="#Ѕезым_нный_градиент_35"/><linearGradient id="Ѕезым_нный_градиент_40-3" x1="158.84" y1="-16516.87" x2="152.9" y2="-16509.59" xlink:href="#Ѕезым_нный_градиент_40"/><linearGradient id="Ѕезым_нный_градиент_34-6" x1="159.68" y1="-16507.53" x2="152.71" y2="-16519.6" xlink:href="#Ѕезым_нный_градиент_34"/><linearGradient id="Ѕезым_нный_градиент_34-7" x1="157.34" y1="-16508.26" x2="152.46" y2="-16516.7" xlink:href="#Ѕезым_нный_градиент_34"/><linearGradient id="Ѕезым_нный_градиент_34-8" x1="156.89" y1="-16511.22" x2="154.67" y2="-16515.07" xlink:href="#Ѕезым_нный_градиент_34"/><linearGradient id="Ѕезым_нный_градиент_35-6" x1="204.85" y1="-16504.54" x2="192.99" y2="-16525.08" xlink:href="#Ѕезым_нный_градиент_35"/><linearGradient id="Ѕезым_нный_градиент_35-7" x1="210.52" y1="-16507.74" x2="198.67" y2="-16528.28" xlink:href="#Ѕезым_нный_градиент_35"/><linearGradient id="Ѕезым_нный_градиент_40-4" x1="211.81" y1="-16513.19" x2="204.01" y2="-16526.7" xlink:href="#Ѕезым_нный_градиент_40"/><linearGradient id="Ѕезым_нный_градиент_34-9" x1="211.71" y1="-16514.25" x2="204.75" y2="-16526.32" xlink:href="#Ѕезым_нный_градиент_34"/><linearGradient id="Ѕезым_нный_градиент_10-2" x1="209.37" y1="-16514.98" x2="204.5" y2="-16523.42" xlink:href="#Ѕезым_нный_градиент_10"/><linearGradient id="Ѕезым_нный_градиент_34-10" x1="208.92" y1="-16517.94" x2="206.7" y2="-16521.79" xlink:href="#Ѕезым_нный_градиент_34"/><linearGradient id="Ѕезым_нный_градиент_28" x1="178.67" y1="-16497.99" x2="186.77" y2="-16497.99" gradientTransform="matrix(1, 0, 0, -1, 0, -16435.44)" gradientUnits="userSpaceOnUse"><stop offset="0.16" stop-color="#4d4e4f"/><stop offset="0.16" stop-color="#646668"/><stop offset="0.56" stop-color="#646668"/><stop offset="0.56" stop-color="#85888a"/><stop offset="0.87" stop-color="#85888a"/><stop offset="0.87" stop-color="#808385"/></linearGradient><linearGradient id="Ѕезым_нный_градиент_34-11" x1="185.1" y1="-16490.42" x2="179.88" y2="-16499.48" xlink:href="#Ѕезым_нный_градиент_34"/><linearGradient id="Ѕезым_нный_градиент_35-8" x1="184.45" y1="-16516.32" x2="172.59" y2="-16536.85" xlink:href="#Ѕезым_нный_градиент_35"/><linearGradient id="Ѕезым_нный_градиент_35-9" x1="190.12" y1="-16519.52" x2="178.26" y2="-16540.06" xlink:href="#Ѕезым_нный_градиент_35"/><linearGradient id="Ѕезым_нный_градиент_40-5" x1="191.4" y1="-16524.97" x2="183.6" y2="-16538.48" xlink:href="#Ѕезым_нный_градиент_40"/><linearGradient id="Ѕезым_нный_градиент_34-12" x1="191.31" y1="-16526.03" x2="184.34" y2="-16538.1" xlink:href="#Ѕезым_нный_градиент_34"/><linearGradient id="Ѕезым_нный_градиент_10-3" x1="188.97" y1="-16526.76" x2="184.09" y2="-16535.2" xlink:href="#Ѕезым_нный_градиент_10"/><linearGradient id="Ѕезым_нный_градиент_34-13" x1="188.52" y1="-16529.72" x2="186.3" y2="-16533.57" xlink:href="#Ѕезым_нный_градиент_34"/><linearGradient id="Ѕезым_нный_градиент_35-10" x1="109.31" y1="-16566.67" x2="97.39" y2="-16587.31" xlink:href="#Ѕезым_нный_градиент_35"/><linearGradient id="Ѕезым_нный_градиент_40-6" x1="110.6" y1="-16572.15" x2="102.76" y2="-16585.72" xlink:href="#Ѕезым_нный_градиент_40"/><linearGradient id="Ѕезым_нный_градиент_34-14" x1="110.5" y1="-16573.21" x2="103.5" y2="-16585.34" xlink:href="#Ѕезым_нный_градиент_34"/><linearGradient id="Ѕезым_нный_градиент_10-4" x1="108.15" y1="-16573.94" x2="103.25" y2="-16582.43" xlink:href="#Ѕезым_нный_градиент_10"/><linearGradient id="Ѕезым_нный_градиент_34-15" x1="107.7" y1="-16576.91" x2="105.47" y2="-16580.79" xlink:href="#Ѕезым_нный_градиент_34"/><linearGradient id="Ѕезым_нный_градиент_35-11" x1="88.81" y1="-16578.39" x2="76.89" y2="-16599.03" xlink:href="#Ѕезым_нный_градиент_35"/><linearGradient id="Ѕезым_нный_градиент_40-7" x1="90.09" y1="-16583.86" x2="82.26" y2="-16597.44" xlink:href="#Ѕезым_нный_градиент_40"/><linearGradient id="Ѕезым_нный_градиент_34-16" x1="90" y1="-16584.93" x2="83" y2="-16597.06" xlink:href="#Ѕезым_нный_градиент_34"/><linearGradient id="Ѕезым_нный_градиент_10-5" x1="87.65" y1="-16585.66" x2="82.75" y2="-16594.14" xlink:href="#Ѕезым_нный_градиент_10"/><linearGradient id="Ѕезым_нный_градиент_34-17" x1="87.2" y1="-16588.63" x2="84.96" y2="-16592.51" xlink:href="#Ѕезым_нный_градиент_34"/></defs><title>i4</title><g class="cls-1"><g id="Слой_2" data-name="Слой 2"><g id="Layer_1" data-name="Layer 1"><g id="_Группа_" data-name="&lt;Группа&gt;"><polygon id="_Контур_" data-name="&lt;Контур&gt;" class="cls-2" points="192.1 25.9 258.99 64.62 66.89 175.64 0 136.91 192.1 25.9"/><g id="_Группа_2" data-name="&lt;Группа&gt;"><g id="_Группа_3" data-name="&lt;Группа&gt;"><g id="_Группа_4" data-name="&lt;Группа&gt;"><path id="_Контур_2" data-name="&lt;Контур&gt;" class="cls-3" d="M198.36,10V39.61c0,.75.94,1.36,2.09,1.36s2.09-.61,2.09-1.36V10Z"/><ellipse id="_Контур_3" data-name="&lt;Контур&gt;" class="cls-4" cx="200.45" cy="10.03" rx="2.09" ry="1.36"/></g><g id="_Группа_5" data-name="&lt;Группа&gt;"><path id="_Контур_4" data-name="&lt;Контур&gt;" class="cls-5" d="M201.5,3.62V9.78a1.15,1.15,0,0,1-1.06.5,1.48,1.48,0,0,1-.49-.07,1.05,1.05,0,0,1-.47-.27V4.69a3.31,3.31,0,0,0-.11-1,.14.14,0,0,0,0-.06.43.43,0,0,0-.2-.23c-.21-.1-.52,0-.89-.18l-.06-.27L198,1.82,197.64.46l-.09-.37h0l.7-.07A6,6,0,0,1,200,.34C201.25.82,201.5,1.83,201.5,3.62Z"/><path id="_Контур_5" data-name="&lt;Контур&gt;" class="cls-6" d="M200,5.27v4.94a1.05,1.05,0,0,1-.47-.27V4.69a3.31,3.31,0,0,0-.11-1,.14.14,0,0,0,0-.06.43.43,0,0,0-.2-.23c-.21-.1-.52,0-.89-.18l-.06-.27L198,1.82a3.71,3.71,0,0,1,.54.17C199.7,2.46,200,3.47,200,5.27Z"/><path id="_Контур_6" data-name="&lt;Контур&gt;" class="cls-7" d="M200,.34A6,6,0,0,0,198.24,0l-.7.07h0l.09.37.09.41h0a6,6,0,0,1,1.79.34c1.21.48,1.47,1.49,1.47,3.28v5.69a.87.87,0,0,0,.5-.39V3.62C201.5,1.83,201.25.82,200,.34Z"/><path id="_Контур_7" data-name="&lt;Контур&gt;" class="cls-8" d="M196.88,1a3.19,3.19,0,0,0,1.54,2.43c.85.49,1.54.2,1.54-.65a1.61,1.61,0,0,0,0-.29A3.33,3.33,0,0,0,198.42.31l-.18-.09C197.47-.14,196.88.17,196.88,1Z"/><path id="_Контур_8" data-name="&lt;Контур&gt;" class="cls-6" d="M199.63,2.55a.74.74,0,0,1-.17.52c-.21.24-.6.25-1,0a2.56,2.56,0,0,1-1.21-1.92c0-.63.47-.87,1.07-.59l.14.07.17.11a2.64,2.64,0,0,1,1,1.58A1,1,0,0,1,199.63,2.55Z"/><path id="_Контур_9" data-name="&lt;Контур&gt;" class="cls-9" d="M199.63,2.55a.74.74,0,0,1-.17.52,2.48,2.48,0,0,1-1-1.8.75.75,0,0,1,.17-.53,2.64,2.64,0,0,1,1,1.58A1,1,0,0,1,199.63,2.55Z"/></g></g><g id="_Группа_6" data-name="&lt;Группа&gt;"><polygon id="_Контур_10" data-name="&lt;Контур&gt;" class="cls-10" points="219.47 41.03 257.27 62.9 257.27 54.67 219.47 32.8 219.47 41.03"/><polygon id="_Контур_11" data-name="&lt;Контур&gt;" class="cls-4" points="255.69 62.69 256.59 63.1 258.33 54.11 256.96 53.95 254.78 55.11 255.69 62.69"/><polygon id="_Контур_12" data-name="&lt;Контур&gt;" class="cls-11" points="256.59 63.1 258.6 62.21 258.8 53.86 255.69 55.52 256.59 63.1"/><polygon id="_Контур_13" data-name="&lt;Контур&gt;" class="cls-4" points="220.94 31.95 258.8 53.86 257.27 54.67 219.47 32.8 220.94 31.95"/></g><polygon id="_Контур_14" data-name="&lt;Контур&gt;" class="cls-10" points="255.69 55.52 254.78 55.11 255.69 62.69 256.59 63.1 255.69 55.52"/><g id="_Группа_7" data-name="&lt;Группа&gt;"><path id="_Контур_15" data-name="&lt;Контур&gt;" class="cls-12" d="M228.21,67.72a5,5,0,0,0,1.94,4.43c1.63,1.09,5.12,3,5.12,3,4.91-2.83,14.54-12.67,14.54-17.58,0-2.13-4.59-3.75-5.85-4.56-1.63-1-4.1-.89-6.88.71C232.19,56.54,228.21,62.82,228.21,67.72Z"/><path id="_Контур_16" data-name="&lt;Контур&gt;" class="cls-13" d="M233,70.52c0,4.91,4,6.59,8.88,3.76s8.88-9.11,8.88-14-4-6.59-8.88-3.76S233,65.62,233,70.52Z"/><path id="_Контур_17" data-name="&lt;Контур&gt;" class="cls-14" d="M235.64,68.53c0,3.26,2.64,4.37,5.9,2.49s5.9-6,5.9-9.3-2.64-4.37-5.9-2.49S235.64,65.28,235.64,68.53Z"/><path id="_Контур_18" data-name="&lt;Контур&gt;" class="cls-15" d="M236,68.8c0,3.26,2.64,4.37,5.9,2.49s5.9-6,5.9-9.3-2.64-4.37-5.9-2.49S236,65.54,236,68.8Z"/><path id="_Контур_19" data-name="&lt;Контур&gt;" class="cls-16" d="M247.19,62.34c0,2.92-2.37,6.66-5.29,8.35s-5.29.68-5.29-2.24a5.56,5.56,0,0,1,.09-1,11.45,11.45,0,0,1,5.2-7.36c.21-.12.43-.23.63-.32C245.16,58.57,247.19,59.63,247.19,62.34Z"/><path id="_Контур_20" data-name="&lt;Контур&gt;" class="cls-17" d="M244.62,62v0a8.28,8.28,0,0,1-4,6.31,4.62,4.62,0,0,1-1.17.51,2,2,0,0,1-2.61-1,1.65,1.65,0,0,1-.13-.39,7.72,7.72,0,0,1,.29-1.2,11.88,11.88,0,0,1,4.16-5.66,8.68,8.68,0,0,1,.75-.5l.53-.27.1-.05C243.76,59.73,244.6,60.54,244.62,62Z"/><path id="_Контур_21" data-name="&lt;Контур&gt;" class="cls-18" d="M244.26,61.48c0,2.17-2.74,6.12-4.92,7.41l0,0-.09,0a.93.93,0,0,1-.28-.09l-.11,0a13.7,13.7,0,0,1-2-.89,1.65,1.65,0,0,1-.13-.39,7.72,7.72,0,0,1,.29-1.2,11.88,11.88,0,0,1,4.16-5.66,8.68,8.68,0,0,1,.75-.5l.53-.27a13.61,13.61,0,0,1,1.6,1.4h0Z"/><path id="_Контур_22" data-name="&lt;Контур&gt;" class="cls-8" d="M244.76,62.94a7.16,7.16,0,0,1-3.45,5.45c-1.9,1.1-3.45.44-3.45-1.46a3.63,3.63,0,0,1,.06-.65,7.47,7.47,0,0,1,3.39-4.8l.41-.21C243.44,60.47,244.76,61.17,244.76,62.94Z"/><path id="_Контур_23" data-name="&lt;Контур&gt;" class="cls-19" d="M243.12,64.08a3.49,3.49,0,0,1-1.68,2.65c-.93.53-1.68.22-1.68-.71a1.77,1.77,0,0,1,0-.32,3.64,3.64,0,0,1,1.65-2.34l.2-.1C242.48,62.88,243.12,63.21,243.12,64.08Z"/><path id="_Контур_24" data-name="&lt;Контур&gt;" class="cls-17" d="M241.68,64.3a1.4,1.4,0,0,1-.67,1.06c-.37.21-.67.09-.67-.28a.71.71,0,0,1,0-.13A1.46,1.46,0,0,1,241,64l.08,0C241.43,63.82,241.68,64,241.68,64.3Z"/></g><g id="_Группа_8" data-name="&lt;Группа&gt;"><path id="_Контур_25" data-name="&lt;Контур&gt;" class="cls-20" d="M217.51,78.16l13.31-7.87c1.77-1,1.93-4.06.36-6.78s-4.28-4.1-6.05-3.08l-13.47,8Z"/><ellipse id="_Контур_26" data-name="&lt;Контур&gt;" class="cls-21" cx="214.67" cy="73.24" rx="3.7" ry="5.69" transform="translate(-7.86 117.15) rotate(-30)"/><ellipse id="_Контур_27" data-name="&lt;Контур&gt;" class="cls-22" cx="214.03" cy="73.61" rx="2.97" ry="4.56" transform="translate(-8.13 116.88) rotate(-30)"/></g><g id="_Группа_9" data-name="&lt;Группа&gt;"><path id="_Контур_28" data-name="&lt;Контур&gt;" class="cls-23" d="M189.22,61.2l13.31-7.87c1.77-1,1.93-4.06.36-6.78s-4.28-4.1-6.05-3.08l-13.47,8Z"/><ellipse id="_Контур_29" data-name="&lt;Контур&gt;" class="cls-21" cx="186.38" cy="56.27" rx="3.7" ry="5.69" transform="translate(-3.16 100.73) rotate(-30)"/><ellipse id="_Контур_30" data-name="&lt;Контур&gt;" class="cls-22" cx="185.74" cy="56.64" rx="2.97" ry="4.56" transform="translate(-3.44 100.46) rotate(-30)"/></g><polygon id="_Контур_31" data-name="&lt;Контур&gt;" class="cls-24" points="225.54 32.34 209.17 41.79 209.17 10.33 224.34 3.6 223.5 7.16 225.54 16.7 225.54 32.34"/><path id="_Контур_32" data-name="&lt;Контур&gt;" class="cls-24" d="M228.87,35.49l-6.72,3.88s.46-7.7-9-2.49l15.68-12.42Z"/><polygon id="_Контур_33" data-name="&lt;Контур&gt;" class="cls-24" points="228.87 29.46 225.38 31.47 225.38 16.53 228.87 14.91 228.87 29.46"/><path id="_Контур_34" data-name="&lt;Контур&gt;" class="cls-25" d="M255.52,34V49.65l-2,1.13-2,1.17-.37.21-1,.56-1.09.63c-1.09-.31-2.63-.18-4.73,1l-5.22,3V27.65l4.48-5.87,10.69-.87-.85,3.56Z"/><path id="_Контур_35" data-name="&lt;Контур&gt;" class="cls-26" d="M224.34,3.6c8.27,1.21,30,17.31,30,17.31s-5.19.09-15.18,6.74c-7.21,4.8-30-17.32-30-17.32S220.24,3,224.34,3.6Z"/><polygon id="_Контур_36" data-name="&lt;Контур&gt;" class="cls-27" points="218.86 29.03 223 26.64 223 20 218.86 22.39 218.86 29.03"/><polygon id="_Контур_37" data-name="&lt;Контур&gt;" class="cls-27" points="224.76 41.68 230.33 38.46 230.33 29.13 224.76 32.34 224.76 41.68"/><path id="_Контур_38" data-name="&lt;Контур&gt;" class="cls-25" d="M256.8,53.86l-4.67,2.83s.46-7.7-9-2.49L256.8,42.82Z"/><polygon id="_Контур_39" data-name="&lt;Контур&gt;" class="cls-25" points="256.8 47.83 255.36 48.79 255.36 33.85 256.8 36.47 256.8 47.83"/><g id="_Группа_10" data-name="&lt;Группа&gt;"><path id="_Контур_40" data-name="&lt;Контур&gt;" class="cls-28" d="M224.82,24.88l14.33.67s-21.92-14.17-30-17.31c-11.27-4.38-17.4-2.39-17.4-2.39Z"/><path id="_Контур_41" data-name="&lt;Контур&gt;" class="cls-25" d="M233.34,21.7l.12,0c-5.7-3.76-12.2-7.78-16.08-9.29-11.27-4.38-17.86-2.15-17.86-2.15l15.59,9C216.8,18.73,223.28,17.79,233.34,21.7Z"/><path id="_Контур_42" data-name="&lt;Контур&gt;" class="cls-29" d="M233.34,21.73l.12,0c-5.7-3.76-12.2-8.22-16.08-9.73-11.27-4.38-17.86-3-17.86-3l15.59,9C216.8,17.46,223.28,17.81,233.34,21.73Z"/><path id="_Контур_43" data-name="&lt;Контур&gt;" class="cls-25" d="M224.82,65.39,239.15,56V25.56s-9.89-4-14.33-.67Z"/><polygon id="_Контур_44" data-name="&lt;Контур&gt;" class="cls-30" points="191.76 5.86 224.82 24.89 224.82 65.39 191.76 46.37 191.76 5.86"/><polygon id="_Контур_45" data-name="&lt;Контур&gt;" class="cls-30" points="199.51 9.04 199.51 12.27 215.09 21 215.09 18.05 199.51 9.04"/></g><path id="_Контур_46" data-name="&lt;Контур&gt;" class="cls-31" d="M253.44,58.44l-1.5-1.13-.36-1.71,0-.08a3,3,0,0,0-.2-.39,3.92,3.92,0,0,0-.35-.51,3.82,3.82,0,0,1,1.85,1.64,2.93,2.93,0,0,1,.2.39l0,.08Z"/><path id="_Контур_47" data-name="&lt;Контур&gt;" class="cls-32" d="M253.15,56.1l.28,2.35-.36-1.71,0-.08a2.93,2.93,0,0,0-.2-.39A3.82,3.82,0,0,0,251,54.62a3.6,3.6,0,0,0-1.88-1.26c-1.09-.31-1.55.7-3.65,1.91l-10.95,6.81L233,60.94V59.64l6.14-3.54,2.56-1.48,2.66-1.54c.23-.15.49-.29.76-.44a9,9,0,0,1,2-.77h0a5.1,5.1,0,0,1,4.06.3,8.85,8.85,0,0,1,2,1.49,0,0,0,0,1,0,0,2.08,2.08,0,0,1,.47.79Z"/><path id="_Контур_48" data-name="&lt;Контур&gt;" class="cls-33" d="M254.74,57.68l-1.31.76-.36-1.71,0-.08a2.93,2.93,0,0,0-.2-.39A3.82,3.82,0,0,0,251,54.62l-.38-.13c-1.09-.31-2.63-.18-4.73,1l-5.22,3-6.14,3.54V60.77l6.14-3.54,2.56-1.48,2.66-1.54c.23-.15.49-.29.76-.43a9,9,0,0,1,2-.77h0a5.1,5.1,0,0,1,4.06.3,3.23,3.23,0,0,1,.37.27l.09.08a0,0,0,0,1,0,0,4.25,4.25,0,0,1,1.24,2.22l.27,1.35Z"/><g id="_Группа_11" data-name="&lt;Группа&gt;"><path id="_Контур_49" data-name="&lt;Контур&gt;" class="cls-33" d="M252.13,35.75a5.51,5.51,0,0,0,.89-1.48,1.91,1.91,0,0,0,.06-1.3l-1.29-7c-.26-.9-1-1.09-2-.52l-4.38,2.4a2.87,2.87,0,0,0-.75.67,5.93,5.93,0,0,0-1.4,3.06v7.72c0,1.28.69,1.66,1.8,1l6.24-3.79a4.35,4.35,0,0,0,.86-.68Z"/><path id="_Контур_50" data-name="&lt;Контур&gt;" class="cls-34" d="M251.47,35.84l-6.24,3.79c-1,.6-1.6.27-1.6-.87V31a4.12,4.12,0,0,1,1.53-2.64l4.38-2.4c.94-.52,1.61-.35,1.85.46l1.3,7.06A3.19,3.19,0,0,1,251.47,35.84Z"/></g><path id="_Контур_51" data-name="&lt;Контур&gt;" class="cls-33" d="M248.95,48.2A1.15,1.15,0,0,1,247.8,47v-5.9a1.7,1.7,0,0,1,.85-1.47L251,38.31a1.15,1.15,0,0,1,1.73,1v5.9a1.7,1.7,0,0,1-.85,1.47L249.52,48A1.16,1.16,0,0,1,248.95,48.2Z"/><path id="_Контур_52" data-name="&lt;Контур&gt;" class="cls-35" d="M251.7,46.32l-2.38,1.37A.75.75,0,0,1,248.2,47v-5.9a1.29,1.29,0,0,1,.65-1.12l2.38-1.37a.75.75,0,0,1,1.12.65v5.9A1.29,1.29,0,0,1,251.7,46.32Z"/><g id="_Группа_12" data-name="&lt;Группа&gt;"><path id="_Контур_53" data-name="&lt;Контур&gt;" class="cls-36" d="M228,51.43a1.15,1.15,0,0,1-1.15-1.15V38.19a1.7,1.7,0,0,1,.85-1.47L230,35.35a1.15,1.15,0,0,1,1.73,1V48.43a1.7,1.7,0,0,1-.85,1.47l-2.38,1.37A1.16,1.16,0,0,1,228,51.43Z"/><path id="_Контур_54" data-name="&lt;Контур&gt;" class="cls-25" d="M230.79,49.55l-2.38,1.37a.75.75,0,0,1-1.12-.65V38.19a1.29,1.29,0,0,1,.65-1.12l2.38-1.37a.75.75,0,0,1,1.12.65V48.43A1.29,1.29,0,0,1,230.79,49.55Z"/></g><polygon id="_Контур_55" data-name="&lt;Контур&gt;" class="cls-31" points="234.51 60.77 233.01 59.64 233.01 60.94 234.51 62.08 234.51 60.77"/><g id="_Группа_13" data-name="&lt;Группа&gt;"><g id="_Группа_14" data-name="&lt;Группа&gt;"><polygon id="_Контур_56" data-name="&lt;Контур&gt;" class="cls-7" points="238.83 54.47 224.82 62.72 224.82 65.44 225.47 65.84 239.48 54.87 238.83 54.47"/><polygon id="_Контур_57" data-name="&lt;Контур&gt;" class="cls-6" points="239.48 54.87 225.47 63.12 225.47 65.84 239.48 57.59 239.48 54.87"/></g><g id="_Группа_15" data-name="&lt;Группа&gt;"><path id="_Контур_58" data-name="&lt;Контур&gt;" class="cls-22" d="M236.72,57.64v.43a.56.56,0,0,1-.28.47l-1.84,1.07a.22.22,0,0,1-.33-.19V59.3l1.54-.9a.56.56,0,0,0,.28-.47v-.31l.3-.17A.22.22,0,0,1,236.72,57.64Z"/><path id="_Контур_59" data-name="&lt;Контур&gt;" class="cls-24" d="M236.09,57.62v.31a.56.56,0,0,1-.28.47l-1.54.9V59a.56.56,0,0,1,.28-.47Z"/></g><g id="_Группа_16" data-name="&lt;Группа&gt;"><path id="_Контур_60" data-name="&lt;Контур&gt;" class="cls-22" d="M232.39,60.2v.43a.56.56,0,0,1-.28.47l-1.84,1.07a.22.22,0,0,1-.33-.19v-.12l1.54-.9a.56.56,0,0,0,.28-.47v-.31l.3-.17A.22.22,0,0,1,232.39,60.2Z"/><path id="_Контур_61" data-name="&lt;Контур&gt;" class="cls-24" d="M231.76,60.18v.31a.56.56,0,0,1-.28.47l-1.54.9v-.31a.56.56,0,0,1,.28-.47Z"/></g></g><g id="_Группа_17" data-name="&lt;Группа&gt;"><path id="_Контур_62" data-name="&lt;Контур&gt;" class="cls-37" d="M238.9,18.81l-.81.52c-.22.14-.24.38-.47.25l-.36-.29c-.25-.14-.52-.67-.28-.82l.81-.51c.22-.14,1.1-.53,1.33-.39l.09,0C239.47,17.75,239.14,18.67,238.9,18.81Z"/><path id="_Контур_63" data-name="&lt;Контур&gt;" class="cls-38" d="M240,18.93l-1.29.82a.8.8,0,0,1-.82,0l-.31-.18c-.28-.16.09-1.31.35-1.47l.92-.08c.25-.15.63-.55.89-.4l.21.16A.9.9,0,0,1,240,18.93Z"/><path id="_Контур_64" data-name="&lt;Контур&gt;" class="cls-39" d="M239.72,18.21l-.81.52a.71.71,0,0,1-.73,0l-.1,0a.38.38,0,0,1,0-.65l.81-.51a.71.71,0,0,1,.73,0l.09,0A.38.38,0,0,1,239.72,18.21Z"/></g><g id="_Группа_18" data-name="&lt;Группа&gt;"><path id="_Контур_65" data-name="&lt;Контур&gt;" class="cls-37" d="M224.11,10.24l-.81.52c-.22.14-.24.38-.47.25l-.36-.29c-.25-.14-.52-.67-.28-.82l.81-.51c.22-.14,1.1-.53,1.33-.39l.09,0C224.68,9.18,224.34,10.09,224.11,10.24Z"/><path id="_Контур_66" data-name="&lt;Контур&gt;" class="cls-38" d="M225.25,10.35l-1.29.82a.8.8,0,0,1-.82,0l-.31-.18c-.28-.16.09-1.31.35-1.47l.92-.08c.25-.15.63-.55.89-.4l.21.16A.9.9,0,0,1,225.25,10.35Z"/><path id="_Контур_67" data-name="&lt;Контур&gt;" class="cls-39" d="M224.93,9.63l-.81.52a.71.71,0,0,1-.73,0l-.1,0a.38.38,0,0,1,0-.65l.81-.51a.71.71,0,0,1,.73,0l.09,0A.38.38,0,0,1,224.93,9.63Z"/></g><g id="_Группа_19" data-name="&lt;Группа&gt;"><path id="_Контур_68" data-name="&lt;Контур&gt;" class="cls-37" d="M231.82,14.28l-.81.52c-.22.14-.24.38-.47.25l-.36-.29c-.25-.14-.52-.67-.28-.82l.81-.51c.22-.14,1.1-.53,1.33-.39l.09,0C232.39,13.22,232.06,14.13,231.82,14.28Z"/><path id="_Контур_69" data-name="&lt;Контур&gt;" class="cls-38" d="M233,14.39l-1.29.82a.8.8,0,0,1-.82,0l-.31-.18c-.28-.16.09-1.31.35-1.47l.92-.08c.25-.15.63-.55.89-.4l.21.16A.9.9,0,0,1,233,14.39Z"/><path id="_Контур_70" data-name="&lt;Контур&gt;" class="cls-39" d="M232.64,13.67l-.81.52a.71.71,0,0,1-.73,0l-.1,0a.38.38,0,0,1,0-.65l.81-.51a.71.71,0,0,1,.73,0l.09,0A.38.38,0,0,1,232.64,13.67Z"/></g><g id="_Группа_20" data-name="&lt;Группа&gt;"><g id="_Группа_21" data-name="&lt;Группа&gt;"><path id="_Контур_71" data-name="&lt;Контур&gt;" class="cls-40" d="M232.1,28.7V58.28c0,.75.94,1.36,2.09,1.36s2.09-.61,2.09-1.36V28.63Z"/><ellipse id="_Контур_72" data-name="&lt;Контур&gt;" class="cls-4" cx="234.2" cy="28.7" rx="2.09" ry="1.36"/></g><g id="_Группа_22" data-name="&lt;Группа&gt;"><path id="_Контур_73" data-name="&lt;Контур&gt;" class="cls-5" d="M235.24,22.29v6.16a1.15,1.15,0,0,1-1.06.5,1.49,1.49,0,0,1-.49-.07,1.06,1.06,0,0,1-.47-.27V23.36a3.31,3.31,0,0,0-.11-1,.14.14,0,0,0,0-.06.43.43,0,0,0-.2-.23c-.21-.1-.52,0-.89-.18l-.06-.27-.25-1.09-.31-1.37-.09-.37h0l.7-.07a6,6,0,0,1,1.79.34C235,19.49,235.24,20.5,235.24,22.29Z"/><path id="_Контур_74" data-name="&lt;Контур&gt;" class="cls-6" d="M233.7,23.94v4.94a1.06,1.06,0,0,1-.47-.27V23.36a3.31,3.31,0,0,0-.11-1,.14.14,0,0,0,0-.06.43.43,0,0,0-.2-.23c-.21-.1-.52,0-.89-.18l-.06-.27-.25-1.09a3.72,3.72,0,0,1,.54.17C233.44,21.13,233.7,22.14,233.7,23.94Z"/><path id="_Контур_75" data-name="&lt;Контур&gt;" class="cls-7" d="M233.78,19a6,6,0,0,0-1.79-.34l-.7.07h0l.09.37.09.41h0a6,6,0,0,1,1.79.34c1.21.48,1.47,1.49,1.47,3.28v5.69a.87.87,0,0,0,.5-.39V22.29C235.24,20.5,235,19.49,233.78,19Z"/><path id="_Контур_76" data-name="&lt;Контур&gt;" class="cls-8" d="M230.62,19.62a3.19,3.19,0,0,0,1.54,2.43c.85.49,1.54.2,1.54-.65a1.62,1.62,0,0,0,0-.29A3.33,3.33,0,0,0,232.16,19l-.18-.09C231.21,18.53,230.62,18.83,230.62,19.62Z"/><path id="_Контур_77" data-name="&lt;Контур&gt;" class="cls-6" d="M233.37,21.22a.74.74,0,0,1-.17.52c-.21.24-.6.25-1,0a2.56,2.56,0,0,1-1.21-1.92c0-.63.47-.87,1.07-.59l.14.07.17.11a2.64,2.64,0,0,1,1,1.58A1,1,0,0,1,233.37,21.22Z"/><path id="_Контур_78" data-name="&lt;Контур&gt;" class="cls-9" d="M233.37,21.22a.74.74,0,0,1-.17.52,2.48,2.48,0,0,1-1-1.8.75.75,0,0,1,.17-.53,2.64,2.64,0,0,1,1,1.58A1,1,0,0,1,233.37,21.22Z"/></g></g><g id="_Группа_23" data-name="&lt;Группа&gt;"><polygon id="_Контур_79" data-name="&lt;Контур&gt;" class="cls-27" points="217.76 48.44 187.53 65.92 187.53 56.18 210.69 42.92 217.76 48.44"/><g id="_Группа_24" data-name="&lt;Группа&gt;"><g id="_Группа_25" data-name="&lt;Группа&gt;"><path id="_Контур_80" data-name="&lt;Контур&gt;" class="cls-41" d="M157.28,65.4a5,5,0,0,0,1.94,4.43c1.63,1.09,5.12,3,5.12,3,4.91-2.83,14.54-12.67,14.54-17.58,0-2.13-4.59-3.75-5.85-4.56-1.63-1-4.1-.89-6.88.71C161.25,54.22,157.28,60.49,157.28,65.4Z"/><path id="_Контур_81" data-name="&lt;Контур&gt;" class="cls-13" d="M162.08,68.2c0,4.91,4,6.59,8.88,3.76s8.88-9.11,8.88-14-4-6.59-8.88-3.76S162.08,63.29,162.08,68.2Z"/><path id="_Контур_82" data-name="&lt;Контур&gt;" class="cls-42" d="M163,68.6A5,5,0,0,0,164.9,73c1.63,1.09,5.12,3,5.12,3,4.91-2.83,14.54-12.67,14.54-17.58,0-2.13-4.59-3.75-5.85-4.56-1.63-1-4.1-.89-6.88.71C166.93,57.42,163,63.7,163,68.6Z"/><path id="_Контур_83" data-name="&lt;Контур&gt;" class="cls-13" d="M167.76,71.41c0,4.91,4,6.59,8.88,3.76s8.88-9.11,8.88-14-4-6.59-8.88-3.76S167.76,66.5,167.76,71.41Z"/><path id="_Контур_84" data-name="&lt;Контур&gt;" class="cls-43" d="M170.38,69.42c0,3.26,2.64,4.37,5.9,2.49s5.9-6,5.9-9.3-2.64-4.37-5.9-2.49S170.38,66.16,170.38,69.42Z"/><path id="_Контур_85" data-name="&lt;Контур&gt;" class="cls-15" d="M170.74,69.68c0,3.26,2.64,4.37,5.9,2.49s5.9-6,5.9-9.3-2.64-4.37-5.9-2.49S170.74,66.42,170.74,69.68Z"/><path id="_Контур_86" data-name="&lt;Контур&gt;" class="cls-44" d="M181.93,63.22c0,2.92-2.37,6.66-5.29,8.35s-5.29.68-5.29-2.24a5.55,5.55,0,0,1,.09-1,11.45,11.45,0,0,1,5.2-7.36c.21-.12.43-.23.63-.32C179.9,59.45,181.93,60.51,181.93,63.22Z"/><path id="_Контур_87" data-name="&lt;Контур&gt;" class="cls-17" d="M179.36,62.92v0a8.28,8.28,0,0,1-4,6.31,4.62,4.62,0,0,1-1.17.51,2,2,0,0,1-2.61-1,1.64,1.64,0,0,1-.13-.39,7.71,7.71,0,0,1,.29-1.2,11.88,11.88,0,0,1,4.16-5.66,8.7,8.7,0,0,1,.75-.5l.53-.27.1-.05C178.5,60.61,179.34,61.42,179.36,62.92Z"/><path id="_Контур_88" data-name="&lt;Контур&gt;" class="cls-45" d="M179,62.36c0,2.17-2.74,6.12-4.92,7.41l0,0-.09,0a.93.93,0,0,1-.28-.09l-.11,0a13.71,13.71,0,0,1-2-.89,1.64,1.64,0,0,1-.13-.39,7.71,7.71,0,0,1,.29-1.2,11.88,11.88,0,0,1,4.16-5.66,8.7,8.7,0,0,1,.75-.5l.53-.27a13.59,13.59,0,0,1,1.6,1.4h0Z"/><path id="_Контур_89" data-name="&lt;Контур&gt;" class="cls-8" d="M179.5,63.82a7.16,7.16,0,0,1-3.45,5.45c-1.9,1.1-3.45.44-3.45-1.46a3.62,3.62,0,0,1,.06-.65,7.47,7.47,0,0,1,3.39-4.8l.41-.21C178.18,61.36,179.5,62,179.5,63.82Z"/><path id="_Контур_90" data-name="&lt;Контур&gt;" class="cls-46" d="M177.86,65a3.49,3.49,0,0,1-1.68,2.65c-.93.53-1.68.22-1.68-.71a1.77,1.77,0,0,1,0-.32,3.64,3.64,0,0,1,1.65-2.34l.2-.1C177.22,63.76,177.86,64.1,177.86,65Z"/><path id="_Контур_91" data-name="&lt;Контур&gt;" class="cls-17" d="M176.42,65.18a1.4,1.4,0,0,1-.67,1.06c-.37.21-.67.09-.67-.28a.7.7,0,0,1,0-.13,1.46,1.46,0,0,1,.66-.94l.08,0C176.17,64.7,176.42,64.84,176.42,65.18Z"/></g><g id="_Группа_26" data-name="&lt;Группа&gt;"><path id="_Контур_92" data-name="&lt;Контур&gt;" class="cls-47" d="M136.87,77.18a5,5,0,0,0,1.94,4.43c1.63,1.09,5.12,3,5.12,3,4.91-2.83,14.54-12.67,14.54-17.58,0-2.13-4.59-3.75-5.85-4.56-1.63-1-4.1-.89-6.88.71C140.85,66,136.87,72.27,136.87,77.18Z"/><path id="_Контур_93" data-name="&lt;Контур&gt;" class="cls-13" d="M141.68,80c0,4.91,4,6.59,8.88,3.76s8.88-9.11,8.88-14-4-6.59-8.88-3.76S141.68,75.07,141.68,80Z"/><path id="_Контур_94" data-name="&lt;Контур&gt;" class="cls-48" d="M142.55,80.38a5,5,0,0,0,1.94,4.43c1.63,1.09,5.12,3,5.12,3,4.91-2.83,14.54-12.67,14.54-17.58,0-2.13-4.59-3.75-5.85-4.56-1.63-1-4.1-.89-6.88.71C146.53,69.2,142.55,75.48,142.55,80.38Z"/><path id="_Контур_95" data-name="&lt;Контур&gt;" class="cls-13" d="M147.35,83.18c0,4.91,4,6.59,8.88,3.76s8.88-9.11,8.88-14-4-6.59-8.88-3.76S147.35,78.28,147.35,83.18Z"/><path id="_Контур_96" data-name="&lt;Контур&gt;" class="cls-49" d="M150,81.19c0,3.26,2.64,4.37,5.9,2.49s5.9-6,5.9-9.3-2.64-4.37-5.9-2.49S150,77.94,150,81.19Z"/><path id="_Контур_97" data-name="&lt;Контур&gt;" class="cls-15" d="M150.34,81.46c0,3.26,2.64,4.37,5.9,2.49s5.9-6,5.9-9.3-2.64-4.37-5.9-2.49S150.34,78.2,150.34,81.46Z"/><path id="_Контур_98" data-name="&lt;Контур&gt;" class="cls-50" d="M161.53,75c0,2.92-2.37,6.66-5.29,8.35s-5.29.68-5.29-2.24a5.55,5.55,0,0,1,.09-1,11.45,11.45,0,0,1,5.2-7.36c.21-.12.43-.23.63-.32C159.49,71.23,161.53,72.29,161.53,75Z"/><path id="_Контур_99" data-name="&lt;Контур&gt;" class="cls-17" d="M159,74.7v0a8.28,8.28,0,0,1-4,6.31,4.63,4.63,0,0,1-1.17.51,2,2,0,0,1-2.61-1,1.64,1.64,0,0,1-.13-.39,7.72,7.72,0,0,1,.29-1.2,11.88,11.88,0,0,1,4.16-5.66,8.67,8.67,0,0,1,.75-.5l.53-.27.1-.05C158.1,72.39,158.94,73.2,159,74.7Z"/><path id="_Контур_100" data-name="&lt;Контур&gt;" class="cls-51" d="M158.59,74.14c0,2.17-2.74,6.12-4.92,7.41l0,0-.09,0a.93.93,0,0,1-.28-.09l-.11,0a13.72,13.72,0,0,1-2-.89,1.64,1.64,0,0,1-.13-.39,7.72,7.72,0,0,1,.29-1.2,11.88,11.88,0,0,1,4.16-5.66,8.67,8.67,0,0,1,.75-.5l.53-.27a13.62,13.62,0,0,1,1.6,1.4h0Z"/><path id="_Контур_101" data-name="&lt;Контур&gt;" class="cls-8" d="M159.1,75.6A7.16,7.16,0,0,1,155.65,81c-1.9,1.1-3.45.44-3.45-1.46a3.62,3.62,0,0,1,.06-.65,7.47,7.47,0,0,1,3.39-4.8l.41-.21C157.77,73.13,159.1,73.83,159.1,75.6Z"/><path id="_Контур_102" data-name="&lt;Контур&gt;" class="cls-52" d="M157.46,76.74a3.49,3.49,0,0,1-1.68,2.65c-.93.53-1.68.22-1.68-.71a1.77,1.77,0,0,1,0-.32A3.64,3.64,0,0,1,155.78,76l.2-.1C156.81,75.54,157.46,75.87,157.46,76.74Z"/><path id="_Контур_103" data-name="&lt;Контур&gt;" class="cls-17" d="M156,77a1.4,1.4,0,0,1-.67,1.06c-.37.21-.67.09-.67-.28a.71.71,0,0,1,0-.13,1.46,1.46,0,0,1,.66-.94l.08,0C155.76,76.48,156,76.61,156,77Z"/></g></g><g id="_Группа_27" data-name="&lt;Группа&gt;"><g id="_Группа_28" data-name="&lt;Группа&gt;"><path id="_Контур_104" data-name="&lt;Контур&gt;" class="cls-53" d="M179,55.18c-.21-2.07-.32.16-.32.16-2.38-1.56-7.81-5-7.84-5l-.46-1.45c.17-.05,4.22-1.31,7.21.65a5.81,5.81,0,0,1,.59.45c.64.55,7.49,4.24,7.88,5s-5.67-1.14-5.55,0Z"/></g><path id="_Контур_105" data-name="&lt;Контур&gt;" class="cls-54" d="M180.53,55l6.33,5.17a2.49,2.49,0,0,0-.23-3c-1.26-1.69-4-3.11-4.71-2.79Z"/><g id="_Группа_29" data-name="&lt;Группа&gt;"><path id="_Контур_106" data-name="&lt;Контур&gt;" class="cls-55" d="M186.86,60.2a5.6,5.6,0,0,0-2.24-4.38c-2.38-1.56-5.89-.49-5.93-.47l-.46-1.45c.17-.05,4.22-1.31,7.21.65a7,7,0,0,1,2.92,5.5Z"/></g><polygon id="_Контур_107" data-name="&lt;Контур&gt;" class="cls-56" points="178.24 53.9 170.4 48.88 170.85 50.33 178.7 55.34 178.24 53.9"/></g><polygon id="_Контур_108" data-name="&lt;Контур&gt;" class="cls-32" points="142.39 85.42 162.7 96.78 221.32 56.59 201.01 44.2 150.97 73.11 142.39 81.27 142.39 85.42"/><polygon id="_Контур_109" data-name="&lt;Контур&gt;" class="cls-57" points="150.97 73.11 171.28 85.43 162.7 93.66 142.39 81.27 150.97 73.11"/><polygon id="_Контур_110" data-name="&lt;Контур&gt;" class="cls-58" points="164.35 94.73 144.04 82.34 144.04 86.49 164.35 98.87 164.35 94.73"/><polygon id="_Контур_111" data-name="&lt;Контур&gt;" class="cls-33" points="162.7 97.8 221.32 63.37 221.32 56.58 171.28 85.43 162.7 93.66 162.7 97.8"/><g id="_Группа_30" data-name="&lt;Группа&gt;"><path id="_Контур_112" data-name="&lt;Контур&gt;" class="cls-54" d="M211.77,73.09l6.33,5.17a2.49,2.49,0,0,0-.23-3c-1.26-1.69-4-3.11-4.71-2.79Z"/><path id="_Контур_113" data-name="&lt;Контур&gt;" class="cls-59" d="M188.91,83.9a5,5,0,0,0,1.94,4.43c1.63,1.09,5.12,3,5.12,3,4.91-2.83,14.54-12.67,14.54-17.58,0-2.13-4.59-3.75-5.85-4.56-1.63-1-4.1-.89-6.88.71C192.88,72.72,188.91,79,188.91,83.9Z"/><path id="_Контур_114" data-name="&lt;Контур&gt;" class="cls-13" d="M193.71,86.7c0,4.91,4,6.59,8.88,3.76s8.88-9.11,8.88-14-4-6.59-8.88-3.76S193.71,81.79,193.71,86.7Z"/><path id="_Контур_115" data-name="&lt;Контур&gt;" class="cls-60" d="M194.58,87.1a5,5,0,0,0,1.94,4.43c1.63,1.09,5.12,3,5.12,3,4.91-2.83,14.54-12.67,14.54-17.58,0-2.13-4.59-3.75-5.85-4.56-1.63-1-4.1-.89-6.88.71C198.56,75.92,194.58,82.2,194.58,87.1Z"/><g id="_Группа_31" data-name="&lt;Группа&gt;"><g id="_Группа_32" data-name="&lt;Группа&gt;"><path id="_Контур_116" data-name="&lt;Контур&gt;" class="cls-61" d="M210.26,73.25c-.21-2.07-.32.16-.32.16-2.38-1.56-7.81-5-7.84-5l-.46-1.45c.17-.05,4.22-1.31,7.21.65a5.8,5.8,0,0,1,.59.45c.64.55,7.49,4.24,7.88,5s-5.67-1.14-5.55,0Z"/></g><g id="_Группа_33" data-name="&lt;Группа&gt;"><path id="_Контур_117" data-name="&lt;Контур&gt;" class="cls-25" d="M218.1,78.27a5.6,5.6,0,0,0-2.24-4.38c-2.38-1.56-5.89-.49-5.93-.47L209.48,72c.17-.05,4.22-1.31,7.21.65a7,7,0,0,1,2.92,5.5Z"/></g><polygon id="_Контур_118" data-name="&lt;Контур&gt;" class="cls-62" points="209.48 71.96 201.64 66.95 202.1 68.39 209.94 73.41 209.48 71.96"/></g><path id="_Контур_119" data-name="&lt;Контур&gt;" class="cls-13" d="M199.39,89.9c0,4.91,4,6.59,8.88,3.76s8.88-9.11,8.88-14-4-6.59-8.88-3.76S199.39,85,199.39,89.9Z"/><path id="_Контур_120" data-name="&lt;Контур&gt;" class="cls-63" d="M202,87.92c0,3.26,2.64,4.37,5.9,2.49s5.9-6,5.9-9.3-2.64-4.37-5.9-2.49S202,84.66,202,87.92Z"/><path id="_Контур_121" data-name="&lt;Контур&gt;" class="cls-15" d="M202.37,88.18c0,3.26,2.64,4.37,5.9,2.49s5.9-6,5.9-9.3-2.64-4.37-5.9-2.49S202.37,84.92,202.37,88.18Z"/><path id="_Контур_122" data-name="&lt;Контур&gt;" class="cls-64" d="M213.56,81.72c0,2.92-2.37,6.66-5.29,8.35s-5.29.68-5.29-2.24a5.56,5.56,0,0,1,.09-1,11.45,11.45,0,0,1,5.2-7.36c.21-.12.42-.23.63-.32C211.53,77.95,213.56,79,213.56,81.72Z"/><path id="_Контур_123" data-name="&lt;Контур&gt;" class="cls-17" d="M211,81.42v0a8.28,8.28,0,0,1-4,6.31,4.62,4.62,0,0,1-1.17.51,2,2,0,0,1-2.61-1,1.65,1.65,0,0,1-.13-.39,7.72,7.72,0,0,1,.29-1.2A11.88,11.88,0,0,1,207.52,80a8.66,8.66,0,0,1,.75-.5l.53-.27.1-.05C210.13,79.11,211,79.92,211,81.42Z"/><path id="_Контур_124" data-name="&lt;Контур&gt;" class="cls-65" d="M210.63,80.86c0,2.17-2.74,6.12-4.92,7.41l0,0-.09,0a.93.93,0,0,1-.28-.09l-.11,0a13.72,13.72,0,0,1-2-.89,1.65,1.65,0,0,1-.13-.39,7.72,7.72,0,0,1,.29-1.2A11.88,11.88,0,0,1,207.52,80a8.66,8.66,0,0,1,.75-.5l.53-.27a13.62,13.62,0,0,1,1.6,1.4h0Z"/><path id="_Контур_125" data-name="&lt;Контур&gt;" class="cls-8" d="M211.13,82.32a7.16,7.16,0,0,1-3.45,5.45c-1.9,1.1-3.45.44-3.45-1.46a3.63,3.63,0,0,1,.06-.65,7.47,7.47,0,0,1,3.39-4.8l.41-.21C209.81,79.85,211.13,80.55,211.13,82.32Z"/><path id="_Контур_126" data-name="&lt;Контур&gt;" class="cls-66" d="M209.49,83.46a3.49,3.49,0,0,1-1.68,2.65c-.93.53-1.68.22-1.68-.71a1.77,1.77,0,0,1,0-.32,3.64,3.64,0,0,1,1.65-2.34l.2-.1C208.85,82.26,209.49,82.59,209.49,83.46Z"/><path id="_Контур_127" data-name="&lt;Контур&gt;" class="cls-17" d="M208.05,83.68a1.4,1.4,0,0,1-.67,1.06c-.37.21-.67.09-.67-.28a.71.71,0,0,1,0-.13,1.46,1.46,0,0,1,.66-.94l.08,0C207.8,83.2,208.05,83.34,208.05,83.68Z"/></g><g id="_Группа_34" data-name="&lt;Группа&gt;"><polygon id="_Контур_128" data-name="&lt;Контур&gt;" class="cls-67" points="165.05 65.67 187.07 52.96 199.68 60.12 177.65 72.83 165.05 65.67"/><ellipse id="_Контур_129" data-name="&lt;Контур&gt;" class="cls-32" cx="182.72" cy="60.99" rx="7.51" ry="4.89"/><polygon id="_Контур_130" data-name="&lt;Контур&gt;" class="cls-57" points="176.97 72.49 198.99 59.78 200.32 62.4 175.64 76.64 176.97 72.49"/><polygon id="_Контур_131" data-name="&lt;Контур&gt;" class="cls-33" points="164.36 65.33 176.97 72.49 175.64 76.64 163.03 69.48 164.36 65.33"/><g id="_Группа_35" data-name="&lt;Группа&gt;"><path id="_Контур_132" data-name="&lt;Контур&gt;" class="cls-68" d="M178.67,60.23v2.15c0,1.45,1.81,2.63,4,2.63s4-1.18,4-2.63V60.1Z"/><path id="_Контур_133" data-name="&lt;Контур&gt;" class="cls-69" d="M175.21,58.19v1c0,2.7,3.36,4.89,7.51,4.89s7.51-2.19,7.51-4.89v-1.2Z"/><ellipse id="_Контур_134" data-name="&lt;Контур&gt;" class="cls-70" cx="182.72" cy="58.19" rx="7.51" ry="4.89"/></g></g><g id="_Группа_36" data-name="&lt;Группа&gt;"><path id="_Контур_135" data-name="&lt;Контур&gt;" class="cls-71" d="M168.5,95.68a5,5,0,0,0,1.94,4.43c1.63,1.09,5.12,3,5.12,3,4.91-2.83,14.54-12.67,14.54-17.58,0-2.13-4.59-3.75-5.85-4.56-1.63-1-4.1-.89-6.88.71C172.48,84.5,168.5,90.77,168.5,95.68Z"/><path id="_Контур_136" data-name="&lt;Контур&gt;" class="cls-13" d="M173.31,98.48c0,4.91,4,6.59,8.88,3.76s8.88-9.11,8.88-14-4-6.59-8.88-3.76S173.31,93.57,173.31,98.48Z"/><path id="_Контур_137" data-name="&lt;Контур&gt;" class="cls-72" d="M174.18,98.88a5,5,0,0,0,1.94,4.43c1.63,1.09,5.12,3,5.12,3,4.91-2.83,14.54-12.67,14.54-17.58,0-2.13-4.59-3.75-5.85-4.56-1.63-1-4.1-.89-6.88.71C178.15,87.7,174.18,94,174.18,98.88Z"/><path id="_Контур_138" data-name="&lt;Контур&gt;" class="cls-13" d="M179,101.68c0,4.91,4,6.59,8.88,3.76s8.88-9.11,8.88-14-4-6.59-8.88-3.76S179,96.78,179,101.68Z"/><path id="_Контур_139" data-name="&lt;Контур&gt;" class="cls-73" d="M181.61,99.69c0,3.26,2.64,4.37,5.9,2.49s5.9-6,5.9-9.3-2.64-4.37-5.9-2.49S181.61,96.44,181.61,99.69Z"/><path id="_Контур_140" data-name="&lt;Контур&gt;" class="cls-15" d="M182,100c0,3.26,2.64,4.37,5.9,2.49s5.9-6,5.9-9.3-2.64-4.37-5.9-2.49S182,96.7,182,100Z"/><path id="_Контур_141" data-name="&lt;Контур&gt;" class="cls-74" d="M193.16,93.5c0,2.92-2.37,6.66-5.29,8.35s-5.29.68-5.29-2.24a5.55,5.55,0,0,1,.09-1,11.45,11.45,0,0,1,5.2-7.36c.21-.12.43-.23.63-.32C191.12,89.73,193.16,90.79,193.16,93.5Z"/><path id="_Контур_142" data-name="&lt;Контур&gt;" class="cls-17" d="M190.59,93.2v0a8.28,8.28,0,0,1-4,6.31,4.62,4.62,0,0,1-1.17.51,2,2,0,0,1-2.61-1,1.64,1.64,0,0,1-.13-.39,7.72,7.72,0,0,1,.29-1.2,11.88,11.88,0,0,1,4.16-5.66,8.72,8.72,0,0,1,.75-.5l.53-.27.1-.05C189.73,90.89,190.57,91.7,190.59,93.2Z"/><path id="_Контур_143" data-name="&lt;Контур&gt;" class="cls-75" d="M190.22,92.64c0,2.17-2.74,6.12-4.92,7.41l0,0-.09,0a.93.93,0,0,1-.28-.09l-.11,0a13.72,13.72,0,0,1-2-.89,1.64,1.64,0,0,1-.13-.39,7.72,7.72,0,0,1,.29-1.2,11.88,11.88,0,0,1,4.16-5.66,8.72,8.72,0,0,1,.75-.5l.53-.27a13.61,13.61,0,0,1,1.6,1.4h0Z"/><path id="_Контур_144" data-name="&lt;Контур&gt;" class="cls-8" d="M190.73,94.1a7.16,7.16,0,0,1-3.45,5.45c-1.9,1.1-3.45.44-3.45-1.46a3.63,3.63,0,0,1,.06-.65,7.47,7.47,0,0,1,3.39-4.8l.41-.21C189.4,91.63,190.73,92.33,190.73,94.1Z"/><path id="_Контур_145" data-name="&lt;Контур&gt;" class="cls-76" d="M189.09,95.24a3.49,3.49,0,0,1-1.68,2.65c-.93.53-1.68.22-1.68-.71a1.76,1.76,0,0,1,0-.32,3.64,3.64,0,0,1,1.65-2.34l.2-.1C188.44,94,189.09,94.37,189.09,95.24Z"/><path id="_Контур_146" data-name="&lt;Контур&gt;" class="cls-17" d="M187.65,95.46a1.4,1.4,0,0,1-.67,1.06c-.37.21-.67.09-.67-.28a.71.71,0,0,1,0-.13,1.46,1.46,0,0,1,.66-.94l.08,0C187.39,95,187.65,95.11,187.65,95.46Z"/></g><g id="_Группа_37" data-name="&lt;Группа&gt;"><polygon id="_Контур_147" data-name="&lt;Контур&gt;" class="cls-77" points="165.79 97.33 167.63 96.38 134.87 76.83 133.03 77.77 165.79 97.33"/><polygon id="_Контур_148" data-name="&lt;Контур&gt;" class="cls-78" points="165.79 102.52 167.63 101.58 167.63 96.38 165.79 97.33 165.79 102.52"/><polygon id="_Контур_149" data-name="&lt;Контур&gt;" class="cls-79" points="133.03 77.77 165.79 97.33 165.79 102.52 133.03 82.97 133.03 77.77"/></g><g id="_Группа_38" data-name="&lt;Группа&gt;"><polygon id="_Контур_150" data-name="&lt;Контур&gt;" class="cls-80" points="216.62 32.98 214.96 43.17 214.96 52.07 213.36 52.96 211.8 60.2 219.45 55.64 218.28 32.02 216.62 32.98"/><polygon id="_Контур_151" data-name="&lt;Контур&gt;" class="cls-6" points="196.29 41.27 214.96 52.07 213.36 52.96 194.7 42.17 196.29 41.27"/><polygon id="_Контур_152" data-name="&lt;Контур&gt;" class="cls-79" points="196.29 41.27 214.96 52.07 214.96 43.17 196.29 32.38 196.29 41.27"/><polygon id="_Контур_153" data-name="&lt;Контур&gt;" class="cls-81" points="197.96 22.2 216.62 32.99 214.96 43.17 196.29 32.38 197.96 22.2"/><polygon id="_Контур_154" data-name="&lt;Контур&gt;" class="cls-79" points="193.03 48.99 211.88 60.14 213.36 52.96 194.7 42.17 193.03 48.99"/><polygon id="_Контур_155" data-name="&lt;Контур&gt;" class="cls-6" points="218.28 32.02 216.62 32.99 197.96 22.2 199.62 21.23 218.28 32.02"/></g><g id="_Группа_39" data-name="&lt;Группа&gt;"><g id="_Группа_40" data-name="&lt;Группа&gt;"><polygon id="_Контур_156" data-name="&lt;Контур&gt;" class="cls-82" points="161.37 96.43 162.47 95.84 159.51 94.11 158.4 94.7 161.37 96.43"/><polygon id="_Контур_157" data-name="&lt;Контур&gt;" class="cls-83" points="161.37 100.67 162.47 100.08 162.47 95.84 161.37 96.43 161.37 100.67"/><polygon id="_Контур_158" data-name="&lt;Контур&gt;" class="cls-84" points="158.4 94.7 161.37 96.43 161.37 100.67 158.4 98.95 158.4 94.7"/></g><g id="_Группа_41" data-name="&lt;Группа&gt;"><polygon id="_Контур_159" data-name="&lt;Контур&gt;" class="cls-85" points="162.58 97.12 163.69 96.53 162.45 95.81 161.34 96.41 162.58 97.12"/><polygon id="_Контур_160" data-name="&lt;Контур&gt;" class="cls-83" points="162.58 101.37 163.69 100.78 163.69 96.53 162.58 97.12 162.58 101.37"/><polygon id="_Контур_161" data-name="&lt;Контур&gt;" class="cls-86" points="161.34 96.41 162.58 97.12 162.58 101.37 161.34 100.65 161.34 96.41"/></g><g id="_Группа_42" data-name="&lt;Группа&gt;"><polygon id="_Контур_162" data-name="&lt;Контур&gt;" class="cls-87" points="163.75 97.81 164.87 97.22 163.63 96.5 162.51 97.09 163.75 97.81"/><polygon id="_Контур_163" data-name="&lt;Контур&gt;" class="cls-83" points="163.75 102.05 164.87 101.46 164.87 97.22 163.75 97.81 163.75 102.05"/><polygon id="_Контур_164" data-name="&lt;Контур&gt;" class="cls-88" points="162.51 97.09 163.75 97.81 163.75 102.05 162.51 101.34 162.51 97.09"/></g></g><g id="_Группа_43" data-name="&lt;Группа&gt;"><g id="_Группа_44" data-name="&lt;Группа&gt;"><polygon id="_Контур_165" data-name="&lt;Контур&gt;" class="cls-87" points="133.4 79.67 134.51 79.07 133.27 78.36 132.16 78.95 133.4 79.67"/><polygon id="_Контур_166" data-name="&lt;Контур&gt;" class="cls-83" points="133.4 83.91 134.51 83.32 134.51 79.07 133.4 79.67 133.4 83.91"/><polygon id="_Контур_167" data-name="&lt;Контур&gt;" class="cls-88" points="132.16 78.95 133.4 79.67 133.4 83.91 132.16 83.19 132.16 78.95"/></g><g id="_Группа_45" data-name="&lt;Группа&gt;"><polygon id="_Контур_168" data-name="&lt;Контур&gt;" class="cls-85" points="134.63 80.36 135.74 79.77 134.5 79.05 133.39 79.64 134.63 80.36"/><polygon id="_Контур_169" data-name="&lt;Контур&gt;" class="cls-83" points="134.63 84.6 135.74 84.01 135.74 79.77 134.63 80.36 134.63 84.6"/><polygon id="_Контур_170" data-name="&lt;Контур&gt;" class="cls-86" points="133.39 79.64 134.63 80.36 134.63 84.6 133.39 83.89 133.39 79.64"/></g><g id="_Группа_46" data-name="&lt;Группа&gt;"><polygon id="_Контур_171" data-name="&lt;Контур&gt;" class="cls-82" points="137.6 82.08 138.71 81.49 135.74 79.77 134.63 80.36 137.6 82.08"/><polygon id="_Контур_172" data-name="&lt;Контур&gt;" class="cls-89" points="137.6 86.33 138.71 85.74 138.71 81.49 137.6 82.08 137.6 86.33"/><polygon id="_Контур_173" data-name="&lt;Контур&gt;" class="cls-84" points="134.63 80.36 137.6 82.08 137.6 86.33 134.63 84.6 134.63 80.36"/></g></g><g id="_Группа_47" data-name="&lt;Группа&gt;"><path id="_Контур_174" data-name="&lt;Контур&gt;" class="cls-90" d="M149.21,93.55a2.13,2.13,0,0,1-1-1.64v-3c0-.59.44-.81,1-.5l7.27,4.25a2.13,2.13,0,0,1,1,1.64v3c0,.59-.44.82-1,.5Z"/><path id="_Контур_175" data-name="&lt;Контур&gt;" class="cls-91" d="M148.92,93.65a2.13,2.13,0,0,1-1-1.64V89c0-.59.44-.81,1-.5l7.27,4.25a2.13,2.13,0,0,1,1,1.64v3c0,.59-.44.81-1,.5Z"/><path id="_Контур_176" data-name="&lt;Контур&gt;" class="cls-92" d="M156.19,97.69l-7.27-4.25a1.73,1.73,0,0,1-.8-1.34v-3c0-.48.36-.66.8-.4l7.27,4.25a1.73,1.73,0,0,1,.8,1.34v3C157,97.77,156.63,98,156.19,97.69Z"/><g id="_Группа_48" data-name="&lt;Группа&gt;"><path id="_Контур_177" data-name="&lt;Контур&gt;" class="cls-93" d="M157,94.25a1.73,1.73,0,0,0-.79-1.31l-7.27-4.25c-.43-.25-.78-.08-.79.39Z"/><path id="_Контур_178" data-name="&lt;Контур&gt;" class="cls-93" d="M148.13,92.13a1.73,1.73,0,0,0,.79,1.31l7.27,4.25c.43.25.78.08.79-.39Z"/></g></g></g></g><g id="_Группа_49" data-name="&lt;Группа&gt;"><g id="_Группа_50" data-name="&lt;Группа&gt;"><polygon id="_Контур_179" data-name="&lt;Контур&gt;" class="cls-79" points="33.88 146.29 66.8 165.3 66.8 160.68 33.88 141.67 33.88 146.29"/><polygon id="_Контур_180" data-name="&lt;Контур&gt;" class="cls-78" points="66.8 165.3 67.61 164.84 67.61 160.21 66.8 160.68 66.8 165.3"/><polygon id="_Контур_181" data-name="&lt;Контур&gt;" class="cls-77" points="34.68 141.21 67.61 160.21 66.8 160.68 33.88 141.67 34.68 141.21"/><g id="_Группа_51" data-name="&lt;Группа&gt;"><g id="_Группа_52" data-name="&lt;Группа&gt;"><g id="_Группа_53" data-name="&lt;Группа&gt;"><path id="_Контур_182" data-name="&lt;Контур&gt;" class="cls-94" d="M44.2,146l-7.29-4.07c.87-9.37,9.11-16.36,9.46-16.66l.11-.08,27.92-16.1c.17-.05,4.24-1.32,7.25.65.81.53,6.8,3.18,7.29,4.07s-4.49.14-4.35,1.46l-1.52.16c-.22-2.09-.34-1.6-1.13-1.47-2.61.42-2,1.34-2.49,1.48L54.2,130.33C53.54,130.91,45,137.63,44.2,146Z"/></g></g><path id="_Контур_183" data-name="&lt;Контур&gt;" class="cls-95" d="M83.07,115.45l7.29,4.07s.8-2.25,0-2.93-2.94-3.5-5-3.35a4.15,4.15,0,0,0-2.63.8Z"/><g id="_Группа_54" data-name="&lt;Группа&gt;"><g id="_Группа_55" data-name="&lt;Группа&gt;"><path id="_Контур_184" data-name="&lt;Контур&gt;" class="cls-96" d="M45.72,146.15,44.2,146c.87-9.37,9.11-16.36,9.46-16.66l.11-.08,27.92-16.1c.17-.05,4.24-1.32,7.25.65a7.06,7.06,0,0,1,2.93,5.53l-1.52.16a5.63,5.63,0,0,0-2.25-4.41c-2.21-1.45-5.36-.64-5.88-.49L54.6,130.57C53.93,131.14,46.5,137.77,45.72,146.15Z"/></g></g></g><g id="_Группа_56" data-name="&lt;Группа&gt;"><polygon id="_Контур_185" data-name="&lt;Контур&gt;" class="cls-77" points="160.29 116.43 156.91 118.38 154.69 117.07 158.08 115.11 160.29 116.43"/><polygon id="_Контур_186" data-name="&lt;Контур&gt;" class="cls-97" points="118.03 135.21 72.18 161.67 77.16 147.91 111.21 128.96 118.03 135.21"/><g id="_Группа_57" data-name="&lt;Группа&gt;"><path id="_Контур_187" data-name="&lt;Контур&gt;" class="cls-98" d="M93.29,146.1a5.06,5.06,0,0,0,2,4.45c1.64,1.1,5.15,3,5.15,3,4.93-2.85,14.62-12.73,14.62-17.67,0-2.15-4.62-3.77-5.88-4.58-1.64-1.05-4.12-.89-6.91.71C97.29,134.87,93.29,141.17,93.29,146.1Z"/><path id="_Контур_188" data-name="&lt;Контур&gt;" class="cls-13" d="M98.12,148.92c0,4.93,4,6.62,8.93,3.77s8.93-9.15,8.93-14.08-4-6.62-8.93-3.77S98.12,144,98.12,148.92Z"/><path id="_Контур_189" data-name="&lt;Контур&gt;" class="cls-99" d="M100.75,146.92c0,3.27,2.65,4.39,5.93,2.5s5.93-6.07,5.93-9.35-2.65-4.39-5.93-2.5S100.75,143.65,100.75,146.92Z"/><path id="_Контур_190" data-name="&lt;Контур&gt;" class="cls-15" d="M101.12,147.18c0,3.27,2.65,4.39,5.93,2.5s5.93-6.07,5.93-9.35-2.65-4.39-5.93-2.5S101.12,143.91,101.12,147.18Z"/><path id="_Контур_191" data-name="&lt;Контур&gt;" class="cls-100" d="M112.36,140.69c0,2.94-2.38,6.69-5.32,8.39s-5.32.68-5.32-2.25a5.58,5.58,0,0,1,.09-1,11.51,11.51,0,0,1,5.23-7.39c.21-.12.43-.23.63-.33C110.32,136.9,112.36,138,112.36,140.69Z"/><path id="_Контур_192" data-name="&lt;Контур&gt;" class="cls-17" d="M109.78,140.39v0a8.32,8.32,0,0,1-4,6.34,4.64,4.64,0,0,1-1.18.51,2,2,0,0,1-2.62-1,1.65,1.65,0,0,1-.13-.4,7.75,7.75,0,0,1,.29-1.21,11.94,11.94,0,0,1,4.18-5.68,8.74,8.74,0,0,1,.75-.5l.53-.27.1-.05C108.91,138.07,109.76,138.89,109.78,140.39Z"/><path id="_Контур_193" data-name="&lt;Контур&gt;" class="cls-101" d="M109.41,139.83c0,2.18-2.76,6.15-4.94,7.44l0,0-.09,0a.93.93,0,0,1-.28-.09l-.11,0a13.79,13.79,0,0,1-2-.89,1.65,1.65,0,0,1-.13-.4,7.75,7.75,0,0,1,.29-1.21,11.94,11.94,0,0,1,4.18-5.68,8.74,8.74,0,0,1,.75-.5l.53-.27a13.68,13.68,0,0,1,1.61,1.4h0Z"/><path id="_Контур_194" data-name="&lt;Контур&gt;" class="cls-8" d="M109.92,141.29a7.19,7.19,0,0,1-3.47,5.47c-1.91,1.1-3.47.44-3.47-1.47a3.64,3.64,0,0,1,.06-.65,7.51,7.51,0,0,1,3.41-4.82l.41-.21C108.59,138.82,109.92,139.51,109.92,141.29Z"/><path id="_Контур_195" data-name="&lt;Контур&gt;" class="cls-102" d="M108.27,142.44a3.51,3.51,0,0,1-1.69,2.67c-.93.54-1.69.22-1.69-.71a1.78,1.78,0,0,1,0-.32,3.66,3.66,0,0,1,1.66-2.35l.2-.1C107.62,141.23,108.27,141.57,108.27,142.44Z"/><path id="_Контур_196" data-name="&lt;Контур&gt;" class="cls-17" d="M106.83,142.66a1.4,1.4,0,0,1-.68,1.07c-.37.21-.68.09-.68-.29a.71.71,0,0,1,0-.13,1.46,1.46,0,0,1,.67-.94l.08,0C106.57,142.18,106.83,142.32,106.83,142.66Z"/></g><g id="_Группа_58" data-name="&lt;Группа&gt;"><path id="_Контур_197" data-name="&lt;Контур&gt;" class="cls-103" d="M72.78,157.82a5.06,5.06,0,0,0,2,4.45c1.64,1.1,5.15,3,5.15,3,4.93-2.85,14.62-12.73,14.62-17.67,0-2.15-4.62-3.77-5.88-4.58-1.64-1.05-4.13-.89-6.91.71C76.78,146.59,72.78,152.89,72.78,157.82Z"/><path id="_Контур_198" data-name="&lt;Контур&gt;" class="cls-13" d="M77.61,160.64c0,4.93,4,6.62,8.93,3.77s8.93-9.15,8.93-14.08-4-6.62-8.93-3.77S77.61,155.7,77.61,160.64Z"/><path id="_Контур_199" data-name="&lt;Контур&gt;" class="cls-104" d="M80.25,158.64c0,3.27,2.65,4.39,5.93,2.5s5.93-6.07,5.93-9.35-2.65-4.39-5.93-2.5S80.25,155.36,80.25,158.64Z"/><path id="_Контур_200" data-name="&lt;Контур&gt;" class="cls-15" d="M80.62,158.9c0,3.27,2.65,4.39,5.93,2.5s5.93-6.07,5.93-9.35-2.65-4.39-5.93-2.5S80.62,155.63,80.62,158.9Z"/><path id="_Контур_201" data-name="&lt;Контур&gt;" class="cls-105" d="M91.86,152.41c0,2.94-2.38,6.69-5.32,8.39s-5.32.68-5.32-2.25a5.58,5.58,0,0,1,.09-1,11.51,11.51,0,0,1,5.23-7.39c.21-.12.43-.23.63-.33C89.81,148.62,91.86,149.69,91.86,152.41Z"/><path id="_Контур_202" data-name="&lt;Контур&gt;" class="cls-17" d="M89.27,152.11v0a8.32,8.32,0,0,1-4,6.34,4.64,4.64,0,0,1-1.18.51,2,2,0,0,1-2.62-1,1.65,1.65,0,0,1-.13-.4,7.75,7.75,0,0,1,.29-1.21,11.94,11.94,0,0,1,4.18-5.68,8.74,8.74,0,0,1,.75-.5l.53-.27.1-.05C88.41,149.79,89.25,150.6,89.27,152.11Z"/><path id="_Контур_203" data-name="&lt;Контур&gt;" class="cls-106" d="M88.91,151.55c0,2.18-2.76,6.15-4.94,7.44l0,0-.09,0a.94.94,0,0,1-.28-.09l-.11,0a13.79,13.79,0,0,1-2-.89,1.65,1.65,0,0,1-.13-.4,7.75,7.75,0,0,1,.29-1.21,11.94,11.94,0,0,1,4.18-5.68,8.74,8.74,0,0,1,.75-.5l.53-.27a13.68,13.68,0,0,1,1.61,1.4h0Z"/><path id="_Контур_204" data-name="&lt;Контур&gt;" class="cls-8" d="M89.42,153a7.19,7.19,0,0,1-3.47,5.47c-1.91,1.1-3.47.44-3.47-1.47a3.64,3.64,0,0,1,.06-.65,7.51,7.51,0,0,1,3.41-4.82l.41-.21C88.08,150.54,89.42,151.23,89.42,153Z"/><path id="_Контур_205" data-name="&lt;Контур&gt;" class="cls-107" d="M87.77,154.16a3.51,3.51,0,0,1-1.69,2.67c-.93.54-1.69.22-1.69-.71a1.78,1.78,0,0,1,0-.32,3.66,3.66,0,0,1,1.66-2.35l.2-.1C87.12,153,87.77,153.29,87.77,154.16Z"/><path id="_Контур_206" data-name="&lt;Контур&gt;" class="cls-17" d="M86.32,154.38a1.4,1.4,0,0,1-.68,1.07c-.37.21-.68.09-.68-.29a.72.72,0,0,1,0-.13,1.46,1.46,0,0,1,.67-.94l.08,0C86.06,153.9,86.32,154,86.32,154.38Z"/></g><g id="_Группа_59" data-name="&lt;Группа&gt;"><g id="_Группа_60" data-name="&lt;Группа&gt;"><path id="_Контур_207" data-name="&lt;Контур&gt;" class="cls-94" d="M72.86,162.81l-7.29-4.07c.87-9.37,9.11-16.36,9.46-16.66l.11-.08,27.92-16.1c.17-.05,4.24-1.32,7.25.65.81.53,6.8,3.18,7.29,4.07s-4.49.14-4.35,1.46l-1.52.16c-.22-2.09-.34-1.6-1.13-1.47-2.61.42-2,1.34-2.49,1.48L82.87,147.13C82.2,147.71,73.64,154.43,72.86,162.81Z"/></g></g><polygon id="_Контур_208" data-name="&lt;Контур&gt;" class="cls-97" points="159.04 101.28 72.22 151.47 72.22 147.31 159.04 97.12 159.04 101.28"/><polygon id="_Контур_209" data-name="&lt;Контур&gt;" class="cls-79" points="157.21 117.57 156 116.86 156 99.64 157.21 100.36 157.21 117.57"/><polygon id="_Контур_210" data-name="&lt;Контур&gt;" class="cls-77" points="157.09 104.29 121.71 125.92 121.71 123.63 156.15 103.67 157.09 104.29"/><polygon id="_Контур_211" data-name="&lt;Контур&gt;" class="cls-77" points="157.09 110.12 121.71 131.75 121.71 129.46 156.15 109.5 157.09 110.12"/><polygon id="_Контур_212" data-name="&lt;Контур&gt;" class="cls-97" points="72.22 147.31 44.2 131.09 44.2 135.25 72.22 151.47 72.22 147.31"/><path id="_Контур_213" data-name="&lt;Контур&gt;" class="cls-108" d="M111.73,132.25l7.29,4.07s.8-2.25,0-2.93-2.94-3.5-5-3.35a4.15,4.15,0,0,0-2.63.8Z"/><g id="_Группа_61" data-name="&lt;Группа&gt;"><g id="_Группа_62" data-name="&lt;Группа&gt;"><path id="_Контур_214" data-name="&lt;Контур&gt;" class="cls-96" d="M74.38,163l-1.52-.14c.87-9.37,9.11-16.36,9.46-16.66l.11-.08L110.35,130c.17-.05,4.24-1.32,7.25.65a7.06,7.06,0,0,1,2.93,5.53l-1.52.16a5.63,5.63,0,0,0-2.25-4.41c-2.21-1.45-5.36-.64-5.88-.49L83.26,147.36C82.59,147.94,75.16,154.57,74.38,163Z"/></g></g><polygon id="_Контур_215" data-name="&lt;Контур&gt;" class="cls-78" points="157.09 106.59 122.64 126.55 122.64 124.25 157.09 104.29 157.09 106.59"/><polygon id="_Контур_216" data-name="&lt;Контур&gt;" class="cls-78" points="157.09 112.42 122.64 132.37 122.64 130.07 157.09 110.12 157.09 112.42"/><polygon id="_Контур_217" data-name="&lt;Контур&gt;" class="cls-78" points="124.02 134.37 122.28 135.38 122.28 120.4 124.02 119.4 124.02 134.37"/><polygon id="_Контур_218" data-name="&lt;Контур&gt;" class="cls-78" points="158.95 116.57 157.21 117.57 157.21 100.36 158.95 99.36 158.95 116.57"/><polygon id="_Контур_219" data-name="&lt;Контур&gt;" class="cls-78" points="160.29 117.44 156.91 119.4 156.91 118.38 160.29 116.43 160.29 117.44"/><polygon id="_Контур_220" data-name="&lt;Контур&gt;" class="cls-79" points="122.28 135.21 121.07 134.66 121.07 119.69 122.28 120.4 122.28 135.21"/></g><g id="_Группа_63" data-name="&lt;Группа&gt;"><g id="_Группа_64" data-name="&lt;Группа&gt;"><polygon id="_Контур_221" data-name="&lt;Контур&gt;" class="cls-109" points="64.01 158.98 64.54 158.67 64.54 155.32 64.01 155.62 64.01 158.98"/><polygon id="_Контур_222" data-name="&lt;Контур&gt;" class="cls-110" points="64.01 158.98 63.42 158.64 63.42 155.28 64.01 155.62 64.01 158.98"/><polygon id="_Контур_223" data-name="&lt;Контур&gt;" class="cls-111" points="64.54 155.32 64.01 155.62 63.42 155.28 63.94 154.97 64.54 155.32"/></g><g id="_Группа_65" data-name="&lt;Группа&gt;"><polygon id="_Контур_224" data-name="&lt;Контур&gt;" class="cls-109" points="55.2 153.88 55.73 153.57 55.73 150.21 55.2 150.52 55.2 153.88"/><polygon id="_Контур_225" data-name="&lt;Контур&gt;" class="cls-110" points="55.2 153.88 54.61 153.53 54.61 150.18 55.2 150.52 55.2 153.88"/><polygon id="_Контур_226" data-name="&lt;Контур&gt;" class="cls-111" points="55.73 150.21 55.2 150.52 54.61 150.18 55.14 149.87 55.73 150.21"/></g><g id="_Группа_66" data-name="&lt;Группа&gt;"><polygon id="_Контур_227" data-name="&lt;Контур&gt;" class="cls-109" points="46.4 148.78 46.93 148.47 46.93 145.11 46.4 145.42 46.4 148.78"/><polygon id="_Контур_228" data-name="&lt;Контур&gt;" class="cls-110" points="46.4 148.78 45.81 148.43 45.81 145.07 46.4 145.42 46.4 148.78"/><polygon id="_Контур_229" data-name="&lt;Контур&gt;" class="cls-111" points="46.93 145.11 46.4 145.42 45.81 145.07 46.33 144.77 46.93 145.11"/></g><g id="_Группа_67" data-name="&lt;Группа&gt;"><polygon id="_Контур_230" data-name="&lt;Контур&gt;" class="cls-109" points="37.59 143.67 38.12 143.37 38.12 140.01 37.59 140.32 37.59 143.67"/><polygon id="_Контур_231" data-name="&lt;Контур&gt;" class="cls-110" points="37.59 143.67 37 143.33 37 139.97 37.59 140.32 37.59 143.67"/><polygon id="_Контур_232" data-name="&lt;Контур&gt;" class="cls-111" points="38.12 140.01 37.59 140.32 37 139.97 37.53 139.67 38.12 140.01"/></g></g><g id="_Группа_68" data-name="&lt;Группа&gt;"><polygon id="_Контур_233" data-name="&lt;Контур&gt;" class="cls-77" points="65.96 152.53 68.97 150.79 36.04 131.78 33.04 133.52 65.96 152.53"/><polygon id="_Контур_234" data-name="&lt;Контур&gt;" class="cls-78" points="65.96 157.75 68.97 156.01 68.97 150.79 65.96 152.53 65.96 157.75"/><polygon id="_Контур_235" data-name="&lt;Контур&gt;" class="cls-79" points="33.04 133.52 65.96 152.53 65.96 157.75 33.04 138.74 33.04 133.52"/></g><polygon id="_Контур_236" data-name="&lt;Контур&gt;" class="cls-112" points="187.5 3.99 220.43 23 66.89 111.64 33.96 92.63 187.5 3.99"/><polygon id="_Контур_237" data-name="&lt;Контур&gt;" class="cls-113" points="220.43 52.12 173.44 79.24 169.8 92.96 66.89 152.37 66.89 111.64 220.43 23 220.43 52.12"/><polygon id="_Контур_238" data-name="&lt;Контур&gt;" class="cls-114" points="69.73 113.28 217.58 27.93 217.58 50.48 171 77.36 167.35 91.08 69.73 147.44 69.73 113.28"/><polygon id="_Контур_239" data-name="&lt;Контур&gt;" class="cls-112" points="216.01 28.84 216.01 49.66 169.43 76.55 165.79 90.27 69.73 145.72 69.73 147.44 167.35 91.08 171 77.36 217.58 50.48 217.58 27.93 216.01 28.84"/><polygon id="_Контур_240" data-name="&lt;Контур&gt;" class="cls-10" points="66.89 152.37 33.96 133.36 33.96 92.63 66.89 111.64 66.89 152.37"/><g id="_Группа_69" data-name="&lt;Группа&gt;"><path id="_Составной_контур_" data-name="&lt;Составной контур&gt;" class="cls-115" d="M65.83,150.15,35,132.36V94.85l30.82,17.79Zm-30-18.25L65,148.77V113.1L35.81,96.22Z"/></g><g id="_Группа_70" data-name="&lt;Группа&gt;"><rect id="_Контур_241" data-name="&lt;Контур&gt;" class="cls-115" x="49.07" y="103.45" width="0.79" height="37.35"/></g><g id="_Группа_71" data-name="&lt;Группа&gt;"><g id="_Группа_72" data-name="&lt;Группа&gt;"><polygon id="_Контур_242" data-name="&lt;Контур&gt;" class="cls-116" points="44.74 133.09 47.7 134.86 47.7 137.08 44.74 135.31 44.74 133.09"/><polygon id="_Контур_243" data-name="&lt;Контур&gt;" class="cls-117" points="48.2 134.56 47.7 134.86 47.7 137.08 48.2 136.79 48.2 134.56"/><polygon id="_Контур_244" data-name="&lt;Контур&gt;" class="cls-118" points="45.25 132.79 44.74 133.09 47.7 134.86 48.2 134.56 45.25 132.79"/></g><g id="_Группа_73" data-name="&lt;Группа&gt;"><polygon id="_Контур_245" data-name="&lt;Контур&gt;" class="cls-116" points="50.85 136.54 53.8 138.32 53.8 140.54 50.85 138.77 50.85 136.54"/><polygon id="_Контур_246" data-name="&lt;Контур&gt;" class="cls-117" points="54.31 138.02 53.8 138.32 53.8 140.54 54.31 140.25 54.31 138.02"/><polygon id="_Контур_247" data-name="&lt;Контур&gt;" class="cls-118" points="51.35 136.25 50.85 136.54 53.8 138.32 54.31 138.02 51.35 136.25"/></g><g id="_Группа_74" data-name="&lt;Группа&gt;"><polygon id="_Контур_248" data-name="&lt;Контур&gt;" class="cls-116" points="44.74 104.15 47.7 105.92 47.7 108.14 44.74 106.37 44.74 104.15"/><polygon id="_Контур_249" data-name="&lt;Контур&gt;" class="cls-117" points="48.2 105.63 47.7 105.92 47.7 108.14 48.2 107.85 48.2 105.63"/><polygon id="_Контур_250" data-name="&lt;Контур&gt;" class="cls-118" points="45.25 103.86 44.74 104.15 47.7 105.92 48.2 105.63 45.25 103.86"/></g><g id="_Группа_75" data-name="&lt;Группа&gt;"><polygon id="_Контур_251" data-name="&lt;Контур&gt;" class="cls-116" points="50.85 107.61 53.8 109.38 53.8 111.6 50.85 109.83 50.85 107.61"/><polygon id="_Контур_252" data-name="&lt;Контур&gt;" class="cls-117" points="54.31 109.09 53.8 109.38 53.8 111.6 54.31 111.31 54.31 109.09"/><polygon id="_Контур_253" data-name="&lt;Контур&gt;" class="cls-118" points="51.35 107.31 50.85 107.61 53.8 109.38 54.31 109.09 51.35 107.31"/></g><g id="_Группа_76" data-name="&lt;Группа&gt;"><polygon id="_Контур_254" data-name="&lt;Контур&gt;" class="cls-116" points="62.4 115.06 65.35 116.83 65.35 117.94 62.4 116.17 62.4 115.06"/><polygon id="_Контур_255" data-name="&lt;Контур&gt;" class="cls-117" points="65.86 116.54 65.35 116.83 65.35 117.94 65.86 117.65 65.86 116.54"/><polygon id="_Контур_256" data-name="&lt;Контур&gt;" class="cls-118" points="62.9 114.77 62.4 115.06 65.35 116.83 65.86 116.54 62.9 114.77"/></g><g id="_Группа_77" data-name="&lt;Группа&gt;"><polygon id="_Контур_257" data-name="&lt;Контур&gt;" class="cls-116" points="62.4 143.98 65.35 145.75 65.35 146.86 62.4 145.09 62.4 143.98"/><polygon id="_Контур_258" data-name="&lt;Контур&gt;" class="cls-117" points="65.86 145.46 65.35 145.75 65.35 146.86 65.86 146.57 65.86 145.46"/><polygon id="_Контур_259" data-name="&lt;Контур&gt;" class="cls-118" points="62.9 143.68 62.4 143.98 65.35 145.75 65.86 145.46 62.9 143.68"/></g><g id="_Группа_78" data-name="&lt;Группа&gt;"><polygon id="_Контур_260" data-name="&lt;Контур&gt;" class="cls-116" points="34.99 99.19 37.95 100.96 37.95 102.07 34.99 100.3 34.99 99.19"/><polygon id="_Контур_261" data-name="&lt;Контур&gt;" class="cls-117" points="38.45 100.66 37.95 100.96 37.95 102.07 38.45 101.78 38.45 100.66"/><polygon id="_Контур_262" data-name="&lt;Контур&gt;" class="cls-118" points="35.5 98.89 34.99 99.19 37.95 100.96 38.45 100.66 35.5 98.89"/></g><g id="_Группа_79" data-name="&lt;Группа&gt;"><polygon id="_Контур_263" data-name="&lt;Контур&gt;" class="cls-116" points="34.99 128.1 37.95 129.88 37.95 130.99 34.99 129.21 34.99 128.1"/><polygon id="_Контур_264" data-name="&lt;Контур&gt;" class="cls-117" points="38.45 129.58 37.95 129.88 37.95 130.99 38.45 130.69 38.45 129.58"/><polygon id="_Контур_265" data-name="&lt;Контур&gt;" class="cls-118" points="35.5 127.81 34.99 128.1 37.95 129.88 38.45 129.58 35.5 127.81"/></g><g id="_Группа_80" data-name="&lt;Группа&gt;"><polygon id="_Контур_266" data-name="&lt;Контур&gt;" class="cls-119" points="51.87 105.11 52.58 105.54 52.58 143.02 51.87 142.59 51.87 105.11"/><polygon id="_Контур_267" data-name="&lt;Контур&gt;" class="cls-120" points="53.09 105.25 52.58 105.54 52.58 143.02 53.09 142.73 53.09 105.25"/><polygon id="_Контур_268" data-name="&lt;Контур&gt;" class="cls-121" points="52.38 104.82 51.87 105.11 52.58 105.54 53.09 105.25 52.38 104.82"/></g><g id="_Группа_81" data-name="&lt;Группа&gt;"><polygon id="_Контур_269" data-name="&lt;Контур&gt;" class="cls-119" points="45.87 101.66 46.57 102.09 46.57 139.71 45.87 139.29 45.87 101.66"/><polygon id="_Контур_270" data-name="&lt;Контур&gt;" class="cls-120" points="47.08 101.8 46.57 102.09 46.57 139.71 47.08 139.42 47.08 101.8"/><polygon id="_Контур_271" data-name="&lt;Контур&gt;" class="cls-121" points="46.37 101.37 45.87 101.66 46.57 102.09 47.08 101.8 46.37 101.37"/></g></g><polygon id="_Контур_272" data-name="&lt;Контур&gt;" class="cls-79" points="154.69 117.07 156.91 118.38 156.91 119.4 154.69 118.09 154.69 117.07"/><g id="_Группа_82" data-name="&lt;Группа&gt;"><g id="_Группа_83" data-name="&lt;Группа&gt;"><g id="_Группа_84" data-name="&lt;Группа&gt;"><polygon id="_Контур_273" data-name="&lt;Контур&gt;" class="cls-87" points="34.64 144.08 35.75 143.49 34.51 142.77 33.39 143.36 34.64 144.08"/><polygon id="_Контур_274" data-name="&lt;Контур&gt;" class="cls-83" points="34.64 148.35 35.75 147.75 35.75 143.49 34.64 144.08 34.64 148.35"/><polygon id="_Контур_275" data-name="&lt;Контур&gt;" class="cls-88" points="33.39 143.36 34.64 144.08 34.64 148.35 33.39 147.63 33.39 143.36"/></g><g id="_Группа_85" data-name="&lt;Группа&gt;"><polygon id="_Контур_276" data-name="&lt;Контур&gt;" class="cls-85" points="35.87 144.78 36.99 144.19 35.74 143.47 34.63 144.06 35.87 144.78"/><polygon id="_Контур_277" data-name="&lt;Контур&gt;" class="cls-83" points="35.87 149.05 36.99 148.45 36.99 144.19 35.87 144.78 35.87 149.05"/><polygon id="_Контур_278" data-name="&lt;Контур&gt;" class="cls-86" points="34.63 144.06 35.87 144.78 35.87 149.05 34.63 148.33 34.63 144.06"/></g><g id="_Группа_86" data-name="&lt;Группа&gt;"><polygon id="_Контур_279" data-name="&lt;Контур&gt;" class="cls-82" points="38.86 146.51 39.98 145.92 36.99 144.19 35.88 144.78 38.86 146.51"/><polygon id="_Контур_280" data-name="&lt;Контур&gt;" class="cls-89" points="38.86 150.78 39.98 150.19 39.98 145.92 38.86 146.51 38.86 150.78"/><polygon id="_Контур_281" data-name="&lt;Контур&gt;" class="cls-84" points="35.88 144.78 38.86 146.51 38.86 150.78 35.88 149.05 35.88 144.78"/></g></g><g id="_Группа_87" data-name="&lt;Группа&gt;"><g id="_Группа_88" data-name="&lt;Группа&gt;"><polygon id="_Контур_282" data-name="&lt;Контур&gt;" class="cls-82" points="62.74 160.29 63.86 159.7 60.88 157.97 59.76 158.56 62.74 160.29"/><polygon id="_Контур_283" data-name="&lt;Контур&gt;" class="cls-83" points="62.74 164.56 63.86 163.96 63.86 159.7 62.74 160.29 62.74 164.56"/><polygon id="_Контур_284" data-name="&lt;Контур&gt;" class="cls-84" points="59.76 158.56 62.74 160.29 62.74 164.56 59.76 162.83 59.76 158.56"/></g><g id="_Группа_89" data-name="&lt;Группа&gt;"><polygon id="_Контур_285" data-name="&lt;Контур&gt;" class="cls-85" points="63.96 160.99 65.08 160.4 63.84 159.68 62.72 160.27 63.96 160.99"/><polygon id="_Контур_286" data-name="&lt;Контур&gt;" class="cls-83" points="63.96 165.26 65.08 164.66 65.08 160.4 63.96 160.99 63.96 165.26"/><polygon id="_Контур_287" data-name="&lt;Контур&gt;" class="cls-86" points="62.72 160.27 63.96 160.99 63.96 165.26 62.72 164.54 62.72 160.27"/></g><g id="_Группа_90" data-name="&lt;Группа&gt;"><polygon id="_Контур_288" data-name="&lt;Контур&gt;" class="cls-87" points="65.14 161.68 66.26 161.08 65.02 160.36 63.9 160.96 65.14 161.68"/><polygon id="_Контур_289" data-name="&lt;Контур&gt;" class="cls-83" points="65.14 165.94 66.26 165.35 66.26 161.08 65.14 161.68 65.14 165.94"/><polygon id="_Контур_290" data-name="&lt;Контур&gt;" class="cls-88" points="63.9 160.96 65.14 161.68 65.14 165.94 63.9 165.22 63.9 160.96"/></g></g></g></g><g id="_Группа_91" data-name="&lt;Группа&gt;"><path id="_Контур_291" data-name="&lt;Контур&gt;" class="cls-112" d="M211.66,24.64l-.46-.26h0L183.11,7.8,133,36.59l28.55,16.78S211.65,24.6,211.66,24.64Z"/><polygon id="_Контур_292" data-name="&lt;Контур&gt;" class="cls-122" points="211.66 24.64 211.66 26.19 161.54 54.88 161.54 53.38 211.66 24.64"/><polygon id="_Контур_293" data-name="&lt;Контур&gt;" class="cls-123" points="161.54 53.38 161.54 54.88 132.99 37.9 132.99 36.59 161.54 53.38"/></g><g id="_Группа_92" data-name="&lt;Группа&gt;"><path id="_Контур_294" data-name="&lt;Контур&gt;" class="cls-124" d="M188.69,17.2l7.66,5.91h0L172.6,10.43,135.17,34.11l10.36,6.06S188.69,17.17,188.69,17.2Z"/><path id="_Контур_295" data-name="&lt;Контур&gt;" class="cls-112" d="M201.25,21.54l-.39-.22h0l-23.78-14-34,19.56,24.15,14.2S201.24,21.51,201.25,21.54Z"/><polygon id="_Контур_296" data-name="&lt;Контур&gt;" class="cls-122" points="201.25 21.54 209.96 24.79 164.31 50.98 167.25 41.06 201.25 21.54"/><polygon id="_Контур_297" data-name="&lt;Контур&gt;" class="cls-123" points="167.25 41.06 164.31 50.98 136.52 34.98 143.1 26.86 167.25 41.06"/><path id="_Контур_298" data-name="&lt;Контур&gt;" class="cls-125" d="M147.15,27.44l30-17.28,19.3,11.31s-19.53,11.18-30,17.24Z"/><g id="_Группа_93" data-name="&lt;Группа&gt;"><path id="_Контур_299" data-name="&lt;Контур&gt;" class="cls-112" d="M168.41,38.8l1.12-.53L148.1,25.72l-.25.25.16.1-.87.32C149.82,27.9,161.43,34.77,168.41,38.8Z"/><path id="_Контур_300" data-name="&lt;Контур&gt;" class="cls-112" d="M170.34,37.68l1.12-.53L150,24.6l-.25.25.16.1-.87.32C151.74,26.78,163.36,33.65,170.34,37.68Z"/><path id="_Контур_301" data-name="&lt;Контур&gt;" class="cls-112" d="M172.26,36.57l1.12-.53L152,23.48l-.25.25.16.1-.87.32C153.67,25.66,165.28,32.53,172.26,36.57Z"/><path id="_Контур_302" data-name="&lt;Контур&gt;" class="cls-112" d="M174.18,35.45l1.12-.53L153.88,22.36l-.25.25.16.1-.87.32C155.59,24.55,167.21,31.41,174.18,35.45Z"/><path id="_Контур_303" data-name="&lt;Контур&gt;" class="cls-112" d="M176.11,34.33l1.12-.53L155.8,21.25l-.25.25.16.1-.87.32C157.52,23.43,169.13,30.29,176.11,34.33Z"/><path id="_Контур_304" data-name="&lt;Контур&gt;" class="cls-112" d="M178,33.21l1.12-.53L157.73,20.13l-.25.25.16.1-.87.32C159.44,22.31,171.05,29.18,178,33.21Z"/><path id="_Контур_305" data-name="&lt;Контур&gt;" class="cls-112" d="M180,32.09l1.12-.53L159.65,19l-.25.25.16.1-.87.32C161.37,21.19,173,28.06,180,32.09Z"/><path id="_Контур_306" data-name="&lt;Контур&gt;" class="cls-112" d="M181.88,31l1.12-.53L161.58,17.89l-.25.25.16.1-.87.32C163.29,20.07,174.9,26.94,181.88,31Z"/><path id="_Контур_307" data-name="&lt;Контур&gt;" class="cls-112" d="M183.81,29.85l1.12-.53L163.5,16.77l-.25.25.16.1-.87.32C165.22,19,176.83,25.82,183.81,29.85Z"/><path id="_Контур_308" data-name="&lt;Контур&gt;" class="cls-112" d="M185.73,28.73l1.12-.53L165.42,15.65l-.25.25.16.1-.87.32C167.14,17.83,178.75,24.7,185.73,28.73Z"/><path id="_Контур_309" data-name="&lt;Контур&gt;" class="cls-112" d="M187.66,27.62l1.12-.53L167.35,14.53l-.25.25.16.1-.87.32C169.06,16.71,180.68,23.58,187.66,27.62Z"/><path id="_Контур_310" data-name="&lt;Контур&gt;" class="cls-112" d="M189.58,26.5,190.7,26,169.27,13.42l-.25.25.16.1-.87.32C171,15.6,182.6,22.46,189.58,26.5Z"/><path id="_Контур_311" data-name="&lt;Контур&gt;" class="cls-112" d="M191.5,25.38l1.12-.53L171.2,12.3l-.25.25.16.1-.87.32C172.91,14.48,184.53,21.35,191.5,25.38Z"/><path id="_Контур_312" data-name="&lt;Контур&gt;" class="cls-112" d="M193.43,24.26l1.12-.53L173.12,11.18l-.25.25.16.1-.87.32C174.84,13.36,186.45,20.23,193.43,24.26Z"/><path id="_Контур_313" data-name="&lt;Контур&gt;" class="cls-112" d="M195.35,23.14l1.12-.53L175,10.06l-.25.25.16.1-.87.32C176.76,12.24,188.38,19.11,195.35,23.14Z"/></g></g><polygon id="_Контур_314" data-name="&lt;Контур&gt;" class="cls-10" points="217.58 27.93 217.58 50.48 216.01 49.66 216.01 28.84 217.58 27.93"/><polygon id="_Контур_315" data-name="&lt;Контур&gt;" class="cls-126" points="171 77.36 169.43 76.55 165.79 90.27 167.35 91.08 171 77.36"/><polygon id="_Контур_316" data-name="&lt;Контур&gt;" class="cls-124" points="177.09 7.3 182.15 8.61 209.96 24.79 201.25 21.54 177.09 7.3"/></g></g></g></g></g></svg>