<svg xmlns="http://www.w3.org/2000/svg" viewBox="0 0 110 87.01"><defs><style>.cls-1{isolation:isolate;}.cls-2{fill:#d4d4d4;}.cls-20,.cls-3{fill:#b37a00;}.cls-10,.cls-11,.cls-12,.cls-15,.cls-16,.cls-17,.cls-18,.cls-3,.cls-4,.cls-5,.cls-6,.cls-7,.cls-8,.cls-9{fill-rule:evenodd;}.cls-4{fill:#28272c;}.cls-5{fill:#18171d;}.cls-7{fill:#2e2d30;}.cls-8{fill:#1b1b1f;}.cls-9{fill:#3b3b3b;}.cls-10{fill:#d49332;}.cls-11{fill:#a76022;}.cls-12{fill:#e0a100;}.cls-13{fill:#f1c33a;}.cls-14{fill:#838383;}.cls-15{fill:#010007;}.cls-16{fill:#cecece;}.cls-17{fill:#a19e9c;}.cls-18{fill:#7c7774;}.cls-19{fill:#ffe057;}.cls-21{fill:#976305;}.cls-22{fill:#1d1d1d;}.cls-23{fill:#2f2f2f;}.cls-24{fill:#393939;}.cls-25{fill:#0e0e0e;}.cls-26{fill:#28292c;}.cls-27{fill:#848484;}.cls-28{fill:#414245;}.cls-29{fill:#646566;}.cls-30{fill:#1e1e1e;}.cls-31{fill:#090909;}.cls-32{fill:#ffb700;}.cls-33{fill:#c97735;}.cls-34{fill:#bc5705;}.cls-35{fill:#bd4d00;}.cls-36{fill:#e07705;}.cls-37{fill:#e09c05;}.cls-38{fill:#eda94d;}.cls-39{fill:#a1886f;mix-blend-mode:multiply;}.cls-40{fill:#ffc534;}.cls-41{fill:#fae35a;}.cls-42{fill:#272727;}.cls-43{fill:#636363;}.cls-44{fill:#4a4a4a;}.cls-45{fill:#bfbfbf;}.cls-46{fill:#e2e2e2;}.cls-47{fill:#d6b163;}.cls-48{fill:#7d5129;}.cls-49{fill:#b78841;}.cls-50{fill:#91693a;}.cls-51{fill:#613f1f;}.cls-52{fill:#ad7e45;}.cls-53{fill:#996232;}</style></defs><title>i8</title><g class="cls-1"><g id="Слой_2" data-name="Слой 2"><g id="Layer_1" data-name="Layer 1"><g id="_Группа_" data-name="&lt;Группа&gt;"><polygon id="_Контур_" data-name="&lt;Контур&gt;" class="cls-2" points="110 72.19 73.97 51.34 49.89 65.79 86.07 85.68 110 72.19"/><polygon id="_Контур_2" data-name="&lt;Контур&gt;" class="cls-2" points="66.39 49.94 34.58 31.32 10.51 45.77 42.46 63.44 66.39 49.94"/><polygon id="_Контур_3" data-name="&lt;Контур&gt;" class="cls-2" points="77.98 54.86 61.37 37.12 29.67 56.04 52.21 69.75 77.98 54.86"/><path id="_Контур_4" data-name="&lt;Контур&gt;" class="cls-2" d="M.55,34.12,14,25.26a5.45,5.45,0,0,1,5.49.05L43.41,37.66l-23.73,11L.38,35.87A1.08,1.08,0,0,1,.55,34.12Z"/><g id="_Группа_2" data-name="&lt;Группа&gt;"><polygon id="_Контур_5" data-name="&lt;Контур&gt;" class="cls-2" points="98.64 85.32 95.61 87 66.14 70.03 69.17 68.34 98.64 85.32"/><polygon id="_Контур_6" data-name="&lt;Контур&gt;" class="cls-2" points="107.74 79.97 104.71 81.65 75.25 64.67 78.28 62.99 107.74 79.97"/></g><g id="_Группа_3" data-name="&lt;Группа&gt;"><g id="_Группа_4" data-name="&lt;Группа&gt;"><path id="_Контур_7" data-name="&lt;Контур&gt;" class="cls-3" d="M31.24,44.85v7.27l7.22,5.44S38.28,46.82,31.24,44.85Z"/><g id="_Группа_5" data-name="&lt;Группа&gt;"><g id="_Группа_6" data-name="&lt;Группа&gt;"><g id="_Группа_7" data-name="&lt;Группа&gt;"><g id="_Группа_8" data-name="&lt;Группа&gt;"><path id="_Составной_контур_" data-name="&lt;Составной контур&gt;" class="cls-4" d="M36.52,45.73c-2.42-1.32-4.52-.33-4.67,2.2a8.24,8.24,0,0,0,4.1,7c2.42,1.32,4.52.33,4.67-2.2A8.24,8.24,0,0,0,36.52,45.73Z"/><polygon id="_Контур_8" data-name="&lt;Контур&gt;" class="cls-4" points="29.21 47.93 33.19 45.47 31.94 47.92 29.21 47.93"/><polygon id="_Контур_9" data-name="&lt;Контур&gt;" class="cls-4" points="35.46 57.55 39.46 55.07 36.08 53.49 35.67 56.36 35.46 57.55"/><path id="_Составной_контур_2" data-name="&lt;Составной контур&gt;" class="cls-5" d="M32.54,48.2c-2.42-1.32-4.52-.33-4.67,2.2a8.24,8.24,0,0,0,4.1,7c2.42,1.32,4.52.33,4.67-2.2A8.24,8.24,0,0,0,32.54,48.2Z"/><path id="_Составной_контур_3" data-name="&lt;Составной контур&gt;" class="cls-6" d="M32.46,49.49c-1.74-.95-3.25-.23-3.37,1.59a5.94,5.94,0,0,0,3,5c1.74.95,3.25.23,3.37-1.59A5.94,5.94,0,0,0,32.46,49.49Z"/><path id="_Составной_контур_4" data-name="&lt;Составной контур&gt;" class="cls-7" d="M32.54,48.2c-2.42-1.32-4.52-.33-4.67,2.2a8.24,8.24,0,0,0,4.1,7c2.42,1.32,4.52.33,4.67-2.2A8.24,8.24,0,0,0,32.54,48.2Z"/><path id="_Составной_контур_5" data-name="&lt;Составной контур&gt;" class="cls-8" d="M32.51,48.65c-2.18-1.19-4.08-.29-4.22,2A7.44,7.44,0,0,0,32,56.94c2.18,1.19,4.08.29,4.22-2A7.44,7.44,0,0,0,32.51,48.65Z"/></g></g><path id="_Составной_контур_6" data-name="&lt;Составной контур&gt;" class="cls-9" d="M32.44,49.75c-1.6-.87-3-.22-3.1,1.46a5.47,5.47,0,0,0,2.72,4.64c1.6.87,3,.22,3.1-1.46A5.47,5.47,0,0,0,32.44,49.75Z"/><path id="_Составной_контур_7" data-name="&lt;Составной контур&gt;" class="cls-10" d="M32.55,50c-1.42-.77-2.65-.19-2.74,1.29a4.83,4.83,0,0,0,2.4,4.09c1.42.77,2.65.19,2.74-1.29A4.83,4.83,0,0,0,32.55,50Z"/><path id="_Составной_контур_8" data-name="&lt;Составной контур&gt;" class="cls-11" d="M32.55,50c-1.37-.75-2.56-.19-2.65,1.25a4.68,4.68,0,0,0,2.33,4c1.37.75,2.56.19,2.65-1.25A4.68,4.68,0,0,0,32.55,50Z"/><path id="_Составной_контур_9" data-name="&lt;Составной контур&gt;" class="cls-10" d="M32.54,50.21c-1.29-.7-2.41-.17-2.49,1.17a4.39,4.39,0,0,0,2.18,3.72c1.29.7,2.41.17,2.49-1.17A4.39,4.39,0,0,0,32.54,50.21Z"/><path id="_Составной_контур_10" data-name="&lt;Составной контур&gt;" class="cls-12" d="M34.56,53.44a4.11,4.11,0,0,0-2-3.09s0,0-.08,0c-1.18-.6-2.19-.1-2.26,1.13A4.16,4.16,0,0,0,32.23,55c1.22.65,2.27.16,2.35-1.1A1.74,1.74,0,0,0,34.56,53.44Z"/><path id="_Составной_контур_11" data-name="&lt;Составной контур&gt;" class="cls-11" d="M32.52,50.35s0,0-.08,0c-.45,0-.77.36-.81,1a2.85,2.85,0,0,0,1.44,2.43c.66.37,1.25.23,1.48-.27A4.11,4.11,0,0,0,32.52,50.35Z"/></g></g><g id="_Группа_9" data-name="&lt;Группа&gt;"><polygon id="_Контур_10" data-name="&lt;Контур&gt;" class="cls-13" points="59.49 19.91 51.99 15.58 51.99 27.53 59.49 31.87 59.49 19.91"/><polygon id="_Контур_11" data-name="&lt;Контур&gt;" class="cls-14" points="56.34 18.01 35.36 30.6 38.99 32.78 59.49 19.91 56.34 18.01"/><polygon id="_Контур_12" data-name="&lt;Контур&gt;" class="cls-13" points="76.19 41.52 77.48 42.27 77.48 41.52 76.19 41.52"/></g><g id="_Группа_10" data-name="&lt;Группа&gt;"><g id="_Группа_11" data-name="&lt;Группа&gt;"><g id="_Группа_12" data-name="&lt;Группа&gt;"><g id="_Группа_13" data-name="&lt;Группа&gt;"><path id="_Составной_контур_12" data-name="&lt;Составной контур&gt;" class="cls-4" d="M81.17,44.07c-2.42-1.32-4.52-.33-4.67,2.2a8.24,8.24,0,0,0,4.1,7c2.42,1.32,4.52.33,4.67-2.2A8.24,8.24,0,0,0,81.17,44.07Z"/><polygon id="_Контур_13" data-name="&lt;Контур&gt;" class="cls-15" points="73.87 46.27 77.85 43.8 76.59 46.26 73.87 46.27"/><polygon id="_Контур_14" data-name="&lt;Контур&gt;" class="cls-4" points="80.11 55.89 84.11 53.4 80.74 51.83 80.32 54.7 80.11 55.89"/><path id="_Составной_контур_13" data-name="&lt;Составной контур&gt;" class="cls-5" d="M77.19,46.54c-2.42-1.32-4.52-.33-4.67,2.2a8.24,8.24,0,0,0,4.1,7C79,57,81.13,56,81.29,53.52A8.24,8.24,0,0,0,77.19,46.54Z"/><path id="_Составной_контур_14" data-name="&lt;Составной контур&gt;" class="cls-6" d="M77.11,47.82c-1.74-.95-3.25-.23-3.37,1.59a5.94,5.94,0,0,0,3,5c1.74.95,3.25.23,3.37-1.59A5.94,5.94,0,0,0,77.11,47.82Z"/><path id="_Составной_контур_15" data-name="&lt;Составной контур&gt;" class="cls-7" d="M77.19,46.54c-2.42-1.32-4.52-.33-4.67,2.2a8.24,8.24,0,0,0,4.1,7C79,57,81.13,56,81.29,53.52A8.24,8.24,0,0,0,77.19,46.54Z"/><path id="_Составной_контур_16" data-name="&lt;Составной контур&gt;" class="cls-8" d="M77.16,47c-2.18-1.19-4.08-.29-4.22,2a7.44,7.44,0,0,0,3.7,6.31c2.18,1.19,4.08.29,4.22-2A7.44,7.44,0,0,0,77.16,47Z"/></g></g><path id="_Составной_контур_17" data-name="&lt;Составной контур&gt;" class="cls-9" d="M77.09,48.08c-1.6-.87-3-.22-3.1,1.46a5.47,5.47,0,0,0,2.72,4.64c1.6.87,3,.22,3.1-1.46A5.47,5.47,0,0,0,77.09,48.08Z"/><path id="_Составной_контур_18" data-name="&lt;Составной контур&gt;" class="cls-16" d="M77.21,48.3c-1.42-.77-2.65-.19-2.74,1.29a4.83,4.83,0,0,0,2.4,4.09c1.42.77,2.65.19,2.74-1.29A4.83,4.83,0,0,0,77.21,48.3Z"/><path id="_Составной_контур_19" data-name="&lt;Составной контур&gt;" class="cls-17" d="M77.2,48.38c-1.37-.75-2.56-.19-2.65,1.25a4.68,4.68,0,0,0,2.33,4c1.37.75,2.56.18,2.65-1.25A4.68,4.68,0,0,0,77.2,48.38Z"/><path id="_Составной_контур_20" data-name="&lt;Составной контур&gt;" class="cls-16" d="M77.19,48.54c-1.29-.7-2.41-.17-2.49,1.17a4.39,4.39,0,0,0,2.18,3.72c1.29.7,2.41.17,2.49-1.17A4.39,4.39,0,0,0,77.19,48.54Z"/><path id="_Составной_контур_21" data-name="&lt;Составной контур&gt;" class="cls-18" d="M79.21,51.77a4.11,4.11,0,0,0-2-3.09s0,0-.08,0c-1.18-.6-2.19-.1-2.26,1.13a4.16,4.16,0,0,0,2.06,3.51c1.22.65,2.27.16,2.35-1.1A1.75,1.75,0,0,0,79.21,51.77Z"/><path id="_Составной_контур_22" data-name="&lt;Составной контур&gt;" class="cls-16" d="M77.18,48.68s0,0-.08,0c-.45,0-.77.36-.81,1A2.85,2.85,0,0,0,77.73,52c.66.37,1.25.23,1.48-.27A4.11,4.11,0,0,0,77.18,48.68Z"/></g></g><path id="_Контур_15" data-name="&lt;Контур&gt;" class="cls-19" d="M80,40.54l-3.38,2.25L50.21,35.64V28.49a2.78,2.78,0,0,1,.7-1.85,2.84,2.84,0,0,1,3.44-.87Z"/><polygon id="_Контур_16" data-name="&lt;Контур&gt;" class="cls-20" points="61.57 58.64 58.74 60.27 61.57 63.45 61.57 58.64"/><path id="_Контур_17" data-name="&lt;Контур&gt;" class="cls-3" d="M46.95,65.34l9.24-4.67-2.31-5.08s-3.27-2.22-5.35-1.16C46.28,55.58,45.28,60.19,46.95,65.34Z"/><polygon id="_Контур_18" data-name="&lt;Контур&gt;" class="cls-21" points="76.8 46.71 61.57 55.59 61.57 63.45 76.8 54.56 76.8 46.71"/><polygon id="_Контур_19" data-name="&lt;Контур&gt;" class="cls-22" points="35.36 30.6 31.45 40.38 56.5 54.86 56.5 42.89 35.36 30.6"/><g id="_Группа_14" data-name="&lt;Группа&gt;"><path id="_Составной_контур_23" data-name="&lt;Составной контур&gt;" class="cls-23" d="M72.92,6.43,62.73.54a4.06,4.06,0,0,0-4.35.2.05.05,0,0,0,0,0l-.16.1A4,4,0,0,0,56.68,4V30.87L76,42.23C76.26,20.47,72.92,6.43,72.92,6.43ZM76,37.4,61,28.56V3.64a.76.76,0,0,1,.76-.76.67.67,0,0,1,.36.12L71.6,8.49C72.82,10.51,77.39,19.42,76,37.4Z"/><path id="_Контур_20" data-name="&lt;Контур&gt;" class="cls-24" d="M57.4,3.26A4,4,0,0,1,58.2.87,4,4,0,0,0,56.68,4V30.87L76,42.23c0-.39,0-.76.08-1.15L57.4,30.1Z"/><path id="_Контур_21" data-name="&lt;Контур&gt;" class="cls-24" d="M61.69,2.89a.75.75,0,0,0-.72.75V28.56L76,37.4c0-.4,0-.77.07-1.16L61.69,27.79Z"/><polygon id="_Контур_22" data-name="&lt;Контур&gt;" class="cls-25" points="77.09 39.59 56.93 51.34 38.99 41.16 59.15 29.41 77.09 39.59"/><polygon id="_Контур_23" data-name="&lt;Контур&gt;" class="cls-22" points="59.15 17.43 38.99 29.18 38.99 41.16 59.15 29.41 59.15 17.43"/><polygon id="_Контур_24" data-name="&lt;Контур&gt;" class="cls-14" points="40.13 30.32 59.15 19.23 59.15 17.43 38.99 29.18 38.99 41.16 40.13 40.49 40.13 30.32"/><g id="_Группа_15" data-name="&lt;Группа&gt;"><path id="_Контур_25" data-name="&lt;Контур&gt;" class="cls-26" d="M65.87,36.55v1a1.14,1.14,0,0,1-.56,1l-6.81,3.9a2.76,2.76,0,0,1-2.72,0l-8.65-5V24.72a3,3,0,0,1,1.49-2.57l7-4.06c.61-.37,2.27.63,2.27,1.35L57,31.82,61,34.16l3.61,2.09Z"/><path id="_Контур_26" data-name="&lt;Контур&gt;" class="cls-26" d="M65.87,36.55v1a1.14,1.14,0,0,1-.56,1l-6.81,3.9a2.76,2.76,0,0,1-2.72,0l-8.65-5v-1l.93.53,16.57-.73Z"/><path id="_Контур_27" data-name="&lt;Контур&gt;" class="cls-27" d="M51.63,28.42l6.11-7.53.1-1.46c0-.71-1.66-1.71-2.27-1.35l-7,4.06a3,3,0,0,0-1.48,2.57l1.32.73Z"/><path id="_Контур_28" data-name="&lt;Контур&gt;" class="cls-28" d="M56.5,18.9l-7,4.06a3,3,0,0,0-1.48,2.57V37l9.83-5.67V19.69A.92.92,0,0,0,56.5,18.9Z"/><path id="_Контур_29" data-name="&lt;Контур&gt;" class="cls-29" d="M48.06,37l7.71,4.45a2.74,2.74,0,0,0,2.72,0l6.81-3.9a1.12,1.12,0,0,0,0-2L57.89,31.3Z"/></g><path id="_Контур_30" data-name="&lt;Контур&gt;" class="cls-30" d="M62.73,2.05l-6,3.51L45,12.34H41l17.19-10,.16-.1a.05.05,0,0,1,0,0c1.07-.74,3-2.22,4.35-1.71Z"/><path id="_Составной_контур_24" data-name="&lt;Составной контур&gt;" class="cls-23" d="M74.64,14.13c-.14-.81-.26-1.55-.39-2.23a37,37,0,0,0-1.32-5.47L55.24,16.71s3.58,13.82,3.9,41.94l4.48-2.71,2.71-1.64,5.59-3.38,2.71-1.64,2-1.19C76.74,31.32,75.66,20.51,74.64,14.13Zm0,24.48a11.46,11.46,0,0,1-2.71,2.24,21.71,21.71,0,0,1-2,1.07,14.05,14.05,0,0,1-3.63,1.23,6.18,6.18,0,0,1-2.71,0c-.66-.17-1.07-.52-1.15-1C60.28,30,59.68,23,59,18.93a2.44,2.44,0,0,1,.91-2.7l1.33-.78,9.17-5.33A1.46,1.46,0,0,1,71,9.9,1.56,1.56,0,0,1,72.88,11q.1.74.2,1.59c.37,2.91.86,7,1.55,13.69.3,2.84.64,6.15,1,10.06A3.43,3.43,0,0,1,74.64,38.61Z"/><g id="_Группа_16" data-name="&lt;Группа&gt;"><path id="_Контур_31" data-name="&lt;Контур&gt;" class="cls-24" d="M71.74,10.34c.62,4.11,1.19,11.59,2.78,25.33.09.74-.69,3.17-5.7,5.58a10.79,10.79,0,0,1-6.23,1.28c.57,1,3.62,1.18,7.37-.62,5-2.41,5.75-4.84,5.7-5.58A242.19,242.19,0,0,0,72.89,11a1.52,1.52,0,0,0-1.4-1.1A1,1,0,0,1,71.74,10.34Z"/><g id="_Группа_17" data-name="&lt;Группа&gt;"><path id="_Контур_32" data-name="&lt;Контур&gt;" class="cls-24" d="M60.88,1.62l8.36,4.79,1.83-1.06L62.73.54a4.06,4.06,0,0,0-4.35.2.05.05,0,0,0,0,0l-.16.1L41,10.83h4L56.68,4.05Z"/><polygon id="_Контур_33" data-name="&lt;Контур&gt;" class="cls-24" points="71.07 5.35 55.23 14.59 46.91 9.76 45.05 10.83 53.41 15.65 55.24 16.71 72.93 6.42 71.07 5.35"/></g><path id="_Контур_34" data-name="&lt;Контур&gt;" class="cls-14" d="M59.72,53.34a18.25,18.25,0,0,1-.41,3.87L58,58c.23-1.85.43-3.61.58-5.31,2.49-27.56-5.26-37-5.26-37l.1,0,1.83,1.05,0,0s0,.07.08.13a2.66,2.66,0,0,1,.26.4C57,19.58,57.89,34.67,59.72,53.34Z"/></g><path id="_Составной_контур_25" data-name="&lt;Составной контур&gt;" class="cls-31" d="M55.6,17.25a2.66,2.66,0,0,0-.26-.4c0-.07-.07-.1-.08-.13l0,0-1.83-1.05-8.36-4.81A4,4,0,0,0,39,14.34V41.16L58.57,52.66l1.15.68.35.2C60.39,39.15,57.17,19.73,55.6,17.25Zm2.7,30.43-15-8.82V13.92a.76.76,0,0,1,.74-.76.72.72,0,0,1,.36.12l9.53,5.49C55.14,20.8,56.55,29,58.31,47.68Z"/><g id="_Группа_18" data-name="&lt;Группа&gt;"><path id="_Контур_35" data-name="&lt;Контур&gt;" class="cls-24" d="M44.4,13.28a.71.71,0,0,0-.36-.1.75.75,0,0,0-.75.75V38.86l15,8.83c0-.59.07-1.14.1-1.71L44.91,38V13.57Z"/></g></g><g id="_Группа_19" data-name="&lt;Группа&gt;"><g id="_Группа_20" data-name="&lt;Группа&gt;"><g id="_Группа_21" data-name="&lt;Группа&gt;"><g id="_Группа_22" data-name="&lt;Группа&gt;"><path id="_Составной_контур_26" data-name="&lt;Составной контур&gt;" class="cls-4" d="M56.77,58.1c-2.42-1.32-4.52-.33-4.67,2.2a8.24,8.24,0,0,0,4.1,7c2.42,1.32,4.52.33,4.67-2.2A8.24,8.24,0,0,0,56.77,58.1Z"/><polygon id="_Контур_36" data-name="&lt;Контур&gt;" class="cls-4" points="49.46 60.29 53.44 57.83 52.19 60.28 49.46 60.29"/><polygon id="_Контур_37" data-name="&lt;Контур&gt;" class="cls-4" points="55.7 69.92 59.71 67.43 56.33 65.86 55.92 68.72 55.7 69.92"/><path id="_Составной_контур_27" data-name="&lt;Составной контур&gt;" class="cls-5" d="M52.78,60.56c-2.42-1.32-4.52-.33-4.67,2.2a8.24,8.24,0,0,0,4.1,7c2.42,1.32,4.52.33,4.67-2.2A8.24,8.24,0,0,0,52.78,60.56Z"/><path id="_Составной_контур_28" data-name="&lt;Составной контур&gt;" class="cls-6" d="M52.7,61.85c-1.74-.95-3.25-.23-3.37,1.59a5.94,5.94,0,0,0,3,5c1.74.95,3.25.23,3.37-1.59A5.94,5.94,0,0,0,52.7,61.85Z"/><path id="_Составной_контур_29" data-name="&lt;Составной контур&gt;" class="cls-7" d="M52.78,60.56c-2.42-1.32-4.52-.33-4.67,2.2a8.24,8.24,0,0,0,4.1,7c2.42,1.32,4.52.33,4.67-2.2A8.24,8.24,0,0,0,52.78,60.56Z"/><path id="_Составной_контур_30" data-name="&lt;Составной контур&gt;" class="cls-8" d="M52.76,61c-2.18-1.19-4.08-.29-4.22,2a7.44,7.44,0,0,0,3.7,6.31c2.18,1.19,4.08.29,4.22-2A7.44,7.44,0,0,0,52.76,61Z"/></g></g><path id="_Составной_контур_31" data-name="&lt;Составной контур&gt;" class="cls-9" d="M52.69,62.11c-1.6-.87-3-.22-3.1,1.46a5.47,5.47,0,0,0,2.72,4.64c1.6.87,3,.22,3.1-1.46A5.47,5.47,0,0,0,52.69,62.11Z"/><path id="_Составной_контур_32" data-name="&lt;Составной контур&gt;" class="cls-10" d="M52.8,62.32c-1.42-.77-2.65-.19-2.74,1.29a4.83,4.83,0,0,0,2.4,4.09c1.42.77,2.65.19,2.74-1.29A4.83,4.83,0,0,0,52.8,62.32Z"/><path id="_Составной_контур_33" data-name="&lt;Составной контур&gt;" class="cls-11" d="M52.79,62.41c-1.37-.75-2.56-.19-2.65,1.25a4.68,4.68,0,0,0,2.33,4c1.37.75,2.56.19,2.65-1.25A4.68,4.68,0,0,0,52.79,62.41Z"/><path id="_Составной_контур_34" data-name="&lt;Составной контур&gt;" class="cls-10" d="M52.78,62.57c-1.29-.7-2.41-.17-2.49,1.17a4.39,4.39,0,0,0,2.18,3.72c1.29.7,2.41.17,2.49-1.17A4.39,4.39,0,0,0,52.78,62.57Z"/><path id="_Составной_контур_35" data-name="&lt;Составной контур&gt;" class="cls-12" d="M54.81,65.8a4.11,4.11,0,0,0-2-3.09s0,0-.08,0c-1.18-.6-2.15-.09-2.26,1.13a4,4,0,0,0,2.06,3.51c1.2.69,2.27.16,2.35-1.1A1.75,1.75,0,0,0,54.81,65.8Z"/><path id="_Составной_контур_36" data-name="&lt;Составной контур&gt;" class="cls-11" d="M52.77,62.71s0,0-.08,0c-.45,0-.77.36-.81,1a2.85,2.85,0,0,0,1.44,2.43c.66.37,1.25.23,1.48-.27A4.11,4.11,0,0,0,52.77,62.71Z"/></g></g><path id="_Контур_38" data-name="&lt;Контур&gt;" class="cls-21" d="M56.93,54.26l-.4,4.09-8-3.91c-.32.32-1.11,5-1.11,5l-.47,5.87-5.16-3-3.07-1.78-1.28-.74V54.16l-6-8.64-.79-.41.77-5.59Z"/><polygon id="_Контур_39" data-name="&lt;Контур&gt;" class="cls-32" points="56.97 61.27 74.79 50.63 80.15 40.72 56.93 54.26 56.97 61.27"/><g id="_Группа_23" data-name="&lt;Группа&gt;"><polygon id="_Контур_40" data-name="&lt;Контур&gt;" class="cls-31" points="33.42 41.63 34.12 42.03 35.98 47.62 35.29 47.23 33.42 41.63"/><polygon id="_Контур_41" data-name="&lt;Контур&gt;" class="cls-31" points="34.88 42.44 35.57 42.83 37.44 48.43 36.74 48.04 34.88 42.44"/><polygon id="_Контур_42" data-name="&lt;Контур&gt;" class="cls-31" points="36.34 43.25 37.03 43.64 38.89 49.24 38.2 48.84 36.34 43.25"/><polygon id="_Контур_43" data-name="&lt;Контур&gt;" class="cls-31" points="37.79 44.06 38.48 44.45 40.35 50.05 39.65 49.65 37.79 44.06"/></g><polygon id="_Контур_44" data-name="&lt;Контур&gt;" class="cls-14" points="74.06 11.99 74.95 12.51 72.25 14.13 71.35 13.61 74.06 11.99"/><polygon id="_Контур_45" data-name="&lt;Контур&gt;" class="cls-20" points="42.31 24.3 39.91 21.42 39.91 17.8 42.31 20.69 42.31 24.3"/><polygon id="_Контур_46" data-name="&lt;Контур&gt;" class="cls-20" points="42.31 31.43 39.91 28.54 39.91 24.93 42.31 27.81 42.31 31.43"/><polygon id="_Контур_47" data-name="&lt;Контур&gt;" class="cls-20" points="42.31 38.55 39.91 35.66 39.91 32.05 42.31 34.93 42.31 38.55"/><g id="_Группа_24" data-name="&lt;Группа&gt;"><g id="_Группа_25" data-name="&lt;Группа&gt;"><polygon id="_Контур_48" data-name="&lt;Контур&gt;" class="cls-24" points="52.69 13.23 53.25 13.56 67.1 5.29 66.57 4.95 52.69 13.23"/><polygon id="_Контур_49" data-name="&lt;Контур&gt;" class="cls-30" points="53.25 13.56 53.91 13.83 67.1 5.93 67.1 5.29 53.25 13.56"/></g><g id="_Группа_26" data-name="&lt;Группа&gt;"><polygon id="_Контур_50" data-name="&lt;Контур&gt;" class="cls-24" points="49.07 11.12 49.63 11.45 63.48 3.18 62.95 2.83 49.07 11.12"/><polygon id="_Контур_51" data-name="&lt;Контур&gt;" class="cls-30" points="49.63 11.45 50.29 11.71 63.48 3.82 63.48 3.18 49.63 11.45"/></g></g><g id="_Группа_27" data-name="&lt;Группа&gt;"><path id="_Контур_52" data-name="&lt;Контур&gt;" class="cls-22" d="M53,14.57h0v-.8h.51l.16-.11a3.5,3.5,0,0,1,3.17,0l.18.13h.47v.8h0a1.15,1.15,0,0,1-.67.91,3.5,3.5,0,0,1-3.17,0A1.08,1.08,0,0,1,53,14.57Z"/><path id="_Контур_53" data-name="&lt;Контур&gt;" class="cls-33" d="M53,13.77h0l.38-3.89h3.73l.38,3.84s0,0,0,0h0a1.15,1.15,0,0,1-.67.91,3.5,3.5,0,0,1-3.17,0A1.08,1.08,0,0,1,53,13.77Z"/><path id="_Контур_54" data-name="&lt;Контур&gt;" class="cls-34" d="M56.58,13a2.94,2.94,0,0,0-2.66,0c-.74.43-.75,1.12,0,1.54a2.94,2.94,0,0,0,2.66,0C57.3,14.11,57.31,13.42,56.58,13Z"/><path id="_Контур_55" data-name="&lt;Контур&gt;" class="cls-35" d="M54.28,11c.47-.82,1.24-.81,1.73,0a3.3,3.3,0,0,1,0,3c-.47.82-1.24.81-1.73,0A3.3,3.3,0,0,1,54.28,11Z"/><path id="_Контур_56" data-name="&lt;Контур&gt;" class="cls-36" d="M56.58,14.44a3.08,3.08,0,0,1-1.21.37l-.07-.06a2.25,2.25,0,0,1-.21-.3,4.36,4.36,0,0,1,0-4,1.85,1.85,0,0,1,.53-.6h1.2l.08.07,0,0,.34,3.5s0,0,0,0h0A1.15,1.15,0,0,1,56.58,14.44Z"/><path id="_Контур_57" data-name="&lt;Контур&gt;" class="cls-37" d="M55.41,11.38c.34-.6.91-.59,1.26,0a2.4,2.4,0,0,1,0,2.18c-.34.6-.91.59-1.26,0A2.4,2.4,0,0,1,55.41,11.38Z"/><path id="_Контур_58" data-name="&lt;Контур&gt;" class="cls-38" d="M56.57,9.12a2.91,2.91,0,0,0-2.63,0c-.73.42-.74,1.11,0,1.52a2.91,2.91,0,0,0,2.63,0C57.28,10.21,57.29,9.53,56.57,9.12Z"/></g><g id="_Группа_28" data-name="&lt;Группа&gt;"><path id="_Контур_59" data-name="&lt;Контур&gt;" class="cls-39" d="M66.34,43.14V59.69l-2.71,1.62V43.13A6.18,6.18,0,0,0,66.34,43.14Z"/><path id="_Контур_60" data-name="&lt;Контур&gt;" class="cls-39" d="M74.64,11.66V26.28c-.7-6.74-1.18-10.78-1.55-13.69l1.16-.7Z"/><path id="_Контур_61" data-name="&lt;Контур&gt;" class="cls-39" d="M74.64,38.61V54.81l-2.71,1.62V40.85A11.46,11.46,0,0,0,74.64,38.61Z"/><polygon id="_Контур_62" data-name="&lt;Контур&gt;" class="cls-40" points="68.31 16.55 65.6 18.17 65.6 61.32 68.31 59.69 68.31 16.55"/><polygon id="_Контур_63" data-name="&lt;Контур&gt;" class="cls-40" points="76.61 11.67 73.9 13.29 73.9 56.44 76.61 54.81 76.61 11.67"/><polygon id="_Контур_64" data-name="&lt;Контур&gt;" class="cls-20" points="73.01 12.77 73.9 13.29 73.9 56.44 73.01 55.91 73.01 12.77"/><polygon id="_Контур_65" data-name="&lt;Контур&gt;" class="cls-20" points="64.71 17.64 65.6 18.17 65.6 61.32 64.71 60.79 64.71 17.64"/><g id="_Группа_29" data-name="&lt;Группа&gt;"><polygon id="_Контур_66" data-name="&lt;Контур&gt;" class="cls-41" points="64.29 17.45 65.74 18.37 76.78 11.77 75.33 10.85 64.29 17.45"/><polygon id="_Контур_67" data-name="&lt;Контур&gt;" class="cls-40" points="65.74 18.37 65.74 21.28 76.78 14.68 76.78 11.77 65.74 18.37"/><polygon id="_Контур_68" data-name="&lt;Контур&gt;" class="cls-20" points="64.29 17.45 64.29 20.35 65.74 21.28 65.74 18.37 64.29 17.45"/></g><g id="_Группа_30" data-name="&lt;Группа&gt;"><polygon id="_Контур_69" data-name="&lt;Контур&gt;" class="cls-42" points="68.66 53.95 65.69 55.73 65.69 67.92 68.66 66.14 68.66 53.95"/><polygon id="_Контур_70" data-name="&lt;Контур&gt;" class="cls-42" points="77.77 48.6 74.79 50.38 74.79 62.56 77.77 60.78 77.77 48.6"/><polygon id="_Контур_71" data-name="&lt;Контур&gt;" class="cls-25" points="73.81 49.8 74.79 50.38 74.79 62.56 73.81 61.99 73.81 49.8"/><polygon id="_Контур_72" data-name="&lt;Контур&gt;" class="cls-25" points="64.71 55.16 65.69 55.73 65.69 67.92 64.71 67.34 64.71 55.16"/><polygon id="_Контур_73" data-name="&lt;Контур&gt;" class="cls-14" points="67.68 53.38 68.66 53.95 65.69 55.73 64.71 55.16 67.68 53.38"/><polygon id="_Контур_74" data-name="&lt;Контур&gt;" class="cls-14" points="76.78 48.02 77.77 48.6 74.79 50.38 73.81 49.8 76.78 48.02"/><g id="_Группа_31" data-name="&lt;Группа&gt;"><polygon id="_Контур_75" data-name="&lt;Контур&gt;" class="cls-43" points="98.12 81.98 95.09 83.66 65.63 66.68 68.66 65 98.12 81.98"/><polygon id="_Контур_76" data-name="&lt;Контур&gt;" class="cls-44" points="95.1 84.8 95.09 83.66 65.63 66.68 65.64 67.82 95.1 84.8"/><polygon id="_Контур_77" data-name="&lt;Контур&gt;" class="cls-45" points="98.13 83.12 98.12 81.98 95.09 83.66 95.1 84.8 98.13 83.12"/><polygon id="_Контур_78" data-name="&lt;Контур&gt;" class="cls-45" points="107.24 77.76 107.23 76.62 104.2 78.31 104.21 79.44 107.24 77.76"/></g><polygon id="_Контур_79" data-name="&lt;Контур&gt;" class="cls-43" points="107.23 76.62 104.2 78.31 74.74 61.33 77.77 59.65 107.23 76.62"/><polygon id="_Контур_80" data-name="&lt;Контур&gt;" class="cls-44" points="104.21 79.44 104.2 78.31 74.74 61.33 74.75 62.47 104.21 79.44"/></g><g id="_Группа_32" data-name="&lt;Группа&gt;"><polygon id="_Контур_81" data-name="&lt;Контур&gt;" class="cls-41" points="63.01 59.52 64.06 60.1 80.13 50.5 79.08 49.92 63.01 59.52"/><polygon id="_Контур_82" data-name="&lt;Контур&gt;" class="cls-40" points="64.06 60.1 64.06 64.33 80.13 54.73 80.13 50.5 64.06 60.1"/><polygon id="_Контур_83" data-name="&lt;Контур&gt;" class="cls-20" points="63.01 59.52 63.01 63.75 64.06 64.33 64.06 60.1 63.01 59.52"/></g><g id="_Группа_33" data-name="&lt;Группа&gt;"><polygon id="_Контур_84" data-name="&lt;Контур&gt;" class="cls-41" points="68.31 53.7 68.31 54.61 73.91 51.27 73.11 50.83 68.31 53.7"/><polygon id="_Контур_85" data-name="&lt;Контур&gt;" class="cls-40" points="68.31 54.61 68.31 56 73.91 52.65 73.91 51.27 68.31 54.61"/></g><g id="_Группа_34" data-name="&lt;Группа&gt;"><polygon id="_Контур_86" data-name="&lt;Контур&gt;" class="cls-41" points="68.31 46.49 68.31 47.4 73.91 44.06 73.11 43.62 68.31 46.49"/><polygon id="_Контур_87" data-name="&lt;Контур&gt;" class="cls-40" points="68.31 47.4 68.31 48.79 73.91 45.44 73.91 44.06 68.31 47.4"/></g><g id="_Группа_35" data-name="&lt;Группа&gt;"><polygon id="_Контур_88" data-name="&lt;Контур&gt;" class="cls-41" points="68.31 39.28 68.31 40.2 73.91 36.85 73.11 36.41 68.31 39.28"/><polygon id="_Контур_89" data-name="&lt;Контур&gt;" class="cls-40" points="68.31 40.2 68.31 41.58 73.91 38.23 73.91 36.85 68.31 40.2"/></g><g id="_Группа_36" data-name="&lt;Группа&gt;"><polygon id="_Контур_90" data-name="&lt;Контур&gt;" class="cls-41" points="68.31 32.08 68.31 32.99 73.91 29.64 73.11 29.2 68.31 32.08"/><polygon id="_Контур_91" data-name="&lt;Контур&gt;" class="cls-40" points="68.31 32.99 68.31 34.37 73.91 31.02 73.91 29.64 68.31 32.99"/></g><g id="_Группа_37" data-name="&lt;Группа&gt;"><polygon id="_Контур_92" data-name="&lt;Контур&gt;" class="cls-41" points="68.31 24.87 68.31 25.78 73.91 22.43 73.11 22 68.31 24.87"/><polygon id="_Контур_93" data-name="&lt;Контур&gt;" class="cls-40" points="68.31 25.78 68.31 27.16 73.91 23.82 73.91 22.43 68.31 25.78"/></g><polygon id="_Контур_94" data-name="&lt;Контур&gt;" class="cls-23" points="72.87 14.16 74.35 16.17 75.95 15.25 74.47 13.24 72.87 14.16"/><polygon id="_Контур_95" data-name="&lt;Контур&gt;" class="cls-23" points="69.72 15.98 71.2 17.99 72.8 17.07 71.32 15.06 69.72 15.98"/><polygon id="_Контур_96" data-name="&lt;Контур&gt;" class="cls-23" points="66.57 17.8 68.04 19.81 69.64 18.89 68.17 16.88 66.57 17.8"/></g><g id="_Группа_38" data-name="&lt;Группа&gt;"><path id="_Контур_97" data-name="&lt;Контур&gt;" class="cls-39" d="M49.79,52.88l-3.95,2.89,2,1.36L50.14,57l1.32,2.1c.95-.51,3.15.52,3.52,1a23.2,23.2,0,0,0,2.7,2.83l2.58-3-8.38-6.06Z"/><polygon id="_Контур_98" data-name="&lt;Контур&gt;" class="cls-20" points="57.68 62.93 56.62 62.32 55.9 58.35 57.68 59.39 57.68 62.93"/><polygon id="_Контур_99" data-name="&lt;Контур&gt;" class="cls-20" points="49.34 55.05 57.49 59.9 57.68 60.01 61.63 57.75 61.43 57.63 61.39 57.61 49.34 54.44 49.34 55.05"/><polygon id="_Контур_100" data-name="&lt;Контур&gt;" class="cls-20" points="45.85 55.77 49.34 55.05 53.28 52.78 45.85 55.15 45.85 55.77"/><polygon id="_Контур_101" data-name="&lt;Контур&gt;" class="cls-40" points="61.63 57.12 57.68 59.39 57.68 62.93 61.63 60.66 61.63 57.12"/><polygon id="_Контур_102" data-name="&lt;Контур&gt;" class="cls-19" points="49.34 54.44 57.49 59.28 57.68 59.39 61.63 57.13 61.43 57.01 61.39 56.99 53.28 52.16 49.34 54.44"/><polygon id="_Контур_103" data-name="&lt;Контур&gt;" class="cls-19" points="45.85 55.15 49.34 54.44 53.28 52.16 49.8 52.88 45.85 55.15"/></g><g id="_Группа_39" data-name="&lt;Группа&gt;"><path id="_Контур_104" data-name="&lt;Контур&gt;" class="cls-20" d="M61,58.71v1.14a.6.6,0,0,1-.3.52l-2,1.17a.25.25,0,0,1-.37-.21V61.2l1.71-1a.6.6,0,0,0,.3-.52v-1l.33-.19A.25.25,0,0,1,61,58.71Z"/><path id="_Контур_105" data-name="&lt;Контур&gt;" class="cls-46" d="M60.31,58.69v1a.6.6,0,0,1-.3.52l-1.71,1v-1a.61.61,0,0,1,.3-.52Z"/></g><polygon id="_Контур_106" data-name="&lt;Контур&gt;" class="cls-19" points="59.13 52.96 61.63 57.12 31.38 39.52 33.58 38.22 59.13 52.96"/><g id="_Группа_40" data-name="&lt;Группа&gt;"><polygon id="_Контур_107" data-name="&lt;Контур&gt;" class="cls-20" points="82.89 48.41 76.61 46.88 76.61 43.41 82.89 44.87 82.89 48.41"/><polygon id="_Контур_108" data-name="&lt;Контур&gt;" class="cls-20" points="76.61 43.41 82.7 45.38 82.89 45.49 86.84 43.22 86.64 43.11 86.61 43.09 76.61 42.79 76.61 43.41"/><polygon id="_Контур_109" data-name="&lt;Контур&gt;" class="cls-40" points="86.84 42.6 82.89 44.87 82.89 48.41 86.84 46.14 86.84 42.6"/><polygon id="_Контур_110" data-name="&lt;Контур&gt;" class="cls-19" points="76.61 42.79 82.7 44.76 82.89 44.87 86.84 42.6 86.64 42.49 86.61 42.47 78.78 37.82 76.61 39.01 76.61 42.79"/></g><g id="_Группа_41" data-name="&lt;Группа&gt;"><path id="_Контур_111" data-name="&lt;Контур&gt;" class="cls-20" d="M86.47,44v1.14a.6.6,0,0,1-.3.52l-2,1.17a.25.25,0,0,1-.37-.21v-.14l1.7-1a.6.6,0,0,0,.3-.52V44l.33-.19A.25.25,0,0,1,86.47,44Z"/><path id="_Контур_112" data-name="&lt;Контур&gt;" class="cls-46" d="M85.77,44v1a.6.6,0,0,1-.3.52l-1.7,1v-1a.61.61,0,0,1,.3-.52Z"/></g></g><g id="_Группа_42" data-name="&lt;Группа&gt;"><g id="_Группа_43" data-name="&lt;Группа&gt;"><g id="_Группа_44" data-name="&lt;Группа&gt;"><polygon id="_Контур_113" data-name="&lt;Контур&gt;" class="cls-47" points="108.39 68.7 106.09 70.18 83.35 57.1 85.65 55.63 108.39 68.7"/><polygon id="_Контур_114" data-name="&lt;Контур&gt;" class="cls-48" points="106.09 70.18 106.09 74.66 83.35 61.58 83.35 57.1 106.09 70.18"/><polygon id="_Контур_115" data-name="&lt;Контур&gt;" class="cls-49" points="96.47 65.55 96.47 68.14 104.53 72.78 104.53 70.21 96.47 65.55"/><polygon id="_Контур_116" data-name="&lt;Контур&gt;" class="cls-49" points="85.1 59.04 85.1 61.62 93.18 66.26 93.18 63.68 85.1 59.04"/><polygon id="_Контур_117" data-name="&lt;Контур&gt;" class="cls-50" points="108.39 68.7 108.39 73.33 106.09 74.66 106.09 70.18 108.39 68.7"/><polygon id="_Контур_118" data-name="&lt;Контур&gt;" class="cls-51" points="87.19 60.28 85.1 61.62 85.1 59.04 87.19 60.28"/><polygon id="_Контур_119" data-name="&lt;Контур&gt;" class="cls-51" points="98.56 66.8 96.47 68.14 96.47 65.55 98.56 66.8"/></g><g id="_Группа_45" data-name="&lt;Группа&gt;"><polygon id="_Контур_120" data-name="&lt;Контур&gt;" class="cls-47" points="98.24 74.53 95.94 76.01 73.2 62.94 75.51 61.46 98.24 74.53"/><polygon id="_Контур_121" data-name="&lt;Контур&gt;" class="cls-48" points="95.94 76.01 95.94 80.49 73.2 67.41 73.2 62.94 95.94 76.01"/><polygon id="_Контур_122" data-name="&lt;Контур&gt;" class="cls-49" points="86.32 71.38 86.32 73.97 94.39 78.61 94.39 76.04 86.32 71.38"/><polygon id="_Контур_123" data-name="&lt;Контур&gt;" class="cls-49" points="74.95 64.87 74.95 67.45 83.03 72.09 83.03 69.51 74.95 64.87"/><polygon id="_Контур_124" data-name="&lt;Контур&gt;" class="cls-50" points="98.24 74.53 98.24 79.17 95.94 80.49 95.94 76.01 98.24 74.53"/><polygon id="_Контур_125" data-name="&lt;Контур&gt;" class="cls-51" points="77.04 66.12 74.95 67.45 74.95 64.87 77.04 66.12"/><polygon id="_Контур_126" data-name="&lt;Контур&gt;" class="cls-51" points="88.41 72.63 86.32 73.97 86.32 71.38 88.41 72.63"/></g><g id="_Группа_46" data-name="&lt;Группа&gt;"><polygon id="_Контур_127" data-name="&lt;Контур&gt;" class="cls-47" points="88.09 80.36 85.79 81.84 63.05 68.77 65.36 67.29 88.09 80.36"/><polygon id="_Контур_128" data-name="&lt;Контур&gt;" class="cls-48" points="85.79 81.84 85.79 86.32 63.05 73.24 63.05 68.77 85.79 81.84"/><polygon id="_Контур_129" data-name="&lt;Контур&gt;" class="cls-49" points="76.17 77.21 76.17 79.8 84.24 84.44 84.24 81.87 76.17 77.21"/><polygon id="_Контур_130" data-name="&lt;Контур&gt;" class="cls-49" points="64.8 70.7 64.8 73.28 72.88 77.93 72.88 75.34 64.8 70.7"/><polygon id="_Контур_131" data-name="&lt;Контур&gt;" class="cls-50" points="88.09 80.36 88.09 85 85.79 86.32 85.79 81.84 88.09 80.36"/><polygon id="_Контур_132" data-name="&lt;Контур&gt;" class="cls-51" points="66.89 71.95 64.8 73.28 64.8 70.7 66.89 71.95"/><polygon id="_Контур_133" data-name="&lt;Контур&gt;" class="cls-51" points="78.26 78.46 76.17 79.8 76.17 77.21 78.26 78.46"/></g></g><g id="_Группа_47" data-name="&lt;Группа&gt;"><g id="_Группа_48" data-name="&lt;Группа&gt;"><polygon id="_Контур_134" data-name="&lt;Контур&gt;" class="cls-47" points="83.49 79.24 85.79 80.71 108.39 67.58 106.09 66.1 83.49 79.24"/><polygon id="_Контур_135" data-name="&lt;Контур&gt;" class="cls-52" points="85.79 80.71 85.79 81.84 108.39 68.7 108.39 67.58 85.79 80.71"/><polygon id="_Контур_136" data-name="&lt;Контур&gt;" class="cls-53" points="83.49 79.24 83.49 80.52 85.79 81.84 85.79 80.71 83.49 79.24"/></g><g id="_Группа_49" data-name="&lt;Группа&gt;"><polygon id="_Контур_137" data-name="&lt;Контур&gt;" class="cls-47" points="78.38 76.3 80.68 77.77 103.28 64.64 100.98 63.16 78.38 76.3"/><polygon id="_Контур_138" data-name="&lt;Контур&gt;" class="cls-52" points="80.68 77.77 80.68 78.9 103.28 65.77 103.28 64.64 80.68 77.77"/><polygon id="_Контур_139" data-name="&lt;Контур&gt;" class="cls-53" points="78.38 76.3 78.38 77.58 80.68 78.9 80.68 77.77 78.38 76.3"/></g><g id="_Группа_50" data-name="&lt;Группа&gt;"><polygon id="_Контур_140" data-name="&lt;Контур&gt;" class="cls-47" points="73.27 73.36 75.57 74.83 98.17 61.7 95.87 60.22 73.27 73.36"/><polygon id="_Контур_141" data-name="&lt;Контур&gt;" class="cls-52" points="75.57 74.83 75.57 75.96 98.17 62.83 98.17 61.7 75.57 74.83"/><polygon id="_Контур_142" data-name="&lt;Контур&gt;" class="cls-53" points="73.27 73.36 73.27 74.64 75.57 75.96 75.57 74.83 73.27 73.36"/></g><g id="_Группа_51" data-name="&lt;Группа&gt;"><polygon id="_Контур_143" data-name="&lt;Контур&gt;" class="cls-47" points="68.16 70.42 70.47 71.9 93.07 58.76 90.76 57.28 68.16 70.42"/><polygon id="_Контур_144" data-name="&lt;Контур&gt;" class="cls-52" points="70.47 71.9 70.47 73.03 93.07 59.89 93.07 58.76 70.47 71.9"/><polygon id="_Контур_145" data-name="&lt;Контур&gt;" class="cls-53" points="68.16 70.42 68.16 71.7 70.47 73.03 70.47 71.9 68.16 70.42"/></g><g id="_Группа_52" data-name="&lt;Группа&gt;"><polygon id="_Контур_146" data-name="&lt;Контур&gt;" class="cls-47" points="63.05 67.48 65.36 68.96 87.96 55.82 85.65 54.35 63.05 67.48"/><polygon id="_Контур_147" data-name="&lt;Контур&gt;" class="cls-52" points="65.36 68.96 65.36 70.09 87.96 56.95 87.96 55.82 65.36 68.96"/><polygon id="_Контур_148" data-name="&lt;Контур&gt;" class="cls-53" points="63.05 67.48 63.05 68.77 65.36 70.09 65.36 68.96 63.05 67.48"/></g></g></g></g></g></g></g></g></svg>