<svg xmlns="http://www.w3.org/2000/svg" viewBox="0 0 82.5 66.64"><defs><style>.cls-1{fill:none;stroke:#0f0f0f;stroke-linecap:round;stroke-linejoin:round;stroke-width:2.5px;}</style></defs><title>Ресурс 14</title><g id="Слой_2" data-name="Слой 2"><g id="Layer_2" data-name="Layer 2"><polyline class="cls-1" points="48.69 58.98 35.86 65.39 1.25 49.1 1.25 12.45 35.86 26.7 68.44 12.45 68.44 21.44"/><polyline class="cls-1" points="1.25 12.45 34.84 1.25 68.44 12.45"/><line class="cls-1" x1="17.78" y1="19.26" x2="49.86" y2="6.25"/><line class="cls-1" x1="35.86" y1="26.7" x2="35.86" y2="65.39"/><polyline class="cls-1" points="45.98 54.22 35.86 59.28 1.25 42.99"/><line class="cls-1" x1="6.34" y1="51.49" x2="6.34" y2="45.38"/><line class="cls-1" x1="29.76" y1="62.51" x2="29.76" y2="56.4"/><line class="cls-1" x1="41.97" y1="62.33" x2="41.97" y2="56.22"/><path class="cls-1" d="M63.72,64c-1.21-.8-7.17-4.74-9.28-6.3a10.61,10.61,0,0,1-4-8.61V32.57l4.16.29h.25c2.66,0,6.55-2.57,8.37-4.19l2.61-2.46,2.64,2.49c1.8,1.59,5.69,4.16,8.34,4.16h.25l4.16-.29v16.5a10.61,10.61,0,0,1-4,8.61C75.17,59.23,69.21,63.18,68,64l-2.18,1.43Z"/></g></g></svg>