<svg xmlns="http://www.w3.org/2000/svg" viewBox="0 0 82.5 51.74"><defs><style>.cls-1{fill:none;stroke:#0f0f0f;stroke-linecap:round;stroke-linejoin:round;stroke-width:2.5px;}</style></defs><title>Ресурс 2</title><g id="Слой_2" data-name="Слой 2"><g id="Layer_2" data-name="Layer 2"><line class="cls-1" x1="12.02" y1="27.54" x2="12.02" y2="15.28"/><path class="cls-1" d="M22.61,44.79H14.13a2.1,2.1,0,0,1-2.1-2.1V37"/><line class="cls-1" x1="59.26" y1="44.79" x2="34.01" y2="44.79"/><path class="cls-1" d="M12,6V3.35a2.1,2.1,0,0,1,2.1-2.1h39a2.1,2.1,0,0,1,2.1,2.1V23.2a8.55,8.55,0,0,0,8.55,8.55H81.25v7.06a6,6,0,0,1-6,6H70.66"/><path class="cls-1" d="M55.19,8.83c12.43.49,26.06,10.57,26.06,22.92"/><circle class="cls-1" cx="28.31" cy="44.79" r="5.7"/><circle class="cls-1" cx="64.96" cy="44.79" r="5.7"/><path class="cls-1" d="M73.92,35.83V36a2.29,2.29,0,0,0,2.29,2.29h1"/><line class="cls-1" x1="29.76" y1="10.44" x2="1.25" y2="10.44"/><line class="cls-1" x1="36.46" y1="21.61" x2="18.6" y2="21.61"/><line class="cls-1" x1="33.11" y1="32.03" x2="6.32" y2="32.03"/></g></g></svg>