<svg xmlns="http://www.w3.org/2000/svg" xmlns:xlink="http://www.w3.org/1999/xlink" viewBox="0 0 170.46 113.62"><defs><style>.cls-1{isolation:isolate;}.cls-2,.cls-3{mix-blend-mode:multiply;}.cls-2{fill:url(#Ѕезым_нный_градиент_2);}.cls-3{fill:url(#Ѕезым_нный_градиент_2-2);}.cls-4{fill:url(#Ѕезым_нный_градиент_21);}.cls-5{fill:#e1f0f0;}.cls-6{fill:#b9c6c7;}.cls-7{fill:#a6a9ab;}.cls-8{fill:#dde2e6;}.cls-9{fill:#d9dbdd;}.cls-10{fill:#72777a;}.cls-11{fill:url(#Ѕезым_нный_градиент_21-2);}.cls-12{fill:url(#Ѕезым_нный_градиент_25);}.cls-13{fill:#bfcccc;}.cls-14{fill:url(#Ѕезым_нный_градиент_21-3);}.cls-15{fill:url(#Ѕезым_нный_градиент_25-2);}.cls-16{fill:url(#Ѕезым_нный_градиент_21-4);}.cls-17{fill:#99afba;}.cls-18{fill:#cedbdb;}.cls-19{fill:#ff6056;}.cls-20{fill:#ff7660;}.cls-21{fill:#ff8c6f;}.cls-22{fill:#74c7ac;}.cls-23{fill:#4f4f4f;}.cls-24{fill:#222;}.cls-25{fill:#9faaab;}.cls-26{fill:#80898a;}.cls-27{fill:#bdc1c4;}.cls-28{fill:#b2b2b2;}.cls-29{fill:url(#Ѕезым_нный_градиент_21-5);}.cls-30{fill:#8d9296;}.cls-31{fill:url(#Ѕезым_нный_градиент_35);}.cls-32{fill:#424852;}.cls-33{fill:url(#Ѕезым_нный_градиент_40);}.cls-34{fill:#d7d9db;}.cls-35{fill:url(#Ѕезым_нный_градиент_34);}.cls-36{fill:#e3e5e6;}.cls-37{fill:url(#Ѕезым_нный_градиент_16);}.cls-38{fill:url(#Ѕезым_нный_градиент_34-2);}.cls-39{fill:#b23625;}.cls-40{fill:#6ba9b0;}.cls-41{fill:#4e98a1;}.cls-42{fill:#a93e38;}.cls-43{fill:#ed8333;}.cls-44{fill:#edbd51;}.cls-45{fill:#bf301c;}.cls-46{fill:#d9483d;}.cls-47{fill:#ff574c;}.cls-48{fill:#791100;}.cls-49{fill:#eac72f;}.cls-50{fill:#b03a28;}.cls-51{fill:#cf9219;}.cls-52{fill:#b06a00;}.cls-53{fill:url(#Ѕезым_нный_градиент_21-6);}.cls-54{fill:url(#Ѕезым_нный_градиент_25-3);}.cls-55{fill:url(#Ѕезым_нный_градиент_21-7);}.cls-56{fill:url(#Ѕезым_нный_градиент_25-4);}.cls-57{fill:url(#Ѕезым_нный_градиент_21-8);}.cls-58{fill:url(#Ѕезым_нный_градиент_21-9);}.cls-59{fill:url(#Ѕезым_нный_градиент_20);}.cls-60{fill:#828282;}.cls-61{fill:#c6d4d4;}.cls-62{fill:#3a4044;}.cls-63{fill:url(#Ѕезым_нный_градиент_35-2);}.cls-64{fill:url(#Ѕезым_нный_градиент_35-3);}.cls-65{fill:url(#Ѕезым_нный_градиент_40-2);}.cls-66{fill:url(#Ѕезым_нный_градиент_34-3);}.cls-67{fill:url(#Ѕезым_нный_градиент_34-4);}.cls-68{fill:url(#Ѕезым_нный_градиент_34-5);}.cls-69{fill:url(#Ѕезым_нный_градиент_35-4);}.cls-70{fill:url(#Ѕезым_нный_градиент_35-5);}.cls-71{fill:url(#Ѕезым_нный_градиент_40-3);}.cls-72{fill:url(#Ѕезым_нный_градиент_34-6);}.cls-73{fill:url(#Ѕезым_нный_градиент_34-7);}.cls-74{fill:url(#Ѕезым_нный_градиент_34-8);}.cls-75{fill:#d84e42;}.cls-76{fill:#9a1200;}.cls-77{fill:#878787;}.cls-78{fill:#747474;}.cls-79{fill:#333;}.cls-80{fill:url(#Ѕезым_нный_градиент_35-6);}.cls-81{fill:url(#Ѕезым_нный_градиент_35-7);}.cls-82{fill:url(#Ѕезым_нный_градиент_40-4);}.cls-83{fill:url(#Ѕезым_нный_градиент_34-9);}.cls-84{fill:url(#Ѕезым_нный_градиент_16-2);}.cls-85{fill:url(#Ѕезым_нный_градиент_34-10);}.cls-86{fill:#a4a4a4;}.cls-87{fill:url(#Ѕезым_нный_градиент_28);}.cls-88{fill:url(#Ѕезым_нный_градиент_34-11);}.cls-89{fill:#bbb;}.cls-90{fill:url(#Ѕезым_нный_градиент_35-8);}.cls-91{fill:url(#Ѕезым_нный_градиент_35-9);}.cls-92{fill:url(#Ѕезым_нный_градиент_40-5);}.cls-93{fill:url(#Ѕезым_нный_градиент_34-12);}.cls-94{fill:url(#Ѕезым_нный_градиент_16-3);}.cls-95{fill:url(#Ѕезым_нный_градиент_34-13);}.cls-96{fill:#888;}.cls-97{fill:#5a5c54;}.cls-98{fill:#ff8c2e;}.cls-99{fill:#db721c;}.cls-100{fill:#b35000;}.cls-101{fill:#fff5f5;}.cls-102{fill:#b88f8f;}.cls-103{fill:#db4040;}.cls-104{fill:#b32b2b;}.cls-105{fill:#850f0f;}.cls-106{fill:#878983;}.cls-107{fill:#f9fcfc;}.cls-108{fill:#e0e0e0;}.cls-109{fill:#f8ffff;}.cls-110{fill:#6bb5ff;}.cls-111{fill:#981500;}</style><linearGradient id="Ѕезым_нный_градиент_2" x1="18.12" y1="-16783.02" x2="18.12" y2="-16783.02" gradientTransform="matrix(1, 0, 0, -1, 0, -16720.95)" gradientUnits="userSpaceOnUse"><stop offset="0" stop-color="#ededed"/><stop offset="1" stop-color="#e6e6e6"/></linearGradient><linearGradient id="Ѕезым_нный_градиент_2-2" x1="57.87" y1="-16832.25" x2="118.95" y2="-16726.45" xlink:href="#Ѕезым_нный_градиент_2"/><linearGradient id="Ѕезым_нный_градиент_21" x1="93.23" y1="-16746.42" x2="97.42" y2="-16746.42" gradientTransform="matrix(1, 0, 0, -1, 0, -16720.95)" gradientUnits="userSpaceOnUse"><stop offset="0.16" stop-color="#a7aaac"/><stop offset="0.16" stop-color="#bec2c5"/><stop offset="0.56" stop-color="#bec2c5"/><stop offset="0.56" stop-color="#dee3e7"/><stop offset="0.87" stop-color="#dee3e7"/><stop offset="0.87" stop-color="#d9dee2"/></linearGradient><linearGradient id="Ѕезым_нный_градиент_21-2" x1="115.73" y1="-16745.79" x2="122.14" y2="-16745.79" xlink:href="#Ѕезым_нный_градиент_21"/><linearGradient id="Ѕезым_нный_градиент_25" x1="115.37" y1="-16744.31" x2="122.5" y2="-16744.31" gradientTransform="matrix(1, 0, 0, -1, 0, -16720.95)" gradientUnits="userSpaceOnUse"><stop offset="0.16" stop-color="#bcc0c2"/><stop offset="0.16" stop-color="#d3d7db"/><stop offset="0.56" stop-color="#d3d7db"/><stop offset="0.56" stop-color="#f3f8fd"/><stop offset="0.87" stop-color="#f3f8fd"/><stop offset="0.87" stop-color="#eef3f8"/></linearGradient><linearGradient id="Ѕезым_нный_градиент_21-3" x1="115.73" y1="-16741.77" x2="122.14" y2="-16741.77" xlink:href="#Ѕезым_нный_градиент_21"/><linearGradient id="Ѕезым_нный_градиент_25-2" x1="115.37" y1="-16738.97" x2="122.5" y2="-16738.97" xlink:href="#Ѕезым_нный_градиент_25"/><linearGradient id="Ѕезым_нный_градиент_21-4" x1="115.73" y1="-16737.51" x2="122.14" y2="-16737.51" xlink:href="#Ѕезым_нный_градиент_21"/><linearGradient id="Ѕезым_нный_градиент_21-5" x1="121" y1="-16792.63" x2="115.22" y2="-16782.63" xlink:href="#Ѕезым_нный_градиент_21"/><linearGradient id="Ѕезым_нный_градиент_35" x1="160.26" y1="-16758.69" x2="148.4" y2="-16779.23" gradientTransform="matrix(1, 0, 0, -1, 0, -16720.95)" gradientUnits="userSpaceOnUse"><stop offset="0.13" stop-color="#68737b"/><stop offset="0.13" stop-color="#6c7880"/><stop offset="0.44" stop-color="#6c7880"/><stop offset="0.44" stop-color="#50585e"/><stop offset="0.84" stop-color="#50585e"/><stop offset="0.84" stop-color="#3b4145"/></linearGradient><linearGradient id="Ѕезым_нный_градиент_40" x1="161.54" y1="-16764.14" x2="153.74" y2="-16777.65" gradientTransform="matrix(1, 0, 0, -1, 0, -16720.95)" gradientUnits="userSpaceOnUse"><stop offset="0.13" stop-color="#dbe0e3"/><stop offset="0.13" stop-color="#e0e5e8"/><stop offset="0.44" stop-color="#e0e5e8"/><stop offset="0.44" stop-color="#c0c4c6"/><stop offset="0.84" stop-color="#c0c4c6"/><stop offset="0.84" stop-color="#a8abad"/></linearGradient><linearGradient id="Ѕезым_нный_градиент_34" x1="161.45" y1="-16765.2" x2="154.48" y2="-16777.27" gradientTransform="matrix(1, 0, 0, -1, 0, -16720.95)" gradientUnits="userSpaceOnUse"><stop offset="0.16" stop-color="#797b7d"/><stop offset="0.16" stop-color="#919496"/><stop offset="0.56" stop-color="#919496"/><stop offset="0.56" stop-color="#b1b5b8"/><stop offset="0.87" stop-color="#b1b5b8"/><stop offset="0.87" stop-color="#acb0b3"/></linearGradient><linearGradient id="Ѕезым_нный_градиент_16" x1="159.11" y1="-16765.93" x2="154.23" y2="-16774.37" gradientTransform="matrix(1, 0, 0, -1, 0, -16720.95)" gradientUnits="userSpaceOnUse"><stop offset="0.13" stop-color="#acb0b3"/><stop offset="0.13" stop-color="#b1b5b8"/><stop offset="0.44" stop-color="#b1b5b8"/><stop offset="0.44" stop-color="#919496"/><stop offset="0.84" stop-color="#919496"/><stop offset="0.84" stop-color="#797b7d"/></linearGradient><linearGradient id="Ѕезым_нный_градиент_34-2" x1="158.66" y1="-16768.89" x2="156.44" y2="-16772.74" xlink:href="#Ѕезым_нный_градиент_34"/><linearGradient id="Ѕезым_нный_градиент_21-6" x1="137.55" y1="-16768.31" x2="143.96" y2="-16768.31" xlink:href="#Ѕезым_нный_градиент_21"/><linearGradient id="Ѕезым_нный_градиент_25-3" x1="137.19" y1="-16766.83" x2="144.32" y2="-16766.83" xlink:href="#Ѕезым_нный_градиент_25"/><linearGradient id="Ѕезым_нный_градиент_21-7" x1="137.55" y1="-16764.29" x2="143.96" y2="-16764.29" xlink:href="#Ѕезым_нный_градиент_21"/><linearGradient id="Ѕезым_нный_градиент_25-4" x1="137.19" y1="-16761.49" x2="144.32" y2="-16761.49" xlink:href="#Ѕезым_нный_градиент_25"/><linearGradient id="Ѕезым_нный_градиент_21-8" x1="137.55" y1="-16760.03" x2="143.96" y2="-16760.03" xlink:href="#Ѕезым_нный_градиент_21"/><linearGradient id="Ѕезым_нный_градиент_21-9" x1="122.19" y1="-16765" x2="126.37" y2="-16765" xlink:href="#Ѕезым_нный_градиент_21"/><linearGradient id="Ѕезым_нный_градиент_20" x1="160.27" y1="-16750.59" x2="162.6" y2="-16754.62" gradientTransform="matrix(1, 0, 0, -1, 0, -16720.95)" gradientUnits="userSpaceOnUse"><stop offset="0.13" stop-color="#d9dee2"/><stop offset="0.13" stop-color="#dee3e7"/><stop offset="0.44" stop-color="#dee3e7"/><stop offset="0.44" stop-color="#bec2c5"/><stop offset="0.84" stop-color="#bec2c5"/><stop offset="0.84" stop-color="#a7aaac"/></linearGradient><linearGradient id="Ѕезым_нный_градиент_35-2" x1="61.35" y1="-16771.52" x2="49.5" y2="-16792.06" xlink:href="#Ѕезым_нный_градиент_35"/><linearGradient id="Ѕезым_нный_градиент_35-3" x1="67.03" y1="-16774.72" x2="55.17" y2="-16795.26" xlink:href="#Ѕезым_нный_градиент_35"/><linearGradient id="Ѕезым_нный_градиент_40-2" x1="67.38" y1="-16790.57" x2="61.44" y2="-16783.29" xlink:href="#Ѕезым_нный_градиент_40"/><linearGradient id="Ѕезым_нный_градиент_34-3" x1="68.22" y1="-16781.23" x2="61.25" y2="-16793.3" xlink:href="#Ѕезым_нный_градиент_34"/><linearGradient id="Ѕезым_нный_градиент_34-4" x1="65.87" y1="-16781.96" x2="61" y2="-16790.4" xlink:href="#Ѕезым_нный_градиент_34"/><linearGradient id="Ѕезым_нный_градиент_34-5" x1="65.43" y1="-16784.92" x2="63.2" y2="-16788.77" xlink:href="#Ѕезым_нный_градиент_34"/><linearGradient id="Ѕезым_нный_градиент_35-4" x1="40.95" y1="-16783.3" x2="29.09" y2="-16803.83" xlink:href="#Ѕезым_нный_градиент_35"/><linearGradient id="Ѕезым_нный_градиент_35-5" x1="46.62" y1="-16786.5" x2="34.77" y2="-16807.04" xlink:href="#Ѕезым_нный_градиент_35"/><linearGradient id="Ѕезым_нный_градиент_40-3" x1="46.98" y1="-16802.35" x2="41.04" y2="-16795.06" xlink:href="#Ѕезым_нный_градиент_40"/><linearGradient id="Ѕезым_нный_градиент_34-6" x1="47.81" y1="-16793.01" x2="40.85" y2="-16805.08" xlink:href="#Ѕезым_нный_градиент_34"/><linearGradient id="Ѕезым_нный_градиент_34-7" x1="45.47" y1="-16793.74" x2="40.6" y2="-16802.18" xlink:href="#Ѕезым_нный_градиент_34"/><linearGradient id="Ѕезым_нный_градиент_34-8" x1="45.03" y1="-16796.7" x2="42.8" y2="-16800.55" xlink:href="#Ѕезым_нный_градиент_34"/><linearGradient id="Ѕезым_нный_градиент_35-6" x1="92.98" y1="-16790.02" x2="81.13" y2="-16810.55" xlink:href="#Ѕезым_нный_градиент_35"/><linearGradient id="Ѕезым_нный_градиент_35-7" x1="98.66" y1="-16793.22" x2="86.8" y2="-16813.76" xlink:href="#Ѕезым_нный_градиент_35"/><linearGradient id="Ѕезым_нный_градиент_40-4" x1="99.94" y1="-16798.67" x2="92.14" y2="-16812.18" xlink:href="#Ѕезым_нный_градиент_40"/><linearGradient id="Ѕезым_нный_градиент_34-9" x1="99.85" y1="-16799.73" x2="92.88" y2="-16811.8" xlink:href="#Ѕезым_нный_градиент_34"/><linearGradient id="Ѕезым_нный_градиент_16-2" x1="97.5" y1="-16800.46" x2="92.63" y2="-16808.9" xlink:href="#Ѕезым_нный_градиент_16"/><linearGradient id="Ѕезым_нный_градиент_34-10" x1="97.06" y1="-16803.42" x2="94.83" y2="-16807.27" xlink:href="#Ѕезым_нный_градиент_34"/><linearGradient id="Ѕезым_нный_градиент_28" x1="66.81" y1="-16783.47" x2="74.9" y2="-16783.47" gradientTransform="matrix(1, 0, 0, -1, 0, -16720.95)" gradientUnits="userSpaceOnUse"><stop offset="0.16" stop-color="#4d4e4f"/><stop offset="0.16" stop-color="#646668"/><stop offset="0.56" stop-color="#646668"/><stop offset="0.56" stop-color="#85888a"/><stop offset="0.87" stop-color="#85888a"/><stop offset="0.87" stop-color="#808385"/></linearGradient><linearGradient id="Ѕезым_нный_градиент_34-11" x1="73.24" y1="-16775.9" x2="68.01" y2="-16784.96" xlink:href="#Ѕезым_нный_градиент_34"/><linearGradient id="Ѕезым_нный_градиент_35-8" x1="72.58" y1="-16801.8" x2="60.72" y2="-16822.33" xlink:href="#Ѕезым_нный_градиент_35"/><linearGradient id="Ѕезым_нный_градиент_35-9" x1="78.25" y1="-16805" x2="66.4" y2="-16825.54" xlink:href="#Ѕезым_нный_градиент_35"/><linearGradient id="Ѕезым_нный_градиент_40-5" x1="79.54" y1="-16810.45" x2="71.74" y2="-16823.96" xlink:href="#Ѕезым_нный_градиент_40"/><linearGradient id="Ѕезым_нный_градиент_34-12" x1="79.44" y1="-16811.51" x2="72.48" y2="-16823.58" xlink:href="#Ѕезым_нный_градиент_34"/><linearGradient id="Ѕезым_нный_градиент_16-3" x1="77.1" y1="-16812.24" x2="72.23" y2="-16820.68" xlink:href="#Ѕезым_нный_градиент_16"/><linearGradient id="Ѕезым_нный_градиент_34-13" x1="76.65" y1="-16815.19" x2="74.43" y2="-16819.05" xlink:href="#Ѕезым_нный_градиент_34"/></defs><title>i3</title><g class="cls-1"><g id="Слой_2" data-name="Слой 2"><g id="Layer_1" data-name="Layer 1"><g id="_Группа_" data-name="&lt;Группа&gt;"><g id="_Группа_2" data-name="&lt;Группа&gt;"><polygon id="_Контур_" data-name="&lt;Контур&gt;" class="cls-2" points="18.12 62.07 18.11 62.07 18.12 62.07 18.12 62.07"/><path id="_Контур_2" data-name="&lt;Контур&gt;" class="cls-3" d="M159.23,47.92c-.27,1-49.49,13.08-87.12,22.54l-2.27-1.31q.55-.25,1.08-.52c5.76-3,7.85-7.69,4.81-10.56a26,26,0,0,0,4.33-.53l15.78-8.44c.83-.44,1-1,.75-1.55l13-6.81-2.91-2.52L120,38l2.53-.31a10,10,0,0,1-2.06-5.64c3.57,2.3,10.42,2,15.91-.91,4.08-2.14,6.32-5.11,6.2-7.69l2.69,1.71,2.57-1.1L143,19.58l.23-.07-.61-.28-.06-.05h0a6.74,6.74,0,0,0-3.22-.64,119.92,119.92,0,0,0-15.7-.51l-6-5.16-4,1.77L114,15s-9.16,3.8-22.92,10.72L81,21.84l.13-1.24a126.55,126.55,0,0,0-13.42,4.79H67l-3.53-3a5.68,5.68,0,0,0-4.53-1.48,25.81,25.81,0,0,0-3.07.32l-1.06.24h0l.4.19,1.42.7,1.14.56L58,23c.71,0,1.13-.15,1.53-.15A1.44,1.44,0,0,1,60,23l.07,0a3.07,3.07,0,0,1,.87.57L63.74,26a2.23,2.23,0,0,0-1,.6c-4.08.17-18,1-22,3.72l6.81,5.89L45,37.43l4.23,6.41,6,5.17-1.93,1L52.5,51.6,47.61,54,44,52.91l-1.29.52-1-.58-.29.17A1.31,1.31,0,0,0,41,51.56l-.81-.7.76.75c-2-1.37-8.45-.32-14.63,2.45-6.36,2.85-10.05,6.43-8.24,8L18,61.88c1.17,1,2.11,1.91,5.9,1l-.74.57,0,.12L0,77.79l61.89,35.83,106.7-60.44C169.81,52.53,159.44,47.14,159.23,47.92Z"/></g><g id="_Группа_3" data-name="&lt;Группа&gt;"><path id="_Контур_3" data-name="&lt;Контур&gt;" class="cls-4" d="M93.23,10V39.61c0,.75.94,1.36,2.09,1.36s2.09-.61,2.09-1.36V10Z"/><ellipse id="_Контур_4" data-name="&lt;Контур&gt;" class="cls-5" cx="95.32" cy="10.03" rx="2.09" ry="1.36"/></g><g id="_Группа_4" data-name="&lt;Группа&gt;"><path id="_Контур_5" data-name="&lt;Контур&gt;" class="cls-6" d="M96.37,3.62V9.78a1.15,1.15,0,0,1-1.06.5,1.48,1.48,0,0,1-.49-.07,1.05,1.05,0,0,1-.47-.27V4.69a3.31,3.31,0,0,0-.11-1,.14.14,0,0,0,0-.06.43.43,0,0,0-.2-.23c-.21-.1-.52,0-.89-.18l-.06-.27-.25-1.09L92.51.46,92.42.08h0l.7-.07a6,6,0,0,1,1.79.34C96.12.82,96.37,1.83,96.37,3.62Z"/><path id="_Контур_6" data-name="&lt;Контур&gt;" class="cls-7" d="M94.83,5.27v4.94a1.05,1.05,0,0,1-.47-.27V4.69a3.31,3.31,0,0,0-.11-1,.14.14,0,0,0,0-.06.43.43,0,0,0-.2-.23c-.21-.1-.52,0-.89-.18l-.06-.27-.25-1.09a3.71,3.71,0,0,1,.54.17C94.57,2.46,94.83,3.47,94.83,5.27Z"/><path id="_Контур_7" data-name="&lt;Контур&gt;" class="cls-8" d="M94.91.34A6,6,0,0,0,93.12,0l-.7.07h0l.09.37.09.41h0a6,6,0,0,1,1.79.34c1.21.48,1.47,1.49,1.47,3.28v5.69a.87.87,0,0,0,.5-.39V3.62C96.37,1.83,96.12.82,94.91.34Z"/><path id="_Контур_8" data-name="&lt;Контур&gt;" class="cls-9" d="M91.75,1a3.19,3.19,0,0,0,1.54,2.43c.85.49,1.54.2,1.54-.65a1.62,1.62,0,0,0,0-.29A3.33,3.33,0,0,0,93.29.31L93.1.21C92.34-.14,91.75.17,91.75,1Z"/><path id="_Контур_9" data-name="&lt;Контур&gt;" class="cls-7" d="M94.5,2.55a.74.74,0,0,1-.17.52c-.21.24-.6.25-1,0a2.55,2.55,0,0,1-1.21-1.92c0-.63.47-.87,1.07-.59l.14.07.17.11a2.64,2.64,0,0,1,1,1.58A1,1,0,0,1,94.5,2.55Z"/><path id="_Контур_10" data-name="&lt;Контур&gt;" class="cls-10" d="M94.5,2.55a.74.74,0,0,1-.17.52,2.48,2.48,0,0,1-1-1.8.75.75,0,0,1,.17-.53,2.64,2.64,0,0,1,1,1.58A1,1,0,0,1,94.5,2.55Z"/></g><g id="_Группа_5" data-name="&lt;Группа&gt;"><path id="_Контур_11" data-name="&lt;Контур&gt;" class="cls-11" d="M115.73,23.33v1c0,1.15,1.43,2.09,3.2,2.09s3.2-.93,3.2-2.09V23.23Z"/><path id="_Контур_12" data-name="&lt;Контур&gt;" class="cls-12" d="M115.37,21.68v1.16c0,1.28,1.6,2.32,3.56,2.32s3.56-1,3.56-2.32V21.56Z"/><ellipse id="_Контур_13" data-name="&lt;Контур&gt;" class="cls-13" cx="118.93" cy="21.68" rx="3.56" ry="2.32"/><path id="_Контур_14" data-name="&lt;Контур&gt;" class="cls-14" d="M115.73,18.39v2.88c0,1.15,1.43,2.09,3.2,2.09s3.2-.93,3.2-2.09v-3Z"/><path id="_Контур_15" data-name="&lt;Контур&gt;" class="cls-15" d="M115.37,16.34V17.5c0,1.28,1.6,2.32,3.56,2.32s3.56-1,3.56-2.32V16.22Z"/><ellipse id="_Контур_16" data-name="&lt;Контур&gt;" class="cls-13" cx="118.93" cy="16.34" rx="3.56" ry="2.32"/><path id="_Контур_17" data-name="&lt;Контур&gt;" class="cls-16" d="M115.73,15v1c0,1.15,1.43,2.09,3.2,2.09s3.2-.93,3.2-2.09V14.94Z"/><ellipse id="_Контур_18" data-name="&lt;Контур&gt;" class="cls-5" cx="118.93" cy="15.05" rx="3.2" ry="2.09"/></g><g id="_Группа_6" data-name="&lt;Группа&gt;"><polygon id="_Контур_19" data-name="&lt;Контур&gt;" class="cls-17" points="131.13 27.13 168.94 49 168.94 40.77 131.13 18.9 131.13 27.13"/><polygon id="_Контур_20" data-name="&lt;Контур&gt;" class="cls-5" points="167.35 48.79 168.25 49.2 169.99 40.21 168.62 40.05 166.44 41.21 167.35 48.79"/><polygon id="_Контур_21" data-name="&lt;Контур&gt;" class="cls-18" points="168.25 49.2 170.26 48.31 170.46 39.96 167.35 41.62 168.25 49.2"/><polygon id="_Контур_22" data-name="&lt;Контур&gt;" class="cls-5" points="132.6 18.06 170.46 39.96 168.94 40.77 131.13 18.9 132.6 18.06"/></g><polygon id="_Контур_23" data-name="&lt;Контур&gt;" class="cls-17" points="167.35 41.62 166.44 41.21 167.35 48.79 168.25 49.2 167.35 41.62"/><path id="_Контур_24" data-name="&lt;Контур&gt;" class="cls-17" d="M137.81,8.42l2.87.54a40.28,40.28,0,0,1,12.19,6.64l5.3,5a3.84,3.84,0,0,1,1.22,2.8V43.7L135.57,30l-2.14-19.12C133.43,9.7,136.64,8.2,137.81,8.42Z"/><path id="_Контур_25" data-name="&lt;Контур&gt;" class="cls-5" d="M159.38,23.36V43.7l-3.22-1.85V25.09a3.84,3.84,0,0,0-1.22-2.8s-3-3.12-4.65-4.51a32.3,32.3,0,0,0-5-3.49,43.56,43.56,0,0,0-7.87-3.59l-1.92-.63L134,9.8c.39-.64,3-1.54,3.76-1.39l2.87.55a40.7,40.7,0,0,1,7.72,3.55,39.33,39.33,0,0,1,4.46,3.09l5.3,5A3.81,3.81,0,0,1,159.38,23.36Z"/><path id="_Контур_26" data-name="&lt;Контур&gt;" class="cls-19" d="M156.11,24.94,139.42,36.85s-36.65-11.8-30-17.32C113,16.56,134,9.8,134,9.8s.43.12,1.12.35,1.69.58,2.82,1a43.7,43.7,0,0,1,6.52,3,39.7,39.7,0,0,1,5.8,4.1c1.1.94,2,1.79,2.65,2.49l1,1C156,23.84,156.11,24.94,156.11,24.94Z"/><path id="_Контур_27" data-name="&lt;Контур&gt;" class="cls-20" d="M153,20.76l-21.8,12.44-3-3.1-9.53-9.79-2.49-2.56,19.05-7.6c.7.23,1.69.58,2.82,1a43.7,43.7,0,0,1,6.52,3,39.7,39.7,0,0,1,5.8,4.1C151.41,19.21,152.28,20.06,153,20.76Z"/><path id="_Контур_28" data-name="&lt;Контур&gt;" class="cls-21" d="M150.31,18.27,128.14,30.11l-.27.14-11.67-8.8,2.41-1.13L138,11.17a43.7,43.7,0,0,1,6.52,3A39.7,39.7,0,0,1,150.31,18.27Z"/><polygon id="_Контур_29" data-name="&lt;Контур&gt;" class="cls-22" points="102.76 30.3 106.9 27.91 106.9 21.27 102.76 23.67 102.76 30.3"/><polygon id="_Контур_30" data-name="&lt;Контур&gt;" class="cls-22" points="111.86 38.89 101.65 46.62 94.58 44.65 111.86 32.7 111.86 38.89"/><polygon id="_Контур_31" data-name="&lt;Контур&gt;" class="cls-22" points="101.27 51.1 75.66 65.88 75.66 56.15 94.2 45.58 101.27 51.1"/><polygon id="_Контур_32" data-name="&lt;Контур&gt;" class="cls-22" points="96.35 38.95 92.17 41.36 92.17 15.39 96.35 12.98 96.35 38.95"/><polygon id="_Контур_33" data-name="&lt;Контур&gt;" class="cls-23" points="161.97 43.47 103.17 76.8 105.64 69.63 161.97 37.26 161.97 43.47"/><polygon id="_Контур_34" data-name="&lt;Контур&gt;" class="cls-24" points="105.89 63.3 107.21 64.06 107.21 71.26 104.81 72.59 89.75 74.69 105.89 63.3"/><g id="_Группа_7" data-name="&lt;Группа&gt;"><polygon id="_Контур_35" data-name="&lt;Контур&gt;" class="cls-25" points="121.02 70.24 138.29 60.27 138.29 54.07 121.02 64.04 121.02 70.24"/><polygon id="_Контур_36" data-name="&lt;Контур&gt;" class="cls-26" points="137.33 58.16 137.33 55.32 135.29 56.39 135.29 57.03 135.29 59.8 137.33 60.58 137.33 58.16"/><polygon id="_Контур_37" data-name="&lt;Контур&gt;" class="cls-8" points="138.34 60 122.19 69.32 124.15 70.46 140.3 61.13 138.34 60"/><polygon id="_Контур_38" data-name="&lt;Контур&gt;" class="cls-27" points="136.33 52.92 120.18 62.24 122.14 63.38 138.29 54.05 136.33 52.92"/><polygon id="_Контур_39" data-name="&lt;Контур&gt;" class="cls-28" points="140.3 61.59 124.15 70.91 124.15 70.46 140.3 61.13 140.3 61.59"/><polygon id="_Контур_40" data-name="&lt;Контур&gt;" class="cls-8" points="135.37 57.03 119.22 66.35 121.18 67.49 137.33 58.16 135.37 57.03"/><polygon id="_Контур_41" data-name="&lt;Контур&gt;" class="cls-28" points="137.33 58.62 121.18 67.94 121.18 67.49 137.33 58.16 137.33 58.62"/></g><g id="_Группа_8" data-name="&lt;Группа&gt;"><path id="_Контур_42" data-name="&lt;Контур&gt;" class="cls-29" d="M112.78,76.43l13.31-7.87c1.77-1,1.93-4.06.36-6.78s-4.28-4.1-6.05-3.08l-13.47,8Z"/><ellipse id="_Контур_43" data-name="&lt;Контур&gt;" class="cls-30" cx="109.93" cy="71.5" rx="3.7" ry="5.69" transform="translate(-21.02 64.55) rotate(-30)"/><ellipse id="_Контур_44" data-name="&lt;Контур&gt;" class="cls-26" cx="109.29" cy="71.87" rx="2.97" ry="4.56" transform="translate(-21.29 64.27) rotate(-30)"/></g><g id="_Группа_9" data-name="&lt;Группа&gt;"><path id="_Контур_45" data-name="&lt;Контур&gt;" class="cls-31" d="M144.32,52.54A5,5,0,0,0,146.26,57c1.63,1.09,5.12,3,5.12,3,4.91-2.83,14.54-12.67,14.54-17.58,0-2.13-4.59-3.75-5.85-4.56-1.63-1-4.1-.89-6.88.71C148.3,41.36,144.32,47.63,144.32,52.54Z"/><path id="_Контур_46" data-name="&lt;Контур&gt;" class="cls-32" d="M149.12,55.34c0,4.91,4,6.59,8.88,3.76s8.88-9.11,8.88-14-4-6.59-8.88-3.76S149.12,50.43,149.12,55.34Z"/><path id="_Контур_47" data-name="&lt;Контур&gt;" class="cls-33" d="M151.75,53.35c0,3.26,2.64,4.37,5.9,2.49s5.9-6,5.9-9.3-2.64-4.37-5.9-2.49S151.75,50.09,151.75,53.35Z"/><path id="_Контур_48" data-name="&lt;Контур&gt;" class="cls-34" d="M152.11,53.61c0,3.26,2.64,4.37,5.9,2.49s5.9-6,5.9-9.3-2.64-4.37-5.9-2.49S152.11,50.36,152.11,53.61Z"/><path id="_Контур_49" data-name="&lt;Контур&gt;" class="cls-35" d="M163.3,47.16c0,2.92-2.37,6.66-5.29,8.35s-5.29.68-5.29-2.24a5.56,5.56,0,0,1,.09-1,11.45,11.45,0,0,1,5.2-7.36c.21-.12.43-.23.63-.32C161.26,43.38,163.3,44.45,163.3,47.16Z"/><path id="_Контур_50" data-name="&lt;Контур&gt;" class="cls-36" d="M160.73,46.85v0a8.28,8.28,0,0,1-4,6.31,4.62,4.62,0,0,1-1.17.51,2,2,0,0,1-2.61-1,1.65,1.65,0,0,1-.13-.39,7.73,7.73,0,0,1,.29-1.2,11.88,11.88,0,0,1,4.16-5.66,8.66,8.66,0,0,1,.75-.5l.53-.27.1-.05C159.87,44.55,160.71,45.36,160.73,46.85Z"/><path id="_Контур_51" data-name="&lt;Контур&gt;" class="cls-37" d="M160.36,46.3c0,2.17-2.74,6.12-4.92,7.41l0,0-.09,0a.93.93,0,0,1-.28-.09l-.11,0a13.72,13.72,0,0,1-2-.89,1.65,1.65,0,0,1-.13-.39,7.73,7.73,0,0,1,.29-1.2,11.88,11.88,0,0,1,4.16-5.66,8.66,8.66,0,0,1,.75-.5l.53-.27a13.61,13.61,0,0,1,1.6,1.4h0Z"/><path id="_Контур_52" data-name="&lt;Контур&gt;" class="cls-9" d="M160.87,47.75a7.16,7.16,0,0,1-3.45,5.45c-1.9,1.1-3.45.44-3.45-1.46a3.63,3.63,0,0,1,.06-.65,7.47,7.47,0,0,1,3.39-4.8l.41-.21C159.54,45.29,160.87,46,160.87,47.75Z"/><path id="_Контур_53" data-name="&lt;Контур&gt;" class="cls-38" d="M159.23,48.89a3.49,3.49,0,0,1-1.68,2.65c-.93.53-1.68.22-1.68-.71a1.77,1.77,0,0,1,0-.32,3.64,3.64,0,0,1,1.65-2.34l.2-.1C158.58,47.69,159.23,48,159.23,48.89Z"/><path id="_Контур_54" data-name="&lt;Контур&gt;" class="cls-36" d="M157.79,49.12a1.4,1.4,0,0,1-.67,1.06c-.37.21-.67.09-.67-.28a.71.71,0,0,1,0-.13,1.46,1.46,0,0,1,.66-.94l.08,0C157.53,48.64,157.79,48.77,157.79,49.12Z"/></g><path id="_Контур_55" data-name="&lt;Контур&gt;" class="cls-39" d="M139.43,52,123,61.41s-4.4-25.18,0-31.81c1.88-2.83,12.54-5.28,12.54-5.28L134.77,26l3.29,9.15Z"/><g id="_Группа_10" data-name="&lt;Группа&gt;"><path id="_Контур_56" data-name="&lt;Контур&gt;" class="cls-8" d="M135.06,37.53a5.51,5.51,0,0,0,.89-1.48,1.91,1.91,0,0,0,.06-1.3l-1.29-7c-.26-.9-1-1.09-2-.52l-4.38,2.4a2.87,2.87,0,0,0-.75.67,5.93,5.93,0,0,0-1.4,3.06V41c0,1.28.69,1.66,1.8,1l6.24-3.79a4.35,4.35,0,0,0,.86-.68Z"/><path id="_Контур_57" data-name="&lt;Контур&gt;" class="cls-40" d="M134.4,37.62l-6.24,3.79c-1,.6-1.6.27-1.6-.87V32.82a4.12,4.12,0,0,1,1.53-2.64l4.38-2.4c.94-.52,1.61-.35,1.85.46l1.3,7.06A3.19,3.19,0,0,1,134.4,37.62Z"/></g><path id="_Контур_58" data-name="&lt;Контур&gt;" class="cls-8" d="M131.88,50.88a1.15,1.15,0,0,1-1.15-1.15v-5.9a1.7,1.7,0,0,1,.85-1.47L134,41a1.15,1.15,0,0,1,1.73,1v5.9a1.7,1.7,0,0,1-.85,1.47l-2.38,1.37A1.16,1.16,0,0,1,131.88,50.88Z"/><path id="_Контур_59" data-name="&lt;Контур&gt;" class="cls-41" d="M134.63,49l-2.38,1.37a.75.75,0,0,1-1.12-.65v-5.9a1.29,1.29,0,0,1,.65-1.12l2.38-1.37a.75.75,0,0,1,1.12.65v5.9A1.29,1.29,0,0,1,134.63,49Z"/><path id="_Контур_60" data-name="&lt;Контур&gt;" class="cls-20" d="M135.59,24.32s-9.14-7.94-27.35-17c-4.48-2.22-16.49,4.15-16.49,4.15S116.43,35.18,123,29.6C126.77,26.46,135.59,24.32,135.59,24.32Z"/><path id="_Контур_61" data-name="&lt;Контур&gt;" class="cls-39" d="M117.82,25.67s10.37-5,13.69-4.67c-3.37-2-11.2-6.81-15.67-9s-16.49,4.15-16.49,4.15,4.17,4,9.53,8.31C111,23.5,117.82,25.67,117.82,25.67Z"/><path id="_Контур_62" data-name="&lt;Контур&gt;" class="cls-21" d="M117,25.54s10.56-4.93,14.54-4.53c-3.37-2-15-9.46-19.46-11.68s-16.49,4.15-16.49,4.15,7.77,5.93,13.13,10.24C110.84,22.78,117,25.54,117,25.54Z"/><g id="_Группа_11" data-name="&lt;Группа&gt;"><path id="_Контур_63" data-name="&lt;Контур&gt;" class="cls-42" d="M124.22,18.84l-.81.52c-.22.14-.24.38-.47.25l-.36-.29c-.25-.14-.52-.67-.28-.82l.81-.51c.22-.14,1.1-.53,1.33-.39l.09,0C124.79,17.78,124.46,18.69,124.22,18.84Z"/><path id="_Контур_64" data-name="&lt;Контур&gt;" class="cls-43" d="M125.37,18.95l-1.29.82a.8.8,0,0,1-.82,0l-.31-.18c-.28-.16.09-1.31.35-1.47l.92-.08c.25-.15.63-.55.89-.4l.21.16A.9.9,0,0,1,125.37,18.95Z"/><path id="_Контур_65" data-name="&lt;Контур&gt;" class="cls-44" d="M125,18.23l-.81.52a.71.71,0,0,1-.73,0l-.1,0a.38.38,0,0,1,0-.65l.81-.51a.71.71,0,0,1,.73,0l.09,0A.38.38,0,0,1,125,18.23Z"/></g><path id="_Контур_66" data-name="&lt;Контур&gt;" class="cls-45" d="M156.1,37.84,139.43,52l-1.88-17.68C149,28,156.1,24.94,156.1,24.94Z"/><polygon id="_Контур_67" data-name="&lt;Контур&gt;" class="cls-18" points="159.26 36.01 156.1 37.83 156.1 24.32 159.26 22.84 159.26 36.01"/><path id="_Контур_68" data-name="&lt;Контур&gt;" class="cls-46" d="M108.72,27.56l14.33.67s-21.92-14.17-30-17.31c-11.27-4.38-17.4-2.39-17.4-2.39Z"/><path id="_Контур_69" data-name="&lt;Контур&gt;" class="cls-39" d="M117.23,24.38l.12,0c-5.7-3.76-12.2-7.78-16.08-9.29C90,10.76,83.41,13,83.41,13L99,22C100.69,21.4,107.17,20.46,117.23,24.38Z"/><path id="_Контур_70" data-name="&lt;Контур&gt;" class="cls-47" d="M117.23,24.4l.12,0c-5.7-3.76-12.2-8.22-16.08-9.73-11.27-4.38-17.86-3-17.86-3l15.59,9C100.69,20.13,107.17,20.49,117.23,24.4Z"/><path id="_Контур_71" data-name="&lt;Контур&gt;" class="cls-39" d="M108.72,68.07,123,58.69V28.23s-9.88-4-14.33-.67Z"/><polygon id="_Контур_72" data-name="&lt;Контур&gt;" class="cls-48" points="75.66 8.54 108.72 27.56 108.72 68.07 75.66 49.05 75.66 8.54"/><polygon id="_Контур_73" data-name="&lt;Контур&gt;" class="cls-8" points="125.69 56.54 107.54 67.09 107.54 69.81 108.19 70.21 126.34 56.95 125.69 56.54"/><polygon id="_Контур_74" data-name="&lt;Контур&gt;" class="cls-7" points="126.34 56.95 108.19 67.5 108.19 70.21 126.34 59.67 126.34 56.95"/><g id="_Группа_12" data-name="&lt;Группа&gt;"><path id="_Контур_75" data-name="&lt;Контур&gt;" class="cls-26" d="M112.49,66.29v.43a.56.56,0,0,1-.28.47l-1.84,1.07a.22.22,0,0,1-.33-.19V68l1.54-.9a.56.56,0,0,0,.28-.47v-.31l.3-.17A.22.22,0,0,1,112.49,66.29Z"/><path id="_Контур_76" data-name="&lt;Контур&gt;" class="cls-49" d="M111.86,66.27v.31a.56.56,0,0,1-.28.47L110,68v-.31a.56.56,0,0,1,.28-.47Z"/></g><g id="_Группа_13" data-name="&lt;Группа&gt;"><path id="_Контур_77" data-name="&lt;Контур&gt;" class="cls-26" d="M125.48,58.61V59a.56.56,0,0,1-.28.47l-1.84,1.07a.22.22,0,0,1-.33-.19v-.12l1.54-.9a.56.56,0,0,0,.28-.47v-.31l.3-.17A.22.22,0,0,1,125.48,58.61Z"/><path id="_Контур_78" data-name="&lt;Контур&gt;" class="cls-49" d="M124.85,58.59v.31a.56.56,0,0,1-.28.47l-1.54.9V60a.56.56,0,0,1,.28-.47Z"/></g><g id="_Группа_14" data-name="&lt;Группа&gt;"><path id="_Контур_79" data-name="&lt;Контур&gt;" class="cls-26" d="M121.15,61.17v.43a.56.56,0,0,1-.28.47L119,63.14a.22.22,0,0,1-.33-.19v-.12l1.54-.9a.56.56,0,0,0,.28-.47v-.31l.3-.17A.22.22,0,0,1,121.15,61.17Z"/><path id="_Контур_80" data-name="&lt;Контур&gt;" class="cls-49" d="M120.52,61.15v.31a.56.56,0,0,1-.28.47l-1.54.9v-.31A.56.56,0,0,1,119,62Z"/></g><g id="_Группа_15" data-name="&lt;Группа&gt;"><path id="_Контур_81" data-name="&lt;Контур&gt;" class="cls-26" d="M116.82,63.73v.43a.56.56,0,0,1-.28.47l-1.84,1.07a.22.22,0,0,1-.33-.19v-.12l1.54-.9a.56.56,0,0,0,.28-.47v-.31l.3-.17A.22.22,0,0,1,116.82,63.73Z"/><path id="_Контур_82" data-name="&lt;Контур&gt;" class="cls-49" d="M116.19,63.71V64a.56.56,0,0,1-.28.47l-1.54.9v-.31a.56.56,0,0,1,.28-.47Z"/></g><path id="_Контур_83" data-name="&lt;Контур&gt;" class="cls-23" d="M167.12,39.25l-4.69-2.65s2.76-.7,3.82.6S167.12,39.25,167.12,39.25Z"/><g id="_Группа_16" data-name="&lt;Группа&gt;"><path id="_Контур_84" data-name="&lt;Контур&gt;" class="cls-46" d="M145.35,59.13l-6.6-3.73c2.39-16.21,11.45-24,17.7-24.26,3.36-.16,9.89,4.26,11.23,5.93l-5.24-.47c-.41-1.66,2,.44-.49,1C157.79,38.66,148.77,43.68,145.35,59.13Z"/></g><g id="_Группа_17" data-name="&lt;Группа&gt;"><path id="_Контур_85" data-name="&lt;Контур&gt;" class="cls-39" d="M146.85,59.35l-1.5-.22c2.39-16.21,12.55-22.52,18.8-22.81,3.36-.16,3.86.17,4.45,2.57l-1.47.36c-.41-1.66-.33-1.54-2.9-1.42C158.47,38.1,149.1,44,146.85,59.35Z"/></g><polygon id="_Контур_86" data-name="&lt;Контур&gt;" class="cls-22" points="126.34 56.27 122.15 58.68 122.15 32.71 126.34 30.3 126.34 56.27"/><polygon id="_Контур_87" data-name="&lt;Контур&gt;" class="cls-50" points="155.17 35.91 153.62 36.8 152.38 36.09 153.93 35.2 155.17 35.91"/><g id="_Группа_18" data-name="&lt;Группа&gt;"><polygon id="_Контур_88" data-name="&lt;Контур&gt;" class="cls-51" points="155.95 35.48 154.4 36.38 153.15 35.66 154.71 34.77 155.95 35.48"/><polygon id="_Контур_89" data-name="&lt;Контур&gt;" class="cls-49" points="155.95 35.48 155.95 36.36 154.4 37.26 154.4 36.38 155.95 35.48 155.95 35.48"/><polygon id="_Контур_90" data-name="&lt;Контур&gt;" class="cls-52" points="154.4 36.38 154.4 37.26 153.15 36.54 153.15 35.66 154.4 36.38"/></g><g id="_Группа_19" data-name="&lt;Группа&gt;"><path id="_Контур_91" data-name="&lt;Контур&gt;" class="cls-53" d="M137.55,45.85v1c0,1.15,1.43,2.09,3.2,2.09S144,48,144,46.89V45.75Z"/><path id="_Контур_92" data-name="&lt;Контур&gt;" class="cls-54" d="M137.19,44.2v1.16c0,1.28,1.6,2.32,3.56,2.32s3.56-1,3.56-2.32V44.09Z"/><ellipse id="_Контур_93" data-name="&lt;Контур&gt;" class="cls-13" cx="140.75" cy="44.2" rx="3.56" ry="2.32"/><path id="_Контур_94" data-name="&lt;Контур&gt;" class="cls-55" d="M137.55,40.91v2.88c0,1.15,1.43,2.09,3.2,2.09s3.2-.93,3.2-2.09v-3Z"/><path id="_Контур_95" data-name="&lt;Контур&gt;" class="cls-56" d="M137.19,38.86V40c0,1.28,1.6,2.32,3.56,2.32s3.56-1,3.56-2.32V38.74Z"/><ellipse id="_Контур_96" data-name="&lt;Контур&gt;" class="cls-13" cx="140.75" cy="38.86" rx="3.56" ry="2.32"/><path id="_Контур_97" data-name="&lt;Контур&gt;" class="cls-57" d="M137.55,37.57v1c0,1.15,1.43,2.09,3.2,2.09s3.2-.93,3.2-2.09V37.46Z"/><ellipse id="_Контур_98" data-name="&lt;Контур&gt;" class="cls-5" cx="140.75" cy="37.57" rx="3.2" ry="2.09"/></g><g id="_Группа_20" data-name="&lt;Группа&gt;"><path id="_Контур_99" data-name="&lt;Контур&gt;" class="cls-58" d="M122.19,28.61V58.2c0,.75.94,1.36,2.09,1.36s2.09-.61,2.09-1.36V28.55Z"/><ellipse id="_Контур_100" data-name="&lt;Контур&gt;" class="cls-5" cx="124.28" cy="28.61" rx="2.09" ry="1.36"/></g><g id="_Группа_21" data-name="&lt;Группа&gt;"><path id="_Контур_101" data-name="&lt;Контур&gt;" class="cls-6" d="M125.33,22.21v6.16a1.15,1.15,0,0,1-1.06.5,1.48,1.48,0,0,1-.49-.07,1.06,1.06,0,0,1-.47-.27V23.28a3.3,3.3,0,0,0-.11-1,.14.14,0,0,0,0-.06A.43.43,0,0,0,123,22c-.21-.1-.52,0-.89-.18L122,21.5l-.25-1.09L121.46,19l-.09-.37h0l.7-.07a6,6,0,0,1,1.79.34C125.08,19.41,125.33,20.42,125.33,22.21Z"/><path id="_Контур_102" data-name="&lt;Контур&gt;" class="cls-7" d="M123.78,23.86v4.94a1.06,1.06,0,0,1-.47-.27V23.28a3.3,3.3,0,0,0-.11-1,.14.14,0,0,0,0-.06A.43.43,0,0,0,123,22c-.21-.1-.52,0-.89-.18L122,21.5l-.25-1.09a3.71,3.71,0,0,1,.54.17C123.53,21,123.78,22.06,123.78,23.86Z"/><path id="_Контур_103" data-name="&lt;Контур&gt;" class="cls-8" d="M123.86,18.93a6,6,0,0,0-1.79-.34l-.7.07h0l.09.37.09.41h0a6,6,0,0,1,1.79.34c1.21.48,1.47,1.49,1.47,3.28v5.69a.87.87,0,0,0,.5-.39V22.21C125.33,20.42,125.08,19.41,123.86,18.93Z"/><path id="_Контур_104" data-name="&lt;Контур&gt;" class="cls-9" d="M120.7,19.54A3.19,3.19,0,0,0,122.24,22c.85.49,1.54.2,1.54-.65a1.62,1.62,0,0,0,0-.29,3.33,3.33,0,0,0-1.51-2.14l-.18-.09C121.29,18.44,120.7,18.75,120.7,19.54Z"/><path id="_Контур_105" data-name="&lt;Контур&gt;" class="cls-7" d="M123.46,21.14a.74.74,0,0,1-.17.52c-.21.24-.6.25-1,0A2.55,2.55,0,0,1,121,19.73c0-.63.47-.87,1.07-.59l.14.07.17.11a2.64,2.64,0,0,1,1,1.58A.94.94,0,0,1,123.46,21.14Z"/><path id="_Контур_106" data-name="&lt;Контур&gt;" class="cls-10" d="M123.46,21.14a.74.74,0,0,1-.17.52,2.48,2.48,0,0,1-1-1.8.75.75,0,0,1,.17-.53,2.64,2.64,0,0,1,1,1.58A.94.94,0,0,1,123.46,21.14Z"/></g><g id="_Группа_22" data-name="&lt;Группа&gt;"><path id="_Контур_107" data-name="&lt;Контур&gt;" class="cls-59" d="M163.63,31.2v1.35a.59.59,0,0,1-.32.53c-.17.09-1.07.76-1.26.65l-3-3.62a1.58,1.58,0,0,1-.8-1.37l-1.59-.66c0-.2,1-.63,1.12-.73l.06,0a.59.59,0,0,1,.59,0l4.41,2.51A1.58,1.58,0,0,1,163.63,31.2Z"/><path id="_Контур_108" data-name="&lt;Контур&gt;" class="cls-60" d="M162.53,31.84v1.35a.59.59,0,0,1-.89.51l-4.41-2.51a1.58,1.58,0,0,1-.8-1.37V28.48a.59.59,0,0,1,.89-.51l4.41,2.51A1.58,1.58,0,0,1,162.53,31.84Z"/></g><polygon id="_Контур_109" data-name="&lt;Контур&gt;" class="cls-48" points="83.41 11.72 83.41 14.94 98.98 23.67 98.98 20.72 83.41 11.72"/><path id="_Контур_110" data-name="&lt;Контур&gt;" class="cls-61" d="M148.41,12.52l-3.08,1.77a43.56,43.56,0,0,0-7.87-3.59l-1.92-.63L134,9.8c.39-.64,3-1.54,3.76-1.39l2.87.55A40.7,40.7,0,0,1,148.41,12.52Z"/><path id="_Контур_111" data-name="&lt;Контур&gt;" class="cls-62" d="M95,71.77l9.92,5.64a2.49,2.49,0,0,0-.23-3c-1.26-1.69-4-3.11-4.71-2.79S95,71.77,95,71.77Z"/><g id="_Группа_23" data-name="&lt;Группа&gt;"><g id="_Группа_24" data-name="&lt;Группа&gt;"><path id="_Контур_112" data-name="&lt;Контур&gt;" class="cls-63" d="M45.41,65.37a5,5,0,0,0,1.94,4.43c1.63,1.09,5.12,3,5.12,3C57.38,69.95,67,60.11,67,55.2c0-2.13-4.59-3.75-5.85-4.56-1.63-1-4.1-.89-6.88.71C49.39,54.19,45.41,60.46,45.41,65.37Z"/><path id="_Контур_113" data-name="&lt;Контур&gt;" class="cls-32" d="M50.22,68.17c0,4.91,4,6.59,8.88,3.76S68,62.82,68,57.91s-4-6.59-8.88-3.76S50.22,63.26,50.22,68.17Z"/><path id="_Контур_114" data-name="&lt;Контур&gt;" class="cls-64" d="M51.09,68.57A5,5,0,0,0,53,73c1.63,1.09,5.12,3,5.12,3C63.06,73.15,72.7,63.31,72.7,58.4c0-2.13-4.59-3.75-5.85-4.56-1.63-1-4.1-.89-6.88.71C55.06,57.39,51.09,63.66,51.09,68.57Z"/><path id="_Контур_115" data-name="&lt;Контур&gt;" class="cls-32" d="M55.89,71.37c0,4.91,4,6.59,8.88,3.76s8.88-9.11,8.88-14-4-6.59-8.88-3.76S55.89,66.46,55.89,71.37Z"/><path id="_Контур_116" data-name="&lt;Контур&gt;" class="cls-65" d="M58.52,69.38c0,3.26,2.64,4.37,5.9,2.49s5.9-6,5.9-9.3-2.64-4.37-5.9-2.49S58.52,66.12,58.52,69.38Z"/><path id="_Контур_117" data-name="&lt;Контур&gt;" class="cls-34" d="M58.88,69.65c0,3.26,2.64,4.37,5.9,2.49s5.9-6,5.9-9.3-2.64-4.37-5.9-2.49S58.88,66.39,58.88,69.65Z"/><path id="_Контур_118" data-name="&lt;Контур&gt;" class="cls-66" d="M70.06,63.19c0,2.92-2.37,6.66-5.29,8.35s-5.29.68-5.29-2.24a5.56,5.56,0,0,1,.09-1A11.45,11.45,0,0,1,64.77,61c.21-.12.42-.23.63-.32C68,59.41,70.06,60.48,70.06,63.19Z"/><path id="_Контур_119" data-name="&lt;Контур&gt;" class="cls-36" d="M67.49,62.88v0a8.28,8.28,0,0,1-4,6.31,4.62,4.62,0,0,1-1.17.51,2,2,0,0,1-2.61-1,1.65,1.65,0,0,1-.13-.39,7.72,7.72,0,0,1,.29-1.2A11.88,11.88,0,0,1,64,61.45a8.68,8.68,0,0,1,.75-.5l.53-.27.1-.05C66.63,60.58,67.47,61.39,67.49,62.88Z"/><path id="_Контур_120" data-name="&lt;Контур&gt;" class="cls-67" d="M67.13,62.33c0,2.17-2.74,6.12-4.92,7.41l0,0-.09,0a.93.93,0,0,1-.28-.09l-.11,0a13.72,13.72,0,0,1-2-.89,1.65,1.65,0,0,1-.13-.39,7.72,7.72,0,0,1,.29-1.2A11.88,11.88,0,0,1,64,61.45a8.68,8.68,0,0,1,.75-.5l.53-.27a13.61,13.61,0,0,1,1.6,1.4h0Z"/><path id="_Контур_121" data-name="&lt;Контур&gt;" class="cls-9" d="M67.64,63.78a7.16,7.16,0,0,1-3.45,5.45c-1.9,1.1-3.45.44-3.45-1.46a3.63,3.63,0,0,1,.06-.65,7.47,7.47,0,0,1,3.39-4.8l.41-.21C66.31,61.32,67.64,62,67.64,63.78Z"/><path id="_Контур_122" data-name="&lt;Контур&gt;" class="cls-68" d="M66,64.92a3.49,3.49,0,0,1-1.68,2.65c-.93.53-1.68.22-1.68-.71a1.77,1.77,0,0,1,0-.32,3.64,3.64,0,0,1,1.65-2.34l.2-.1C65.35,63.72,66,64.06,66,64.92Z"/><path id="_Контур_123" data-name="&lt;Контур&gt;" class="cls-36" d="M64.56,65.15a1.4,1.4,0,0,1-.67,1.06c-.37.21-.67.09-.67-.28a.71.71,0,0,1,0-.13,1.46,1.46,0,0,1,.66-.94l.08,0C64.3,64.67,64.56,64.8,64.56,65.15Z"/></g><g id="_Группа_25" data-name="&lt;Группа&gt;"><path id="_Контур_124" data-name="&lt;Контур&gt;" class="cls-69" d="M25,77.14A5,5,0,0,0,27,81.57c1.63,1.09,5.12,3,5.12,3C37,81.72,46.62,71.88,46.62,67c0-2.13-4.59-3.75-5.85-4.56-1.63-1-4.1-.89-6.88.71C29,66,25,72.24,25,77.14Z"/><path id="_Контур_125" data-name="&lt;Контур&gt;" class="cls-32" d="M29.81,79.95c0,4.91,4,6.59,8.88,3.76s8.88-9.11,8.88-14-4-6.59-8.88-3.76S29.81,75,29.81,79.95Z"/><path id="_Контур_126" data-name="&lt;Контур&gt;" class="cls-70" d="M30.68,80.35a5,5,0,0,0,1.94,4.43c1.63,1.09,5.12,3,5.12,3,4.91-2.83,14.54-12.67,14.54-17.58,0-2.13-4.59-3.75-5.85-4.56-1.63-1-4.1-.89-6.88.71C34.66,69.17,30.68,75.44,30.68,80.35Z"/><path id="_Контур_127" data-name="&lt;Контур&gt;" class="cls-32" d="M35.49,83.15c0,4.91,4,6.59,8.88,3.76s8.88-9.11,8.88-14-4-6.59-8.88-3.76S35.49,78.24,35.49,83.15Z"/><path id="_Контур_128" data-name="&lt;Контур&gt;" class="cls-71" d="M38.11,81.16c0,3.26,2.64,4.37,5.9,2.49s5.9-6,5.9-9.3S47.26,70,44,71.86,38.11,77.9,38.11,81.16Z"/><path id="_Контур_129" data-name="&lt;Контур&gt;" class="cls-34" d="M38.48,81.42c0,3.26,2.64,4.37,5.9,2.49s5.9-6,5.9-9.3-2.64-4.37-5.9-2.49S38.48,78.17,38.48,81.42Z"/><path id="_Контур_130" data-name="&lt;Контур&gt;" class="cls-72" d="M49.66,75c0,2.92-2.37,6.66-5.29,8.35s-5.29.68-5.29-2.24a5.55,5.55,0,0,1,.09-1,11.45,11.45,0,0,1,5.2-7.36c.21-.12.42-.23.63-.32C47.63,71.19,49.66,72.25,49.66,75Z"/><path id="_Контур_131" data-name="&lt;Контур&gt;" class="cls-36" d="M47.09,74.66v0a8.28,8.28,0,0,1-4,6.31,4.62,4.62,0,0,1-1.17.51,2,2,0,0,1-2.61-1,1.64,1.64,0,0,1-.13-.39,7.71,7.71,0,0,1,.29-1.2,11.88,11.88,0,0,1,4.16-5.66,8.7,8.7,0,0,1,.75-.5l.53-.27.1-.05C46.23,72.36,47.07,73.17,47.09,74.66Z"/><path id="_Контур_132" data-name="&lt;Контур&gt;" class="cls-73" d="M46.73,74.11c0,2.17-2.74,6.12-4.92,7.41l0,0-.09,0a.93.93,0,0,1-.28-.09l-.11,0a13.73,13.73,0,0,1-2-.89,1.64,1.64,0,0,1-.13-.39,7.71,7.71,0,0,1,.29-1.2,11.88,11.88,0,0,1,4.16-5.66,8.7,8.7,0,0,1,.75-.5l.53-.27a13.59,13.59,0,0,1,1.6,1.4h0Z"/><path id="_Контур_133" data-name="&lt;Контур&gt;" class="cls-9" d="M47.23,75.56A7.16,7.16,0,0,1,43.78,81c-1.9,1.1-3.45.44-3.45-1.46a3.63,3.63,0,0,1,.06-.65,7.47,7.47,0,0,1,3.39-4.8l.41-.21C45.91,73.1,47.23,73.79,47.23,75.56Z"/><path id="_Контур_134" data-name="&lt;Контур&gt;" class="cls-74" d="M45.59,76.7a3.49,3.49,0,0,1-1.68,2.65c-.93.53-1.68.22-1.68-.71a1.76,1.76,0,0,1,0-.32A3.64,3.64,0,0,1,43.91,76l.2-.1C44.95,75.5,45.59,75.84,45.59,76.7Z"/><path id="_Контур_135" data-name="&lt;Контур&gt;" class="cls-36" d="M44.16,76.93A1.4,1.4,0,0,1,43.48,78c-.37.21-.67.09-.67-.28a.7.7,0,0,1,0-.13,1.46,1.46,0,0,1,.66-.94l.08,0C43.9,76.45,44.16,76.58,44.16,76.93Z"/></g></g><g id="_Группа_26" data-name="&lt;Группа&gt;"><g id="_Группа_27" data-name="&lt;Группа&gt;"><path id="_Контур_136" data-name="&lt;Контур&gt;" class="cls-75" d="M67.15,55.15c-.21-2.07-.32.16-.32.16-2.38-1.56-7.81-5-7.84-5l-.46-1.45c.17-.05,4.22-1.31,7.21.65a5.81,5.81,0,0,1,.59.45c.64.55,7.49,4.24,7.88,5s-5.67-1.14-5.55,0Z"/></g><path id="_Контур_137" data-name="&lt;Контур&gt;" class="cls-62" d="M68.66,55,75,60.16a2.49,2.49,0,0,0-.23-3c-1.26-1.69-4-3.11-4.71-2.79Z"/><g id="_Группа_28" data-name="&lt;Группа&gt;"><path id="_Контур_138" data-name="&lt;Контур&gt;" class="cls-50" d="M75,60.16a5.6,5.6,0,0,0-2.24-4.38c-2.38-1.56-5.89-.49-5.93-.47l-.46-1.45c.17-.05,4.22-1.31,7.21.65A7,7,0,0,1,76.51,60Z"/></g><polygon id="_Контур_139" data-name="&lt;Контур&gt;" class="cls-76" points="66.37 53.86 58.53 48.85 58.99 50.29 66.83 55.31 66.37 53.86"/></g><polygon id="_Контур_140" data-name="&lt;Контур&gt;" class="cls-77" points="30.53 85.38 50.83 96.74 104.83 59.25 84.53 46.85 39.11 73.07 30.53 81.24 30.53 85.38"/><polygon id="_Контур_141" data-name="&lt;Контур&gt;" class="cls-78" points="39.11 73.07 59.41 85.4 50.83 93.62 30.53 81.24 39.11 73.07"/><polygon id="_Контур_142" data-name="&lt;Контур&gt;" class="cls-79" points="52.48 94.69 32.17 82.31 32.17 86.45 52.48 98.84 52.48 94.69"/><polygon id="_Контур_143" data-name="&lt;Контур&gt;" class="cls-23" points="50.83 97.77 104.83 66.02 104.83 59.24 59.41 85.4 50.83 93.62 50.83 97.77"/><g id="_Группа_29" data-name="&lt;Группа&gt;"><path id="_Контур_144" data-name="&lt;Контур&gt;" class="cls-80" d="M77,83.87A5,5,0,0,0,79,88.29c1.63,1.09,5.12,3,5.12,3C89,88.44,98.65,78.6,98.65,73.7c0-2.13-4.59-3.75-5.85-4.56-1.63-1-4.1-.89-6.88.71C81,72.69,77,79,77,83.87Z"/><path id="_Контур_145" data-name="&lt;Контур&gt;" class="cls-32" d="M81.85,86.67c0,4.91,4,6.59,8.88,3.76s8.88-9.11,8.88-14-4-6.59-8.88-3.76S81.85,81.76,81.85,86.67Z"/><path id="_Контур_146" data-name="&lt;Контур&gt;" class="cls-81" d="M82.71,87.07a5,5,0,0,0,1.94,4.43c1.63,1.09,5.12,3,5.12,3,4.91-2.83,14.54-12.67,14.54-17.58,0-2.13-4.59-3.75-5.85-4.56-1.63-1-4.1-.89-6.88.71C86.69,75.89,82.71,82.16,82.71,87.07Z"/><path id="_Контур_147" data-name="&lt;Контур&gt;" class="cls-32" d="M87.52,89.87c0,4.91,4,6.59,8.88,3.76s8.88-9.11,8.88-14-4-6.59-8.88-3.76S87.52,85,87.52,89.87Z"/><path id="_Контур_148" data-name="&lt;Контур&gt;" class="cls-82" d="M90.14,87.88c0,3.26,2.64,4.37,5.9,2.49s5.9-6,5.9-9.3S99.3,76.7,96,78.58,90.14,84.62,90.14,87.88Z"/><path id="_Контур_149" data-name="&lt;Контур&gt;" class="cls-34" d="M90.51,88.15c0,3.26,2.64,4.37,5.9,2.49s5.9-6,5.9-9.3S99.66,77,96.4,78.85,90.51,84.89,90.51,88.15Z"/><path id="_Контур_150" data-name="&lt;Контур&gt;" class="cls-83" d="M101.69,81.69c0,2.92-2.37,6.66-5.29,8.35s-5.29.68-5.29-2.24a5.55,5.55,0,0,1,.09-1,11.45,11.45,0,0,1,5.2-7.36c.21-.12.42-.23.63-.32C99.66,77.91,101.69,79,101.69,81.69Z"/><path id="_Контур_151" data-name="&lt;Контур&gt;" class="cls-36" d="M99.12,81.38v0a8.28,8.28,0,0,1-4,6.31,4.62,4.62,0,0,1-1.17.51,2,2,0,0,1-2.61-1,1.64,1.64,0,0,1-.13-.39,7.71,7.71,0,0,1,.29-1.2,11.88,11.88,0,0,1,4.16-5.66,8.71,8.71,0,0,1,.75-.5l.53-.27.1-.05C98.26,79.08,99.1,79.89,99.12,81.38Z"/><path id="_Контур_152" data-name="&lt;Контур&gt;" class="cls-84" d="M98.76,80.83c0,2.17-2.74,6.12-4.92,7.41l0,0-.09,0a.93.93,0,0,1-.28-.09l-.11,0a13.71,13.71,0,0,1-2-.89,1.64,1.64,0,0,1-.13-.39,7.71,7.71,0,0,1,.29-1.2,11.88,11.88,0,0,1,4.16-5.66,8.71,8.71,0,0,1,.75-.5l.53-.27a13.59,13.59,0,0,1,1.6,1.4h0Z"/><path id="_Контур_153" data-name="&lt;Контур&gt;" class="cls-9" d="M99.27,82.28a7.16,7.16,0,0,1-3.45,5.45c-1.9,1.1-3.45.44-3.45-1.46a3.62,3.62,0,0,1,.06-.65,7.47,7.47,0,0,1,3.39-4.8l.41-.21C97.94,79.82,99.27,80.51,99.27,82.28Z"/><path id="_Контур_154" data-name="&lt;Контур&gt;" class="cls-85" d="M97.63,83.42a3.49,3.49,0,0,1-1.68,2.65c-.93.53-1.68.22-1.68-.71a1.77,1.77,0,0,1,0-.32,3.64,3.64,0,0,1,1.65-2.34l.2-.1C97,82.22,97.63,82.56,97.63,83.42Z"/><path id="_Контур_155" data-name="&lt;Контур&gt;" class="cls-36" d="M96.19,83.65a1.4,1.4,0,0,1-.67,1.06c-.37.21-.67.09-.67-.28a.7.7,0,0,1,0-.13,1.46,1.46,0,0,1,.66-.94l.08,0C95.93,83.17,96.19,83.3,96.19,83.65Z"/></g><g id="_Группа_30" data-name="&lt;Группа&gt;"><g id="_Группа_31" data-name="&lt;Группа&gt;"><path id="_Контур_156" data-name="&lt;Контур&gt;" class="cls-46" d="M97,72.4c-.21-2.07-.32.16-.32.16-2.38-1.56-7.81-5-7.84-5L88.4,66.1c.17-.05,4.22-1.31,7.21.65a5.81,5.81,0,0,1,.59.45c.64.55,7.49,4.24,7.88,5s-5.67-1.14-5.55,0Z"/></g><g id="_Группа_32" data-name="&lt;Группа&gt;"><path id="_Контур_157" data-name="&lt;Контур&gt;" class="cls-39" d="M104.87,77.42A5.6,5.6,0,0,0,102.63,73c-2.38-1.56-5.89-.49-5.93-.47l-.46-1.45c.17-.05,4.22-1.31,7.21.65a7,7,0,0,1,2.92,5.5Z"/></g><polygon id="_Контур_158" data-name="&lt;Контур&gt;" class="cls-76" points="96.24 71.11 88.4 66.1 88.86 67.55 96.7 72.56 96.24 71.11"/></g><g id="_Группа_33" data-name="&lt;Группа&gt;"><polygon id="_Контур_159" data-name="&lt;Контур&gt;" class="cls-86" points="53.18 65.64 75.2 52.92 87.81 60.09 65.78 72.8 53.18 65.64"/><ellipse id="_Контур_160" data-name="&lt;Контур&gt;" class="cls-77" cx="70.85" cy="60.96" rx="7.51" ry="4.89"/><polygon id="_Контур_161" data-name="&lt;Контур&gt;" class="cls-78" points="65.1 72.46 87.12 59.74 88.45 62.36 63.77 76.61 65.1 72.46"/><polygon id="_Контур_162" data-name="&lt;Контур&gt;" class="cls-23" points="52.49 65.3 65.1 72.46 63.77 76.61 51.17 69.45 52.49 65.3"/><g id="_Группа_34" data-name="&lt;Группа&gt;"><path id="_Контур_163" data-name="&lt;Контур&gt;" class="cls-87" d="M66.81,60.19v2.15c0,1.45,1.81,2.63,4,2.63s4-1.18,4-2.63V60.06Z"/><path id="_Контур_164" data-name="&lt;Контур&gt;" class="cls-88" d="M63.34,58.16v1c0,2.7,3.36,4.89,7.51,4.89s7.51-2.19,7.51-4.89v-1.2Z"/><ellipse id="_Контур_165" data-name="&lt;Контур&gt;" class="cls-89" cx="70.85" cy="58.16" rx="7.51" ry="4.89"/></g></g><g id="_Группа_35" data-name="&lt;Группа&gt;"><path id="_Контур_166" data-name="&lt;Контур&gt;" class="cls-90" d="M56.64,95.64a5,5,0,0,0,1.94,4.43c1.63,1.09,5.12,3,5.12,3,4.91-2.83,14.54-12.67,14.54-17.58,0-2.13-4.59-3.75-5.85-4.56-1.63-1-4.1-.89-6.88.71C60.61,84.46,56.64,90.74,56.64,95.64Z"/><path id="_Контур_167" data-name="&lt;Контур&gt;" class="cls-32" d="M61.44,98.44c0,4.91,4,6.59,8.88,3.76s8.88-9.11,8.88-14-4-6.59-8.88-3.76S61.44,93.54,61.44,98.44Z"/><path id="_Контур_168" data-name="&lt;Контур&gt;" class="cls-91" d="M62.31,98.85a5,5,0,0,0,1.94,4.43c1.63,1.09,5.12,3,5.12,3,4.91-2.83,14.54-12.67,14.54-17.58,0-2.13-4.59-3.75-5.85-4.56-1.63-1-4.1-.89-6.88.71C66.29,87.67,62.31,93.94,62.31,98.85Z"/><path id="_Контур_169" data-name="&lt;Контур&gt;" class="cls-32" d="M67.12,101.65c0,4.91,4,6.59,8.88,3.76s8.88-9.11,8.88-14-4-6.59-8.88-3.76S67.12,96.74,67.12,101.65Z"/><path id="_Контур_170" data-name="&lt;Контур&gt;" class="cls-92" d="M69.74,99.66c0,3.26,2.64,4.37,5.9,2.49s5.9-6,5.9-9.3-2.64-4.37-5.9-2.49S69.74,96.4,69.74,99.66Z"/><path id="_Контур_171" data-name="&lt;Контур&gt;" class="cls-34" d="M70.1,99.92c0,3.26,2.64,4.37,5.9,2.49s5.9-6,5.9-9.3-2.64-4.37-5.9-2.49S70.1,96.67,70.1,99.92Z"/><path id="_Контур_172" data-name="&lt;Контур&gt;" class="cls-93" d="M81.29,93.47c0,2.92-2.37,6.66-5.29,8.35s-5.29.68-5.29-2.24a5.56,5.56,0,0,1,.09-1A11.45,11.45,0,0,1,76,91.23c.21-.12.42-.23.63-.32C79.26,89.69,81.29,90.75,81.29,93.47Z"/><path id="_Контур_173" data-name="&lt;Контур&gt;" class="cls-36" d="M78.72,93.16v0a8.28,8.28,0,0,1-4,6.31,4.62,4.62,0,0,1-1.17.51,2,2,0,0,1-2.61-1,1.64,1.64,0,0,1-.13-.39,7.72,7.72,0,0,1,.29-1.2,11.88,11.88,0,0,1,4.16-5.66,8.68,8.68,0,0,1,.75-.5l.53-.27.1-.05C77.86,90.86,78.7,91.66,78.72,93.16Z"/><path id="_Контур_174" data-name="&lt;Контур&gt;" class="cls-94" d="M78.36,92.61c0,2.17-2.74,6.12-4.92,7.41l0,0-.09,0a.93.93,0,0,1-.28-.09l-.11,0a13.71,13.71,0,0,1-2-.89,1.64,1.64,0,0,1-.13-.39,7.72,7.72,0,0,1,.29-1.2,11.88,11.88,0,0,1,4.16-5.66,8.68,8.68,0,0,1,.75-.5l.53-.27a13.61,13.61,0,0,1,1.6,1.4h0Z"/><path id="_Контур_175" data-name="&lt;Контур&gt;" class="cls-9" d="M78.86,94.06a7.16,7.16,0,0,1-3.45,5.45C73.51,100.6,72,99.95,72,98A3.62,3.62,0,0,1,72,97.4a7.47,7.47,0,0,1,3.39-4.8l.41-.21C77.54,91.6,78.86,92.29,78.86,94.06Z"/><path id="_Контур_176" data-name="&lt;Контур&gt;" class="cls-95" d="M77.22,95.2a3.49,3.49,0,0,1-1.68,2.65c-.93.53-1.68.22-1.68-.71a1.77,1.77,0,0,1,0-.32,3.64,3.64,0,0,1,1.65-2.34l.2-.1C76.58,94,77.22,94.34,77.22,95.2Z"/><path id="_Контур_177" data-name="&lt;Контур&gt;" class="cls-36" d="M75.78,95.43a1.4,1.4,0,0,1-.67,1.06c-.37.21-.67.09-.67-.28a.71.71,0,0,1,0-.13,1.46,1.46,0,0,1,.66-.94l.08,0C75.53,94.95,75.78,95.08,75.78,95.43Z"/></g><g id="_Группа_36" data-name="&lt;Группа&gt;"><polygon id="_Контур_178" data-name="&lt;Контур&gt;" class="cls-28" points="53.93 97.29 55.76 96.35 23 76.8 21.17 77.74 53.93 97.29"/><polygon id="_Контур_179" data-name="&lt;Контур&gt;" class="cls-96" points="53.93 102.49 55.76 101.54 55.76 96.35 53.93 97.29 53.93 102.49"/><polygon id="_Контур_180" data-name="&lt;Контур&gt;" class="cls-97" points="21.17 77.74 53.93 97.29 53.93 102.49 21.17 82.93 21.17 77.74"/><g id="_Группа_37" data-name="&lt;Группа&gt;"><g id="_Группа_38" data-name="&lt;Группа&gt;"><polygon id="_Контур_181" data-name="&lt;Контур&gt;" class="cls-98" points="21.53 79.63 22.64 79.04 21.4 78.32 20.29 78.92 21.53 79.63"/><polygon id="_Контур_182" data-name="&lt;Контур&gt;" class="cls-99" points="21.53 83.88 22.64 83.28 22.64 79.04 21.53 79.63 21.53 83.88"/><polygon id="_Контур_183" data-name="&lt;Контур&gt;" class="cls-100" points="20.29 78.92 21.53 79.63 21.53 83.88 20.29 83.16 20.29 78.92"/></g><g id="_Группа_39" data-name="&lt;Группа&gt;"><polygon id="_Контур_184" data-name="&lt;Контур&gt;" class="cls-101" points="22.76 80.33 23.87 79.73 22.63 79.02 21.52 79.61 22.76 80.33"/><polygon id="_Контур_185" data-name="&lt;Контур&gt;" class="cls-99" points="22.76 84.57 23.87 83.98 23.87 79.73 22.76 80.33 22.76 84.57"/><polygon id="_Контур_186" data-name="&lt;Контур&gt;" class="cls-102" points="21.52 79.61 22.76 80.33 22.76 84.57 21.52 83.85 21.52 79.61"/></g><g id="_Группа_40" data-name="&lt;Группа&gt;"><polygon id="_Контур_187" data-name="&lt;Контур&gt;" class="cls-103" points="25.73 82.05 26.84 81.46 23.88 79.73 22.77 80.33 25.73 82.05"/><polygon id="_Контур_188" data-name="&lt;Контур&gt;" class="cls-104" points="25.73 86.29 26.84 85.7 26.84 81.46 25.73 82.05 25.73 86.29"/><polygon id="_Контур_189" data-name="&lt;Контур&gt;" class="cls-105" points="22.77 80.33 25.73 82.05 25.73 86.29 22.77 84.57 22.77 80.33"/></g></g></g><g id="_Группа_41" data-name="&lt;Группа&gt;"><polygon id="_Контур_190" data-name="&lt;Контур&gt;" class="cls-27" points="100.13 35.64 98.47 45.83 98.47 54.73 96.87 55.62 95.31 62.86 102.96 58.3 101.79 34.68 100.13 35.64"/><polygon id="_Контур_191" data-name="&lt;Контур&gt;" class="cls-7" points="79.8 43.93 98.47 54.73 96.87 55.62 78.2 44.83 79.8 43.93"/><polygon id="_Контур_192" data-name="&lt;Контур&gt;" class="cls-97" points="79.8 43.93 98.47 54.73 98.47 45.83 79.8 35.04 79.8 43.93"/><polygon id="_Контур_193" data-name="&lt;Контур&gt;" class="cls-106" points="81.47 24.86 100.13 35.65 98.47 45.83 79.8 35.04 81.47 24.86"/><polygon id="_Контур_194" data-name="&lt;Контур&gt;" class="cls-97" points="76.54 51.65 95.39 62.8 96.87 55.62 78.2 44.83 76.54 51.65"/><polygon id="_Контур_195" data-name="&lt;Контур&gt;" class="cls-7" points="101.79 34.68 100.13 35.65 81.47 24.86 83.13 23.89 101.79 34.68"/></g><g id="_Группа_42" data-name="&lt;Группа&gt;"><g id="_Группа_43" data-name="&lt;Группа&gt;"><polygon id="_Контур_196" data-name="&lt;Контур&gt;" class="cls-103" points="49.5 96.39 50.61 95.8 47.64 94.08 46.53 94.67 49.5 96.39"/><polygon id="_Контур_197" data-name="&lt;Контур&gt;" class="cls-99" points="49.5 100.64 50.61 100.05 50.61 95.8 49.5 96.39 49.5 100.64"/><polygon id="_Контур_198" data-name="&lt;Контур&gt;" class="cls-105" points="46.53 94.67 49.5 96.39 49.5 100.64 46.53 98.92 46.53 94.67"/></g><g id="_Группа_44" data-name="&lt;Группа&gt;"><polygon id="_Контур_199" data-name="&lt;Контур&gt;" class="cls-101" points="50.71 97.09 51.82 96.5 50.58 95.78 49.47 96.37 50.71 97.09"/><polygon id="_Контур_200" data-name="&lt;Контур&gt;" class="cls-99" points="50.71 101.33 51.82 100.74 51.82 96.5 50.71 97.09 50.71 101.33"/><polygon id="_Контур_201" data-name="&lt;Контур&gt;" class="cls-102" points="49.47 96.37 50.71 97.09 50.71 101.33 49.47 100.62 49.47 96.37"/></g><g id="_Группа_45" data-name="&lt;Группа&gt;"><polygon id="_Контур_202" data-name="&lt;Контур&gt;" class="cls-98" points="51.89 97.77 53 97.18 51.76 96.47 50.65 97.06 51.89 97.77"/><polygon id="_Контур_203" data-name="&lt;Контур&gt;" class="cls-99" points="51.89 102.02 53 101.42 53 97.18 51.89 97.77 51.89 102.02"/><polygon id="_Контур_204" data-name="&lt;Контур&gt;" class="cls-100" points="50.65 97.06 51.89 97.77 51.89 102.02 50.65 101.3 50.65 97.06"/></g></g><g id="_Группа_46" data-name="&lt;Группа&gt;"><path id="_Контур_205" data-name="&lt;Контур&gt;" class="cls-107" d="M37.34,93.52a2.13,2.13,0,0,1-1-1.64v-3c0-.59.44-.81,1-.5l7.27,4.25a2.13,2.13,0,0,1,1,1.64v3c0,.59-.44.81-1,.5Z"/><path id="_Контур_206" data-name="&lt;Контур&gt;" class="cls-108" d="M37.06,93.61a2.13,2.13,0,0,1-1-1.64V89c0-.59.44-.81,1-.5l7.27,4.25a2.13,2.13,0,0,1,1,1.64v3c0,.59-.44.81-1,.5Z"/><path id="_Контур_207" data-name="&lt;Контур&gt;" class="cls-109" d="M44.33,97.66l-7.27-4.25a1.73,1.73,0,0,1-.8-1.34v-3c0-.48.36-.66.8-.4l7.27,4.25a1.73,1.73,0,0,1,.8,1.34v3C45.12,97.74,44.77,97.92,44.33,97.66Z"/><g id="_Группа_47" data-name="&lt;Группа&gt;"><path id="_Контур_208" data-name="&lt;Контур&gt;" class="cls-110" d="M45.12,94.22a1.73,1.73,0,0,0-.79-1.31l-7.27-4.25c-.43-.25-.78-.08-.79.39Z"/><path id="_Контур_209" data-name="&lt;Контур&gt;" class="cls-110" d="M36.26,92.1a1.73,1.73,0,0,0,.79,1.31l7.27,4.25c.43.25.78.08.79-.39Z"/></g></g><g id="_Группа_48" data-name="&lt;Группа&gt;"><path id="_Контур_210" data-name="&lt;Контур&gt;" class="cls-111" d="M116.16,50.68A1.15,1.15,0,0,1,115,49.53V37.44a1.7,1.7,0,0,1,.85-1.47l2.38-1.37a1.15,1.15,0,0,1,1.73,1V47.68a1.7,1.7,0,0,1-.85,1.47l-2.38,1.37A1.16,1.16,0,0,1,116.16,50.68Z"/><path id="_Контур_211" data-name="&lt;Контур&gt;" class="cls-39" d="M119,48.8l-2.38,1.37a.75.75,0,0,1-1.12-.65V37.44a1.29,1.29,0,0,1,.65-1.12l2.38-1.37a.75.75,0,0,1,1.12.65V47.68A1.29,1.29,0,0,1,119,48.8Z"/></g><g id="_Группа_49" data-name="&lt;Группа&gt;"><path id="_Контур_212" data-name="&lt;Контур&gt;" class="cls-42" d="M109.42,10.26l-.81.52c-.22.14-.24.38-.47.25l-.36-.29c-.25-.14-.52-.67-.28-.82l.81-.51c.22-.14,1.1-.53,1.33-.39l.09,0C110,9.2,109.66,10.11,109.42,10.26Z"/><path id="_Контур_213" data-name="&lt;Контур&gt;" class="cls-43" d="M110.57,10.37l-1.29.82a.8.8,0,0,1-.82,0l-.31-.18c-.28-.16.09-1.31.35-1.47l.92-.08c.25-.15.63-.55.89-.4l.21.16A.9.9,0,0,1,110.57,10.37Z"/><path id="_Контур_214" data-name="&lt;Контур&gt;" class="cls-44" d="M110.25,9.65l-.81.52a.71.71,0,0,1-.73,0l-.1,0a.38.38,0,0,1,0-.65L109.4,9a.71.71,0,0,1,.73,0l.09,0A.38.38,0,0,1,110.25,9.65Z"/></g><g id="_Группа_50" data-name="&lt;Группа&gt;"><path id="_Контур_215" data-name="&lt;Контур&gt;" class="cls-42" d="M117.14,14.3l-.81.52c-.22.14-.24.38-.47.25l-.36-.29c-.25-.14-.52-.67-.28-.82l.81-.51c.22-.14,1.1-.53,1.33-.39l.09,0C117.71,13.24,117.38,14.15,117.14,14.3Z"/><path id="_Контур_216" data-name="&lt;Контур&gt;" class="cls-43" d="M118.29,14.41l-1.29.82a.8.8,0,0,1-.82,0l-.31-.18c-.28-.16.09-1.31.35-1.47l.92-.08c.25-.15.63-.55.89-.4l.21.16A.9.9,0,0,1,118.29,14.41Z"/><path id="_Контур_217" data-name="&lt;Контур&gt;" class="cls-44" d="M118,13.69l-.81.52a.71.71,0,0,1-.73,0l-.1,0a.38.38,0,0,1,0-.65l.81-.51a.71.71,0,0,1,.73,0l.09,0A.38.38,0,0,1,118,13.69Z"/></g><g id="_Группа_51" data-name="&lt;Группа&gt;"><path id="_Контур_218" data-name="&lt;Контур&gt;" class="cls-43" d="M153.15,28.45l-.73.36a.59.59,0,0,0-.32.53v.27a.34.34,0,0,0,.48.31l.73-.37a.59.59,0,0,0,.32-.53v-.27A.34.34,0,0,0,153.15,28.45Z"/><path id="_Контур_219" data-name="&lt;Контур&gt;" class="cls-44" d="M153.34,28.63l-.73.36a.59.59,0,0,0-.32.53v.27a.34.34,0,0,0,.48.31l.73-.37a.59.59,0,0,0,.32-.53v-.27A.34.34,0,0,0,153.34,28.63Z"/></g></g></g></g></g></svg>