<svg xmlns="http://www.w3.org/2000/svg" viewBox="0 0 82 86.6"><defs><style>.cls-1{isolation:isolate;}.cls-2{fill:#d4d4d4;}.cls-2,.cls-33{mix-blend-mode:multiply;}.cls-20,.cls-3{fill:#b37a00;}.cls-10,.cls-11,.cls-12,.cls-15,.cls-16,.cls-17,.cls-18,.cls-3,.cls-4,.cls-5,.cls-6,.cls-7,.cls-8,.cls-9{fill-rule:evenodd;}.cls-4{fill:#28272c;}.cls-5{fill:#18171d;}.cls-7{fill:#2e2d30;}.cls-8{fill:#1b1b1f;}.cls-9{fill:#3b3b3b;}.cls-10{fill:#d49332;}.cls-11{fill:#a76022;}.cls-12{fill:#edbb05;}.cls-13{fill:#f1c33a;}.cls-14{fill:#838383;}.cls-15{fill:#010007;}.cls-16,.cls-49{fill:#cecece;}.cls-17{fill:#a19e9c;}.cls-18{fill:#7c7774;}.cls-19{fill:#ffe057;}.cls-21{fill:#976305;}.cls-22{fill:#272727;}.cls-23{fill:#2f2f2f;}.cls-24{fill:#393939;}.cls-25{fill:#0e0e0e;}.cls-26{fill:#1d1d1d;}.cls-27{fill:#545557;}.cls-28{fill:#848484;}.cls-29{fill:#414245;}.cls-30{fill:#646566;}.cls-31{fill:#1e1e1e;}.cls-32{fill:#090909;}.cls-33{fill:#a1886f;}.cls-34{fill:#ffb700;}.cls-35{fill:#f7bb06;}.cls-36{fill:#c97735;}.cls-37{fill:#bc5705;}.cls-38{fill:#bd4d00;}.cls-39{fill:#e07705;}.cls-40{fill:#e09c05;}.cls-41{fill:#eda94d;}.cls-42{fill:#f1c435;}.cls-43{fill:#fae35a;}.cls-44{fill:#636363;}.cls-45{fill:#4a4a4a;}.cls-46{fill:#bfbfbf;}.cls-47{fill:#ffc534;}.cls-48{fill:#865200;}.cls-50{fill:#d6b163;}.cls-51{fill:#91693a;}.cls-52{fill:#b78841;}.cls-53{fill:#7d5129;}.cls-54{fill:#613f1f;}.cls-55{fill:#996232;}.cls-56{fill:#ad7e45;}.cls-57{fill:#a17f4c;}.cls-58{fill:#cfa658;}.cls-59{fill:none;stroke:#a05e00;stroke-miterlimit:10;stroke-width:0.15px;}.cls-60{fill:#a05e00;}.cls-61{fill:#f5df95;}.cls-62{fill:#fee9ab;}.cls-63{fill:#ababab;}.cls-64{fill:#595959;}.cls-65{fill:#dbc68a;}.cls-66{fill:#d2b371;}</style></defs><title>i9</title><g class="cls-1"><g id="Слой_2" data-name="Слой 2"><g id="Layer_1" data-name="Layer 1"><g id="_Группа_" data-name="&lt;Группа&gt;"><g id="_Группа_2" data-name="&lt;Группа&gt;"><path id="_Составной_контур_" data-name="&lt;Составной контур&gt;" class="cls-2" d="M59,41.48,60,41,32.2,27.24a6.31,6.31,0,0,0-6.36-.06L14.16,33.85a1.25,1.25,0,0,0-.2,2l14.32,13.7,5,3.84L12.15,41.24l-1.56,1L31.66,54.37,23.8,58.64l8.86,5L4,79.36l3.48,2.23,28.48-16,5.86,3.34L13.15,85,16,86.6,44.6,70.48,48,72.42l10.66-5.68L60.9,68,82,55.2Z"/><g id="_Группа_3" data-name="&lt;Группа&gt;"><g id="_Группа_4" data-name="&lt;Группа&gt;"><path id="_Контур_" data-name="&lt;Контур&gt;" class="cls-3" d="M78.15,44.66V51.9L71,57.31S71.14,46.63,78.15,44.66Z"/><g id="_Группа_5" data-name="&lt;Группа&gt;"><g id="_Группа_6" data-name="&lt;Группа&gt;"><g id="_Группа_7" data-name="&lt;Группа&gt;"><g id="_Группа_8" data-name="&lt;Группа&gt;"><path id="_Составной_контур_2" data-name="&lt;Составной контур&gt;" class="cls-4" d="M68.81,52.5C69,55,71.06,56,73.47,54.69a8.2,8.2,0,0,0,4.09-7c-.16-2.52-2.25-3.51-4.66-2.19A8.2,8.2,0,0,0,68.81,52.5Z"/><polygon id="_Контур_2" data-name="&lt;Контур&gt;" class="cls-4" points="80.17 47.73 76.2 45.27 77.45 47.72 80.17 47.73"/><polygon id="_Контур_3" data-name="&lt;Контур&gt;" class="cls-4" points="73.95 57.31 69.97 54.84 73.33 53.27 73.74 56.12 73.95 57.31"/><path id="_Составной_контур_3" data-name="&lt;Составной контур&gt;" class="cls-5" d="M72.78,55c.16,2.52,2.25,3.5,4.65,2.19a8.2,8.2,0,0,0,4.09-7c-.16-2.52-2.25-3.51-4.66-2.19A8.21,8.21,0,0,0,72.78,55Z"/><path id="_Составной_контур_4" data-name="&lt;Составной контур&gt;" class="cls-6" d="M74,54.29c.11,1.81,1.62,2.53,3.35,1.58a5.91,5.91,0,0,0,2.94-5c-.11-1.82-1.62-2.53-3.35-1.58A5.91,5.91,0,0,0,74,54.29Z"/><path id="_Составной_контур_5" data-name="&lt;Составной контур&gt;" class="cls-7" d="M72.78,55c.16,2.52,2.25,3.5,4.65,2.19a8.2,8.2,0,0,0,4.09-7c-.16-2.52-2.25-3.51-4.66-2.19A8.21,8.21,0,0,0,72.78,55Z"/><path id="_Составной_контур_6" data-name="&lt;Составной контур&gt;" class="cls-8" d="M73.2,54.72c.14,2.27,2,3.16,4.2,2a7.41,7.41,0,0,0,3.69-6.28c-.14-2.28-2-3.17-4.2-2A7.41,7.41,0,0,0,73.2,54.72Z"/></g></g><path id="_Составной_контур_7" data-name="&lt;Составной контур&gt;" class="cls-9" d="M74.24,54.15c.1,1.67,1.49,2.33,3.09,1.46A5.45,5.45,0,0,0,80,51c-.1-1.67-1.49-2.33-3.09-1.46A5.45,5.45,0,0,0,74.24,54.15Z"/><path id="_Составной_контур_8" data-name="&lt;Составной контур&gt;" class="cls-10" d="M74.45,53.83c.09,1.48,1.32,2.05,2.73,1.29A4.81,4.81,0,0,0,79.57,51c-.09-1.48-1.32-2.05-2.73-1.29A4.81,4.81,0,0,0,74.45,53.83Z"/><path id="_Составной_контур_9" data-name="&lt;Составной контур&gt;" class="cls-11" d="M74.53,53.78c.09,1.43,1.28,2,2.64,1.25a4.66,4.66,0,0,0,2.32-3.95c-.09-1.43-1.28-2-2.64-1.25A4.66,4.66,0,0,0,74.53,53.78Z"/><path id="_Составной_контур_10" data-name="&lt;Составной контур&gt;" class="cls-10" d="M74.68,53.7c.08,1.34,1.2,1.87,2.48,1.17a4.37,4.37,0,0,0,2.18-3.7c-.08-1.34-1.2-1.87-2.48-1.17A4.37,4.37,0,0,0,74.68,53.7Z"/><path id="_Составной_контур_11" data-name="&lt;Составной контур&gt;" class="cls-12" d="M74.82,53.63c.08,1.26,1.12,1.75,2.34,1.1a4.14,4.14,0,0,0,2-3.49C79.13,50,78.13,49.51,77,50.11c0,0,0,0-.08,0a4.09,4.09,0,0,0-2,3.08A1.73,1.73,0,0,0,74.82,53.63Z"/><path id="_Составной_контур_12" data-name="&lt;Составной контур&gt;" class="cls-10" d="M74.85,53.21c.23.5.82.63,1.47.27a2.84,2.84,0,0,0,1.44-2.42c0-.59-.36-.92-.8-.95,0,0,0,0-.08,0A4.09,4.09,0,0,0,74.85,53.21Z"/></g></g><g id="_Группа_9" data-name="&lt;Группа&gt;"><polygon id="_Контур_4" data-name="&lt;Контур&gt;" class="cls-13" points="50.02 19.83 57.48 15.52 57.48 27.41 50.02 31.73 50.02 19.83"/><polygon id="_Контур_5" data-name="&lt;Контур&gt;" class="cls-14" points="53.16 17.93 74.05 30.47 70.43 32.65 50.02 19.83 53.16 17.93"/><polygon id="_Контур_6" data-name="&lt;Контур&gt;" class="cls-13" points="33.4 41.34 32.1 42.09 32.1 41.34 33.4 41.34"/></g><g id="_Группа_10" data-name="&lt;Группа&gt;"><g id="_Группа_11" data-name="&lt;Группа&gt;"><g id="_Группа_12" data-name="&lt;Группа&gt;"><g id="_Группа_13" data-name="&lt;Группа&gt;"><path id="_Составной_контур_13" data-name="&lt;Составной контур&gt;" class="cls-4" d="M24.34,50.84c.16,2.52,2.25,3.5,4.65,2.19a8.2,8.2,0,0,0,4.09-7c-.16-2.52-2.25-3.51-4.66-2.19A8.2,8.2,0,0,0,24.34,50.84Z"/><polygon id="_Контур_7" data-name="&lt;Контур&gt;" class="cls-15" points="35.7 46.07 31.74 43.62 32.99 46.06 35.7 46.07"/><polygon id="_Контур_8" data-name="&lt;Контур&gt;" class="cls-4" points="29.48 55.65 25.5 53.18 28.86 51.61 29.27 54.47 29.48 55.65"/><path id="_Составной_контур_14" data-name="&lt;Составной контур&gt;" class="cls-5" d="M28.31,53.3c.16,2.52,2.25,3.5,4.65,2.19a8.2,8.2,0,0,0,4.09-7C36.89,46,34.8,45,32.39,46.34A8.2,8.2,0,0,0,28.31,53.3Z"/><path id="_Составной_контур_15" data-name="&lt;Составной контур&gt;" class="cls-6" d="M29.53,52.63c.11,1.81,1.62,2.53,3.35,1.58a5.91,5.91,0,0,0,2.94-5c-.11-1.82-1.62-2.53-3.35-1.58A5.91,5.91,0,0,0,29.53,52.63Z"/><path id="_Составной_контур_16" data-name="&lt;Составной контур&gt;" class="cls-7" d="M28.31,53.3c.16,2.52,2.25,3.5,4.65,2.19a8.2,8.2,0,0,0,4.09-7C36.89,46,34.8,45,32.39,46.34A8.2,8.2,0,0,0,28.31,53.3Z"/><path id="_Составной_контур_17" data-name="&lt;Составной контур&gt;" class="cls-8" d="M28.73,53.06c.14,2.27,2,3.17,4.2,2a7.41,7.41,0,0,0,3.69-6.28c-.14-2.27-2-3.17-4.2-2A7.41,7.41,0,0,0,28.73,53.06Z"/></g></g><path id="_Составной_контур_18" data-name="&lt;Составной контур&gt;" class="cls-9" d="M29.78,52.5c.1,1.67,1.49,2.33,3.09,1.46a5.45,5.45,0,0,0,2.71-4.62c-.1-1.67-1.49-2.33-3.09-1.46A5.45,5.45,0,0,0,29.78,52.5Z"/><path id="_Составной_контур_19" data-name="&lt;Составной контур&gt;" class="cls-16" d="M30,52.17c.09,1.48,1.32,2.05,2.73,1.29a4.81,4.81,0,0,0,2.39-4.08c-.09-1.48-1.32-2.05-2.73-1.29A4.81,4.81,0,0,0,30,52.17Z"/><path id="_Составной_контур_20" data-name="&lt;Составной контур&gt;" class="cls-17" d="M30.06,52.13c.09,1.43,1.28,2,2.64,1.25A4.66,4.66,0,0,0,35,49.42c-.09-1.43-1.28-2-2.64-1.25A4.66,4.66,0,0,0,30.06,52.13Z"/><path id="_Составной_контур_21" data-name="&lt;Составной контур&gt;" class="cls-16" d="M30.22,52c.08,1.34,1.2,1.87,2.48,1.17a4.37,4.37,0,0,0,2.18-3.7c-.08-1.34-1.2-1.87-2.48-1.17A4.37,4.37,0,0,0,30.22,52Z"/><path id="_Составной_контур_22" data-name="&lt;Составной контур&gt;" class="cls-18" d="M30.36,52c.08,1.26,1.12,1.75,2.34,1.1a4.14,4.14,0,0,0,2.05-3.49c-.08-1.22-1.08-1.73-2.25-1.13,0,0,0,0-.08,0a4.09,4.09,0,0,0-2,3.08A1.75,1.75,0,0,0,30.36,52Z"/><path id="_Составной_контур_23" data-name="&lt;Составной контур&gt;" class="cls-16" d="M30.38,51.56c.23.5.82.63,1.47.27a2.84,2.84,0,0,0,1.44-2.42c0-.59-.36-.92-.8-.95,0,0,0,0-.08,0A4.09,4.09,0,0,0,30.38,51.56Z"/></g></g><path id="_Контур_9" data-name="&lt;Контур&gt;" class="cls-19" d="M29.6,40.37,33,42.61l26.28-7.12V28.37a2.77,2.77,0,0,0-.7-1.84,2.83,2.83,0,0,0-3.43-.86Z"/><polygon id="_Контур_10" data-name="&lt;Контур&gt;" class="cls-20" points="47.94 58.4 50.76 60.02 47.94 63.18 47.94 58.4"/><path id="_Контур_11" data-name="&lt;Контур&gt;" class="cls-3" d="M62.51,65.07l-9.2-4.65,2.3-5.06s3.26-2.21,5.32-1.15C63.17,55.35,64.17,59.94,62.51,65.07Z"/><polygon id="_Контур_12" data-name="&lt;Контур&gt;" class="cls-21" points="32.78 46.51 47.94 55.36 47.94 63.18 32.78 54.33 32.78 46.51"/><polygon id="_Контур_13" data-name="&lt;Контур&gt;" class="cls-22" points="74.05 30.47 77.94 40.21 53 54.63 53 42.71 74.05 30.47"/><g id="_Группа_14" data-name="&lt;Группа&gt;"><path id="_Составной_контур_24" data-name="&lt;Составной контур&gt;" class="cls-23" d="M33.54,42.05,52.81,30.74V4A4,4,0,0,0,51.3.87l-.16-.1a.05.05,0,0,0,0,0,4,4,0,0,0-4.33-.2L36.64,6.4S33.32,20.39,33.54,42.05ZM38,8.45,47.43,3a.66.66,0,0,1,.36-.11.76.76,0,0,1,.76.75V28.44l-15,8.8C32.19,19.33,36.74,10.47,38,8.45Z"/><path id="_Контур_14" data-name="&lt;Контур&gt;" class="cls-24" d="M52.1,3.25A4,4,0,0,0,51.31.87,4,4,0,0,1,52.81,4V30.74L33.54,42.05c0-.39,0-.76-.08-1.14L52.1,30Z"/><path id="_Контур_15" data-name="&lt;Контур&gt;" class="cls-24" d="M47.83,2.88a.75.75,0,0,1,.72.75V28.44l-15,8.8c0-.4,0-.76-.07-1.15l14.32-8.42Z"/><polygon id="_Контур_16" data-name="&lt;Контур&gt;" class="cls-25" points="32.5 39.43 52.56 51.13 70.43 40.98 50.36 29.28 32.5 39.43"/><polygon id="_Контур_17" data-name="&lt;Контур&gt;" class="cls-26" points="50.36 17.36 70.43 29.06 70.43 40.98 50.36 29.28 50.36 17.36"/><polygon id="_Контур_18" data-name="&lt;Контур&gt;" class="cls-14" points="69.3 30.19 50.36 19.15 50.36 17.36 70.43 29.06 70.43 40.98 69.3 40.32 69.3 30.19"/><g id="_Группа_15" data-name="&lt;Группа&gt;"><path id="_Контур_19" data-name="&lt;Контур&gt;" class="cls-27" d="M43.67,36.39v1a1.14,1.14,0,0,0,.56,1L51,42.32a2.75,2.75,0,0,0,2.71,0l8.61-5V24.62a3,3,0,0,0-1.48-2.56l-6.93-4c-.61-.37-2.26.63-2.26,1.34l.88,12.33L48.5,34l-3.59,2.08Z"/><path id="_Контур_20" data-name="&lt;Контур&gt;" class="cls-27" d="M43.67,36.39v1a1.14,1.14,0,0,0,.56,1L51,42.32a2.75,2.75,0,0,0,2.71,0l8.61-5v-1l-.92.53-16.5-.72Z"/><path id="_Контур_21" data-name="&lt;Контур&gt;" class="cls-28" d="M57.84,28.3l-6.09-7.5-.1-1.45c0-.71,1.65-1.7,2.26-1.35l6.94,4a3,3,0,0,1,1.47,2.56L61,25.34Z"/><path id="_Контур_22" data-name="&lt;Контур&gt;" class="cls-29" d="M53,18.82l6.94,4a3,3,0,0,1,1.47,2.56v11.4l-9.79-5.64V19.61A.92.92,0,0,1,53,18.82Z"/><path id="_Контур_23" data-name="&lt;Контур&gt;" class="cls-30" d="M61.41,36.82l-7.68,4.43a2.73,2.73,0,0,1-2.71,0l-6.79-3.88a1.12,1.12,0,0,1,0-1.94l7.39-4.25Z"/></g><path id="_Контур_24" data-name="&lt;Контур&gt;" class="cls-31" d="M46.79,2l6,3.5L64.4,12.29h4L51.3,2.37l-.16-.1a.05.05,0,0,0,0,0c-1.06-.73-3-2.21-4.33-1.7Z"/><path id="_Составной_контур_25" data-name="&lt;Составной контур&gt;" class="cls-32" d="M33,47.87,50.37,58.4c.31-28,3.88-41.75,3.88-41.75L36.64,6.4S32.71,17,33,47.87ZM36.68,11a1.56,1.56,0,0,1,1.86-1.1,1.61,1.61,0,0,1,.61.21l9.14,5.31,1.31.77a2.43,2.43,0,0,1,.92,2.7C49.83,22.9,49.24,29.92,47,42c-.24,1.3-3.31,1.74-7.46-.25-5-2.4-5.75-4.82-5.67-5.56C35.39,21.25,36.14,15,36.68,11Z"/><g id="_Группа_16" data-name="&lt;Группа&gt;"><path id="_Контур_25" data-name="&lt;Контур&gt;" class="cls-24" d="M37.82,10.3c-.62,4.1-1.18,11.54-2.77,25.22-.09.74.68,3.15,5.67,5.56a10.74,10.74,0,0,0,6.2,1.28c-.57,1-3.61,1.18-7.34-.61-5-2.4-5.72-4.82-5.67-5.56A241.17,241.17,0,0,1,36.68,11a1.51,1.51,0,0,1,1.39-1.1A1,1,0,0,0,37.82,10.3Z"/><g id="_Группа_17" data-name="&lt;Группа&gt;"><path id="_Контур_26" data-name="&lt;Контур&gt;" class="cls-24" d="M48.63,1.61,40.31,6.38,38.49,5.33,46.79.54a4,4,0,0,1,4.33.2.05.05,0,0,1,0,0l.16.1,17.12,9.92h-4L52.81,4Z"/><polygon id="_Контур_27" data-name="&lt;Контур&gt;" class="cls-24" points="38.49 5.33 54.26 14.53 62.55 9.71 64.4 10.78 56.07 15.59 54.25 16.64 36.64 6.4 38.49 5.33"/></g><path id="_Контур_28" data-name="&lt;Контур&gt;" class="cls-14" d="M49.79,53.11A18.19,18.19,0,0,0,50.2,57l1.31.76c-.23-1.84-.43-3.59-.57-5.29-2.48-27.45,5.24-36.8,5.24-36.8l-.1,0-1.82,1.05,0,0s0,.07-.08.13a2.69,2.69,0,0,0-.26.39C52.49,19.5,51.62,34.53,49.79,53.11Z"/></g><path id="_Составной_контур_26" data-name="&lt;Составной контур&gt;" class="cls-23" d="M49.44,53.31l.34-.2,1.15-.67L70.44,41V14.28a4,4,0,0,0-6-3.48l-8.32,4.79-1.82,1.05,0,0s0,.07-.08.13a2.69,2.69,0,0,0-.26.39C52.33,19.64,49.12,39,49.44,53.31Zm6.12-34.62,9.49-5.47a.72.72,0,0,1,.36-.12.76.76,0,0,1,.74.76V38.7l-15,8.78C53,28.92,54.35,20.71,55.56,18.69Z"/><g id="_Группа_18" data-name="&lt;Группа&gt;"><path id="_Контур_29" data-name="&lt;Контур&gt;" class="cls-24" d="M65,13.22a.71.71,0,0,1,.36-.1.75.75,0,0,1,.74.74V38.69l-15,8.79c0-.59-.07-1.14-.1-1.7l13.45-7.9V13.52Z"/></g></g><g id="_Группа_19" data-name="&lt;Группа&gt;"><g id="_Группа_20" data-name="&lt;Группа&gt;"><g id="_Группа_21" data-name="&lt;Группа&gt;"><g id="_Группа_22" data-name="&lt;Группа&gt;"><path id="_Составной_контур_27" data-name="&lt;Составной контур&gt;" class="cls-4" d="M48.65,64.81c.16,2.52,2.25,3.5,4.65,2.19a8.2,8.2,0,0,0,4.09-7c-.16-2.52-2.25-3.51-4.66-2.19A8.2,8.2,0,0,0,48.65,64.81Z"/><polygon id="_Контур_30" data-name="&lt;Контур&gt;" class="cls-4" points="60 60.04 56.04 57.59 57.29 60.03 60 60.04"/><polygon id="_Контур_31" data-name="&lt;Контур&gt;" class="cls-4" points="53.79 69.62 49.8 67.15 53.17 65.58 53.58 68.43 53.79 69.62"/><path id="_Составной_контур_28" data-name="&lt;Составной контур&gt;" class="cls-5" d="M52.61,67.26c.16,2.52,2.25,3.5,4.65,2.19a8.2,8.2,0,0,0,4.09-7C61.2,60,59.1,59,56.7,60.31A8.21,8.21,0,0,0,52.61,67.26Z"/><path id="_Составной_контур_29" data-name="&lt;Составной контур&gt;" class="cls-6" d="M53.83,66.6c.11,1.81,1.62,2.53,3.35,1.58a5.91,5.91,0,0,0,2.94-5c-.11-1.82-1.62-2.53-3.35-1.58A5.91,5.91,0,0,0,53.83,66.6Z"/><path id="_Составной_контур_30" data-name="&lt;Составной контур&gt;" class="cls-7" d="M52.61,67.26c.16,2.52,2.25,3.5,4.65,2.19a8.2,8.2,0,0,0,4.09-7C61.2,60,59.1,59,56.7,60.31A8.21,8.21,0,0,0,52.61,67.26Z"/><path id="_Составной_контур_31" data-name="&lt;Составной контур&gt;" class="cls-8" d="M53,67c.14,2.27,2,3.16,4.2,2a7.41,7.41,0,0,0,3.69-6.28c-.14-2.28-2-3.17-4.2-2A7.41,7.41,0,0,0,53,67Z"/></g></g><path id="_Составной_контур_32" data-name="&lt;Составной контур&gt;" class="cls-9" d="M54.08,66.46c.1,1.67,1.49,2.33,3.09,1.46a5.45,5.45,0,0,0,2.71-4.62c-.1-1.67-1.49-2.33-3.09-1.46A5.45,5.45,0,0,0,54.08,66.46Z"/><path id="_Составной_контур_33" data-name="&lt;Составной контур&gt;" class="cls-10" d="M54.29,66.14c.09,1.48,1.32,2.05,2.73,1.29a4.81,4.81,0,0,0,2.39-4.08c-.09-1.48-1.32-2.05-2.73-1.29A4.81,4.81,0,0,0,54.29,66.14Z"/><path id="_Составной_контур_34" data-name="&lt;Составной контур&gt;" class="cls-11" d="M54.37,66.09c.09,1.43,1.28,2,2.64,1.25a4.66,4.66,0,0,0,2.32-3.95c-.09-1.43-1.28-2-2.64-1.25A4.66,4.66,0,0,0,54.37,66.09Z"/><path id="_Составной_контур_35" data-name="&lt;Составной контур&gt;" class="cls-10" d="M54.52,66c.08,1.34,1.2,1.87,2.48,1.17a4.37,4.37,0,0,0,2.18-3.7c-.08-1.34-1.2-1.87-2.48-1.17A4.37,4.37,0,0,0,54.52,66Z"/><path id="_Составной_контур_36" data-name="&lt;Составной контур&gt;" class="cls-12" d="M54.66,65.94C54.74,67.2,55.8,67.73,57,67A4,4,0,0,0,59,63.55c-.11-1.22-1.08-1.73-2.26-1.13,0,0,0,0-.08,0a4.09,4.09,0,0,0-2,3.08A1.73,1.73,0,0,0,54.66,65.94Z"/><path id="_Составной_контур_37" data-name="&lt;Составной контур&gt;" class="cls-10" d="M54.68,65.52c.23.5.82.63,1.47.27a2.84,2.84,0,0,0,1.44-2.42c0-.59-.36-.92-.8-.95,0,0,0,0-.08,0A4.09,4.09,0,0,0,54.68,65.52Z"/></g></g><path id="_Контур_32" data-name="&lt;Контур&gt;" class="cls-33" d="M62.84,55.37,61.65,57l-1.18,3.36-1.7-1.11s-3.42-.6-4.25.57a23.12,23.12,0,0,1-2.69,2.82l-2.56-3,8.34-6Z"/><path id="_Контур_33" data-name="&lt;Контур&gt;" class="cls-34" d="M52.57,54,53,58.1l8-3.9c.31.32,1.11,5,1.11,5l.46,5.84,5.14-3,3.05-1.77L72,59.59V53.93l6-8.6.79-.41L78,39.36Z"/><polygon id="_Контур_34" data-name="&lt;Контур&gt;" class="cls-21" points="52.53 61.01 34.78 50.42 29.45 40.55 52.56 54.04 52.53 61.01"/><g id="_Группа_23" data-name="&lt;Группа&gt;"><polygon id="_Контур_35" data-name="&lt;Контур&gt;" class="cls-32" points="75.98 41.46 75.28 41.85 73.43 47.42 74.12 47.03 75.98 41.46"/><polygon id="_Контур_36" data-name="&lt;Контур&gt;" class="cls-32" points="74.53 42.26 73.83 42.65 71.98 48.23 72.67 47.83 74.53 42.26"/><polygon id="_Контур_37" data-name="&lt;Контур&gt;" class="cls-32" points="73.08 43.07 72.39 43.46 70.53 49.03 71.22 48.64 73.08 43.07"/><polygon id="_Контур_38" data-name="&lt;Контур&gt;" class="cls-32" points="71.63 43.87 70.94 44.26 69.08 49.84 69.77 49.44 71.63 43.87"/></g><polygon id="_Контур_39" data-name="&lt;Контур&gt;" class="cls-14" points="35.51 11.94 34.62 12.46 37.32 14.08 38.21 13.55 35.51 11.94"/><polygon id="_Контур_40" data-name="&lt;Контур&gt;" class="cls-35" points="67.13 24.2 69.52 21.33 69.52 17.73 67.13 20.6 67.13 24.2"/><polygon id="_Контур_41" data-name="&lt;Контур&gt;" class="cls-35" points="67.13 31.29 69.52 28.42 69.52 24.82 67.13 27.69 67.13 31.29"/><polygon id="_Контур_42" data-name="&lt;Контур&gt;" class="cls-35" points="67.13 38.38 69.52 35.51 69.52 31.91 67.13 34.78 67.13 38.38"/><g id="_Группа_24" data-name="&lt;Группа&gt;"><g id="_Группа_25" data-name="&lt;Группа&gt;"><polygon id="_Контур_43" data-name="&lt;Контур&gt;" class="cls-24" points="56.79 13.18 56.23 13.5 42.44 5.27 42.97 4.93 56.79 13.18"/><polygon id="_Контур_44" data-name="&lt;Контур&gt;" class="cls-31" points="56.23 13.5 55.58 13.77 42.44 5.91 42.44 5.27 56.23 13.5"/></g><g id="_Группа_26" data-name="&lt;Группа&gt;"><polygon id="_Контур_45" data-name="&lt;Контур&gt;" class="cls-24" points="60.4 11.07 59.84 11.4 46.04 3.16 46.57 2.82 60.4 11.07"/><polygon id="_Контур_46" data-name="&lt;Контур&gt;" class="cls-31" points="59.84 11.4 59.18 11.66 46.04 3.81 46.04 3.16 59.84 11.4"/></g></g><g id="_Группа_27" data-name="&lt;Группа&gt;"><path id="_Контур_47" data-name="&lt;Контур&gt;" class="cls-26" d="M56.48,14.51h0v-.8H56l-.16-.11a3.49,3.49,0,0,0-3.16,0l-.18.13H52v.8h0a1.14,1.14,0,0,0,.66.91,3.49,3.49,0,0,0,3.16,0A1.08,1.08,0,0,0,56.48,14.51Z"/><path id="_Контур_48" data-name="&lt;Контур&gt;" class="cls-36" d="M56.48,13.72h0L56.1,9.84H52.39L52,13.67s0,0,0,0h0a1.14,1.14,0,0,0,.66.91,3.49,3.49,0,0,0,3.16,0A1.08,1.08,0,0,0,56.48,13.72Z"/><path id="_Контур_49" data-name="&lt;Контур&gt;" class="cls-37" d="M52.91,12.94a2.93,2.93,0,0,1,2.65,0c.74.43.75,1.11,0,1.53a2.93,2.93,0,0,1-2.65,0C52.2,14,52.19,13.36,52.91,12.94Z"/><path id="_Контур_50" data-name="&lt;Контур&gt;" class="cls-38" d="M55.21,10.93c-.47-.81-1.24-.8-1.72,0a3.28,3.28,0,0,0,0,3c.47.81,1.24.8,1.72,0A3.28,3.28,0,0,0,55.21,10.93Z"/><path id="_Контур_51" data-name="&lt;Контур&gt;" class="cls-39" d="M52.92,14.38a3.07,3.07,0,0,0,1.21.36l.07-.06a2.25,2.25,0,0,0,.21-.3,4.35,4.35,0,0,0,0-3.94,1.84,1.84,0,0,0-.52-.6h-1.2l-.08.07,0,0-.34,3.49s0,0,0,0h0A1.14,1.14,0,0,0,52.92,14.38Z"/><path id="_Контур_52" data-name="&lt;Контур&gt;" class="cls-40" d="M54.09,11.33c-.34-.59-.9-.59-1.25,0a2.39,2.39,0,0,0,0,2.17c.34.59.9.59,1.25,0A2.39,2.39,0,0,0,54.09,11.33Z"/><path id="_Контур_53" data-name="&lt;Контур&gt;" class="cls-41" d="M52.93,9.08a2.9,2.9,0,0,1,2.62,0c.73.42.74,1.1,0,1.52a2.9,2.9,0,0,1-2.62,0C52.22,10.17,52.21,9.49,52.93,9.08Z"/></g><g id="_Группа_28" data-name="&lt;Группа&gt;"><polygon id="_Контур_54" data-name="&lt;Контур&gt;" class="cls-20" points="41.24 16.48 43.94 18.09 43.94 61.06 41.24 59.44 41.24 16.48"/><polygon id="_Контур_55" data-name="&lt;Контур&gt;" class="cls-20" points="32.97 11.62 35.67 13.23 35.67 56.2 32.97 54.58 32.97 11.62"/><polygon id="_Контур_56" data-name="&lt;Контур&gt;" class="cls-42" points="36.56 12.71 35.67 13.23 35.67 56.2 36.56 55.68 36.56 12.71"/><polygon id="_Контур_57" data-name="&lt;Контур&gt;" class="cls-42" points="44.83 17.57 43.94 18.09 43.94 61.06 44.83 60.54 44.83 17.57"/><g id="_Группа_29" data-name="&lt;Группа&gt;"><polygon id="_Контур_58" data-name="&lt;Контур&gt;" class="cls-43" points="45.24 17.37 43.8 18.29 32.8 11.72 34.24 10.8 45.24 17.37"/><polygon id="_Контур_59" data-name="&lt;Контур&gt;" class="cls-20" points="43.8 18.29 43.8 21.19 32.8 14.62 32.8 11.72 43.8 18.29"/><polygon id="_Контур_60" data-name="&lt;Контур&gt;" class="cls-42" points="45.24 17.37 45.24 20.27 43.8 21.19 43.8 18.29 45.24 17.37"/></g><g id="_Группа_30" data-name="&lt;Группа&gt;"><polygon id="_Контур_61" data-name="&lt;Контур&gt;" class="cls-22" points="40.89 53.72 43.85 55.5 43.85 67.64 40.89 65.86 40.89 53.72"/><polygon id="_Контур_62" data-name="&lt;Контур&gt;" class="cls-22" points="31.82 48.39 34.78 50.17 34.78 62.3 31.82 60.53 31.82 48.39"/><polygon id="_Контур_63" data-name="&lt;Контур&gt;" class="cls-25" points="35.76 49.59 34.78 50.17 34.78 62.3 35.76 61.73 35.76 49.59"/><polygon id="_Контур_64" data-name="&lt;Контур&gt;" class="cls-25" points="44.83 54.93 43.85 55.5 43.85 67.64 44.83 67.06 44.83 54.93"/><polygon id="_Контур_65" data-name="&lt;Контур&gt;" class="cls-14" points="41.87 53.15 40.89 53.72 43.85 55.5 44.83 54.93 41.87 53.15"/><polygon id="_Контур_66" data-name="&lt;Контур&gt;" class="cls-14" points="32.8 47.82 31.82 48.39 34.78 50.17 35.76 49.59 32.8 47.82"/><g id="_Группа_31" data-name="&lt;Группа&gt;"><polygon id="_Контур_67" data-name="&lt;Контур&gt;" class="cls-44" points="11.55 81.64 14.56 83.31 43.91 66.41 40.89 64.73 11.55 81.64"/><polygon id="_Контур_68" data-name="&lt;Контур&gt;" class="cls-45" points="14.56 84.44 14.56 83.31 43.91 66.41 43.9 67.54 14.56 84.44"/><polygon id="_Контур_69" data-name="&lt;Контур&gt;" class="cls-46" points="11.54 82.77 11.55 81.64 14.56 83.31 14.56 84.44 11.54 82.77"/><polygon id="_Контур_70" data-name="&lt;Контур&gt;" class="cls-46" points="2.47 77.43 2.48 76.3 5.5 77.98 5.49 79.11 2.47 77.43"/></g><polygon id="_Контур_71" data-name="&lt;Контур&gt;" class="cls-44" points="2.48 76.3 5.5 77.98 34.84 61.07 31.82 59.4 2.48 76.3"/><polygon id="_Контур_72" data-name="&lt;Контур&gt;" class="cls-45" points="5.49 79.11 5.5 77.98 34.84 61.07 34.83 62.2 5.49 79.11"/></g><g id="_Группа_32" data-name="&lt;Группа&gt;"><polygon id="_Контур_73" data-name="&lt;Контур&gt;" class="cls-43" points="46.51 59.27 45.47 59.84 29.47 50.29 30.51 49.72 46.51 59.27"/><polygon id="_Контур_74" data-name="&lt;Контур&gt;" class="cls-20" points="45.47 59.84 45.47 64.06 29.47 54.5 29.47 50.29 45.47 59.84"/><polygon id="_Контур_75" data-name="&lt;Контур&gt;" class="cls-42" points="46.51 59.27 46.51 63.48 45.47 64.06 45.47 59.84 46.51 59.27"/></g><g id="_Группа_33" data-name="&lt;Группа&gt;"><polygon id="_Контур_76" data-name="&lt;Контур&gt;" class="cls-43" points="41.24 53.48 41.24 54.38 35.66 51.05 36.45 50.62 41.24 53.48"/><polygon id="_Контур_77" data-name="&lt;Контур&gt;" class="cls-20" points="41.24 54.38 41.24 55.76 35.66 52.43 35.66 51.05 41.24 54.38"/></g><g id="_Группа_34" data-name="&lt;Группа&gt;"><polygon id="_Контур_78" data-name="&lt;Контур&gt;" class="cls-43" points="41.24 46.3 41.24 47.2 35.66 43.87 36.45 43.44 41.24 46.3"/><polygon id="_Контур_79" data-name="&lt;Контур&gt;" class="cls-20" points="41.24 47.2 41.24 48.58 35.66 45.25 35.66 43.87 41.24 47.2"/></g><g id="_Группа_35" data-name="&lt;Группа&gt;"><polygon id="_Контур_80" data-name="&lt;Контур&gt;" class="cls-43" points="41.24 39.12 41.24 40.03 35.66 36.69 36.45 36.26 41.24 39.12"/><polygon id="_Контур_81" data-name="&lt;Контур&gt;" class="cls-20" points="41.24 40.03 41.24 41.41 35.66 38.07 35.66 36.69 41.24 40.03"/></g><g id="_Группа_36" data-name="&lt;Группа&gt;"><polygon id="_Контур_82" data-name="&lt;Контур&gt;" class="cls-43" points="41.24 31.94 41.24 32.85 35.66 29.52 36.45 29.08 41.24 31.94"/><polygon id="_Контур_83" data-name="&lt;Контур&gt;" class="cls-20" points="41.24 32.85 41.24 34.23 35.66 30.89 35.66 29.52 41.24 32.85"/></g><g id="_Группа_37" data-name="&lt;Группа&gt;"><polygon id="_Контур_84" data-name="&lt;Контур&gt;" class="cls-43" points="41.24 24.76 41.24 25.67 35.66 22.34 36.45 21.9 41.24 24.76"/><polygon id="_Контур_85" data-name="&lt;Контур&gt;" class="cls-20" points="41.24 25.67 41.24 27.05 35.66 23.72 35.66 22.34 41.24 25.67"/></g><polygon id="_Контур_86" data-name="&lt;Контур&gt;" class="cls-32" points="36.7 14.11 35.22 16.11 33.63 15.18 35.1 13.19 36.7 14.11"/><polygon id="_Контур_87" data-name="&lt;Контур&gt;" class="cls-32" points="39.83 15.92 38.36 17.92 36.77 17 38.24 15 39.83 15.92"/><polygon id="_Контур_88" data-name="&lt;Контур&gt;" class="cls-32" points="42.97 17.73 41.5 19.73 39.91 18.81 41.38 16.81 42.97 17.73"/></g><g id="_Группа_38" data-name="&lt;Группа&gt;"><polygon id="_Контур_89" data-name="&lt;Контур&gt;" class="cls-47" points="51.82 62.66 52.87 62.06 53.59 58.1 51.82 59.14 51.82 62.66"/><polygon id="_Контур_90" data-name="&lt;Контур&gt;" class="cls-47" points="60.13 54.82 52.01 59.65 51.82 59.76 47.89 57.51 48.09 57.39 48.12 57.37 60.13 54.21 60.13 54.82"/><polygon id="_Контур_91" data-name="&lt;Контур&gt;" class="cls-47" points="63.6 55.53 60.13 54.82 56.2 52.56 63.6 54.92 63.6 55.53"/><polygon id="_Контур_92" data-name="&lt;Контур&gt;" class="cls-20" points="47.89 56.88 51.82 59.14 51.82 62.66 47.89 60.41 47.89 56.88"/><polygon id="_Контур_93" data-name="&lt;Контур&gt;" class="cls-19" points="60.13 54.21 52.01 59.03 51.82 59.14 47.89 56.89 48.09 56.77 48.12 56.75 56.2 51.94 60.13 54.21"/><polygon id="_Контур_94" data-name="&lt;Контур&gt;" class="cls-19" points="63.6 54.92 60.13 54.21 56.2 51.94 59.67 52.65 63.6 54.92"/></g><g id="_Группа_39" data-name="&lt;Группа&gt;"><path id="_Контур_95" data-name="&lt;Контур&gt;" class="cls-48" d="M48.51,58.47V59.6a.6.6,0,0,0,.3.52l2,1.17a.25.25,0,0,0,.37-.21v-.13l-1.7-1a.6.6,0,0,1-.3-.52v-1l-.33-.19A.25.25,0,0,0,48.51,58.47Z"/><path id="_Контур_96" data-name="&lt;Контур&gt;" class="cls-49" d="M49.21,58.45v1a.6.6,0,0,0,.3.52l1.7,1v-1a.6.6,0,0,0-.3-.52Z"/></g><polygon id="_Контур_97" data-name="&lt;Контур&gt;" class="cls-19" points="50.38 52.74 47.89 56.88 78.01 39.36 75.82 38.05 50.38 52.74"/><g id="_Группа_40" data-name="&lt;Группа&gt;"><polygon id="_Контур_98" data-name="&lt;Контур&gt;" class="cls-34" points="26.72 48.2 32.97 46.68 32.97 43.22 26.72 44.68 26.72 48.2"/><polygon id="_Контур_99" data-name="&lt;Контур&gt;" class="cls-34" points="32.97 43.22 26.9 45.19 26.72 45.3 22.79 43.04 22.98 42.93 23.02 42.91 32.97 42.61 32.97 43.22"/><polygon id="_Контур_100" data-name="&lt;Контур&gt;" class="cls-20" points="22.79 42.42 26.72 44.68 26.72 48.2 22.79 45.95 22.79 42.42"/><polygon id="_Контур_101" data-name="&lt;Контур&gt;" class="cls-19" points="32.97 42.61 26.9 44.57 26.72 44.68 22.79 42.43 22.98 42.31 23.02 42.29 30.81 37.66 32.97 38.85 32.97 42.61"/></g><g id="_Группа_41" data-name="&lt;Группа&gt;"><path id="_Контур_102" data-name="&lt;Контур&gt;" class="cls-48" d="M23.15,43.83V45a.6.6,0,0,0,.3.52l2,1.17a.25.25,0,0,0,.37-.21V46.3l-1.7-1a.6.6,0,0,1-.3-.52v-1l-.33-.19A.25.25,0,0,0,23.15,43.83Z"/><path id="_Контур_103" data-name="&lt;Контур&gt;" class="cls-49" d="M23.85,43.8v1a.6.6,0,0,0,.3.52l1.7,1v-1a.6.6,0,0,0-.3-.52Z"/></g></g></g></g><g id="_Группа_42" data-name="&lt;Группа&gt;"><g id="_Группа_43" data-name="&lt;Группа&gt;"><g id="_Группа_44" data-name="&lt;Группа&gt;"><polygon id="_Контур_104" data-name="&lt;Контур&gt;" class="cls-50" points="0 67.91 2.3 69.38 25.04 56.31 22.74 54.83 0 67.91"/><polygon id="_Контур_105" data-name="&lt;Контур&gt;" class="cls-51" points="2.3 69.38 2.3 73.86 25.04 60.79 25.04 56.31 2.3 69.38"/><polygon id="_Контур_106" data-name="&lt;Контур&gt;" class="cls-52" points="11.92 64.76 11.92 67.34 3.86 71.99 3.86 69.42 11.92 64.76"/><polygon id="_Контур_107" data-name="&lt;Контур&gt;" class="cls-52" points="23.29 58.24 23.29 60.83 15.21 65.47 15.21 62.88 23.29 58.24"/><polygon id="_Контур_108" data-name="&lt;Контур&gt;" class="cls-53" points="0 67.91 0 72.54 2.3 73.86 2.3 69.38 0 67.91"/><polygon id="_Контур_109" data-name="&lt;Контур&gt;" class="cls-54" points="21.2 59.49 23.29 60.83 23.29 58.24 21.2 59.49"/><polygon id="_Контур_110" data-name="&lt;Контур&gt;" class="cls-54" points="9.83 66.01 11.92 67.34 11.92 64.76 9.83 66.01"/></g><g id="_Группа_45" data-name="&lt;Группа&gt;"><polygon id="_Контур_111" data-name="&lt;Контур&gt;" class="cls-50" points="10.15 73.74 12.45 75.21 35.19 62.14 32.89 60.66 10.15 73.74"/><polygon id="_Контур_112" data-name="&lt;Контур&gt;" class="cls-51" points="12.45 75.21 12.45 79.69 35.19 66.62 35.19 62.14 12.45 75.21"/><polygon id="_Контур_113" data-name="&lt;Контур&gt;" class="cls-52" points="22.07 70.59 22.07 73.18 14.01 77.82 14.01 75.25 22.07 70.59"/><polygon id="_Контур_114" data-name="&lt;Контур&gt;" class="cls-52" points="33.44 64.07 33.44 66.66 25.36 71.3 25.36 68.71 33.44 64.07"/><polygon id="_Контур_115" data-name="&lt;Контур&gt;" class="cls-53" points="10.15 73.74 10.15 78.37 12.45 79.69 12.45 75.21 10.15 73.74"/><polygon id="_Контур_116" data-name="&lt;Контур&gt;" class="cls-54" points="31.35 65.32 33.44 66.66 33.44 64.07 31.35 65.32"/><polygon id="_Контур_117" data-name="&lt;Контур&gt;" class="cls-54" points="19.98 71.84 22.07 73.18 22.07 70.59 19.98 71.84"/></g><g id="_Группа_46" data-name="&lt;Группа&gt;"><polygon id="_Контур_118" data-name="&lt;Контур&gt;" class="cls-50" points="20.3 79.57 22.6 81.05 45.34 67.97 43.03 66.5 20.3 79.57"/><polygon id="_Контур_119" data-name="&lt;Контур&gt;" class="cls-51" points="22.6 81.05 22.6 85.52 45.34 72.45 45.34 67.97 22.6 81.05"/><polygon id="_Контур_120" data-name="&lt;Контур&gt;" class="cls-52" points="32.22 76.42 32.22 79.01 24.15 83.65 24.15 81.08 32.22 76.42"/><polygon id="_Контур_121" data-name="&lt;Контур&gt;" class="cls-52" points="43.59 69.9 43.59 72.49 35.51 77.13 35.51 74.54 43.59 69.9"/><polygon id="_Контур_122" data-name="&lt;Контур&gt;" class="cls-53" points="20.3 79.57 20.3 84.2 22.6 85.52 22.6 81.05 20.3 79.57"/><polygon id="_Контур_123" data-name="&lt;Контур&gt;" class="cls-54" points="41.5 71.15 43.59 72.49 43.59 69.9 41.5 71.15"/><polygon id="_Контур_124" data-name="&lt;Контур&gt;" class="cls-54" points="30.13 77.67 32.22 79.01 32.22 76.42 30.13 77.67"/></g></g><g id="_Группа_47" data-name="&lt;Группа&gt;"><g id="_Группа_48" data-name="&lt;Группа&gt;"><polygon id="_Контур_125" data-name="&lt;Контур&gt;" class="cls-50" points="24.91 78.44 22.6 79.92 0 66.78 2.3 65.31 24.91 78.44"/><polygon id="_Контур_126" data-name="&lt;Контур&gt;" class="cls-55" points="22.6 79.92 22.6 81.05 0 67.91 0 66.78 22.6 79.92"/><polygon id="_Контур_127" data-name="&lt;Контур&gt;" class="cls-56" points="24.91 78.44 24.91 79.72 22.6 81.05 22.6 79.92 24.91 78.44"/></g><g id="_Группа_49" data-name="&lt;Группа&gt;"><polygon id="_Контур_128" data-name="&lt;Контур&gt;" class="cls-50" points="30.01 75.5 27.71 76.98 5.11 63.84 7.41 62.37 30.01 75.5"/><polygon id="_Контур_129" data-name="&lt;Контур&gt;" class="cls-55" points="27.71 76.98 27.71 78.11 5.11 64.97 5.11 63.84 27.71 76.98"/><polygon id="_Контур_130" data-name="&lt;Контур&gt;" class="cls-56" points="30.01 75.5 30.01 76.78 27.71 78.11 27.71 76.98 30.01 75.5"/></g><g id="_Группа_50" data-name="&lt;Группа&gt;"><polygon id="_Контур_131" data-name="&lt;Контур&gt;" class="cls-50" points="35.12 72.57 32.82 74.04 10.22 60.9 12.52 59.43 35.12 72.57"/><polygon id="_Контур_132" data-name="&lt;Контур&gt;" class="cls-55" points="32.82 74.04 32.82 75.17 10.22 62.03 10.22 60.9 32.82 74.04"/><polygon id="_Контур_133" data-name="&lt;Контур&gt;" class="cls-56" points="35.12 72.57 35.12 73.85 32.82 75.17 32.82 74.04 35.12 72.57"/></g><g id="_Группа_51" data-name="&lt;Группа&gt;"><polygon id="_Контур_134" data-name="&lt;Контур&gt;" class="cls-50" points="40.23 69.63 37.93 71.1 15.32 57.97 17.63 56.49 40.23 69.63"/><polygon id="_Контур_135" data-name="&lt;Контур&gt;" class="cls-55" points="37.93 71.1 37.93 72.23 15.32 59.09 15.32 57.97 37.93 71.1"/><polygon id="_Контур_136" data-name="&lt;Контур&gt;" class="cls-56" points="40.23 69.63 40.23 70.91 37.93 72.23 37.93 71.1 40.23 69.63"/></g><g id="_Группа_52" data-name="&lt;Группа&gt;"><polygon id="_Контур_137" data-name="&lt;Контур&gt;" class="cls-50" points="45.34 66.69 43.03 68.16 20.43 55.03 22.74 53.55 45.34 66.69"/><polygon id="_Контур_138" data-name="&lt;Контур&gt;" class="cls-55" points="43.03 68.16 43.03 69.29 20.43 56.16 20.43 55.03 43.03 68.16"/><polygon id="_Контур_139" data-name="&lt;Контур&gt;" class="cls-56" points="45.34 66.69 45.34 67.97 43.03 69.29 43.03 68.16 45.34 66.69"/></g></g></g><g id="_Группа_53" data-name="&lt;Группа&gt;"><g id="_Группа_54" data-name="&lt;Группа&gt;"><g id="_Группа_55" data-name="&lt;Группа&gt;"><g id="_Группа_56" data-name="&lt;Группа&gt;"><g id="_Группа_57" data-name="&lt;Группа&gt;"><polygon id="_Контур_140" data-name="&lt;Контур&gt;" class="cls-57" points="22.94 65.82 12.47 59.78 12.47 48.52 22.94 54.55 22.94 65.82"/><polygon id="_Контур_141" data-name="&lt;Контур&gt;" class="cls-58" points="31.25 49.73 22.94 54.55 22.94 65.82 31.25 61.02 31.25 49.73"/><polygon id="_Контур_142" data-name="&lt;Контур&gt;" class="cls-59" points="26.47 53.96 23.93 55.43 23.93 58.87 26.47 57.41 26.47 53.96"/></g><polygon id="_Контур_143" data-name="&lt;Контур&gt;" class="cls-60" points="25.6 55.84 25.59 57.55 24.8 58 24.81 56.29 24.41 56.52 25.21 54.83 26 55.62 25.6 55.84"/><polygon id="_Контур_144" data-name="&lt;Контур&gt;" class="cls-61" points="31.25 49.73 22.94 54.55 18.02 51.72 16.43 50.8 12.47 48.51 20.78 43.69 24.75 45.98 26.35 46.9 31.25 49.73"/></g></g><polygon id="_Контур_145" data-name="&lt;Контур&gt;" class="cls-62" points="18.02 51.72 16.43 50.8 24.75 45.98 26.35 46.9 18.02 51.72"/><g id="_Группа_58" data-name="&lt;Группа&gt;"><polygon id="_Контур_146" data-name="&lt;Контур&gt;" class="cls-63" points="16.24 60.98 13.24 59.27 13.24 56.67 16.24 58.39 16.24 60.98"/><polygon id="_Контур_147" data-name="&lt;Контур&gt;" class="cls-64" points="16.08 60.65 13.4 59.13 13.4 59.01 16.08 60.54 16.08 60.65"/><polygon id="_Контур_148" data-name="&lt;Контур&gt;" class="cls-64" points="16.08 60.33 13.4 58.8 13.4 58.69 16.08 60.21 16.08 60.33"/><polygon id="_Контур_149" data-name="&lt;Контур&gt;" class="cls-64" points="16.08 60 13.4 58.48 13.4 58.36 16.08 59.89 16.08 60"/><polygon id="_Контур_150" data-name="&lt;Контур&gt;" class="cls-64" points="16.08 59.68 13.4 58.15 13.4 58.03 16.08 59.56 16.08 59.68"/><polygon id="_Контур_151" data-name="&lt;Контур&gt;" class="cls-64" points="16.08 59.06 13.4 57.54 13.4 57.17 16.08 58.69 16.08 59.06"/></g><polygon id="_Контур_152" data-name="&lt;Контур&gt;" class="cls-65" points="16.43 50.8 16.42 54.6 16.75 53.71 17.09 54.97 17.56 54.15 17.97 55.45 18.02 51.72 16.43 50.8"/><polygon id="_Контур_153" data-name="&lt;Контур&gt;" class="cls-60" points="28.37 53.01 27.61 53.45 27.61 54.47 28.37 54.03 28.37 53.01"/><polygon id="_Контур_154" data-name="&lt;Контур&gt;" class="cls-60" points="29.44 52.39 28.68 52.84 28.68 53.85 29.44 53.41 29.44 52.39"/><polygon id="_Контур_155" data-name="&lt;Контур&gt;" class="cls-60" points="30.5 51.78 29.74 52.22 29.74 53.24 30.5 52.8 30.5 51.78"/></g><g id="_Группа_59" data-name="&lt;Группа&gt;"><g id="_Группа_60" data-name="&lt;Группа&gt;"><g id="_Группа_61" data-name="&lt;Группа&gt;"><g id="_Группа_62" data-name="&lt;Группа&gt;"><polygon id="_Контур_156" data-name="&lt;Контур&gt;" class="cls-57" points="12.95 71.61 2.48 65.57 2.48 54.31 12.95 60.35 12.95 71.61"/><polygon id="_Контур_157" data-name="&lt;Контур&gt;" class="cls-58" points="21.26 55.52 12.95 60.35 12.95 71.61 21.26 66.81 21.26 55.52"/><polygon id="_Контур_158" data-name="&lt;Контур&gt;" class="cls-59" points="16.48 59.75 13.94 61.23 13.94 64.67 16.48 63.2 16.48 59.75"/></g><polygon id="_Контур_159" data-name="&lt;Контур&gt;" class="cls-60" points="15.61 61.63 15.6 63.35 14.81 63.8 14.81 62.08 14.42 62.31 15.21 60.62 16 61.41 15.61 61.63"/><polygon id="_Контур_160" data-name="&lt;Контур&gt;" class="cls-61" points="21.26 55.52 12.95 60.35 8.03 57.51 6.44 56.59 2.48 54.3 10.79 49.48 14.76 51.77 16.35 52.69 21.26 55.52"/></g></g><polygon id="_Контур_161" data-name="&lt;Контур&gt;" class="cls-62" points="8.03 57.51 6.44 56.59 14.76 51.77 16.35 52.69 8.03 57.51"/><g id="_Группа_63" data-name="&lt;Группа&gt;"><polygon id="_Контур_162" data-name="&lt;Контур&gt;" class="cls-63" points="6.25 66.78 3.25 65.06 3.25 62.47 6.25 64.18 6.25 66.78"/><polygon id="_Контур_163" data-name="&lt;Контур&gt;" class="cls-64" points="6.08 66.45 3.41 64.92 3.41 64.8 6.08 66.33 6.08 66.45"/><polygon id="_Контур_164" data-name="&lt;Контур&gt;" class="cls-64" points="6.08 66.12 3.41 64.59 3.41 64.48 6.08 66 6.08 66.12"/><polygon id="_Контур_165" data-name="&lt;Контур&gt;" class="cls-64" points="6.08 65.8 3.41 64.27 3.41 64.15 6.08 65.68 6.08 65.8"/><polygon id="_Контур_166" data-name="&lt;Контур&gt;" class="cls-64" points="6.08 65.47 3.41 63.95 3.41 63.83 6.08 65.35 6.08 65.47"/><polygon id="_Контур_167" data-name="&lt;Контур&gt;" class="cls-64" points="6.08 64.86 3.41 63.33 3.41 62.96 6.08 64.49 6.08 64.86"/></g><polygon id="_Контур_168" data-name="&lt;Контур&gt;" class="cls-65" points="6.44 56.59 6.43 60.39 6.76 59.5 7.1 60.76 7.57 59.95 7.98 61.24 8.03 57.51 6.44 56.59"/><polygon id="_Контур_169" data-name="&lt;Контур&gt;" class="cls-60" points="18.38 58.8 17.62 59.24 17.62 60.26 18.38 59.82 18.38 58.8"/><polygon id="_Контур_170" data-name="&lt;Контур&gt;" class="cls-60" points="19.44 58.19 18.68 58.63 18.68 59.65 19.44 59.2 19.44 58.19"/><polygon id="_Контур_171" data-name="&lt;Контур&gt;" class="cls-60" points="20.51 57.57 19.75 58.02 19.75 59.03 20.51 58.59 20.51 57.57"/></g><g id="_Группа_64" data-name="&lt;Группа&gt;"><g id="_Группа_65" data-name="&lt;Группа&gt;"><g id="_Группа_66" data-name="&lt;Группа&gt;"><g id="_Группа_67" data-name="&lt;Группа&gt;"><polygon id="_Контур_172" data-name="&lt;Контур&gt;" class="cls-57" points="34.55 72.45 24.08 66.41 24.08 55.15 34.55 61.18 34.55 72.45"/><polygon id="_Контур_173" data-name="&lt;Контур&gt;" class="cls-66" points="42.86 56.36 34.55 61.18 34.55 72.45 42.86 67.65 42.86 56.36"/><polygon id="_Контур_174" data-name="&lt;Контур&gt;" class="cls-59" points="38.08 60.59 35.55 62.06 35.55 65.5 38.08 64.04 38.08 60.59"/></g><polygon id="_Контур_175" data-name="&lt;Контур&gt;" class="cls-60" points="37.21 62.47 37.2 64.18 36.41 64.63 36.42 62.92 36.02 63.15 36.82 61.46 37.61 62.24 37.21 62.47"/><polygon id="_Контур_176" data-name="&lt;Контур&gt;" class="cls-61" points="42.86 56.36 34.55 61.18 29.64 58.35 28.04 57.43 24.08 55.14 32.39 50.32 36.36 52.61 37.96 53.53 42.86 56.36"/></g></g><polygon id="_Контур_177" data-name="&lt;Контур&gt;" class="cls-62" points="29.64 58.35 28.04 57.43 36.36 52.61 37.96 53.53 29.64 58.35"/><g id="_Группа_68" data-name="&lt;Группа&gt;"><polygon id="_Контур_178" data-name="&lt;Контур&gt;" class="cls-63" points="27.85 67.61 24.85 65.9 24.85 63.3 27.85 65.02 27.85 67.61"/><polygon id="_Контур_179" data-name="&lt;Контур&gt;" class="cls-64" points="27.69 67.28 25.02 65.76 25.02 65.64 27.69 67.17 27.69 67.28"/><polygon id="_Контур_180" data-name="&lt;Контур&gt;" class="cls-64" points="27.69 66.96 25.02 65.43 25.02 65.31 27.69 66.84 27.69 66.96"/><polygon id="_Контур_181" data-name="&lt;Контур&gt;" class="cls-64" points="27.69 66.63 25.02 65.11 25.02 64.99 27.69 66.52 27.69 66.63"/><polygon id="_Контур_182" data-name="&lt;Контур&gt;" class="cls-64" points="27.69 66.31 25.02 64.78 25.02 64.66 27.69 66.19 27.69 66.31"/><polygon id="_Контур_183" data-name="&lt;Контур&gt;" class="cls-64" points="27.69 65.69 25.02 64.17 25.02 63.8 27.69 65.32 27.69 65.69"/></g><polygon id="_Контур_184" data-name="&lt;Контур&gt;" class="cls-65" points="28.04 57.43 28.03 61.23 28.36 60.34 28.71 61.59 29.17 60.78 29.59 62.08 29.64 58.35 28.04 57.43"/><polygon id="_Контур_185" data-name="&lt;Контур&gt;" class="cls-60" points="39.98 59.64 39.22 60.08 39.22 61.1 39.98 60.66 39.98 59.64"/><polygon id="_Контур_186" data-name="&lt;Контур&gt;" class="cls-60" points="41.05 59.02 40.29 59.47 40.29 60.48 41.05 60.04 41.05 59.02"/><polygon id="_Контур_187" data-name="&lt;Контур&gt;" class="cls-60" points="42.11 58.41 41.35 58.85 41.35 59.87 42.11 59.43 42.11 58.41"/></g><g id="_Группа_69" data-name="&lt;Группа&gt;"><g id="_Группа_70" data-name="&lt;Группа&gt;"><g id="_Группа_71" data-name="&lt;Группа&gt;"><g id="_Группа_72" data-name="&lt;Группа&gt;"><polygon id="_Контур_188" data-name="&lt;Контур&gt;" class="cls-57" points="24.56 78.24 14.09 72.2 14.09 60.94 24.56 66.98 24.56 78.24"/><polygon id="_Контур_189" data-name="&lt;Контур&gt;" class="cls-66" points="32.87 62.15 24.56 66.98 24.56 78.24 32.87 73.44 32.87 62.15"/><polygon id="_Контур_190" data-name="&lt;Контур&gt;" class="cls-59" points="28.09 66.38 25.55 67.86 25.55 71.3 28.09 69.83 28.09 66.38"/></g><polygon id="_Контур_191" data-name="&lt;Контур&gt;" class="cls-60" points="27.22 68.26 27.21 69.98 26.42 70.43 26.43 68.71 26.03 68.94 26.83 67.25 27.61 68.04 27.22 68.26"/><polygon id="_Контур_192" data-name="&lt;Контур&gt;" class="cls-61" points="32.87 62.15 24.56 66.98 19.64 64.14 18.05 63.22 14.09 60.94 22.4 56.11 26.37 58.4 27.97 59.32 32.87 62.15"/></g></g><polygon id="_Контур_193" data-name="&lt;Контур&gt;" class="cls-62" points="19.64 64.14 18.05 63.22 26.37 58.4 27.97 59.32 19.64 64.14"/><g id="_Группа_73" data-name="&lt;Группа&gt;"><polygon id="_Контур_194" data-name="&lt;Контур&gt;" class="cls-63" points="17.86 73.41 14.86 71.69 14.86 69.09 17.86 70.81 17.86 73.41"/><polygon id="_Контур_195" data-name="&lt;Контур&gt;" class="cls-64" points="17.7 73.08 15.02 71.55 15.02 71.43 17.7 72.96 17.7 73.08"/><polygon id="_Контур_196" data-name="&lt;Контур&gt;" class="cls-64" points="17.7 72.75 15.02 71.22 15.02 71.11 17.7 72.63 17.7 72.75"/><polygon id="_Контур_197" data-name="&lt;Контур&gt;" class="cls-64" points="17.7 72.43 15.02 70.9 15.02 70.78 17.7 72.31 17.7 72.43"/><polygon id="_Контур_198" data-name="&lt;Контур&gt;" class="cls-64" points="17.7 72.1 15.02 70.57 15.02 70.46 17.7 71.98 17.7 72.1"/><polygon id="_Контур_199" data-name="&lt;Контур&gt;" class="cls-64" points="17.7 71.49 15.02 69.96 15.02 69.59 17.7 71.12 17.7 71.49"/></g><polygon id="_Контур_200" data-name="&lt;Контур&gt;" class="cls-65" points="18.05 63.22 18.04 67.02 18.37 66.13 18.71 67.39 19.18 66.58 19.59 67.87 19.64 64.14 18.05 63.22"/><polygon id="_Контур_201" data-name="&lt;Контур&gt;" class="cls-60" points="29.99 65.43 29.23 65.87 29.23 66.89 29.99 66.45 29.99 65.43"/><polygon id="_Контур_202" data-name="&lt;Контур&gt;" class="cls-60" points="31.05 64.82 30.3 65.26 30.3 66.28 31.05 65.83 31.05 64.82"/><polygon id="_Контур_203" data-name="&lt;Контур&gt;" class="cls-60" points="32.12 64.2 31.36 64.64 31.36 65.66 32.12 65.22 32.12 64.2"/></g><g id="_Группа_74" data-name="&lt;Группа&gt;"><g id="_Группа_75" data-name="&lt;Группа&gt;"><g id="_Группа_76" data-name="&lt;Группа&gt;"><g id="_Группа_77" data-name="&lt;Группа&gt;"><polygon id="_Контур_204" data-name="&lt;Контур&gt;" class="cls-57" points="22.94 54.15 12.47 48.11 12.47 36.85 22.94 42.89 22.94 54.15"/><polygon id="_Контур_205" data-name="&lt;Контур&gt;" class="cls-58" points="31.25 38.06 22.94 42.89 22.94 54.15 31.25 49.35 31.25 38.06"/><polygon id="_Контур_206" data-name="&lt;Контур&gt;" class="cls-59" points="26.47 42.29 23.93 43.77 23.93 47.2 26.47 45.74 26.47 42.29"/></g><polygon id="_Контур_207" data-name="&lt;Контур&gt;" class="cls-60" points="25.6 44.17 25.59 45.89 24.8 46.34 24.81 44.62 24.41 44.85 25.21 43.16 26 43.95 25.6 44.17"/><polygon id="_Контур_208" data-name="&lt;Контур&gt;" class="cls-61" points="31.25 38.06 22.94 42.89 18.02 40.05 16.43 39.13 12.47 36.84 20.78 32.02 24.75 34.31 26.35 35.23 31.25 38.06"/></g></g><polygon id="_Контур_209" data-name="&lt;Контур&gt;" class="cls-62" points="18.02 40.05 16.43 39.13 24.75 34.31 26.35 35.23 18.02 40.05"/><g id="_Группа_78" data-name="&lt;Группа&gt;"><polygon id="_Контур_210" data-name="&lt;Контур&gt;" class="cls-63" points="16.24 49.31 13.24 47.6 13.24 45.01 16.24 46.72 16.24 49.31"/><polygon id="_Контур_211" data-name="&lt;Контур&gt;" class="cls-64" points="16.08 48.99 13.4 47.46 13.4 47.34 16.08 48.87 16.08 48.99"/><polygon id="_Контур_212" data-name="&lt;Контур&gt;" class="cls-64" points="16.08 48.66 13.4 47.13 13.4 47.02 16.08 48.54 16.08 48.66"/><polygon id="_Контур_213" data-name="&lt;Контур&gt;" class="cls-64" points="16.08 48.34 13.4 46.81 13.4 46.69 16.08 48.22 16.08 48.34"/><polygon id="_Контур_214" data-name="&lt;Контур&gt;" class="cls-64" points="16.08 48.01 13.4 46.48 13.4 46.37 16.08 47.89 16.08 48.01"/><polygon id="_Контур_215" data-name="&lt;Контур&gt;" class="cls-64" points="16.08 47.4 13.4 45.87 13.4 45.5 16.08 47.03 16.08 47.4"/></g><polygon id="_Контур_216" data-name="&lt;Контур&gt;" class="cls-65" points="16.43 39.13 16.42 42.93 16.75 42.04 17.09 43.3 17.56 42.48 17.97 43.78 18.02 40.05 16.43 39.13"/><polygon id="_Контур_217" data-name="&lt;Контур&gt;" class="cls-60" points="28.37 41.34 27.61 41.78 27.61 42.8 28.37 42.36 28.37 41.34"/><polygon id="_Контур_218" data-name="&lt;Контур&gt;" class="cls-60" points="29.44 40.73 28.68 41.17 28.68 42.19 29.44 41.74 29.44 40.73"/><polygon id="_Контур_219" data-name="&lt;Контур&gt;" class="cls-60" points="30.5 40.11 29.74 40.56 29.74 41.57 30.5 41.13 30.5 40.11"/></g><g id="_Группа_79" data-name="&lt;Группа&gt;"><g id="_Группа_80" data-name="&lt;Группа&gt;"><g id="_Группа_81" data-name="&lt;Группа&gt;"><g id="_Группа_82" data-name="&lt;Группа&gt;"><polygon id="_Контур_220" data-name="&lt;Контур&gt;" class="cls-57" points="12.95 59.95 2.48 53.91 2.48 42.64 12.95 48.68 12.95 59.95"/><polygon id="_Контур_221" data-name="&lt;Контур&gt;" class="cls-58" points="21.26 43.85 12.95 48.68 12.95 59.95 21.26 55.15 21.26 43.85"/><polygon id="_Контур_222" data-name="&lt;Контур&gt;" class="cls-59" points="16.48 48.09 13.94 49.56 13.94 53 16.48 51.53 16.48 48.09"/></g><polygon id="_Контур_223" data-name="&lt;Контур&gt;" class="cls-60" points="15.61 49.97 15.6 51.68 14.81 52.13 14.81 50.42 14.42 50.64 15.21 48.95 16 49.74 15.61 49.97"/><polygon id="_Контур_224" data-name="&lt;Контур&gt;" class="cls-61" points="21.26 43.86 12.95 48.68 8.03 45.84 6.44 44.93 2.48 42.64 10.79 37.81 14.76 40.1 16.35 41.03 21.26 43.86"/></g></g><polygon id="_Контур_225" data-name="&lt;Контур&gt;" class="cls-62" points="8.03 45.84 6.44 44.93 14.76 40.1 16.35 41.03 8.03 45.84"/><g id="_Группа_83" data-name="&lt;Группа&gt;"><polygon id="_Контур_226" data-name="&lt;Контур&gt;" class="cls-63" points="6.25 55.11 3.25 53.39 3.25 50.8 6.25 52.51 6.25 55.11"/><polygon id="_Контур_227" data-name="&lt;Контур&gt;" class="cls-64" points="6.08 54.78 3.41 53.25 3.41 53.13 6.08 54.66 6.08 54.78"/><polygon id="_Контур_228" data-name="&lt;Контур&gt;" class="cls-64" points="6.08 54.45 3.41 52.93 3.41 52.81 6.08 54.34 6.08 54.45"/><polygon id="_Контур_229" data-name="&lt;Контур&gt;" class="cls-64" points="6.08 54.13 3.41 52.6 3.41 52.48 6.08 54.01 6.08 54.13"/><polygon id="_Контур_230" data-name="&lt;Контур&gt;" class="cls-64" points="6.08 53.8 3.41 52.28 3.41 52.16 6.08 53.69 6.08 53.8"/><polygon id="_Контур_231" data-name="&lt;Контур&gt;" class="cls-64" points="6.08 53.19 3.41 51.66 3.41 51.29 6.08 52.82 6.08 53.19"/></g><polygon id="_Контур_232" data-name="&lt;Контур&gt;" class="cls-65" points="6.44 44.93 6.43 48.72 6.76 47.83 7.1 49.09 7.57 48.28 7.98 49.57 8.03 45.84 6.44 44.93"/><polygon id="_Контур_233" data-name="&lt;Контур&gt;" class="cls-60" points="18.38 47.13 17.62 47.58 17.62 48.59 18.38 48.15 18.38 47.13"/><polygon id="_Контур_234" data-name="&lt;Контур&gt;" class="cls-60" points="19.44 46.52 18.68 46.96 18.68 47.98 19.44 47.54 19.44 46.52"/><polygon id="_Контур_235" data-name="&lt;Контур&gt;" class="cls-60" points="20.51 45.91 19.75 46.35 19.75 47.37 20.51 46.92 20.51 45.91"/></g><g id="_Группа_84" data-name="&lt;Группа&gt;"><g id="_Группа_85" data-name="&lt;Группа&gt;"><g id="_Группа_86" data-name="&lt;Группа&gt;"><g id="_Группа_87" data-name="&lt;Группа&gt;"><polygon id="_Контур_236" data-name="&lt;Контур&gt;" class="cls-57" points="34.55 60.78 24.08 54.74 24.08 43.48 34.55 49.52 34.55 60.78"/><polygon id="_Контур_237" data-name="&lt;Контур&gt;" class="cls-66" points="42.86 44.69 34.55 49.52 34.55 60.78 42.86 55.98 42.86 44.69"/><polygon id="_Контур_238" data-name="&lt;Контур&gt;" class="cls-59" points="38.08 48.92 35.55 50.4 35.55 53.84 38.08 52.37 38.08 48.92"/></g><polygon id="_Контур_239" data-name="&lt;Контур&gt;" class="cls-60" points="37.21 50.8 37.2 52.52 36.41 52.97 36.42 51.25 36.02 51.48 36.82 49.79 37.61 50.58 37.21 50.8"/><polygon id="_Контур_240" data-name="&lt;Контур&gt;" class="cls-61" points="42.86 44.69 34.55 49.52 29.64 46.68 28.04 45.76 24.08 43.48 32.39 38.65 36.36 40.94 37.96 41.86 42.86 44.69"/></g></g><polygon id="_Контур_241" data-name="&lt;Контур&gt;" class="cls-62" points="29.64 46.68 28.04 45.76 36.36 40.94 37.96 41.86 29.64 46.68"/><g id="_Группа_88" data-name="&lt;Группа&gt;"><polygon id="_Контур_242" data-name="&lt;Контур&gt;" class="cls-63" points="27.85 55.95 24.85 54.23 24.85 51.63 27.85 53.35 27.85 55.95"/><polygon id="_Контур_243" data-name="&lt;Контур&gt;" class="cls-64" points="27.69 55.62 25.02 54.09 25.02 53.97 27.69 55.5 27.69 55.62"/><polygon id="_Контур_244" data-name="&lt;Контур&gt;" class="cls-64" points="27.69 55.29 25.02 53.77 25.02 53.65 27.69 55.17 27.69 55.29"/><polygon id="_Контур_245" data-name="&lt;Контур&gt;" class="cls-64" points="27.69 54.97 25.02 53.44 25.02 53.32 27.69 54.85 27.69 54.97"/><polygon id="_Контур_246" data-name="&lt;Контур&gt;" class="cls-64" points="27.69 54.64 25.02 53.11 25.02 53 27.69 54.52 27.69 54.64"/><polygon id="_Контур_247" data-name="&lt;Контур&gt;" class="cls-64" points="27.69 54.03 25.02 52.5 25.02 52.13 27.69 53.66 27.69 54.03"/></g><polygon id="_Контур_248" data-name="&lt;Контур&gt;" class="cls-65" points="28.04 45.76 28.03 49.56 28.36 48.67 28.71 49.93 29.17 49.12 29.59 50.41 29.64 46.68 28.04 45.76"/><polygon id="_Контур_249" data-name="&lt;Контур&gt;" class="cls-60" points="39.98 47.97 39.22 48.41 39.22 49.43 39.98 48.99 39.98 47.97"/><polygon id="_Контур_250" data-name="&lt;Контур&gt;" class="cls-60" points="41.05 47.36 40.29 47.8 40.29 48.82 41.05 48.38 41.05 47.36"/><polygon id="_Контур_251" data-name="&lt;Контур&gt;" class="cls-60" points="42.11 46.74 41.35 47.19 41.35 48.2 42.11 47.76 42.11 46.74"/></g><g id="_Группа_89" data-name="&lt;Группа&gt;"><g id="_Группа_90" data-name="&lt;Группа&gt;"><g id="_Группа_91" data-name="&lt;Группа&gt;"><g id="_Группа_92" data-name="&lt;Группа&gt;"><polygon id="_Контур_252" data-name="&lt;Контур&gt;" class="cls-57" points="24.56 66.57 14.09 60.53 14.09 49.27 24.56 55.31 24.56 66.57"/><polygon id="_Контур_253" data-name="&lt;Контур&gt;" class="cls-66" points="32.87 50.48 24.56 55.31 24.56 66.57 32.87 61.78 32.87 50.48"/><polygon id="_Контур_254" data-name="&lt;Контур&gt;" class="cls-59" points="28.09 54.72 25.55 56.19 25.55 59.63 28.09 58.16 28.09 54.72"/></g><polygon id="_Контур_255" data-name="&lt;Контур&gt;" class="cls-60" points="27.22 56.59 27.21 58.31 26.42 58.76 26.43 57.05 26.03 57.27 26.83 55.58 27.61 56.37 27.22 56.59"/><polygon id="_Контур_256" data-name="&lt;Контур&gt;" class="cls-61" points="32.87 50.49 24.56 55.31 19.64 52.47 18.05 51.56 14.09 49.27 22.4 44.45 26.37 46.73 27.97 47.66 32.87 50.49"/></g></g><polygon id="_Контур_257" data-name="&lt;Контур&gt;" class="cls-62" points="19.64 52.47 18.05 51.56 26.37 46.73 27.97 47.66 19.64 52.47"/><g id="_Группа_93" data-name="&lt;Группа&gt;"><polygon id="_Контур_258" data-name="&lt;Контур&gt;" class="cls-63" points="17.86 61.74 14.86 60.02 14.86 57.43 17.86 59.14 17.86 61.74"/><polygon id="_Контур_259" data-name="&lt;Контур&gt;" class="cls-64" points="17.7 61.41 15.02 59.88 15.02 59.77 17.7 61.29 17.7 61.41"/><polygon id="_Контур_260" data-name="&lt;Контур&gt;" class="cls-64" points="17.7 61.08 15.02 59.56 15.02 59.44 17.7 60.97 17.7 61.08"/><polygon id="_Контур_261" data-name="&lt;Контур&gt;" class="cls-64" points="17.7 60.76 15.02 59.23 15.02 59.11 17.7 60.64 17.7 60.76"/><polygon id="_Контур_262" data-name="&lt;Контур&gt;" class="cls-64" points="17.7 60.43 15.02 58.91 15.02 58.79 17.7 60.31 17.7 60.43"/><polygon id="_Контур_263" data-name="&lt;Контур&gt;" class="cls-64" points="17.7 59.82 15.02 58.29 15.02 57.92 17.7 59.45 17.7 59.82"/></g><polygon id="_Контур_264" data-name="&lt;Контур&gt;" class="cls-65" points="18.05 51.56 18.04 55.35 18.37 54.46 18.71 55.72 19.18 54.91 19.59 56.2 19.64 52.47 18.05 51.56"/><polygon id="_Контур_265" data-name="&lt;Контур&gt;" class="cls-60" points="29.99 53.76 29.23 54.21 29.23 55.22 29.99 54.78 29.99 53.76"/><polygon id="_Контур_266" data-name="&lt;Контур&gt;" class="cls-60" points="31.05 53.15 30.3 53.59 30.3 54.61 31.05 54.17 31.05 53.15"/><polygon id="_Контур_267" data-name="&lt;Контур&gt;" class="cls-60" points="32.12 52.53 31.36 52.98 31.36 53.99 32.12 53.55 32.12 52.53"/></g></g></g></g></g></g></svg>