<svg xmlns="http://www.w3.org/2000/svg" viewBox="0 0 79.74 82.5"><defs><style>.cls-1{fill:none;stroke:#0f0f0f;stroke-linecap:round;stroke-linejoin:round;stroke-width:2.5px;}</style></defs><title>Ресурс 11</title><g id="Слой_2" data-name="Слой 2"><g id="Layer_2" data-name="Layer 2"><path class="cls-1" d="M43.62,6H56.57a5.89,5.89,0,0,1,5.89,5.89V35.06"/><path class="cls-1" d="M44.83,81.25H7.14a5.89,5.89,0,0,1-5.89-5.89V11.85A5.89,5.89,0,0,1,7.14,6h13"/><polyline class="cls-1" points="12.23 20.43 13.86 22.05 16.94 18.97"/><line class="cls-1" x1="23.5" y1="51.13" x2="29.14" y2="51.13"/><line class="cls-1" x1="23.5" y1="61.49" x2="27.26" y2="61.49"/><rect class="cls-1" x="20.09" y="1.25" width="23.53" height="9.41" rx="1.86" ry="1.86"/><polygon class="cls-1" points="56.74 55.42 78.49 45.9 78.49 70.37 56.74 81.25 33.63 70.37 33.63 45.9 56.74 55.42"/><polyline class="cls-1" points="33.63 45.9 56.06 38.43 78.49 45.9"/><line class="cls-1" x1="44.67" y1="50.45" x2="66.08" y2="41.77"/><line class="cls-1" x1="56.74" y1="55.42" x2="56.74" y2="81.25"/><polyline class="cls-1" points="78.49 66.3 56.74 77.17 33.63 66.3"/><polyline class="cls-1" points="12.23 29.84 13.86 31.46 16.94 28.38"/><polyline class="cls-1" points="12.23 40.19 13.86 41.82 16.94 38.74"/><rect class="cls-1" x="12.48" y="48.99" width="4.18" height="4.18" rx="0.34" ry="0.34"/><rect class="cls-1" x="12.48" y="59.35" width="4.18" height="4.18" rx="0.34" ry="0.34"/><line class="cls-1" x1="23.5" y1="40.31" x2="35.73" y2="40.31"/><line class="cls-1" x1="23.5" y1="29.96" x2="47.03" y2="29.96"/><line class="cls-1" x1="23.5" y1="20.54" x2="47.03" y2="20.54"/></g></g></svg>