<svg xmlns="http://www.w3.org/2000/svg" xmlns:xlink="http://www.w3.org/1999/xlink" viewBox="0 0 130.98 113.3"><defs><style>.cls-1{isolation:isolate;}.cls-2,.cls-44{fill:#e4ecf5;}.cls-2,.cls-33{mix-blend-mode:multiply;}.cls-3{fill:#15202e;}.cls-4{fill:#0c121a;}.cls-5{fill:#dde8ff;}.cls-6{fill:#798dab;}.cls-7{fill:#bed0eb;}.cls-8{fill:#475f77;}.cls-9{fill:#4f6984;}.cls-10{fill:#4b647d;}.cls-11{fill:#314152;}.cls-12{fill:#475e76;}.cls-13{fill:#3a4a5d;}.cls-14{fill:#45596e;}.cls-15{fill:#25303b;}.cls-16{fill:#8096b0;}.cls-17{fill:#768ba3;}.cls-18{fill:#e3eefc;}.cls-19{fill:#bed3eb;}.cls-20{fill:#91aac7;}.cls-21{fill:#dfe8f0;}.cls-22{fill:#cedef0;}.cls-23{fill:#fdbf00;}.cls-24{fill:#de6f00;}.cls-25{fill:#1a2129;}.cls-26{fill:url(#Ѕезым_нный_градиент_27);}.cls-27{fill:#ba3e2f;}.cls-28{fill:url(#linear-gradient);}.cls-29{fill:#ff624d;}.cls-30,.cls-33{fill:#6d849c;}.cls-31{fill:#7d97b2;}.cls-32{fill:#446180;}.cls-34{fill:#de4d3a;}.cls-35{fill:#8ba8c7;}.cls-36{fill:#5c7a99;}.cls-37{fill:#27394d;}.cls-38{fill:#1a2736;}.cls-39,.cls-46{fill:#fff;}.cls-40{fill:#b8cbe0;}.cls-41{fill:#12171c;}.cls-42{fill:url(#linear-gradient-2);}.cls-43{fill:#992c1e;}.cls-45{fill:#fa0;}.cls-46{mix-blend-mode:overlay;}.cls-47{fill:url(#linear-gradient-3);}</style><linearGradient id="Ѕезым_нный_градиент_27" x1="-151.41" y1="101.96" x2="-148.17" y2="97.19" gradientTransform="matrix(-1, 0, 0, 1, -78.98, 0)" gradientUnits="userSpaceOnUse"><stop offset="0.03" stop-color="#afc2de"/><stop offset="0.54" stop-color="#b2c5e0"/><stop offset="0.88" stop-color="#bbcde8"/><stop offset="0.96" stop-color="#bed0eb"/></linearGradient><linearGradient id="linear-gradient" x1="41.42" y1="70.25" x2="53.29" y2="49.69" gradientUnits="userSpaceOnUse"><stop offset="0" stop-color="#ba3e2f"/><stop offset="0.01" stop-color="#be4031"/><stop offset="0.09" stop-color="#db4f3d"/><stop offset="0.17" stop-color="#ef5a46"/><stop offset="0.26" stop-color="#fb604b"/><stop offset="0.34" stop-color="#ff624d"/></linearGradient><linearGradient id="linear-gradient-2" x1="41.09" y1="66.13" x2="56.22" y2="39.92" gradientUnits="userSpaceOnUse"><stop offset="0" stop-color="#ba3e2f"/><stop offset="0.03" stop-color="#c44333"/><stop offset="0.12" stop-color="#da4f3d"/><stop offset="0.22" stop-color="#eb5744"/><stop offset="0.34" stop-color="#f65d49"/><stop offset="0.52" stop-color="#fd614c"/><stop offset="1" stop-color="#ff624d"/></linearGradient><linearGradient id="linear-gradient-3" x1="47.05" y1="100.57" x2="51.51" y2="100.57" gradientUnits="userSpaceOnUse"><stop offset="0" stop-color="#fa0"/><stop offset="0.09" stop-color="#ffad06"/><stop offset="0.68" stop-color="#ffc129"/><stop offset="1" stop-color="#ffc936"/></linearGradient></defs><title>i2</title><g class="cls-1"><g id="Слой_2" data-name="Слой 2"><g id="_лой_1" data-name="—лой_1"><g id="truck_front" data-name="truck front"><path class="cls-2" d="M125.4,70.56,115,78.5l-6,.67-38,21.73-5.26,5.75-6.14.77L49.43,113.3l-20.77-6.23L2.48,91.95a5,5,0,0,1,0-8.58l14.46-8.28L13.3,73a2.35,2.35,0,0,1,0-4.07L73.24,34Z"/><g class="cls-1"><path class="cls-3" d="M115.17,63.08c1.58-.91,3-1,4-.4l4,2.29c-1-.6-9.07,13.25-8,13.85l-4-2.29a4,4,0,0,1-1.66-3.64A12.48,12.48,0,0,1,115.17,63.08Z"/><path class="cls-4" d="M119.13,65.37c3.14-1.81,5.69-.36,5.7,3.25a12.49,12.49,0,0,1-5.67,9.81c-3.14,1.81-5.69.35-5.7-3.25A12.48,12.48,0,0,1,119.13,65.37Z"/></g><path class="cls-5" d="M119.53,76.19a8.23,8.23,0,0,0,3.72-6.44c0-2.37-1.67-3.33-3.72-2.15A8.23,8.23,0,0,0,115.82,74C115.82,76.41,117.48,77.38,119.53,76.19Z"/><path class="cls-6" d="M119.76,76.35a8.23,8.23,0,0,0,3.72-6.44c0-2.37-1.67-3.33-3.72-2.15A8.23,8.23,0,0,0,116,74.21C116,76.57,117.71,77.54,119.76,76.35Z"/><path class="cls-7" d="M118.28,76.14a2.83,2.83,0,0,0,1.38-.43,7.12,7.12,0,0,0,3.22-5.57c0-1.34-.63-2.17-1.64-2.17a2.83,2.83,0,0,0-1.38.43A7.12,7.12,0,0,0,116.64,74C116.64,75.31,117.27,76.14,118.28,76.14Z"/><path class="cls-5" d="M117,75.39A2.83,2.83,0,0,0,118.4,75a7.12,7.12,0,0,0,3.22-5.57,2.76,2.76,0,0,0-.34-1.42c1,0,1.6.84,1.6,2.16a7.12,7.12,0,0,1-3.22,5.57,2.83,2.83,0,0,1-1.38.43,1.45,1.45,0,0,1-1.3-.75Z"/><g class="cls-1"><polygon class="cls-8" points="122.79 64.37 116.67 60.81 120.46 60.68 126.58 64.23 122.79 64.37"/><polygon class="cls-9" points="117.28 67.55 111.16 63.99 116.67 60.81 122.79 64.37 117.28 67.55"/><polygon class="cls-10" points="113.5 71.79 107.38 68.23 111.16 63.99 117.28 67.55 113.5 71.79"/><polygon class="cls-11" points="113.5 72.41 107.38 68.86 107.38 68.23 113.5 71.79 113.5 72.41"/><polygon class="cls-12" points="122.79 64.37 126.58 64.23 126.58 64.86 122.79 64.99 117.28 68.17 113.5 72.41 113.5 71.79 117.28 67.55 122.79 64.37"/></g><polygon class="cls-13" points="85.9 91.27 96.94 84.89 96.94 77.25 85.9 83.62 85.9 91.27"/><polygon class="cls-14" points="96.94 77.25 85.9 83.62 79.63 80 90.66 73.63 96.94 77.25"/><polygon class="cls-15" points="85.9 91.27 85.9 83.62 79.63 80 79.63 87.64 85.9 91.27"/><polygon class="cls-15" points="96.27 79.09 86.92 84.49 86.92 84.94 96.27 79.53 96.27 79.09"/><polygon class="cls-15" points="96.27 81.33 86.92 86.73 86.92 87.18 96.27 81.78 96.27 81.33"/><polygon class="cls-15" points="96.27 83.58 86.92 88.98 86.92 89.42 96.27 84.02 96.27 83.58"/><g class="cls-1"><polygon class="cls-13" points="128.88 61.34 129.96 60.71 129.96 62.9 128.88 63.52 128.88 61.34"/><polygon class="cls-14" points="100.85 45.17 101.93 44.54 129.96 60.71 128.88 61.34 100.85 45.17"/><polygon class="cls-15" points="128.88 61.34 128.88 63.52 100.85 47.36 100.85 45.17 128.88 61.34"/></g><g class="cls-1"><polygon class="cls-16" points="83.75 86.42 83.19 86.09 83.2 92.77 83.76 93.09 83.75 86.42"/><polygon class="cls-17" points="83.75 86.42 83.19 86.09 83.19 88.32 83.75 88.65 83.75 86.42"/><polygon class="cls-18" points="83.68 85.81 83.19 86.09 83.75 86.42 84.24 86.13 83.68 85.81"/><polygon class="cls-19" points="84.24 86.13 83.75 86.42 83.76 93.09 84.26 92.81 84.24 86.13"/><polygon class="cls-20" points="84.24 86.13 83.75 86.42 83.75 88.65 84.25 88.36 84.24 86.13"/></g><g class="cls-1"><polygon class="cls-16" points="94.11 80.44 93.55 80.11 93.57 86.79 94.13 87.12 94.11 80.44"/><polygon class="cls-17" points="94.11 80.44 93.55 80.11 93.56 82.38 94.12 82.7 94.11 80.44"/><polygon class="cls-18" points="94.04 79.83 93.55 80.11 94.11 80.44 94.61 80.15 94.04 79.83"/><polygon class="cls-19" points="94.61 80.15 94.11 80.44 94.13 87.12 94.62 86.83 94.61 80.15"/><polygon class="cls-20" points="94.61 80.15 94.11 80.44 94.12 82.7 94.61 82.42 94.61 80.15"/></g><g class="cls-1"><polygon class="cls-16" points="104.48 74.46 103.92 74.13 103.94 80.81 104.5 81.14 104.48 74.46"/><polygon class="cls-17" points="104.48 74.46 103.92 74.13 103.93 76.32 104.49 76.64 104.48 74.46"/><polygon class="cls-18" points="104.41 73.85 103.92 74.13 104.48 74.46 104.97 74.17 104.41 73.85"/><polygon class="cls-19" points="104.97 74.17 104.48 74.46 104.5 81.14 104.99 80.85 104.97 74.17"/><polygon class="cls-20" points="104.97 74.17 104.48 74.46 104.49 76.64 104.98 76.36 104.97 74.17"/></g><g class="cls-1"><polygon class="cls-16" points="81.12 91.51 80.66 91.25 80.67 92.09 81.12 92.35 81.12 91.51"/><polygon class="cls-21" points="81.12 91.51 80.66 91.25 107.14 76.05 107.6 76.32 81.12 91.51"/><polygon class="cls-19" points="107.6 76.32 81.12 91.51 81.12 92.35 107.6 77.16 107.6 76.32"/></g><g class="cls-1"><polygon class="cls-16" points="81.12 94.01 80.66 93.74 80.67 94.58 81.12 94.85 81.12 94.01"/><polygon class="cls-21" points="81.12 94.01 80.66 93.74 107.14 78.55 107.6 78.81 81.12 94.01"/><polygon class="cls-19" points="107.6 78.81 81.12 94.01 81.12 94.85 107.6 79.65 107.6 78.81"/></g><polygon class="cls-16" points="76.9 91.88 41.29 71.32 41.29 31.3 76.9 51.86 76.9 91.88"/><polygon class="cls-22" points="130.98 60.58 76.9 91.88 76.9 51.86 130.98 20.56 130.98 60.58"/><polygon class="cls-18" points="130.98 20.56 76.9 51.86 41.29 31.3 95.37 0 130.98 20.56"/><g class="cls-1"><path class="cls-23" d="M88.48,82.39l1.18-.68a.11.11,0,0,1,.11,0l.4.23a.11.11,0,0,0-.11,0l-1.18.68a.36.36,0,0,0-.16.28v.47a.11.11,0,0,0,0,.1l-.4-.23a.11.11,0,0,1,0-.1v-.47A.36.36,0,0,1,88.48,82.39Z"/><path class="cls-24" d="M88.88,82.62l1.18-.68c.09-.05.16,0,.16.09v.47a.36.36,0,0,1-.16.28l-1.18.68c-.09.05-.16,0-.16-.09V82.9A.36.36,0,0,1,88.88,82.62Z"/></g><g class="cls-1"><path class="cls-23" d="M75.66,52.34l-1.18-.68a.11.11,0,0,0-.11,0l-.4.23a.11.11,0,0,1,.11,0l1.18.68a.36.36,0,0,1,.16.28v.47a.11.11,0,0,1,0,.1l.4-.23a.11.11,0,0,0,0-.1v-.47A.36.36,0,0,0,75.66,52.34Z"/><path class="cls-24" d="M75.25,52.57l-1.18-.68c-.09-.05-.16,0-.16.09v.47a.36.36,0,0,0,.16.28l1.18.68c.09.05.16,0,.16-.09v-.47A.36.36,0,0,0,75.25,52.57Z"/></g><g class="cls-1"><path class="cls-23" d="M43.52,33.76l-1.18-.68a.11.11,0,0,0-.11,0l-.4.23a.11.11,0,0,1,.11,0l1.18.68a.36.36,0,0,1,.16.28v.47a.11.11,0,0,1,0,.1l.4-.23a.11.11,0,0,0,0-.1V34A.36.36,0,0,0,43.52,33.76Z"/><path class="cls-24" d="M43.12,34l-1.18-.68c-.09-.05-.16,0-.16.09v.47a.36.36,0,0,0,.16.28l1.18.68c.09.05.16,0,.16-.09v-.47A.36.36,0,0,0,43.12,34Z"/></g><g class="cls-1"><path class="cls-23" d="M103.67,73.53l1.18-.68a.11.11,0,0,1,.11,0l.4.23a.11.11,0,0,0-.11,0l-1.18.68a.36.36,0,0,0-.16.28v.47a.11.11,0,0,0,0,.1l-.4-.23a.11.11,0,0,1,0-.1v-.47A.36.36,0,0,1,103.67,73.53Z"/><path class="cls-24" d="M104.08,73.76l1.18-.68c.09-.05.16,0,.16.09v.47a.36.36,0,0,1-.16.28l-1.18.68c-.09.05-.16,0-.16-.09V74A.36.36,0,0,1,104.08,73.76Z"/></g><g class="cls-1"><path class="cls-23" d="M118.87,64.67,120,64a.11.11,0,0,1,.11,0l.4.23a.11.11,0,0,0-.11,0l-1.18.68a.36.36,0,0,0-.16.28v.47a.11.11,0,0,0,0,.1l-.4-.23a.11.11,0,0,1,0-.1v-.47A.36.36,0,0,1,118.87,64.67Z"/><path class="cls-24" d="M119.27,64.91l1.18-.68c.09-.05.16,0,.16.09v.47a.36.36,0,0,1-.16.28l-1.18.68c-.09.05-.16,0-.16-.09v-.47A.36.36,0,0,1,119.27,64.91Z"/></g><path class="cls-25" d="M18.71,76.09a.37.37,0,0,1-.19-.05l-1.32-.79a4.32,4.32,0,0,1-2.08-3.68v-6a.37.37,0,1,1,.75,0v6a3.56,3.56,0,0,0,1.71,3l1.32.8a.37.37,0,0,1-.19.7Z"/><g class="cls-1"><path class="cls-13" d="M17.25,62.59,15.2,61.41a.38.38,0,0,0-.39,0l-.72.42a.38.38,0,0,1,.39,0L16.53,63a1.19,1.19,0,0,1,.54.93l0,5.47a.38.38,0,0,1-.16.35l.72-.42a.38.38,0,0,0,.16-.35l0-5.47A1.19,1.19,0,0,0,17.25,62.59Z"/><path class="cls-15" d="M16.53,63l-2.05-1.19c-.3-.17-.54,0-.54.31l0,5.47a1.19,1.19,0,0,0,.54.93l2.05,1.19c.3.17.54,0,.54-.31l0-5.47A1.19,1.19,0,0,0,16.53,63Z"/></g><g class="cls-1"><path class="cls-3" d="M66.17,91.32c1.58-.91,3-1,4-.4l4,2.29c-1-.6-9.07,13.25-8,13.85l-4-2.29a4,4,0,0,1-1.66-3.64A12.48,12.48,0,0,1,66.17,91.32Z"/><path class="cls-4" d="M70.13,93.61c3.14-1.81,5.69-.36,5.7,3.25a12.49,12.49,0,0,1-5.67,9.81c-3.14,1.81-5.69.35-5.7-3.25A12.48,12.48,0,0,1,70.13,93.61Z"/></g><path class="cls-5" d="M70.54,104.43A8.23,8.23,0,0,0,74.25,98c0-2.37-1.67-3.33-3.72-2.15a8.23,8.23,0,0,0-3.72,6.44C66.82,104.65,68.49,105.61,70.54,104.43Z"/><path class="cls-6" d="M70.76,104.59a8.23,8.23,0,0,0,3.72-6.44c0-2.37-1.67-3.33-3.72-2.15A8.23,8.23,0,0,0,67,102.44C67,104.81,68.71,105.77,70.76,104.59Z"/><path class="cls-5" d="M67.69,102.36a2.86,2.86,0,0,0,.54,1.77c.36.48,1.69.41,1.69.41,4.46-1.82,4.72-4.55,4.22-7a2.9,2.9,0,0,0-.81-1.12,2.32,2.32,0,0,0-2.35.21A7.26,7.26,0,0,0,67.69,102.36Zm1.54-.74a3.84,3.84,0,0,1,1.74-3c1-.55,1.74-.1,1.74,1a3.84,3.84,0,0,1-1.74,3C70,103.17,69.23,102.72,69.23,101.62Z"/><path class="cls-26" d="M68.72,102.5c0,1.86,1.31,2.62,2.93,1.69a6.48,6.48,0,0,0,2.93-5.07c0-1.86-1.31-2.62-2.93-1.69A6.48,6.48,0,0,0,68.72,102.5Zm1.38-.66a3.43,3.43,0,0,1,1.55-2.69c.86-.49,1.55-.09,1.55.9a3.43,3.43,0,0,1-1.55,2.69C70.8,103.23,70.1,102.83,70.1,101.84Z"/><path class="cls-5" d="M71.34,98.62c0,.2.14.28.31.18a.68.68,0,0,0,.31-.53c0-.2-.14-.28-.31-.18A.68.68,0,0,0,71.34,98.62Z"/><path class="cls-5" d="M70.13,100c.1.1.29,0,.43-.17s.17-.43.07-.53-.29,0-.43.17S70,99.91,70.13,100Z"/><path class="cls-5" d="M69.49,101.76a.62.62,0,0,0,.39-.45c.05-.22,0-.37-.2-.33a.62.62,0,0,0-.39.45C69.24,101.64,69.33,101.79,69.49,101.76Z"/><path class="cls-5" d="M69.68,103.2a.62.62,0,0,0,.2-.56c-.05-.16-.23-.16-.39,0a.62.62,0,0,0-.2.56C69.34,103.35,69.52,103.35,69.68,103.2Z"/><path class="cls-5" d="M70.62,103.78c.1-.22.07-.42-.07-.46s-.33.11-.43.33-.07.42.07.46S70.52,104,70.62,103.78Z"/><path class="cls-5" d="M73.18,101.89c-.1-.1-.29,0-.43.17s-.17.43-.07.53.29,0,.43-.17S73.28,102,73.18,101.89Z"/><path class="cls-5" d="M73.81,100.14a.62.62,0,0,0-.39.45c-.05.22,0,.37.2.33a.62.62,0,0,0,.39-.45C74.06,100.26,74,100.11,73.81,100.14Z"/><path class="cls-5" d="M73.62,98.7a.62.62,0,0,0-.2.56c.05.16.23.16.39,0a.62.62,0,0,0,.2-.56C74,98.55,73.79,98.55,73.62,98.7Z"/><path class="cls-5" d="M72.68,98.12c-.1.22-.07.42.07.46s.33-.11.43-.33.07-.42-.07-.46S72.78,97.9,72.68,98.12Z"/><path class="cls-5" d="M72,103.28c0-.2-.14-.28-.31-.18a.68.68,0,0,0-.31.53c0,.2.14.28.31.18A.68.68,0,0,0,72,103.28Z"/><path class="cls-27" d="M54.46,77.77l-.61,33.3c-.34,0-1.49,1.4-5.4-.42-4.38-2-6.73-3.42-16.87-9.4-5.88-3.46-8.18-4.91-10.83-6.67-1.51-1-2.85-2.3-2.85-4.12V87.51l.82-.38V75.52s.1-4.57.51-9.06c.64-6.9,1.11-8.39,1.25-8.39L40.29,69.54Z"/><path class="cls-28" d="M72.75,64.13l-.41.31L54.46,77.77,40.29,69.56,20.47,58.07a13.26,13.26,0,0,1,4.8-4.84L37.82,45.9l1.74-1a5.45,5.45,0,0,1,5.43,0L72.55,60.85a1.94,1.94,0,0,1,.86,1A2,2,0,0,1,72.75,64.13Z"/><path class="cls-15" d="M47.58,92.38A2.54,2.54,0,0,1,46.32,92L21.22,77.5a3.11,3.11,0,0,1-1.54-3s0-3.05.43-7.39c.39-3.9.73-6.1.73-6.12a2.16,2.16,0,0,1,3.23-1.63l2.53,1.47,10,5.8,12.12,7,1.07.61a3.29,3.29,0,0,1,1.69,3.45,55.86,55.86,0,0,0-.93,6.55c-.31,3.13-.46,5.86-.47,5.89A2.54,2.54,0,0,1,47.58,92.38Z"/><path class="cls-29" d="M50.11,90.08a2.54,2.54,0,0,1-2.53,2.3,2.48,2.48,0,0,1-.49-.05,2.57,2.57,0,0,1-.77-.29L21.22,77.5a3,3,0,0,1-1.55-2.94l-.07,1.25a3.11,3.11,0,0,0,1.54,3l25.1,14.54a2.53,2.53,0,0,0,3.79-2s0-.42.08-1.38Z"/><path class="cls-30" d="M51,77.5a54.34,54.34,0,0,0-.95,6.64c-.31,3.18-.46,5.91-.46,5.91a2,2,0,0,1-3,1.56L21.47,77.07a2.59,2.59,0,0,1-1.29-2.52s0-3,.42-7.39c.4-3.94.73-6.1.73-6.1a1.65,1.65,0,0,1,1.54-1.49,1.63,1.63,0,0,1,.95.21c2.32,1.35,6.19,3.6,9.62,5.57l2.94,1.7,13.18,7.57A2.78,2.78,0,0,1,51,77.5Z"/><path class="cls-31" d="M33.44,65.35,22.85,74.53A.64.64,0,0,1,21.79,74a43.52,43.52,0,0,1,.15-8,55.92,55.92,0,0,1,.76-5.75,3,3,0,0,1,.17-.65,1.63,1.63,0,0,1,.95.21C26.14,61.13,30,63.38,33.44,65.35Z"/><path class="cls-32" d="M49.82,87.25c-.24,3.16-.2,2.81-.2,2.81a2,2,0,0,1-3,1.56L21.47,77.07a2.59,2.59,0,0,1-1.29-2.52l0-.93,11.31,5.72c1,.61,5,.57,5.92,1.09Z"/><path class="cls-32" d="M47.43,91.11,22.33,76.57A2.61,2.61,0,0,1,21,74.05s0-3,.43-7.4c.39-3.94.73-6.09.73-6.09a1.64,1.64,0,0,1,.44-1,1.66,1.66,0,0,0-1.3,1.46s-.34,2.16-.73,6.1c-.44,4.38-.42,7.39-.42,7.39a2.61,2.61,0,0,0,1.29,2.52l25.1,14.54A2,2,0,0,0,49,91.29,2,2,0,0,1,47.43,91.11Z"/><path class="cls-33" d="M21.17,62.28c.11-.8.17-1.21.17-1.21a1.66,1.66,0,0,1,2.49-1.28c3,1.75,8.69,5,12.56,7.27l13.18,7.57A2.78,2.78,0,0,1,51,77.5s-.09.36-.22,1.13Z"/><path class="cls-34" d="M62.81,102.64C63,99.08,65.5,94.31,69,92.31a14.59,14.59,0,0,1,3.37-1.41c.92-.19,1.19,0,1.19-.58V62.7a2,2,0,0,1-.12.53.87.87,0,0,1-.15.31L56.53,73.25c-3.27,1.61-3.84,3.36-3.88,3.65a62.39,62.39,0,0,0-.89,7.81,94.28,94.28,0,0,0-.19,9.9l-.05,14.51a2,2,0,0,0,3,1.72l7.94-4.62S62.8,102.74,62.81,102.64Z"/><path class="cls-15" d="M53.9,93.27a1.16,1.16,0,0,1-.84-.37,1.13,1.13,0,0,1-.3-.85,42.85,42.85,0,0,1,.15-8c.3-3.15.48-4.15.68-5.32l.08-.47a2.69,2.69,0,0,1,.67-1.47c.67-.69,12-7.72,12-7.72a1.9,1.9,0,0,1,2.85,1.65v7.84a4,4,0,0,1-1.39,3L54.65,93A1.14,1.14,0,0,1,53.9,93.27Z"/><path class="cls-29" d="M69.22,78.52a4,4,0,0,1-1.39,3L54.65,93a1.14,1.14,0,0,1-.74.28,1.16,1.16,0,0,1-.84-.37l-.25-.43A3.51,3.51,0,0,0,53.15,94a1.46,1.46,0,0,0,1.07.45,1.14,1.14,0,0,0,.74-.28L68.14,82.78a2.6,2.6,0,0,0,1.1-2.42Z"/><path class="cls-35" d="M54.17,78.3a2.17,2.17,0,0,1,.53-1.2c.69-.71,11.93-7.63,11.93-7.63a1.4,1.4,0,0,1,2.1,1.22v7.84a3.53,3.53,0,0,1-1.22,2.67L54.32,92.61a.64.64,0,0,1-1.06-.53,43.67,43.67,0,0,1,.15-8A57.09,57.09,0,0,1,54.17,78.3Z"/><path class="cls-36" d="M67.29,69.28A1.38,1.38,0,0,1,68,70.47v7.84A3.53,3.53,0,0,1,66.74,81L53.55,92.4a.65.65,0,0,1-.16.1.64.64,0,0,0,.93.11L67.5,81.18a3.53,3.53,0,0,0,1.22-2.67V70.68A1.4,1.4,0,0,0,67.29,69.28Z"/><path class="cls-32" d="M44.7,88.86a3.34,3.34,0,0,1-1.63-.5,6.21,6.21,0,0,1-3-4.81,1.88,1.88,0,0,1,1.89-2.1,3.34,3.34,0,0,1,1.63.5,6.22,6.22,0,0,1,3,4.81A1.88,1.88,0,0,1,44.7,88.86Zm-2.77-6.41c-.74,0-.89.6-.89,1.1a5.29,5.29,0,0,0,2.52,3.94,2.35,2.35,0,0,0,1.13.36c.73,0,.89-.6.89-1.1a5.29,5.29,0,0,0-2.52-3.94A2.36,2.36,0,0,0,41.94,82.46Z"/><path class="cls-37" d="M34.16,83.3c.15-.09.47.09.47.09l10.46,6a2,2,0,0,1,.51.39,2.11,2.11,0,0,1,.11.52L34,83.6S34,83.37,34.16,83.3Z"/><path class="cls-38" d="M37.9,85.43l2.49,1.42c.9.9,1.8,1.76,2.7,2.61l.68.63a3,3,0,0,1,.4.26l.34.32c.23.21.45.43.66.66s.46.41.52.79a.18.18,0,0,1-.15.21h-.05c-.38-.06-.55-.33-.79-.52s-.45-.43-.66-.65l-.32-.34a3,3,0,0,1-.26-.4l-.64-.68q-1.27-1.35-2.6-2.66l-2.46-1.39a.15.15,0,0,1,.14-.25Z"/><path class="cls-37" d="M21.88,76.38c.14-.08.47.1.47.1l10.54,6a2,2,0,0,1,.46.38,2,2,0,0,1,.11.51L21.78,76.71S21.76,76.45,21.88,76.38Z"/><path class="cls-38" d="M25.66,78.53c.82.49,1.66.94,2.49,1.42.92.86,1.8,1.7,2.7,2.52l.68.62a2.88,2.88,0,0,1,.4.25l.34.31c.23.2.45.41.66.64s.46.4.52.77a.18.18,0,0,1-.15.21h-.05c-.38,0-.54-.31-.79-.5s-.45-.42-.66-.64l-.32-.33a2.9,2.9,0,0,1-.26-.39l-.64-.65c-.85-.88-1.72-1.73-2.6-2.58-.8-.45-1.62-.94-2.46-1.39a.15.15,0,0,1-.06-.2A.15.15,0,0,1,25.66,78.53Z"/><path class="cls-29" d="M20.41,91.36a1,1,0,0,1,.15-.57c-.44,0-.74.27-.74.85A2.66,2.66,0,0,0,21,93.72c.46.26.85.19,1.05-.12a1.16,1.16,0,0,1-.46-.16A2.66,2.66,0,0,1,20.41,91.36Z"/><path class="cls-39" d="M21,90.95a1.15,1.15,0,0,0-.46-.16,1,1,0,0,0-.15.57,2.66,2.66,0,0,0,1.2,2.08,1.16,1.16,0,0,0,.46.16,1,1,0,0,0,.15-.57A2.66,2.66,0,0,0,21,90.95Z"/><path class="cls-40" d="M21,90.95a1.16,1.16,0,0,0-.46-.16.93.93,0,0,0-.12.29,1.16,1.16,0,0,1,.42.15,2.66,2.66,0,0,1,1.2,2.08,1.21,1.21,0,0,1,0,.28.79.79,0,0,0,.19-.57A2.66,2.66,0,0,0,21,90.95Z"/><path class="cls-29" d="M47.12,106.79a1,1,0,0,1,.15-.57c-.44,0-.74.27-.74.85a2.66,2.66,0,0,0,1.2,2.08c.46.26.85.19,1.05-.12a1.16,1.16,0,0,1-.46-.16A2.66,2.66,0,0,1,47.12,106.79Z"/><path class="cls-39" d="M47.73,106.38a1.16,1.16,0,0,0-.46-.16,1,1,0,0,0-.15.57,2.66,2.66,0,0,0,1.2,2.08,1.16,1.16,0,0,0,.46.16,1,1,0,0,0,.15-.57A2.66,2.66,0,0,0,47.73,106.38Z"/><path class="cls-40" d="M47.73,106.38a1.16,1.16,0,0,0-.46-.16.93.93,0,0,0-.12.29,1.17,1.17,0,0,1,.42.15,2.66,2.66,0,0,1,1.2,2.08,1.21,1.21,0,0,1,0,.28.79.79,0,0,0,.19-.56A2.66,2.66,0,0,0,47.73,106.38Z"/><path class="cls-34" d="M74.39,90.67a1.51,1.51,0,0,1-.22,1.21c-.16.29-2.51.61-5.17,2.45-4.37,3-5.54,9.45-6.57,11.88A17.52,17.52,0,0,1,64.07,98l4.18-5.1Z"/><path class="cls-29" d="M74.32,91.05c-1.46.76-9.25,1.25-11.8,13.69,0,0-.36-7.12,5-11.47a25.87,25.87,0,0,1,6-3.39S74.87,90.76,74.32,91.05Z"/><path class="cls-13" d="M69,90.5l-1.79,1c-.23.13-.42.05-.42-.18v-.91a.87.87,0,0,1,.42-.66l1.79-1c.23-.13.42-.05.42.18v.91A.87.87,0,0,1,69,90.5Z"/><path class="cls-41" d="M68.89,90.45l-1.52.88c-.2.11-.35,0-.35-.15V90.4a.74.74,0,0,1,.35-.56L68.89,89c.2-.11.36,0,.36.15v.77A.74.74,0,0,1,68.89,90.45Z"/><path class="cls-15" d="M68.89,89l-.07,0v.74a.74.74,0,0,1-.35.56L67,91.15c0,.23.16.29.35.18l1.52-.88a.74.74,0,0,0,.36-.56v-.77C69.25,88.92,69.09,88.86,68.89,89Z"/><path class="cls-13" d="M68.57,89.38a.32.32,0,0,1-.16.28l-.8.46a.17.17,0,0,1-.26-.15v-.2l1.22-.71Z"/><g class="cls-1"><path class="cls-27" d="M42.68,36.79A147.07,147.07,0,0,0,30.41,47.23c-4.45,4.32-6,6.86-6.21,7.49a.4.4,0,0,1,0-.09.94.94,0,0,0-.13.43,1.56,1.56,0,0,0,.29,1,3.46,3.46,0,0,0,1.19,1.1c0-.27.36-5.31,19.67-20.14A2.42,2.42,0,0,0,42.68,36.79Z"/><path class="cls-34" d="M72.34,49.24C53,64.07,49.27,69.31,49.27,70.32l3.31,2.37c0-.27.44-5.05,19.76-19.88Z"/><path class="cls-42" d="M45.77,33.89c-19.32,14.83-20.2,23-20.22,23.23L51.93,72.39c0-.27,1.1-8.32,20.42-23.15Z"/><path class="cls-29" d="M72.34,52.82C53,67.64,52.15,72,52.13,72.31a2.67,2.67,0,0,0,1.37.38,1.8,1.8,0,0,0,1.39-.63C55,71.89,56.68,67.54,73,54.85A1.71,1.71,0,0,0,72.34,52.82Z"/><path class="cls-27" d="M54.81,72.36c0,.14,0,.13.08,0Z"/><path class="cls-34" d="M73.12,54.35a1.08,1.08,0,0,1-.12.5c-14,10.86-17.2,14-17.91,14.51-1.78,1.33-2.29.72-2.29.72s-.88,2.31-.88,2.31a2.9,2.9,0,0,0,2.53.3l18-10.38a1.42,1.42,0,0,0,.71-1.24Q73.13,57.72,73.12,54.35Z"/></g><path class="cls-43" d="M46,103.35c0-10,0-10,.11-10.09a2.73,2.73,0,0,0,.85-1l.3.06a3.6,3.6,0,0,1-1,1.08c-.06.59-.06,6.18,0,9.91Z"/><path class="cls-43" d="M23.9,90.37h-.25l.24-9.83c-.58-.48-.38-1.64-.37-1.7l.24.14a1.69,1.69,0,0,0,.33,1.4.14.14,0,0,1,.05.11Z"/><path class="cls-29" d="M17.89,87.51s7.44,4.67,15.58,9.38c10.37,6,17.22,9.57,17.22,9.57a1,1,0,0,0,.86.12s9.74-5.27,10.14-5.47c.09,0-7.86,4-9.72,4.69a1,1,0,0,1-.89-.07s-7.33-3.86-16.87-9.37C26.17,91.72,18.71,87,18.71,87Z"/><path class="cls-15" d="M44.31,99.57,25.4,88.65v-.26c0-1.1.89-1.48,2-.84l14.93,8.62a4.13,4.13,0,0,1,2,3.14Z"/><path class="cls-25" d="M26.35,87.63l16.78,9.58A2.24,2.24,0,0,1,44,98a4.38,4.38,0,0,0-1.65-1.84L27.39,87.55a1.45,1.45,0,0,0-1.57-.13A1.75,1.75,0,0,1,26.35,87.63Z"/><path class="cls-25" d="M44.24,98.77a5.14,5.14,0,0,1,.07.79v-.26A2.49,2.49,0,0,0,44.24,98.77Z"/><path class="cls-15" d="M44.31,100.82,25.4,89.9v.21c0,.64.89,1.68,2,2.31L42.32,101c1.1.63,2,.63,2,0Z"/><path class="cls-25" d="M25.4,89.9v.21a1,1,0,0,0,.05.29l18.81,10.86a.49.49,0,0,0,.05-.23v-.21Z"/><path class="cls-27" d="M52.36,111s0-2.15,0-4.7c0-.05-.06-.12-.12-.18a.53.53,0,0,1-.2-.37V92.83a107.88,107.88,0,0,1,1.08-14.45c.2-1.66.92-2.52,1.52-2.77l12.15-7.55a2.2,2.2,0,0,1,2.26,0,2.7,2.7,0,0,1,1.41,2.07l0,21.24.78.75a.13.13,0,0,1,0,.08l.06.84-.25.13-.05-.9-.79-.75a.12.12,0,0,1,0-.09l0-21.29a2.43,2.43,0,0,0-1.28-1.85,2,2,0,0,0-2,0L54.72,75.83c-.55.24-1.2,1-1.39,2.59a107.71,107.71,0,0,0-1.08,14.42v12.91c0,.06,0,.11.13.19a.51.51,0,0,1,.2.36c0,2.55,0,4.68,0,4.7Z"/><path class="cls-15" d="M30,98.71l-3.14-1.36A4.12,4.12,0,0,1,24.91,94l.12-.4,5,2.86Z"/><polygon class="cls-25" points="29.99 96.83 24.91 93.96 25.03 93.56 29.99 96.42 29.99 96.83"/><path class="cls-15" d="M38.51,104.09l3.07,1.84c1.22.7,2.25.42,2.25-.8v-.72l-5-2.86Z"/><polygon class="cls-25" points="38.8 101.94 43.83 104.85 43.83 104.41 38.87 101.55 38.8 101.94"/><path class="cls-29" d="M27.24,97.12A4.57,4.57,0,0,1,25,93.65v-.09l-.5-.29V94a4.57,4.57,0,0,0,2.2,3.48L30,99.34v-.63Z"/><path class="cls-29" d="M38.37,104.19l3.25,1.88c.85.49,1.57.43,1.94-.06a1.88,1.88,0,0,1-1.44-.28l-3.25-1.88Z"/><polygon class="cls-34" points="38.87 103.84 38.87 101.55 38.37 101.26 38.37 104.19 38.87 103.84"/><polygon class="cls-44" points="37.11 103.14 31.39 100 31.53 97.31 37.11 100.53 37.11 103.14"/><polygon class="cls-40" points="37.11 100.93 31.53 97.68 31.53 97.31 37.11 100.53 37.11 100.93"/><polygon class="cls-29" points="31.25 100.08 37.11 103.46 37.11 103.14 31.53 99.92 31.25 100.08"/><polygon class="cls-34" points="31.53 99.92 31.53 97.31 31.25 97.15 31.25 100.08 31.53 99.92"/><path class="cls-25" d="M54.1,96.21a1.88,1.88,0,0,1-.95-.26L51.57,95a.38.38,0,0,1,.37-.65l1.58.91a1.14,1.14,0,0,0,1.71-1V89A.37.37,0,1,1,56,89v5.3a1.9,1.9,0,0,1-1.89,1.89Z"/><g class="cls-1"><path class="cls-13" d="M57.37,85.73l-2.05-1.19a.38.38,0,0,0-.39,0l-.72.42a.38.38,0,0,1,.39,0l2.05,1.19a1.19,1.19,0,0,1,.54.93l0,5.47a.38.38,0,0,1-.16.35l.72-.42a.38.38,0,0,0,.16-.35l0-5.47A1.19,1.19,0,0,0,57.37,85.73Z"/><path class="cls-15" d="M56.65,86.15,54.6,85c-.3-.17-.54,0-.54.31l0,5.47a1.19,1.19,0,0,0,.54.93l2.05,1.19c.3.17.54,0,.54-.31l0-5.47A1.19,1.19,0,0,0,56.65,86.15Z"/></g><path class="cls-25" d="M51.71,95.89a.38.38,0,0,1-.37-.37V93.72a.37.37,0,0,1,.75,0v1.79A.38.38,0,0,1,51.71,95.89Z"/><path class="cls-44" d="M23.18,84.43v.33l0,2-.07,3L18.71,87V78.58l2.88,2.67A4.7,4.7,0,0,1,23.18,84.43Z"/><polygon class="cls-40" points="19.32 86.79 19.32 79.14 18.71 78.58 18.71 87.04 23.04 89.71 23.06 89.1 19.32 86.79"/><path class="cls-39" d="M22.08,82.8c0,.56-.45.75-1,.43a2.1,2.1,0,0,1-1-1.6c0-.56.45-.75,1-.43A2.1,2.1,0,0,1,22.08,82.8Z"/><path class="cls-39" d="M21,86.66c0,.43-.35.57-.77.33a1.61,1.61,0,0,1-.77-1.22c0-.43.35-.57.77-.33A1.61,1.61,0,0,1,21,86.66Z"/><path class="cls-39" d="M22.91,87.8c0,.43-.35.57-.77.33a1.61,1.61,0,0,1-.77-1.22c0-.43.35-.57.77-.33A1.61,1.61,0,0,1,22.91,87.8Z"/><path class="cls-40" d="M23.18,84.43l0,2s-2-1-3.52-2a2.28,2.28,0,0,1-.91-1.07l0-2.07a3.86,3.86,0,0,0,1.36,1.62A24.9,24.9,0,0,0,23.18,84.43Z"/><path class="cls-45" d="M23.16,84.76l0,2s-2-1-3.52-2a2.28,2.28,0,0,1-.91-1.07l0-2.07a3.86,3.86,0,0,0,1.36,1.62A24.89,24.89,0,0,0,23.16,84.76Z"/><polygon class="cls-46" points="19.78 87.07 19.07 86.65 19.07 78.92 19.78 79.56 19.78 87.07"/><polygon class="cls-46" points="20.34 87.43 20.1 87.29 20.11 79.87 20.41 80.16 20.34 87.43"/><path class="cls-43" d="M23.16,89.79l-.25-.16L23,84.43a4.59,4.59,0,0,0-1.54-3.08l-2.8-2.6v-.32l3,2.73a4.79,4.79,0,0,1,1.62,3.27l-.06,2.29Z"/><path class="cls-44" d="M51.5,97.48V106l-4.38-2.41,0-3,0-2v-.37c0-1,.6-1.43,1.58-1.36Z"/><path class="cls-40" d="M47.74,103.24l0-3,0-2v-.37a1.41,1.41,0,0,1,.26-.93A1.16,1.16,0,0,0,47,98.26v.37l0,2,0,3L51.5,106v-.71Z"/><path class="cls-39" d="M50.29,99.07c0,.56-.45.75-1,.43a2.1,2.1,0,0,1-1-1.6c0-.56.45-.75,1-.43A2.1,2.1,0,0,1,50.29,99.07Z"/><path class="cls-39" d="M49.44,103.14c0,.43-.35.57-.77.33a1.61,1.61,0,0,1-.77-1.22c0-.43.35-.57.77-.33A1.61,1.61,0,0,1,49.44,103.14Z"/><path class="cls-39" d="M51.37,104c0,.43-.35.57-.77.33a1.61,1.61,0,0,1-.77-1.22c0-.43.35-.57.77-.33A1.61,1.61,0,0,1,51.37,104Z"/><path class="cls-40" d="M51.5,100.21v2a5.67,5.67,0,0,1-2.86-.83,7,7,0,0,1-1.56-1l0-2a8.39,8.39,0,0,0,2,1.36A4.22,4.22,0,0,0,51.5,100.21Z"/><path class="cls-47" d="M51.51,100.52v2a5.67,5.67,0,0,1-2.86-.83,7,7,0,0,1-1.56-1l0-2a8.39,8.39,0,0,0,2,1.36A4.22,4.22,0,0,0,51.51,100.52Z"/><polygon class="cls-46" points="50.82 104.94 50.12 104.55 50.12 97.2 50.82 97.34 50.82 104.94"/><polygon class="cls-46" points="49.63 104.28 49.43 104.19 49.4 97.05 49.63 97.09 49.63 104.28"/><path class="cls-43" d="M47,103.53l-.06-5.27a1.45,1.45,0,0,1,.39-1.13,1.69,1.69,0,0,1,1.32-.36l2.92.53v.32L48.6,97a1.45,1.45,0,0,0-1.12.29,1.21,1.21,0,0,0-.31.94v.37l.09,5.06Z"/></g></g></g></g></svg>