<svg xmlns="http://www.w3.org/2000/svg" xmlns:xlink="http://www.w3.org/1999/xlink" viewBox="0 0 136.12 98.99"><defs><style>.cls-1{isolation:isolate;}.cls-17,.cls-2{fill:#e4ecf5;}.cls-2{mix-blend-mode:multiply;}.cls-3{fill:#15202e;}.cls-4{fill:#0c121a;}.cls-5{fill:#dde8ff;}.cls-6{fill:#798dab;}.cls-7{fill:url(#Ѕезым_нный_градиент_27);}.cls-8{fill:#ff624d;}.cls-9{fill:#ba3e2f;}.cls-10{fill:#de4d3a;}.cls-11{fill:#25303b;}.cls-12{fill:#8ba8c7;}.cls-13{fill:#b8cbe0;}.cls-14{fill:#5c7a99;}.cls-15{fill:#3a4a5d;}.cls-16{fill:#12171c;}.cls-18{fill:#1a2129;}.cls-19{fill:#bed0eb;}.cls-20{fill:#475f77;}.cls-21{fill:#4f6984;}.cls-22{fill:#4b647d;}.cls-23{fill:#314152;}.cls-24{fill:#475e76;}.cls-25{fill:#45596e;}.cls-26{fill:#ff8d7d;}.cls-27{fill:url(#linear-gradient);}.cls-28{fill:#ff4b33;}.cls-29{fill:url(#linear-gradient-2);}.cls-30{fill:#8096b0;}.cls-31{fill:#768ba3;}.cls-32{fill:#e3eefc;}.cls-33{fill:#bed3eb;}.cls-34{fill:#91aac7;}.cls-35{fill:#dfe8f0;}.cls-36{fill:#cedef0;}.cls-37{fill:#a3bad4;}.cls-38{fill:#fdbf00;}.cls-39{fill:#de6f00;}.cls-40{fill:#a3b7cf;}.cls-41{fill:url(#linear-gradient-3);}.cls-42{fill:url(#linear-gradient-4);}.cls-43{fill:url(#linear-gradient-5);}</style><linearGradient id="Ѕезым_нный_градиент_27" x1="62.18" y1="64.67" x2="65.42" y2="59.91" gradientTransform="matrix(-1, 0, 0, 1, 178.01, 0)" gradientUnits="userSpaceOnUse"><stop offset="0.03" stop-color="#afc2de"/><stop offset="0.54" stop-color="#b2c5e0"/><stop offset="0.88" stop-color="#bbcde8"/><stop offset="0.96" stop-color="#bed0eb"/></linearGradient><linearGradient id="linear-gradient" x1="28.95" y1="78.7" x2="28.12" y2="77.25" gradientUnits="userSpaceOnUse"><stop offset="0.62" stop-color="#ff624d"/><stop offset="1" stop-color="#ff8d7d"/></linearGradient><linearGradient id="linear-gradient-2" x1="50.02" y1="90.93" x2="49.19" y2="89.48" xlink:href="#linear-gradient"/><linearGradient id="linear-gradient-3" x1="21.54" y1="39.23" x2="22.11" y2="39.23" gradientUnits="userSpaceOnUse"><stop offset="0" stop-color="#99a8ba"/><stop offset="0.17" stop-color="#9dadbf"/><stop offset="0.39" stop-color="#aabbcf"/><stop offset="0.55" stop-color="#b8cbe0"/></linearGradient><linearGradient id="linear-gradient-4" x1="21.54" y1="50.94" x2="22.11" y2="50.94" xlink:href="#linear-gradient-3"/><linearGradient id="linear-gradient-5" x1="21.54" y1="62.72" x2="22.11" y2="62.72" xlink:href="#linear-gradient-3"/></defs><title>i3</title><g class="cls-1"><g id="Слой_2" data-name="Слой 2"><g id="_лой_1" data-name="—лой_1"><g id="truck_behind" data-name="truck behind"><path class="cls-2" d="M1.12,71.8,38.8,93.36l18.53,3.28,8.57-1.69L73,90.84,72,88.23l29.22-16.8,9-1.95,5.91-3.4.1-3.29,9.48-5.45a.9.9,0,0,0,0-1.56L73.86,26.13,1.11,68A2.22,2.22,0,0,0,1.12,71.8Z"/><g class="cls-1"><path class="cls-3" d="M109.57,54c1.58-.91,3-1,4-.4l4,2.29c-1-.6-9.07,13.25-8,13.85l-4-2.29a4,4,0,0,1-1.66-3.64A12.48,12.48,0,0,1,109.57,54Z"/><path class="cls-4" d="M113.53,56.32c3.14-1.81,5.69-.36,5.7,3.25a12.49,12.49,0,0,1-5.67,9.81c-3.14,1.81-5.69.35-5.7-3.25A12.48,12.48,0,0,1,113.53,56.32Z"/></g><path class="cls-5" d="M113.94,67.14a8.23,8.23,0,0,0,3.72-6.44c0-2.37-1.67-3.33-3.72-2.15A8.23,8.23,0,0,0,110.22,65C110.22,67.37,111.89,68.33,113.94,67.14Z"/><path class="cls-6" d="M114.16,67.3a8.23,8.23,0,0,0,3.72-6.44c0-2.37-1.67-3.33-3.72-2.15a8.23,8.23,0,0,0-3.72,6.44C110.44,67.52,112.11,68.49,114.16,67.3Z"/><path class="cls-5" d="M111.09,65.07a2.86,2.86,0,0,0,.54,1.77c.36.48,1.69.41,1.69.41,4.46-1.82,4.72-4.55,4.22-7a2.9,2.9,0,0,0-.81-1.12,2.32,2.32,0,0,0-2.35.21A7.26,7.26,0,0,0,111.09,65.07Zm1.54-.74a3.84,3.84,0,0,1,1.74-3c1-.55,1.74-.1,1.74,1a3.84,3.84,0,0,1-1.74,3C113.41,65.89,112.63,65.44,112.63,64.33Z"/><path class="cls-7" d="M112.13,65.22c0,1.86,1.31,2.62,2.93,1.69A6.48,6.48,0,0,0,118,61.84c0-1.86-1.31-2.62-2.93-1.69A6.48,6.48,0,0,0,112.13,65.22Zm1.38-.66a3.43,3.43,0,0,1,1.55-2.69c.86-.49,1.55-.09,1.55.9a3.43,3.43,0,0,1-1.55,2.69C114.2,65.95,113.5,65.55,113.5,64.56Z"/><path class="cls-5" d="M114.75,61.33c0,.2.14.28.31.18a.68.68,0,0,0,.31-.53c0-.2-.14-.28-.31-.18A.68.68,0,0,0,114.75,61.33Z"/><path class="cls-5" d="M113.53,62.72c.1.1.29,0,.43-.17s.17-.43.07-.53-.29,0-.43.17S113.43,62.62,113.53,62.72Z"/><path class="cls-5" d="M112.89,64.47a.62.62,0,0,0,.39-.45c.05-.22,0-.37-.2-.33a.62.62,0,0,0-.39.45C112.64,64.36,112.73,64.51,112.89,64.47Z"/><path class="cls-5" d="M113.08,65.91a.62.62,0,0,0,.2-.56c-.05-.16-.23-.16-.39,0a.62.62,0,0,0-.2.56C112.75,66.07,112.92,66.07,113.08,65.91Z"/><path class="cls-5" d="M114,66.5c.1-.22.07-.42-.07-.46s-.33.11-.43.33-.07.42.07.46S113.92,66.71,114,66.5Z"/><path class="cls-5" d="M116.58,64.61c-.1-.1-.29,0-.43.17s-.17.43-.07.53.29,0,.43-.17S116.68,64.71,116.58,64.61Z"/><path class="cls-5" d="M117.21,62.85a.62.62,0,0,0-.39.45c-.05.22,0,.37.2.33a.62.62,0,0,0,.39-.45C117.46,63,117.38,62.82,117.21,62.85Z"/><path class="cls-5" d="M117,61.41a.62.62,0,0,0-.2.56c.05.16.23.16.39,0a.62.62,0,0,0,.2-.56C117.36,61.26,117.19,61.26,117,61.41Z"/><path class="cls-5" d="M116.08,60.83c-.1.22-.07.42.07.46s.33-.11.43-.33.07-.42-.07-.46S116.18,60.62,116.08,60.83Z"/><path class="cls-5" d="M115.36,66c0-.2-.14-.28-.31-.18a.68.68,0,0,0-.31.53c0,.2.14.28.31.18A.68.68,0,0,0,115.36,66Z"/><path class="cls-8" d="M128.81,21.36l-19.9,9.27-33-19,13.9-8a8.23,8.23,0,0,1,8.26,0Z"/><polygon class="cls-9" points="109.03 57.66 75.94 38.64 75.94 11.67 108.91 30.62 109.03 57.66"/><path class="cls-10" d="M130.79,38.87V52.46l-.28.16-10.66,6.12c-.3.17-.48.09-.46-.22,0-.09-.15-1.36-.16-1.44-.16-3.47-2.57-4.52-6.09-2.49-.2.12-.41.24-.61.38l-.23.15a14.66,14.66,0,0,0-2.26,2c-.4.43-1.13.92-1.13.14V30.62s8-4.29,14.52-7.91c3.69-2.05,5.85-2.86,6.63,1.2a32.67,32.67,0,0,1,.56,5.81C130.73,35.4,130.79,38.87,130.79,38.87Z"/><path class="cls-10" d="M109.7,59.28l-.11-.62A11.59,11.59,0,0,1,113,55.17c2.06-1.21,3.63-1.68,5-.74s1.35,4.23,1.35,4.23-1-3.09-2.91-3.28C114.28,55.15,109.7,59.28,109.7,59.28Z"/><path class="cls-8" d="M109.59,58.66l-1.62-.6s2.92-2.13,5-3.34,3.63-1.68,5-.74,1.41,4.42,1.41,4.42-.89-3.53-2.75-3.72C114.4,54.44,109.59,58.66,109.59,58.66Z"/><path class="cls-10" d="M130.76,48.36l-3,1.66.38,4,3.15-1.75A1.57,1.57,0,0,0,132,51V47.47Z"/><path class="cls-8" d="M131.66,46.87l-.87-.5V48L122,53.25l9.69-5.18A.69.69,0,0,0,131.66,46.87Z"/><path class="cls-11" d="M114.42,41.79c-.32,0-1.36-.13-1.36-1.82V32.86a5,5,0,0,1,2.33-4.06c1.78-1,10.56-5.65,11.24-5.86a1.42,1.42,0,0,1,.42-.06,2,2,0,0,1,1.74,1.56l.08.36a27.9,27.9,0,0,1,.5,3.71,43,43,0,0,1,.15,8,2.79,2.79,0,0,1-1.42,2.18l-13.21,3.09A1.72,1.72,0,0,1,114.42,41.79Z"/><path class="cls-8" d="M129.51,36.46a2.79,2.79,0,0,1-1.42,2.18l-13.21,3.09a1.72,1.72,0,0,1-.47.07c-.32,0-1.36-.13-1.36-1.82v1c0,1.69,1,1.82,1.36,1.82a1.72,1.72,0,0,0,.47-.07L128.1,39.6a2.79,2.79,0,0,0,1.42-2.18C129.52,37.33,129.52,36.39,129.51,36.46Z"/><path class="cls-12" d="M129,36.41A2.42,2.42,0,0,1,128,38.16l-13.19,3.07c-.77.23-1.22-.23-1.22-1.26V32.86A4,4,0,0,1,114,31a4.49,4.49,0,0,1,.32-.56,4.44,4.44,0,0,1,1.32-1.26s10.45-5.6,11.12-5.8a1,1,0,0,1,.28,0,1.09,1.09,0,0,1,.8.4,1.9,1.9,0,0,1,.45.76,25,25,0,0,1,.56,4A42.76,42.76,0,0,1,129,36.41Z"/><path class="cls-13" d="M127.92,34.78a1.86,1.86,0,0,1-2.87,1.58l-10.72-5.88a4.44,4.44,0,0,1,1.32-1.26s10.45-5.6,11.12-5.8a1,1,0,0,1,.28,0,.69.69,0,0,1,.55.27,40.87,40.87,0,0,1,.48,5.16C128.13,32,127.92,34.78,127.92,34.78Z"/><path class="cls-14" d="M128.86,28.55a25.35,25.35,0,0,0-.56-4c-.07-.32-.56-1.17-1.27-1.16a1.87,1.87,0,0,1,.44.76,25.12,25.12,0,0,1,.57,4,42.91,42.91,0,0,1,.15,7.86,2.41,2.41,0,0,1-1.06,1.75l-13.19,3.08-.21,0a.81.81,0,0,0,1,.36L128,38.16A2.4,2.4,0,0,0,129,36.41,42.93,42.93,0,0,0,128.86,28.55Z"/><path class="cls-15" d="M117,49.69l-1.79,1c-.23.13-.42.05-.42-.18v-.91a.87.87,0,0,1,.42-.66l1.79-1c.23-.13.42-.05.42.18V49A.87.87,0,0,1,117,49.69Z"/><path class="cls-16" d="M116.84,49.63l-1.52.88c-.2.11-.36,0-.36-.15v-.77a.74.74,0,0,1,.36-.56l1.52-.88c.2-.11.36,0,.36.15v.77A.74.74,0,0,1,116.84,49.63Z"/><path class="cls-11" d="M116.84,48.15l-.07,0v.74a.74.74,0,0,1-.36.56l-1.45.84c0,.23.16.29.36.18l1.52-.88a.74.74,0,0,0,.36-.56V48.3C117.19,48.11,117,48,116.84,48.15Z"/><path class="cls-15" d="M116.51,48.57a.32.32,0,0,1-.16.28l-.8.46a.17.17,0,0,1-.26-.15V49l1.22-.71Z"/><path class="cls-9" d="M130.77,52.53l-.27.15-.05-4-.35-.2a.17.17,0,0,1-.06-.11L130,29.5c0-2-.63-5.82-1.41-6.53a2,2,0,0,0-2.1-.32L114.91,28.6A4.82,4.82,0,0,0,112.3,33l.22,22,1.21.6s.07.07,0,.34v.38l-.22.12v-.65l-1.21-.6,0,0a.11.11,0,0,1,0-.08L112.05,33a5.06,5.06,0,0,1,2.75-4.6l11.53-6a2.21,2.21,0,0,1,2.37.35c.86.78,1.52,4.62,1.5,6.72l.09,18.84.34.2a.12.12,0,0,1,.07.1Z"/><path class="cls-17" d="M130.64,48.11l.55-.37s0-5.81-.16-6.23a4.44,4.44,0,0,0-.39-.88Z"/><path class="cls-18" d="M132.31,38.4a1.89,1.89,0,0,1-.95-.26l-.88-.56a.38.38,0,0,1,.41-.63l.86.55a1.14,1.14,0,0,0,1.7-1V31.2a.38.38,0,0,1,.75,0v5.3a1.9,1.9,0,0,1-1.89,1.89Z"/><g class="cls-1"><path class="cls-15" d="M135.58,27.92l-2.05-1.19a.38.38,0,0,0-.39,0l-.72.42a.38.38,0,0,1,.39,0l2.05,1.19a1.19,1.19,0,0,1,.54.93l0,5.47a.38.38,0,0,1-.16.35l.72-.42a.38.38,0,0,0,.16-.35l0-5.47A1.19,1.19,0,0,0,135.58,27.92Z"/><path class="cls-11" d="M134.86,28.34l-2.05-1.19c-.3-.17-.54,0-.54.31l0,5.47a1.19,1.19,0,0,0,.54.93l2.05,1.19c.3.17.54,0,.54-.31l0-5.47A1.19,1.19,0,0,0,134.86,28.34Z"/><path class="cls-17" d="M134.72,28.54l-1.77-1c-.26-.15-.47,0-.47.27v5.1a1,1,0,0,0,.46.8l1.77,1c.26.15.47,0,.47-.27v-5.1A1,1,0,0,0,134.72,28.54Z"/></g><path class="cls-18" d="M130.64,38.43a.38.38,0,0,1-.37-.37V36.27a.38.38,0,0,1,.75,0v1.79A.38.38,0,0,1,130.64,38.43Z"/><g class="cls-1"><path class="cls-8" d="M98.13,3.53,126,19.67c-1.1-.64-7.84-1.25-17.16,2.4L81.71,6.31C93.19,1.79,97,2.89,98.13,3.53Z"/><path class="cls-10" d="M121.21,16.79,123.1,18c-1.1-.64-6.83-1.65-18.31,2.86L81.08,7.42C92.56,2.91,120.11,16.15,121.21,16.79Z"/><path class="cls-8" d="M100,4.48l21.72,12.66c-1.1-.64-5.94-3.86-17.42.65L80.63,4.71C92.83-.23,98.94,3.84,100,4.48Z"/><polygon class="cls-9" points="108.84 29.27 81.73 13.52 81.71 6.31 108.82 22.06 108.84 29.27"/><path class="cls-10" d="M108.82,22.06c14.06-5.53,17.68-2.12,17.81-2-.09-.21-7.09,2.63-12.3,5.59a64.72,64.72,0,0,0-5.49,3.58Z"/></g><g class="cls-1"><path class="cls-3" d="M65.51,79.74c1.58-.91,3-1,4-.4l4,2.29c-1-.6-9.07,13.25-8,13.85l-4-2.29a4,4,0,0,1-1.66-3.64A12.48,12.48,0,0,1,65.51,79.74Z"/><path class="cls-4" d="M69.47,82c3.14-1.81,5.69-.36,5.7,3.25a12.49,12.49,0,0,1-5.67,9.81c-3.14,1.81-5.69.35-5.7-3.25A12.48,12.48,0,0,1,69.47,82Z"/></g><path class="cls-5" d="M69.88,92.86a8.23,8.23,0,0,0,3.72-6.44c0-2.37-1.67-3.33-3.72-2.15a8.23,8.23,0,0,0-3.72,6.44C66.16,93.08,67.83,94,69.88,92.86Z"/><path class="cls-6" d="M70.1,93a8.23,8.23,0,0,0,3.72-6.44c0-2.37-1.67-3.33-3.72-2.15a8.23,8.23,0,0,0-3.72,6.44C66.38,93.24,68.05,94.2,70.1,93Z"/><path class="cls-19" d="M68.62,92.81A2.83,2.83,0,0,0,70,92.38a7.12,7.12,0,0,0,3.22-5.57c0-1.34-.63-2.17-1.64-2.17a2.83,2.83,0,0,0-1.38.43A7.12,7.12,0,0,0,67,90.64C67,92,67.61,92.81,68.62,92.81Z"/><path class="cls-5" d="M67.36,92.06a2.83,2.83,0,0,0,1.38-.43A7.12,7.12,0,0,0,72,86.07a2.76,2.76,0,0,0-.34-1.42c1,0,1.6.84,1.6,2.16A7.12,7.12,0,0,1,70,92.38a2.83,2.83,0,0,1-1.38.42,1.45,1.45,0,0,1-1.3-.75Z"/><g class="cls-1"><polygon class="cls-20" points="73.13 81.04 67.01 77.48 70.8 77.34 76.92 80.9 73.13 81.04"/><polygon class="cls-21" points="67.63 84.22 61.51 80.66 67.01 77.48 73.13 81.04 67.63 84.22"/><polygon class="cls-22" points="63.84 88.45 57.72 84.9 61.51 80.66 67.63 84.22 63.84 88.45"/><polygon class="cls-23" points="63.85 89.08 57.73 85.52 57.72 84.9 63.84 88.45 63.85 89.08"/><polygon class="cls-24" points="73.13 81.04 76.92 80.9 76.92 81.52 73.13 81.66 67.63 84.84 63.85 89.08 63.84 88.45 67.63 84.22 73.13 81.04"/></g><polygon class="cls-15" points="91.61 76.01 102.64 69.64 102.64 61.99 91.61 68.37 91.61 76.01"/><polygon class="cls-25" points="102.64 61.99 91.61 68.37 85.33 64.74 96.37 58.37 102.64 61.99"/><polygon class="cls-11" points="91.61 76.01 91.61 68.37 85.33 64.74 85.33 72.39 91.61 76.01"/><polygon class="cls-11" points="101.97 63.84 92.62 69.23 92.62 69.68 101.97 64.28 101.97 63.84"/><polygon class="cls-11" points="101.97 66.08 92.62 71.48 92.62 71.93 101.97 66.53 101.97 66.08"/><polygon class="cls-11" points="101.97 68.33 92.62 73.72 92.62 74.17 101.97 68.77 101.97 68.33"/><g class="cls-1"><polygon class="cls-15" points="51.58 89.8 52.66 89.18 52.65 91.36 51.57 91.99 51.58 89.8"/><polygon class="cls-25" points="23.55 73.64 24.63 73.01 52.66 89.18 51.58 89.8 23.55 73.64"/><polygon class="cls-11" points="51.58 89.8 51.57 91.99 23.54 75.83 23.55 73.64 51.58 89.8"/></g><g class="cls-1"><path class="cls-26" d="M25.63,75.14a.34.34,0,0,0-.34,0l-.77.45a.34.34,0,0,1,.34,0l3.07,1.77.77-.45Z"/><path class="cls-27" d="M28.7,76.91l-.77.45a1.06,1.06,0,0,1,.48.84v.59a.34.34,0,0,1-.14.31l.77-.45a.34.34,0,0,0,.14-.31v-.59A1.06,1.06,0,0,0,28.7,76.91Z"/><path class="cls-28" d="M27.93,77.36l-3.07-1.77c-.27-.15-.48,0-.48.28v.59a1.06,1.06,0,0,0,.48.84l3.07,1.77c.27.15.48,0,.48-.28V78.2A1.06,1.06,0,0,0,27.93,77.36Z"/></g><g class="cls-1"><path class="cls-26" d="M46.7,87.37a.34.34,0,0,0-.34,0l-.77.45a.34.34,0,0,1,.34,0L49,89.59l.77-.45Z"/><path class="cls-29" d="M49.77,89.14l-.77.45a1.06,1.06,0,0,1,.48.84V91a.34.34,0,0,1-.14.31l.77-.45a.34.34,0,0,0,.14-.31V90A1.06,1.06,0,0,0,49.77,89.14Z"/><path class="cls-28" d="M49,89.59l-3.07-1.77c-.27-.15-.48,0-.48.28v.59a1.06,1.06,0,0,0,.48.84L49,91.29c.27.15.48,0,.48-.28v-.59A1.06,1.06,0,0,0,49,89.59Z"/></g><g class="cls-1"><polygon class="cls-30" points="81.65 75.5 81.08 75.17 81.1 81.85 81.67 82.18 81.65 75.5"/><polygon class="cls-31" points="81.65 75.5 81.08 75.17 81.09 77.4 81.66 77.73 81.65 75.5"/><polygon class="cls-32" points="81.58 74.89 81.08 75.17 81.65 75.5 82.14 75.21 81.58 74.89"/><polygon class="cls-33" points="82.14 75.21 81.65 75.5 81.67 82.18 82.16 81.89 82.14 75.21"/><polygon class="cls-34" points="82.14 75.21 81.65 75.5 81.66 77.73 82.15 77.44 82.14 75.21"/></g><g class="cls-1"><polygon class="cls-30" points="92.01 69.52 91.45 69.19 91.47 75.87 92.03 76.2 92.01 69.52"/><polygon class="cls-31" points="92.01 69.52 91.45 69.19 91.46 71.46 92.02 71.78 92.01 69.52"/><polygon class="cls-32" points="91.94 68.91 91.45 69.19 92.01 69.52 92.5 69.23 91.94 68.91"/><polygon class="cls-33" points="92.5 69.23 92.01 69.52 92.03 76.2 92.52 75.91 92.5 69.23"/><polygon class="cls-34" points="92.5 69.23 92.01 69.52 92.02 71.78 92.52 71.5 92.5 69.23"/></g><g class="cls-1"><polygon class="cls-30" points="102.38 63.54 101.82 63.21 101.84 69.89 102.4 70.22 102.38 63.54"/><polygon class="cls-31" points="102.38 63.54 101.82 63.21 101.83 65.4 102.39 65.72 102.38 63.54"/><polygon class="cls-32" points="102.31 62.93 101.82 63.21 102.38 63.54 102.87 63.26 102.31 62.93"/><polygon class="cls-33" points="102.87 63.26 102.38 63.54 102.4 70.22 102.89 69.94 102.87 63.26"/><polygon class="cls-34" points="102.87 63.26 102.38 63.54 102.39 65.72 102.88 65.44 102.87 63.26"/></g><g class="cls-1"><polygon class="cls-30" points="79.02 80.59 78.56 80.33 78.57 81.17 79.02 81.43 79.02 80.59"/><polygon class="cls-35" points="79.02 80.59 78.56 80.33 105.04 65.13 105.5 65.4 79.02 80.59"/><polygon class="cls-33" points="105.5 65.4 79.02 80.59 79.02 81.43 105.5 66.24 105.5 65.4"/></g><g class="cls-1"><polygon class="cls-30" points="79.02 83.09 78.56 82.82 78.57 83.67 79.02 83.93 79.02 83.09"/><polygon class="cls-35" points="79.02 83.09 78.56 82.82 105.04 67.63 105.5 67.89 79.02 83.09"/><polygon class="cls-33" points="105.5 67.89 79.02 83.09 79.02 83.93 105.5 68.74 105.5 67.89"/></g><polygon class="cls-13" points="55.91 91.88 20.29 71.32 20.29 31.3 55.91 51.86 55.91 91.88"/><polygon class="cls-30" points="54.38 52.75 54.38 89.22 21.83 70.43 21.83 33.95 53.38 52.17 54.38 52.75"/><polygon class="cls-36" points="109.99 60.58 55.91 91.88 55.91 51.86 109.99 20.56 109.99 60.58"/><polygon class="cls-32" points="109.99 20.56 55.91 51.86 20.29 31.3 74.37 0 109.99 20.56"/><polygon class="cls-37" points="54.38 52.75 54.38 89.22 21.83 70.43 53.38 52.17 54.38 52.75"/><g class="cls-1"><path class="cls-38" d="M67.48,82.39l1.18-.68a.11.11,0,0,1,.11,0l.4.23a.11.11,0,0,0-.11,0l-1.18.68a.36.36,0,0,0-.16.28v.47a.11.11,0,0,0,0,.1l-.4-.23a.11.11,0,0,1,0-.1v-.47A.36.36,0,0,1,67.48,82.39Z"/><path class="cls-39" d="M67.89,82.62l1.18-.68c.09-.05.16,0,.16.09v.47a.36.36,0,0,1-.16.28l-1.18.68c-.09.05-.16,0-.16-.09V82.9A.36.36,0,0,1,67.89,82.62Z"/></g><g class="cls-1"><path class="cls-38" d="M82.68,73.53l1.18-.68a.11.11,0,0,1,.11,0l.4.23a.11.11,0,0,0-.11,0l-1.18.68a.36.36,0,0,0-.16.28v.47a.11.11,0,0,0,0,.1l-.4-.23a.11.11,0,0,1,0-.1v-.47A.36.36,0,0,1,82.68,73.53Z"/><path class="cls-39" d="M83.08,73.76l1.18-.68c.09-.05.16,0,.16.09v.47a.36.36,0,0,1-.16.28l-1.18.68c-.09.05-.16,0-.16-.09V74A.36.36,0,0,1,83.08,73.76Z"/></g><g class="cls-1"><path class="cls-38" d="M54.48,51.51l-1.18-.68a.11.11,0,0,0-.11,0l-.4.23a.11.11,0,0,1,.11,0l1.18.68a.36.36,0,0,1,.16.28v.47a.11.11,0,0,1,0,.1l.4-.23a.11.11,0,0,0,0-.1v-.47A.36.36,0,0,0,54.48,51.51Z"/><path class="cls-39" d="M54.07,51.74l-1.18-.68c-.09-.05-.16,0-.16.09v.47a.36.36,0,0,0,.16.28l1.18.68c.09.05.16,0,.16-.09V52A.36.36,0,0,0,54.07,51.74Z"/></g><g class="cls-1"><path class="cls-38" d="M23,33.35l-1.18-.68a.11.11,0,0,0-.11,0l-.4.23a.11.11,0,0,1,.11,0l1.18.68a.36.36,0,0,1,.16.28v.47a.11.11,0,0,1,0,.1l.4-.23a.11.11,0,0,0,0-.1v-.47A.36.36,0,0,0,23,33.35Z"/><path class="cls-39" d="M22.64,33.59l-1.18-.68c-.09-.05-.16,0-.16.09v.47a.36.36,0,0,0,.16.28l1.18.68c.09.05.16,0,.16-.09v-.47A.36.36,0,0,0,22.64,33.59Z"/></g><g class="cls-1"><path class="cls-38" d="M97.88,64.67,99.05,64a.11.11,0,0,1,.11,0l.4.23a.11.11,0,0,0-.11,0l-1.18.68a.36.36,0,0,0-.16.28v.47a.11.11,0,0,0,0,.1l-.4-.23a.11.11,0,0,1,0-.1v-.47A.36.36,0,0,1,97.88,64.67Z"/><path class="cls-39" d="M98.28,64.91l1.18-.68c.09-.05.16,0,.16.09v.47a.36.36,0,0,1-.16.28l-1.18.68c-.09.05-.16,0-.16-.09v-.47A.36.36,0,0,1,98.28,64.91Z"/></g><polygon class="cls-17" points="21.83 33.94 5.55 24.55 4.74 25.06 21.01 34.45 21.83 33.94"/><polygon class="cls-40" points="21.01 34.45 21.01 70.93 21.83 70.43 21.83 33.94 21.01 34.45"/><polygon class="cls-30" points="4.74 25.06 4.74 61.54 21.01 70.93 21.01 34.45 4.74 25.06"/><path class="cls-41" d="M22,38.42a.44.44,0,0,1-.4,0,.14.14,0,0,1-.08-.12V40a.14.14,0,0,0,.09.12.44.44,0,0,0,.4,0,.14.14,0,0,0,.08-.11V38.31A.14.14,0,0,1,22,38.42Z"/><path class="cls-17" d="M22,38.19a.44.44,0,0,0-.4,0c-.11.07-.11.17,0,.23a.44.44,0,0,0,.4,0C22.14,38.36,22.14,38.25,22,38.19Z"/><path class="cls-42" d="M22,50.13a.44.44,0,0,1-.4,0,.14.14,0,0,1-.09-.12v1.68a.14.14,0,0,0,.08.12.44.44,0,0,0,.4,0,.14.14,0,0,0,.08-.11V50A.14.14,0,0,1,22,50.13Z"/><path class="cls-17" d="M22,49.9a.44.44,0,0,0-.4,0c-.11.07-.11.17,0,.23a.44.44,0,0,0,.4,0C22.14,50.06,22.14,50,22,49.9Z"/><path class="cls-43" d="M22,61.92a.44.44,0,0,1-.4,0,.14.14,0,0,1-.08-.12v1.68a.14.14,0,0,0,.09.12.44.44,0,0,0,.4,0,.14.14,0,0,0,.08-.11V61.8A.14.14,0,0,1,22,61.92Z"/><path class="cls-17" d="M22,61.68a.44.44,0,0,0-.4,0c-.11.07-.11.17,0,.23a.44.44,0,0,0,.4,0C22.14,61.85,22.14,61.75,22,61.68Z"/><polygon class="cls-17" points="70.65 62 54.37 52.6 53.56 53.11 69.83 62.51 70.65 62"/><polygon class="cls-40" points="69.83 62.51 69.83 98.99 70.65 98.48 70.65 62 69.83 62.51"/><polygon class="cls-30" points="53.56 53.11 53.56 89.59 69.83 98.99 69.83 62.51 53.56 53.11"/></g></g></g></g></svg>