<svg xmlns="http://www.w3.org/2000/svg" xmlns:xlink="http://www.w3.org/1999/xlink" viewBox="0 0 20.98 44.84"><defs><style>.cls-1{isolation:isolate;}.cls-2{fill:#e4ecf5;mix-blend-mode:multiply;}.cls-3{fill:#f5c59a;}.cls-4{fill:#ba3e2f;}.cls-5{fill:#3a4a5d;}.cls-6{fill:#ff624d;}.cls-7{fill:#fcd1a9;}.cls-8{fill:#25303b;}.cls-9{fill:#debd9b;}.cls-10{fill:#f0ddca;}.cls-11{fill:#f0d6bb;}.cls-12{fill:#f0c184;}.cls-13{fill:#e3b77d;}.cls-14{fill:#9c7750;}.cls-15{fill:#fff;}.cls-16{fill:#de4d3a;}.cls-17{fill:url(#linear-gradient);}.cls-18{fill:url(#linear-gradient-2);}.cls-19{fill:#e8b07d;}</style><linearGradient id="linear-gradient" x1="637.97" y1="-11.12" x2="637.97" y2="-14.44" gradientTransform="translate(-630.89 24.09) rotate(-0.4)" gradientUnits="userSpaceOnUse"><stop offset="0.13" stop-color="#fcd1a9"/><stop offset="0.56" stop-color="#f2b98c"/></linearGradient><linearGradient id="linear-gradient-2" x1="614.07" y1="-6.3" x2="614.62" y2="-12.31" gradientTransform="translate(-605.86 10.7) rotate(0.24)" gradientUnits="userSpaceOnUse"><stop offset="0" stop-color="#f2b98c"/><stop offset="0.41" stop-color="#f7c69b"/><stop offset="0.91" stop-color="#fcd1a9"/></linearGradient></defs><title>i6</title><g class="cls-1"><g id="Слой_2" data-name="Слой 2"><g id="_лой_1" data-name="—лой_1"><g id="male_back_with_box" data-name="male back with box"><path class="cls-2" d="M17.85,37c-.85,1.59-3.56,2.68-6,3.5-3.48,1.15.85,1.13-1,3-1.41,1.37-4.95,1.7-5.92,1-.78-.59.64-4.42,3.4-4.94,2.56-.48,3.55-3.27,4.92-3.83C15.1,34.89,19.27,34.38,17.85,37Z"/><path class="cls-3" d="M6.92,16.14a5.39,5.39,0,0,0,2.17.42c.13,0,.14-.13.26-.16s.38,0,.48-.07.11-.17.15-.24.11-.05.12-.09a.52.52,0,0,0,0-.27s-.1-.12-.11-.16a.32.32,0,0,0-.15-.26,1.83,1.83,0,0,0-.49-.25C9,15,8.32,14.85,8,14.79A.88.88,0,0,0,7,15.37C6.76,15.74,6.78,16.08,6.92,16.14Z"/><path class="cls-3" d="M8.07,14.95a2.21,2.21,0,0,1,.48-.13,2.14,2.14,0,0,0,.33,0,.32.32,0,0,0,.24-.13c.05-.07.08-.21-.06-.2a6.21,6.21,0,0,1-.73-.11,1.82,1.82,0,0,0-1,.52C7.36,15,7.79,15,8.07,14.95Z"/><path class="cls-3" d="M7.39,14.82,2.87,13.54c.65-1.34,2-4.18,2.34-5.19a1.52,1.52,0,0,0-.86-2.08C3.32,6,2.8,7,2.6,7.44A62.53,62.53,0,0,0,0,14c-.26.93,1.14,1.53,1.4,1.59A52.1,52.1,0,0,0,7,16.18s.5-.14.59-.52A.81.81,0,0,0,7.39,14.82Z"/><path class="cls-4" d="M4.45,10.41a22.37,22.37,0,0,0,.84-2.09c.18-.57.31-1.83-.84-2.16S2.71,7,2.5,7.42,2,8.71,1.71,9.29a3.65,3.65,0,0,0,1,.68C4.08,10.54,4.45,10.41,4.45,10.41Z"/><path class="cls-3" d="M12.28,38.12a1.43,1.43,0,0,0,.93.06c.54-.15.66-.3,1-.36a12.85,12.85,0,0,0,1.35-.39c.33-.11.82-.27.92-.72s-.32-.48-.73-.52a7.85,7.85,0,0,1-1.06,0,4.57,4.57,0,0,1-.64-.07c-.15,0-.1-.55-.1-.55-.9-.72-1.67-.33-1.68.08C12.23,36.58,11.4,37.67,12.28,38.12Z"/><path class="cls-5" d="M12.09,38.29a1.43,1.43,0,0,0,.92.11c.54-.12.67-.27,1-.31s1.33-.22,1.55-.29a1.45,1.45,0,0,0,.9-.8c.3-.69-.17-.78-.58-.85a5.25,5.25,0,0,0-1,.08,2,2,0,0,1-.89-.15c-.16,0-.37.65-.37.65-.15.35-.92.53-1.18.22s-.39-.58-.49-.31C11.76,37.33,11.49,37.94,12.09,38.29Z"/><path class="cls-6" d="M16.51,36.3c-.1-.24-.38-.23-.66-.23a6.81,6.81,0,0,1-.85,0,5.88,5.88,0,0,1-.87-.17c-.16,0-.35.58-.35.58a.44.44,0,0,1-.1.13.79.79,0,0,1-.24.15,1.09,1.09,0,0,1-.29.08.9.9,0,0,1-.31,0,.49.49,0,0,1-.25-.14c-.17-.21-.39-.58-.49-.31l-.14.37a3.45,3.45,0,0,0-.11.35c0,.19-.05.27,0,.34a1.53,1.53,0,0,0,.35.23,1.25,1.25,0,0,0,.87.15c.12,0,.24.26.33.23a3.75,3.75,0,0,1,.72-.23c.2,0,.31,0,.5-.07l.24-.05c.43-.1.52-.48.59-.49a1.58,1.58,0,0,0,.81-.38.65.65,0,0,0,.26-.43Z"/><path class="cls-7" d="M5.91,44.12a1.43,1.43,0,0,0,.92.12c.54-.12.67-.26,1-.3s1.33-.21,1.55-.27a1.13,1.13,0,0,0,.77-.58.85.85,0,0,0-.54-1.21c-.24,0-.54.2-.86.23s-.58.24-.92.14c-.14,0,0-.56,0-.56-.85-.78-1.74-.4-1.77,0C6,42.82,5.06,43.61,5.91,44.12Z"/><path class="cls-5" d="M5.82,44.4a1.43,1.43,0,0,0,.92.12c.54-.12.67-.26,1-.3S9.1,44,9.32,44a1.45,1.45,0,0,0,.91-.78c.3-.69-.27-.95-.67-1-.24,0-.54.2-.86.23a2,2,0,0,1-.88-.16c-.16,0-.38.65-.38.65-.16.35-.93.52-1.19.2s-.39-.58-.49-.32C5.5,43.43,5.21,44,5.82,44.4Z"/><path class="cls-6" d="M10.26,42.47a.82.82,0,0,0-.61-.59c-.24,0-.54.2-.86.23a2,2,0,0,1-.88-.16c-.16,0-.38.65-.38.65a.44.44,0,0,1-.1.13.79.79,0,0,1-.24.15,1.08,1.08,0,0,1-.3.08.9.9,0,0,1-.31,0,.49.49,0,0,1-.24-.14A2,2,0,0,0,6,42.41l-.06,0s-.07,0-.1.09a6.73,6.73,0,0,0-.25.72c-.09.37,0,.34.35.57a1.25,1.25,0,0,0,.86.16c.12,0,.24.26.32.24a3.75,3.75,0,0,1,.73-.22,5.06,5.06,0,0,0,.74-.11c.43-.1.53-.47.6-.48a1.55,1.55,0,0,0,.54-.19A1.84,1.84,0,0,0,10,43a.93.93,0,0,0,.2-.23.35.35,0,0,0,.07-.2Z"/><path class="cls-8" d="M14.09,28.39c0-.54.06-1.26.07-1.65a1.48,1.48,0,0,0,0-.26,3.8,3.8,0,0,0-1.07-2L7,19.21a18.2,18.2,0,0,0-1.83,1.44,2.43,2.43,0,0,0-.33,2.87,17.14,17.14,0,0,0,1.93,1.32l4.41,2.39a4.76,4.76,0,0,0-.26,1.34c.11,1.63.88,4.92.84,7,0,1.14.27,1.48.73,1.56,1.07.18,2.9-.68,2.78-1.11A31.33,31.33,0,0,1,14.09,28.39Z"/><path class="cls-5" d="M11.18,22.07s-.12-.55-.61-.56a6.16,6.16,0,0,0-4.37,1.54s.7,6.54.92,8.81a11.13,11.13,0,0,0-.56,1.8c-.26,1.61-.68,7-.94,8.66-.08.52-.29.93,1.17.92.45,0,2-.68,2-1.13A62.47,62.47,0,0,1,9.62,34c.18-.8.41-2.31.41-2.31a3.4,3.4,0,0,0,.08-.43s.72-4,1-5.7C11.21,24.7,11.18,22.07,11.18,22.07Z"/><polygon class="cls-9" points="15.31 18.65 5.63 12.82 5.68 10.28 15.36 16.11 15.31 18.65"/><polygon class="cls-10" points="5.68 10.28 15.36 16.11 20.98 13 11.3 7.17 5.68 10.28"/><polygon class="cls-11" points="15.31 18.65 15.36 16.11 20.98 13 20.93 15.54 15.31 18.65"/><polygon class="cls-12" points="8.15 8.91 17.83 14.74 18.95 14.13 9.27 8.3 8.15 8.91"/><polygon class="cls-13" points="17.79 17.28 17.83 14.74 18.95 14.13 18.91 16.66 17.79 17.28"/><path class="cls-14" d="M7.62,12l-1.26-.76c-.06,0-.1,0-.1,0l0,1.27a.21.21,0,0,0,.1.16l1.26.76c.06,0,.1,0,.1,0l0-1.27A.21.21,0,0,0,7.62,12Zm0,1.39s-1.28-.75-1.28-.75,0-1.31,0-1.31,1.28.75,1.28.75S7.62,13.4,7.62,13.4Z"/><path class="cls-14" d="M7.44,12.17l-.63-.38,0,.14-.09,0,0,.1-.1-.13.06-.06-.06-.16-.15-.09a.94.94,0,0,0,.4.7v.43c-.12-.06-.21-.08-.21,0l.51.31s-.09-.14-.21-.22v-.43C7.25,12.49,7.43,12.4,7.44,12.17Z"/><path class="cls-14" d="M9.37,13.06,8.11,12.3c-.06,0-.1,0-.1,0l0,1.27a.21.21,0,0,0,.1.16l1.26.76c.06,0,.1,0,.1,0l0-1.27A.21.21,0,0,0,9.37,13.06Zm0,1.39s-1.28-.75-1.28-.75,0-1.31,0-1.31,1.28.75,1.28.75S9.36,14.45,9.36,14.45Z"/><path class="cls-14" d="M8.77,12.92c-.28-.17-.51-.08-.52.21a.31.31,0,0,0,.1,0,.22.22,0,0,1,.11.07l.07.07h.06a.23.23,0,0,1,.11.07l.05.06h.06a.23.23,0,0,1,.11.07l.06.06h.06a.23.23,0,0,1,.12.07l.05.06A.92.92,0,0,0,8.77,12.92Z"/><path class="cls-14" d="M8.9,14.05l0,0-.07,0a.16.16,0,0,1-.08-.13l0-1a0,0,0,0,1,0,0,0,0,0,0,1,0,0l0,1a.08.08,0,0,0,0,.05l.06,0s0-.06,0-.06a0,0,0,0,1,0,0c0,.06,0,.09,0,.1Z"/><path class="cls-14" d="M11.11,14.11l-1.26-.76c-.06,0-.1,0-.1,0l0,1.27a.21.21,0,0,0,.1.16l1.26.76c.06,0,.1,0,.1,0l0-1.27A.21.21,0,0,0,11.11,14.11Zm0,1.39s-1.28-.75-1.28-.75,0-1.31,0-1.31,1.28.75,1.28.75S11.11,15.5,11.11,15.5Z"/><polygon class="cls-14" points="10.95 15.31 9.96 14.71 9.96 14.52 10.96 15.12 10.95 15.31"/><polygon class="cls-14" points="10.28 14.63 10.14 14.55 10.15 13.91 10.29 13.99 10.28 14.63"/><polygon class="cls-14" points="10.22 14.07 10.4 14.17 10.31 13.96 10.23 13.76 10.13 13.86 10.04 13.96 10.22 14.07"/><polygon class="cls-14" points="10.78 14.93 10.64 14.85 10.65 14.21 10.79 14.29 10.78 14.93"/><polygon class="cls-14" points="10.72 14.37 10.89 14.47 10.81 14.26 10.72 14.06 10.63 14.16 10.54 14.26 10.72 14.37"/><path class="cls-15" d="M20.64,14.87l-1.4.77c-.07,0-.12,0-.12-.05v-.75a.25.25,0,0,1,.12-.18l1.4-.77c.07,0,.12,0,.12.05v.75A.25.25,0,0,1,20.64,14.87Z"/><polygon class="cls-5" points="19.39 15.47 19.32 15.51 19.33 14.72 19.41 14.68 19.39 15.47"/><polygon class="cls-5" points="19.55 15.23 19.47 15.27 19.48 14.63 19.56 14.59 19.55 15.23"/><polygon class="cls-5" points="19.69 15.15 19.62 15.19 19.63 14.55 19.7 14.51 19.69 15.15"/><polygon class="cls-5" points="19.84 15.06 19.77 15.11 19.78 14.47 19.85 14.43 19.84 15.06"/><polygon class="cls-5" points="19.99 15.14 19.91 15.18 19.93 14.39 20 14.35 19.99 15.14"/><polygon class="cls-5" points="20.14 14.9 20.06 14.94 20.07 14.31 20.15 14.27 20.14 14.9"/><polygon class="cls-5" points="20.29 14.82 20.21 14.86 20.22 14.22 20.3 14.18 20.29 14.82"/><polygon class="cls-5" points="20.43 14.74 20.36 14.78 20.37 14.14 20.45 14.1 20.43 14.74"/><polygon class="cls-5" points="20.58 14.81 20.51 14.86 20.52 14.06 20.59 14.02 20.58 14.81"/><path class="cls-8" d="M7.22,19.52l-3.09-.45s-.24,1.48-.26,1.68A4,4,0,0,0,4.37,23c.54.77,1,1,1.75.27A6.73,6.73,0,0,1,7.22,19.52Z"/><path class="cls-5" d="M11.25,21a3.23,3.23,0,0,0-.08-.67l-4.8-.83c-.45,1.94-.62,3.72.12,4.4a3.59,3.59,0,0,0,2,.73c.7,0,1.29-.5,2.37-1.75a2,2,0,0,0,.36-.63C11.19,22.1,11.25,21.44,11.25,21Z"/><path class="cls-6" d="M11.25,12.65a55,55,0,0,0,0,8.35A2.3,2.3,0,0,1,10,22.06a9.31,9.31,0,0,1-3.8.08,4.21,4.21,0,0,1-1.71-.69,1.3,1.3,0,0,1-.61-1.14,27.82,27.82,0,0,0-.13-4.87c-.07-.31-.87-3.48-1-4.31a10.55,10.55,0,0,1-.08-3.49c.16-.74,1.08-1.58,1.77-1.47A5.38,5.38,0,0,1,5,6.35c.78.32,2.28.95,2.86,1.28.15.09.38.24.63.42.61.43,2.37,1.76,2.37,1.76.44.41.36,1,.45,2C11.31,11.78,11.28,11.76,11.25,12.65Z"/><path class="cls-5" d="M11.35,14.32a61.26,61.26,0,0,0-.1,6.68,2.26,2.26,0,0,1-1.15,1.19,10.15,10.15,0,0,1-3.9.21,3.93,3.93,0,0,1-1.66-.85c-.47-.33-.69-.52-.7-1a29.94,29.94,0,0,0-.07-5.14C3.71,15.13,2.91,12.28,3,12a6,6,0,0,0,.36-1.54S3,7.37,4.77,6.3c.16-.1.84.31.84.31C3.82,7.89,4.4,9.94,4.7,10.07c.12,0,1.37.5,1.88.65a.49.49,0,0,0,.57-.23,4.16,4.16,0,0,1,1.95-2l.75.56C7.54,10.55,8,11.87,8,11.87,8.16,15.35,11.38,13.43,11.35,14.32Z"/><path class="cls-3" d="M19.48,16.56c.15-.13.07-.39-.11-.34s-.49.31-.64.34-.49.13-.5.08.46-.15.56-.21.32-.1.38-.18.13-.19,0-.27-.41,0-.64.12a2.19,2.19,0,0,1-1,0c.06-.08.13-.17.21-.17a2.34,2.34,0,0,0,.36,0,.34.34,0,0,0,.27-.13c.06-.08.09-.15-.07-.15a5.47,5.47,0,0,1-.7-.11,2,2,0,0,0-1.05.53s0,0,.05,0a1.17,1.17,0,0,0-.27.16l-4.76-.55c0-1,.11-2.94.16-3.94.09-1.66-1-2.09-1.38-2.08-1.1,0-1.41,1.48-1.44,1.93a19.47,19.47,0,0,0,.28,5.23A1.81,1.81,0,0,0,10.6,18a40.67,40.67,0,0,0,5.72-.35,2.21,2.21,0,0,0,.38.18,3.3,3.3,0,0,0,1.24.11,4.17,4.17,0,0,0,.73-.1,2.36,2.36,0,0,0,.34-.18.13.13,0,0,0-.05-.23c-.1,0-.26.14-.32.15s-.42.07-.35,0,.38-.09.54-.15a2.39,2.39,0,0,0,.54-.3c.14-.12.06-.33-.1-.28s-.38.21-.48.24-.55.13-.5.06.4-.08.56-.16A3.63,3.63,0,0,0,19.48,16.56Z"/><path class="cls-16" d="M11.79,13.09c0-.53,0-1.09,0-1.45.09-1.66-1-2.08-1.45-2.07-1.1,0-1.47,1.5-1.5,2s-.12,1-.12,1.45a3.08,3.08,0,0,0,1.21.25A8.27,8.27,0,0,0,11.79,13.09Z"/><path class="cls-17" d="M5.75,5.26l0,2.61a.61.61,0,0,0,.36.5,1.93,1.93,0,0,0,1.75,0,.61.61,0,0,0,.36-.51l0-2.61Z"/><path class="cls-18" d="M9.76,3.3A3.18,3.18,0,0,0,9.6,1.06C9,.78,7.31,2.84,7.18,3.47a1.88,1.88,0,0,0,.07,1.12c.05.15.53.67.69.91a2.6,2.6,0,0,1,.21,1c0,.2,0,.42,0,.42a.48.48,0,0,0,.48-.06,5,5,0,0,0,.79-1.05,4.21,4.21,0,0,0,.48-1.68A8,8,0,0,0,9.76,3.3Z"/><path class="cls-19" d="M8.68,4.37a1.53,1.53,0,0,0,.25.51c.11.14.07.32.2.31.29,0,.14-.72.17-1s-.1-.65-.32-.46A.68.68,0,0,0,8.68,4.37Z"/><path class="cls-8" d="M9.6.91A2,2,0,0,0,8.74.27,2.79,2.79,0,0,0,6.15.36a5,5,0,0,0-1.3.91,3,3,0,0,0-.67,1.4,8,8,0,0,0-.06,1A3.84,3.84,0,0,0,4.44,5,3.18,3.18,0,0,0,5,5.92a3.86,3.86,0,0,0,.43.42,1.83,1.83,0,0,0,1.2.6,1.55,1.55,0,0,0,1.57-.77,5.93,5.93,0,0,1,.5-2.06A1,1,0,0,1,9,3.66c.14-.08.2,0,.26.16A.58.58,0,0,0,9.52,4l.11.05s0-.72,0-.76a1.44,1.44,0,0,1,.06-.89c.06-.19.13-.36.19-.57A1.54,1.54,0,0,0,9.6.91Z"/><path class="cls-16" d="M8.72,8.21s-2.91,1.1-3.31-.37a.77.77,0,0,1,.35-.89,1.05,1.05,0,0,0,.93.67A3.94,3.94,0,0,0,8.24,7.4Z"/></g></g></g></g></svg>