<svg xmlns="http://www.w3.org/2000/svg" viewBox="0 0 74.54 77.1"><defs><style>.cls-1{fill:#5e96ff;}.cls-2{fill:#457ce3;}.cls-3{fill:#3c6bc4;}.cls-4{fill:#3e3e3e;}.cls-5{fill:#545454;}.cls-6{fill:#f4f4f4;}.cls-7{fill:#f2c799;}.cls-8{fill:#c29a77;}.cls-9{fill:#94765a;}.cls-10{fill:#e6bd91;}.cls-11{fill:#d9b389;}.cls-12{fill:#858585;}</style></defs><title>i5</title><g id="Слой_2" data-name="Слой 2"><g id="Layer_2" data-name="Layer 2"><path class="cls-1" d="M74.54,45.18c0,2.11-1.54,4.34-4.56,6.08L50.83,62.31c-5.51,3.18-13.84,3.53-18.61.77l-29-16.74C1.06,45.09,0,43.42,0,41.67c0-2.11,1.54-4.34,4.56-6.08L23.7,24.54c5.51-3.18,13.84-3.52,18.61-.77l29,16.74C73.48,41.76,74.54,43.43,74.54,45.18Z"/><path class="cls-2" d="M74.54,45.18V57C74.54,59.08,73,61.31,70,63L50.83,74.1c-5.51,3.18-13.84,3.53-18.61.77l-29-16.74C1.06,56.88,0,55.21,0,53.46V41.67c0,1.75,1.06,3.42,3.22,4.67l29,16.74c4.77,2.75,13.1,2.41,18.61-.77L70,51.26C73,49.52,74.54,47.29,74.54,45.18Z"/><path class="cls-3" d="M0,41.67a4.47,4.47,0,0,0,.92,2.55c1.25,1.71.11.55,26.25,15.36,5.31,3,6.66,4.09,9.83,4.55a21.71,21.71,0,0,0,13.16-2s12.17-6.88,19.37-10.83c2.43-1.31,4.89-3.33,5-6.09.06,2.83-2.34,5-4.79,6.45-4.4,2.67-18.47,11.1-20.39,12-3.27,1.57-10.07,3-16,.62C31.14,63.28,7.16,49,2.81,46.26a7.11,7.11,0,0,1-2-1.94A4.56,4.56,0,0,1,0,41.67Z"/><path class="cls-3" d="M0,45.55A4.47,4.47,0,0,0,.92,48.1c1,1.44,2.11,1.83,6.9,4.47,21.79,12.09,24.44,14.06,26.59,14.8a21.28,21.28,0,0,0,13.29-.31c3.08-1.09,3-1.55,21.85-11.9,2.44-1.32,4.89-3.33,5-6.09.06,2.84-2.36,5-4.79,6.45-4.39,2.66-18.47,11.1-20.39,12a22.09,22.09,0,0,1-15.3.89c-2.41-.84-27.72-16-31.25-18.24A5.43,5.43,0,0,1,0,45.55Z"/><path class="cls-3" d="M0,49.43a5.43,5.43,0,0,0,3,4.34c4.46,2.51,2.11,1,24.22,13.57L32,70.1c4.43,2.65,10.78,2.54,15.7.83,2.37-.84,1.07-.39,19.41-10.57a30.52,30.52,0,0,0,4.74-2.83,6.5,6.5,0,0,0,2.69-4.6c.08,3.91-4.28,6.14-7.17,7.89C49.38,71.62,49.49,71.36,48,71.89A21.51,21.51,0,0,1,33.39,72C31.25,71.08,7.6,57,2.81,54A5.43,5.43,0,0,1,0,49.43Z"/><path class="cls-3" d="M0,53.31a4.47,4.47,0,0,0,.92,2.55C2.32,57.77,1,56.21,32,74c5,3,12.79,2.56,18.18-.24.8-.41,1.61-.9,2.41-1.35,18.58-10.5,17.81-9.8,19.26-11a8.51,8.51,0,0,0,1.84-2,5.12,5.12,0,0,0,.86-2.59A6.47,6.47,0,0,1,72,61.63a30.54,30.54,0,0,1-4.66,3.07C49.38,75.5,49.5,75.23,48,75.77a22.87,22.87,0,0,1-11.2,1.06,17.06,17.06,0,0,1-2.78-.7c-1.48-.52-1.18-.38-17-9.66C1.66,57.35,1.69,57.32.79,55.95A4.56,4.56,0,0,1,0,53.31Z"/><path class="cls-4" d="M33.11,61.54l-29-16.74c-3.93-2.27-2.45-5.46,1.34-7.65L24.6,26.09c5.05-2.92,12.7-3.16,16.83-.77l29,16.74c3.93,2.27,2.45,5.47-1.34,7.65L49.94,60.76C44.89,63.68,37.24,63.92,33.11,61.54Z"/><path class="cls-5" d="M33.4,60,7.05,44.83c-1.44-.83-2.2-1.87-2.2-3,0-1.45,1.25-3,3.42-4.26l17.4-10c4.52-2.61,11.61-2.93,15.47-.7L67.48,42c1.44.83,2.2,1.87,2.2,3,0,1.45-1.24,3-3.42,4.26l-17.4,10C44.35,62,37.27,62.27,33.4,60Zm.19-.32c3.76,2.17,10.68,1.85,15.1-.7l17.4-10c2.05-1.18,3.23-2.62,3.23-3.94,0-1-.68-1.92-2-2.69L41,27.13c-3.76-2.17-10.68-1.85-15.1.7l-17.4,10C6.4,39.06,5.22,40.5,5.22,41.81c0,1,.68,1.92,2,2.69Z"/><polygon class="cls-6" points="8.63 57.78 3.84 55.02 3.84 52.56 8.63 55.33 8.63 57.78"/><polygon class="cls-6" points="32.31 71.46 27.52 68.69 27.52 66.24 32.31 69 32.31 71.46"/><polygon class="cls-7" points="38.23 28.86 13.24 14.43 38.23 0 63.23 14.43 38.23 28.86"/><polygon class="cls-8" points="49.45 22.39 24.46 7.95 27.01 6.48 52.01 20.91 49.45 22.39"/><polygon class="cls-9" points="50.66 21.69 25.67 7.25 25.8 7.18 50.8 21.61 50.66 21.69"/><polygon class="cls-10" points="38.23 57.73 13.24 43.29 13.24 14.43 38.23 28.86 38.23 57.73"/><polygon class="cls-11" points="63.23 43.29 38.23 57.73 38.23 28.86 63.23 14.43 63.23 43.29"/><polygon class="cls-8" points="52.01 20.91 52.01 49.77 49.45 51.25 49.45 22.39 52.01 20.91"/><polygon class="cls-9" points="50.8 21.61 50.8 50.47 50.66 50.55 50.66 21.69 50.8 21.61"/><polygon class="cls-4" points="19.68 43.83 16.46 41.97 16.46 41.48 19.68 43.34 19.68 43.83"/><polygon class="cls-4" points="17.56 42.12 17.32 41.97 17.32 39.47 17.56 39.61 17.56 42.12"/><polygon class="cls-4" points="19.04 42.97 18.79 42.83 18.79 40.32 19.04 40.46 19.04 42.97"/><polygon class="cls-4" points="17.44 38.2 17.75 39.73 17.13 39.37 17.44 38.2 17.44 38.2"/><polygon class="cls-4" points="18.61 40.21 18.92 39.05 19.23 40.57 18.61 40.21"/><polygon class="cls-4" points="34.16 51.79 34.31 51.88 34.31 47.57 34.16 47.48 34.16 51.79"/><polygon class="cls-4" points="33.48 51.4 33.95 51.67 33.95 47.37 33.48 47.09 33.48 51.4"/><polygon class="cls-4" points="33.04 51.14 33.35 51.33 33.35 47.02 33.04 46.84 33.04 51.14"/><polygon class="cls-4" points="32.45 50.8 32.91 51.07 32.91 46.77 32.45 46.49 32.45 50.8"/><polygon class="cls-4" points="31.93 50.5 32.4 50.77 32.4 46.47 31.93 46.2 31.93 50.5"/><polygon class="cls-4" points="31.45 50.23 31.84 50.45 31.84 46.14 31.45 45.92 31.45 50.23"/><polygon class="cls-4" points="30.97 49.95 31.28 50.13 31.28 45.82 30.97 45.64 30.97 49.95"/><polygon class="cls-4" points="30.53 49.69 30.68 49.78 30.68 45.48 30.53 45.39 30.53 49.69"/><polygon class="cls-4" points="29.93 49.35 30.24 49.53 30.24 45.22 29.93 45.04 29.93 49.35"/><polygon class="cls-4" points="29.49 49.09 29.64 49.18 29.64 44.88 29.49 44.79 29.49 49.09"/><polygon class="cls-4" points="28.86 48.73 29.24 48.95 29.24 44.64 28.86 44.42 28.86 48.73"/><polygon class="cls-4" points="28.45 48.49 28.61 48.58 28.61 44.28 28.45 44.19 28.45 48.49"/><path class="cls-4" d="M57.26,41.61l.7.06L58.61,40a1.21,1.21,0,0,1,.2-.33c-.25.15-.8.46-.91.54a.82.82,0,0,0-.22.34Z"/><path class="cls-4" d="M58.53,40.51l.2.29a0,0,0,0,1,0,0l-.19.23.74-.43.36-.95-.17.21h0l-.17-.22a.15.15,0,0,0-.12-.06h0a.43.43,0,0,0-.29.21,1,1,0,0,0-.12.21Z"/><path class="cls-4" d="M59.1,41.29l.42.58.38-.22a.68.68,0,0,0,.18-.15.6.6,0,0,0,.16-.43.34.34,0,0,0-.06-.18l-.36-.48Z"/><path class="cls-4" d="M58.65,43l.38.61v-.33l.47-.27a.45.45,0,0,0,.13-.14,1,1,0,0,0,.1-.19l.4-1.05a.76.76,0,0,1-.22.18l-.86.48h0V42Z"/><path class="cls-4" d="M57.49,43.21l-.2.5a.73.73,0,0,0-.06.27c0,.09,0,.15.07.17s.24,0,.24,0l.76-.44v-.94Z"/><path class="cls-4" d="M56.67,42.48l.21,0h0a0,0,0,0,1,0,0l-.19.49c-.12.3-.05.38-.05.38l.46.65a.75.75,0,0,1,.06-.39l.44-1.08h0l.22,0L57.47,42Z"/><polygon class="cls-6" points="23.64 30.37 15.73 25.8 15.73 21.05 23.64 25.62 23.64 30.37"/><polygon class="cls-12" points="23.24 26.7 16.13 22.6 16.13 21.89 23.24 25.99 23.24 26.7"/><polygon class="cls-12" points="23.24 28.11 16.13 24.02 16.13 23.31 23.24 27.41 23.24 28.11"/><polygon class="cls-12" points="20.69 28.06 16.13 25.43 16.13 24.73 20.69 27.35 20.69 28.06"/></g></g></svg>