<svg xmlns="http://www.w3.org/2000/svg" viewBox="0 0 34.95 92.11"><defs><style>.cls-1{fill:#d23530;}.cls-2{fill:#3e3e3e;}.cls-3{fill:#3b66c2;}.cls-4{fill:#477beb;}.cls-5{fill:#e3af8a;}.cls-6{fill:#ecb68f;}.cls-7{fill:#484848;}.cls-8{fill:#f2c799;}.cls-9{fill:#c29a77;}.cls-10{fill:#94765a;}.cls-11{fill:#c29f7a;}.cls-12{fill:#d1ac84;}.cls-13{fill:#f4f4f4;}.cls-14{fill:#858585;}</style></defs><title>i8</title><g id="Слой_2" data-name="Слой 2"><g id="Layer_2" data-name="Layer 2"><path class="cls-1" d="M18.15,15.08S14.49,16.78,13.07,20l3.58,1.75Z"/><path class="cls-2" d="M15.79,77.32s-2.55,2.79-5.7,3.19c0,0-2.3.9,0,1.45a10.31,10.31,0,0,0,6.89-.7h1.4V82h2.95v-3Z"/><path class="cls-2" d="M30.43,84.22s-1.5,7.34,1.3,7.84,3.6-3.25,2-7.84Z"/><path class="cls-3" d="M14.25,38.26s-2.09,15.79,0,25.28S15,77.22,15,77.22s3.43,4,6.36,2.6c0,0,1.58-18.75-.72-26.25l-.45-15.32Z"/><path class="cls-4" d="M17.48,38.74c-.08-.35,1.3,20.85,8.41,29.56,0,0,2.47,13.64,4.42,16.94,0,0,3.3,1.27,4.65,0,0,0-.3-16.64-2.62-21.43,0,0-1-10-.9-14.61S31.2,39,29.82,38.06,17.48,38.74,17.48,38.74Z"/><path class="cls-1" d="M17.48,15.44C12.28,20.81,16,29.68,13.76,40.7c4.76,4.92,17.51,3.36,17.17-1.53-.43-6.14,3.47-13.46,2.21-19-.73-3.25-3.18-4.85-6.58-5.58C23.95,14,19.42,13.44,17.48,15.44Z"/><path class="cls-5" d="M27,11.51a8.81,8.81,0,0,0,.17,2.92c.12.66-3.49,2.84-4.15,2.57-2.24-1-1.87-1.77-1.87-1.77a15.26,15.26,0,0,0,.23-4.07Z"/><path class="cls-6" d="M29.43,6.66s.28,5.87-5.34,6.9a3.48,3.48,0,0,1-3.82-2,12.86,12.86,0,0,1-.85-5.84s.84-4.49,5.45-3.64S29.43,6.66,29.43,6.66Z"/><path class="cls-7" d="M19.2,6.29s1.73-1,6,.77c.27.11.69,1.21.9,1.1,3.46-1.72,1.38,3.71,1.38,3.71s1.45,0,1.89-4.1S28.2-.28,22.81,1.13A4.47,4.47,0,0,0,19.2,6.29Z"/><path class="cls-3" d="M29.19,4.14S29.31,3,27.62,1.47A13.25,13.25,0,0,0,24.41.08a1.61,1.61,0,0,0-1.11,0,16,16,0,0,0-3,1.46c-1.29,1-1.5,2.77-1.69,5.27,0,0,4.25.38,5.77.27C24.41,7.13,28.2,6.14,29.19,4.14Z"/><path class="cls-3" d="M18.82,5.07S23.69,7,24.33,6.74,21.6,10.18,20.17,10s-1.6-1.76-4.25-1.78Z"/><polygon class="cls-8" points="11.55 29.71 1.19 23.73 11.55 17.75 21.91 23.73 11.55 29.71"/><polygon class="cls-9" points="16.2 27.03 5.84 21.04 6.89 20.43 17.26 26.41 16.2 27.03"/><polygon class="cls-10" points="16.7 26.74 6.34 20.75 6.39 20.72 16.75 26.7 16.7 26.74"/><polygon class="cls-11" points="11.55 41.67 1.19 35.69 1.19 23.73 11.55 29.71 11.55 41.67"/><polygon class="cls-12" points="21.91 35.69 11.55 41.67 11.55 29.71 21.91 23.73 21.91 35.69"/><polygon class="cls-9" points="17.26 26.41 17.26 38.38 16.2 38.99 16.2 27.03 17.26 26.41"/><polygon class="cls-10" points="16.75 26.7 16.75 38.67 16.7 38.7 16.7 26.74 16.75 26.7"/><polygon class="cls-2" points="3.86 35.91 2.52 35.14 2.52 34.94 3.86 35.71 3.86 35.91"/><polygon class="cls-2" points="2.98 35.2 2.88 35.14 2.88 34.1 2.98 34.16 2.98 35.2"/><polygon class="cls-2" points="3.59 35.56 3.49 35.5 3.49 34.46 3.59 34.52 3.59 35.56"/><polygon class="cls-2" points="2.93 33.58 3.06 34.21 2.8 34.06 2.93 33.58 2.93 33.58"/><polygon class="cls-2" points="3.41 34.41 3.54 33.93 3.67 34.56 3.41 34.41"/><polygon class="cls-2" points="9.86 39.21 9.92 39.25 9.92 37.47 9.86 37.43 9.86 39.21"/><polygon class="cls-2" points="9.58 39.05 9.77 39.16 9.77 37.38 9.58 37.27 9.58 39.05"/><polygon class="cls-2" points="9.39 38.95 9.52 39.02 9.52 37.24 9.39 37.16 9.39 38.95"/><polygon class="cls-2" points="9.15 38.8 9.34 38.91 9.34 37.13 9.15 37.02 9.15 38.8"/><polygon class="cls-2" points="8.93 38.68 9.13 38.79 9.13 37.01 8.93 36.9 8.93 38.68"/><polygon class="cls-2" points="8.73 38.56 8.89 38.66 8.89 36.87 8.73 36.78 8.73 38.56"/><polygon class="cls-2" points="8.53 38.45 8.66 38.52 8.66 36.74 8.53 36.66 8.53 38.45"/><polygon class="cls-2" points="8.35 38.34 8.42 38.38 8.42 36.6 8.35 36.56 8.35 38.34"/><polygon class="cls-2" points="8.1 38.2 8.23 38.28 8.23 36.49 8.1 36.42 8.1 38.2"/><polygon class="cls-2" points="7.92 38.1 7.99 38.13 7.99 36.35 7.92 36.31 7.92 38.1"/><polygon class="cls-2" points="7.66 37.94 7.82 38.04 7.82 36.25 7.66 36.16 7.66 37.94"/><polygon class="cls-2" points="7.49 37.85 7.56 37.88 7.56 36.1 7.49 36.06 7.49 37.85"/><path class="cls-2" d="M19.43,35l.29,0,.27-.68a.5.5,0,0,1,.08-.14l-.38.22a.34.34,0,0,0-.09.14Z"/><path class="cls-2" d="M20,34.54l.08.12h0l-.08.1.31-.18.15-.39-.07.09h0l-.07-.09-.05,0h0a.18.18,0,0,0-.12.09l0,.09Z"/><path class="cls-2" d="M20.19,34.86l.17.24.16-.09.07-.06a.25.25,0,0,0,.06-.18.14.14,0,0,0,0-.07l-.15-.2Z"/><path class="cls-2" d="M20,35.57l.16.25v-.13h0l.19-.11.05-.06,0-.08.16-.44a.32.32,0,0,1-.09.08l-.36.2h0v-.1Z"/><path class="cls-2" d="M19.53,35.66l-.08.21a.3.3,0,0,0,0,.11s0,.06,0,.07.1,0,.1,0l.32-.18v-.39Z"/><path class="cls-2" d="M19.19,35.35h.09l-.08.2c0,.12,0,.16,0,.16l.19.27a.31.31,0,0,1,0-.16l.18-.45h.1l-.16-.23Z"/><polygon class="cls-13" points="5.5 30.34 2.22 28.44 2.22 26.48 5.5 28.37 5.5 30.34"/><polygon class="cls-14" points="5.33 28.81 2.39 27.11 2.39 26.82 5.33 28.52 5.33 28.81"/><polygon class="cls-14" points="5.33 29.4 2.39 27.7 2.39 27.41 5.33 29.11 5.33 29.4"/><polygon class="cls-14" points="4.27 29.38 2.39 28.29 2.39 28 4.27 29.09 4.27 29.38"/><path class="cls-6" d="M26.75,23s-3.67,6.38-6.24,8.09a20.77,20.77,0,0,1-6.39,2.46s1.11,2.8,2.75,2.79,8-2.92,8.66-3.43,5.14-3.16,5.81-8Z"/><path class="cls-6" d="M14.25,32.71c-.62-.22-1.27-.22-2.63-.69-.46-.16-1.19.65,0,1.25.24.12.48.08.78.3s.46.23.37.34A2.38,2.38,0,0,0,14.25,32.71Z"/><path class="cls-6" d="M18,35.82c-.23.74-.76.16-2.24,1.41a7.19,7.19,0,0,1-4.1.74.83.83,0,0,1-.81-.57.83.83,0,0,1-.53-.62.85.85,0,0,1-.36-.68.85.85,0,0,1,.25-1.59l.88-.13a8.36,8.36,0,0,0,1.7-.48,2.38,2.38,0,0,0,1.46-1.2,3,3,0,0,1,.69.34A1.69,1.69,0,0,0,16.56,33,2.62,2.62,0,0,1,18,35.82Z"/><path class="cls-1" d="M25.61,23.93c1.16,2,2.94,2.64,5.47,3.14,0,0,4.14-5.3,1-8.43C30.19,16.79,27.18,18,25.61,23.93Z"/><path class="cls-6" d="M2.07,31.19h0a.45.45,0,0,1-.4.49l-.87.09a.45.45,0,0,1-.49-.4h0a.45.45,0,0,1,.4-.49l.87-.09A.45.45,0,0,1,2.07,31.19Z"/><path class="cls-6" d="M2.18,30.4h0a.6.6,0,0,1-.78.3l-1-.47a.6.6,0,0,1-.3-.78h0a.6.6,0,0,1,.78-.3l1,.47A.6.6,0,0,1,2.18,30.4Z"/><path class="cls-6" d="M2.11,30.63h0a.54.54,0,0,1-.58.49L.49,31A.54.54,0,0,1,0,30.45H0A.54.54,0,0,1,.59,30l1,.09A.54.54,0,0,1,2.11,30.63Z"/><path class="cls-6" d="M2.43,29.75h0a.6.6,0,0,1-.83.11l-.91-.69a.6.6,0,0,1-.11-.83h0a.6.6,0,0,1,.83-.11l.91.69A.6.6,0,0,1,2.43,29.75Z"/></g></g></svg>