<svg xmlns="http://www.w3.org/2000/svg" viewBox="0 0 90.81 81.85"><defs><style>.cls-1{fill:#d23530;}.cls-2{fill:#477beb;}.cls-3{fill:#8a0101;}.cls-4{fill:#6998ff;}.cls-5{fill:#3b65c2;}.cls-6{fill:#999;}.cls-7{fill:#f4f4f4;}.cls-8{fill:#ddd;}.cls-9{fill:#afafaf;}.cls-10{fill:#828282;}.cls-11{fill:#fff;}.cls-12{fill:#c7c7c7;}.cls-13{fill:#495255;}.cls-14{fill:#71767c;}.cls-15{fill:#62666a;}</style></defs><title>i9</title><g id="Слой_2" data-name="Слой 2"><g id="Layer_2" data-name="Layer 2"><path class="cls-1" d="M43,52.8V81.85l-7.78-4.49L8.43,61.91.65,57.41V28.36Q21.82,23.24,43,52.8Z"/><path class="cls-2" d="M90.81,25.2l-.37.21-1.52.89-.37.21L65.65,39.72,43,52.8Q21.82,23.24.65,28.36L45.92,2.23l.65-.37,1.26-.73.64-.37Q69.64-4.36,90.81,25.2Z"/><polygon class="cls-3" points="90.81 25.2 90.81 54.25 43 81.85 43 52.8 65.65 39.72 90.81 25.2"/><path class="cls-4" d="M44.89,51.7,43,52.8A97.22,97.22,0,0,0,32.41,40.19a53,53,0,0,0-10.59-8.28Q11.24,25.8.65,28.36l1.9-1.1h0q10.58-2.56,21.17,3.55a53,53,0,0,1,10.58,8.28A97.28,97.28,0,0,1,44.89,51.7Z"/><path class="cls-4" d="M6.39,25l1.9-1.1h0q10.58-2.56,21.17,3.55A53,53,0,0,1,40,35.78,97.27,97.27,0,0,1,50.63,48.39l-1.9,1.1A97.22,97.22,0,0,0,38.15,36.87,53,53,0,0,0,27.56,28.6Q17,22.49,6.39,25Z"/><path class="cls-4" d="M12.13,21.73l1.9-1.1h0q10.58-2.56,21.17,3.55a53,53,0,0,1,10.58,8.28A97.25,97.25,0,0,1,56.37,45.07l-1.9,1.1A97.21,97.21,0,0,0,43.89,33.56,53,53,0,0,0,33.3,25.28Q22.72,19.17,12.13,21.73Z"/><path class="cls-4" d="M17.87,18.42l1.9-1.1h0q10.58-2.56,21.17,3.55a53,53,0,0,1,10.58,8.28A97.23,97.23,0,0,1,62.11,41.76l-1.9,1.1A97.2,97.2,0,0,0,49.63,30.25,53,53,0,0,0,39,22Q28.46,15.86,17.87,18.42Z"/><path class="cls-5" d="M88.91,26.29l-.37.21A96,96,0,0,0,78.33,14.41,58.49,58.49,0,0,0,67.74,6.13a29.34,29.34,0,0,0-21.82-3.9l.65-.37Q57.15-.7,67.74,5.4a52.83,52.83,0,0,1,10.59,8.28A97.38,97.38,0,0,1,88.91,26.29Z"/><path class="cls-5" d="M83.17,29.61l-.37.21A96,96,0,0,0,72.59,17.73,58.48,58.48,0,0,0,62,9.45a29.34,29.34,0,0,0-21.82-3.9l.65-.37Q51.41,2.61,62,8.71A52.82,52.82,0,0,1,72.59,17,97.38,97.38,0,0,1,83.17,29.61Z"/><path class="cls-5" d="M77.43,32.92l-.37.21A96,96,0,0,0,66.85,21a58.49,58.49,0,0,0-10.59-8.28,29.34,29.34,0,0,0-21.82-3.9l.65-.37Q45.67,5.92,56.26,12a52.83,52.83,0,0,1,10.59,8.28A97.38,97.38,0,0,1,77.43,32.92Z"/><path class="cls-5" d="M71.69,36.23l-.37.21A96,96,0,0,0,61.11,24.35a58.48,58.48,0,0,0-10.59-8.28,29.34,29.34,0,0,0-21.82-3.9l.65-.37q10.58-2.56,21.17,3.55a52.83,52.83,0,0,1,10.59,8.28A97.38,97.38,0,0,1,71.69,36.23Z"/><path class="cls-5" d="M66,39.55l-.37.21A96,96,0,0,0,55.37,27.66a58.48,58.48,0,0,0-10.59-8.28A29.34,29.34,0,0,0,23,15.48l.65-.37q10.58-2.56,21.17,3.55a52.82,52.82,0,0,1,10.59,8.28A97.37,97.37,0,0,1,66,39.55Z"/><path class="cls-5" d="M60.22,42.86l-.37.21A96,96,0,0,0,49.63,31,58.48,58.48,0,0,0,39,22.7a29.34,29.34,0,0,0-21.82-3.9l.65-.37Q28.45,15.86,39,22a52.83,52.83,0,0,1,10.59,8.28A97.38,97.38,0,0,1,60.22,42.86Z"/><path class="cls-5" d="M54.48,46.17l-.37.21A96,96,0,0,0,43.89,34.29,58.48,58.48,0,0,0,33.3,26a29.34,29.34,0,0,0-21.82-3.9l.65-.37q10.58-2.56,21.17,3.55a52.82,52.82,0,0,1,10.59,8.28A97.39,97.39,0,0,1,54.48,46.17Z"/><path class="cls-5" d="M48.74,49.49l-.37.21A96,96,0,0,0,38.15,37.6a58.48,58.48,0,0,0-10.59-8.28,29.34,29.34,0,0,0-21.82-3.9L6.39,25Q17,22.49,27.56,28.59a52.82,52.82,0,0,1,10.59,8.28A97.37,97.37,0,0,1,48.74,49.49Z"/><path class="cls-5" d="M43,52.8l-.37.21A96,96,0,0,0,32.41,40.92a58.48,58.48,0,0,0-10.59-8.28A29.34,29.34,0,0,0,0,28.73l.65-.37q10.58-2.56,21.17,3.55a52.83,52.83,0,0,1,10.59,8.28A97.38,97.38,0,0,1,43,52.8Z"/><path class="cls-4" d="M23.61,15.11l1.9-1.1h0q10.58-2.56,21.17,3.55a53,53,0,0,1,10.58,8.28A97.22,97.22,0,0,1,67.85,38.45L66,39.55A97.19,97.19,0,0,0,55.37,26.93a53,53,0,0,0-10.59-8.28Q34.2,12.55,23.61,15.11Z"/><path class="cls-4" d="M29.35,11.8l1.9-1.1h0q10.58-2.56,21.17,3.55A53,53,0,0,1,63,22.52,97.2,97.2,0,0,1,73.59,35.14l-1.9,1.1A97.17,97.17,0,0,0,61.11,23.62a53,53,0,0,0-10.59-8.28Q39.94,9.23,29.35,11.8Z"/><path class="cls-4" d="M35.09,8.48,37,7.38h0q10.58-2.56,21.17,3.55a53,53,0,0,1,10.59,8.28A97.17,97.17,0,0,1,79.33,31.82l-1.9,1.1A97.16,97.16,0,0,0,66.85,20.31,53,53,0,0,0,56.26,12Q45.68,5.92,35.09,8.48Z"/><path class="cls-4" d="M40.83,5.17l1.9-1.1h0Q53.32,1.51,63.9,7.62A52.94,52.94,0,0,1,74.49,15.9,97.15,97.15,0,0,1,85.07,28.51l-1.9,1.1A97.15,97.15,0,0,0,72.59,17,52.94,52.94,0,0,0,62,8.72Q51.42,2.61,40.83,5.17Z"/><path class="cls-4" d="M90.81,25.2l-.37.21-1.52.89A97.38,97.38,0,0,0,78.33,13.68,52.83,52.83,0,0,0,67.74,5.4Q57.16-.71,46.57,1.86l1.27-.73.63-.37Q59.05-1.8,69.64,4.3a52.82,52.82,0,0,1,10.59,8.28A97.36,97.36,0,0,1,90.81,25.2Z"/><polygon class="cls-6" points="35.22 51.69 35.22 77.36 8.43 61.91 8.43 36.24 9.88 37.07 35.22 51.69"/><polygon class="cls-3" points="9.88 37.07 9.88 61.07 8.43 61.91 8.43 36.24 9.88 37.07"/><polygon class="cls-7" points="35.22 75.69 9.88 61.07 8.43 61.91 35.22 77.36 35.22 75.69"/><polygon class="cls-8" points="35.22 75.69 9.88 61.07 9.88 52.09 22.89 44.58 35.22 51.69 35.22 75.69"/><polygon class="cls-9" points="9.88 61.07 15.56 57.82 13.41 50.05 9.88 52.09 9.88 61.07"/><polygon class="cls-10" points="13.41 50.05 13.41 39.11 9.88 37.07 9.88 52.09 13.41 50.05"/><path class="cls-11" d="M35.22,51.69v3l-28-16.13v-3Z"/><polygon class="cls-8" points="8.7 34.73 7.26 35.56 35.22 51.69 36.66 50.86 8.7 34.73"/><polygon class="cls-12" points="36.66 53.84 35.22 54.67 35.22 51.69 36.66 50.86 36.66 53.84"/><polygon class="cls-13" points="51.38 59.5 60.98 53.96 60.98 46.38 51.38 51.92 51.38 59.5"/><polygon class="cls-10" points="60.4 47.38 60.4 53.63 55.46 56.47 52.54 58.17 51.96 58.5 51.96 52.25 56.25 49.78 59.17 48.09 60.4 47.38"/><polygon class="cls-14" points="51.38 51.92 50.9 51.64 60.49 46.1 60.98 46.38 51.38 51.92"/><polygon class="cls-14" points="51.96 57.94 51.96 58.5 60.4 53.63 59.92 53.35 51.96 57.94"/><polygon class="cls-9" points="51.96 57.39 51.96 57.94 59.92 53.35 59.44 53.07 51.96 57.39"/><polygon class="cls-15" points="51.38 59.5 50.9 59.22 50.9 51.64 51.38 51.92 51.38 59.5"/><polygon class="cls-15" points="59.92 47.65 59.92 53.35 60.4 53.63 60.4 47.38 59.92 47.65"/><polygon class="cls-6" points="59.44 47.93 59.44 53.07 59.92 53.35 59.92 47.65 59.44 47.93"/><polygon class="cls-13" points="64.07 52.18 73.67 46.63 73.67 39.05 64.07 44.59 64.07 52.18"/><polygon class="cls-10" points="73.09 40.05 73.09 46.3 67.89 49.3 64.98 50.98 64.65 51.17 64.65 44.93 68.69 42.59 71.59 40.91 73.09 40.05"/><polygon class="cls-14" points="64.07 44.59 63.59 44.31 73.18 38.77 73.67 39.05 64.07 44.59"/><polygon class="cls-14" points="64.65 50.62 64.65 51.17 73.09 46.3 72.61 46.02 64.65 50.62"/><polygon class="cls-9" points="64.65 50.06 64.65 50.62 72.61 46.02 72.12 45.74 64.65 50.06"/><polygon class="cls-15" points="64.07 52.18 63.59 51.9 63.59 44.31 64.07 44.59 64.07 52.18"/><polygon class="cls-15" points="72.61 40.33 72.61 46.02 73.09 46.3 73.09 40.05 72.61 40.33"/><polygon class="cls-6" points="72.12 40.61 72.12 45.74 72.61 46.02 72.61 40.33 72.12 40.61"/><polygon class="cls-13" points="76.76 44.85 86.35 39.31 86.35 31.72 76.76 37.26 76.76 44.85"/><polygon class="cls-10" points="85.77 32.73 85.77 38.98 80.43 42.06 77.51 43.74 77.34 43.84 77.34 37.6 81.22 35.36 84.14 33.67 85.77 32.73"/><polygon class="cls-14" points="76.76 37.26 76.28 36.99 85.87 31.45 86.35 31.72 76.76 37.26"/><polygon class="cls-14" points="77.34 43.29 77.34 43.85 85.78 38.98 85.29 38.7 77.34 43.29"/><polygon class="cls-9" points="77.34 42.74 77.34 43.29 85.29 38.7 84.81 38.42 77.34 42.74"/><polygon class="cls-15" points="76.76 44.85 76.28 44.57 76.28 36.99 76.76 37.26 76.76 44.85"/><polygon class="cls-15" points="85.29 33 85.29 38.7 85.78 38.98 85.78 32.73 85.29 33"/><polygon class="cls-6" points="84.81 33.28 84.81 38.42 85.29 38.7 85.29 33 84.81 33.28"/><path class="cls-11" d="M11.23,33.43l-.58-3.16.51.29.37,2.15L12,31l.59.34L13,33.59l.38-1.76.5.29-.59,2.48-.52-.3-.49-2.39-.49,1.83Z"/><path class="cls-11" d="M16.12,36.26l-.54-.31-.21-.77-1-.56-.2.53-.52-.3,1-2.28.52.3Zm-.91-1.64-.34-1.24-.33.86Z"/><path class="cls-11" d="M16.39,36.41V33.58l1,.6a2.8,2.8,0,0,1,.57.4,1.33,1.33,0,0,1,.28.43,1.31,1.31,0,0,1,.11.51.5.5,0,0,1-.16.43.51.51,0,0,1-.48,0,2.77,2.77,0,0,1,.26.39,6.7,6.7,0,0,1,.28.62l.3.72L18,37.34l-.36-.82q-.19-.44-.26-.57a.9.9,0,0,0-.15-.2,1.28,1.28,0,0,0-.25-.18l-.1-.06v1.18Zm.49-1.35.37.21a2.25,2.25,0,0,0,.44.22.14.14,0,0,0,.14,0,.27.27,0,0,0,.05-.18.57.57,0,0,0-.07-.27.66.66,0,0,0-.19-.22l-.36-.22-.39-.22Z"/><path class="cls-11" d="M18.86,37.83V35l1.81,1v.48l-1.32-.76v.63l1.23.71v.48l-1.23-.71v.77l1.37.79v.48Z"/><path class="cls-11" d="M21.14,39.15V36.32l.49.29v1.11l1,.56V37.17l.49.29v2.83L22.6,40V38.76l-1-.56v1.24Z"/><path class="cls-11" d="M23.5,39.12a1.54,1.54,0,0,1,.11-.66.61.61,0,0,1,.23-.26.5.5,0,0,1,.32-.07,1.32,1.32,0,0,1,.53.19,2.31,2.31,0,0,1,.87.89,2.53,2.53,0,0,1,.32,1.26q0,.68-.32.88a.83.83,0,0,1-.86-.11,2.31,2.31,0,0,1-.87-.89A2.49,2.49,0,0,1,23.5,39.12Zm.51.27a1.75,1.75,0,0,0,.19.84,1.29,1.29,0,0,0,.49.53.43.43,0,0,0,.48,0q.19-.14.19-.63a1.74,1.74,0,0,0-.18-.83,1.28,1.28,0,0,0-.49-.52.44.44,0,0,0-.49,0Q24,38.91,24,39.4Z"/><path class="cls-11" d="M26.26,39.28l.49.29V41.1a4,4,0,0,0,0,.48.9.9,0,0,0,.15.37,1,1,0,0,0,.33.29.42.42,0,0,0,.32.08.2.2,0,0,0,.13-.17,3.35,3.35,0,0,0,0-.47V40.12l.49.29v1.48a3.92,3.92,0,0,1,0,.7.44.44,0,0,1-.15.27.39.39,0,0,1-.29.06,1.28,1.28,0,0,1-.47-.19,2.25,2.25,0,0,1-.53-.4,1.82,1.82,0,0,1-.29-.41,1.48,1.48,0,0,1-.14-.39,4.45,4.45,0,0,1,0-.74Z"/><path class="cls-11" d="M28.61,42.54l.48.22a1.27,1.27,0,0,0,.18.51,1,1,0,0,0,.36.34.46.46,0,0,0,.36.09.19.19,0,0,0,.12-.2.44.44,0,0,0-.05-.2.92.92,0,0,0-.18-.23l-.4-.35a2.85,2.85,0,0,1-.56-.6,1.33,1.33,0,0,1-.23-.7.52.52,0,0,1,.11-.34.34.34,0,0,1,.31-.11,1.21,1.21,0,0,1,.48.18,2,2,0,0,1,.69.63,1.49,1.49,0,0,1,.24.76L30,42.29a.82.82,0,0,0-.45-.67.48.48,0,0,0-.34-.09c-.05,0-.08.06-.08.13a.4.4,0,0,0,.07.21,2.63,2.63,0,0,0,.45.45,4.72,4.72,0,0,1,.53.51,1.65,1.65,0,0,1,.27.44,1.32,1.32,0,0,1,.1.51.6.6,0,0,1-.12.39.35.35,0,0,1-.33.12,1.4,1.4,0,0,1-.53-.2,2,2,0,0,1-.71-.66A2,2,0,0,1,28.61,42.54Z"/><path class="cls-11" d="M31,44.85V42l1.81,1v.48l-1.32-.76v.63l1.23.71v.48l-1.23-.71v.77l1.37.79v.48Z"/><polygon class="cls-9" points="35.22 66.32 35.22 69.22 11.65 55.55 12.41 53.17 35.22 66.32"/><polygon class="cls-7" points="35.22 54.67 35.22 66.32 12.41 53.17 9.16 51.28 9.16 39.63 35.22 54.67"/><rect class="cls-8" x="22.1" y="32.1" width="0.18" height="30.09" transform="translate(-29.74 42.8) rotate(-60.01)"/><rect class="cls-8" x="22.1" y="34.43" width="0.18" height="30.09" transform="translate(-31.76 43.96) rotate(-60.01)"/><rect class="cls-8" x="22.1" y="36.76" width="0.18" height="30.09" transform="translate(-33.77 45.13) rotate(-60.01)"/><rect class="cls-8" x="22.1" y="39.1" width="0.18" height="30.09" transform="translate(-35.79 46.29) rotate(-60.01)"/><rect class="cls-8" x="22.1" y="41.43" width="0.18" height="30.09" transform="translate(-37.81 47.46) rotate(-60.01)"/><rect class="cls-8" x="22.1" y="43.76" width="0.18" height="30.09" transform="translate(-39.83 48.62) rotate(-60.01)"/></g></g></svg>