<?xml version="1.0" encoding="utf-8"?>
<!-- Generator: Adobe Illustrator 22.0.1, SVG Export Plug-In . SVG Version: 6.00 Build 0)  -->
<svg version="1.1" id="Layer_1" xmlns="http://www.w3.org/2000/svg" xmlns:xlink="http://www.w3.org/1999/xlink" x="0px" y="0px"
	 viewBox="0 0 497.8 189.5" style="enable-background:new 0 0 497.8 189.5;" xml:space="preserve">
<style type="text/css">
	.st0{fill:#003D90;}
</style>
<path class="st0" d="M466.3,189.5H96.5c-21.3,0-75-104.4-75-117.1c0-2,1.6-3.6,3.6-3.6l0,0h35.3c7.6,0,17.7,12.1,33.6,31.8
	c8.1,10,20.4,25.3,24.1,25.8h318.2c30.6,0,61.7,25.8,61.7,44.3c0,5.8-3.1,11.1-8.2,13.9C482.4,188.3,474.4,190,466.3,189.5z
	 M29.3,76c6.4,21.1,53.2,106.4,67.1,106.4h369.9c9.1,0,24.4-1.5,24.4-11.6c0-13.7-26.9-37.2-54.5-37.2H118c-6.4,0-15-10.3-29.6-28.5
	C79.6,94.2,64.9,76,60.3,76H29.3L29.3,76z M205.6,133.6c-1.6,0-3-1.1-3.4-2.7L167.8,4.5c-0.3-1.1,0-2.2,0.6-3.1
	c0.7-0.9,1.7-1.4,2.8-1.4h46.5c2.9,0,9,0,46.6,42.7c1.3,1.5,1.2,3.7-0.3,5s-3.7,1.2-5-0.3C226.1,10,218.8,7.3,217.7,7.1h-41.8
	l33.2,122c0.5,1.9-0.6,3.9-2.5,4.4C206.2,133.6,205.9,133.6,205.6,133.6z M332.2,133.6c-1.1,0-2.2-0.5-2.8-1.4
	c0,0-6.8-8.7-17.2-21.4c-1.2-1.6-0.9-3.8,0.7-5c1.5-1.1,3.6-0.9,4.8,0.5c10.4,12.8,17.2,21.5,17.2,21.5c1.2,1.6,0.9,3.8-0.6,5
	C333.7,133.3,333,133.6,332.2,133.6z M297.4,90.7c-1.1,0-2.1-0.5-2.8-1.3c-7.3-9-15.4-18.5-23.4-27.9c-1.2-1.5-1-3.7,0.5-5
	c1.5-1.2,3.6-1.1,4.9,0.4c8.1,9.4,16.1,18.9,23.5,28c1.2,1.5,1,3.8-0.5,5C299,90.4,298.2,90.7,297.4,90.7L297.4,90.7z M354.5,156.5
	h-10.6c-2,0-3.6-1.6-3.6-3.6s1.6-3.6,3.6-3.6h10.6c2,0,3.6,1.6,3.6,3.6S356.5,156.5,354.5,156.5L354.5,156.5z M285.7,156.5h-10.6
	c-2,0-3.6-1.6-3.6-3.6s1.6-3.6,3.6-3.6h10.6c2,0,3.6,1.6,3.6,3.6S287.7,156.5,285.7,156.5z M216.9,156.5h-10.6c-2,0-3.6-1.6-3.6-3.6
	s1.6-3.6,3.6-3.6l0,0h10.6c2,0,3.6,1.6,3.6,3.6S218.9,156.5,216.9,156.5L216.9,156.5z M251.3,156.5h-10.6c-2,0-3.6-1.6-3.6-3.6
	s1.6-3.6,3.6-3.6h10.6c2,0,3.6,1.6,3.6,3.6S253.3,156.5,251.3,156.5z M320.1,156.5h-10.6c-2,0-3.6-1.6-3.6-3.6s1.6-3.6,3.6-3.6h10.6
	c2,0,3.6,1.6,3.6,3.6S322.1,156.5,320.1,156.5L320.1,156.5z M388.9,156.5h-10.6c-2,0-3.6-1.6-3.6-3.6s1.6-3.6,3.6-3.6h10.6
	c2,0,3.6,1.6,3.6,3.6S390.9,156.5,388.9,156.5z M485.7,154.7h-40.9c-15.4,0-20.7-19.7-20.9-20.6c-0.2-0.9,0.3-1.9,1.3-2.2
	c0.9-0.2,1.9,0.3,2.1,1.3l0,0c0,0.2,4.9,17.8,17.5,17.8h40.9c1,0,1.8,0.8,1.8,1.8C487.4,153.9,486.6,154.7,485.7,154.7z
	 M294.9,112.3c-13.2,0.2-26.4-0.4-39.5-1.7c-11-1.3-23.5-3.8-23.5-11.9c0-3.2,0-9.7,65.3-15c7.5-0.6,14.7-1.1,18.7-1.1
	c8.5-0.1,15.4,6.7,15.5,15.1c0,0.1,0,0.2,0,0.4c0.1,3.7-1.3,7.2-3.9,9.8c-3.1,3-7.3,4.5-11.6,4.3H309
	C304.9,112.2,300.1,112.3,294.9,112.3z M239.7,99.5c2.5,1.8,12.8,5.7,55.2,5.7c5.2,0,10,0,13.9-0.1l7-0.1c2.4,0.2,4.7-0.6,6.5-2.2
	c1.2-1.3,1.9-3,1.9-4.8c0.1-4.5-3.5-8.2-8-8.3c-0.1,0-0.2,0-0.4,0c-3.8,0-10.7,0.4-18.1,1C267.3,93.2,245.6,96.9,239.7,99.5z
	 M271.7,62.8c-9.4,0.1-18.7-0.3-28-1.2c-8.1-1-17.3-2.9-17.3-9.4c0-3.3,0-6.7,35-10.6c10.7-1.1,21.4-1.9,26.1-1.9
	c6.6-0.1,12.1,5.2,12.2,11.8c0,0.1,0,0.2,0,0.2c0,2.9-1.1,5.7-3.1,7.7c-2.4,2.3-5.7,3.6-9,3.4H271.7z M235.5,52.9
	c3.5,1.1,12.8,2.8,36.1,2.8l15.7-0.1c1.4,0.1,2.9-0.3,4-1.2c0.7-0.7,1-1.7,1-2.7c0-2.7-2.1-4.9-4.8-5c-0.1,0-0.1,0-0.2,0
	c-3.8,0-13.7,0.7-25.3,1.9C253.1,49.4,244.3,50.8,235.5,52.9z M195.6,7.1h-41.3c-2-0.1-3.5-1.7-3.4-3.7c0.1-1.9,1.6-3.4,3.4-3.4
	h41.3c1.8-0.7,4,0.4,4.7,2.2s-0.2,3.9-2,4.6C197.5,7.2,196.6,7.2,195.6,7.1L195.6,7.1z M40.3,76H3.6c-2,0-3.6-1.6-3.6-3.6
	s1.6-3.6,3.6-3.6h36.7c2.2,0,4,1.4,4,3.6s-1.8,4-4,4C40.3,76.4,40.3,76.4,40.3,76L40.3,76z"/>
</svg>
