<svg xmlns="http://www.w3.org/2000/svg" xmlns:xlink="http://www.w3.org/1999/xlink" viewBox="0 0 90.77 80.35"><defs><style>.cls-1{fill:none;}.cls-2{fill:#2a2a2a;}.cls-3{fill:#545454;}.cls-4{fill:#828282;}.cls-5{fill:#3e3e3e;}.cls-6{fill:#262626;}.cls-7{fill:#373737;}.cls-8{fill:#c6a22a;}.cls-9{fill:#ffcb27;}.cls-10{fill:#4e4e4e;}.cls-11{fill:#d24a43;}.cls-12{fill:#967b20;}.cls-13{fill:#6b6b6b;}.cls-14{fill:#f5f5f5;}.cls-15{fill:#fff;}.cls-16{fill:#f0c238;}.cls-17{fill:#ffe485;}.cls-18{fill:#999;}.cls-19{fill:#f3d052;}.cls-20{fill:#3a3a3a;}.cls-21{fill:#b3b3b3;}.cls-22{clip-path:url(#clip-path);}.cls-23{clip-path:url(#clip-path-2);}.cls-24{fill:#deb334;}.cls-25{fill:#ffd03b;}</style><clipPath id="clip-path"><path class="cls-1" d="M36.72,72.09A4.65,4.65,0,0,0,36,74.34a1.2,1.2,0,0,0,2,1.15,5.1,5.1,0,0,0,2.29-4,1.2,1.2,0,0,0-2-1.15A4.65,4.65,0,0,0,36.72,72.09Z"/></clipPath><clipPath id="clip-path-2"><path class="cls-1" d="M78.86,47.76A4.65,4.65,0,0,0,78.19,50a1.2,1.2,0,0,0,2,1.15,5.1,5.1,0,0,0,2.29-4,1.2,1.2,0,0,0-2-1.15A4.65,4.65,0,0,0,78.86,47.76Z"/></clipPath></defs><title>i1</title><g id="Слой_2" data-name="Слой 2"><g id="Layer_2" data-name="Layer 2"><path class="cls-2" d="M35,78.54a2.34,2.34,0,0,1-.79-.76,4,4,0,0,1-.56-2.2,10.11,10.11,0,0,1,4.57-7.92A4,4,0,0,1,40.38,67a2.3,2.3,0,0,1,1,.3l-3.51-2a3.21,3.21,0,0,0-3.24.32,10.11,10.11,0,0,0-4.57,7.92,3.21,3.21,0,0,0,1.34,3Z"/><path class="cls-2" d="M77.09,54.21a2.34,2.34,0,0,1-.79-.76,4,4,0,0,1-.56-2.2,10.11,10.11,0,0,1,4.57-7.92,4,4,0,0,1,2.19-.62,2.3,2.3,0,0,1,1,.3L80,41a3.21,3.21,0,0,0-3.24.32,10.11,10.11,0,0,0-4.57,7.92,3.21,3.21,0,0,0,1.34,3Z"/><polygon class="cls-3" points="10.58 42.4 12.07 43.26 12.07 40.13 10.58 39.27 10.58 42.4"/><polygon class="cls-4" points="10.58 39.27 10.83 39.12 12.32 39.98 12.07 40.13 10.58 39.27"/><polygon class="cls-5" points="12.07 43.26 12.32 43.11 12.32 39.98 12.07 40.13 12.07 43.26"/><polygon class="cls-6" points="84.3 45.31 78.21 41.8 85.29 39.23 84.3 45.31"/><polygon class="cls-6" points="42.23 69.6 36.15 66.09 43.22 63.52 42.23 69.6"/><polygon class="cls-7" points="0 61.13 0.7 61.53 9.42 56.49 8.73 56.09 0 61.13"/><polygon class="cls-7" points="90.07 37.17 89.24 36.69 89.24 37.64 90.07 37.17"/><path class="cls-8" d="M89.37,13.62V37.57l-7.12,4.11a4.07,4.07,0,0,0-3.24.59,10.21,10.21,0,0,0-3.24,3.15L40.19,66a4,4,0,0,0-3.24.59,10.28,10.28,0,0,0-3.24,3.15,11.2,11.2,0,0,0-2,6l-5.82,3.36L25,74.74l1.33-7.53L32.51,59l6.7-14.33a9.79,9.79,0,0,1,4-4.34Z"/><path class="cls-9" d="M89.37,13.62,43.19,40.28a9.79,9.79,0,0,0-4,4.34L34.59,42l-19-11a9.79,9.79,0,0,1,4-4.33L65.78,0Z"/><path class="cls-7" d="M33.71,69.71a12.11,12.11,0,0,0-2,6l-5.82,3.36L25,74.74Z"/><path class="cls-7" d="M89.37,37.57v4.81l-4.43,2.56a3.18,3.18,0,0,0-1.86-2.81l-.1-.07a2.44,2.44,0,0,0-.74-.38Z"/><path class="cls-6" d="M85,45.71l-.69-.4a4,4,0,0,0-1.21-3.18,3.18,3.18,0,0,1,1.86,2.81A6,6,0,0,1,85,45.71Z"/><path class="cls-10" d="M90.77,37.57v4.81L85,45.71a6,6,0,0,0,0-.77,3.18,3.18,0,0,0-1.86-2.81l-.14-.05,0,0,6.38-3.69Z"/><polygon class="cls-11" points="89.5 41.46 90.77 40.73 90.77 37.57 89.5 38.3 89.5 41.46"/><polygon class="cls-10" points="48.32 55.13 47.15 55.8 47.15 53.03 48.32 52.35 48.32 55.13"/><polygon class="cls-7" points="48.25 55 47.65 55.34 47.65 52.91 48.25 52.56 48.25 55"/><polygon class="cls-10" points="62.64 46.86 61.47 47.53 61.47 44.76 62.64 44.08 62.64 46.86"/><path class="cls-12" d="M51,64.15V39.89l12.73-7.35V56.81Zm.32-24.08V63.6l12.08-7V33.1Z"/><polygon class="cls-12" points="42.27 67.37 42.13 67.11 49.04 63.12 49.04 41.37 39.54 46.86 36.43 53.55 36.43 66.11 36.13 66.11 36.13 53.48 39.3 46.65 49.34 40.85 49.34 63.29 42.27 67.37"/><path class="cls-5" d="M36.66,54.66a.69.69,0,0,1,.07-.29l3.32-7.11a.72.72,0,0,1,.28-.32l7.34-4.24a.32.32,0,0,1,.48.28v8.5a.32.32,0,0,1-.16.28L37.14,58a.32.32,0,0,1-.48-.28Z"/><path class="cls-4" d="M37,54.51l3.32-7.11a.4.4,0,0,1,.15-.18l6.86-4a.32.32,0,0,1,.48.28V51.3a.32.32,0,0,1-.16.28l-10.21,5.9A.32.32,0,0,1,37,57.2V54.66A.37.37,0,0,1,37,54.51Z"/><polygon class="cls-13" points="83.36 33.22 63.55 44.66 63.55 43.21 83.36 31.78 83.36 33.22"/><polygon class="cls-5" points="63.55 44.44 63.55 43.43 83.17 32.11 83.17 33.11 63.55 44.44"/><polygon class="cls-7" points="62.64 46.69 62.04 47.03 62.04 44.6 62.64 44.25 62.64 46.69"/><polygon class="cls-14" points="28.8 67.26 26.02 68.86 26.32 67.21 28.8 65.78 28.8 67.26"/><path class="cls-15" d="M68.28,31.92l.92-.53a1.11,1.11,0,0,1,.44-.17.36.36,0,0,1,.28.08.55.55,0,0,1,.16.28,1.62,1.62,0,0,1,0,.42,2.2,2.2,0,0,1-.07.62,1.93,1.93,0,0,1-.2.46,1.49,1.49,0,0,1-.28.34,2.33,2.33,0,0,1-.37.28l-.92.53Zm.62.17v1.26l.15-.09a1.06,1.06,0,0,0,.28-.21.69.69,0,0,0,.13-.25,1.52,1.52,0,0,0,0-.43q0-.37-.1-.44t-.34.06Z"/><path class="cls-15" d="M70.44,30.68l1.65-1v.49l-1,.6v.37l1-.55v.47l-1,.55v.45l1.07-.62V32l-1.68,1Z"/><path class="cls-15" d="M72.46,29.51l.62-.36v1.74l1-.56v.57l-1.58.91Z"/><path class="cls-15" d="M74.35,28.42l.62-.36v2.31l-.62.36Z"/><path class="cls-15" d="M75.21,27.92l.65-.37.45,1.4L76.75,27l.63-.36-.74,2.74-.67.39Z"/><path class="cls-15" d="M77.58,26.56l1.65-1v.49l-1,.6v.37l1-.55V27l-1,.55V28l1.07-.62v.52l-1.68,1Z"/><path class="cls-15" d="M79.6,27.7V25.39l1-.59a1.65,1.65,0,0,1,.44-.2.25.25,0,0,1,.24.07.46.46,0,0,1,.09.32,1,1,0,0,1-.07.37,1.35,1.35,0,0,1-.19.34,1.53,1.53,0,0,1-.22.22.4.4,0,0,1,.16,0l.1.06.09.09.3.5-.7.4-.33-.51c0-.07-.08-.1-.11-.11a.21.21,0,0,0-.15,0l-.05,0v.94ZM80.22,26l.26-.15.16-.13a.38.38,0,0,0,.1-.13.36.36,0,0,0,0-.16q0-.11-.06-.14s-.12,0-.23.07l-.27.16Z"/><path class="cls-15" d="M81.44,24.33l.69-.4.4.55.4-1,.68-.39-.78,1.79v1l-.62.36v-1Z"/><polygon class="cls-16" points="2.73 53.59 26.32 67.21 24.98 74.74 1.39 61.13 2.73 53.59"/><polygon class="cls-16" points="2.73 53.59 8.92 45.34 32.51 58.96 26.32 67.21 2.73 53.59"/><polygon class="cls-16" points="15.62 31 39.21 44.62 32.51 58.96 8.92 45.34 15.62 31"/><path class="cls-5" d="M10.88,43.47l4.49-9.61a.32.32,0,0,1,.45-.14L37.14,46a.32.32,0,0,1,.13.42L32.78,56a.32.32,0,0,1-.45.14L11,43.88A.32.32,0,0,1,10.88,43.47Z"/><path class="cls-4" d="M36.86,46.57l-.22.47-4,8.55a.32.32,0,0,1-.45.14l-7-4-5.48-3.16L14.63,45.6,12,44.07l-.55-.32a.32.32,0,0,1-.13-.42l4.22-9a.32.32,0,0,1,.45-.14L24.37,39,27,40.55l5.11,2.95,4.61,2.66A.32.32,0,0,1,36.86,46.57Z"/><polygon class="cls-14" points="4.92 56.68 2.43 55.24 2.73 53.59 5.21 55.03 4.92 56.68"/><polygon class="cls-14" points="26.02 68.86 23.54 67.43 23.83 65.78 26.32 67.21 26.02 68.86"/><polygon class="cls-7" points="5.21 55.03 23.83 65.78 21.85 71.93 4.84 62.11 5.21 55.03"/><polygon class="cls-6" points="4.84 62.11 5.85 56.41 22.86 66.23 21.85 71.93 4.84 62.11"/><rect class="cls-7" x="13.62" y="53.4" width="0.8" height="19.64" transform="translate(-47.74 43.75) rotate(-60)"/><rect class="cls-7" x="13.28" y="55.3" width="0.8" height="19.64" transform="translate(-49.55 44.41) rotate(-60)"/><polygon class="cls-7" points="24.29 75.15 24.98 75.55 34.41 70.11 33.71 69.7 24.29 75.15"/><polygon class="cls-7" points="90.77 37.57 90.07 37.17 82.25 41.68 82.95 42.08 90.77 37.57"/><path class="cls-6" d="M42.93,70l-.69-.4A4,4,0,0,0,41,66.42a3.18,3.18,0,0,1,1.86,2.81A6,6,0,0,1,42.93,70Z"/><path class="cls-10" d="M67.74,50.86v4.81L42.93,70a6,6,0,0,0,0-.77A3.18,3.18,0,0,0,41,66.42l-.14-.05,0,0,6.38-3.69Z"/><polygon class="cls-7" points="67.75 50.86 67.05 50.46 40.19 65.97 40.88 66.37 67.75 50.86"/><path class="cls-10" d="M34.4,70.11a12.11,12.11,0,0,0-2,6L25,80.35V75.55Z"/><polygon class="cls-7" points="67.05 50.46 67.75 50.86 76.47 45.82 75.78 45.42 67.05 50.46"/><path class="cls-10" d="M76.47,45.82a12.11,12.11,0,0,0-2,6l-6.68,3.86V50.86Z"/><polygon class="cls-17" points="89.37 13.62 83.66 17.05 77.91 20.43 66.39 27.14 54.82 33.77 49.02 37.05 43.19 40.28 48.91 36.86 54.65 33.47 66.17 26.76 77.74 20.14 83.55 16.86 89.37 13.62"/><polygon class="cls-18" points="27 40.55 14.63 45.6 11.98 44.07 24.37 39.02 27 40.55"/><path class="cls-18" d="M36.86,46.57l-.22.47L25.21,51.71l-5.48-3.16,12.38-5.05,4.61,2.66A.32.32,0,0,1,36.86,46.57Z"/><path class="cls-5" d="M14.59,45.88a.24.24,0,0,1,0-.48L16.67,45a.24.24,0,1,1,.09.48l-2.12.38Z"/><path class="cls-5" d="M21.11,48l-.08,0L16.63,45.4a.16.16,0,0,1,.16-.28l4.41,2.54a.16.16,0,0,1-.08.3Z"/><path class="cls-5" d="M23.64,51.11a.24.24,0,0,1,0-.48l2.12-.38a.24.24,0,0,1,.09.48l-2.12.38Z"/><path class="cls-5" d="M30.17,53.19l-.08,0-4.41-2.54a.16.16,0,1,1,.16-.28l4.41,2.54a.16.16,0,0,1-.08.3Z"/><polygon class="cls-3" points="36.81 57.55 38.3 58.41 38.3 55.27 36.81 54.41 36.81 57.55"/><polygon class="cls-4" points="36.81 54.41 37.07 54.26 38.56 55.12 38.3 55.27 36.81 54.41"/><polygon class="cls-5" points="38.3 58.41 38.56 58.26 38.56 55.12 38.3 55.27 38.3 58.41"/><polygon class="cls-19" points="8.92 45.34 5.21 55.03 23.83 65.78 32.51 58.96 8.92 45.34"/><path class="cls-10" d="M41.94,65.76l-1.06.61a4.05,4.05,0,0,0-3.24.58,10.31,10.31,0,0,0-3.24,3.15l-1.06.61a12.59,12.59,0,0,1,1.06-1.9l.21-.29a10.1,10.1,0,0,1,3-2.86,4.05,4.05,0,0,1,3.24-.58l.12,0a2.05,2.05,0,0,1,.36.17A2.59,2.59,0,0,1,41.94,65.76Z"/><path class="cls-7" d="M41.36,65.3a2.05,2.05,0,0,0-.36-.17l-.12,0a4.05,4.05,0,0,0-3.24.58,10.1,10.1,0,0,0-3,2.86l-.21.29a12.59,12.59,0,0,0-1.06,1.9l-.7-.4a12.74,12.74,0,0,1,1.06-1.9,10.35,10.35,0,0,1,3.24-3.15,4.06,4.06,0,0,1,3.24-.58,2.39,2.39,0,0,1,.48.21Z"/><path class="cls-10" d="M84.05,41.45,83,42.06a4.05,4.05,0,0,0-3.24.58,10.31,10.31,0,0,0-3.24,3.15l-1.06.61a12.58,12.58,0,0,1,1.06-1.9l.21-.29a10.1,10.1,0,0,1,3-2.86A4.05,4.05,0,0,1,83,40.77l.12,0a2,2,0,0,1,.36.17A2.59,2.59,0,0,1,84.05,41.45Z"/><path class="cls-7" d="M83.47,41a2,2,0,0,0-.36-.17l-.12,0a4.05,4.05,0,0,0-3.24.58,10.1,10.1,0,0,0-3,2.86l-.21.29a12.58,12.58,0,0,0-1.06,1.9l-.7-.4a12.75,12.75,0,0,1,1.06-1.9A10.35,10.35,0,0,1,79.06,41a4.06,4.06,0,0,1,3.24-.58,2.39,2.39,0,0,1,.48.21Z"/><polygon class="cls-3" points="21.06 75.02 21.06 79.83 18.54 78.38 0.3 67.85 0.3 63.04 18.54 73.57 21.06 75.02"/><polygon class="cls-7" points="0.3 63.04 21.06 75.03 24.98 75.55 0 61.13 0.3 63.04"/><polygon class="cls-13" points="21.06 79.83 24.98 80.35 24.98 75.55 21.06 75.03 21.06 79.83"/><polygon class="cls-13" points="0.3 67.85 0 65.93 0 61.13 0.3 63.04 0.3 67.85"/><polygon class="cls-7" points="25.68 75.15 24.98 75.55 0 61.13 0.7 60.72 25.68 75.15"/><path class="cls-20" d="M38.19,78.22a10.11,10.11,0,0,0,4.57-7.92,3.22,3.22,0,0,0-1.34-3,2.3,2.3,0,0,0-1-.3,4,4,0,0,0-2.19.62,10.11,10.11,0,0,0-4.57,7.92,4,4,0,0,0,.56,2.2,2.34,2.34,0,0,0,.79.76A3.22,3.22,0,0,0,38.19,78.22Z"/><path class="cls-21" d="M40.77,71.45c0-1.64-1.16-2.31-2.58-1.49a5.71,5.71,0,0,0-2.58,4.47c0,1.64,1.16,2.31,2.58,1.49A5.71,5.71,0,0,0,40.77,71.45Z"/><path class="cls-4" d="M39.76,70.21a1.05,1.05,0,0,0-.69-.11,2.18,2.18,0,0,0-.73.28,5.11,5.11,0,0,0-2.29,4,2.18,2.18,0,0,0,.12.77,1.06,1.06,0,0,0,.44.55A1.43,1.43,0,0,0,38,75.49a5.09,5.09,0,0,0,2.29-4A1.43,1.43,0,0,0,39.76,70.21Z"/><path class="cls-18" d="M39.06,70.1a2.18,2.18,0,0,0-.73.28,5.11,5.11,0,0,0-2.29,4,2.18,2.18,0,0,0,.12.77,2.09,2.09,0,0,0,.73-.28,5.09,5.09,0,0,0,2.29-4A2.08,2.08,0,0,0,39.06,70.1Z"/><g class="cls-22"><path class="cls-2" d="M37,74.07a.57.57,0,0,1-.19-.18,1,1,0,0,1-.14-.54,2.47,2.47,0,0,1,1.12-1.93,1,1,0,0,1,.53-.15.56.56,0,0,1,.26.07l-.86-.49a.78.78,0,0,0-.79.08,2.47,2.47,0,0,0-1.12,1.93.78.78,0,0,0,.33.72Z"/><path class="cls-20" d="M37.78,74a2.47,2.47,0,0,0,1.12-1.93.78.78,0,0,0-.33-.72.56.56,0,0,0-.26-.07,1,1,0,0,0-.53.15,2.47,2.47,0,0,0-1.12,1.93,1,1,0,0,0,.14.54.57.57,0,0,0,.19.18A.78.78,0,0,0,37.78,74Z"/><path class="cls-3" d="M38.29,71.81a.36.36,0,0,0-.17,0h0a.67.67,0,0,0-.31.1,1.61,1.61,0,0,0-.73,1.26.64.64,0,0,0,.07.31l0,0a.39.39,0,0,0,.13.12.51.51,0,0,0,.51-.05,1.61,1.61,0,0,0,.73-1.26A.51.51,0,0,0,38.29,71.81Z"/><path class="cls-13" d="M38.09,71.77a.67.67,0,0,0-.31.1,1.61,1.61,0,0,0-.73,1.26.64.64,0,0,0,.07.31.66.66,0,0,0,.31-.1,1.6,1.6,0,0,0,.73-1.26A.67.67,0,0,0,38.09,71.77Z"/></g><path class="cls-20" d="M80.33,53.89A10.11,10.11,0,0,0,84.9,46a3.22,3.22,0,0,0-1.34-3,2.3,2.3,0,0,0-1-.3,4,4,0,0,0-2.19.62,10.11,10.11,0,0,0-4.57,7.92,4,4,0,0,0,.56,2.2,2.34,2.34,0,0,0,.79.76A3.22,3.22,0,0,0,80.33,53.89Z"/><path class="cls-21" d="M82.91,47.12c0-1.64-1.16-2.31-2.58-1.49a5.71,5.71,0,0,0-2.58,4.47c0,1.64,1.16,2.31,2.58,1.49A5.71,5.71,0,0,0,82.91,47.12Z"/><path class="cls-4" d="M81.9,45.88a1.05,1.05,0,0,0-.69-.11,2.18,2.18,0,0,0-.73.28,5.11,5.11,0,0,0-2.29,4,2.18,2.18,0,0,0,.12.77,1.05,1.05,0,0,0,.44.55,1.43,1.43,0,0,0,1.42-.17,5.09,5.09,0,0,0,2.29-4A1.43,1.43,0,0,0,81.9,45.88Z"/><path class="cls-18" d="M81.21,45.77a2.18,2.18,0,0,0-.73.28,5.11,5.11,0,0,0-2.29,4,2.18,2.18,0,0,0,.12.77,2.08,2.08,0,0,0,.73-.28,5.09,5.09,0,0,0,2.29-4A2.09,2.09,0,0,0,81.21,45.77Z"/><g class="cls-23"><path class="cls-2" d="M79.13,49.74a.57.57,0,0,1-.19-.18A1,1,0,0,1,78.8,49a2.47,2.47,0,0,1,1.12-1.93,1,1,0,0,1,.53-.15.56.56,0,0,1,.26.07l-.86-.49a.78.78,0,0,0-.79.08,2.47,2.47,0,0,0-1.12,1.93.78.78,0,0,0,.33.72Z"/><path class="cls-20" d="M79.92,49.66A2.47,2.47,0,0,0,81,47.73a.78.78,0,0,0-.33-.72.56.56,0,0,0-.26-.07,1,1,0,0,0-.53.15A2.47,2.47,0,0,0,78.8,49a1,1,0,0,0,.14.54.57.57,0,0,0,.19.18A.78.78,0,0,0,79.92,49.66Z"/><path class="cls-3" d="M80.43,47.48a.36.36,0,0,0-.17,0h0a.67.67,0,0,0-.31.1,1.61,1.61,0,0,0-.73,1.26.64.64,0,0,0,.07.31l0,0a.39.39,0,0,0,.13.12.51.51,0,0,0,.51-.05A1.61,1.61,0,0,0,80.64,48,.51.51,0,0,0,80.43,47.48Z"/><path class="cls-13" d="M80.23,47.44a.67.67,0,0,0-.31.1,1.61,1.61,0,0,0-.73,1.26.64.64,0,0,0,.07.31.66.66,0,0,0,.31-.1,1.6,1.6,0,0,0,.73-1.26A.66.66,0,0,0,80.23,47.44Z"/></g><path class="cls-3" d="M37.85,44.21a6.8,6.8,0,0,0-1.92,3L14.58,34.9a6.8,6.8,0,0,1,1.92-3Z"/><path class="cls-5" d="M37.85,44.21l-.58,2.23-1.34.78A6.8,6.8,0,0,1,37.85,44.21Z"/><polygon class="cls-3" points="6.65 62.67 5.59 62.05 5.58 65.25 6.65 65.87 6.65 62.67"/><polygon class="cls-5" points="7.69 62.07 6.65 62.67 6.65 65.87 7.68 65.27 7.69 62.07"/><polygon class="cls-3" points="17.72 69.05 16.65 68.44 16.65 71.64 17.71 72.26 17.72 69.05"/><polygon class="cls-5" points="18.75 68.45 17.72 69.05 17.71 72.26 18.75 71.66 18.75 68.45"/><polygon class="cls-3" points="17.72 67.82 17.72 69.05 5.59 62.05 5.59 60.82 17.72 67.82"/><polygon class="cls-13" points="18.75 67.22 17.72 67.82 5.59 60.82 6.62 60.22 18.75 67.22"/><polygon class="cls-5" points="18.75 68.45 17.72 69.05 17.72 67.82 18.75 67.22 18.75 68.45"/><polygon class="cls-24" points="44.8 30.73 34.25 24.64 34.25 24.28 44.8 18.55 55.35 24.28 55.35 24.64 44.8 30.73"/><polygon class="cls-25" points="44.8 30.37 34.25 24.28 44.8 18.19 55.35 24.28 44.8 30.37"/></g></g></svg>