<svg xmlns="http://www.w3.org/2000/svg" xmlns:xlink="http://www.w3.org/1999/xlink" viewBox="0 0 91.51 82.56"><defs><style>.cls-1{fill:none;}.cls-2{fill:#828282;}.cls-3{fill:#3e3e3e;}.cls-4{fill:#6b6b6b;}.cls-5{fill:#545454;}.cls-6{fill:#2a2a2a;}.cls-7{fill:#b3b3b3;}.cls-8{fill:#999;}.cls-9{clip-path:url(#clip-path);}.cls-10{fill:#3a3a3a;}.cls-11{clip-path:url(#clip-path-2);}.cls-12{fill:#373737;}.cls-13{fill:#262626;}.cls-14{fill:#afafaf;}.cls-15{clip-path:url(#clip-path-3);}.cls-16{clip-path:url(#clip-path-4);}.cls-17{fill:#4e8bff;}.cls-18{fill:#ddd;}.cls-19{fill:#c7c7c7;}.cls-20{fill:#f4f4f4;}.cls-21{fill:#3965ba;}.cls-22{fill:#6399ff;}.cls-23{fill:#5e96ff;}.cls-24{fill:#75a5ff;}.cls-25{fill:#5992ff;}.cls-26{fill:#457ce3;}</style><clipPath id="clip-path"><path class="cls-1" d="M84.43,40.95a3.81,3.81,0,0,0-.55,1.84,1,1,0,0,0,1.63.94,4.18,4.18,0,0,0,1.87-3.25,1,1,0,0,0-1.63-.94A3.81,3.81,0,0,0,84.43,40.95Z"/></clipPath><clipPath id="clip-path-2"><path class="cls-1" d="M75.84,45.91a3.81,3.81,0,0,0-.55,1.84,1,1,0,0,0,1.63.94,4.18,4.18,0,0,0,1.87-3.25,1,1,0,0,0-1.63-.94A3.81,3.81,0,0,0,75.84,45.91Z"/></clipPath><clipPath id="clip-path-3"><path class="cls-1" d="M50.33,60.64a3.81,3.81,0,0,0-.55,1.84,1,1,0,0,0,1.63.94,4.18,4.18,0,0,0,1.87-3.25,1,1,0,0,0-1.63-.94A3.81,3.81,0,0,0,50.33,60.64Z"/></clipPath><clipPath id="clip-path-4"><path class="cls-1" d="M28.2,73.41a3.81,3.81,0,0,0-.55,1.84,1,1,0,0,0,1.63.94A4.18,4.18,0,0,0,31.15,73,1,1,0,0,0,29.52,72,3.81,3.81,0,0,0,28.2,73.41Z"/></clipPath></defs><title>i3</title><g id="Слой_2" data-name="Слой 2"><g id="Layer_2" data-name="Layer 2"><polygon class="cls-2" points="36.14 63.11 90.98 31.45 73.05 21.1 18.2 52.77 36.14 63.11"/><polygon class="cls-3" points="72.88 25.18 90.81 35.53 90.81 34.09 72.88 23.74 72.88 25.18"/><polygon class="cls-4" points="90.81 35.53 90.98 35.43 90.98 33.99 90.81 34.09 90.81 35.53"/><polygon class="cls-5" points="90.98 33.99 90.81 34.09 72.88 23.74 73.05 23.64 90.98 33.99"/><polygon class="cls-5" points="1.36 53.74 2.87 54.61 2.87 51.44 1.36 50.57 1.36 53.74"/><polygon class="cls-2" points="1.36 50.57 1.62 50.42 3.13 51.29 2.87 51.44 1.36 50.57"/><polygon class="cls-3" points="2.87 54.61 3.13 54.46 3.13 51.29 2.87 51.44 2.87 54.61"/><path class="cls-3" d="M2.15,52.74A.15.15,0,0,1,2,52.59v-3a.15.15,0,0,1,.23-.13l1.24.72a.15.15,0,0,1-.15.26l-1-.59v2.72A.15.15,0,0,1,2.15,52.74Z"/><polygon class="cls-3" points="0.78 67.46 7.07 63.83 6.29 63.38 0 67.01 0.78 67.46"/><path class="cls-6" d="M83,46.23a1.91,1.91,0,0,1-.64-.62,3.3,3.3,0,0,1-.45-1.81,8.28,8.28,0,0,1,3.75-6.49,3.29,3.29,0,0,1,1.79-.51,1.89,1.89,0,0,1,.86.25L85.4,35.39a2.63,2.63,0,0,0-2.65.26A8.28,8.28,0,0,0,79,42.14a2.63,2.63,0,0,0,1.1,2.43Z"/><path class="cls-3" d="M85.63,46a8.28,8.28,0,0,0,3.75-6.49,2.64,2.64,0,0,0-1.1-2.43,1.89,1.89,0,0,0-.86-.25,3.29,3.29,0,0,0-1.79.51,8.28,8.28,0,0,0-3.75,6.49,3.3,3.3,0,0,0,.45,1.81,1.91,1.91,0,0,0,.64.62A2.63,2.63,0,0,0,85.63,46Z"/><path class="cls-7" d="M87.74,40.42c0-1.34-.95-1.89-2.11-1.22a4.67,4.67,0,0,0-2.11,3.66c0,1.34.95,1.89,2.11,1.22A4.67,4.67,0,0,0,87.74,40.42Z"/><path class="cls-2" d="M86.92,39.41a.86.86,0,0,0-.57-.09,1.78,1.78,0,0,0-.6.23,4.19,4.19,0,0,0-1.87,3.25,1.78,1.78,0,0,0,.1.63.86.86,0,0,0,.36.45,1.17,1.17,0,0,0,1.17-.14,4.17,4.17,0,0,0,1.87-3.25A1.17,1.17,0,0,0,86.92,39.41Z"/><path class="cls-8" d="M86.35,39.32a1.78,1.78,0,0,0-.6.23,4.19,4.19,0,0,0-1.87,3.25,1.78,1.78,0,0,0,.1.63,1.7,1.7,0,0,0,.6-.23A4.17,4.17,0,0,0,86.45,40,1.71,1.71,0,0,0,86.35,39.32Z"/><g class="cls-9"><path class="cls-6" d="M84.65,42.57a.47.47,0,0,1-.16-.15.81.81,0,0,1-.11-.44,2,2,0,0,1,.91-1.58.8.8,0,0,1,.44-.12.46.46,0,0,1,.21.06l-.7-.41a.64.64,0,0,0-.65.06,2,2,0,0,0-.91,1.58.64.64,0,0,0,.27.59Z"/><path class="cls-10" d="M85.29,42.5a2,2,0,0,0,.91-1.58.64.64,0,0,0-.27-.59.46.46,0,0,0-.21-.06.8.8,0,0,0-.44.12A2,2,0,0,0,84.38,42a.81.81,0,0,0,.11.44.47.47,0,0,0,.16.15A.64.64,0,0,0,85.29,42.5Z"/><path class="cls-5" d="M85.71,40.72a.3.3,0,0,0-.14,0h0a.55.55,0,0,0-.25.08,1.32,1.32,0,0,0-.59,1,.53.53,0,0,0,.06.26v0a.32.32,0,0,0,.1.1.42.42,0,0,0,.42,0,1.32,1.32,0,0,0,.59-1A.42.42,0,0,0,85.71,40.72Z"/><path class="cls-4" d="M85.55,40.68a.55.55,0,0,0-.25.08,1.32,1.32,0,0,0-.59,1,.53.53,0,0,0,.06.26A.54.54,0,0,0,85,42a1.31,1.31,0,0,0,.59-1A.54.54,0,0,0,85.55,40.68Z"/></g><path class="cls-6" d="M74.39,51.19a1.92,1.92,0,0,1-.64-.62,3.3,3.3,0,0,1-.45-1.81A8.28,8.28,0,0,1,77,42.28a3.29,3.29,0,0,1,1.79-.51,1.89,1.89,0,0,1,.86.25l-2.88-1.66a2.63,2.63,0,0,0-2.65.26,8.28,8.28,0,0,0-3.75,6.49,2.63,2.63,0,0,0,1.1,2.43Z"/><path class="cls-3" d="M77,50.93a8.28,8.28,0,0,0,3.75-6.49A2.64,2.64,0,0,0,79.69,42a1.89,1.89,0,0,0-.86-.25,3.29,3.29,0,0,0-1.79.51,8.28,8.28,0,0,0-3.75,6.49,3.3,3.3,0,0,0,.45,1.81,1.92,1.92,0,0,0,.64.62A2.63,2.63,0,0,0,77,50.93Z"/><path class="cls-7" d="M79.15,45.38c0-1.34-.95-1.89-2.11-1.22a4.67,4.67,0,0,0-2.11,3.66c0,1.34.95,1.89,2.11,1.22A4.67,4.67,0,0,0,79.15,45.38Z"/><path class="cls-2" d="M78.33,44.37a.86.86,0,0,0-.57-.09,1.78,1.78,0,0,0-.6.23,4.19,4.19,0,0,0-1.87,3.25,1.78,1.78,0,0,0,.1.63.86.86,0,0,0,.36.45,1.17,1.17,0,0,0,1.17-.14,4.17,4.17,0,0,0,1.87-3.25A1.17,1.17,0,0,0,78.33,44.37Z"/><path class="cls-8" d="M77.76,44.28a1.78,1.78,0,0,0-.6.23,4.19,4.19,0,0,0-1.87,3.25,1.78,1.78,0,0,0,.1.63,1.71,1.71,0,0,0,.6-.23,4.17,4.17,0,0,0,1.87-3.25A1.71,1.71,0,0,0,77.76,44.28Z"/><g class="cls-11"><path class="cls-6" d="M76.06,47.53a.47.47,0,0,1-.16-.15.81.81,0,0,1-.11-.44,2,2,0,0,1,.91-1.58.8.8,0,0,1,.44-.12.46.46,0,0,1,.21.06l-.7-.41a.64.64,0,0,0-.65.06,2,2,0,0,0-.91,1.58.64.64,0,0,0,.27.59Z"/><path class="cls-10" d="M76.7,47.46a2,2,0,0,0,.91-1.58.64.64,0,0,0-.27-.59.46.46,0,0,0-.21-.06.8.8,0,0,0-.44.12,2,2,0,0,0-.91,1.58.81.81,0,0,0,.11.44.47.47,0,0,0,.16.15A.64.64,0,0,0,76.7,47.46Z"/><path class="cls-5" d="M77.12,45.68a.3.3,0,0,0-.14,0h0a.55.55,0,0,0-.25.08,1.32,1.32,0,0,0-.59,1,.53.53,0,0,0,.06.26v0a.32.32,0,0,0,.1.1.42.42,0,0,0,.42,0,1.32,1.32,0,0,0,.59-1A.42.42,0,0,0,77.12,45.68Z"/><path class="cls-4" d="M77,45.64a.55.55,0,0,0-.25.08,1.32,1.32,0,0,0-.59,1,.53.53,0,0,0,.06.26.54.54,0,0,0,.25-.08,1.31,1.31,0,0,0,.59-1A.54.54,0,0,0,77,45.64Z"/></g><path class="cls-12" d="M91.51,37.41l-1,.57A2.55,2.55,0,0,0,87,36.81c-.14,0-.34.15-.51.23l-.31.16-8.85,5.11s-.56.35-.82.56A10.89,10.89,0,0,0,73,48.08l-1,.57a13,13,0,0,1,4.49-6.87c.27-.2.82-.54.82-.54l8.85-5.11s.56-.3.82-.41a3.52,3.52,0,0,1,3.16,0A3.11,3.11,0,0,1,91.51,37.41Z"/><path class="cls-13" d="M90.17,35.74a3.52,3.52,0,0,0-3.16,0c-.27.11-.82.41-.82.41l-8.85,5.11s-.56.35-.82.54A13,13,0,0,0,72,48.66l-4.16-2.4a13,13,0,0,1,4.49-6.87c.27-.2.82-.54.82-.54L82,33.72s.56-.3.82-.41a3.52,3.52,0,0,1,3.16,0Z"/><polygon class="cls-2" points="51.73 54.24 57.99 57.85 57.99 52.7 51.73 49.09 51.73 54.24"/><polygon class="cls-6" points="55.96 58.18 51.79 55.78 55.15 55.66 56.37 57.32 55.96 58.18"/><polygon class="cls-6" points="33.88 70.93 29.71 68.52 33.07 68.41 34.29 70.06 33.88 70.93"/><polygon class="cls-14" points="70.49 50.63 57.99 57.85 57.99 52.7 70.49 45.48 70.49 50.63"/><polygon class="cls-5" points="59.81 51.65 58.9 52.18 58.9 57.32 59.81 56.8 59.81 51.65"/><polygon class="cls-5" points="63.07 49.77 62.16 50.3 62.16 55.44 63.07 54.92 63.07 49.77"/><polygon class="cls-5" points="66.33 47.89 65.41 48.42 65.41 53.56 66.33 53.04 66.33 47.89"/><polygon class="cls-5" points="69.58 46.01 68.67 46.53 68.67 51.68 69.58 51.16 69.58 46.01"/><path class="cls-6" d="M48.88,65.92a1.92,1.92,0,0,1-.64-.62,3.3,3.3,0,0,1-.45-1.81A8.28,8.28,0,0,1,51.53,57a3.29,3.29,0,0,1,1.79-.51,1.89,1.89,0,0,1,.86.25L51.3,55.08a2.63,2.63,0,0,0-2.65.26,8.28,8.28,0,0,0-3.75,6.49A2.63,2.63,0,0,0,46,64.26Z"/><path class="cls-10" d="M51.53,65.66a8.28,8.28,0,0,0,3.75-6.49,2.64,2.64,0,0,0-1.1-2.43,1.89,1.89,0,0,0-.86-.25,3.29,3.29,0,0,0-1.79.51,8.28,8.28,0,0,0-3.75,6.49,3.3,3.3,0,0,0,.45,1.81,1.92,1.92,0,0,0,.64.62A2.63,2.63,0,0,0,51.53,65.66Z"/><path class="cls-7" d="M53.64,60.11c0-1.34-.95-1.89-2.11-1.22a4.67,4.67,0,0,0-2.11,3.66c0,1.34.95,1.89,2.11,1.22A4.67,4.67,0,0,0,53.64,60.11Z"/><path class="cls-2" d="M52.81,59.1a.86.86,0,0,0-.57-.09,1.78,1.78,0,0,0-.6.23,4.19,4.19,0,0,0-1.87,3.25,1.78,1.78,0,0,0,.1.63.86.86,0,0,0,.36.45,1.17,1.17,0,0,0,1.17-.14,4.17,4.17,0,0,0,1.87-3.25A1.17,1.17,0,0,0,52.81,59.1Z"/><path class="cls-8" d="M52.25,59a1.78,1.78,0,0,0-.6.23,4.19,4.19,0,0,0-1.87,3.25,1.78,1.78,0,0,0,.1.63,1.71,1.71,0,0,0,.6-.23,4.17,4.17,0,0,0,1.87-3.25A1.71,1.71,0,0,0,52.25,59Z"/><g class="cls-15"><path class="cls-6" d="M50.55,62.25a.47.47,0,0,1-.16-.15.81.81,0,0,1-.11-.44,2,2,0,0,1,.91-1.58.8.8,0,0,1,.44-.12.46.46,0,0,1,.21.06l-.7-.41a.64.64,0,0,0-.65.06,2,2,0,0,0-.91,1.58.64.64,0,0,0,.27.59Z"/><path class="cls-10" d="M51.19,62.19a2,2,0,0,0,.91-1.58.64.64,0,0,0-.27-.59.46.46,0,0,0-.21-.06.8.8,0,0,0-.44.12,2,2,0,0,0-.91,1.58.81.81,0,0,0,.11.44.47.47,0,0,0,.16.15A.64.64,0,0,0,51.19,62.19Z"/><path class="cls-5" d="M51.61,60.41a.3.3,0,0,0-.14,0h0a.55.55,0,0,0-.25.08,1.32,1.32,0,0,0-.59,1,.53.53,0,0,0,.06.26v0a.32.32,0,0,0,.1.1.42.42,0,0,0,.42,0,1.32,1.32,0,0,0,.59-1A.42.42,0,0,0,51.61,60.41Z"/><path class="cls-4" d="M51.44,60.37a.55.55,0,0,0-.25.08,1.32,1.32,0,0,0-.59,1,.53.53,0,0,0,.06.26.54.54,0,0,0,.25-.08,1.31,1.31,0,0,0,.59-1A.54.54,0,0,0,51.44,60.37Z"/></g><path class="cls-12" d="M46.09,63l1-.57a10.93,10.93,0,0,1,3.49-5.21,7.18,7.18,0,0,1,.82-.56c1.52-.88,2.87-.83,3.73,0A3,3,0,0,1,56,58.18h0l1-.11a3.47,3.47,0,0,0-1.85-3,4.13,4.13,0,0,0-3.73.52,8.39,8.39,0,0,0-.82.55A13,13,0,0,0,46.09,63Z"/><path class="cls-6" d="M26.75,78.69a1.92,1.92,0,0,1-.64-.62,3.3,3.3,0,0,1-.45-1.81,8.28,8.28,0,0,1,3.75-6.49,3.29,3.29,0,0,1,1.79-.51,1.89,1.89,0,0,1,.86.25l-2.88-1.66a2.63,2.63,0,0,0-2.65.26,8.28,8.28,0,0,0-3.75,6.49A2.63,2.63,0,0,0,23.87,77Z"/><path class="cls-10" d="M29.4,78.43a8.28,8.28,0,0,0,3.75-6.49A2.63,2.63,0,0,0,32,69.52a1.89,1.89,0,0,0-.86-.25,3.29,3.29,0,0,0-1.79.51,8.28,8.28,0,0,0-3.75,6.49,3.3,3.3,0,0,0,.45,1.81,1.92,1.92,0,0,0,.64.62A2.63,2.63,0,0,0,29.4,78.43Z"/><path class="cls-7" d="M31.51,72.89c0-1.34-.95-1.89-2.11-1.22a4.67,4.67,0,0,0-2.11,3.66c0,1.34.95,1.89,2.11,1.22A4.67,4.67,0,0,0,31.51,72.89Z"/><path class="cls-2" d="M30.69,71.87a.86.86,0,0,0-.57-.09,1.78,1.78,0,0,0-.6.23,4.19,4.19,0,0,0-1.87,3.25,1.78,1.78,0,0,0,.1.63.86.86,0,0,0,.36.45,1.17,1.17,0,0,0,1.17-.14A4.17,4.17,0,0,0,31.15,73,1.17,1.17,0,0,0,30.69,71.87Z"/><path class="cls-8" d="M30.12,71.78a1.78,1.78,0,0,0-.6.23,4.19,4.19,0,0,0-1.87,3.25,1.78,1.78,0,0,0,.1.63,1.71,1.71,0,0,0,.6-.23,4.17,4.17,0,0,0,1.87-3.25A1.71,1.71,0,0,0,30.12,71.78Z"/><g class="cls-16"><path class="cls-6" d="M28.42,75a.47.47,0,0,1-.16-.15.8.8,0,0,1-.11-.44,2,2,0,0,1,.91-1.58.8.8,0,0,1,.44-.12.46.46,0,0,1,.21.06l-.7-.41a.64.64,0,0,0-.65.06A2,2,0,0,0,27.45,74a.64.64,0,0,0,.27.59Z"/><path class="cls-10" d="M29.06,75A2,2,0,0,0,30,73.38a.64.64,0,0,0-.27-.59.46.46,0,0,0-.21-.06.8.8,0,0,0-.44.12,2,2,0,0,0-.91,1.58.8.8,0,0,0,.11.44.47.47,0,0,0,.16.15A.64.64,0,0,0,29.06,75Z"/><path class="cls-5" d="M29.48,73.18a.29.29,0,0,0-.14,0h0a.55.55,0,0,0-.25.08,1.32,1.32,0,0,0-.59,1,.53.53,0,0,0,.06.26v0a.32.32,0,0,0,.1.1.42.42,0,0,0,.42,0,1.32,1.32,0,0,0,.59-1A.42.42,0,0,0,29.48,73.18Z"/><path class="cls-4" d="M29.32,73.15a.55.55,0,0,0-.25.08,1.32,1.32,0,0,0-.59,1,.53.53,0,0,0,.06.26.54.54,0,0,0,.25-.08,1.31,1.31,0,0,0,.59-1A.55.55,0,0,0,29.32,73.15Z"/></g><polygon class="cls-17" points="46.09 63.58 33.88 70.63 33.05 67.1 48.55 58.15 46.09 63.58"/><polygon class="cls-17" points="90.98 31.45 36.14 63.11 36.14 65.32 90.98 33.65 90.98 31.45"/><polygon class="cls-14" points="38.71 40.53 38.71 61.62 20.77 51.27 20.77 30.18 38.71 40.53"/><polygon class="cls-18" points="38.71 61.62 90.98 31.45 90.98 10.35 38.71 40.53 38.71 61.62"/><path class="cls-19" d="M40.69,41.91V58.16L42.79,57V40.7Z"/><polygon class="cls-18" points="40.69 41.91 40.69 57.47 42.26 56.57 42.26 41 40.69 41.91"/><path class="cls-19" d="M44.85,39.51V55.76L47,54.55V38.3Z"/><polygon class="cls-18" points="44.85 39.51 44.85 55.07 46.42 54.17 46.42 38.6 44.85 39.51"/><path class="cls-19" d="M49,37.11V53.36l2.11-1.21V35.89Z"/><polygon class="cls-18" points="49.01 37.11 49.01 52.67 50.59 51.76 50.59 36.2 49.01 37.11"/><path class="cls-19" d="M53.17,34.71V51l2.11-1.21V33.49Z"/><polygon class="cls-18" points="53.17 34.71 53.17 50.27 54.75 49.36 54.75 33.79 53.17 34.71"/><path class="cls-19" d="M57.33,32.3V48.55l2.11-1.21V31.09Z"/><polygon class="cls-18" points="57.33 32.3 57.33 47.86 58.91 46.96 58.91 31.39 57.33 32.3"/><path class="cls-19" d="M61.49,29.9V46.15l2.11-1.21V28.69Z"/><polygon class="cls-18" points="61.49 29.9 61.49 45.46 63.07 44.56 63.07 28.99 61.49 29.9"/><path class="cls-19" d="M65.65,27.5V43.75l2.11-1.21V26.28Z"/><polygon class="cls-18" points="65.65 27.5 65.65 43.06 67.23 42.15 67.23 26.59 65.65 27.5"/><path class="cls-19" d="M69.81,25.1V41.35l2.11-1.21V23.88Z"/><polygon class="cls-18" points="69.81 25.1 69.81 40.66 71.39 39.75 71.39 24.18 69.81 25.1"/><path class="cls-19" d="M74,22.7V38.94l2.11-1.21V21.48Z"/><polygon class="cls-18" points="73.97 22.7 73.97 38.25 75.55 37.35 75.55 21.78 73.97 22.7"/><path class="cls-19" d="M78.14,20.29V36.54l2.11-1.21V19.08Z"/><polygon class="cls-18" points="78.14 20.29 78.14 35.85 79.71 34.95 79.71 19.38 78.14 20.29"/><path class="cls-19" d="M82.3,17.89V34.14l2.11-1.21V16.67Z"/><polygon class="cls-18" points="82.3 17.89 82.3 33.45 83.87 32.54 83.87 16.98 82.3 17.89"/><path class="cls-19" d="M86.46,15.49V31.74l2.11-1.21V14.27Z"/><polygon class="cls-18" points="86.46 15.49 86.46 31.05 88.03 30.14 88.03 14.57 86.46 15.49"/><polygon class="cls-20" points="38.71 40.53 90.98 10.35 73.05 0 20.77 30.18 38.71 40.53"/><path class="cls-17" d="M36.14,50.42V67L33,68.79a4.19,4.19,0,0,0-3.73.35,7.11,7.11,0,0,0-.82.56A10.91,10.91,0,0,0,25,74.76H24l-5.29,3.05V70.59l2.6-10,.5-1.92L33,52.21Z"/><path class="cls-3" d="M23.69,66.73,21,68.26c-.21.12-.36,0-.3-.3l1.63-7a.7.7,0,0,1,.3-.43l5.1-2.94c.17-.1.31,0,.31.18v3.15a.68.68,0,0,1-.15.39l-4.08,5.3A.58.58,0,0,1,23.69,66.73Z"/><path class="cls-4" d="M21,68S21,68,21,68a.1.1,0,0,1,0-.1l1.63-7a.23.23,0,0,1,.1-.14l5.1-2.94c.06,0,.1,0,.1.06V61a.22.22,0,0,1,0,.13l-4.08,5.3-.06.05Z"/><path class="cls-3" d="M26.85,68.48l1-.59a.46.46,0,0,0,.21-.36v-.67c0-.13-.09-.19-.21-.12l-.8.46a.46.46,0,0,0-.19.27l-.22.8C26.6,68.45,26.7,68.56,26.85,68.48Z"/><path class="cls-21" d="M20,77.16v-7.9l2.16-9h0l6.41-3.7V67.91l0,0a12.88,12.88,0,0,0-4.47,6.84v0Zm.12-7.88V77L24,74.72a13,13,0,0,1,4.48-6.87V56.79l-6.2,3.58Z"/><path class="cls-3" d="M34.9,70.83l-1,.11h0A3,3,0,0,0,33,69.41a2.25,2.25,0,0,0-.44-.32,3.32,3.32,0,0,0-3.29.35,7.18,7.18,0,0,0-.82.56A10.91,10.91,0,0,0,25,75.06l0,.15-1,.57c.06-.24.13-.48.21-.72a13,13,0,0,1,4.28-6.15,8.38,8.38,0,0,1,.82-.55A4.13,4.13,0,0,1,33,67.84,3.47,3.47,0,0,1,34.9,70.83Z"/><path class="cls-17" d="M36.14,46.79v3.63L21.82,58.69,22.38,57a7.38,7.38,0,0,1,3-4Z"/><polygon class="cls-5" points="19.5 78.26 19.5 82.56 25.78 78.92 25.78 74.63 19.5 78.26"/><polygon class="cls-12" points="20.13 79.82 23.77 77.72 23.77 76.33 20.13 78.42 20.13 79.82"/><polygon class="cls-12" points="20.13 81.64 23.77 79.54 23.77 78.14 20.13 80.24 20.13 81.64"/><polygon class="cls-5" points="16.11 77.81 16.11 82.1 13.94 80.85 0.26 72.96 0.26 68.67 13.94 76.56 16.11 77.81"/><polygon class="cls-22" points="0.78 67.46 18.72 77.81 18.72 70.6 0.78 60.25 0.78 67.46"/><polygon class="cls-3" points="0.26 68.67 16.11 77.81 19.5 78.26 0 67.01 0.26 68.67"/><polygon class="cls-22" points="3.88 48.34 21.82 58.69 18.72 70.6 0.78 60.25 3.88 48.34"/><path class="cls-3" d="M21.17,60l-2.54,9.75a.3.3,0,0,1-.44.18L1.33,60.22a.3.3,0,0,1-.14-.34l2.54-9.75a.3.3,0,0,1,.44-.18L21,59.67A.3.3,0,0,1,21.17,60Z"/><path class="cls-2" d="M20.82,60.15l-.5,1.92L18.43,69.3a.3.3,0,0,1-.44.18L11.44,65.7,6.71,63,2.3,60.43l-.63-.36a.3.3,0,0,1-.14-.34l.36-1.38,2-7.77a.3.3,0,0,1,.44-.18l7.05,4.07,2.28,1.31,4.41,2.55,2.58,1.49A.3.3,0,0,1,20.82,60.15Z"/><polygon class="cls-4" points="16.11 82.1 19.5 82.56 19.5 78.26 16.11 77.81 16.11 82.1"/><path class="cls-23" d="M36.14,46.79,25.41,53a7.38,7.38,0,0,0-3,4l-.56,1.73L3.89,48.34h0l.56-1.73a7.38,7.38,0,0,1,3-4l10.73-6.2Z"/><path class="cls-24" d="M34.35,43.88l-4.87,2.81a8.89,8.89,0,0,0-4.3,5l-15.68-9a8.89,8.89,0,0,1,4.3-5l4.87-2.81Z"/><path class="cls-25" d="M34.35,43.88v2.47l-9.17,5.3a8.89,8.89,0,0,1,4.3-5Z"/><path class="cls-5" d="M3.54,67.36V64.27a.6.6,0,0,1,.9-.52l11.21,6.46a.6.6,0,0,1,.3.52v3.18a.6.6,0,0,1-.84.55l-5.3-2.29-.11-.06-5.9-4.26A.6.6,0,0,1,3.54,67.36Z"/><path class="cls-13" d="M14.66,73.68l-10.43-6a.6.6,0,0,1-.3-.52V64.9a.6.6,0,0,1,.9-.52l10.43,6a.6.6,0,0,1,.3.52v2.24A.6.6,0,0,1,14.66,73.68Z"/><polygon class="cls-3" points="15.06 71.03 4.44 64.9 4.44 64.5 15.06 70.63 15.06 71.03"/><polygon class="cls-3" points="15.06 72.3 4.44 66.16 4.44 65.77 15.06 71.9 15.06 72.3"/><polygon class="cls-3" points="15.06 73.56 4.44 67.43 4.44 67.03 15.06 73.16 15.06 73.56"/><polygon class="cls-3" points="19.5 78.26 25.78 74.63 25 74.18 18.72 77.81 19.5 78.26"/><polygon class="cls-4" points="0.26 72.96 0 71.3 0 67.01 0.26 68.67 0.26 72.96"/><polygon class="cls-18" points="16.11 77.81 16.11 79.85 14.5 78.92 14.5 76.88 16.11 77.81"/><polygon class="cls-18" points="1.87 69.6 1.87 71.63 0.26 70.7 0.26 68.67 1.87 69.6"/><polygon class="cls-20" points="0.26 68.67 0.26 70.7 0 69.05 0 67.01 0.26 68.67"/><polygon class="cls-20" points="17.41 77.99 17.41 80.02 16.11 79.85 16.11 77.81 17.41 77.99"/><polygon class="cls-5" points="22.19 65.77 23.7 66.64 23.7 63.46 22.19 62.59 22.19 65.77"/><polygon class="cls-2" points="22.19 62.59 22.45 62.44 23.96 63.31 23.7 63.46 22.19 62.59"/><polygon class="cls-3" points="23.7 66.64 23.96 66.48 23.96 63.31 23.7 63.46 23.7 66.64"/><path class="cls-3" d="M23,64.76a.15.15,0,0,1-.15-.15V61.72l-1.16-.67a.15.15,0,1,1,.15-.26l1.24.72a.15.15,0,0,1,.08.13v3A.15.15,0,0,1,23,64.76Z"/><path class="cls-8" d="M13.69,55.78,2.3,60.43l-.63-.36a.3.3,0,0,1-.14-.34l.36-1.38,9.52-3.88Z"/><path class="cls-8" d="M20.82,60.15l-.5,1.92L11.44,65.7,6.71,63,18.1,58.33l2.58,1.49A.3.3,0,0,1,20.82,60.15Z"/><path class="cls-5" d="M21.82,58.69a5.86,5.86,0,0,0-1.66,2.59L2.23,50.93a5.86,5.86,0,0,1,1.66-2.59Z"/><path class="cls-3" d="M3.54,61.43a.15.15,0,0,1,0-.3l1.83-.33a.15.15,0,0,1,.05.3l-1.83.33Z"/><path class="cls-3" d="M8.21,62.7l-.06,0L5.32,61a.11.11,0,1,1,.11-.2l2.84,1.64a.11.11,0,0,1-.06.21Z"/><path class="cls-3" d="M11.35,65.94a.15.15,0,0,1,0-.3l1.83-.33a.15.15,0,0,1,.17.12.15.15,0,0,1-.12.17l-1.83.33Z"/><path class="cls-3" d="M16,67.21l-.06,0-2.84-1.64a.11.11,0,1,1,.11-.2L16.08,67a.11.11,0,0,1-.06.21Z"/><path class="cls-3" d="M21.82,58.69l-.5,1.92-1.16.67A5.86,5.86,0,0,1,21.82,58.69Z"/><polygon class="cls-26" points="45.19 59.96 45.19 62.16 36.18 67.37 36.18 65.16 45.19 59.96"/><path class="cls-21" d="M30.26,62.87V55.6l0,0,4.15-2.39v7.26l0,0Zm.12-7.19v7l3.93-2.27v-7Z"/></g></g></svg>