<svg xmlns="http://www.w3.org/2000/svg" viewBox="0 0 90.41 66.76"><defs><style>.cls-1{fill:#e4e4e4;}.cls-2{fill:#b0b0b0;}.cls-3{fill:#5e96ff;}.cls-4{fill:#cacaca;}.cls-5{fill:#979797;}.cls-6{fill:#919395;}.cls-7{fill:#3b66c2;}.cls-8{fill:#d24a43;}.cls-9{fill:#ba362f;}.cls-10{fill:#e04f48;}.cls-11{fill:#fff;}.cls-12{fill:#f2c799;}.cls-13{fill:#c29a77;}.cls-14{fill:#94765a;}.cls-15{fill:#e6bd91;}.cls-16{fill:#d9b389;}.cls-17{fill:#3e3e3e;}.cls-18{fill:#f4f4f4;}.cls-19{fill:#858585;}.cls-20{fill:#e8e8e8;}.cls-21{fill:#cfcfcf;}</style></defs><title>i10</title><g id="Слой_2" data-name="Слой 2"><g id="Layer_2" data-name="Layer 2"><path class="cls-1" d="M0,45.66a1.7,1.7,0,0,0,1,1.43l.24.14L28.3,62.86A6.35,6.35,0,0,0,34,62.62L89,30.87l.17-.11A2.24,2.24,0,0,0,90.41,29a1.7,1.7,0,0,0-1-1.43L62.11,11.8A6.35,6.35,0,0,0,56.4,12L1.4,43.79A2.35,2.35,0,0,0,0,45.66Zm6.51-3.11L54.25,15a2.29,2.29,0,0,1,2.06-.09l.46.27L84,30.92c.53.3.46.84-.15,1.19L36.16,59.67a2.29,2.29,0,0,1-2.06.09L6.81,44l-.45-.26C5.83,43.43,5.9,42.9,6.51,42.55Z"/><path class="cls-2" d="M0,45.66V49a1.7,1.7,0,0,0,1,1.43L28.3,66.19A6.35,6.35,0,0,0,34,65.95L89,34.2a2.35,2.35,0,0,0,1.4-1.87V29a2.24,2.24,0,0,1-1.22,1.76l-.17.11L34,62.62a6.35,6.35,0,0,1-5.72.24L1.22,47.22,1,47.09A1.7,1.7,0,0,1,0,45.66Z"/><path class="cls-3" d="M6.36,43.74l.45.26L34.1,59.75a2.29,2.29,0,0,0,2.06-.09L83.9,32.1c.61-.35.68-.88.15-1.19L56.77,15.17l-.46-.27a2.29,2.29,0,0,0-2.06.09L6.51,42.55C5.9,42.9,5.83,43.43,6.36,43.74Z"/><path class="cls-4" d="M73.88,41.89A.3.3,0,0,0,74,42a.31.31,0,0,0,.32,0l5.25-3c.53-.31.64-1.26.32-1.45a.24.24,0,0,0-.17,0l-.15.06-5.25,3A1.17,1.17,0,0,0,73.88,41.89Z"/><path class="cls-5" d="M73.71,41.87,74,42a.3.3,0,0,1-.12-.14,1.17,1.17,0,0,1,.44-1.3l5.25-3a.32.32,0,0,1,.32,0l-.29-.17a.31.31,0,0,0-.32,0l-5.25,3C73.5,40.73,73.39,41.68,73.71,41.87Z"/><path class="cls-6" d="M19.58,53.26l-1.72,1a1.42,1.42,0,0,1-1.28,0l-1.72-1a.39.39,0,0,1,0-.74l1.72-1a1.42,1.42,0,0,1,1.28,0l1.72,1A.39.39,0,0,1,19.58,53.26Z"/><path class="cls-6" d="M72.44,21.61a.89.89,0,0,0,.81,0,.25.25,0,0,0,0-.47.89.89,0,0,0-.81,0A.25.25,0,0,0,72.44,21.61Z"/><path class="cls-7" d="M75.67,29.67s.07-.1.15-.1a.18.18,0,0,1,0,.2s-.07.06-.09.09,0,.12,0,.19a1.29,1.29,0,0,1-.06.19c0,.06,0,.15-.15.16s0-.12-.05-.18-.12,0-.18,0,.12-.29-.08-.43-.37-.13-.27-.21.2,0,.29.08l.15,0C75.49,29.67,75.56,29.71,75.67,29.67Z"/><path class="cls-7" d="M75.38,30.47c.1.11,0,.28-.07.41s0,.1,0,.14-.12.1-.16.16,0,.21-.07.31a.6.6,0,0,1-.19.31c-.12.08-.43.18-.4,0a1.35,1.35,0,0,1,.13-.25,4.06,4.06,0,0,0,.41-.67c0-.12,0-.23.07-.33S75.31,30.5,75.38,30.47Z"/><path class="cls-7" d="M68,28.08s0,0,.06,0,.13.17,0,.25a.64.64,0,0,1-.29.06C67.54,28.32,68,28.16,68,28.08Z"/><path class="cls-7" d="M68.15,28.66c.08,0,.55-.08.56,0s-.14.05-.23.09-.18.11-.31.12-.31-.06-.48,0a.76.76,0,0,0-.33.09c-.12.09,0,.18,0,.29s-.16.12-.28.16-.3,0-.39,0-.14.26-.31.2,0-.17-.07-.21a.76.76,0,0,0-.33-.07,1.58,1.58,0,0,0-.19,0l-.23,0c-.27.05-.51.24-.73.2,0,0-.05,0-.11,0s-.15,0-.22,0-.29-.14-.2-.21a.86.86,0,0,1,.47-.08s.07,0,.12.07a.63.63,0,0,0,.34,0c.1,0,0-.16,0-.24a.33.33,0,0,1,.15-.17,2,2,0,0,1,.3-.07l.26-.09.26-.06a2.92,2.92,0,0,1,.81-.19c.07,0,.12,0,.2,0s.31-.1.4-.06,0,.09,0,.12S68,28.6,68.15,28.66Z"/><path class="cls-7" d="M71.05,30.08c.11,0,.11.11.16.16a2.1,2.1,0,0,1,.26.18,1.75,1.75,0,0,1,.14.32.58.58,0,0,1,.07.32c0,.06,0,.11-.05.17a1.18,1.18,0,0,0,0,.27c0,.09,0,.18,0,.26s.15.23,0,.33a.93.93,0,0,0-.21.17c-.07.11-.06.21-.12.25s-.21,0-.28.06-.07.1-.17.16a.93.93,0,0,1-.16,0c-.16.05-.29.13-.45.07s-.06-.09-.14-.12-.15,0-.24,0a.25.25,0,0,0-.22-.07c-.06,0-.08-.06-.09-.09a.83.83,0,0,0-.1.14c0,.06,0,.14-.06.17s-.11,0-.18-.07a1.75,1.75,0,0,0-.4-.05,2.47,2.47,0,0,0-.4.11c-.3.13-.33.32-.51.45s-.12.06-.16.1a.68.68,0,0,0-.2.43,3.39,3.39,0,0,0-.52.33c-.12.14-.07.29-.39.43-.1,0-.23.05-.31,0s0-.12,0-.17a.45.45,0,0,0-.16-.19c-.06,0-.17,0-.24-.09s-.09-.09-.14-.12-.2-.05-.29-.09l-.11-.06a1.39,1.39,0,0,1-.16-.06s0-.08,0-.12-.13,0-.23-.09-.05-.09-.11-.16-.1-.08-.12-.1,0-.11.06-.14,0-.25.15-.34l.1-.06c.06-.05.09-.15.17-.23s.18-.13.21-.2a.36.36,0,0,0,0-.29c-.06-.08-.15-.12-.11-.18s.07,0,.1-.07a.33.33,0,0,0,.07-.14c0-.07-.08-.12-.07-.19a.63.63,0,0,1,.06-.19.3.3,0,0,1,.1-.1c.13-.07.36,0,.46-.1s0-.12,0-.18-.11-.18,0-.26.22-.09.18-.16-.13,0-.12-.07.41-.08.57-.17.14-.19.28-.13,0,.09.08.13.08,0,.1.06-.1.11,0,.16.29,0,.43,0l.25,0,.12,0a.87.87,0,0,0,.29,0c.09-.05.06-.17,0-.26a1.79,1.79,0,0,0-.33-.28s0-.07-.08-.1-.21-.2-.15-.29a1.27,1.27,0,0,1,.63.21c.12,0,.22-.09.36,0s.08.07.13.09.2,0,.27.07.2.13.34.15.3-.06.5,0a.78.78,0,0,0,.2.06l.1,0c.09,0,.17,0,.24,0l.14,0a2.51,2.51,0,0,0,.3,0A1.87,1.87,0,0,1,71.05,30.08Z"/><path class="cls-7" d="M54.9,22.52a1,1,0,0,1,.9-.12c-.23.22-.77.21-1,.45a.08.08,0,0,0,0,.13c.17.08.53-.15.71-.09,0,.06-.13.08-.17.11a.37.37,0,0,0-.11.23c0,.07.09.18,0,.22s-.27.07-.36.16,0,.08,0,.11-.27.1-.21.2.21.1.32.09.1-.05.17-.07a1.71,1.71,0,0,1,.29,0,.79.79,0,0,1,.19,0c.07,0,0,.05.1.07s.22,0,.27,0,0,.07,0,.11.1,0,.16,0,0,.06.09.08.15,0,.19.06a.07.07,0,0,1,0,.1c-.27,0-.57,0-.88.07a2.37,2.37,0,0,1-1.11,0s0-.1,0-.15l-.11-.05c-.1-.06-.12-.17-.18-.2a.87.87,0,0,0-.4,0s.08,0,.12.07a.09.09,0,0,1,0,.15c-.15.11-.39,0-.58.18s0,.16.11.22.19,0,.24,0-.16.18-.22.2-.33.06-.45.14-.06.1-.1.13c-.22.19-.8.33-.65.52,0,0,.07,0,.1.07s0,.08.06.11.07.05.1.08,0,.21.2.15,0,0,.08-.06.33,0,.41-.1.06-.11.1-.13a.81.81,0,0,1,.27-.07,1.39,1.39,0,0,0,.28-.06c.08-.05,0-.06,0-.12a3,3,0,0,1,.69,0l.35,0a1.51,1.51,0,0,1,.34,0s0,.05.06.08.11,0,.12.08a1.86,1.86,0,0,1-.57,0h-.29c-.05,0-.24,0-.28,0s.27.08.33.09a1.37,1.37,0,0,1,.4.06c.06,0,.12.1.21.15l.18.09a.85.85,0,0,1,.11.13s.12.09.14.13a.17.17,0,0,1,0,.23c-.07,0-.16,0-.22.07s0,.13,0,.22.15,0,.2.09,0,.15.06.2.22,0,.31,0a3.56,3.56,0,0,1,.55,0,1.05,1.05,0,0,1,.36.07c.08.05,0,.27-.17.31s-.19,0-.3-.07a1.7,1.7,0,0,0-.24,0l-.13,0c-.14,0-.18.06-.34.1s-.17,0-.26-.06a.56.56,0,0,0-.43.13c-.07.07,0,.13-.09.19s-.24-.16-.41-.08,0,.21,0,.29-.09.1,0,.14.18,0,.3,0,.22,0,.29,0,0-.1.09-.14a.8.8,0,0,1,.33-.11c.07.08-.08.27.06.35s.19,0,.31,0,.31,0,.49,0l.2,0a2,2,0,0,0,.25,0c.06,0,0,0,.09.07s.17,0,.25,0,.34.14.28.24c.22.18.37.34.34.53s-.2.32-.33.48,0,.09,0,.13-.3.2-.16.28.2,0,.28,0,.14.17.08.22a.33.33,0,0,1-.29,0c-.11-.05,0-.16-.08-.2a.44.44,0,0,0-.43,0,.32.32,0,0,0,0,.43,1.9,1.9,0,0,0,.6,0,1.9,1.9,0,0,1,1.34.22c.08.11,0,.22-.09.33s.1.21,0,.31-.15-.05-.21-.07a2,2,0,0,0-.38,0c-.12,0-.23,0-.32,0a2,2,0,0,0-.34.07c-.07,0-.2,0-.24,0s0,.07.14.15.11.18.29.25a1.75,1.75,0,0,0,.29,0,3.31,3.31,0,0,0,.4.07c.08,0,.15,0,.23,0a2.62,2.62,0,0,1,.57,0,3.54,3.54,0,0,1,.33.15c.14,0,.37,0,.4.12a1.5,1.5,0,0,1-.34.07,1.68,1.68,0,0,1-.51,0l-.17,0c-.11,0-.19-.08-.32-.12a1.91,1.91,0,0,0-.47,0c-.12,0-.26,0-.35,0s-.22-.17-.37-.24l-.12,0c-.08,0-.15-.09-.22-.11a2.14,2.14,0,0,0-.24,0l-.24-.05c-.14,0-.37-.12-.46-.08s0,.19-.11.26a.35.35,0,0,1-.25,0c-.07,0-.08-.08-.14-.11a.94.94,0,0,0-.39-.05l-.16,0c-.09,0-.19,0-.29,0l-.28,0c-.1,0-.2-.06-.26,0s0,.1-.07.14a1.39,1.39,0,0,1-.18.16c-.16.11-.34.17-.11.27.07.07,0,.13,0,.19s0,.18,0,.29,0,.1,0,.15,0,.08,0,.11-.13.19-.07.3.33.1.45.19.07.1.13.14a1.78,1.78,0,0,1,.19.09s0,.05,0,.09,0,.07.06.09,0,.08,0,.12,0,.08,0,.11-.57,0-.81-.08-.25,0-.38,0-.28-.09-.46-.11-.32,0-.45-.06l-.37-.11a2.73,2.73,0,0,1-.37-.13c-.12-.06-.17-.12-.3-.09s0,.13-.1.19-.5.11-.57,0-.34.05-.56.06a1.24,1.24,0,0,0-.45,0s-.06.05-.08.07l-.28.17a2.2,2.2,0,0,1-.34.23l-.31.14a1.21,1.21,0,0,1-.41.14c-.07,0-.21-.05-.29,0s-.08.1-.13.15a.89.89,0,0,1-.5.18l-.31.05c-.22,0-.51-.11-.71,0s-.13.13-.06.18a.94.94,0,0,0,.3.06,3.18,3.18,0,0,1,.7,0s.07-.08.15-.08.23.13.34.1c.41-.18.31-.35.33-.53.15,0,.18,0,.28,0a.69.69,0,0,0,.3,0c.06,0,.1-.06.19-.08a1.54,1.54,0,0,1,.45,0c.06,0,.12.19.13.24s0,.09,0,.12.09.06.1.07,0,.1,0,.15a.87.87,0,0,1,0,.15c0,.06,0,.11,0,.16s-.2.15-.22.24.07.11.05.18-.16.16-.22.25,0,.13-.05.18l-.08.06s-.05.1-.09.14l-.11.09c-.09.1-.07.25-.28.28s-.41-.14-.62-.17-.2,0-.3,0,0-.06,0-.09a1.75,1.75,0,0,0-.38,0l-.21,0a3.29,3.29,0,0,1-.77,0l-.14-.07a1.13,1.13,0,0,0-.29,0c-.07,0-.16,0-.26,0l-.18,0a3.51,3.51,0,0,0-.77,0c-.06,0-.13.1-.12.14a3,3,0,0,0,.46.08,4,4,0,0,1,.45.06l.15.05c.19,0,.41,0,.6,0s.18.1.32.15a3.92,3.92,0,0,0,.5,0c.13,0,.25.08.36.1a1.89,1.89,0,0,0,.54,0c.16,0,.34,0,.49,0s.16,0,.22,0,.06.06.1.09a1.14,1.14,0,0,0,.45,0s.06-.08.12-.13l.1-.06s0-.08.07-.12.18-.12.27-.19.07-.16.17-.2a.39.39,0,0,1,.31.17l.08.06c.11.11.11.25.2.36s.08.06.11.1a.89.89,0,0,1,.1.4.82.82,0,0,1,0,.2c0,.07-.05.13-.07.2a.89.89,0,0,0,0,.44c0,.05.06.1.07.14s0,.14,0,.2a1.21,1.21,0,0,0,.13.19c.06.08,0,.18.18.25s.14,0,.21,0a.76.76,0,0,1,.27.16,1.94,1.94,0,0,0,.51.08c.19.09.34.2.51.28s.21.07.27.14a.4.4,0,0,1,0,.29c0,.08-.13.16-.15.25s0,.13,0,.2-.07.24,0,.29a1.23,1.23,0,0,0,.23.07,1.06,1.06,0,0,1,.47.25c.09.12-.25.29-.12.4s.11,0,.16.07a1,1,0,0,1,.17.19c0,.06,0,.13,0,.2s.09.17.1.26a1.24,1.24,0,0,1,0,.4.79.79,0,0,1-.3.4c-.1.07-.24.12-.33.19s0,.07-.08.11l-.09.06s0,.09-.1.12a.7.7,0,0,1-.53,0c-.05,0-.06-.08-.11-.11a2,2,0,0,0-.35-.06c-.15,0-.28-.07-.41-.09s-.25,0-.36,0a2.34,2.34,0,0,1-.57-.19c-.06,0-.15,0-.23-.07a2.77,2.77,0,0,0-.25-.13c-.07,0-.17,0-.27,0s-.37-.08-.51-.1a1.8,1.8,0,0,1-.42-.05,1.59,1.59,0,0,1-.23-.15c-.05,0-.06-.09-.11-.14L48,41.89c-.16-.14,0-.31-.3-.43-.12-.05-.24,0-.37-.1s-.08-.07-.13-.1a1.67,1.67,0,0,0-.35-.09A4.51,4.51,0,0,0,46.1,41c-.15,0-.29,0-.43,0a1.21,1.21,0,0,1-.32-.06c-.05,0,0-.07-.08-.1s-.17-.12-.25-.19a.72.72,0,0,0-.19-.16.85.85,0,0,0-.44,0c-.15.05-.2.17-.36.25s-.43-.1-.64,0a1.18,1.18,0,0,0-.52.48.68.68,0,0,1-.16.23,2.8,2.8,0,0,1-.29.11,1.59,1.59,0,0,0-.31.21c-.08.07-.09.16-.17.22a1.6,1.6,0,0,1-.66.12l-.33,0c-.12,0-.23,0-.33,0a1.54,1.54,0,0,1-.38-.09,2.81,2.81,0,0,0-.55,0,2.17,2.17,0,0,1-.54,0c-.06,0-.09-.07-.14-.1s-.18,0-.24-.06,0-.13-.09-.18l-.11-.08c-.07-.06-.06-.13-.21-.19s-.15,0-.22-.06,0-.06-.09-.08-.19,0-.29,0-.08-.14-.13-.23-.08-.09-.09-.12,0-.14,0-.2-.1-.1-.12-.13,0-.1,0-.18-.06-.11,0-.14.07-.09.09-.13a.34.34,0,0,0,0-.39.34.34,0,0,1-.23-.21c0-.08-.09-.15-.05-.24s.14-.16.09-.27a.38.38,0,0,0-.13-.18.55.55,0,0,0-.37,0c-.09,0-.13.15-.26.13s-.09-.05-.12-.07-.16,0-.2,0-.09-.14-.17-.21a1.61,1.61,0,0,0-.39-.2c-.08-.18.28-.29.56-.43l.12-.08c.16-.09.33-.14.24-.25a1.12,1.12,0,0,0-.28-.18,1.61,1.61,0,0,0-.43,0c-.14,0-.24.11-.39.08s.2-.15.27-.24-.07-.1,0-.14.12,0,.16-.06a.56.56,0,0,0,.12-.2c0-.05,0-.11,0-.16s.06-.06.08-.09a.33.33,0,0,0,.05-.22c0-.09-.1-.17,0-.23s.39-.21.28-.3-.33-.06-.41-.16,0-.12.1-.24a.66.66,0,0,1,.31.11c.08,0,.21-.16.16-.21s-.3,0-.38,0-.2-.07-.28,0-.07.26-.23.35a.65.65,0,0,1-.41.06,3.93,3.93,0,0,0-.43-.19c-.05-.1.08-.2.13-.3s0-.08,0-.12.19-.11.22-.18,0-.06-.07-.11,0-.08,0-.12,0-.05-.06-.08.08-.2,0-.29-.1,0-.15-.05.12-.09.17-.13,0-.16.11-.23a2,2,0,0,0,.24-.2s0-.1.07-.14l.1-.05.08-.08c.06,0,.16-.08.24-.12a1.39,1.39,0,0,1,.38-.22c.09,0,.15,0,.25,0s.08-.06.14-.09.24-.07.36-.13l.12-.07a4.05,4.05,0,0,1,.5-.16c.13,0,.39-.14.49-.09s0,.19-.11.24-.39.14-.48.25a.78.78,0,0,0,.73-.06c-.08-.06-.15,0-.23,0s.23-.09.33-.17,0-.07-.08-.1a.36.36,0,0,1,.29-.28,0,0,0,0,1,0,0c-.09-.06-.25,0-.28-.11s.15-.14.22-.12,0,.05.07.08a.29.29,0,0,0,.22,0c.08-.05,0-.11.05-.18s.06-.06.08-.09,0-.09.06-.12l.1-.07s0-.09.09-.12.15,0,.22-.05.05-.06.1-.09l.12-.07c.07-.06.08-.11.15-.15s.2,0,.2-.08-.17,0-.19-.06c.14-.07.28-.16.42-.23s.51-.16.68-.26c-.14-.06-.24,0-.35.05a1.15,1.15,0,0,1-.28,0,.63.63,0,0,1-.09-.19c0-.09.25-.23.42-.22s.2.07.27,0-.06-.14,0-.19.19,0,.24,0,0-.15.07-.21.09,0,.18-.07-.1,0-.13-.08.29-.2.37-.3-.12,0-.12-.06.2-.22.34-.34.11-.18.19-.24.23-.08.31-.12a.44.44,0,0,0,.12-.11s0-.09,0-.12a3,3,0,0,1,.25-.15c.08-.06.12-.13.2-.16s.19,0,.26-.05.34-.24.54-.31l.15,0c.15,0,.21-.1.37,0s.25,0,.38-.07a1.08,1.08,0,0,0,.2-.13l.33-.18.19-.05.12-.07.17-.07c.09-.06.07-.14.13-.19a.92.92,0,0,1,.15-.07c.15-.08.29-.2.43-.25a1.91,1.91,0,0,1,.38-.07c.09,0,.18,0,.26,0a.92.92,0,0,0,.27-.08s0-.07,0-.12.52-.25.59-.37,0-.07,0-.11c.24-.16.52-.3.76-.44a2.51,2.51,0,0,1,.24-.15c.1,0,.25,0,.36-.06s.16-.09.26-.13l.2-.06a1.38,1.38,0,0,0,.25-.17,2.18,2.18,0,0,1,.69-.36,2.19,2.19,0,0,0,.4-.08c.17-.08.39-.25.56-.34l.12-.05s0-.08.1-.12.35-.06.45-.14-.13,0-.12-.07.11-.07.19-.11.07-.07.11-.09.28-.06.42-.11a1.51,1.51,0,0,0,.35-.19,1,1,0,0,1,.2-.15l.15,0,.11-.06.13,0c.21-.07.44-.18.66-.25a2.72,2.72,0,0,0,.38-.12S54.84,22.55,54.9,22.52Zm-5.39,5.65a.58.58,0,0,0-.39-.12c-.08.07.1.08.15.12s.05.14.15.19,0,.08,0,.12,0-.06,0-.11S49.56,28.22,49.51,28.17Zm-5.31-.35a.24.24,0,0,0-.11.15s-.07.07,0,.09S44.28,27.88,44.2,27.81Zm2.42,3.39c-.1,0-.1.09,0,.1S46.66,31.23,46.62,31.2Zm-4.9-.62c.25-.09.11-.28-.16-.27a1.25,1.25,0,0,1-.29,0c-.14,0-.25-.08-.35,0s0,0,0,0c.18.11.5,0,.65.07S41.6,30.54,41.72,30.58Zm3.29,2c.11-.1-.26-.14-.33-.07S44.94,32.66,45,32.6Zm.52,1c-.27-.2-.52-.07-.78-.16,0,0,0,0,0,0s.18-.06.14-.12a.35.35,0,0,0-.39.08.42.42,0,0,1-.19,0,1.52,1.52,0,0,1-.64,0c-.1-.06,0-.16.11-.24s-.17-.12-.26-.1c-.27.11-.35.19-.39.34s-.06.13-.06.17a.14.14,0,0,0,.07.12c.06,0,.17,0,.27,0l.14,0a2.08,2.08,0,0,0,.42,0,1.67,1.67,0,0,1,.42,0c.05,0,0,.06.06.1a.75.75,0,0,0,.2.14c.12,0,.22,0,.35,0a1.62,1.62,0,0,0,.38-.1C45.46,33.75,45.53,33.67,45.53,33.61Zm-2.63.85c.19-.16-.12-.21-.31-.18l-.47.09c-.1,0-.4.11-.47.07s.06-.16-.16-.2-.37.25-.22.31.13,0,.23,0c-.05.07-.07.17-.17.22s-.28,0-.42,0-.22,0-.3.1,0,.18,0,.26,0,.08,0,.1l.08.05c.07.07,0,.14.12.18s.2,0,.27,0-.08.08,0,.13c.28,0,.1-.13.15-.19s.2-.1.26-.16,0-.11.08-.17a.48.48,0,0,1,.13-.12c.26-.17.62-.17.86-.31A2.23,2.23,0,0,0,42.9,34.46Zm.51.91c-.09-.06-.2-.07-.34-.14s-.18.22-.36.3-.3,0-.39.1,0,.1,0,.14-.28.05-.36.16a2.09,2.09,0,0,1-1-.17c-.24,0-.28.14-.26.23s-.13,0-.08.08.4,0,.51,0,0,.1,0,.15.08.06.06.12a.38.38,0,0,1-.45,0c-.19,0-.36,0-.52,0a.78.78,0,0,1-.21,0s-.08-.06-.13-.08a1.15,1.15,0,0,0-.46.05,3.5,3.5,0,0,1-.46.09c-.09,0-.2,0-.27,0s-.1,0-.16,0-.13,0-.21,0,0,.07,0,.1.32,0,.47.05.22,0,.31,0a1.54,1.54,0,0,0,.25-.08c.06,0,.15,0,.23,0s.27-.09.38,0-.22.07-.17.14.13,0,.19.05a.11.11,0,0,1,0,.2c-.06,0-.05-.08-.11-.11a1.54,1.54,0,0,0-.67,0c-.08,0-.14.05-.21.07a3,3,0,0,1-.52,0c-.15,0-.35-.06-.48,0s0,.09-.06.13a.75.75,0,0,0-.06.12s0,.09-.06.12-.28.07-.35.14,0,.05,0,.1.1,0,.15.07-.06.09-.09.15a.57.57,0,0,0,0,.27c0,.05,0,.1,0,.13s.11,0,.14.06a.21.21,0,0,1,0,.18s0,.06-.06.09,0,.11,0,.15-.45.24-.28.32.25,0,.34-.08.25-.12.3-.17,0-.09.06-.14l.06-.07s0-.09,0-.12a1,1,0,0,1,.23-.22c.11-.07.25-.13.38-.23s.06-.09.12-.12.25-.11.32-.15.05-.1.12-.13a.39.39,0,0,1,.25,0s.05,0,.1.06.15,0,.19,0,0,.15.08.18a.94.94,0,0,0,.27,0,1.15,1.15,0,0,0,.27-.07c.05,0,.08-.06.13-.09a1.32,1.32,0,0,1,.33-.09c.14,0,.22,0,.35,0s.12-.06.18-.09.35-.06.43-.12-.08-.13-.16-.2.24-.4.48-.36c.08,0,.12-.07.21-.1s.13,0,.18,0l.11-.07c.18-.09.46-.11.57-.2s.05-.15.13-.2.39-.09.5-.23-.09-.16-.18-.27S43.48,35.41,43.4,35.37Zm7.84,4.33a.31.31,0,0,0-.29-.16h0A.32.32,0,0,0,51.25,39.7Zm-2-1c0-.05,0-.13-.12-.16s-.42.15-.33.24.16.07.21.14a.41.41,0,0,0,.29-.09S49.3,38.79,49.27,38.74Zm.4.82c0-.06-.16,0-.25-.06s-.16-.11-.27-.09l0,0A.59.59,0,0,0,49.67,39.56ZM37.87,34c-.34,0-.42.33-.64.44a.64.64,0,0,1-.39.05l-.12-.06-.18-.06c-.15-.09.2-.34,0-.45s-.35.14-.34.23.06.06.08.11-.19.27-.11.4a.31.31,0,0,0,.14.12c.1,0,.3-.06.4,0s-.09.2,0,.29.16.06.2.09,0,.1-.1.19,0,.13,0,.17-.12,0-.15.06,0,.07,0,.13-.24.07-.16.13.19,0,.25-.06,0-.08.1-.11.24-.06.31-.09.15-.25.32-.34.17,0,.21-.07,0-.15.07-.21c-.18-.07-.34-.19-.22-.28s.39,0,.25-.15a.31.31,0,0,0-.26,0s0,.12-.13.1,0-.09.06-.13,0-.07,0-.1S38,34.16,37.87,34Z"/><path class="cls-7" d="M71.69,32.68a.3.3,0,0,1,.1.3c0,.08-.15.29-.34.22a1,1,0,0,1-.23-.2c-.07-.1.08-.1.19-.15S71.55,32.69,71.69,32.68Z"/><path class="cls-7" d="M58.1,26l.4.12c0,.12-.2.21-.27.33s.06.13,0,.18-.13,0-.18.06,0,.23-.17.29c0,.08.26.14.17.21s-.2,0-.31,0a1.17,1.17,0,0,1-.31,0c-.07,0,0-.17-.05-.21s0-.17,0-.22.24-.13.29-.2-.08-.13-.07-.17.05-.05.07-.08,0-.21-.24-.27-.39,0-.41-.13a1.1,1.1,0,0,1,.7,0c.07,0,.1.08.17.11Z"/><path class="cls-7" d="M57.16,25.41s0,.05,0,.09,0,.11,0,.14-.21,0-.27.1.05.07.1.12a.6.6,0,0,1-.36,0c-.05,0,0-.08-.07-.12s-.19-.06-.33-.09,0,0,0,0,.39-.07.61-.16S57,25.35,57.16,25.41Z"/><path class="cls-7" d="M65.88,30.57c.08,0,0,.11-.11.09S65.8,30.55,65.88,30.57Z"/><path class="cls-7" d="M55.51,25.55c.13,0,.44-.09.39.05A.47.47,0,0,1,55.51,25.55Z"/><path class="cls-7" d="M64.5,30.95c0-.09,0-.22.26-.29.07.08-.06.16-.09.24s0,.17-.1.24H64.5C64.4,31.08,64.47,31,64.5,30.95Z"/><path class="cls-7" d="M62.6,30.17c.1-.06.16-.13.27-.15s-.29.24-.47.39,0,.06-.08.08a.11.11,0,0,1,0-.19C62.38,30.25,62.51,30.22,62.6,30.17Z"/><path class="cls-7" d="M63,30.27c.13.06,0,.17,0,.25s.37.09.55.1.17.08.16.12-.55,0-.73,0,.45.26.22.34-.15-.08-.27-.13-.2,0-.27,0-.06-.1-.09-.14-.23-.14-.14-.19.21,0,.24,0S62.79,30.34,63,30.27Z"/><path class="cls-7" d="M64,31.19c0,.06-.17.14-.25.12S63.88,31.15,64,31.19Z"/><path class="cls-7" d="M64,31.4a.1.1,0,0,1,0,0,.44.44,0,0,1-.26,0C63.74,31.41,63.94,31.36,64,31.4Z"/><path class="cls-7" d="M61.73,30.5a1.7,1.7,0,0,1,.24,0c.06,0-.07.12,0,.17s.07,0,.16.1,0,.13,0,.2.25.13.24.22-.07.1-.14.14-.26,0-.38.1-.07.08-.12.1-.1,0-.17,0-.13.07-.18.08a.67.67,0,0,1-.27-.07c-.08,0-.18,0-.3,0s-.47-.17-.35-.27.16-.05.19-.08-.06-.11,0-.18.09-.07.13-.12a.18.18,0,0,0,0-.15s-.06-.1,0-.15.06-.08.07-.13-.1-.19-.12-.3.28-.07.36,0,.2,0,.29,0,0,.21.23.31Z"/><path class="cls-7" d="M63.57,31.42c0,.06-.2.11-.18.18a.35.35,0,0,1-.27.07c0-.05.09-.08.14-.12S63.42,31.36,63.57,31.42Z"/><path class="cls-7" d="M63,31.75c0,.09-.16.12-.27.17l-.29.15c-.13.06-.31.09-.44.15s-.13.09-.2.12a1.44,1.44,0,0,1-.57.11c-.09,0,0-.14.16-.2s.42-.06.58-.2S62,32,62,32s.27-.08.38-.16.06,0,.11,0S62.8,31.72,63,31.75Z"/><path class="cls-7" d="M60.8,31.81c.22-.13.57.06.35.19S60.59,31.94,60.8,31.81Z"/><path class="cls-7" d="M60.44,32a.85.85,0,0,1,.3,0c.06,0,0,.09,0,.15s.29.14.29.22-.09.08-.15.11a6.2,6.2,0,0,1-.81,0,2.32,2.32,0,0,1-.3,0c-.13,0-.24-.06-.37-.08s-.25,0-.37,0-.18-.06-.28-.07a2.19,2.19,0,0,0-.26,0l-.17,0c-.24,0-.52.08-.72,0,0-.06.11,0,.21-.08s.11-.07.16-.09a3,3,0,0,1,.43,0l.26,0h.26l.31-.06a1.32,1.32,0,0,1,.56,0s.07.06.11.07a.87.87,0,0,0,.21,0c.09,0,.17,0,.24,0S60.37,32,60.44,32Z"/><path class="cls-7" d="M54.57,33.37c.1,0,.65,0,.75.13s0,.12-.09.17-.56-.15-.66-.27A0,0,0,0,1,54.57,33.37Z"/><path class="cls-7" d="M53.91,38.38l.15.05c.06,0,0,.1,0,.14a1.22,1.22,0,0,1,.38.38c.08.11.2.21.27.31s0,.07,0,.1.31.26.26.37a.77.77,0,0,1-.17.18.56.56,0,0,1-.4,0,1.84,1.84,0,0,1-.17-.08,1.32,1.32,0,0,1-.26-.09c-.16-.11-.08-.26-.22-.35s-.28-.09-.38-.16-.13-.14-.12-.19.13-.14.16-.21a.34.34,0,0,0,0-.21c0-.06-.08-.09-.08-.13s0-.06,0-.1-.07-.06-.07-.1S53.73,38.31,53.91,38.38Z"/><path class="cls-7" d="M38.59,32.08c-.12,0,.07-.13.13-.07S38.64,32.09,38.59,32.08Z"/><path class="cls-7" d="M42.87,35.64c-.07,0,.06-.15.16-.14S43,35.67,42.87,35.64Z"/><path class="cls-7" d="M39.48,37.14c0-.09.26-.19.38-.26S40,37,40,37A1,1,0,0,1,39.48,37.14Z"/><path class="cls-7" d="M38.39,37.26c0-.14.18-.18.38,0,0,.06,0,.18-.14.16A1.19,1.19,0,0,0,38.39,37.26Z"/><path class="cls-7" d="M38.28,37c.09,0,.09.07.07.11S38.09,37,38.28,37Z"/><path class="cls-7" d="M35.63,36.74c.09,0,0,.13.13.17s-.26.21-.43.34-.08.16-.24.18,0-.08,0-.12-.11,0-.17,0,0-.11-.09-.16.1-.1,0-.15a.32.32,0,0,0-.22,0l-.13,0c-.13,0-.26,0-.33,0s-.19-.08-.23-.13a.25.25,0,0,1,0-.21c0-.06.15-.09.13-.15l.05,0c.06,0,0,.06.06.09s.18-.07.27,0,0,.11.08.14a1.75,1.75,0,0,0,.38,0c.09,0,.19,0,.28,0l.18,0C35.45,36.76,35.56,36.71,35.63,36.74Z"/><path class="cls-7" d="M34.37,37.11c.08,0,0,.08.07.13s.15.08.17.12-.06.08-.09.12-.15.28-.38.25c-.07-.05,0-.1-.05-.15s-.13,0-.18,0,0-.06.06-.12,0-.09,0-.15A.4.4,0,0,1,34.37,37.11Z"/><path class="cls-7" d="M41.22,44.72c.34.17.21.37.28.57,0,0,.07.09.09.15s0,.19.22.31c.07,0,.16,0,.23.09a1.49,1.49,0,0,1,.25.17s0,.1.09.13.11,0,.15.07a.53.53,0,0,1,.1.16c.07.13.24.24.14.37s-.2.14-.27.22a1.37,1.37,0,0,0-.06.13c-.08.13-.19.31-.07.42s.31.11.44.21a.77.77,0,0,1,0,.14s.06.09.07.14,0,.13,0,.2l.1.07s0,0,0,.07l.07.07c0,.07.12.24.06.31s-.44.18-.54.26c.11,0,.16,0,.26,0l.19,0a.48.48,0,0,1,.19,0,.2.2,0,0,1,.13.22.65.65,0,0,1-.17.19c-.05,0-.21.14-.2.18s.24.1.27.16-.24.14-.29.21a.34.34,0,0,0,.24.05c.09,0,.12-.09.22-.07s0,.12.06.18.13,0,.18.08-.08.18,0,.24.44-.14.62,0,0,.12.09.19.08,0,.12.06,0,.1.07.13a1.3,1.3,0,0,0,.43,0,2.37,2.37,0,0,0,.43,0c.19,0,.35-.15.53-.11s0,.1,0,.16h0a.26.26,0,0,0-.13.08l-.12.07c-.17,0-.34.1-.53.16l-.25,0-.16,0c-.11,0-.33,0-.45,0s-.16,0-.22,0l-.2,0h-.23a1.73,1.73,0,0,1-.46-.07c-.07,0-.05-.1-.14-.13s-.2.06-.29,0-.08-.09-.15-.12-.16,0-.18-.05.09-.05.11-.1c-.16,0-.33-.19-.49-.13,0,.07.24.06.17.14s-.27-.06-.4-.1a2.06,2.06,0,0,1-.25-.08,1.27,1.27,0,0,0-.12-.07c-.14-.06-.36,0-.49-.09s-.07-.08-.13-.12l-.13-.07s-.07-.08-.12-.11a2,2,0,0,0-.36-.18c-.12,0-.29,0-.41-.1l-.15-.09-.18-.06a1.21,1.21,0,0,1-.14-.1c-.1-.07-.26-.12-.36-.18L39,49.49c-.09,0-.21-.08-.31-.13a4.45,4.45,0,0,0-.45-.24,2.8,2.8,0,0,0-.46-.15,2.75,2.75,0,0,0-.59,0l-.27.07a2.73,2.73,0,0,1-.83.08l-.18-.06c-.13,0-.28,0-.43,0s-.57-.09-.85-.12-.29,0-.42,0a1.28,1.28,0,0,1-.3,0,1.89,1.89,0,0,1-.33-.1c-.07-.05,0-.19-.06-.23s-.19,0-.26,0-.19-.13-.25-.23a.82.82,0,0,1-.07-.1s0-.09,0-.15-.05-.07-.07-.11,0-.17,0-.23a2.21,2.21,0,0,0-.5-.28c-.08,0-.19,0-.27,0s-.27-.09-.38,0,0,.11,0,.16.13.08.08.12-.24,0-.39.07l-.17.07c-.12,0-.27,0-.41,0s-.16.07-.27.06a1,1,0,0,1-.19-.09c-.15,0-.44,0-.6,0s-.21.09-.33.13l-.16,0A1.27,1.27,0,0,1,29,48c-.25.05-.63,0-.83.08s-.08.15-.16.2a2,2,0,0,1-.43.13l-.43.12c-.11,0-.22,0-.31,0l-.2.07-.31,0a.71.71,0,0,1-.31,0c-.07,0-.07-.11-.13-.15a1.46,1.46,0,0,0-.71-.14h-.48l-.12-.07-.37,0a1.73,1.73,0,0,1-.39,0c-.12,0-.15-.13-.28-.16s-.36.12-.12.22a2.71,2.71,0,0,0,.31,0c.08,0,.15.06.25.09s.22,0,.31,0,.29.12.4.14.27,0,.29.07-.18,0-.28,0a1,1,0,0,1-.29,0c-.06,0-.09-.09-.17-.11s-.4.09-.53,0,0-.11-.07-.15-.27,0-.37,0a2.18,2.18,0,0,1-.3-.13,2.49,2.49,0,0,0-.27-.13,1,1,0,0,0-.34,0c-.12,0-.16.07-.26.05a1.35,1.35,0,0,1-.29-.09c-.12-.05-.23-.12-.35-.18a2.31,2.31,0,0,1-.35-.19c0-.07,0-.14-.05-.22s-.1-.09-.13-.15a1.35,1.35,0,0,1,0-.36.83.83,0,0,0-.14-.36s-.09-.13-.15-.16-.32,0-.41,0,0-.09,0-.14a.67.67,0,0,0-.13-.1,2.28,2.28,0,0,1-.29-.13c-.06-.05,0-.14-.13-.15s-.11.12-.23.13-.1-.07-.19-.12l-.12,0s0-.11-.07-.11a1.82,1.82,0,0,0-.46,0,2.62,2.62,0,0,0-.49.23c-.13.05-.28,0-.37.09s0,.1-.06.17-.16.13-.23.19,0,.12-.13.16-.14,0-.23,0a1.32,1.32,0,0,0-.12.1,2.66,2.66,0,0,1-.51.3,3,3,0,0,1-.46.13c-.15,0-.4.11-.47.07s.07-.16.12-.22.09-.16.16-.21l.14-.06s.05-.08.1-.12.29-.17.16-.23-.4.31-.57.22,0-.15.09-.23a1.66,1.66,0,0,1,.28-.23c.1-.06.34-.07.27-.17s-.2-.07-.29-.1.11-.17.2-.24a1.08,1.08,0,0,0,.23-.24,1.05,1.05,0,0,1,.23-.24c.1-.08.17-.17.26-.24s.16-.1.23-.16.09-.12.18-.17.14,0,.21-.06l.17-.09.16,0c.07,0,.12-.09.19-.12l.21-.07c.15-.07.27-.17.42-.24l.19-.06.16-.09c.08,0,.2,0,.28-.07s.22-.2.34-.29a3,3,0,0,0,.29-.19,1.83,1.83,0,0,1,.21-.2l.14-.07s0-.09.09-.12.15,0,.23,0,.15-.09.23-.14.11-.11.21-.16.55-.12.59-.24,0,0-.06-.09-.06-.16-.18-.21c-.17.1-.24.25-.43.37s-.16-.15-.07-.27.05-.21.18-.31a2.55,2.55,0,0,1,.43-.21c.09,0,.16-.1.22-.12s.24,0,.33,0l.14-.06c.09,0,.2-.05.22-.13s.14,0,.22,0,0-.12.05-.19.08,0,.12-.07.05-.16.19-.13,0,.11,0,.17a.21.21,0,0,0,.09.17c.09,0,.18-.05.3,0s-.05.07-.08.12,0,.09,0,.13a3.33,3.33,0,0,1-.45.23c.05,0,.16,0,.22,0a1.13,1.13,0,0,0,.44-.21c.09-.05.22-.1.24-.17s-.06-.09-.07-.13a.24.24,0,0,1,.14-.19.3.3,0,0,1,.18,0c.08,0-.05.1,0,.15s.21-.19.15-.23-.15,0-.2,0,0-.13-.08-.17-.11.08-.18.11a.86.86,0,0,1-.38,0s.1-.08.16-.11.05-.18.2-.28.1-.1.19-.08,0,.15.14.18,0-.16.05-.26a.62.62,0,0,1,.09-.14s0-.11.08-.13.1,0,.16,0,.08-.07.15,0-.39.32-.3.48.18.17.33.17.17-.08.26-.06,0,.11.11.14.14-.15.18-.22.1-.18,0-.25-.23.12-.35.08a.24.24,0,0,1-.12-.14.7.7,0,0,1,.39-.5l.16-.06c.16-.08.25-.23.43-.26s.21-.12.32-.21.26.06.47,0c.06,0,.1-.05.16-.08s.14,0,.21,0,.14-.06.2,0,0,.07.08.09.09,0,.15.05.2,0,.34-.07a.76.76,0,0,1,.37,0s0,.14,0,.18-.08.15-.14.18-.29,0-.4,0-.06.07,0,.11.25,0,.35,0,.07.11,0,.21a1.38,1.38,0,0,0-.3.09c0,.07.18,0,.22.07a1.2,1.2,0,0,1-.44.18,1.23,1.23,0,0,1-.15.06,1.82,1.82,0,0,1-.26,0,.8.8,0,0,0-.34.06c-.1.06-.12.23-.33.21s.28-.23.38-.38,0-.11,0-.16.21-.22.07-.28-.16,0-.24,0-.32,0-.43,0,0,.07-.09.11-.28.11-.33.2.06,0,.07.1,0,.09,0,.13.09.08.08.12-.14.17-.2.24,0,.09-.06.11-.2,0-.24.07.23,0,.34,0a.87.87,0,0,1,.35,0c.08.13-.19.1-.3.17s-.06.31-.35.27c-.08-.07,0-.15-.06-.22-.1.08-.1.21-.2.31s-.11.08-.14.12-.06.16-.13.25-.08.06-.11.1a1.47,1.47,0,0,0-.17.29,1.06,1.06,0,0,0-.11.28s0,.16.06.18.17,0,.23,0,0,.09.13.09.11-.06.2-.1a2.08,2.08,0,0,1,.5-.09,1.78,1.78,0,0,0,.38-.11c.13-.06.21-.17.32-.12s0,.14.07.17.09.1.16.14a.43.43,0,0,0,.3,0,.18.18,0,0,0,.07-.25c-.06-.08-.23-.15-.23-.24.41-.23.54-.55.09-.76a.92.92,0,0,1-.16-.07c-.06,0,0-.15-.1-.18.07-.09-.12-.19,0-.27s.28-.08.39-.17.05-.08.1-.1a1.3,1.3,0,0,1,.36,0c.1,0,.14-.05.22,0s0,.11.12.15a.43.43,0,0,0,.28,0,.36.36,0,0,0,.16-.16c.06-.1,0-.25.1-.3a1.18,1.18,0,0,1,.5.11c.11,0,.16.1.25.15s.33,0,.49-.05.12,0,.17,0,.16,0,.23,0,0,.17.22.26,0,.1,0,.14.23-.1.4-.08.1.06.16.12.28.08.16.15-.17,0-.26,0l-.16.08-.16.07c-.12.06-.2.14-.32.15a1.36,1.36,0,0,1,0-.44s.06-.11,0-.14-.16.1-.18.16a.5.5,0,0,1-.12.21c-.12.1-.37.17-.4.29s.17-.06.25,0a.27.27,0,0,1-.18.08c-.08,0-.11,0-.16,0a.82.82,0,0,0-.32.15c-.07.06-.1.14,0,.19s.23-.2.4-.15,0,.21.14.28a.46.46,0,0,0,.26,0c.06,0,0-.07.08-.09s.1,0,.15,0,0-.16.07-.22c.25,0,.11.18,0,.28s-.23.23-.29.32,0,.28-.22.21,0-.11-.05-.17-.19.19-.27.28-.35.34-.19.47.13.05.13.08-.12.1-.15.14-.06.14-.1.18l-.1.08c0,.06,0,.12,0,.21s-.06.09-.06.12.11.12.05.18-.13,0-.14.08.31.12.37.22a1.26,1.26,0,0,1-.12.33c0,.07-.08.11-.12.19s0,.13,0,.2-.14.34.12.48l.21.08.12.06c.1,0,.29.07.28.15a2.12,2.12,0,0,1-.49.12c-.11,0-.12-.11-.21-.15a.67.67,0,0,0-.33,0c-.06,0-.05.09-.11.12s-.22,0-.31.06-.18.14-.33.21,0,.21-.14.3-.15,0-.23.07a1.69,1.69,0,0,0-.28.13c-.13.09-.13.22-.19.33s-.13.23,0,.32.16.09.2.14a.63.63,0,0,1,0,.1.92.92,0,0,0,.58.44,3.44,3.44,0,0,0,.45.08,1,1,0,0,0,.37-.08,1,1,0,0,0,.15-.14,2,2,0,0,0,.18-.15c.12-.14-.17-.27-.08-.43a.86.86,0,0,1,.26-.22.39.39,0,0,1,.23.06s0,.08.08.12.1.08.13.12,0,.11.06.15.08,0,.1.07,0,.11.1.12c.26-.07.38-.25.57-.33a.6.6,0,0,1,.41,0c.08,0,.07.11.15.16s.19.17.28.22a1.11,1.11,0,0,0,.76,0c.16-.1.09-.25.37-.32.09,0,.27,0,.34,0s0-.15,0-.22-.12-.12-.08-.2.14-.11.21-.21a.38.38,0,0,0,.06-.14s0-.11.08-.11,0,.11.16.12.06-.17.14-.23a1.32,1.32,0,0,1,.26-.05,1.19,1.19,0,0,0,.29,0c.06,0,.1-.08.18-.12s.23,0,.29-.07,0-.12.08-.17a.44.44,0,0,1,.39-.1c.09,0,0-.1.09-.12s.13.05.22.07l.12,0c.08,0,.16,0,.26-.06a2.54,2.54,0,0,1,.37,0,1.17,1.17,0,0,0,.48-.08c.1-.05.14-.12.23-.16a1.75,1.75,0,0,1,.62-.13,1,1,0,0,1,.31,0l.19.07c.15,0,.36,0,.49.11a.78.78,0,0,0,.26,0,1.27,1.27,0,0,0,.25,0s.06,0,.09-.07a1.5,1.5,0,0,1,.33-.1,2,2,0,0,1,.21-.06c.07,0,.18,0,.26,0s.1-.07.17-.1.28-.09.37-.14.07-.07.12-.09c.22-.12.6,0,.88-.12.09,0,.17-.09.23-.11A1.24,1.24,0,0,1,41.22,44.72Zm-14.36-5.1s.06,0,0-.07S26.78,39.62,26.86,39.62ZM25,39.73s-.05,0-.05,0l0,0S25,39.75,25,39.73Zm2.59,3.48a.58.58,0,0,0-.25.13s-.1.08-.06.11S27.69,43.3,27.6,43.21ZM27,43.4c0-.07-.13-.11-.22-.08s0,.05-.09.08-.15,0-.19.05-.11.1-.1.13.1,0,.15,0,.23.17.32.13-.1-.2,0-.29S27,43.44,27,43.4Zm5.82,3.22c.06,0-.13-.12-.17-.05S32.78,46.66,32.83,46.62Zm-5.58-3c-.17,0-.2.16-.29.22s-.18.09-.07.14.17,0,.21-.1A.5.5,0,0,0,27.25,43.67Zm-1-.15c.09-.14-.34-.15-.44-.11s-.23.26-.34.38-.15.12-.09.18c.22,0,.21-.16.35-.22s.19,0,.26,0A2,2,0,0,0,26.2,43.52Zm0,.15c-.08,0-.22.14-.24.19S26,44,26,44s0,.1,0,.15.1.29.26.22.06-.17,0-.2-.17-.22-.13-.33S26.31,43.73,26.22,43.67Zm-3.74-1.61s0-.07,0-.08a2.35,2.35,0,0,0-.42.22c-.19,0-.34.05-.17.16S22.19,42.09,22.48,42.06Zm1.69,1.7c.09-.06-.14-.26-.26-.14S24,43.85,24.17,43.76Zm6.21,3.95,0,0C30.25,47.65,30.29,47.76,30.38,47.71Zm-8.5-4.23s.11-.07.06-.11a.58.58,0,0,0-.21,0c-.06,0,0,.09-.06.14s-.12.13-.06.17A.6.6,0,0,0,21.88,43.48Zm-.68-.33s.13-.06.11-.11c-.24-.08-.37.14-.51.24,0,0,0,.1.09.15S21.09,43.25,21.2,43.16Zm-.32,3.2s-.15-.06-.17,0A.16.16,0,0,0,20.88,46.35Zm-1.53-.57h0s-.06,0,0,0S19.36,45.81,19.35,45.79Z"/><path class="cls-7" d="M26.26,39.71c.1,0,0,.24-.17.19S26.09,39.69,26.26,39.71Z"/><path class="cls-7" d="M46,50.91,45.9,51A.26.26,0,0,1,46,50.91Z"/><path class="cls-7" d="M25,39.76s0,0,.05,0,0,0,0,.05Z"/><path class="cls-7" d="M25.62,41c.05,0,0,.17-.15.13s0,0,0-.06A.19.19,0,0,1,25.62,41Z"/><path class="cls-7" d="M30.36,47.68l0,0C30.29,47.76,30.25,47.65,30.36,47.68Z"/><path class="cls-7" d="M20.7,46.35c0-.06.17,0,.17,0A.16.16,0,0,1,20.7,46.35Z"/><path class="cls-7" d="M19.31,45.77h0s0,0-.07,0S19.28,45.79,19.31,45.77Z"/><path class="cls-7" d="M19.58,46.22s0,.09,0,.13h-.09C19.4,46.3,19.45,46.2,19.58,46.22Z"/><path class="cls-8" d="M58.15,17.38a1.69,1.69,0,0,0-.65-.21,2.87,2.87,0,0,0-1.74.45,5.53,5.53,0,0,0-1.07.82,8,8,0,0,0-1.9,2.93h0a6.12,6.12,0,0,0-.41,2.09c0,1.42,1.46,3.79,2.47,5.25.5.73.89,1.23.91,1.27h0s3.38-8.26,3.38-10.42A2.37,2.37,0,0,0,58.15,17.38Zm-2.39,6c-.81.47-1.49.26-1.74-.44a1.87,1.87,0,0,1-.09-.62,4,4,0,0,1,1.83-3.17,1.82,1.82,0,0,1,.58-.23c.73-.14,1.25.35,1.25,1.28A4,4,0,0,1,55.76,23.38Z"/><path class="cls-9" d="M57.59,20.21a4,4,0,0,1-1.83,3.17c-.81.47-1.49.26-1.74-.44a1.83,1.83,0,0,0,.58-.23,4,4,0,0,0,1.83-3.17,1.87,1.87,0,0,0-.09-.62C57.07,18.78,57.59,19.27,57.59,20.21Z"/><path class="cls-10" d="M58.15,17.38a1.69,1.69,0,0,0-.65-.21,2.87,2.87,0,0,0-1.74.45,5.53,5.53,0,0,0-1.07.82,8,8,0,0,0-1.9,2.93h0a6.12,6.12,0,0,0-.41,2.09c0,1.42,1.46,3.79,2.47,5.25.5.73.89,1.23.91,1.27l-1.15-.67S51.23,25,51.23,22.8A7.46,7.46,0,0,1,54.61,17,2.37,2.37,0,0,1,57,16.72Z"/><path class="cls-11" d="M35.39,42.22c-.56,0-.91,0-.92,0l0-.41s.4,0,1,0v.42Z"/><path class="cls-11" d="M37.15,42.13l0-.41a14.63,14.63,0,0,0,2-.32l.1.41A15.13,15.13,0,0,1,37.15,42.13Zm3.59-.83-.16-.39a7,7,0,0,0,1.7-1l.26.33A7.37,7.37,0,0,1,40.74,41.3Zm2.94-2.25-.35-.23A4.69,4.69,0,0,0,44,37l.41.07A5.11,5.11,0,0,1,43.68,39.06Zm.91-3.55-.41-.05a6.25,6.25,0,0,1,.58-2l.37.18A5.84,5.84,0,0,0,44.59,35.5ZM46,32.36l-.31-.27a7.66,7.66,0,0,1,1.57-1.34l.23.35A7.27,7.27,0,0,0,46,32.36Zm2.88-2L48.7,30a13.65,13.65,0,0,1,1.93-.68l.11.4A13.21,13.21,0,0,0,48.87,30.34Z"/><path class="cls-11" d="M52.32,29.33l-.07-.41c.64-.1,1-.13,1.05-.13l0,.42S52.93,29.23,52.32,29.33Z"/><polygon class="cls-12" points="30.27 40.93 23.98 37.3 30.27 33.66 36.56 37.3 30.27 40.93"/><polygon class="cls-13" points="33.1 39.3 26.8 35.66 27.45 35.29 33.74 38.93 33.1 39.3"/><polygon class="cls-14" points="33.4 39.12 27.11 35.49 27.14 35.47 33.44 39.1 33.4 39.12"/><polygon class="cls-15" points="30.27 48.2 23.98 44.56 23.98 37.3 30.27 40.93 30.27 48.2"/><polygon class="cls-16" points="36.56 44.56 30.27 48.2 30.27 40.93 36.56 37.3 36.56 44.56"/><polygon class="cls-13" points="33.74 38.93 33.74 46.19 33.1 46.57 33.1 39.3 33.74 38.93"/><polygon class="cls-14" points="33.44 39.1 33.44 46.37 33.4 46.39 33.4 39.12 33.44 39.1"/><polygon class="cls-17" points="25.6 44.7 24.79 44.23 24.79 44.11 25.6 44.57 25.6 44.7"/><polygon class="cls-17" points="25.07 44.27 25 44.23 25 43.6 25.07 43.63 25.07 44.27"/><polygon class="cls-17" points="25.44 44.48 25.38 44.45 25.38 43.81 25.44 43.85 25.44 44.48"/><polygon class="cls-17" points="25.04 43.28 25.11 43.66 24.96 43.57 25.04 43.28 25.04 43.28"/><polygon class="cls-17" points="25.33 43.79 25.41 43.49 25.49 43.88 25.33 43.79"/><polygon class="cls-17" points="29.25 46.7 29.29 46.72 29.29 45.64 29.25 45.62 29.25 46.7"/><polygon class="cls-17" points="29.07 46.6 29.19 46.67 29.19 45.59 29.07 45.52 29.07 46.6"/><polygon class="cls-17" points="28.96 46.54 29.04 46.59 29.04 45.5 28.96 45.46 28.96 46.54"/><polygon class="cls-17" points="28.81 46.45 28.93 46.52 28.93 45.44 28.81 45.37 28.81 46.45"/><polygon class="cls-17" points="28.68 46.38 28.8 46.45 28.8 45.36 28.68 45.29 28.68 46.38"/><polygon class="cls-17" points="28.56 46.31 28.66 46.36 28.66 45.28 28.56 45.22 28.56 46.31"/><polygon class="cls-17" points="28.44 46.24 28.52 46.28 28.52 45.2 28.44 45.15 28.44 46.24"/><polygon class="cls-17" points="28.33 46.17 28.37 46.2 28.37 45.11 28.33 45.09 28.33 46.17"/><polygon class="cls-17" points="28.18 46.09 28.26 46.13 28.26 45.05 28.18 45 28.18 46.09"/><polygon class="cls-17" points="28.07 46.02 28.11 46.05 28.11 44.96 28.07 44.94 28.07 46.02"/><polygon class="cls-17" points="27.91 45.93 28.01 45.99 28.01 44.9 27.91 44.85 27.91 45.93"/><polygon class="cls-17" points="27.81 45.87 27.85 45.9 27.85 44.81 27.81 44.79 27.81 45.87"/><path class="cls-17" d="M35.06,44.14l.18,0,.16-.42a.3.3,0,0,1,.05-.08l-.23.14a.2.2,0,0,0-.05.09Z"/><path class="cls-17" d="M35.38,43.86l0,.07h0l0,.06.19-.11.09-.24,0,.05h0l0-.06,0,0h0a.11.11,0,0,0-.07.05l0,.05Z"/><path class="cls-17" d="M35.53,44.06l.11.15.1-.06,0,0a.15.15,0,0,0,0-.11.09.09,0,0,0,0,0l-.09-.12Z"/><path class="cls-17" d="M35.41,44.49l.1.15v-.08h0l.12-.07,0,0,0,0,.1-.27-.06,0-.22.12h0v-.06Z"/><path class="cls-17" d="M35.12,44.54l-.05.13a.18.18,0,0,0,0,.07s0,0,0,0,.06,0,.06,0l.19-.11v-.24Z"/><path class="cls-17" d="M34.91,44.36H35l0,.12c0,.08,0,.1,0,.1l.12.16a.19.19,0,0,1,0-.1l.11-.27h.06l-.1-.14Z"/><polygon class="cls-18" points="26.6 41.31 24.61 40.16 24.61 38.96 26.6 40.11 26.6 41.31"/><polygon class="cls-19" points="26.5 40.38 24.71 39.35 24.71 39.17 26.5 40.21 26.5 40.38"/><polygon class="cls-19" points="26.5 40.74 24.71 39.71 24.71 39.53 26.5 40.56 26.5 40.74"/><polygon class="cls-19" points="25.85 40.73 24.71 40.07 24.71 39.89 25.85 40.55 25.85 40.73"/><path class="cls-11" d="M49.22,47.46l-1.85-1.07-.66.38-.38-.22,1.77-1,.38.22-.66.38,1.85,1.07Z"/><path class="cls-11" d="M50.62,46.65l-2.23-1.29.95-.55a2.54,2.54,0,0,1,.58-.26,1.22,1.22,0,0,1,.47,0,1.2,1.2,0,0,1,.45.15.45.45,0,0,1,.27.32c0,.12-.07.24-.23.37a2.47,2.47,0,0,1,.43,0,6,6,0,0,1,.62.06l.71.09-.54.31-.81-.09-.56-.05a.8.8,0,0,0-.23,0,1.16,1.16,0,0,0-.25.12l-.09.05.93.54Zm-.84-1,.33-.19a2.05,2.05,0,0,0,.38-.25.13.13,0,0,0,0-.13A.25.25,0,0,0,50.4,45a.52.52,0,0,0-.24-.07.6.6,0,0,0-.26,0l-.34.18-.35.2Z"/><path class="cls-11" d="M54.87,44.2l-.49.28-.7-.18-.89.51.32.4-.48.28L51.28,43.7l.48-.27Zm-1.71,0L52,43.87l.53.65Z"/><path class="cls-11" d="M55.72,42.76l.57-.17a.55.55,0,0,1,.21.5.78.78,0,0,1-.41.44,2,2,0,0,1-1,.25,2.28,2.28,0,0,1-1.11-.31q-.56-.32-.58-.66t.45-.61a1.84,1.84,0,0,1,.9-.24,2,2,0,0,1,.64.11l-.34.32a1.07,1.07,0,0,0-.44-.06.92.92,0,0,0-.4.12q-.25.14-.22.33t.42.42a1.72,1.72,0,0,0,.75.26,1,1,0,0,0,.57-.12.33.33,0,0,0,.19-.24A.4.4,0,0,0,55.72,42.76Z"/><path class="cls-11" d="M57.36,42.76l-2.23-1.29.45-.26,1,.57-.08-1.09.6-.35,0,1,2.24.27-.58.34-1.66-.25v.43l.67.39Z"/><path class="cls-11" d="M59.59,41.47l-2.23-1.29.45-.26L60,41.22Z"/><path class="cls-11" d="M60.47,41l-2.23-1.29.44-.25,2.4.33-1.49-.86.42-.24,2.23,1.29-.45.26-2.35-.32,1.45.84Z"/><path class="cls-11" d="M62.93,38.6l-.38-.22,1-.56.89.51a.69.69,0,0,1-.17.38,1.46,1.46,0,0,1-.44.37,2.19,2.19,0,0,1-.76.27,2.24,2.24,0,0,1-.81,0,2.38,2.38,0,0,1-.72-.27,1.17,1.17,0,0,1-.47-.44.48.48,0,0,1,0-.49,1.09,1.09,0,0,1,.42-.37,2,2,0,0,1,.82-.27,1.79,1.79,0,0,1,.78.1l-.36.31a1.1,1.1,0,0,0-.44,0,1,1,0,0,0-.42.13q-.29.17-.28.38t.38.42a1.66,1.66,0,0,0,.77.24,1.21,1.21,0,0,0,.66-.15.75.75,0,0,0,.23-.2.57.57,0,0,0,.11-.22l-.28-.16Z"/><path class="cls-20" d="M44,15l-4,.48L21.79,26c-.73.42-1.32.07-1.32-.76v-11A2.93,2.93,0,0,1,21.79,12L41.6.54c.73-.42,1.32-.07,1.32.76,0,12,0,11,0,11.13Z"/><path class="cls-21" d="M42.53.45a.68.68,0,0,0-.36-.09,1.2,1.2,0,0,0-.57.18L21.79,12a2.93,2.93,0,0,0-1.32,2.28v11a1.2,1.2,0,0,0,.13.58.69.69,0,0,0,.26.27l-.62-.36a.92.92,0,0,1-.39-.85v-11a2.93,2.93,0,0,1,1.32-2.28L41,.18a.93.93,0,0,1,.93-.09Z"/><polygon class="cls-19" points="35.19 9.07 22.34 16.49 22.34 15.21 35.19 7.79 35.19 9.07"/><polygon class="cls-19" points="35.19 11.63 22.34 19.05 22.34 17.77 35.19 10.35 35.19 11.63"/><polygon class="cls-19" points="30.58 16.86 22.34 21.62 22.34 20.34 30.58 15.58 30.58 16.86"/></g></g></svg>