<svg xmlns="http://www.w3.org/2000/svg" viewBox="0 0 375 268.73"><defs><style>.cls-1{fill:#fffaea;}.cls-18,.cls-2,.cls-43,.cls-46,.cls-7{fill:#693119;}.cls-3,.cls-4,.cls-47,.cls-49,.cls-5,.cls-6{fill:none;stroke-linecap:round;}.cls-3,.cls-4,.cls-5,.cls-6{stroke:#693119;}.cls-3,.cls-4,.cls-47,.cls-49,.cls-5{stroke-miterlimit:10;}.cls-3{stroke-width:0.86px;}.cls-4{stroke-width:0.64px;}.cls-5{stroke-width:0.43px;}.cls-6{stroke-linejoin:round;stroke-width:1.08px;}.cls-7{font-size:11.2px;}.cls-11,.cls-19,.cls-25,.cls-43,.cls-46,.cls-7{font-family:Cambo-Regular, Cambo Regular;}.cls-8{letter-spacing:0.01em;}.cls-9{letter-spacing:0em;}.cls-10{letter-spacing:-0.08em;}.cls-11{font-size:7.76px;letter-spacing:0.03em;}.cls-11,.cls-19,.cls-48{fill:#d2a01f;}.cls-12{letter-spacing:0.03em;}.cls-13{letter-spacing:0.03em;}.cls-14{letter-spacing:-0.05em;}.cls-15{letter-spacing:-0.02em;}.cls-16{letter-spacing:0em;}.cls-17{fill:#9d9fa2;}.cls-18{font-size:25.85px;font-family:GreatVibes-Regular, Great Vibes;}.cls-19,.cls-43,.cls-46{font-size:6.03px;}.cls-19{letter-spacing:0.03em;}.cls-20{letter-spacing:0em;}.cls-21{letter-spacing:-0.06em;}.cls-22,.cls-46{letter-spacing:0.02em;}.cls-23{letter-spacing:0.02em;}.cls-24{letter-spacing:0.02em;}.cls-25{font-size:5.09px;fill:#919191;}.cls-26{letter-spacing:-0.01em;}.cls-27{letter-spacing:0em;}.cls-28{letter-spacing:-0.01em;}.cls-29{letter-spacing:0em;}.cls-30{letter-spacing:-0.01em;}.cls-31{letter-spacing:0.01em;}.cls-32{letter-spacing:-0.01em;}.cls-33{letter-spacing:0em;}.cls-34{letter-spacing:-0.01em;}.cls-35{letter-spacing:0em;}.cls-36{letter-spacing:0em;}.cls-37{letter-spacing:-0.01em;}.cls-38{letter-spacing:0em;}.cls-39{letter-spacing:0em;}.cls-40{letter-spacing:0em;}.cls-41{letter-spacing:0em;}.cls-42{letter-spacing:-0.01em;}.cls-43{letter-spacing:0.01em;}.cls-44{letter-spacing:-0.05em;}.cls-45{letter-spacing:0.03em;}.cls-47,.cls-49{stroke:#d2a01f;}.cls-47{stroke-width:0.93px;}.cls-49{stroke-width:0.69px;}</style></defs><title>diplom</title><g id="Слой_2" data-name="Слой 2"><g id="OBJECTS"><rect id="_Контур_" data-name="&lt;Контур&gt;" class="cls-1" width="375" height="268.73"/><rect id="_Контур_2" data-name="&lt;Контур&gt;" class="cls-1" x="6.11" y="6.11" width="362.78" height="256.51"/><circle class="cls-2" cx="11.36" cy="21.05" r="0.69" transform="translate(-10.66 30.39) rotate(-84.61)"/><path class="cls-3" d="M9.82,37.56a1.12,1.12,0,0,1,0,1.58,1.4,1.4,0,0,1-2,0,1.75,1.75,0,0,1,0-2.47,2.61,2.61,0,0,1,2.1-.57c1.52.08,3.62.37,4-2.22"/><path class="cls-2" d="M19.87,25.53a1.5,1.5,0,0,1,1.91.7,1.74,1.74,0,0,1-.28,1.95,2,2,0,0,1-1.84.53,2,2,0,0,1-1.44-1.2,2.44,2.44,0,0,1,1.22-3.14,2.93,2.93,0,0,1,3.3.62.2.2,0,0,1,0,.28.2.2,0,0,1-.28,0,2.48,2.48,0,0,0-2.8-.45,1.89,1.89,0,0,0-.88,2.45,1.42,1.42,0,0,0,1,.8A1.28,1.28,0,0,0,21,27.71a1,1,0,0,0,.13-1.13.72.72,0,0,0-.92-.31.4.4,0,0,1-.35-.72h0Z"/><path class="cls-3" d="M11.3,21.32a1.12,1.12,0,0,1-1-1.22,1.4,1.4,0,0,1,1.52-1.26,1.75,1.75,0,0,1,1.58,1.9,2.61,2.61,0,0,1-1.26,1.78c-1.22.91-3,2-1.7,4.29"/><path class="cls-4" d="M16.52,18.93a.84.84,0,0,1,.8-.87,1,1,0,0,1,1.09,1,1.31,1.31,0,0,1-1.24,1.36,2,2,0,0,1-1.44-.74c-.8-.81-1.81-2-3.35-.81"/><path class="cls-2" d="M13.69,30.15a1.51,1.51,0,0,0,.11-2,2.14,2.14,0,0,0-2.31-.62,2.69,2.69,0,0,0-1.63,2,3,3,0,0,0,.78,2.62,3.91,3.91,0,0,0,2.68,1.19,4,4,0,0,0,2.8-1A5.22,5.22,0,0,0,17.4,26.5a.42.42,0,0,1,.76-.34h0a6.16,6.16,0,0,1-1.34,6.93,5.07,5.07,0,0,1-3.53,1.4A5.13,5.13,0,0,1,9.74,33,4.3,4.3,0,0,1,8.5,29.29,4.09,4.09,0,0,1,11,26.11a3.67,3.67,0,0,1,4,1,3.15,3.15,0,0,1-.12,4.27l0,0a.84.84,0,1,1-1.18-1.21Z"/><path class="cls-2" d="M16.16,23.7a1,1,0,0,0-1.41-.08,1.48,1.48,0,0,0-.43,1.6,1.85,1.85,0,0,0,1.4,1.13,2.06,2.06,0,0,0,1.81-.54A2.74,2.74,0,0,0,17.66,22a3.6,3.6,0,0,0-4-.89.29.29,0,0,1-.24-.53h0a4.25,4.25,0,0,1,4.78.93,3.5,3.5,0,0,1,1,2.44,3.54,3.54,0,0,1-1,2.45,3,3,0,0,1-2.59.85,2.82,2.82,0,0,1-2.2-1.71A2.53,2.53,0,0,1,14,22.8a2.17,2.17,0,0,1,2.94.08l0,0a.58.58,0,0,1-.83.82Z"/><circle class="cls-2" cx="13.81" cy="30.47" r="1.37" transform="translate(-17.5 18.69) rotate(-45)"/><circle class="cls-2" cx="16.38" cy="23.61" r="0.94" transform="translate(-11.9 18.5) rotate(-45)"/><circle class="cls-2" cx="20.07" cy="26.16" r="0.65" transform="translate(-8.72 10.09) rotate(-23.34)"/><circle class="cls-2" cx="22.86" cy="25.4" r="0.65" transform="translate(-8.19 11.14) rotate(-23.34)"/><circle class="cls-2" cx="9.62" cy="37.73" r="0.69" transform="translate(-23.86 17.85) rotate(-45)"/><circle class="cls-2" cx="16.72" cy="18.94" r="0.52" transform="translate(-0.86 0.79) rotate(-2.65)"/><path class="cls-3" d="M37.56,9.82a1.12,1.12,0,0,0,1.58,0,1.4,1.4,0,0,0,0-2,1.75,1.75,0,0,0-2.47,0,2.61,2.61,0,0,0-.57,2.1c.08,1.52.36,3.62-2.22,4"/><path class="cls-2" d="M26.27,20.19a.72.72,0,0,0,.31.92A1,1,0,0,0,27.71,21a1.28,1.28,0,0,0,.37-1.18,1.42,1.42,0,0,0-.8-1,1.89,1.89,0,0,0-2.45.88,2.48,2.48,0,0,0,.45,2.8.2.2,0,0,1,0,.28.2.2,0,0,1-.28,0,2.93,2.93,0,0,1-.62-3.3,2.44,2.44,0,0,1,3.14-1.22,2,2,0,0,1,1.2,1.44,2,2,0,0,1-.53,1.84,1.74,1.74,0,0,1-1.95.28,1.5,1.5,0,0,1-.7-1.91v0a.4.4,0,1,1,.73.32Z"/><path class="cls-3" d="M21.32,11.3a1.12,1.12,0,0,0-1.22-1,1.4,1.4,0,0,0-1.26,1.52,1.75,1.75,0,0,0,1.9,1.58,2.61,2.61,0,0,0,1.78-1.26c.91-1.22,2-3,4.29-1.7"/><path class="cls-4" d="M18.93,16.52a.84.84,0,0,0-.87.8,1,1,0,0,0,1,1.09,1.31,1.31,0,0,0,1.36-1.24,2,2,0,0,0-.74-1.45c-.81-.8-2-1.81-.81-3.35"/><path class="cls-2" d="M31.34,14.88a3.15,3.15,0,0,1-4.27.12,3.67,3.67,0,0,1-1-4A4.09,4.09,0,0,1,29.29,8.5,4.3,4.3,0,0,1,33,9.74a5.13,5.13,0,0,1,1.46,3.55,5.07,5.07,0,0,1-1.4,3.53,6.16,6.16,0,0,1-6.93,1.34h0a.42.42,0,0,1,.34-.76,5.22,5.22,0,0,0,5.83-1.29,4,4,0,0,0,1-2.8,3.91,3.91,0,0,0-1.19-2.68,3,3,0,0,0-2.62-.78,2.69,2.69,0,0,0-2,1.63,2.14,2.14,0,0,0,.62,2.31,1.51,1.51,0,0,0,2-.11.84.84,0,1,1,1.25,1.14l0,0Z"/><path class="cls-2" d="M22.88,17A2.17,2.17,0,0,1,22.8,14a2.53,2.53,0,0,1,2.77-.67,2.82,2.82,0,0,1,1.71,2.2,3,3,0,0,1-.85,2.59,3.54,3.54,0,0,1-2.45,1,3.5,3.5,0,0,1-2.44-1,4.25,4.25,0,0,1-.93-4.78h0a.29.29,0,0,1,.53.24,3.6,3.6,0,0,0,.89,4,2.74,2.74,0,0,0,3.78-.12,2.06,2.06,0,0,0,.54-1.81,1.85,1.85,0,0,0-1.13-1.4,1.48,1.48,0,0,0-1.6.43,1,1,0,0,0,.08,1.41.58.58,0,1,1-.78.86h0Z"/><circle class="cls-2" cx="30.47" cy="13.81" r="1.37" transform="translate(-0.84 25.59) rotate(-45)"/><circle class="cls-2" cx="23.61" cy="16.38" r="0.94" transform="translate(-4.67 21.49) rotate(-45)"/><circle class="cls-2" cx="26.16" cy="20.07" r="0.65" transform="translate(-2.63 36.13) rotate(-66.66)"/><circle class="cls-2" cx="25.4" cy="22.86" r="0.65" transform="translate(-5.66 37.12) rotate(-66.65)"/><circle class="cls-2" cx="37.73" cy="9.62" r="0.69" transform="translate(4.25 29.49) rotate(-45)"/><circle class="cls-2" cx="18.94" cy="16.72" r="0.52" transform="translate(1.37 34.87) rotate(-87.35)"/><path class="cls-2" d="M19.25,19.25a6.32,6.32,0,0,1,5.46,5.46,6.32,6.32,0,0,1-5.46-5.46Z"/><path class="cls-2" d="M11.95,10.48a2.2,2.2,0,0,1-1.79-.32,2.2,2.2,0,0,1,.32,1.79,1,1,0,0,0,1.31,1.22,3,3,0,0,1,2,.62,3,3,0,0,1-.62-2A1,1,0,0,0,11.95,10.48Z"/><path class="cls-2" d="M14.15,14.58s-2.31-1.67-3.81.17.54,3.85,2.3,2.1c0,0-1.55.19-1.54-.8S12.17,14.45,14.15,14.58Z"/><path class="cls-2" d="M16.75,16.85s-2.89-2-3.26-.76S16.75,16.85,16.75,16.85Z"/><path class="cls-2" d="M14.58,14.15s-1.67-2.31.17-3.81,3.85.54,2.1,2.3c0,0,.19-1.55-.8-1.54S14.44,12.17,14.58,14.15Z"/><path class="cls-2" d="M16.85,16.75s-2-2.89-.76-3.26S16.85,16.75,16.85,16.75Z"/><circle class="cls-2" cx="14.87" cy="14.87" r="0.57" transform="translate(-6.16 14.87) rotate(-45)"/><path class="cls-5" d="M8.45,43a1.12,1.12,0,0,1-1.12-1.12,1.4,1.4,0,0,1,1.4-1.4,1.75,1.75,0,0,1,1.75,1.75,2.65,2.65,0,0,1-1.08,1.89c-.7.65-.92,2.27-.92,4.65v4.57"/><circle class="cls-2" cx="8.47" cy="42.75" r="0.69"/><path class="cls-5" d="M43,8.45a1.12,1.12,0,0,0-1.12-1.12,1.4,1.4,0,0,0-1.4,1.4,1.75,1.75,0,0,0,1.75,1.75,2.65,2.65,0,0,0,1.89-1.08c.65-.7,2.27-.92,4.65-.92h4.57"/><circle class="cls-2" cx="42.75" cy="8.47" r="0.69"/><circle class="cls-2" cx="363.64" cy="21.05" r="0.69" transform="translate(-0.37 34.26) rotate(-5.39)"/><path class="cls-3" d="M365.18,37.56a1.12,1.12,0,0,0,0,1.58,1.4,1.4,0,0,0,2,0,1.75,1.75,0,0,0,0-2.47,2.61,2.61,0,0,0-2.1-.57c-1.52.08-3.62.37-4-2.22"/><path class="cls-2" d="M354.81,26.27a.72.72,0,0,0-.92.31,1,1,0,0,0,.13,1.13,1.28,1.28,0,0,0,1.18.37,1.42,1.42,0,0,0,1-.8,1.89,1.89,0,0,0-.88-2.45,2.48,2.48,0,0,0-2.8.45.2.2,0,0,1-.28,0,.2.2,0,0,1,0-.28,2.93,2.93,0,0,1,3.3-.62,2.44,2.44,0,0,1,1.22,3.14,2,2,0,0,1-1.44,1.2,2,2,0,0,1-1.84-.53,1.74,1.74,0,0,1-.28-1.95,1.5,1.5,0,0,1,1.91-.7h0a.4.4,0,0,1-.32.73Z"/><path class="cls-3" d="M363.7,21.32a1.12,1.12,0,0,0,1-1.22,1.4,1.4,0,0,0-1.52-1.26,1.75,1.75,0,0,0-1.58,1.9,2.61,2.61,0,0,0,1.26,1.78c1.22.91,3,2,1.7,4.29"/><path class="cls-4" d="M358.48,18.93a.84.84,0,0,0-.8-.87,1,1,0,0,0-1.09,1,1.31,1.31,0,0,0,1.24,1.36,2,2,0,0,0,1.44-.74c.8-.81,1.81-2,3.35-.81"/><path class="cls-2" d="M360.12,31.34a3.15,3.15,0,0,1-.12-4.27,3.67,3.67,0,0,1,4-1,4.09,4.09,0,0,1,2.47,3.18A4.3,4.3,0,0,1,365.26,33a5.13,5.13,0,0,1-3.55,1.46,5.07,5.07,0,0,1-3.53-1.4,6.16,6.16,0,0,1-1.34-6.93h0a.42.42,0,0,1,.76.34,5.22,5.22,0,0,0,1.29,5.83,4,4,0,0,0,2.8,1,3.91,3.91,0,0,0,2.68-1.19,3,3,0,0,0,.78-2.62,2.69,2.69,0,0,0-1.63-2,2.14,2.14,0,0,0-2.31.62,1.51,1.51,0,0,0,.11,2,.84.84,0,0,1-1.14,1.25l0,0Z"/><path class="cls-2" d="M358,22.88A2.17,2.17,0,0,1,361,22.8a2.53,2.53,0,0,1,.67,2.77,2.82,2.82,0,0,1-2.2,1.71,3,3,0,0,1-2.59-.85,3.54,3.54,0,0,1-1-2.45,3.5,3.5,0,0,1,1-2.44,4.25,4.25,0,0,1,4.78-.93h0a.29.29,0,0,1-.24.53,3.6,3.6,0,0,0-4,.89,2.74,2.74,0,0,0,.12,3.78,2.06,2.06,0,0,0,1.81.54,1.85,1.85,0,0,0,1.4-1.13,1.48,1.48,0,0,0-.43-1.6,1,1,0,0,0-1.41.08.58.58,0,0,1-.86-.78h0Z"/><circle class="cls-2" cx="361.19" cy="30.47" r="1.37" transform="translate(84.25 264.33) rotate(-45)"/><circle class="cls-2" cx="358.62" cy="23.61" r="0.94" transform="translate(88.34 260.5) rotate(-45)"/><circle class="cls-2" cx="354.93" cy="26.16" r="0.65" transform="translate(190.29 341.68) rotate(-66.66)"/><circle class="cls-2" cx="352.14" cy="25.4" r="0.65" transform="translate(189.29 338.65) rotate(-66.66)"/><circle class="cls-2" cx="365.38" cy="37.73" r="0.69" transform="translate(80.34 269.41) rotate(-45)"/><circle class="cls-2" cx="358.28" cy="18.94" r="0.52" transform="translate(322.82 375.97) rotate(-87.35)"/><path class="cls-3" d="M337.44,9.82a1.12,1.12,0,0,1-1.58,0,1.4,1.4,0,0,1,0-2,1.75,1.75,0,0,1,2.47,0,2.61,2.61,0,0,1,.57,2.1c-.08,1.52-.37,3.62,2.22,4"/><path class="cls-2" d="M349.47,19.87a1.5,1.5,0,0,1-.7,1.91,1.74,1.74,0,0,1-1.95-.28,2,2,0,0,1-.53-1.84,2,2,0,0,1,1.2-1.44,2.44,2.44,0,0,1,3.14,1.22,2.93,2.93,0,0,1-.62,3.3.2.2,0,0,1-.28,0,.2.2,0,0,1,0-.28,2.48,2.48,0,0,0,.45-2.8,1.89,1.89,0,0,0-2.45-.88,1.42,1.42,0,0,0-.8,1,1.28,1.28,0,0,0,.37,1.18,1,1,0,0,0,1.13.13.72.72,0,0,0,.31-.92.4.4,0,0,1,.72-.35h0Z"/><path class="cls-3" d="M353.68,11.3a1.12,1.12,0,0,1,1.22-1,1.4,1.4,0,0,1,1.26,1.52,1.75,1.75,0,0,1-1.9,1.58,2.61,2.61,0,0,1-1.78-1.26c-.91-1.22-2-3-4.29-1.7"/><path class="cls-4" d="M356.07,16.52a.84.84,0,0,1,.87.8,1,1,0,0,1-1,1.09,1.31,1.31,0,0,1-1.36-1.24,2,2,0,0,1,.74-1.45c.81-.8,2-1.81.81-3.35"/><path class="cls-2" d="M344.85,13.69a1.51,1.51,0,0,0,2,.11,2.14,2.14,0,0,0,.62-2.31,2.69,2.69,0,0,0-2-1.63,3,3,0,0,0-2.62.78,3.92,3.92,0,0,0-1.19,2.68,4,4,0,0,0,1,2.8,5.22,5.22,0,0,0,5.83,1.29.42.42,0,0,1,.34.76h0a6.16,6.16,0,0,1-6.93-1.34,5.07,5.07,0,0,1-1.4-3.53A5.13,5.13,0,0,1,342,9.74a4.3,4.3,0,0,1,3.75-1.23A4.09,4.09,0,0,1,348.89,11a3.67,3.67,0,0,1-1,4,3.15,3.15,0,0,1-4.27-.12l0,0a.84.84,0,1,1,1.21-1.18Z"/><path class="cls-2" d="M351.3,16.16a1,1,0,0,0,.08-1.41,1.48,1.48,0,0,0-1.6-.43,1.85,1.85,0,0,0-1.13,1.4,2.06,2.06,0,0,0,.54,1.81,2.74,2.74,0,0,0,3.78.12,3.6,3.6,0,0,0,.89-4,.29.29,0,0,1,.53-.24h0a4.25,4.25,0,0,1-.93,4.78,3.5,3.5,0,0,1-2.44,1,3.54,3.54,0,0,1-2.45-1,3,3,0,0,1-.85-2.59,2.82,2.82,0,0,1,1.71-2.2,2.53,2.53,0,0,1,2.77.67,2.17,2.17,0,0,1-.08,2.94l0,0a.58.58,0,1,1-.82-.83Z"/><circle class="cls-2" cx="344.53" cy="13.81" r="1.37" transform="translate(91.14 247.66) rotate(-45)"/><circle class="cls-2" cx="351.39" cy="16.38" r="0.94" transform="translate(91.34 253.27) rotate(-45)"/><circle class="cls-2" cx="348.84" cy="20.07" r="0.65" transform="translate(20.6 139.87) rotate(-23.34)"/><circle class="cls-2" cx="349.6" cy="22.86" r="0.65" transform="translate(19.55 140.39) rotate(-23.34)"/><circle class="cls-2" cx="337.27" cy="9.62" r="0.69" transform="translate(91.98 241.3) rotate(-45)"/><circle class="cls-2" cx="356.06" cy="16.72" r="0.52" transform="translate(-0.39 16.45) rotate(-2.65)"/><path class="cls-2" d="M355.75,19.25a6.32,6.32,0,0,0-5.46,5.46,6.32,6.32,0,0,0,5.46-5.46Z"/><path class="cls-2" d="M363.05,10.48a2.2,2.2,0,0,0,1.79-.32,2.2,2.2,0,0,0-.32,1.79,1,1,0,0,1-1.31,1.22,3,3,0,0,0-2,.62,3,3,0,0,0,.62-2A1,1,0,0,1,363.05,10.48Z"/><path class="cls-2" d="M360.85,14.58s2.31-1.67,3.81.17-.54,3.85-2.3,2.1c0,0,1.55.19,1.54-.8S362.83,14.45,360.85,14.58Z"/><path class="cls-2" d="M358.25,16.85s2.89-2,3.26-.76S358.25,16.85,358.25,16.85Z"/><path class="cls-2" d="M360.42,14.15s1.67-2.31-.17-3.81-3.85.54-2.1,2.3c0,0-.19-1.55.8-1.54S360.56,12.17,360.42,14.15Z"/><path class="cls-2" d="M358.15,16.75s2-2.89.76-3.26S358.15,16.75,358.15,16.75Z"/><circle class="cls-2" cx="360.13" cy="14.87" r="0.57" transform="translate(94.98 259.02) rotate(-45)"/><path class="cls-5" d="M366.55,43a1.12,1.12,0,0,0,1.12-1.12,1.4,1.4,0,0,0-1.4-1.4,1.75,1.75,0,0,0-1.75,1.75,2.65,2.65,0,0,0,1.08,1.89c.7.65.92,2.27.92,4.65v4.57"/><circle class="cls-2" cx="366.53" cy="42.75" r="0.69"/><path class="cls-5" d="M332,8.45a1.12,1.12,0,0,1,1.12-1.12,1.4,1.4,0,0,1,1.4,1.4,1.75,1.75,0,0,1-1.75,1.75,2.65,2.65,0,0,1-1.89-1.08c-.65-.7-2.27-.92-4.65-.92h-4.57"/><circle class="cls-2" cx="332.25" cy="8.47" r="0.69"/><circle class="cls-2" cx="11.36" cy="247.68" r="0.69" transform="translate(-23.22 2.16) rotate(-5.39)"/><path class="cls-3" d="M9.82,231.17a1.12,1.12,0,0,0,0-1.58,1.4,1.4,0,0,0-2,0,1.75,1.75,0,0,0,0,2.47,2.61,2.61,0,0,0,2.1.57c1.52-.08,3.62-.37,4,2.22"/><path class="cls-2" d="M20.19,242.46a.72.72,0,0,0,.92-.31A1,1,0,0,0,21,241a1.28,1.28,0,0,0-1.18-.37,1.42,1.42,0,0,0-1,.8,1.89,1.89,0,0,0,.88,2.45,2.48,2.48,0,0,0,2.8-.45.2.2,0,0,1,.28,0,.2.2,0,0,1,0,.28,2.93,2.93,0,0,1-3.3.62,2.44,2.44,0,0,1-1.22-3.14,2,2,0,0,1,1.44-1.2,2,2,0,0,1,1.84.53,1.74,1.74,0,0,1,.28,1.95,1.5,1.5,0,0,1-1.91.7h0a.4.4,0,0,1,.32-.73Z"/><path class="cls-3" d="M11.3,247.41a1.12,1.12,0,0,0-1,1.22,1.4,1.4,0,0,0,1.52,1.26,1.75,1.75,0,0,0,1.58-1.9,2.61,2.61,0,0,0-1.26-1.78c-1.22-.91-3-2-1.7-4.29"/><path class="cls-4" d="M16.52,249.8a.84.84,0,0,0,.8.87,1,1,0,0,0,1.09-1,1.31,1.31,0,0,0-1.24-1.36,2,2,0,0,0-1.44.74c-.8.81-1.81,2-3.35.81"/><path class="cls-2" d="M14.88,237.39a3.15,3.15,0,0,1,.12,4.27,3.67,3.67,0,0,1-4,1,4.09,4.09,0,0,1-2.47-3.18,4.3,4.3,0,0,1,1.23-3.75,5.13,5.13,0,0,1,3.55-1.46,5.07,5.07,0,0,1,3.53,1.4,6.16,6.16,0,0,1,1.34,6.93h0a.42.42,0,0,1-.76-.34,5.22,5.22,0,0,0-1.29-5.83,4,4,0,0,0-2.8-1,3.92,3.92,0,0,0-2.68,1.19,3,3,0,0,0-.78,2.62,2.69,2.69,0,0,0,1.63,2,2.14,2.14,0,0,0,2.31-.62,1.51,1.51,0,0,0-.11-2,.84.84,0,1,1,1.14-1.25l0,0Z"/><path class="cls-2" d="M17,245.85a2.17,2.17,0,0,1-2.94.08,2.53,2.53,0,0,1-.67-2.77,2.82,2.82,0,0,1,2.2-1.71,3,3,0,0,1,2.59.85,3.54,3.54,0,0,1,1,2.45,3.5,3.5,0,0,1-1,2.44,4.25,4.25,0,0,1-4.78.93h0a.29.29,0,0,1,.24-.53,3.6,3.6,0,0,0,4-.89,2.74,2.74,0,0,0-.12-3.78,2.06,2.06,0,0,0-1.81-.54,1.85,1.85,0,0,0-1.4,1.13,1.48,1.48,0,0,0,.43,1.6,1,1,0,0,0,1.41-.08.58.58,0,1,1,.86.78h0Z"/><circle class="cls-2" cx="13.81" cy="238.26" r="1.37" transform="translate(-164.43 79.55) rotate(-45)"/><circle class="cls-2" cx="16.38" cy="245.12" r="0.94" transform="translate(-168.53 83.38) rotate(-45)"/><circle class="cls-2" cx="20.07" cy="242.57" r="0.65" transform="translate(-210.6 164.88) rotate(-66.66)"/><circle class="cls-2" cx="22.86" cy="243.33" r="0.65" transform="translate(-209.61 167.91) rotate(-66.66)"/><circle class="cls-2" cx="9.62" cy="231" r="0.69" transform="translate(-160.53 74.46) rotate(-45)"/><circle class="cls-2" cx="16.72" cy="249.79" r="0.52" transform="translate(-233.57 254.96) rotate(-87.35)"/><path class="cls-3" d="M37.56,258.91a1.12,1.12,0,0,1,1.58,0,1.4,1.4,0,0,1,0,2,1.75,1.75,0,0,1-2.47,0,2.61,2.61,0,0,1-.57-2.1c.08-1.52.36-3.62-2.22-4"/><path class="cls-2" d="M25.53,248.86a1.5,1.5,0,0,1,.7-1.91,1.74,1.74,0,0,1,1.95.28,2,2,0,0,1,.53,1.84,2,2,0,0,1-1.2,1.44,2.44,2.44,0,0,1-3.14-1.22A2.93,2.93,0,0,1,25,246a.2.2,0,0,1,.28,0,.2.2,0,0,1,0,.28,2.48,2.48,0,0,0-.45,2.8,1.89,1.89,0,0,0,2.45.88,1.42,1.42,0,0,0,.8-1,1.28,1.28,0,0,0-.37-1.18,1,1,0,0,0-1.13-.13.72.72,0,0,0-.31.92.4.4,0,1,1-.72.35h0Z"/><path class="cls-3" d="M21.32,257.43a1.12,1.12,0,0,1-1.22,1,1.4,1.4,0,0,1-1.26-1.52,1.75,1.75,0,0,1,1.9-1.58,2.61,2.61,0,0,1,1.78,1.26c.91,1.22,2,3,4.29,1.7"/><path class="cls-4" d="M18.93,252.21a.84.84,0,0,1-.87-.8,1,1,0,0,1,1-1.09,1.31,1.31,0,0,1,1.36,1.24,2,2,0,0,1-.74,1.45c-.81.8-2,1.81-.81,3.35"/><path class="cls-2" d="M30.15,255a1.51,1.51,0,0,0-2-.11,2.14,2.14,0,0,0-.62,2.31,2.69,2.69,0,0,0,2,1.63,3,3,0,0,0,2.62-.78,3.92,3.92,0,0,0,1.19-2.68,4,4,0,0,0-1-2.8,5.22,5.22,0,0,0-5.83-1.29.42.42,0,0,1-.34-.76h0a6.16,6.16,0,0,1,6.93,1.34,5.07,5.07,0,0,1,1.4,3.53A5.13,5.13,0,0,1,33,259a4.3,4.3,0,0,1-3.75,1.23,4.09,4.09,0,0,1-3.18-2.47,3.67,3.67,0,0,1,1-4,3.15,3.15,0,0,1,4.27.12l0,0a.84.84,0,1,1-1.21,1.18Z"/><path class="cls-2" d="M23.7,252.57a1,1,0,0,0-.08,1.41,1.48,1.48,0,0,0,1.6.43,1.85,1.85,0,0,0,1.13-1.4,2.06,2.06,0,0,0-.54-1.81,2.74,2.74,0,0,0-3.78-.12,3.6,3.6,0,0,0-.89,4,.29.29,0,0,1-.53.24h0a4.25,4.25,0,0,1,.93-4.78,3.5,3.5,0,0,1,2.44-1,3.54,3.54,0,0,1,2.45,1,3,3,0,0,1,.85,2.59,2.82,2.82,0,0,1-1.71,2.2,2.53,2.53,0,0,1-2.77-.67,2.17,2.17,0,0,1,.08-2.94l0,0a.58.58,0,1,1,.82.83Z"/><circle class="cls-2" cx="30.47" cy="254.92" r="1.37" transform="translate(-171.33 96.21) rotate(-45)"/><circle class="cls-2" cx="23.61" cy="252.35" r="0.94" transform="translate(-171.52 90.61) rotate(-45)"/><circle class="cls-2" cx="26.16" cy="248.66" r="0.65" transform="matrix(0.92, -0.4, 0.4, 0.92, -96.38, 30.72)"/><circle class="cls-2" cx="25.4" cy="245.87" r="0.65" transform="translate(-95.35 30.2) rotate(-23.35)"/><circle class="cls-2" cx="37.73" cy="259.11" r="0.69" transform="translate(-172.17 102.57) rotate(-45)"/><circle class="cls-2" cx="18.94" cy="252.01" r="0.52" transform="translate(-11.61 1.14) rotate(-2.65)"/><path class="cls-2" d="M19.25,249.48A6.32,6.32,0,0,0,24.71,244a6.32,6.32,0,0,0-5.46,5.46Z"/><path class="cls-2" d="M11.95,258.25a2.2,2.2,0,0,0-1.79.32,2.2,2.2,0,0,0,.32-1.79,1,1,0,0,1,1.31-1.22,3,3,0,0,0,2-.62,3,3,0,0,0-.62,2A1,1,0,0,1,11.95,258.25Z"/><path class="cls-2" d="M14.15,254.15s-2.31,1.67-3.81-.17.54-3.85,2.3-2.1c0,0-1.55-.19-1.54.8S12.17,254.28,14.15,254.15Z"/><path class="cls-2" d="M16.75,251.88s-2.89,2-3.26.76S16.75,251.88,16.75,251.88Z"/><path class="cls-2" d="M14.58,254.58s-1.67,2.31.17,3.81,3.85-.54,2.1-2.3c0,0,.19,1.55-.8,1.54S14.44,256.56,14.58,254.58Z"/><path class="cls-2" d="M16.85,252s-2,2.89-.76,3.26S16.85,252,16.85,252Z"/><circle class="cls-2" cx="14.87" cy="253.86" r="0.57" transform="translate(-175.14 84.86) rotate(-45)"/><path class="cls-5" d="M8.45,225.72a1.12,1.12,0,0,0-1.12,1.12,1.4,1.4,0,0,0,1.4,1.4,1.75,1.75,0,0,0,1.75-1.75,2.65,2.65,0,0,0-1.08-1.89c-.7-.65-.92-2.27-.92-4.65v-4.57"/><circle class="cls-2" cx="8.47" cy="225.98" r="0.69"/><path class="cls-5" d="M43,260.28a1.12,1.12,0,0,1-1.12,1.12,1.4,1.4,0,0,1-1.4-1.4,1.75,1.75,0,0,1,1.75-1.75,2.65,2.65,0,0,1,1.89,1.08c.65.7,2.27.92,4.65.92h4.57"/><circle class="cls-2" cx="42.75" cy="260.26" r="0.69"/><circle class="cls-2" cx="363.64" cy="247.68" r="0.69" transform="translate(82.89 586.43) rotate(-84.61)"/><path class="cls-3" d="M365.18,231.17a1.12,1.12,0,0,1,0-1.58,1.4,1.4,0,0,1,2,0,1.75,1.75,0,0,1,0,2.47,2.61,2.61,0,0,1-2.1.57c-1.52-.08-3.62-.37-4,2.22"/><path class="cls-2" d="M355.13,243.2a1.5,1.5,0,0,1-1.91-.7,1.74,1.74,0,0,1,.28-1.95,2,2,0,0,1,1.84-.53,2,2,0,0,1,1.44,1.2,2.44,2.44,0,0,1-1.22,3.14,2.93,2.93,0,0,1-3.3-.62.2.2,0,0,1,0-.28.2.2,0,0,1,.28,0,2.48,2.48,0,0,0,2.8.45,1.89,1.89,0,0,0,.88-2.45,1.42,1.42,0,0,0-1-.8A1.28,1.28,0,0,0,354,241a1,1,0,0,0-.13,1.13.72.72,0,0,0,.92.31.4.4,0,0,1,.35.72h0Z"/><path class="cls-3" d="M363.7,247.41a1.12,1.12,0,0,1,1,1.22,1.4,1.4,0,0,1-1.52,1.26,1.75,1.75,0,0,1-1.58-1.9,2.61,2.61,0,0,1,1.26-1.78c1.22-.91,3-2,1.7-4.29"/><path class="cls-4" d="M358.48,249.8a.84.84,0,0,1-.8.87,1,1,0,0,1-1.09-1,1.31,1.31,0,0,1,1.24-1.36,2,2,0,0,1,1.44.74c.8.81,1.81,2,3.35.81"/><path class="cls-2" d="M361.31,238.58a1.51,1.51,0,0,0-.11,2,2.14,2.14,0,0,0,2.31.62,2.69,2.69,0,0,0,1.63-2,3,3,0,0,0-.78-2.62,3.91,3.91,0,0,0-2.68-1.19,4,4,0,0,0-2.8,1,5.22,5.22,0,0,0-1.29,5.83.42.42,0,0,1-.76.34h0a6.16,6.16,0,0,1,1.34-6.93,5.07,5.07,0,0,1,3.53-1.4,5.13,5.13,0,0,1,3.55,1.46,4.3,4.3,0,0,1,1.23,3.75,4.09,4.09,0,0,1-2.47,3.18,3.67,3.67,0,0,1-4-1,3.15,3.15,0,0,1,.12-4.27l0,0a.84.84,0,0,1,1.18,1.21Z"/><path class="cls-2" d="M358.84,245a1,1,0,0,0,1.41.08,1.48,1.48,0,0,0,.43-1.6,1.85,1.85,0,0,0-1.4-1.13,2.06,2.06,0,0,0-1.81.54,2.74,2.74,0,0,0-.12,3.78,3.6,3.6,0,0,0,4,.89.29.29,0,0,1,.24.53h0a4.25,4.25,0,0,1-4.78-.93,3.5,3.5,0,0,1-1-2.44,3.54,3.54,0,0,1,1-2.45,3,3,0,0,1,2.59-.85,2.82,2.82,0,0,1,2.2,1.71,2.53,2.53,0,0,1-.67,2.77,2.17,2.17,0,0,1-2.94-.08l0,0a.58.58,0,0,1,.83-.82Z"/><circle class="cls-2" cx="361.19" cy="238.26" r="1.37" transform="translate(-62.69 325.18) rotate(-45)"/><circle class="cls-2" cx="358.62" cy="245.12" r="0.94" transform="translate(-68.29 325.38) rotate(-45)"/><circle class="cls-2" cx="354.93" cy="242.57" r="0.65" transform="translate(-67.06 160.47) rotate(-23.34)"/><circle class="cls-2" cx="352.14" cy="243.33" r="0.65" transform="translate(-67.59 159.44) rotate(-23.34)"/><circle class="cls-2" cx="365.38" cy="231" r="0.69" transform="translate(-56.33 326.02) rotate(-45)"/><circle class="cls-2" cx="358.28" cy="249.79" r="0.52" transform="translate(-11.15 16.8) rotate(-2.65)"/><path class="cls-3" d="M337.44,258.91a1.12,1.12,0,0,0-1.58,0,1.4,1.4,0,0,0,0,2,1.75,1.75,0,0,0,2.47,0,2.61,2.61,0,0,0,.57-2.1c-.08-1.52-.37-3.62,2.22-4"/><path class="cls-2" d="M348.73,248.54a.72.72,0,0,0-.31-.92,1,1,0,0,0-1.13.13,1.28,1.28,0,0,0-.37,1.18,1.42,1.42,0,0,0,.8,1,1.89,1.89,0,0,0,2.45-.88,2.48,2.48,0,0,0-.45-2.8.2.2,0,0,1,0-.28.2.2,0,0,1,.28,0,2.93,2.93,0,0,1,.62,3.3,2.44,2.44,0,0,1-3.14,1.22,2,2,0,0,1-1.2-1.44,2,2,0,0,1,.53-1.84,1.74,1.74,0,0,1,1.95-.28,1.5,1.5,0,0,1,.7,1.91v0a.4.4,0,1,1-.73-.32Z"/><path class="cls-3" d="M353.68,257.43a1.12,1.12,0,0,0,1.22,1,1.4,1.4,0,0,0,1.26-1.52,1.75,1.75,0,0,0-1.9-1.58,2.61,2.61,0,0,0-1.78,1.26c-.91,1.22-2,3-4.29,1.7"/><path class="cls-4" d="M356.07,252.21a.84.84,0,0,0,.87-.8,1,1,0,0,0-1-1.09,1.31,1.31,0,0,0-1.36,1.24,2,2,0,0,0,.74,1.45c.81.8,2,1.81.81,3.35"/><path class="cls-2" d="M343.66,253.85a3.15,3.15,0,0,1,4.27-.12,3.67,3.67,0,0,1,1,4,4.09,4.09,0,0,1-3.18,2.47A4.3,4.3,0,0,1,342,259a5.13,5.13,0,0,1-1.46-3.55,5.07,5.07,0,0,1,1.4-3.53,6.16,6.16,0,0,1,6.93-1.34h0a.42.42,0,0,1-.34.76,5.22,5.22,0,0,0-5.83,1.29,4,4,0,0,0-1,2.8,3.92,3.92,0,0,0,1.19,2.68,3,3,0,0,0,2.62.78,2.69,2.69,0,0,0,2-1.63,2.14,2.14,0,0,0-.62-2.31,1.51,1.51,0,0,0-2,.11.84.84,0,1,1-1.25-1.14l0,0Z"/><path class="cls-2" d="M352.12,251.75a2.17,2.17,0,0,1,.08,2.94,2.53,2.53,0,0,1-2.77.67,2.82,2.82,0,0,1-1.71-2.2,3,3,0,0,1,.85-2.59,3.54,3.54,0,0,1,2.45-1,3.5,3.5,0,0,1,2.44,1,4.25,4.25,0,0,1,.93,4.78h0a.29.29,0,0,1-.53-.24,3.6,3.6,0,0,0-.89-4,2.74,2.74,0,0,0-3.78.12,2.06,2.06,0,0,0-.54,1.81,1.85,1.85,0,0,0,1.13,1.4,1.48,1.48,0,0,0,1.6-.43,1,1,0,0,0-.08-1.41.58.58,0,0,1,.78-.86h0Z"/><circle class="cls-2" cx="344.53" cy="254.92" r="1.37" transform="translate(-79.34 318.27) rotate(-45)"/><circle class="cls-2" cx="351.39" cy="252.35" r="0.94" transform="translate(-75.52 322.38) rotate(-45)"/><circle class="cls-2" cx="348.84" cy="248.66" r="0.65" transform="translate(-17.7 470.4) rotate(-66.65)"/><circle class="cls-2" cx="349.6" cy="245.87" r="0.65" transform="translate(-14.66 469.44) rotate(-66.66)"/><circle class="cls-2" cx="337.27" cy="259.11" r="0.69" transform="translate(-84.44 314.38) rotate(-45)"/><circle class="cls-2" cx="356.06" cy="252.01" r="0.52" transform="matrix(0.05, -1, 1, 0.05, 87.88, 596.05)"/><path class="cls-2" d="M355.75,249.48a6.32,6.32,0,0,1-5.46-5.46,6.32,6.32,0,0,1,5.46,5.46Z"/><path class="cls-2" d="M363.05,258.25a2.2,2.2,0,0,1,1.79.32,2.2,2.2,0,0,1-.32-1.79,1,1,0,0,0-1.31-1.22,3,3,0,0,1-2-.62,3,3,0,0,1,.62,2A1,1,0,0,0,363.05,258.25Z"/><path class="cls-2" d="M360.85,254.15s2.31,1.67,3.81-.17-.54-3.85-2.3-2.1c0,0,1.55-.19,1.54.8S362.83,254.28,360.85,254.15Z"/><path class="cls-2" d="M358.25,251.88s2.89,2,3.26.76S358.25,251.88,358.25,251.88Z"/><path class="cls-2" d="M360.42,254.58s1.67,2.31-.17,3.81-3.85-.54-2.1-2.3c0,0-.19,1.55.8,1.54S360.56,256.56,360.42,254.58Z"/><path class="cls-2" d="M358.15,252s2,2.89.76,3.26S358.15,252,358.15,252Z"/><circle class="cls-2" cx="360.13" cy="253.86" r="0.57" transform="translate(-74.03 329.01) rotate(-45)"/><path class="cls-5" d="M366.55,225.72a1.12,1.12,0,0,1,1.12,1.12,1.4,1.4,0,0,1-1.4,1.4,1.75,1.75,0,0,1-1.75-1.75,2.65,2.65,0,0,1,1.08-1.89c.7-.65.92-2.27.92-4.65v-4.57"/><circle class="cls-2" cx="366.53" cy="225.98" r="0.69"/><path class="cls-5" d="M332,260.28a1.12,1.12,0,0,0,1.12,1.12,1.4,1.4,0,0,0,1.4-1.4,1.75,1.75,0,0,0-1.75-1.75,2.65,2.65,0,0,0-1.89,1.08c-.65.7-2.27.92-4.65.92h-4.57"/><circle class="cls-2" cx="332.25" cy="260.26" r="0.69"/><line class="cls-5" x1="321.66" y1="8.47" x2="53.34" y2="8.47"/><line class="cls-5" x1="366.53" y1="215.39" x2="366.53" y2="53.34"/><line class="cls-5" x1="53.34" y1="260.26" x2="321.66" y2="260.26"/><line class="cls-5" x1="8.47" y1="53.34" x2="8.47" y2="215.39"/><polygon class="cls-6" points="41.95 12.21 12.21 41.95 12.21 226.78 41.95 256.51 333.05 256.51 362.79 226.78 362.79 41.95 333.05 12.21 41.95 12.21"/><polygon class="cls-5" points="43.47 252.85 15.88 225.26 15.88 43.47 43.47 15.88 331.53 15.88 359.12 43.47 359.12 225.26 331.53 252.85 43.47 252.85"/><g id="_Группа_" data-name="&lt;Группа&gt;"><g id="_Группа_2" data-name="&lt;Группа&gt;"><text class="cls-7" transform="translate(115.06 88.08)">CE<tspan class="cls-8" x="12.01" y="0">R</tspan><tspan x="18.14" y="0">TIFI</tspan><tspan class="cls-9" x="34.52" y="0">C</tspan><tspan class="cls-10" x="41.06" y="0">A</tspan><tspan x="47.06" y="0">TE OF APPRECI</tspan><tspan class="cls-10" x="115.55" y="0">A</tspan><tspan x="121.55" y="0">TION</tspan></text><text class="cls-11" transform="translate(127.67 103.39)">THIS CE<tspan class="cls-12" x="25.91" y="0">R</tspan><tspan x="30.34" y="0">TIFI</tspan><tspan class="cls-13" x="42.46" y="0">C</tspan><tspan class="cls-14" x="47.18" y="0">A</tspan><tspan x="51.53" y="0">TE IS PRESENTED</tspan><tspan class="cls-15" x="108.77" y="0"> </tspan><tspan class="cls-16" x="110.29" y="0">T</tspan><tspan x="114.13" y="0">O</tspan></text><g id="_Группа_3" data-name="&lt;Группа&gt;"><rect id="_Контур_3" data-name="&lt;Контур&gt;" class="cls-17" x="95.96" y="92.96" width="183.07" height="0.36"/></g></g><g id="_Группа_4" data-name="&lt;Группа&gt;"><text class="cls-18" transform="translate(117.33 141.92)">Name Surname</text><text class="cls-19" transform="translate(159.35 156.86)">THE <tspan class="cls-20" x="11.78" y="0">C</tspan><tspan x="15.3" y="0">OM</tspan><tspan class="cls-21" x="24.61" y="0">P</tspan><tspan class="cls-22" x="27.47" y="0">A</tspan><tspan class="cls-23" x="31.31" y="0">N</tspan><tspan class="cls-22" x="35.39" y="0">Y N</tspan><tspan class="cls-24" x="44.35" y="0">A</tspan><tspan class="cls-22" x="48.17" y="0">ME</tspan></text><g id="_Группа_5" data-name="&lt;Группа&gt;"><rect id="_Контур_4" data-name="&lt;Контур&gt;" class="cls-17" x="76.65" y="148.05" width="221.69" height="0.55"/></g><g id="_Группа_6" data-name="&lt;Группа&gt;"><text class="cls-25" transform="translate(89.51 164.92)"><tspan class="cls-26">L</tspan><tspan class="cls-27" x="2.33" y="0">o</tspan><tspan class="cls-28" x="5.13" y="0">r</tspan><tspan x="6.74" y="0">em ipsum dolor sit ame</tspan><tspan class="cls-29" x="56.47" y="0">t</tspan><tspan x="58.14" y="0">, </tspan><tspan class="cls-30" x="60.27" y="0">c</tspan><tspan x="62.52" y="0">onse</tspan><tspan class="cls-31" x="72.71" y="0">c</tspan><tspan class="cls-32" x="75.05" y="0">t</tspan><tspan x="76.71" y="0">etur adipiscing eli</tspan><tspan class="cls-29" x="114.27" y="0">t</tspan><tspan x="115.94" y="0">, sed do eiusmod </tspan><tspan class="cls-32" x="152.89" y="0">t</tspan><tspan x="154.54" y="0">empor incididu</tspan><tspan class="cls-33" x="187" y="0">n</tspan><tspan x="189.8" y="0">tut</tspan><tspan x="0.69" y="6.11">labo</tspan><tspan class="cls-34" x="10.04" y="6.11">r</tspan><tspan x="11.65" y="6.11">e et dolo</tspan><tspan class="cls-28" x="30.26" y="6.11">r</tspan><tspan x="31.87" y="6.11">e ma </tspan><tspan class="cls-30" x="43.28" y="6.11">g</tspan><tspan x="46.09" y="6.11">na aliqua. </tspan><tspan class="cls-35" x="67.55" y="6.11">U</tspan><tspan x="70.86" y="6.11">t enim ad minim </tspan><tspan class="cls-34" x="106.7" y="6.11">v</tspan><tspan x="109.1" y="6.11">eniam, quis nostrud </tspan><tspan class="cls-36" x="152.19" y="6.11">e</tspan><tspan class="cls-37" x="154.72" y="6.11">x</tspan><tspan class="cls-38" x="157" y="6.11">e</tspan><tspan class="cls-34" x="159.55" y="6.11">r</tspan><tspan x="161.17" y="6.11">cit</tspan><tspan class="cls-39" x="166.32" y="6.11">a</tspan><tspan x="168.76" y="6.11">tion ullam</tspan><tspan class="cls-32" x="190.24" y="6.11">c</tspan><tspan x="192.49" y="6.11">o</tspan><tspan x="3.85" y="12.22">labo</tspan><tspan class="cls-35" x="13.19" y="12.22">r</tspan><tspan x="14.88" y="12.22">is nisi ut aliquip </tspan><tspan class="cls-29" x="48.72" y="12.22">e</tspan><tspan x="51.25" y="12.22">x ea </tspan><tspan class="cls-30" x="60.77" y="12.22">c</tspan><tspan x="63.02" y="12.22">ommodo </tspan><tspan class="cls-32" x="83.84" y="12.22">c</tspan><tspan class="cls-40" x="86.09" y="12.22">onsequ</tspan><tspan class="cls-39" x="101.95" y="12.22">at</tspan><tspan x="106.05" y="12.22">. </tspan><tspan class="cls-41" x="108.19" y="12.22">D</tspan><tspan x="111.59" y="12.22">uis au</tspan><tspan class="cls-32" x="123.94" y="12.22">t</tspan><tspan x="125.59" y="12.22">e iru</tspan><tspan class="cls-42" x="134.88" y="12.22">r</tspan><tspan x="136.5" y="12.22">e dolor in </tspan><tspan class="cls-34" x="157.63" y="12.22">r</tspan><tspan x="159.24" y="12.22">ep</tspan><tspan class="cls-34" x="164.69" y="12.22">r</tspan><tspan class="cls-38" x="166.3" y="12.22">ehende</tspan><tspan class="cls-35" x="182.47" y="12.22">r</tspan><tspan x="184.16" y="12.22">it in</tspan></text></g></g><g id="_Группа_7" data-name="&lt;Группа&gt;"><g id="_Группа_8" data-name="&lt;Группа&gt;"><text class="cls-43" transform="translate(85.26 216.14)">D<tspan class="cls-44" x="4.08" y="0">A</tspan><tspan class="cls-45" x="7.46" y="0">TE</tspan></text><rect id="_Контур_5" data-name="&lt;Контур&gt;" class="cls-17" x="53.05" y="208.1" width="78.14" height="0.36"/></g><g id="_Группа_9" data-name="&lt;Группа&gt;"><text class="cls-46" transform="translate(267.89 216.14)">SIGN<tspan class="cls-44" x="12.89" y="0">A</tspan><tspan x="16.26" y="0">TURE</tspan></text><rect id="_Контур_6" data-name="&lt;Контур&gt;" class="cls-17" x="243.81" y="208.1" width="78.14" height="0.36"/></g></g></g><path class="cls-47" d="M166.41,58.8a1.2,1.2,0,0,1-1.2,1.2,1.5,1.5,0,0,1-1.5-1.5,1.88,1.88,0,0,1,1.88-1.88,2.81,2.81,0,0,1,2,1.16c1.09,1.21,2.48,3,4.77,1.39"/><path class="cls-48" d="M183.19,57.3a1.61,1.61,0,0,1,.92,2,1.88,1.88,0,0,1-1.69,1.27,2.09,2.09,0,0,1-1.8-1,2.2,2.2,0,0,1-.18-2,2.62,2.62,0,0,1,3.31-1.46,3.15,3.15,0,0,1,2,3,.21.21,0,0,1-.22.21.22.22,0,0,1-.21-.21,2.67,2.67,0,0,0-1.79-2.47A2,2,0,0,0,181,57.78a1.52,1.52,0,0,0,.17,1.39,1.37,1.37,0,0,0,1.18.62,1.09,1.09,0,0,0,1-.76.77.77,0,0,0-.47-.93.43.43,0,0,1,.28-.82h0Z"/><path class="cls-47" d="M179.88,47.58a1.2,1.2,0,0,1,.16-1.69,1.5,1.5,0,0,1,2.12.2,1.88,1.88,0,0,1-.25,2.65,2.81,2.81,0,0,1-2.31.4c-1.61-.24-3.84-.76-4.56,2"/><path class="cls-49" d="M185.67,49.74a.9.9,0,0,1,1.27-.06,1.12,1.12,0,0,1,.07,1.59,1.4,1.4,0,0,1-2,.09,2.09,2.09,0,0,1-.53-1.66c0-1.22.16-2.92-1.93-3.16"/><path class="cls-48" d="M175,56.11a1.62,1.62,0,0,0,1.64-1.46,2.3,2.3,0,0,0-1.29-2.23,2.89,2.89,0,0,0-2.79.3,3.21,3.21,0,0,0-1.4,2.58,4.21,4.21,0,0,0,1.13,2.95,4.27,4.27,0,0,0,2.9,1.36,5.61,5.61,0,0,0,5.41-3.45.45.45,0,0,1,.84.32h0a6.62,6.62,0,0,1-6.29,4.25,5.45,5.45,0,0,1-3.75-1.62,5.51,5.51,0,0,1-1.59-3.81,4.63,4.63,0,0,1,1.91-3.79A4.4,4.4,0,0,1,176,51a4,4,0,0,1,2.32,3.79A3.39,3.39,0,0,1,175,57.93h-.05a.91.91,0,0,1,0-1.82Z"/><path class="cls-48" d="M181.77,53.08a1.12,1.12,0,0,0-1-1.13,1.59,1.59,0,0,0-1.54.89,2,2,0,0,0,.21,1.92,2.21,2.21,0,0,0,1.78,1,2.94,2.94,0,0,0,3-2.78,3.87,3.87,0,0,0-2.38-3.73.31.31,0,0,1,.22-.58h0A4.57,4.57,0,0,1,185,53a3.76,3.76,0,0,1-1.12,2.59,3.8,3.8,0,0,1-2.63,1.1,3.19,3.19,0,0,1-2.61-1.32,3,3,0,0,1-.37-3,2.72,2.72,0,0,1,2.62-1.6,2.34,2.34,0,0,1,2.18,2.3v0a.63.63,0,0,1-1.25,0Z"/><circle class="cls-48" cx="174.84" cy="56.45" r="1.47"/><circle class="cls-48" cx="182" cy="53.19" r="1.02"/><circle class="cls-48" cx="182.87" cy="57.93" r="0.7" transform="translate(61.55 206.51) rotate(-68.34)"/><circle class="cls-48" cx="185.57" cy="59.47" r="0.7" transform="translate(61.81 210) rotate(-68.34)"/><circle class="cls-48" cx="166.13" cy="58.78" r="0.75"/><circle class="cls-48" cx="185.81" cy="49.89" r="0.56" transform="translate(23.76 153.6) rotate(-47.65)"/><path class="cls-48" d="M156.35,57.5A4.77,4.77,0,0,1,152,60.86a3.93,3.93,0,0,1-2.77-1,4,4,0,0,1-1.34-2.66,3.33,3.33,0,0,1,1.18-2.82,3.17,3.17,0,0,1,3.06-.6A2.84,2.84,0,0,1,154,56.42a2.44,2.44,0,0,1-2.24,2.44h0a.65.65,0,1,1-.08-1.31h0a1.17,1.17,0,0,0,1.1-1.13,1.66,1.66,0,0,0-1-1.54,2.08,2.08,0,0,0-2,.36,2.31,2.31,0,0,0-.88,1.93A3.07,3.07,0,0,0,152,60.05a4,4,0,0,0,3.72-2.75.32.32,0,0,1,.62.19Z"/><circle class="cls-48" cx="151.62" cy="57.8" r="1.06" transform="translate(-3.66 10.7) rotate(-3.99)"/><path class="cls-48" d="M155.73,57.32A4.77,4.77,0,0,1,160,54a3.93,3.93,0,0,1,2.77,1,4,4,0,0,1,1.34,2.66A3.33,3.33,0,0,1,163,60.4a3.17,3.17,0,0,1-3.06.6A2.84,2.84,0,0,1,158,58.4,2.44,2.44,0,0,1,160.28,56h0a.65.65,0,1,1,.08,1.31h0a1.17,1.17,0,0,0-1.1,1.13,1.66,1.66,0,0,0,1,1.54,2.08,2.08,0,0,0,2-.36,2.31,2.31,0,0,0,.88-1.93,3.07,3.07,0,0,0-3.11-2.89,4,4,0,0,0-3.72,2.75.32.32,0,0,1-.62-.19Z"/><circle class="cls-48" cx="160.46" cy="57.02" r="1.06" transform="translate(-3.58 11.32) rotate(-4)"/><circle class="cls-48" cx="164.98" cy="53.59" r="1.41"/><circle class="cls-48" cx="146.59" cy="59.07" r="1.11"/><path class="cls-47" d="M208.59,58.8a1.2,1.2,0,0,0,1.2,1.2,1.5,1.5,0,0,0,1.5-1.5,1.88,1.88,0,0,0-1.88-1.88,2.81,2.81,0,0,0-2,1.16c-1.09,1.21-2.48,3-4.77,1.39"/><path class="cls-48" d="M192.13,58.1a.77.77,0,0,0-.47.93,1.09,1.09,0,0,0,1,.76,1.37,1.37,0,0,0,1.18-.62,1.52,1.52,0,0,0,.17-1.39,2,2,0,0,0-2.53-1.19,2.67,2.67,0,0,0-1.79,2.47.21.21,0,0,1-.21.21.22.22,0,0,1-.21-.21,3.15,3.15,0,0,1,2-3,2.62,2.62,0,0,1,3.31,1.46,2.2,2.2,0,0,1-.18,2,2.09,2.09,0,0,1-1.8,1,1.88,1.88,0,0,1-1.69-1.27,1.61,1.61,0,0,1,.92-2h0a.43.43,0,1,1,.31.81Z"/><path class="cls-47" d="M195.12,47.58a1.2,1.2,0,0,0-.16-1.69,1.5,1.5,0,0,0-2.12.2,1.88,1.88,0,0,0,.25,2.65,2.81,2.81,0,0,0,2.31.4c1.61-.24,3.84-.76,4.56,2"/><path class="cls-49" d="M189.33,49.74a.9.9,0,0,0-1.27-.06,1.12,1.12,0,0,0-.07,1.59,1.4,1.4,0,0,0,2,.09,2.09,2.09,0,0,0,.53-1.66c0-1.22-.16-2.92,1.93-3.16"/><path class="cls-48" d="M200,57.93a3.39,3.39,0,0,1-3.33-3.16A4,4,0,0,1,199,51a4.4,4.4,0,0,1,4.3.54,4.63,4.63,0,0,1,1.91,3.79,5.51,5.51,0,0,1-1.59,3.81,5.45,5.45,0,0,1-3.75,1.62,6.62,6.62,0,0,1-6.29-4.25h0a.45.45,0,0,1,.84-.32,5.61,5.61,0,0,0,5.41,3.45,4.27,4.27,0,0,0,2.9-1.36,4.21,4.21,0,0,0,1.13-2.95,3.21,3.21,0,0,0-1.4-2.58,2.89,2.89,0,0,0-2.79-.3,2.3,2.3,0,0,0-1.29,2.23A1.62,1.62,0,0,0,200,56.11a.91.91,0,1,1,.09,1.81H200Z"/><path class="cls-48" d="M192,53.08a2.34,2.34,0,0,1,2.18-2.3,2.72,2.72,0,0,1,2.62,1.6,3,3,0,0,1-.37,3,3.19,3.19,0,0,1-2.61,1.32,3.8,3.8,0,0,1-2.63-1.1A3.76,3.76,0,0,1,190,53,4.57,4.57,0,0,1,193,48.65h0a.31.31,0,0,1,.22.58A3.87,3.87,0,0,0,190.82,53a2.94,2.94,0,0,0,3,2.78,2.21,2.21,0,0,0,1.78-1,2,2,0,0,0,.21-1.92,1.59,1.59,0,0,0-1.54-.89,1.12,1.12,0,0,0-1,1.13.63.63,0,0,1-1.25.06v-.06Z"/><circle class="cls-48" cx="200.16" cy="56.45" r="1.47"/><circle class="cls-48" cx="193" cy="53.19" r="1.02"/><circle class="cls-48" cx="192.13" cy="57.93" r="0.7" transform="translate(-7.81 74.99) rotate(-21.66)"/><circle class="cls-48" cx="189.43" cy="59.47" r="0.7" transform="translate(-8.58 74.11) rotate(-21.66)"/><circle class="cls-48" cx="208.87" cy="58.78" r="0.75"/><circle class="cls-48" cx="189.19" cy="49.89" r="0.56" transform="translate(15.76 140.48) rotate(-42.35)"/><path class="cls-48" d="M219.27,57.3A4,4,0,0,0,223,60.05a3.07,3.07,0,0,0,3.11-2.89,2.31,2.31,0,0,0-.88-1.93,2.08,2.08,0,0,0-2-.36,1.66,1.66,0,0,0-1,1.54,1.17,1.17,0,0,0,1.1,1.13.65.65,0,0,1,0,1.31h-.06A2.44,2.44,0,0,1,221,56.42a2.84,2.84,0,0,1,1.86-2.61,3.17,3.17,0,0,1,3.06.6,3.33,3.33,0,0,1,1.18,2.82,4,4,0,0,1-1.34,2.66,3.93,3.93,0,0,1-2.77,1,4.77,4.77,0,0,1-4.31-3.37h0a.32.32,0,0,1,.62-.19Z"/><circle class="cls-48" cx="223.38" cy="57.8" r="1.06" transform="translate(150.16 276.61) rotate(-86.01)"/><path class="cls-48" d="M218.65,57.52a4,4,0,0,0-3.72-2.75,3.07,3.07,0,0,0-3.11,2.89,2.31,2.31,0,0,0,.88,1.93,2.08,2.08,0,0,0,2,.36,1.66,1.66,0,0,0,1-1.54,1.17,1.17,0,0,0-1.1-1.13.65.65,0,1,1,0-1.31h.06A2.44,2.44,0,0,1,217,58.4,2.84,2.84,0,0,1,215.1,61a3.17,3.17,0,0,1-3.06-.6,3.33,3.33,0,0,1-1.18-2.82,4,4,0,0,1,1.34-2.66A3.93,3.93,0,0,1,215,54a4.77,4.77,0,0,1,4.31,3.37h0a.32.32,0,0,1-.62.19Z"/><circle class="cls-48" cx="214.54" cy="57.02" r="1.06" transform="translate(142.71 267.06) rotate(-86)"/><circle class="cls-48" cx="210.02" cy="53.59" r="1.41"/><circle class="cls-48" cx="228.41" cy="59.07" r="1.11"/><path class="cls-48" d="M187.5,52.06a6.79,6.79,0,0,1,0,8.3,6.79,6.79,0,0,1,0-8.3Z"/><path class="cls-48" d="M188.62,39.83a2.37,2.37,0,0,1-1.12-1.6,2.37,2.37,0,0,1-1.12,1.6,1.1,1.1,0,0,0,.07,1.92c.83.5,1,2,1,2s.22-1.49,1-2A1.1,1.1,0,0,0,188.62,39.83Z"/><path class="cls-48" d="M187.17,44.63s-.48-3-3-2.77-2.51,3.34.15,3.34c0,0-1.32-1-.57-1.78S185.77,43,187.17,44.63Z"/><path class="cls-48" d="M187.42,48.32s-.67-3.72-1.9-3S187.42,48.32,187.42,48.32Z"/><path class="cls-48" d="M187.83,44.63s.48-3,3-2.77,2.51,3.34-.15,3.34c0,0,1.32-1,.57-1.78S189.23,43,187.83,44.63Z"/><path class="cls-48" d="M187.57,48.32s.67-3.72,1.9-3S187.57,48.32,187.57,48.32Z"/><circle class="cls-48" cx="187.5" cy="45.39" r="0.61"/><path class="cls-47" d="M166.41,209.93a1.2,1.2,0,0,0-1.2-1.2,1.5,1.5,0,0,0-1.5,1.5,1.88,1.88,0,0,0,1.88,1.88,2.81,2.81,0,0,0,2-1.16c1.09-1.21,2.48-3,4.77-1.39"/><path class="cls-48" d="M182.87,210.63a.77.77,0,0,0,.47-.93,1.09,1.09,0,0,0-1-.76,1.37,1.37,0,0,0-1.18.62,1.53,1.53,0,0,0-.17,1.39,2,2,0,0,0,2.53,1.19,2.67,2.67,0,0,0,1.79-2.47.21.21,0,0,1,.21-.21.22.22,0,0,1,.21.21,3.15,3.15,0,0,1-2,3,2.62,2.62,0,0,1-3.31-1.46,2.2,2.2,0,0,1,.18-2,2.09,2.09,0,0,1,1.8-1,1.88,1.88,0,0,1,1.69,1.27,1.61,1.61,0,0,1-.92,2h0a.43.43,0,0,1-.31-.81Z"/><path class="cls-47" d="M179.88,221.15a1.2,1.2,0,0,0,.16,1.69,1.5,1.5,0,0,0,2.12-.2,1.88,1.88,0,0,0-.25-2.65,2.81,2.81,0,0,0-2.31-.4c-1.61.24-3.84.76-4.56-2"/><path class="cls-49" d="M185.67,219a.9.9,0,0,0,1.27.06,1.12,1.12,0,0,0,.07-1.59,1.4,1.4,0,0,0-2-.09,2.09,2.09,0,0,0-.53,1.66c0,1.22.16,2.92-1.93,3.16"/><path class="cls-48" d="M175,210.8a3.39,3.39,0,0,1,3.33,3.16,4,4,0,0,1-2.32,3.79,4.4,4.4,0,0,1-4.3-.54,4.63,4.63,0,0,1-1.91-3.79,5.51,5.51,0,0,1,1.59-3.81,5.46,5.46,0,0,1,3.75-1.62,6.62,6.62,0,0,1,6.29,4.25h0a.45.45,0,0,1-.84.32,5.61,5.61,0,0,0-5.41-3.45,4.27,4.27,0,0,0-2.9,1.36,4.21,4.21,0,0,0-1.13,2.95,3.21,3.21,0,0,0,1.4,2.58,2.89,2.89,0,0,0,2.79.3,2.3,2.3,0,0,0,1.29-2.23,1.62,1.62,0,0,0-1.64-1.46.91.91,0,1,1-.09-1.81H175Z"/><path class="cls-48" d="M183,215.65a2.34,2.34,0,0,1-2.18,2.3,2.72,2.72,0,0,1-2.62-1.6,3,3,0,0,1,.37-3,3.19,3.19,0,0,1,2.61-1.32,3.8,3.8,0,0,1,2.63,1.1,3.76,3.76,0,0,1,1.12,2.59,4.57,4.57,0,0,1-2.93,4.34h0a.31.31,0,0,1-.22-.58,3.87,3.87,0,0,0,2.38-3.73,2.94,2.94,0,0,0-3-2.78,2.21,2.21,0,0,0-1.78,1,2,2,0,0,0-.21,1.92,1.59,1.59,0,0,0,1.54.89,1.12,1.12,0,0,0,1-1.13.63.63,0,1,1,1.25-.06v.06Z"/><circle class="cls-48" cx="174.84" cy="212.28" r="1.47"/><circle class="cls-48" cx="182" cy="215.54" r="1.02"/><circle class="cls-48" cx="182.87" cy="210.8" r="0.7" transform="translate(-64.89 82.37) rotate(-21.66)"/><circle class="cls-48" cx="185.57" cy="209.25" r="0.7" transform="translate(-64.13 83.26) rotate(-21.66)"/><circle class="cls-48" cx="166.13" cy="209.95" r="0.75"/><circle class="cls-48" cx="185.81" cy="218.84" r="0.56" transform="translate(-98.94 182.31) rotate(-42.36)"/><path class="cls-48" d="M155.73,211.43a4,4,0,0,0-3.72-2.75,3.07,3.07,0,0,0-3.11,2.89,2.31,2.31,0,0,0,.88,1.93,2.08,2.08,0,0,0,2,.36,1.66,1.66,0,0,0,1-1.54,1.17,1.17,0,0,0-1.1-1.13.65.65,0,0,1,0-1.31h.06a2.44,2.44,0,0,1,2.24,2.44,2.84,2.84,0,0,1-1.86,2.61,3.17,3.17,0,0,1-3.06-.6,3.33,3.33,0,0,1-1.18-2.82,4,4,0,0,1,1.34-2.66,3.93,3.93,0,0,1,2.77-1,4.77,4.77,0,0,1,4.31,3.37h0a.32.32,0,0,1-.62.19Z"/><circle class="cls-48" cx="151.62" cy="210.93" r="1.06" transform="translate(-69.36 347.48) rotate(-86)"/><path class="cls-48" d="M156.35,211.21a4,4,0,0,0,3.72,2.75,3.07,3.07,0,0,0,3.11-2.89,2.31,2.31,0,0,0-.88-1.93,2.08,2.08,0,0,0-2-.36,1.66,1.66,0,0,0-1,1.54,1.17,1.17,0,0,0,1.1,1.13.65.65,0,1,1,0,1.31h-.06a2.44,2.44,0,0,1-2.24-2.44,2.84,2.84,0,0,1,1.86-2.61,3.17,3.17,0,0,1,3.06.6,3.33,3.33,0,0,1,1.18,2.82,4,4,0,0,1-1.34,2.66,3.93,3.93,0,0,1-2.77,1,4.77,4.77,0,0,1-4.31-3.37h0a.32.32,0,0,1,.62-.19Z"/><circle class="cls-48" cx="160.46" cy="211.71" r="1.06" transform="translate(-61.92 357.04) rotate(-86.01)"/><circle class="cls-48" cx="164.98" cy="215.14" r="1.41"/><circle class="cls-48" cx="146.59" cy="209.66" r="1.11"/><path class="cls-47" d="M208.59,209.93a1.2,1.2,0,0,1,1.2-1.2,1.5,1.5,0,0,1,1.5,1.5,1.88,1.88,0,0,1-1.88,1.88,2.81,2.81,0,0,1-2-1.16c-1.09-1.21-2.48-3-4.77-1.39"/><path class="cls-48" d="M191.81,211.43a1.61,1.61,0,0,1-.92-2,1.88,1.88,0,0,1,1.69-1.27,2.09,2.09,0,0,1,1.8,1,2.2,2.2,0,0,1,.18,2,2.62,2.62,0,0,1-3.31,1.46,3.15,3.15,0,0,1-2-3,.21.21,0,0,1,.22-.21.22.22,0,0,1,.21.21,2.67,2.67,0,0,0,1.79,2.47,2,2,0,0,0,2.53-1.19,1.53,1.53,0,0,0-.17-1.39,1.37,1.37,0,0,0-1.18-.62,1.09,1.09,0,0,0-1,.76.77.77,0,0,0,.47.93.43.43,0,0,1-.28.82h0Z"/><path class="cls-47" d="M195.12,221.15a1.2,1.2,0,0,1-.16,1.69,1.5,1.5,0,0,1-2.12-.2,1.88,1.88,0,0,1,.25-2.65,2.81,2.81,0,0,1,2.31-.4c1.61.24,3.84.76,4.56-2"/><path class="cls-49" d="M189.33,219a.9.9,0,0,1-1.27.06,1.12,1.12,0,0,1-.07-1.59,1.4,1.4,0,0,1,2-.09,2.09,2.09,0,0,1,.53,1.66c0,1.22-.16,2.92,1.93,3.16"/><path class="cls-48" d="M200,212.62a1.62,1.62,0,0,0-1.64,1.46,2.3,2.3,0,0,0,1.29,2.23,2.89,2.89,0,0,0,2.79-.3,3.21,3.21,0,0,0,1.4-2.58,4.21,4.21,0,0,0-1.13-2.95,4.27,4.27,0,0,0-2.9-1.36,5.61,5.61,0,0,0-5.41,3.45.45.45,0,0,1-.84-.32h0a6.62,6.62,0,0,1,6.29-4.25,5.46,5.46,0,0,1,3.75,1.62,5.51,5.51,0,0,1,1.59,3.81,4.63,4.63,0,0,1-1.91,3.79,4.4,4.4,0,0,1-4.3.54,4,4,0,0,1-2.32-3.79A3.39,3.39,0,0,1,200,210.8h.05a.91.91,0,1,1,0,1.82Z"/><path class="cls-48" d="M193.23,215.65a1.12,1.12,0,0,0,1,1.13,1.59,1.59,0,0,0,1.54-.89,2,2,0,0,0-.21-1.92,2.21,2.21,0,0,0-1.78-1,2.94,2.94,0,0,0-3,2.78,3.87,3.87,0,0,0,2.38,3.73.31.31,0,0,1-.22.58h0a4.57,4.57,0,0,1-2.93-4.34,3.76,3.76,0,0,1,1.12-2.59,3.8,3.8,0,0,1,2.63-1.1,3.19,3.19,0,0,1,2.61,1.32,3,3,0,0,1,.37,3,2.72,2.72,0,0,1-2.62,1.6,2.34,2.34,0,0,1-2.18-2.3v0a.63.63,0,1,1,1.25,0Z"/><circle class="cls-48" cx="200.16" cy="212.28" r="1.47"/><circle class="cls-48" cx="193" cy="215.54" r="1.02"/><circle class="cls-48" cx="192.13" cy="210.8" r="0.7" transform="translate(-74.7 311.58) rotate(-68.34)"/><circle class="cls-48" cx="189.43" cy="209.25" r="0.7" transform="translate(-74.96 308.09) rotate(-68.34)"/><circle class="cls-48" cx="208.87" cy="209.95" r="0.75"/><circle class="cls-48" cx="189.19" cy="218.84" r="0.56" transform="translate(-99.99 211.21) rotate(-47.64)"/><path class="cls-48" d="M218.65,211.23a4.77,4.77,0,0,1,4.31-3.37,3.93,3.93,0,0,1,2.77,1,4,4,0,0,1,1.34,2.66,3.33,3.33,0,0,1-1.18,2.82,3.17,3.17,0,0,1-3.06.6,2.84,2.84,0,0,1-1.86-2.61,2.44,2.44,0,0,1,2.24-2.44h0a.65.65,0,1,1,.08,1.31h0a1.17,1.17,0,0,0-1.1,1.13,1.66,1.66,0,0,0,1,1.54,2.08,2.08,0,0,0,2-.36,2.31,2.31,0,0,0,.88-1.93,3.07,3.07,0,0,0-3.11-2.89,4,4,0,0,0-3.72,2.75.32.32,0,0,1-.62-.19Z"/><circle class="cls-48" cx="223.38" cy="210.93" r="1.06" transform="translate(-14.16 16.08) rotate(-4)"/><path class="cls-48" d="M219.27,211.41a4.77,4.77,0,0,1-4.31,3.37,3.93,3.93,0,0,1-2.77-1,4,4,0,0,1-1.34-2.66,3.33,3.33,0,0,1,1.18-2.82,3.17,3.17,0,0,1,3.06-.6,2.84,2.84,0,0,1,1.86,2.61,2.44,2.44,0,0,1-2.24,2.44h0a.65.65,0,1,1-.08-1.31h0a1.17,1.17,0,0,0,1.1-1.13,1.66,1.66,0,0,0-1-1.54,2.08,2.08,0,0,0-2,.36,2.31,2.31,0,0,0-.88,1.93,3.07,3.07,0,0,0,3.11,2.89,4,4,0,0,0,3.72-2.75.32.32,0,0,1,.62.19Z"/><circle class="cls-48" cx="214.54" cy="211.71" r="1.06" transform="translate(-14.23 15.46) rotate(-3.99)"/><circle class="cls-48" cx="210.02" cy="215.14" r="1.41"/><circle class="cls-48" cx="228.41" cy="209.66" r="1.11"/><path class="cls-48" d="M187.5,216.67a6.79,6.79,0,0,0,0-8.3,6.79,6.79,0,0,0,0,8.3Z"/><path class="cls-48" d="M188.62,228.9a2.37,2.37,0,0,0-1.12,1.6,2.37,2.37,0,0,0-1.12-1.6,1.1,1.1,0,0,1,.07-1.92c.83-.5,1-2,1-2s.22,1.49,1,2A1.1,1.1,0,0,1,188.62,228.9Z"/><path class="cls-48" d="M187.17,224.1s-.48,3-3,2.77-2.51-3.34.15-3.34c0,0-1.32,1-.57,1.78S185.77,225.72,187.17,224.1Z"/><path class="cls-48" d="M187.42,220.4s-.67,3.72-1.9,3S187.42,220.4,187.42,220.4Z"/><path class="cls-48" d="M187.83,224.1s.48,3,3,2.77,2.51-3.34-.15-3.34c0,0,1.32,1,.57,1.78S189.23,225.72,187.83,224.1Z"/><path class="cls-48" d="M187.57,220.4s.67,3.72,1.9,3S187.57,220.4,187.57,220.4Z"/><circle class="cls-48" cx="187.5" cy="223.34" r="0.61"/></g></g></svg>