<svg xmlns="http://www.w3.org/2000/svg" viewBox="0 0 42.96 45.87"><title>i12</title><g id="Слой_2" data-name="Слой 2"><g id="_1" data-name=" 1"><path d="M39.38,45.87H3.55A.58.58,0,0,1,3,45.29V10.74a.58.58,0,1,1,1.16,0v34H38.8v-34a.58.58,0,1,1,1.16,0V45.29A.58.58,0,0,1,39.38,45.87Z"/><path d="M35.35,45.87H7.58A.58.58,0,0,1,7,45.29V16.73a.58.58,0,0,1,.58-.58H35.35a.58.58,0,0,1,.58.58V45.29A.58.58,0,0,1,35.35,45.87ZM8.16,44.71H34.77V17.31H8.16Z"/><path d="M42.38,12.94a.58.58,0,0,1-.28-.07L21.48,1.24.87,12.86a.58.58,0,0,1-.57-1L21.18.07a.64.64,0,0,1,.6,0L42.66,11.85a.58.58,0,0,1-.29,1.09Z"/><path d="M3.55,15.08A.58.58,0,0,1,3.27,14L21.18,3.89a.64.64,0,0,1,.6,0L39.66,14a.58.58,0,0,1-.57,1L21.48,5.06,3.84,15A.58.58,0,0,1,3.55,15.08Z"/><path d="M35.35,21.69H7.58A.58.58,0,0,1,7,21.11V16.73a.58.58,0,0,1,.58-.58H35.35a.58.58,0,0,1,.58.58v4.38A.58.58,0,0,1,35.35,21.69ZM8.16,20.53H34.77V17.31H8.16Z"/><path d="M35.35,26.07H7.58A.58.58,0,0,1,7,25.49V21.11a.58.58,0,0,1,.58-.58H35.35a.58.58,0,0,1,.58.58v4.38A.58.58,0,0,1,35.35,26.07ZM8.16,24.9H34.77V21.69H8.16Z"/><path d="M20.5,45.87H11a.58.58,0,0,1-.58-.58V36.7a.58.58,0,0,1,.58-.58h9.5a.58.58,0,0,1,.58.58v8.59A.58.58,0,0,1,20.5,45.87Zm-8.91-1.16h8.33V37.29H11.59Z"/><path d="M16.95,39.67H14.56a.58.58,0,0,1-.58-.58V36.7a.58.58,0,0,1,.58-.58h2.39a.58.58,0,0,1,.58.58v2.39A.58.58,0,0,1,16.95,39.67Zm-1.81-1.16h1.22V37.29H15.14Z"/><path d="M32,45.87h-9.5a.58.58,0,0,1-.58-.58V36.7a.58.58,0,0,1,.58-.58H32a.58.58,0,0,1,.58.58v8.59A.58.58,0,0,1,32,45.87ZM23.1,44.71h8.33V37.29H23.1Z"/><path d="M28.46,39.67H26.07a.58.58,0,0,1-.58-.58V36.7a.58.58,0,0,1,.58-.58h2.39a.58.58,0,0,1,.58.58v2.39A.58.58,0,0,1,28.46,39.67Zm-1.81-1.16h1.22V37.29H26.65Z"/><path d="M26.21,37.29h-9.5a.58.58,0,0,1-.58-.58V28.12a.58.58,0,0,1,.58-.58h9.5a.58.58,0,0,1,.58.58V36.7A.58.58,0,0,1,26.21,37.29ZM17.3,36.12h8.33V28.7H17.3Z"/><path d="M22.66,31.09H20.27a.58.58,0,0,1-.58-.58V28.12a.58.58,0,0,1,.58-.58h2.39a.58.58,0,0,1,.58.58V30.5A.58.58,0,0,1,22.66,31.09Zm-1.81-1.16h1.23V28.7H20.85Z"/></g></g></svg>