<svg xmlns="http://www.w3.org/2000/svg" viewBox="0 0 26.36 45.38"><title>i8</title><g id="Слой_2" data-name="Слой 2"><g id="_1" data-name=" 1"><path d="M22.38,34.07H4a4,4,0,0,1-4-4V7.35a5.05,5.05,0,0,1,2-4L6.25.12A.58.58,0,0,1,6.6,0H19.77a.58.58,0,0,1,.35.12l4.26,3.23a5.05,5.05,0,0,1,2,4V30.09A4,4,0,0,1,22.38,34.07ZM6.79,1.16,2.69,4.28A3.88,3.88,0,0,0,1.16,7.35V30.09A2.83,2.83,0,0,0,4,32.91H22.38a2.83,2.83,0,0,0,2.82-2.82V7.35a3.88,3.88,0,0,0-1.53-3.08l-4.1-3.11Z"/><path d="M23.06,17H14.44a.58.58,0,0,1-.58-.58V8.17a.58.58,0,0,1,.58-.58h8.62a.58.58,0,0,1,.58.58v8.28A.58.58,0,0,1,23.06,17Zm-8-1.16h7.46V8.75H15Z"/><path d="M11.92,17H3.3a.58.58,0,0,1-.58-.58V8.17a.58.58,0,0,1,.58-.58h8.62a.58.58,0,0,1,.58.58v8.28A.58.58,0,0,1,11.92,17Zm-8-1.16h7.46V8.75H3.88Z"/><path d="M25.23,5.73H1.17a.58.58,0,1,1,0-1.16H25.23a.58.58,0,1,1,0,1.16Z"/><path d="M25.78,19.81H.58a.58.58,0,0,1,0-1.16h25.2a.58.58,0,0,1,0,1.16Z"/><path d="M25.78,22.41H.58a.58.58,0,0,1,0-1.16h25.2a.58.58,0,0,1,0,1.16Z"/><path d="M6.53,31.08a2.59,2.59,0,1,1,2.59-2.59A2.6,2.6,0,0,1,6.53,31.08Zm0-4A1.43,1.43,0,1,0,8,28.49,1.43,1.43,0,0,0,6.53,27.06Z"/><path d="M19.84,31.08a2.59,2.59,0,1,1,2.59-2.59A2.6,2.6,0,0,1,19.84,31.08Zm0-4a1.43,1.43,0,1,0,1.43,1.43A1.43,1.43,0,0,0,19.84,27.06Z"/><path d="M21.85,37.68H4.51a.58.58,0,0,1-.58-.58V33.49a.58.58,0,0,1,.58-.58H21.85a.58.58,0,0,1,.58.58V37.1A.58.58,0,0,1,21.85,37.68ZM5.09,36.52H21.27V34.07H5.09Z"/><path d="M2.39,45.38l-.15,0a.58.58,0,0,1-.41-.71L4,36.94a.58.58,0,1,1,1.12.31L2.95,45A.58.58,0,0,1,2.39,45.38Z"/><path d="M24,45.38a.58.58,0,0,1-.56-.43l-2.13-7.71a.58.58,0,0,1,1.12-.31l2.13,7.71a.58.58,0,0,1-.41.71Z"/></g></g></svg>