<svg xmlns="http://www.w3.org/2000/svg" viewBox="0 0 44.91 45.1"><title>i1</title><g id="Слой_2" data-name="Слой 2"><g id="_1" data-name=" 1"><path d="M36.95,45.1H6.12a1.75,1.75,0,0,1-1.68-1.27L0,28.16a.58.58,0,0,1,.56-.74H8.5a.58.58,0,0,1,.49.27L9.82,29H28.18l2.08-2.22a.58.58,0,0,1,.42-.18H44.32a.58.58,0,0,1,.54.79L38.58,44A1.75,1.75,0,0,1,36.95,45.1ZM1.35,28.58,5.56,43.51a.58.58,0,0,0,.56.42H36.95a.58.58,0,0,0,.54-.37l6-15.8H30.93L28.85,30a.58.58,0,0,1-.42.18H9.5A.58.58,0,0,1,9,29.89l-.83-1.31Z"/><path d="M13.15,30.16H9.5A.58.58,0,0,1,9,29.89l-.83-1.31H6.28A.58.58,0,0,1,5.7,28V8.09a.58.58,0,0,1,.58-.58h6.88a.58.58,0,0,1,.58.58v21.5A.58.58,0,0,1,13.15,30.16ZM9.82,29h2.75V8.67H6.86V27.42H8.5a.58.58,0,0,1,.49.27Z"/><path d="M14.78,8.67H4.66a.58.58,0,0,1-.58-.58V.58A.58.58,0,0,1,4.66,0H14.78a.58.58,0,0,1,.58.58v7.5A.58.58,0,0,1,14.78,8.67ZM5.24,7.5h9V1.16h-9Z"/><path d="M14.78,7.8a.58.58,0,0,1-.58-.58V2.83a.58.58,0,0,1,.58-.58h24a.58.58,0,0,1,.58.58V5.88a.58.58,0,0,1-.55.58l-24,1.34Zm.58-4.39V6.61l22.8-1.27V3.41Z"/><path d="M37,17.19a.58.58,0,0,1-.58-.58V6a.58.58,0,0,1,1.16,0V16.61A.58.58,0,0,1,37,17.19Z"/><path d="M42.12,27.76H31.88a.58.58,0,0,1-.58-.58V16.61a.58.58,0,0,1,.58-.58H42.12a.58.58,0,0,1,.58.58V27.18A.58.58,0,0,1,42.12,27.76ZM32.46,26.6h9.08V17.19H32.46Z"/><path d="M38.34,21H35.87a1.54,1.54,0,0,1,0-3.07h2.47a1.54,1.54,0,1,1,0,3.07ZM35.87,19.1a.38.38,0,0,0,0,.75h2.47a.38.38,0,1,0,0-.75Z"/><path d="M36.27,25.47H33.63a.58.58,0,1,1,0-1.16h2.64a.58.58,0,0,1,0,1.16Z"/><path d="M36.27,23.82H33.63a.58.58,0,1,1,0-1.16h2.64a.58.58,0,1,1,0,1.16Z"/><path d="M28.43,30.16H22a.58.58,0,0,1-.58-.58V19a.58.58,0,0,1,.58-.58h9.91a.58.58,0,0,1,.58.58v8.16a.58.58,0,0,1-.58.58h-.95L28.85,30A.58.58,0,0,1,28.43,30.16ZM22.55,29h5.63l2.08-2.22a.58.58,0,0,1,.42-.18h.62v-7H22.55Z"/><path d="M28.06,22.05H25.78a.58.58,0,0,1-.58-.58V19a.58.58,0,0,1,.58-.58h2.28a.58.58,0,0,1,.58.58v2.44A.58.58,0,0,1,28.06,22.05Zm-1.69-1.16h1.11V19.61H26.37Z"/><path d="M18.7,22.05H16.42a.58.58,0,0,1-.58-.58V19a.58.58,0,0,1,.58-.58H18.7a.58.58,0,0,1,.58.58v2.44A.58.58,0,0,1,18.7,22.05ZM17,20.89h1.11V19.61H17Z"/><path d="M22,30.16H13.15a.58.58,0,0,1-.58-.58V19a.58.58,0,0,1,.58-.58H22a.58.58,0,0,1,.58.58V29.58A.58.58,0,0,1,22,30.16ZM13.73,29h7.65V19.61H13.73Z"/><path d="M25.06,28.23H23.78a.58.58,0,0,1,0-1.16h1.28a.58.58,0,0,1,0,1.16Z"/><path d="M25.06,26.63H23.78a.58.58,0,0,1,0-1.16h1.28a.58.58,0,1,1,0,1.16Z"/><path d="M16,28.23H14.75a.58.58,0,0,1,0-1.16H16a.58.58,0,0,1,0,1.16Z"/><path d="M16,26.63H14.75a.58.58,0,0,1,0-1.16H16a.58.58,0,0,1,0,1.16Z"/><path d="M39.56,40.32H3.9a.58.58,0,0,1,0-1.16H39.56a.58.58,0,0,1,0,1.16Z"/><path d="M41,36.43H2.8a.58.58,0,0,1,0-1.16H41a.58.58,0,1,1,0,1.16Z"/></g></g></svg>