<svg xmlns="http://www.w3.org/2000/svg" viewBox="0 0 45.58 24.22"><title>i11</title><g id="Слой_2" data-name="Слой 2"><g id="_1" data-name=" 1"><path d="M14.46,24.22a3.74,3.74,0,1,1,3.74-3.74A3.74,3.74,0,0,1,14.46,24.22Zm0-6.31A2.58,2.58,0,1,0,17,20.48,2.58,2.58,0,0,0,14.46,17.91Z"/><path d="M37.73,24.22a3.74,3.74,0,1,1,3.74-3.74A3.74,3.74,0,0,1,37.73,24.22Zm0-6.31a2.58,2.58,0,1,0,2.58,2.58A2.58,2.58,0,0,0,37.73,17.91Z"/><path d="M45,21.06H40.88a.58.58,0,1,1,0-1.16h3.54v-9L42.12,4.11h-9V19.9h1.48a.58.58,0,0,1,0,1.16H32.51a.58.58,0,0,1-.58-.58v-17A.58.58,0,0,1,32.51,3h10a.58.58,0,0,1,.55.39l2.47,7.27a.58.58,0,0,1,0,.19v9.68A.58.58,0,0,1,45,21.06Z"/><path d="M32.51,21.06H17.62a.58.58,0,1,1,0-1.16H32.51a.58.58,0,1,1,0,1.16Z"/><path d="M11.31,21.06H6.23a.58.58,0,0,1-.58-.58V.58A.58.58,0,0,1,6.23,0H29.76a.58.58,0,0,1,.58.58V16.93h2.17a.58.58,0,1,1,0,1.16H29.76a.58.58,0,0,1-.58-.58V1.16H6.81V19.9h4.5a.58.58,0,1,1,0,1.16Z"/><path d="M45,11.39H36.49a.58.58,0,0,1-.58-.58V3.53a.58.58,0,1,1,1.16,0v6.69H45a.58.58,0,0,1,0,1.16Z"/><path d="M45,17.91h-.86a2.26,2.26,0,0,1,0-4.52H45a.58.58,0,0,1,.58.58v3.36A.58.58,0,0,1,45,17.91Zm-.86-3.36a1.1,1.1,0,1,0,0,2.2h.28v-2.2Z"/><path d="M29.76,18.1H15.53a.58.58,0,1,1,0-1.16H29.76a.58.58,0,1,1,0,1.16Z"/><path d="M13.39,18.1H6.23a.58.58,0,1,1,0-1.16h7.16a.58.58,0,1,1,0,1.16Z"/><path d="M8.35,24.22H6.61a.58.58,0,0,1,0-1.16H8.35a.58.58,0,0,1,0,1.16Z"/><path d="M2.32,24.22H.58a.58.58,0,0,1,0-1.16H2.32a.58.58,0,0,1,0,1.16Z"/><path d="M45,24.22H8.35a.58.58,0,0,1,0-1.16H45a.58.58,0,0,1,0,1.16Z"/><path d="M38.93,9.09a.58.58,0,0,1-.41-1L41.2,5.42a.58.58,0,0,1,.82.82L39.34,8.92A.58.58,0,0,1,38.93,9.09Z"/></g></g></svg>