<svg xmlns="http://www.w3.org/2000/svg" viewBox="0 0 32.78 45.96"><title>i2</title><g id="Слой_2" data-name="Слой 2"><g id="_1" data-name=" 1"><path d="M31.46,46H1.32A1.32,1.32,0,0,1,0,44.64v-39A1.32,1.32,0,0,1,1.32,4.37H7.87A.58.58,0,0,1,8.45,5v3a.9.9,0,0,0,.9.9H23.43a.9.9,0,0,0,.9-.9V5a.58.58,0,0,1,.58-.58h6.55a1.32,1.32,0,0,1,1.32,1.32v39A1.32,1.32,0,0,1,31.46,46ZM1.32,5.53a.16.16,0,0,0-.16.16v39a.16.16,0,0,0,.16.16H31.46a.16.16,0,0,0,.16-.16v-39a.16.16,0,0,0-.16-.16h-6V7.95A2.07,2.07,0,0,1,23.43,10H9.35A2.07,2.07,0,0,1,7.29,7.95V5.53Z"/><path d="M28.2,41.41H4.58A.58.58,0,0,1,4,40.83V8.32a.58.58,0,0,1,.58-.58H7.92a.58.58,0,0,1,.56.44.9.9,0,0,0,.87.68H23.43a.9.9,0,0,0,.87-.68.58.58,0,0,1,.56-.44H28.2a.58.58,0,0,1,.58.58V13a.58.58,0,0,1-1.16,0V8.9H25.25A2.06,2.06,0,0,1,23.43,10H9.35A2.06,2.06,0,0,1,7.52,8.9H5.16V40.25H27.62V27.49a.58.58,0,0,1,1.16,0V40.83A.58.58,0,0,1,28.2,41.41Z"/><path d="M28.2,28.07a.58.58,0,0,1-.58-.58V25.75a.58.58,0,0,1,1.16,0v1.74A.58.58,0,0,1,28.2,28.07Z"/><path d="M28.2,22.67a.58.58,0,0,1-.58-.58V18.44a.58.58,0,0,1,1.16,0v3.65A.58.58,0,0,1,28.2,22.67Z"/><path d="M28.2,15.36a.58.58,0,0,1-.58-.58V13a.58.58,0,0,1,1.16,0v1.74A.58.58,0,0,1,28.2,15.36Z"/><path d="M24.72,15.1H16a.58.58,0,0,1,0-1.16h8.71a.58.58,0,0,1,0,1.16Z"/><path d="M24.72,18.62H16a.58.58,0,0,1,0-1.16h8.71a.58.58,0,0,1,0,1.16Z"/><path d="M24.72,23.12H16A.58.58,0,1,1,16,22h8.71a.58.58,0,1,1,0,1.16Z"/><path d="M24.72,26.64H16a.58.58,0,0,1,0-1.16h8.71a.58.58,0,0,1,0,1.16Z"/><path d="M24.72,31.13H16A.58.58,0,1,1,16,30h8.71a.58.58,0,0,1,0,1.16Z"/><path d="M24.72,34.65H16a.58.58,0,0,1,0-1.16h8.71a.58.58,0,0,1,0,1.16Z"/><path d="M10.13,18a.59.59,0,0,1-.46-.22L7.41,14.88a.58.58,0,0,1,.91-.72l1.83,2.32,3.34-3.82a.58.58,0,1,1,.88.76l-3.8,4.35A.58.58,0,0,1,10.13,18Z"/><path d="M10.13,26.64a.59.59,0,0,1-.46-.22L7.41,23.54a.58.58,0,1,1,.91-.72l1.83,2.32,3.34-3.83a.58.58,0,0,1,.88.76l-3.8,4.35A.58.58,0,0,1,10.13,26.64Z"/><path d="M10.13,35.3a.59.59,0,0,1-.46-.22L7.41,32.2a.58.58,0,1,1,.91-.72l1.83,2.32L13.49,30a.58.58,0,1,1,.88.76l-3.8,4.35A.58.58,0,0,1,10.13,35.3Z"/><path d="M19.42,4.77H13.36a2.39,2.39,0,0,1,0-4.77h6.07a2.39,2.39,0,0,1,0,4.77ZM13.36,1.16a1.23,1.23,0,0,0,0,2.45h6.07a1.23,1.23,0,1,0,0-2.45Z"/><path d="M23.43,10H9.35A2.07,2.07,0,0,1,7.29,7.95V3.87A2.07,2.07,0,0,1,9.35,1.81h2.2a.58.58,0,0,1,.58.58,1.23,1.23,0,0,0,1.23,1.23h6.07a1.23,1.23,0,0,0,1.23-1.23.58.58,0,0,1,.58-.58h2.2a2.07,2.07,0,0,1,2.06,2.06V7.95A2.07,2.07,0,0,1,23.43,10ZM9.35,3a.9.9,0,0,0-.9.9V7.95a.9.9,0,0,0,.9.9H23.43a.9.9,0,0,0,.9-.9V3.87a.9.9,0,0,0-.9-.9H21.74a2.39,2.39,0,0,1-2.32,1.81H13.36A2.39,2.39,0,0,1,11,3Z"/><path d="M21.66,7.41H11.12a.58.58,0,0,1,0-1.16H21.66a.58.58,0,0,1,0,1.16Z"/></g></g></svg>