<svg xmlns="http://www.w3.org/2000/svg" viewBox="0 0 42.96 42.96"><title>i4</title><g id="Слой_2" data-name="Слой 2"><g id="_1" data-name=" 1"><path d="M17.89,43h-.08a.58.58,0,0,1-.43-.29l-3.76-6.55a18.35,18.35,0,0,0-6.78-6.78L.29,25.58a.58.58,0,0,1-.12-.91l3.48-3.48a.58.58,0,0,1,.61-.14l9.17,3.32C23.82,7.21,32.07,1.75,37.17.2a4.42,4.42,0,0,1,4.48,1.11A4.42,4.42,0,0,1,42.76,5.8c-1.55,5.1-7,13.34-24.17,23.74l3.32,9.17a.58.58,0,0,1-.14.61L18.3,42.79A.58.58,0,0,1,17.89,43ZM1.53,25l5.89,3.38a19.51,19.51,0,0,1,7.21,7.21L18,41.44l2.68-2.68-3.35-9.28a.58.58,0,0,1,.25-.7C34.75,18.47,40.15,10.41,41.65,5.46A3.32,3.32,0,0,0,37.5,1.31c-4.95,1.5-13,6.9-23.32,24.06a.58.58,0,0,1-.7.25L4.21,22.27Z"/><path d="M20.73,15.2a.58.58,0,0,1-.28-.07L3.94,5.94a.58.58,0,0,1,0-1l7-4.35a.58.58,0,0,1,.47-.06L28.51,5.7a.58.58,0,0,1-.34,1.11L11.32,1.71l-6,3.69L21,14.11a.58.58,0,0,1-.28,1.09Z"/><path d="M33.37,8.66A.58.58,0,0,1,33,8.49L31.09,6.62a.58.58,0,0,1,0-.85,23.91,23.91,0,0,1,3.5-2.23.58.58,0,0,1,.68.1L36.55,4.9a.58.58,0,0,1,0,.82L33.78,8.49A.58.58,0,0,1,33.37,8.66Zm-1-2.4,1,1,1.94-1.94-.54-.54A26.17,26.17,0,0,0,32.38,6.26Z"/><path d="M36.76,12a.58.58,0,0,1-.41-.17L34.48,10a.58.58,0,0,1,0-.82l2.77-2.77a.58.58,0,0,1,.82,0l1.25,1.25a.58.58,0,0,1,.1.68,23.9,23.9,0,0,1-2.23,3.5.58.58,0,0,1-.42.2Zm-1-2.45,1,1a26.23,26.23,0,0,0,1.48-2.41l-.54-.54Z"/><path d="M17.39,5.69a.58.58,0,0,1-.41-1L21.4.28a.58.58,0,1,1,.82.82L17.8,5.52A.58.58,0,0,1,17.39,5.69Z"/><path d="M21.91,7.35a.58.58,0,0,1-.41-1l4.42-4.42a.58.58,0,0,1,.82.82L22.32,7.18A.58.58,0,0,1,21.91,7.35Z"/><path d="M37.54,39.33A.59.59,0,0,1,37,39L27.84,22.52a.58.58,0,1,1,1-.57L37.56,37.6l3.69-6-5.1-16.85a.58.58,0,1,1,1.11-.34l5.18,17.11a.58.58,0,0,1-.06.47l-4.35,7A.58.58,0,0,1,37.54,39.33Z"/><path d="M37.86,26.15a.58.58,0,0,1-.41-1l4.42-4.42a.58.58,0,1,1,.82.82L38.27,26A.58.58,0,0,1,37.86,26.15Z"/><path d="M36.2,21.63a.58.58,0,0,1-.41-1l4.42-4.42A.58.58,0,1,1,41,17l-4.42,4.42A.58.58,0,0,1,36.2,21.63Z"/><path d="M18,25.54a.58.58,0,0,1-.41-1l13.5-13.5a.58.58,0,1,1,.82.82l-13.5,13.5A.58.58,0,0,1,18,25.54Z"/></g></g></svg>