<svg xmlns="http://www.w3.org/2000/svg" viewBox="0 0 42.95 33.4"><title>i7</title><g id="Слой_2" data-name="Слой 2"><g id="_1" data-name=" 1"><path d="M14.25,29.68H4.11a.58.58,0,0,1,0-1.16H14.25a.58.58,0,1,1,0,1.16Z"/><path d="M8.14,21.71a.58.58,0,0,1-.41-.17L6.32,20.13,4.94,21.51a.58.58,0,0,1-.82-.82L5.9,18.9a.58.58,0,0,1,.82,0l1.82,1.82a.58.58,0,0,1-.41,1Z"/><path d="M6.32,27a.58.58,0,0,1-.58-.58V19.31a.58.58,0,0,1,1.16,0v7.16A.58.58,0,0,1,6.32,27Z"/><path d="M13.84,21.71a.58.58,0,0,1-.41-.17L12,20.13l-1.38,1.38a.58.58,0,0,1-.82-.82l1.79-1.79a.58.58,0,0,1,.82,0l1.82,1.82a.58.58,0,0,1-.41,1Z"/><path d="M12,27a.58.58,0,0,1-.58-.58V19.31a.58.58,0,0,1,1.16,0v7.16A.58.58,0,0,1,12,27Z"/><path d="M26,16.16a6.48,6.48,0,1,1,4.59-1.9A6.47,6.47,0,0,1,26,16.16Zm0-11.8a5.32,5.32,0,1,0,3.76,1.56A5.31,5.31,0,0,0,26,4.35Z"/><path d="M40.62,26.66A2.32,2.32,0,0,1,39,26l-8-8a9.68,9.68,0,1,1,3.29-3.29l8,8a2.33,2.33,0,0,1-1.65,4ZM31,16.64a.58.58,0,0,1,.41.17l8.34,8.34a1.19,1.19,0,0,0,1.65,0,1.17,1.17,0,0,0,0-1.65L33.1,15.16a.58.58,0,0,1-.07-.74,8.52,8.52,0,1,0-2.31,2.31A.58.58,0,0,1,31,16.64Z"/><path d="M29.62,33.4H.58A.58.58,0,0,1,0,32.82V3.27a.58.58,0,0,1,.58-.58H19.51a.58.58,0,0,1,.41,1,8.51,8.51,0,0,0,9.46,13.8.58.58,0,0,1,.81.53V32.82A.58.58,0,0,1,29.62,33.4ZM1.16,32.23H29V18.85a9.68,9.68,0,0,1-10.8-15H1.16Z"/><path d="M5.85,8.29H4.11a.58.58,0,0,1,0-1.16H5.85a.58.58,0,0,1,0,1.16Z"/><path d="M9.57,8.29H7.71a.58.58,0,0,1,0-1.16H9.57a.58.58,0,0,1,0,1.16Z"/><path d="M13.17,8.29H11.43a.58.58,0,1,1,0-1.16h1.74a.58.58,0,0,1,0,1.16Z"/></g></g></svg>