<svg xmlns="http://www.w3.org/2000/svg" viewBox="0 0 42.64 42.64"><title>i9</title><g id="Слой_2" data-name="Слой 2"><g id="_1" data-name=" 1"><path d="M42.06,42.64H.58A.58.58,0,0,1,0,42.06V.58A.58.58,0,0,1,.58,0H42.06a.58.58,0,0,1,.58.58V42.06A.58.58,0,0,1,42.06,42.64ZM1.16,41.47H41.47V1.16H1.16Z"/><path d="M8.4,34.82H.58A.58.58,0,0,1,0,34.24V8.4a.58.58,0,0,1,.58-.58H8.4A.58.58,0,0,1,9,8.4V34.24A.58.58,0,0,1,8.4,34.82ZM1.16,33.66H7.82V9H1.16Z"/><path d="M34.24,17.59H8.4A.58.58,0,0,1,7.82,17V8.4a.58.58,0,0,1,.58-.58H34.24a.58.58,0,0,1,.58.58V17A.58.58,0,0,1,34.24,17.59ZM9,16.43H33.66V9H9Z"/><path d="M34.24,26.21H8.4a.58.58,0,0,1-.58-.58V17a.58.58,0,0,1,.58-.58H34.24a.58.58,0,0,1,.58.58v8.61A.58.58,0,0,1,34.24,26.21ZM9,25H33.66V17.59H9Z"/><path d="M34.24,34.82H8.4a.58.58,0,0,1-.58-.58V25.63A.58.58,0,0,1,8.4,25H34.24a.58.58,0,0,1,.58.58v8.61A.58.58,0,0,1,34.24,34.82ZM9,33.66H33.66V26.21H9Z"/><path d="M42.06,34.82H34.24a.58.58,0,0,1-.58-.58V8.4a.58.58,0,0,1,.58-.58h7.82a.58.58,0,0,1,.58.58V34.24A.58.58,0,0,1,42.06,34.82Zm-7.23-1.16h6.65V9H34.82Z"/><path d="M4.72,6.7A2.21,2.21,0,1,1,6.94,4.49,2.22,2.22,0,0,1,4.72,6.7Zm0-3.27A1.05,1.05,0,1,0,5.77,4.49,1.05,1.05,0,0,0,4.72,3.44Z"/><path d="M37.91,6.7a2.21,2.21,0,1,1,2.21-2.21A2.22,2.22,0,0,1,37.91,6.7Zm0-3.27A1.05,1.05,0,1,0,39,4.49,1.05,1.05,0,0,0,37.91,3.44Z"/><path d="M4.72,40.36a2.21,2.21,0,1,1,2.21-2.21A2.22,2.22,0,0,1,4.72,40.36Zm0-3.27a1.05,1.05,0,1,0,1.05,1.05A1.05,1.05,0,0,0,4.72,37.1Z"/><path d="M37.91,40.36a2.21,2.21,0,1,1,2.21-2.21A2.22,2.22,0,0,1,37.91,40.36Zm0-3.27A1.05,1.05,0,1,0,39,38.15,1.05,1.05,0,0,0,37.91,37.1Z"/><path d="M3.09,15.19a.58.58,0,0,1-.58-.58V12.87a.58.58,0,1,1,1.16,0v1.74A.58.58,0,0,1,3.09,15.19Z"/><path d="M3.09,24.14a.58.58,0,0,1-.58-.58V19.08a.58.58,0,1,1,1.16,0v4.47A.58.58,0,0,1,3.09,24.14Z"/><path d="M3.09,30.35a.58.58,0,0,1-.58-.58V28a.58.58,0,1,1,1.16,0v1.74A.58.58,0,0,1,3.09,30.35Z"/></g></g></svg>