<svg xmlns="http://www.w3.org/2000/svg" viewBox="0 0 76.21 74.19"><defs><style>.cls-1{isolation:isolate;}.cls-2{fill:#f7b880;}.cls-3{fill:#eda86a;}.cls-4{fill:#f7c68d;}.cls-5{fill:#d69e67;}.cls-6{fill:#ba8552;}.cls-7{fill:#453224;}.cls-8{fill:#f2c79a;}.cls-9{fill:#d9ac7e;}.cls-10{fill:#f7cfa2;}.cls-11{fill:#e8b887;}.cls-12{fill:#ebe4d3;mix-blend-mode:multiply;}</style></defs><title>i12</title><g class="cls-1"><g id="Слой_2" data-name="Слой 2"><g id="Layer_3" data-name="Layer 3"><polygon class="cls-2" points="40.21 12.88 40.21 25.76 39.14 25.14 36.87 23.82 29.06 19.31 29.06 6.44 40.21 12.88"/><polygon class="cls-3" points="51.36 6.44 51.36 19.32 51.08 19.49 47.82 21.38 47.04 21.83 45.22 22.87 44.24 23.43 43.88 23.64 43.45 23.89 43.45 23.89 40.21 25.76 40.21 12.88 44.73 10.27 45.17 10.01 45.48 9.84 45.49 9.83 45.68 9.72 45.79 9.66 46.38 9.32 46.45 9.28 46.45 9.27 46.45 9.27 46.9 9.01 51.36 6.44"/><polygon class="cls-4" points="51.36 6.44 46.9 9.01 45.18 10.01 40.21 12.88 29.06 6.44 34.02 3.57 35.75 2.58 40.21 0 51.36 6.44"/><polygon class="cls-5" points="46.45 9.28 44.72 10.27 42.6 9.05 38.72 6.81 37.95 6.36 34.06 4.12 33.57 3.83 35.3 2.84 37.52 4.12 41.4 6.36 42.17 6.81 46.05 9.05 46.45 9.28"/><polygon class="cls-6" points="44.72 10.27 44.72 12.29 44.72 12.74 45.01 12.13 45.01 12.13 45.3 12.41 45.59 11.79 45.88 12.07 46.16 11.46 46.16 11.46 46.16 11.46 46.16 11.46 46.45 11.74 46.45 11.29 46.45 9.28 44.72 10.27"/><path class="cls-6" d="M34.55,3.27l-.16.09s-.07.08,11.11,6.47l.19-.11C42.67,8,34.78,3.48,34.55,3.27Z"/><path class="cls-7" d="M31.41,15.46v4.47l8,4.63V20.09Zm7.81,8.74-7.6-4.39v-4l7.6,4.39Zm-7.06-6.66v-.81l.38.22.2.86.12-.68,1.19.69v.81c0,.56-.37.8-.84.59v.83l.67.39v.24l-1.54-.89v-.24l.67.39V19.1A2.1,2.1,0,0,1,32.16,17.54Zm6.79,6.06-1.54-.89v-.24l1.54.89Zm-1.23-2.32-.17-.1.28-1,.28,1.29-.17-.1v1.13l-.1-.06-.1-.06Zm.71.41-.17-.1.28-1,.28,1.29-.17-.1v1.13l-.1-.06-.1-.06Zm-4.17-2.92.45,0a2.16,2.16,0,0,1,.85.26v-.28l.21.12v.28a4.19,4.19,0,0,1,.84.71l.46.5s0,.06,0,0l-1.3-.75v1.18c0,.41-.05.86-.47.62a.87.87,0,0,1-.32-.34,1.14,1.14,0,0,1-.14-.58l.21.14a.73.73,0,0,0,.09.37.44.44,0,0,0,.17.17c.13.08.26.1.26-.5V19.56l-1.29-.74S34.23,18.76,34.25,18.77Zm.18-.68a.94.94,0,0,1,.18-.34,3.14,3.14,0,0,1,.18.55c0,.11-.08.16-.18.1A.39.39,0,0,1,34.44,18.09Zm.68.39a.94.94,0,0,1,.18-.34,3.14,3.14,0,0,1,.18.55c0,.11-.08.16-.18.1A.39.39,0,0,1,35.11,18.48Zm.75.43a.94.94,0,0,1,.18-.34,3.13,3.13,0,0,1,.18.55c0,.11-.08.16-.18.1A.39.39,0,0,1,35.86,18.91Zm.68.39a.94.94,0,0,1,.18-.34,3.14,3.14,0,0,1,.18.55c0,.11-.08.16-.18.1A.39.39,0,0,1,36.54,19.3Z"/><polygon class="cls-2" points="51.92 19.21 51.92 32.09 50.84 31.47 48.57 30.15 40.77 25.64 40.77 12.77 51.92 19.21"/><polygon class="cls-3" points="63.07 12.77 63.07 25.65 62.78 25.82 59.52 27.71 58.74 28.16 56.93 29.2 55.95 29.76 55.59 29.97 55.15 30.21 55.15 30.22 51.92 32.09 51.92 19.21 56.43 16.6 56.88 16.34 57.18 16.17 57.2 16.16 57.39 16.05 57.5 15.99 58.08 15.65 58.15 15.61 58.15 15.6 58.16 15.6 58.61 15.34 63.07 12.77"/><polygon class="cls-4" points="63.07 12.77 58.61 15.34 56.88 16.34 51.92 19.21 40.76 12.77 45.73 9.9 47.46 8.91 51.92 6.33 63.07 12.77"/><polygon class="cls-5" points="58.16 15.61 56.43 16.6 54.31 15.38 50.42 13.14 49.65 12.69 45.77 10.45 45.27 10.16 47 9.17 49.23 10.45 53.11 12.69 53.88 13.14 57.76 15.38 58.16 15.61"/><polygon class="cls-6" points="56.43 16.6 56.43 18.62 56.43 19.07 56.72 18.45 56.72 18.45 57.01 18.74 57.29 18.12 57.58 18.41 57.87 17.79 57.87 17.79 57.87 17.79 57.87 17.79 58.16 18.07 58.16 17.62 58.16 15.61 56.43 16.6"/><path class="cls-6" d="M46.25,9.6l-.16.09S46,9.77,57.2,16.16l.19-.11C54.38,14.33,46.49,9.81,46.25,9.6Z"/><path class="cls-7" d="M43.11,21.79v4.47l8,4.63V26.42Zm7.81,8.74-7.6-4.39v-4l7.6,4.39Zm-7.06-6.66v-.81l.38.22.2.86.12-.68,1.19.69V25c0,.56-.37.8-.84.59v.83l.67.39V27L44,26.12v-.24l.67.39v-.83A2.1,2.1,0,0,1,43.86,23.87Zm6.79,6.06L49.11,29V28.8l1.54.89Zm-1.23-2.32-.17-.1.28-1,.28,1.29-.17-.1v1.13l-.1-.06-.1-.06Zm.71.41-.17-.1.28-1,.28,1.29-.17-.1v1.13l-.1-.06-.1-.06ZM46,25.1l.45,0a2.16,2.16,0,0,1,.85.26v-.28l.21.12v.28a4.19,4.19,0,0,1,.84.71l.46.5s0,.06,0,0L47.46,26v1.18c0,.42-.05.86-.47.62a.87.87,0,0,1-.32-.34,1.14,1.14,0,0,1-.14-.58l.21.14a.73.73,0,0,0,.09.37.44.44,0,0,0,.17.17c.13.08.26.1.26-.5V25.89L46,25.15S45.94,25.09,46,25.1Zm.18-.68a.94.94,0,0,1,.18-.34,3.13,3.13,0,0,1,.18.55c0,.11-.08.16-.18.1A.39.39,0,0,1,46.14,24.42Zm.68.39a.94.94,0,0,1,.18-.34,3.14,3.14,0,0,1,.18.55c0,.11-.08.16-.18.1A.39.39,0,0,1,46.82,24.81Zm.75.43a.94.94,0,0,1,.18-.34,3.13,3.13,0,0,1,.18.55c0,.11-.08.16-.18.1A.39.39,0,0,1,47.57,25.24Zm.68.39a.94.94,0,0,1,.18-.34,3.14,3.14,0,0,1,.18.55c0,.11-.08.16-.18.1A.39.39,0,0,1,48.25,25.63Z"/><polygon class="cls-2" points="28.63 19.43 28.63 32.31 27.55 31.7 25.28 30.38 17.47 25.87 17.47 12.99 28.63 19.43"/><polygon class="cls-3" points="39.78 12.99 39.78 25.88 39.49 26.05 36.23 27.94 35.45 28.38 33.63 29.42 32.66 29.99 32.29 30.19 31.86 30.44 31.86 30.45 28.63 32.31 28.63 19.43 33.14 16.83 33.59 16.57 33.89 16.4 33.9 16.38 34.1 16.27 34.2 16.21 34.79 15.87 34.86 15.84 34.86 15.83 34.87 15.83 35.31 15.57 39.78 12.99"/><polygon class="cls-4" points="39.78 12.99 35.32 15.57 33.59 16.57 28.63 19.44 17.47 12.99 22.43 10.13 24.17 9.13 28.63 6.56 39.78 12.99"/><polygon class="cls-5" points="34.87 15.83 33.14 16.83 31.01 15.6 27.13 13.36 26.36 12.92 22.48 10.68 21.98 10.39 23.71 9.39 25.93 10.68 29.82 12.92 30.59 13.36 34.47 15.6 34.87 15.83"/><polygon class="cls-6" points="33.14 16.83 33.14 18.85 33.14 19.3 33.43 18.68 33.43 18.68 33.71 18.96 34 18.35 34.29 18.63 34.58 18.02 34.58 18.02 34.58 18.02 34.58 18.02 34.87 18.3 34.87 17.85 34.87 15.83 33.14 16.83"/><path class="cls-6" d="M23,9.83l-.16.09s-.07.08,11.11,6.47l.19-.11C31.09,14.56,23.2,10,23,9.83Z"/><path class="cls-7" d="M19.82,22v4.47l8,4.63V26.65Zm7.81,8.74L20,26.37v-4l7.6,4.39ZM20.57,24.1v-.81l.38.22.2.86.12-.68,1.19.69v.81c0,.56-.37.8-.84.59v.83l.67.39v.24l-1.54-.89V26.1l.67.39v-.83A2.1,2.1,0,0,1,20.57,24.1Zm6.79,6.06-1.54-.89V29l1.54.89Zm-1.23-2.32-.17-.1.28-1,.28,1.29-.17-.1v1.13l-.1-.06-.1-.06Zm.71.41-.17-.1.28-1,.28,1.29-.17-.1V29.5l-.1-.06-.1-.06Zm-4.17-2.92.45,0a2.16,2.16,0,0,1,.85.26v-.28l.21.12v.28a4.19,4.19,0,0,1,.84.71l.46.5s0,.06,0,0l-1.3-.75v1.18c0,.41-.05.86-.47.62a.87.87,0,0,1-.32-.34,1.14,1.14,0,0,1-.14-.58l.21.14a.73.73,0,0,0,.09.37.44.44,0,0,0,.17.17c.13.08.26.1.26-.5V26.12l-1.29-.74S22.64,25.32,22.67,25.32Zm.18-.68A.94.94,0,0,1,23,24.3a3.13,3.13,0,0,1,.18.55c0,.11-.08.16-.18.1A.39.39,0,0,1,22.85,24.65Zm.68.39a.94.94,0,0,1,.18-.34,3.14,3.14,0,0,1,.18.55c0,.11-.08.16-.18.1A.39.39,0,0,1,23.53,25Zm.75.43a.94.94,0,0,1,.18-.34,3.14,3.14,0,0,1,.18.55c0,.11-.08.16-.18.1A.39.39,0,0,1,24.28,25.47Zm.68.39a.94.94,0,0,1,.18-.34,3.14,3.14,0,0,1,.18.55c0,.11-.08.16-.18.1A.39.39,0,0,1,25,25.86Z"/><polygon class="cls-8" points="36.62 74.19 32.26 71.67 32.26 66.64 36.62 69.16 36.62 74.19"/><polygon class="cls-9" points="75.52 51.73 36.62 74.19 36.62 69.16 75.52 46.7 75.52 51.73"/><polygon class="cls-10" points="75.52 46.69 36.62 69.16 32.26 66.64 71.16 44.18 75.52 46.69"/><polygon class="cls-8" points="20.76 65.03 16.4 62.51 16.4 57.48 20.76 60 20.76 65.03"/><polygon class="cls-9" points="59.66 42.57 20.76 65.03 20.76 60 59.66 37.54 59.66 42.57"/><polygon class="cls-10" points="59.66 37.54 20.76 60 16.4 57.48 55.3 35.02 59.66 37.54"/><polygon class="cls-8" points="4.9 55.87 0.54 53.36 0.54 48.33 4.9 50.84 4.9 55.87"/><polygon class="cls-9" points="43.8 33.41 4.9 55.87 4.9 50.84 43.8 28.38 43.8 33.41"/><polygon class="cls-10" points="43.8 28.38 4.9 50.84 0.54 48.33 39.44 25.86 43.8 28.38"/><polygon class="cls-11" points="71.85 49.85 76.21 47.33 76.21 46.3 71.85 48.82 71.85 49.85"/><polygon class="cls-9" points="32.95 27.39 71.85 49.85 71.85 48.82 32.95 26.36 32.95 27.39"/><polygon class="cls-10" points="32.95 26.36 71.85 48.82 76.21 46.3 37.3 23.84 32.95 26.36"/><polygon class="cls-11" points="66.36 53.02 70.72 50.5 70.72 49.47 66.36 51.98 66.36 53.02"/><polygon class="cls-9" points="27.46 30.56 66.36 53.02 66.36 51.98 27.46 29.52 27.46 30.56"/><polygon class="cls-10" points="27.46 29.52 66.36 51.98 70.72 49.47 31.81 27.01 27.46 29.52"/><polygon class="cls-11" points="60.87 56.19 65.22 53.67 65.22 52.64 60.87 55.15 60.87 56.19"/><polygon class="cls-9" points="21.96 33.73 60.87 56.19 60.87 55.15 21.96 32.7 21.96 33.73"/><polygon class="cls-10" points="21.96 32.69 60.87 55.15 65.22 52.64 26.32 30.18 21.96 32.69"/><polygon class="cls-11" points="55.38 59.36 59.73 56.84 59.73 55.81 55.38 58.32 55.38 59.36"/><polygon class="cls-9" points="16.47 36.9 55.38 59.36 55.38 58.32 16.47 35.86 16.47 36.9"/><polygon class="cls-10" points="16.47 35.86 55.38 58.32 59.73 55.81 20.83 33.35 16.47 35.86"/><polygon class="cls-11" points="49.88 62.52 54.24 60.01 54.24 58.98 49.88 61.49 49.88 62.52"/><polygon class="cls-9" points="10.98 40.06 49.88 62.52 49.88 61.49 10.98 39.03 10.98 40.06"/><polygon class="cls-10" points="10.98 39.03 49.88 61.49 54.24 58.98 15.34 36.52 10.98 39.03"/><polygon class="cls-11" points="44.39 65.69 48.75 63.18 48.75 62.15 44.39 64.66 44.39 65.69"/><polygon class="cls-9" points="5.49 43.23 44.39 65.69 44.39 64.66 5.49 42.2 5.49 43.23"/><polygon class="cls-10" points="5.49 42.2 44.39 64.66 48.75 62.15 9.85 39.69 5.49 42.2"/><polygon class="cls-11" points="38.9 68.86 43.26 66.35 43.26 65.31 38.9 67.83 38.9 68.86"/><polygon class="cls-8" points="0 46.4 38.9 68.86 38.9 67.83 0 45.37 0 46.4"/><polygon class="cls-10" points="0 45.37 38.9 67.83 43.26 65.31 4.36 42.85 0 45.37"/><polygon class="cls-2" points="40.46 39.22 40.46 52.1 39.39 51.48 37.12 50.16 29.31 45.66 29.31 32.78 40.46 39.22"/><polygon class="cls-3" points="51.62 32.78 51.62 45.66 51.33 45.83 48.07 47.72 47.29 48.17 45.47 49.21 44.49 49.77 44.13 49.98 43.7 50.23 43.7 50.23 40.46 52.1 40.46 39.22 44.98 36.62 45.43 36.35 45.73 36.19 45.74 36.17 45.94 36.06 46.04 36 46.63 35.66 46.7 35.62 46.7 35.61 46.71 35.61 47.15 35.35 51.62 32.78"/><polygon class="cls-4" points="51.62 32.78 47.16 35.36 45.43 36.35 40.46 39.22 29.31 32.78 34.27 29.91 36 28.92 40.46 26.34 51.62 32.78"/><polygon class="cls-5" points="46.7 35.62 44.98 36.62 42.85 35.39 38.97 33.15 38.2 32.7 34.31 30.46 33.82 30.18 35.55 29.18 37.77 30.46 41.65 32.7 42.43 33.15 46.31 35.39 46.7 35.62"/><polygon class="cls-6" points="44.98 36.61 44.98 38.63 44.98 39.08 45.26 38.47 45.26 38.47 45.55 38.75 45.84 38.13 46.13 38.42 46.42 37.8 46.42 37.8 46.42 37.8 46.42 37.8 46.7 38.09 46.7 37.64 46.7 35.62 44.98 36.61"/><path class="cls-6" d="M34.8,29.61l-.16.09s-.07.08,11.11,6.47l.19-.11C42.93,34.34,35,29.82,34.8,29.61Z"/><path class="cls-7" d="M31.66,41.8v4.47l8,4.63V46.43Zm7.81,8.74-7.6-4.39v-4l7.6,4.39Zm-7.06-6.66v-.81l.38.22.2.86.12-.68,1.19.69V45c0,.56-.37.8-.84.59v.83l.67.39V47l-1.54-.89v-.24l.67.39v-.83A2.1,2.1,0,0,1,32.41,43.88Zm6.79,6.06-1.54-.89v-.24l1.54.89ZM38,47.62l-.17-.1.28-1,.28,1.29-.17-.1v1.13l-.1-.06-.1-.06Zm.71.41-.17-.1.28-1,.28,1.29-.17-.1v1.13l-.1-.06-.1-.06ZM34.5,45.11l.45,0a2.17,2.17,0,0,1,.85.26v-.28l.21.12v.28a4.19,4.19,0,0,1,.84.71l.46.5s0,.06,0,0L36,46V47.2c0,.41-.05.86-.47.62a.87.87,0,0,1-.32-.34,1.14,1.14,0,0,1-.14-.58l.21.14a.73.73,0,0,0,.09.37.44.44,0,0,0,.17.17c.13.08.26.1.26-.5V45.9l-1.29-.74S34.48,45.11,34.5,45.11Zm.18-.68a.94.94,0,0,1,.18-.34,3.14,3.14,0,0,1,.18.55c0,.11-.08.16-.18.1A.39.39,0,0,1,34.69,44.43Zm.68.39a.94.94,0,0,1,.18-.34,3.13,3.13,0,0,1,.18.55c0,.11-.08.16-.18.1A.39.39,0,0,1,35.36,44.82Zm.75.43a.94.94,0,0,1,.18-.34,3.14,3.14,0,0,1,.18.55c0,.11-.08.16-.18.1A.39.39,0,0,1,36.12,45.26Zm.68.39A.94.94,0,0,1,37,45.3a3.13,3.13,0,0,1,.18.55c0,.11-.08.16-.18.1A.39.39,0,0,1,36.79,45.65Z"/><polygon class="cls-2" points="40.46 25.87 40.46 38.75 39.39 38.13 37.12 36.81 29.31 32.3 29.31 19.43 40.46 25.87"/><polygon class="cls-3" points="51.62 19.43 51.62 32.31 51.33 32.48 48.07 34.37 47.29 34.82 45.47 35.86 44.49 36.42 44.13 36.63 43.7 36.87 43.7 36.88 40.46 38.75 40.46 25.87 44.98 23.26 45.43 23 45.73 22.83 45.74 22.82 45.94 22.71 46.04 22.65 46.63 22.31 46.7 22.27 46.7 22.26 46.71 22.26 47.15 22 51.62 19.43"/><polygon class="cls-4" points="51.62 19.43 47.16 22 45.43 23 40.46 25.87 29.31 19.43 34.27 16.56 36 15.56 40.46 12.99 51.62 19.43"/><polygon class="cls-5" points="46.7 22.27 44.98 23.26 42.85 22.04 38.97 19.8 38.2 19.35 34.31 17.11 33.82 16.82 35.55 15.83 37.77 17.11 41.65 19.35 42.43 19.8 46.31 22.04 46.7 22.27"/><polygon class="cls-6" points="44.98 23.26 44.98 25.28 44.98 25.73 45.26 25.11 45.26 25.11 45.55 25.4 45.84 24.78 46.13 25.06 46.42 24.45 46.42 24.45 46.42 24.45 46.42 24.45 46.7 24.73 46.7 24.28 46.7 22.26 44.98 23.26"/><path class="cls-6" d="M34.8,16.26l-.16.09s-.07.08,11.11,6.47l.19-.11C42.93,21,35,16.47,34.8,16.26Z"/><path class="cls-7" d="M31.66,28.45v4.47l8,4.63V33.08Zm7.81,8.74-7.6-4.39v-4l7.6,4.39Zm-7.06-6.66v-.81l.38.22.2.86.12-.68,1.19.69v.81c0,.56-.37.8-.84.59V33l.67.39v.24l-1.54-.89v-.24l.67.39v-.83A2.1,2.1,0,0,1,32.41,30.53Zm6.79,6.06-1.54-.89v-.24l1.54.89ZM38,34.27l-.17-.1.28-1,.28,1.29-.17-.1v1.13l-.1-.06-.1-.06Zm.71.41-.17-.1.28-1,.28,1.29-.17-.1v1.13l-.1-.06-.1-.06ZM34.5,31.76l.45,0a2.16,2.16,0,0,1,.85.26v-.28l.21.12v.28a4.19,4.19,0,0,1,.84.71l.46.5s0,.06,0,0L36,32.67v1.18c0,.41-.05.86-.47.62a.87.87,0,0,1-.32-.34,1.14,1.14,0,0,1-.14-.58l.21.13a.73.73,0,0,0,.09.37.44.44,0,0,0,.17.17c.13.08.26.1.26-.5V32.55l-1.29-.74S34.48,31.75,34.5,31.76Zm.18-.68a.94.94,0,0,1,.18-.34,3.14,3.14,0,0,1,.18.55c0,.11-.08.16-.18.1A.39.39,0,0,1,34.69,31.08Zm.68.39a.94.94,0,0,1,.18-.34,3.14,3.14,0,0,1,.18.55c0,.11-.08.16-.18.1A.39.39,0,0,1,35.36,31.47Zm.75.43a.94.94,0,0,1,.18-.34,3.14,3.14,0,0,1,.18.55c0,.11-.08.16-.18.1A.39.39,0,0,1,36.12,31.9Zm.68.39a.94.94,0,0,1,.18-.34,3.13,3.13,0,0,1,.18.55c0,.11-.08.16-.18.1A.39.39,0,0,1,36.79,32.29Z"/><polygon class="cls-2" points="16.97 39.18 16.97 52.06 15.9 51.44 13.63 50.12 5.82 45.62 5.82 32.74 16.97 39.18"/><polygon class="cls-3" points="28.12 32.74 28.12 45.62 27.84 45.79 24.58 47.68 23.8 48.13 21.98 49.17 21 49.73 20.64 49.94 20.21 50.19 20.21 50.19 16.97 52.06 16.97 39.18 21.49 36.58 21.93 36.31 22.23 36.14 22.25 36.13 22.44 36.02 22.55 35.96 23.14 35.62 23.2 35.58 23.2 35.57 23.21 35.57 23.66 35.31 28.12 32.74"/><polygon class="cls-4" points="28.12 32.74 23.66 35.31 21.93 36.31 16.97 39.18 5.82 32.74 10.78 29.87 12.51 28.88 16.97 26.3 28.12 32.74"/><polygon class="cls-5" points="23.21 35.58 21.48 36.58 19.36 35.35 15.47 33.11 14.71 32.66 10.82 30.42 10.33 30.14 12.06 29.14 14.28 30.42 18.16 32.66 18.93 33.11 22.81 35.35 23.21 35.58"/><polygon class="cls-6" points="21.48 36.57 21.48 38.59 21.48 39.04 21.77 38.43 21.77 38.43 22.06 38.71 22.35 38.09 22.63 38.38 22.92 37.76 22.92 37.76 22.92 37.76 22.92 37.76 23.21 38.04 23.21 37.59 23.21 35.58 21.48 36.57"/><path class="cls-6" d="M11.31,29.57l-.16.09s-.07.08,11.11,6.47l.19-.11C19.43,34.3,11.54,29.78,11.31,29.57Z"/><path class="cls-7" d="M8.17,41.76v4.47l8,4.63V46.39ZM16,50.5l-7.6-4.39v-4L16,46.51ZM8.92,43.84V43l.38.22.2.86.12-.68,1.19.69v.81c0,.56-.37.8-.84.59v.83l.67.39V47l-1.54-.89v-.24l.67.39v-.83A2.1,2.1,0,0,1,8.92,43.84Zm6.79,6.06L14.16,49v-.24l1.54.89Zm-1.23-2.32-.17-.1.28-1,.28,1.29-.17-.1v1.13l-.1-.06-.1-.06Zm.71.41-.17-.1.28-1,.28,1.29-.17-.1v1.13l-.1-.06-.1-.06ZM11,45.07l.45,0a2.16,2.16,0,0,1,.85.26v-.28l.21.12v.28a4.19,4.19,0,0,1,.84.71l.46.5s0,.06,0,0L12.51,46v1.18c0,.41-.05.86-.47.62a.87.87,0,0,1-.32-.34,1.14,1.14,0,0,1-.14-.58l.21.14a.73.73,0,0,0,.09.37.44.44,0,0,0,.17.17c.13.08.26.1.26-.5V45.86L11,45.12S11,45.07,11,45.07Zm.18-.68a.94.94,0,0,1,.18-.34,3.13,3.13,0,0,1,.18.55c0,.11-.08.16-.18.1A.39.39,0,0,1,11.19,44.39Zm.68.39a.94.94,0,0,1,.18-.34,3.14,3.14,0,0,1,.18.55c0,.11-.08.16-.18.1A.39.39,0,0,1,11.87,44.78Zm.75.43a.94.94,0,0,1,.18-.34,3.14,3.14,0,0,1,.18.55c0,.11-.08.16-.18.1A.39.39,0,0,1,12.62,45.22Zm.68.39a.94.94,0,0,1,.18-.34,3.13,3.13,0,0,1,.18.55c0,.11-.08.16-.18.1A.39.39,0,0,1,13.3,45.61Z"/><polygon class="cls-2" points="28.39 45.7 28.39 58.58 27.31 57.96 25.04 56.64 17.23 52.13 17.23 39.26 28.39 45.7"/><polygon class="cls-3" points="39.54 39.26 39.54 52.14 39.25 52.31 35.99 54.2 35.21 54.65 33.4 55.69 32.42 56.25 32.05 56.46 31.62 56.7 31.62 56.71 28.39 58.58 28.39 45.7 32.9 43.09 33.35 42.83 33.65 42.66 33.66 42.65 33.86 42.54 33.97 42.48 34.55 42.14 34.62 42.1 34.62 42.09 34.63 42.09 35.08 41.83 39.54 39.26"/><polygon class="cls-4" points="39.54 39.26 35.08 41.83 33.35 42.83 28.39 45.7 17.23 39.26 22.2 36.39 23.93 35.4 28.39 32.82 39.54 39.26"/><polygon class="cls-5" points="34.63 42.1 32.9 43.09 30.77 41.87 26.89 39.63 26.12 39.18 22.24 36.94 21.74 36.65 23.47 35.66 25.7 36.94 29.58 39.18 30.35 39.63 34.23 41.87 34.63 42.1"/><polygon class="cls-6" points="32.9 43.09 32.9 45.11 32.9 45.56 33.19 44.94 33.19 44.94 33.47 45.23 33.76 44.61 34.05 44.89 34.34 44.28 34.34 44.28 34.34 44.28 34.34 44.28 34.63 44.56 34.63 44.11 34.63 42.09 32.9 43.09"/><path class="cls-6" d="M22.72,36.09l-.16.09s-.07.08,11.11,6.47l.19-.11C30.85,40.82,23,36.3,22.72,36.09Z"/><path class="cls-7" d="M19.58,48.28v4.47l8,4.63V52.91ZM27.39,57l-7.6-4.39v-4L27.39,53Zm-7.06-6.66v-.81l.38.22.2.86L21,50l1.19.69v.81c0,.56-.37.8-.84.59v.83l.67.39v.24l-1.54-.89v-.24l.67.39v-.83A2.1,2.1,0,0,1,20.33,50.36Zm6.79,6.06-1.54-.89v-.24l1.54.89ZM25.89,54.1l-.17-.1L26,53l.28,1.29-.17-.1v1.14L26,55.3l-.1-.06Zm.71.41-.17-.1.28-1L27,54.73l-.17-.1v1.13l-.1-.06-.1-.06Zm-4.17-2.92.45,0a2.16,2.16,0,0,1,.85.26V51.6l.21.12V52a4.19,4.19,0,0,1,.84.71l.46.5s0,.06,0,0l-1.3-.75v1.18c0,.41-.05.86-.47.62a.87.87,0,0,1-.32-.34,1.14,1.14,0,0,1-.14-.58l.21.14a.73.73,0,0,0,.09.37.44.44,0,0,0,.17.17c.13.08.26.1.26-.5V52.38l-1.29-.74S22.4,51.58,22.43,51.59Zm.18-.68a.94.94,0,0,1,.18-.34,3.13,3.13,0,0,1,.18.55c0,.11-.08.16-.18.1A.39.39,0,0,1,22.61,50.91Zm.68.39a.94.94,0,0,1,.18-.34,3.14,3.14,0,0,1,.18.55c0,.11-.08.16-.18.1A.39.39,0,0,1,23.29,51.3Zm.75.43a.94.94,0,0,1,.18-.34,3.14,3.14,0,0,1,.18.55c0,.11-.08.16-.18.1A.39.39,0,0,1,24,51.73Zm.68.39a.94.94,0,0,1,.18-.34,3.13,3.13,0,0,1,.18.55c0,.11-.08.16-.18.1A.39.39,0,0,1,24.71,52.12Z"/><polygon class="cls-2" points="63.96 38.84 63.96 51.72 62.89 51.1 60.61 49.79 52.8 45.28 52.8 32.4 63.96 38.84"/><polygon class="cls-3" points="75.11 32.4 75.11 45.28 74.82 45.45 71.56 47.34 70.79 47.79 68.97 48.83 67.99 49.39 67.63 49.6 67.19 49.85 67.19 49.85 63.96 51.72 63.96 38.84 68.47 36.24 68.92 35.98 69.22 35.8 69.24 35.79 69.43 35.68 69.54 35.62 70.12 35.28 70.19 35.24 70.19 35.23 70.2 35.23 70.65 34.97 75.11 32.4"/><polygon class="cls-4" points="75.11 32.4 70.65 34.98 68.92 35.97 63.96 38.84 52.8 32.4 57.77 29.54 59.5 28.54 63.96 25.96 75.11 32.4"/><polygon class="cls-5" points="70.2 35.24 68.47 36.24 66.35 35.01 62.46 32.77 61.69 32.33 57.81 30.08 57.31 29.8 59.05 28.8 61.27 30.08 65.15 32.33 65.92 32.77 69.8 35.01 70.2 35.24"/><polygon class="cls-6" points="68.47 36.23 68.47 38.25 68.47 38.7 68.76 38.09 68.76 38.09 69.05 38.37 69.33 37.76 69.62 38.04 69.91 37.42 69.91 37.42 69.91 37.42 69.91 37.42 70.2 37.71 70.2 37.26 70.2 35.24 68.47 36.23"/><path class="cls-6" d="M58.29,29.23l-.16.09s-.07.08,11.11,6.47l.19-.11C66.42,34,58.53,29.44,58.29,29.23Z"/><path class="cls-7" d="M55.15,41.42V45.9l8,4.63V46.05ZM63,50.16l-7.6-4.39v-4L63,46.18ZM55.9,43.5V42.7l.38.22.2.86.12-.68,1.19.69v.81c0,.56-.37.8-.84.59V46l.67.39v.24l-1.54-.89v-.24l.67.39v-.83A2.1,2.1,0,0,1,55.9,43.5Zm6.79,6.06-1.54-.89v-.24l1.54.89Zm-1.23-2.32-.17-.1.28-1,.28,1.29-.17-.1V48.5l-.1-.06-.1-.06Zm.71.41-.17-.1.28-1,.28,1.29-.17-.1v1.13l-.1-.06-.1-.06ZM58,44.73l.45,0a2.16,2.16,0,0,1,.85.26v-.28l.21.12v.28a4.19,4.19,0,0,1,.84.71l.46.5s0,.06,0,0l-1.3-.75v1.18c0,.41-.05.86-.47.62a.87.87,0,0,1-.32-.34,1.14,1.14,0,0,1-.14-.58l.21.14a.73.73,0,0,0,.09.37.44.44,0,0,0,.17.17c.13.08.26.1.26-.5V45.52L58,44.78S58,44.73,58,44.73Zm.18-.68a.94.94,0,0,1,.18-.34,3.13,3.13,0,0,1,.18.55c0,.11-.08.16-.18.1A.39.39,0,0,1,58.18,44.05Zm.68.39A.94.94,0,0,1,59,44.1a3.14,3.14,0,0,1,.18.55c0,.11-.08.16-.18.1A.39.39,0,0,1,58.86,44.44Zm.75.43a.94.94,0,0,1,.18-.34,3.13,3.13,0,0,1,.18.55c0,.11-.08.16-.18.1A.39.39,0,0,1,59.61,44.88Zm.68.39a.94.94,0,0,1,.18-.34,3.14,3.14,0,0,1,.18.55c0,.11-.08.16-.18.1A.39.39,0,0,1,60.29,45.27Z"/><polygon class="cls-2" points="52.09 45.69 52.09 58.57 51.02 57.95 48.75 56.63 40.94 52.13 40.94 39.25 52.09 45.69"/><polygon class="cls-3" points="63.24 39.25 63.24 52.13 62.96 52.3 59.7 54.19 58.92 54.64 57.1 55.68 56.12 56.24 55.76 56.45 55.33 56.7 55.33 56.7 52.09 58.57 52.09 45.69 56.61 43.09 57.06 42.82 57.36 42.66 57.37 42.64 57.56 42.53 57.67 42.47 58.26 42.13 58.33 42.09 58.33 42.08 58.34 42.08 58.78 41.82 63.24 39.25"/><polygon class="cls-4" points="63.25 39.25 58.79 41.83 57.06 42.82 52.09 45.69 40.94 39.25 45.9 36.38 47.63 35.39 52.09 32.81 63.25 39.25"/><polygon class="cls-5" points="58.33 42.09 56.61 43.09 54.48 41.86 50.6 39.62 49.83 39.17 45.95 36.93 45.45 36.65 47.18 35.65 49.4 36.93 53.28 39.17 54.06 39.62 57.94 41.86 58.33 42.09"/><polygon class="cls-6" points="56.61 43.08 56.61 45.1 56.61 45.55 56.9 44.94 56.9 44.94 57.18 45.22 57.47 44.6 57.76 44.89 58.05 44.27 58.05 44.27 58.05 44.27 58.05 44.27 58.33 44.55 58.33 44.11 58.33 42.09 56.61 43.08"/><path class="cls-6" d="M46.43,36.08l-.16.09s-.07.08,11.11,6.47l.19-.11C54.56,40.81,46.67,36.29,46.43,36.08Z"/><path class="cls-7" d="M43.29,48.27v4.47l8,4.63V52.9ZM51.1,57l-7.6-4.39v-4L51.1,53ZM44,50.35v-.81l.38.22.2.86.12-.68,1.19.69v.81c0,.56-.37.8-.84.59v.83l.67.39v.24l-1.54-.89v-.24l.67.39v-.83A2.1,2.1,0,0,1,44,50.35Zm6.79,6.06-1.54-.89v-.24l1.54.89ZM49.6,54.09l-.17-.1.28-1L50,54.31l-.17-.1v1.13l-.1-.06-.1-.06Zm.71.41-.17-.1.28-1,.28,1.29-.17-.1v1.13l-.1-.06-.1-.06Zm-4.17-2.92.45,0a2.16,2.16,0,0,1,.85.26v-.28l.21.12V52a4.19,4.19,0,0,1,.84.71l.46.5s0,.06,0,0l-1.3-.75v1.18c0,.41-.05.86-.47.62a.87.87,0,0,1-.32-.34,1.14,1.14,0,0,1-.14-.58l.21.14a.73.73,0,0,0,.09.37.44.44,0,0,0,.17.17c.13.08.26.1.26-.5V52.37l-1.29-.74S46.11,51.58,46.13,51.58Zm.18-.68a.94.94,0,0,1,.18-.34,3.14,3.14,0,0,1,.18.55c0,.11-.08.16-.18.1A.39.39,0,0,1,46.32,50.9Zm.68.39a.94.94,0,0,1,.18-.34,3.14,3.14,0,0,1,.18.55c0,.11-.08.16-.18.1A.39.39,0,0,1,47,51.29Zm.75.43a.94.94,0,0,1,.18-.34,3.14,3.14,0,0,1,.18.55c0,.11-.08.16-.18.1A.39.39,0,0,1,47.75,51.73Zm.68.39a.94.94,0,0,1,.18-.34,3.14,3.14,0,0,1,.18.55c0,.11-.08.16-.18.1A.39.39,0,0,1,48.42,52.12Z"/><polygon class="cls-2" points="40.23 52.54 40.23 65.42 39.16 64.8 36.88 63.48 29.08 58.98 29.08 46.1 40.23 52.54"/><polygon class="cls-3" points="51.38 46.1 51.38 58.98 51.1 59.15 47.84 61.04 47.06 61.49 45.24 62.53 44.26 63.09 43.9 63.3 43.47 63.55 43.47 63.55 40.23 65.42 40.23 52.54 44.75 49.94 45.19 49.67 45.49 49.5 45.51 49.49 45.7 49.38 45.81 49.32 46.4 48.98 46.47 48.94 46.47 48.93 46.47 48.93 46.92 48.67 51.38 46.1"/><polygon class="cls-4" points="51.38 46.1 46.92 48.68 45.2 49.67 40.23 52.54 29.08 46.1 34.04 43.23 35.77 42.24 40.23 39.66 51.38 46.1"/><polygon class="cls-5" points="46.47 48.94 44.74 49.94 42.62 48.71 38.73 46.47 37.97 46.02 34.08 43.78 33.59 43.5 35.32 42.5 37.54 43.78 41.42 46.02 42.19 46.47 46.07 48.71 46.47 48.94"/><polygon class="cls-6" points="44.74 49.93 44.74 51.95 44.74 52.4 45.03 51.79 45.03 51.79 45.32 52.07 45.61 51.45 45.89 51.74 46.18 51.12 46.18 51.12 46.18 51.12 46.18 51.12 46.47 51.41 46.47 50.96 46.47 48.94 44.74 49.93"/><path class="cls-6" d="M34.57,42.93,34.4,43s-.07.08,11.11,6.46l.19-.11C42.69,47.66,34.8,43.14,34.57,42.93Z"/><path class="cls-7" d="M31.43,55.12v4.47l8,4.63V59.75Zm7.81,8.74-7.6-4.39v-4l7.6,4.39ZM32.18,57.2V56.4l.38.22.2.86.12-.68,1.19.69v.81c0,.56-.37.8-.84.59v.83l.67.39v.24l-1.54-.89v-.24l.67.39v-.83A2.1,2.1,0,0,1,32.18,57.2ZM39,63.27l-1.54-.89v-.24L39,63Zm-1.23-2.32-.17-.1.28-1,.28,1.29-.17-.1V62.2l-.1-.06-.1-.06Zm.71.41-.17-.1.28-1,.28,1.29-.17-.1v1.13l-.1-.06-.1-.06Zm-4.17-2.92.45,0a2.17,2.17,0,0,1,.85.26v-.28l.21.12v.28a4.19,4.19,0,0,1,.84.71l.46.5s0,.06,0,0l-1.3-.75v1.18c0,.41-.05.86-.47.62A.87.87,0,0,1,35,60.8a1.14,1.14,0,0,1-.14-.58l.21.13a.73.73,0,0,0,.09.37.44.44,0,0,0,.17.17c.13.08.26.1.26-.5V59.22l-1.29-.74S34.25,58.43,34.27,58.43Zm.18-.68a.94.94,0,0,1,.18-.34,3.14,3.14,0,0,1,.18.55c0,.11-.08.16-.18.1A.39.39,0,0,1,34.45,57.75Zm.68.39a.94.94,0,0,1,.18-.34,3.14,3.14,0,0,1,.18.55c0,.11-.08.16-.18.1A.39.39,0,0,1,35.13,58.14Zm.75.43a.94.94,0,0,1,.18-.34,3.14,3.14,0,0,1,.18.55c0,.11-.08.16-.18.1A.39.39,0,0,1,35.88,58.58Zm.68.39a.94.94,0,0,1,.18-.34,3.13,3.13,0,0,1,.18.55c0,.11-.08.16-.18.1A.39.39,0,0,1,36.56,59Z"/><polygon class="cls-2" points="16.97 26.01 16.97 38.88 15.9 38.27 13.63 36.95 5.82 32.44 5.82 19.56 16.97 26.01"/><polygon class="cls-3" points="28.12 19.56 28.12 32.45 27.84 32.62 24.58 34.51 23.8 34.95 21.98 35.99 21 36.56 20.64 36.77 20.21 37.01 20.21 37.02 16.97 38.88 16.97 26.01 21.49 23.4 21.93 23.14 22.23 22.97 22.25 22.95 22.44 22.85 22.55 22.79 23.14 22.45 23.2 22.41 23.2 22.4 23.21 22.4 23.66 22.14 28.12 19.56"/><polygon class="cls-4" points="28.12 19.57 23.66 22.14 21.93 23.14 16.97 26.01 5.82 19.57 10.78 16.7 12.51 15.7 16.97 13.13 28.12 19.57"/><polygon class="cls-5" points="23.21 22.4 21.48 23.4 19.36 22.18 15.47 19.93 14.71 19.49 10.82 17.25 10.33 16.96 12.06 15.97 14.28 17.25 18.16 19.49 18.93 19.93 22.81 22.18 23.21 22.4"/><polygon class="cls-6" points="21.48 23.4 21.48 25.42 21.48 25.87 21.77 25.25 21.77 25.25 22.06 25.54 22.35 24.92 22.63 25.2 22.92 24.59 22.92 24.59 22.92 24.59 22.92 24.59 23.21 24.87 23.21 24.42 23.21 22.4 21.48 23.4"/><path class="cls-6" d="M11.31,16.4l-.16.09s-.07.08,11.11,6.47l.19-.11C19.43,21.13,11.54,16.61,11.31,16.4Z"/><path class="cls-7" d="M8.17,28.59v4.47l8,4.63V33.22ZM16,37.33l-7.6-4.39V29L16,33.34ZM8.92,30.67v-.81l.38.22.2.86.12-.68,1.19.69v.81c0,.56-.37.8-.84.59v.83l.67.39v.24l-1.54-.89v-.24l.67.39v-.83A2.1,2.1,0,0,1,8.92,30.67Zm6.79,6.06-1.54-.89V35.6l1.54.89Zm-1.23-2.32-.17-.1.28-1,.28,1.29-.17-.1v1.13l-.1-.06-.1-.06Zm.71.41-.17-.1.28-1L15.56,35l-.17-.1v1.13l-.1-.06-.1-.06ZM11,31.89l.45,0a2.16,2.16,0,0,1,.85.26v-.28l.21.12v.28a4.19,4.19,0,0,1,.84.71l.46.5s0,.06,0,0l-1.3-.75V34c0,.41-.05.86-.47.62a.87.87,0,0,1-.32-.34,1.14,1.14,0,0,1-.14-.58l.21.14a.73.73,0,0,0,.09.37.44.44,0,0,0,.17.17c.13.08.26.1.26-.5V32.69L11,31.95S11,31.89,11,31.89Zm.18-.68a.94.94,0,0,1,.18-.34,3.14,3.14,0,0,1,.18.55c0,.11-.08.16-.18.1A.39.39,0,0,1,11.19,31.22Zm.68.39a.94.94,0,0,1,.18-.34,3.14,3.14,0,0,1,.18.55c0,.11-.08.16-.18.1A.39.39,0,0,1,11.87,31.61Zm.75.43a.94.94,0,0,1,.18-.34,3.13,3.13,0,0,1,.18.55c0,.11-.08.16-.18.1A.39.39,0,0,1,12.62,32Zm.68.39a.94.94,0,0,1,.18-.34,3.13,3.13,0,0,1,.18.55c0,.11-.08.16-.18.1A.39.39,0,0,1,13.3,32.43Z"/><polygon class="cls-2" points="28.63 32.74 28.63 45.62 27.55 45 25.28 43.68 17.47 39.17 17.47 26.3 28.63 32.74"/><polygon class="cls-3" points="39.78 26.3 39.78 39.18 39.49 39.35 36.23 41.24 35.45 41.69 33.63 42.73 32.66 43.29 32.29 43.5 31.86 43.74 31.86 43.75 28.63 45.62 28.63 32.74 33.14 30.13 33.59 29.87 33.89 29.7 33.9 29.69 34.1 29.58 34.2 29.52 34.79 29.18 34.86 29.14 34.86 29.13 34.87 29.13 35.31 28.87 39.78 26.3"/><polygon class="cls-4" points="39.78 26.3 35.32 28.87 33.59 29.87 28.63 32.74 17.47 26.3 22.43 23.43 24.17 22.43 28.63 19.86 39.78 26.3"/><polygon class="cls-5" points="34.87 29.14 33.14 30.13 31.01 28.91 27.13 26.67 26.36 26.22 22.48 23.98 21.98 23.69 23.71 22.7 25.93 23.98 29.82 26.22 30.59 26.67 34.47 28.91 34.87 29.14"/><polygon class="cls-6" points="33.14 30.13 33.14 32.15 33.14 32.6 33.43 31.98 33.43 31.98 33.71 32.27 34 31.65 34.29 31.93 34.58 31.32 34.58 31.32 34.58 31.32 34.58 31.32 34.87 31.6 34.87 31.15 34.87 29.13 33.14 30.13"/><path class="cls-6" d="M23,23.13l-.16.09s-.07.08,11.11,6.47l.19-.11C31.09,27.86,23.2,23.34,23,23.13Z"/><path class="cls-7" d="M19.82,35.32v4.47l8,4.63V40Zm7.81,8.74L20,39.67v-4l7.6,4.39ZM20.57,37.4v-.81l.38.22.2.86.12-.68,1.19.69v.81c0,.56-.37.8-.84.59v.83l.67.39v.24l-1.54-.89V39.4l.67.39V39A2.1,2.1,0,0,1,20.57,37.4Zm6.79,6.06-1.54-.89v-.24l1.54.89Zm-1.23-2.32L26,41l.28-1,.28,1.29-.17-.1V42.4l-.1-.06-.1-.06Zm.71.41-.17-.1.28-1,.28,1.29-.17-.1v1.14l-.1-.06-.1-.06Zm-4.17-2.92.45,0a2.16,2.16,0,0,1,.85.26v-.28l.21.12V39a4.19,4.19,0,0,1,.84.71l.46.5s0,.06,0,0l-1.3-.75v1.18c0,.41-.05.86-.47.62a.87.87,0,0,1-.32-.34,1.14,1.14,0,0,1-.14-.58l.21.14a.73.73,0,0,0,.09.37.44.44,0,0,0,.17.17c.13.08.26.1.26-.5V39.42l-1.29-.74S22.64,38.62,22.67,38.62Zm.18-.68A.94.94,0,0,1,23,37.6a3.13,3.13,0,0,1,.18.55c0,.11-.08.16-.18.1A.39.39,0,0,1,22.85,37.95Zm.68.39A.94.94,0,0,1,23.7,38a3.14,3.14,0,0,1,.18.55c0,.11-.08.16-.18.1A.39.39,0,0,1,23.53,38.34Zm.75.43a.94.94,0,0,1,.18-.34,3.14,3.14,0,0,1,.18.55c0,.11-.08.16-.18.1A.39.39,0,0,1,24.28,38.77Zm.68.39a.94.94,0,0,1,.18-.34,3.14,3.14,0,0,1,.18.55c0,.11-.08.16-.18.1A.39.39,0,0,1,25,39.16Z"/><polygon class="cls-2" points="63.78 25.76 63.78 38.64 62.71 38.02 60.44 36.7 52.63 32.19 52.63 19.32 63.78 25.76"/><polygon class="cls-3" points="74.93 19.32 74.93 32.2 74.65 32.37 71.39 34.26 70.61 34.71 68.79 35.75 67.81 36.31 67.45 36.52 67.02 36.76 67.02 36.77 63.78 38.64 63.78 25.76 68.3 23.15 68.74 22.89 69.04 22.72 69.06 22.71 69.25 22.6 69.36 22.54 69.95 22.2 70.02 22.16 70.02 22.15 70.02 22.15 70.47 21.89 74.93 19.32"/><polygon class="cls-4" points="74.93 19.32 70.47 21.89 68.75 22.89 63.78 25.76 52.63 19.32 57.59 16.45 59.32 15.46 63.78 12.88 74.93 19.32"/><polygon class="cls-5" points="70.02 22.16 68.29 23.15 66.17 21.93 62.28 19.69 61.52 19.24 57.63 17 57.14 16.71 58.87 15.72 61.09 17 64.97 19.24 65.74 19.69 69.63 21.93 70.02 22.16"/><polygon class="cls-6" points="68.29 23.15 68.29 25.17 68.29 25.62 68.58 25 68.58 25 68.87 25.29 69.16 24.67 69.44 24.95 69.73 24.34 69.73 24.34 69.73 24.34 69.73 24.34 70.02 24.62 70.02 24.17 70.02 22.15 68.29 23.15"/><path class="cls-6" d="M58.12,16.15l-.16.09s-.07.08,11.11,6.47l.19-.11C66.24,20.88,58.35,16.36,58.12,16.15Z"/><path class="cls-7" d="M55,28.34v4.47l8,4.63V33Zm7.81,8.74-7.6-4.39v-4l7.6,4.39Zm-7.06-6.66v-.81l.38.22.2.86.12-.68,1.19.69v.81c0,.56-.37.8-.84.59v.83l.67.39v.24l-1.54-.89v-.24l.67.39V32A2.1,2.1,0,0,1,55.73,30.42Zm6.79,6.06L61,35.59v-.24l1.54.89Zm-1.23-2.32-.17-.1.28-1,.28,1.29-.17-.1v1.13l-.1-.06-.1-.06Zm.71.41-.17-.1.28-1,.28,1.29-.17-.1v1.13l-.1-.06L62,35.7Zm-4.17-2.92.45,0a2.16,2.16,0,0,1,.85.26v-.28l.21.12v.28a4.19,4.19,0,0,1,.84.71l.46.5s0,.06,0,0l-1.3-.75v1.18c0,.41-.05.86-.47.62a.87.87,0,0,1-.32-.34,1.14,1.14,0,0,1-.14-.58l.21.14a.73.73,0,0,0,.09.37.44.44,0,0,0,.17.17c.13.08.26.1.26-.5V32.44l-1.29-.74S57.8,31.64,57.82,31.64ZM58,31a.94.94,0,0,1,.18-.34,3.14,3.14,0,0,1,.18.55c0,.11-.08.16-.18.1A.39.39,0,0,1,58,31Zm.68.39a.94.94,0,0,1,.18-.34,3.14,3.14,0,0,1,.18.55c0,.11-.08.16-.18.1A.39.39,0,0,1,58.68,31.36Zm.75.43a.94.94,0,0,1,.18-.34,3.13,3.13,0,0,1,.18.55c0,.11-.08.16-.18.1A.39.39,0,0,1,59.43,31.79Zm.68.39a.94.94,0,0,1,.18-.34,3.14,3.14,0,0,1,.18.55c0,.11-.08.16-.18.1A.39.39,0,0,1,60.11,32.18Z"/><polygon class="cls-2" points="52.2 32.09 52.2 44.97 51.13 44.35 48.85 43.03 41.04 38.52 41.04 25.64 52.2 32.09"/><polygon class="cls-3" points="63.35 25.64 63.35 38.53 63.06 38.7 59.8 40.59 59.02 41.03 57.21 42.08 56.23 42.64 55.87 42.85 55.43 43.09 55.43 43.1 52.2 44.97 52.2 32.09 56.71 29.48 57.16 29.22 57.46 29.05 57.48 29.04 57.67 28.93 57.78 28.87 58.36 28.53 58.43 28.49 58.43 28.48 58.44 28.48 58.89 28.22 63.35 25.64"/><polygon class="cls-4" points="63.35 25.65 58.89 28.22 57.16 29.22 52.2 32.09 41.04 25.65 46.01 22.78 47.74 21.79 52.2 19.21 63.35 25.65"/><polygon class="cls-5" points="58.44 28.48 56.71 29.48 54.59 28.26 50.7 26.02 49.93 25.57 46.05 23.33 45.55 23.04 47.28 22.05 49.51 23.33 53.39 25.57 54.16 26.02 58.04 28.26 58.44 28.48"/><polygon class="cls-6" points="56.71 29.48 56.71 31.5 56.71 31.95 57 31.33 57 31.33 57.28 31.62 57.57 31 57.86 31.28 58.15 30.67 58.15 30.67 58.15 30.67 58.15 30.67 58.44 30.95 58.44 30.5 58.44 28.48 56.71 29.48"/><path class="cls-6" d="M46.53,22.48l-.16.09s-.07.08,11.11,6.47l.19-.11C54.66,27.21,46.77,22.69,46.53,22.48Z"/><path class="cls-7" d="M43.39,34.67v4.47l8,4.63V39.3Zm7.81,8.74L43.6,39V35l7.6,4.39Zm-7.06-6.66v-.81l.38.22.2.86.12-.68L46,37v.81c0,.56-.37.8-.84.59v.83l.67.39v.24L44.31,39v-.24l.67.39v-.83A2.1,2.1,0,0,1,44.14,36.75Zm6.79,6.06-1.54-.89v-.24l1.54.89ZM49.7,40.49l-.17-.1.28-1,.28,1.29-.17-.1v1.13l-.1-.06-.1-.06Zm.71.41-.17-.1.28-1,.28,1.29-.17-.1v1.13l-.1-.06-.1-.06ZM46.24,38l.45,0a2.17,2.17,0,0,1,.85.26V38l.21.12v.28a4.19,4.19,0,0,1,.84.71l.46.5s0,.06,0,0l-1.3-.75v1.18c0,.42-.05.86-.47.62a.87.87,0,0,1-.32-.34,1.14,1.14,0,0,1-.14-.58l.21.14a.73.73,0,0,0,.09.37.44.44,0,0,0,.17.17c.13.08.26.1.26-.5V38.77L46.25,38S46.22,38,46.24,38Zm.18-.68A.94.94,0,0,1,46.6,37a3.13,3.13,0,0,1,.18.55c0,.11-.08.16-.18.1A.39.39,0,0,1,46.42,37.3Zm.68.39a.94.94,0,0,1,.18-.34,3.14,3.14,0,0,1,.18.55c0,.11-.08.16-.18.1A.39.39,0,0,1,47.1,37.69Zm.75.43a.94.94,0,0,1,.18-.34,3.13,3.13,0,0,1,.18.55c0,.11-.08.16-.18.1A.39.39,0,0,1,47.85,38.12Zm.68.39a.94.94,0,0,1,.18-.34,3.14,3.14,0,0,1,.18.55c0,.11-.08.16-.18.1A.39.39,0,0,1,48.52,38.51Z"/><polygon class="cls-12" points="28.39 58.58 29.08 58.62 29.08 58.18 28.39 58.58"/><polygon class="cls-12" points="16.97 52.06 17.23 52.06 17.23 51.91 16.97 52.06"/><polygon class="cls-12" points="28.63 45.62 42.68 45.62 48 42.54 48 35.46 41.04 27.7 39.78 26.76 28.63 32.74 28.63 45.62"/><polygon class="cls-12" points="74.82 45.45 75.11 45.28 75.11 32.4 74.85 32.25 74.93 32.2 74.93 19.32 63.78 25.76 63.78 26.3 63.35 25.65 52.2 32.09 52.2 44.97 53.43 44.92 52.09 45.69 52.09 46.92 51.38 46.1 40.03 52.83 40.23 65.42 43.09 65.42 76.21 46.3 74.82 45.45"/></g></g></g></svg>