<svg xmlns="http://www.w3.org/2000/svg" viewBox="0 0 37.81 86.32"><defs><style>.cls-1{isolation:isolate;}.cls-2{fill:#1f3336;}.cls-3{fill:#335359;}.cls-4{fill:#335257;}.cls-5{fill:#426970;}.cls-6{fill:#edb58e;}.cls-7{fill:#f7b880;}.cls-8{fill:#eda86a;}.cls-9{fill:#f7c68d;}.cls-10{fill:#d69e67;}.cls-11{fill:#ba8552;}.cls-12{fill:#453224;}.cls-13{fill:#de924e;}.cls-14{fill:#36a9e1;}.cls-15{fill:#3bbaf7;}.cls-16{fill:#fabf96;}.cls-17{fill:#63614d;}.cls-18{fill:#d1ccc0;mix-blend-mode:multiply;}.cls-19{fill:#c9fffb;opacity:0.5;mix-blend-mode:soft-light;}</style></defs><title>i3</title><g class="cls-1"><g id="Слой_2" data-name="Слой 2"><g id="Layer_3" data-name="Layer 3"><path class="cls-2" d="M20.13,74.45c-.05.64-3.34,3.68-6.27,6a5.54,5.54,0,0,1-3.22,1,10.07,10.07,0,0,1-1.34,0,11,11,0,0,1-2.08-.44l-.41-.14h0c-1.7-.62-2.94-1.66-2.8-2.83.34-2.81,2.7-3.95,4.6-4.32a7.89,7.89,0,0,0,2.46-1,4.87,4.87,0,0,0,1.14-.94l4.14-.92,2.89-.64c.46.32.72,1.61.84,2.71A10.52,10.52,0,0,1,20.13,74.45Z"/><path class="cls-3" d="M19.91,53c-.65,3.44-1,5.89-1,5.89S20,69.07,20.59,71a1.75,1.75,0,0,1-.53,1.86,5.44,5.44,0,0,1-3,1.13l-.34,0h-.23l-.33,0a13,13,0,0,1-1.36,0l-.43,0L14,73.91a8.68,8.68,0,0,1-1.22-.3l-.3-.12-.31-.13a1.6,1.6,0,0,1-.29-.15l-.15-.09a.57.57,0,0,0-.13-.08,2,2,0,0,1-.39-.3l0-.05s-.05,0-.08-.06h0a1.86,1.86,0,0,1-.51-.9,116,116,0,0,1-2-13.21,12.25,12.25,0,0,1,.08-1.61c0-.15,0-.31,0-.48s0,0,0-.08c.28-2.51.9-6.51,1.4-9.56.38-2.29.69-4,.75-4.26C11,41.91,22.39,42,22.39,42c-.44,1.63-.85,3.31-1.22,5C20.68,49.1,20.26,51.22,19.91,53Z"/><path class="cls-2" d="M29.57,79.36c-.06.65-3.35,3.68-6.27,6a6.66,6.66,0,0,1-4.9.89h0c-2.67-.36-5.16-1.73-5-3.36a4.63,4.63,0,0,1,1.36-2.76,5,5,0,0,1,1-.76h0a7.49,7.49,0,0,1,2.2-.79,5.36,5.36,0,0,0,.64-.18,7.81,7.81,0,0,0,1.82-.83,5,5,0,0,0,1.14-.93l1.14-.26h0L28.66,75c.46.32.71,1.6.84,2.71A12,12,0,0,1,29.57,79.36Z"/><path class="cls-4" d="M29.5,77.74a6.15,6.15,0,0,1-3.65,1.2,11.21,11.21,0,0,1-1.42,0l-.7-.07c-.23,0-.46-.07-.68-.12h0l-.62-.16-.62-.22-.07,0a.67.67,0,0,1-.12-.06,3.4,3.4,0,0,1-.5-.26l-.33-.23a3.41,3.41,0,0,1-.28-.26,2.05,2.05,0,0,1-.37-.52,1.74,1.74,0,0,1-.14-.38c-.11-.46-.21-.95-.31-1.45-.28-1.36-.53-2.84-.75-4.27-.5-3.23-.83-6.28-.94-7.49a49.74,49.74,0,0,1,.69-6.22h0c.42-2.84.93-6,1.27-7.9.18-1,.31-1.73.34-1.86.17-.61,9.35-.64,9.35-.64-.34,1.27-.63,2.56-.89,3.82A89.34,89.34,0,0,0,27.19,63.2S29.48,74,30,75.88A1.75,1.75,0,0,1,29.5,77.74Z"/><path class="cls-5" d="M18.68,64.54c-.15-1.95,2.12-15.38,2.29-16s6-.61,8.37-.64c.09-.38.19-.76.29-1.13,0,0-9.18,0-9.35.64s-2.44,14-2.29,16a116.72,116.72,0,0,0,2,13.21,2,2,0,0,0,.69,1.07A117.05,117.05,0,0,1,18.68,64.54Z"/><path class="cls-6" d="M29.35,56.09a4.21,4.21,0,0,1-1.73,1.81,4.72,4.72,0,0,1-3.4.54A15.93,15.93,0,0,1,19.7,56.6L21,55.87l3.35-1.94h0l3.58,1.54Z"/><polygon class="cls-7" points="14.47 42.91 14.47 59.62 13.08 58.81 10.13 57.1 0 51.26 0 34.55 14.47 42.91"/><polygon class="cls-8" points="28.94 34.55 28.94 51.27 28.57 51.48 24.34 53.94 23.33 54.52 20.97 55.87 19.7 56.59 19.23 56.87 18.67 57.19 18.67 57.2 14.47 59.62 14.47 42.91 20.33 39.52 20.91 39.19 21.3 38.97 21.32 38.95 21.57 38.8 21.71 38.73 22.47 38.28 22.56 38.23 22.56 38.23 22.57 38.23 23.15 37.88 28.94 34.55"/><polygon class="cls-9" points="28.94 34.55 23.15 37.89 20.91 39.18 14.47 42.91 0 34.55 6.44 30.83 8.68 29.54 14.47 26.19 28.94 34.55"/><polygon class="cls-10" points="22.57 38.23 20.32 39.52 17.57 37.94 12.53 35.03 11.53 34.45 6.49 31.54 5.85 31.17 8.1 29.88 10.98 31.54 16.02 34.45 17.02 35.03 22.05 37.94 22.57 38.23"/><polygon class="cls-11" points="20.33 39.52 20.33 42.14 20.33 42.73 20.7 41.93 20.7 41.93 21.07 42.29 21.45 41.5 21.82 41.86 22.19 41.06 22.19 41.06 22.19 41.06 22.19 41.06 22.57 41.43 22.57 40.85 22.57 38.23 20.33 39.52"/><path class="cls-11" d="M7.12,30.44l-.21.12s-.09.1,14.41,8.39l.25-.14C17.67,36.57,7.43,30.71,7.12,30.44Z"/><path class="cls-12" d="M3,46.26v5.8l10.41,6v-5.8ZM13.18,57.6,3.32,51.9V46.73l9.86,5.69ZM4,49v-1l.5.29.26,1.12.15-.88,1.54.89v1c0,.73-.48,1-1.09.77v1.07l.87.5V53l-2-1.16v-.31l.87.5V51A2.73,2.73,0,0,1,4,49Zm8.81,7.87-2-1.16v-.31l2,1.16Zm-1.59-3L11,53.68l.36-1.27.36,1.68L11.51,54v1.47l-.14-.08-.14-.08Zm.92.53-.22-.13.36-1.27.36,1.68-.22-.13V56l-.14-.08-.14-.08Zm-5.41-3.8.58,0a2.81,2.81,0,0,1,1.1.34v-.36l.27.16v.36A5.44,5.44,0,0,1,9.78,52l.6.65s0,.07,0,.06l-1.68-1v1.53c0,.54-.07,1.12-.61.8a1.13,1.13,0,0,1-.41-.44,1.48,1.48,0,0,1-.19-.75l.27.18a1,1,0,0,0,.11.47.57.57,0,0,0,.21.23c.17.1.34.13.34-.65V51.58l-1.67-1S6.71,50.54,6.74,50.54ZM7,49.67a1.22,1.22,0,0,1,.23-.45,4.07,4.07,0,0,1,.23.71c0,.15-.1.21-.23.13A.51.51,0,0,1,7,49.67Zm.88.51a1.22,1.22,0,0,1,.23-.45,4.07,4.07,0,0,1,.23.71c0,.15-.1.21-.23.13A.51.51,0,0,1,7.85,50.17Zm1,.56a1.22,1.22,0,0,1,.23-.45,4.07,4.07,0,0,1,.23.71c0,.15-.1.21-.23.13A.51.51,0,0,1,8.83,50.74Zm.88.51a1.22,1.22,0,0,1,.23-.45,4.07,4.07,0,0,1,.23.71c0,.15-.1.21-.23.13A.51.51,0,0,1,9.71,51.24Z"/><path class="cls-13" d="M23.33,54.51,19.7,56.6,21.94,55s-.29-3.34,1.32-3.34C24.19,51.67,23.8,53.22,23.33,54.51Z"/><path class="cls-14" d="M37.77,29.7a114.08,114.08,0,0,1-2.7,14.11c-.79,2.6-4.09,10.4-4.69,12s-7,.42-6.06-1.91,4.38-10.62,4.62-11V34.55L14.47,26.2,5.25,31.52c1.66-2.69,5.51-10.71,7.58-12.14s6.06-3.53,12.56-.73c1.46.63,2.91,1.29,4.28,2a20.9,20.9,0,0,1,6.79,4.94s0,0,0,0a6.08,6.08,0,0,1,1.28,2.74A4.68,4.68,0,0,1,37.77,29.7Z"/><path class="cls-15" d="M30.63,20.22l-10.09-.41c-3.49,1.35-3.71,3.85-3.71,3.85a4.05,4.05,0,0,1,3.77.13c2.08,1.1,4.23,4.47,4.23,4.47C33,25.08,32.12,21.59,30.63,20.22Z"/><path class="cls-6" d="M22.57,56.24c-.63-.78-.74-4.2.68-4.57s1.07,2.26,1.07,2.26Z"/><path class="cls-16" d="M34.82,10.68s0,0,0,0c0,.24,0,.48,0,.73a14.17,14.17,0,0,1-.1,1.6h0a18.56,18.56,0,0,1-2.11,6.62,9.28,9.28,0,0,1-1,1.54c-.1.11-.19.22-.3.32A10.22,10.22,0,0,1,24,24.67a8.81,8.81,0,0,1-2.82-.49h0a9.14,9.14,0,0,1-1.85-.88c-2.08-1.27-2.51-4-2.58-7.21,0-.28,0-.55,0-.84,0-1.19,0-2.43,0-3.69a12.26,12.26,0,0,1,.27-2.65,9.39,9.39,0,0,1,.48-1.58c.09-.24.2-.47.3-.69C20.62,1,28.21.1,31.83,3.46a3.24,3.24,0,0,1,.42.41A10.47,10.47,0,0,1,34.82,10.68Z"/><path class="cls-16" d="M36.59,16.66c-.38,2-2.48,2.71-4,3a9.91,9.91,0,0,1-1.58.16l.26-3.21.15-1.94c1.28-1.24,2.41-1.71,3.29-1.64h.05C36.2,13.16,37,14.71,36.59,16.66Z"/><path class="cls-17" d="M34.83,13h-.12c-2.91.28-3.1,3.38-3.1,3.38l-.33.19-1.17.67s-.13-2.35-.06-3.36a1.37,1.37,0,0,1,.06-.39l.18-.19.32-.33c1.13-1.14,3.82-3.72,4.13-2.67,0,.12.06.23.08.35s0,0,0,0a4.7,4.7,0,0,1,.1.62A6.67,6.67,0,0,1,34.83,13Z"/><path class="cls-14" d="M35.39,10.27a1.72,1.72,0,0,1-.47,1,.35.35,0,0,1-.1.11A7.41,7.41,0,0,1,31,13.2c-.23.05-.48.1-.73.13s-.5.08-.76.1h0a15.25,15.25,0,0,1-4.24-.15c-5.08-.89-7.19-2.77-8-3.94a1.42,1.42,0,0,1-.22-.43A3,3,0,0,1,17,7.18c0-.23.12-.52.22-.85h0a7.06,7.06,0,0,1,.23-.7c.91-2.43,3.29-6,10.09-5.59a10,10,0,0,1,4.07,1.42C35.5,3.92,35.49,8.6,35.39,10.27Z"/><path class="cls-14" d="M17.21,6.33c-5.08,3-7.61,6-2.26,8.93C23.24,19.81,31,13.2,31,13.2Z"/><path id="_Контур_" data-name="&lt;Контур&gt;" class="cls-15" d="M17.45,5.63c-5.08,3-7.85,5.85-2.49,8.8C23.24,19,31,12.37,31,12.37,22.73,12.89,16.28,8.52,17.45,5.63Z"/><path class="cls-18" d="M37.74,28.35h0s0-.07,0-.11a5,5,0,0,0-.13-.55l0-.07a5.52,5.52,0,0,0-.26-.64l-.06-.11q-.13-.26-.28-.51l-.1-.15c-.11-.18-.24-.35-.37-.52l0-.06s0,0,0,0a18.06,18.06,0,0,0-5.2-4.08s.17-.17.3-.32a9.28,9.28,0,0,0,1-1.54c1.51-.28,3.61-1,4-3s-.39-3.5-1.82-3.64h.06a6.67,6.67,0,0,0,.09-1.7,1.72,1.72,0,0,0,.47-1c.1-1.67.11-6.35-3.78-8.81a7.78,7.78,0,0,1,.22,2c0,2.17-.88,5.57-5.5,7.41a16.28,16.28,0,0,1-2.45.73l.26.08.08,0,.37.1a19.28,19.28,0,0,0,5,.67,10.15,10.15,0,0,0,1.46-.1s-.23.2-.66.5c-.15.11-.32.23-.51.35l-.32.21h0a14.65,14.65,0,0,1-1.36.77c-.32.17-.67.34-1,.5h0l-.76.31a15.31,15.31,0,0,1-2.71.77,14.61,14.61,0,0,1-3.07.22L20,16a5.51,5.51,0,0,1-.57-.06c-.2,0-.39-.06-.58-.09v.84a12.92,12.92,0,0,1-1.75-.46,14.23,14.23,0,0,0,8.55,7s.52.87-1.6,1.5a8.81,8.81,0,0,1-2.82-.49h0c0,1.46,2.09,2,2.09,2a13.94,13.94,0,0,1,2.3,1.75v.51a6.49,6.49,0,0,0,3.34-1,32.32,32.32,0,0,0,5.89.27c1.62-.32,1.8.71,1.71,1.44a53.08,53.08,0,0,1-2.82,10c-1.77-3.12-3.44-2.88-3.44-2.88l-1.33-1.76v8.36c-.24.4-3.65,8.69-4.62,11s5.46,3.56,6.06,1.91,3.9-9.44,4.69-12a113.89,113.89,0,0,0,2.7-14.11A4.75,4.75,0,0,0,37.74,28.35Z"/><path class="cls-18" d="M29.5,77.74a12,12,0,0,1,.07,1.62c-.06.65-3.35,3.68-6.27,6a6.66,6.66,0,0,1-4.9.89C23.14,86,26,82.06,26,82.06s.13-1.46-2.22-2.18a5.36,5.36,0,0,1-3.15-2.17l.11.08.33.23a3.4,3.4,0,0,0,.5.26.67.67,0,0,0,.12.06l.07,0a4.59,4.59,0,0,0,.62.22c.21.06.42.12.62.16h0a5.74,5.74,0,0,0,.68.12,6.14,6.14,0,0,0,.7.07,9,9,0,0,0,1.42,0l-.41-1a7.26,7.26,0,0,1-2.66-1.55h0a13.49,13.49,0,0,1-3.85-5.43c-.5-3.23-.83-6.28-.94-7.49a49.74,49.74,0,0,1,.69-6.22h0l1-.59a15.93,15.93,0,0,0,4.52,1.84,4.72,4.72,0,0,0,3.4-.54c-.35,3.14-.43,5.3-.43,5.3S29.48,74,30,75.88A1.75,1.75,0,0,1,29.5,77.74Z"/><path class="cls-18" d="M19.67,75.18a48,48,0,0,1-5.81,5.24,5.54,5.54,0,0,1-3.22,1,10.07,10.07,0,0,1-1.34,0,11,11,0,0,1-2.08-.44l-.41-.14a8.89,8.89,0,0,0,5.81-1l.73-.44a8.28,8.28,0,0,0,1-.77s.41-.41.95-.91c.3-.33.46-.55.46-.55s-.08-1.23-2.3-2.09-2.45-2.38-2.45-2.38,0,.05.08.06l0,.05a2,2,0,0,0,.39.3.57.57,0,0,1,.13.08l.15.09a1.6,1.6,0,0,0,.29.15l.31.13.3.12a8.68,8.68,0,0,0,1.22.3l.45.06.43,0a13,13,0,0,0,1.36,0l.33,0h.23l.34,0h0l-.77-3.2-.68-2.87c-5.46-2.91-6.86-7-7.1-9.38a12.25,12.25,0,0,1,.08-1.61c0-.15,0-.31,0-.48s0,0,0-.08L13,58.85l.05,0,1.39.8,4.2-2.42A49.74,49.74,0,0,0,18,63.42c.11,1.21.44,4.26.94,7.49C19.14,72.34,19.39,73.82,19.67,75.18Z"/><path class="cls-19" d="M5.37,76.09a1.56,1.56,0,0,1,1-.87c.54-.12,1-.13,1.15.49.28,1.1-1.7,1.82-2.13.78A.57.57,0,0,1,5.37,76.09Z"/><path class="cls-19" d="M15.5,80.87a1.56,1.56,0,0,1,1-.87c.54-.12,1-.13,1.15.49.28,1.1-1.7,1.82-2.13.78A.57.57,0,0,1,15.5,80.87Z"/></g></g></g></svg>