<svg xmlns="http://www.w3.org/2000/svg" viewBox="0 0 85.5 88.32"><defs><style>.cls-1{isolation:isolate;}.cls-2{fill:#13287d;}.cls-3{fill:#383431;}.cls-4{fill:#2044d6;}.cls-5{fill:#48433f;}.cls-6{fill:#0d2b86;}.cls-7{fill:#575245;}.cls-8{fill:#302d2a;}.cls-9{fill:#8db0a1;}.cls-10{fill:#1c1a19;}.cls-11{fill:#6e6757;}.cls-12{fill:#595447;}.cls-13{fill:#403c33;}.cls-14{fill:#7a7361;}.cls-15{fill:#ff7d19;}.cls-16{fill:#ffa536;}.cls-17{fill:#1a1816;}.cls-18{fill:#2148a5;}.cls-19{fill:#0a0909;}.cls-20{fill:#d1ccc0;mix-blend-mode:multiply;}.cls-21{fill:#c9fffb;mix-blend-mode:soft-light;}</style></defs><title>i5</title><g class="cls-1"><g id="Слой_2" data-name="Слой 2"><g id="Layer_3" data-name="Layer 3"><polygon class="cls-2" points="62.76 61.25 55.38 56.83 57.99 55.18 62.76 53.74 65.19 57.34 62.76 61.25"/><path class="cls-3" d="M38.92,61.28l6.9-11.59L41.65,47.3a2.27,2.27,0,0,0-.36-.2h0a3.47,3.47,0,0,0-3.18.43,10.55,10.55,0,0,0-4.77,8.27,3.43,3.43,0,0,0,1.28,3h0l.23.14Z"/><path class="cls-4" d="M58,45a12.84,12.84,0,0,1,5.6-9.91.35.35,0,0,0,.19-.33c0-2.73,0-5-1.23-6.73a2.1,2.1,0,0,0-1-.59,1.5,1.5,0,0,0-1.82.89c-5.56,9.79.71,7.58-18.43,19.32a6.11,6.11,0,0,0,1,.59c3.79-.35,4.33.77,4.53,3.67l1,.59,9.84-7A.57.57,0,0,0,58,45Z"/><path class="cls-5" d="M47.19,52.76A10.55,10.55,0,0,1,42.42,61c-2.64,1.52-4.77.29-4.77-2.76A10.55,10.55,0,0,1,42.42,50C45.05,48.49,47.19,49.72,47.19,52.76Z"/><path class="cls-6" d="M59,45.58a12.84,12.84,0,0,1,5.6-9.91.35.35,0,0,0,.19-.33c-.06-3.18-.48-5.52-2.25-7.32-.43-.44-1.3,0-1.82.89-5.56,9.79.71,7.58-18.43,19.32,4.12-.51,5.34,1.26,5.55,4.26l10.86-6.41A.57.57,0,0,0,59,45.58Z"/><path class="cls-4" d="M78.48,37.37c-3-1.76-12.71-7.79-15.93-9.42s-2.61,7.82-2.61,7.82l14.59,9.78Z"/><path class="cls-3" d="M54.72,70.41l6.9-11.59-4.17-2.39a2.28,2.28,0,0,0-.36-.2h0a3.47,3.47,0,0,0-3.18.43,10.55,10.55,0,0,0-4.77,8.27,3.43,3.43,0,0,0,1.28,3h0l.23.14Z"/><polygon class="cls-7" points="74.78 46.7 73.25 47.6 57.52 56.8 57.48 56.83 57.2 56.99 42.3 48.23 58.22 34.34 59.89 33.72 73.67 41.67 73.84 42.44 74.78 46.7"/><polygon class="cls-8" points="73.91 41.81 73.84 42.43 73.25 47.6 63.4 53.36 61.85 54.27 57.52 56.8 57.48 56.82 60 54.32 61.63 52.7 71.87 42.54 73.67 41.67 73.91 41.81"/><path class="cls-3" d="M77.23,57.35l6.9-11.59L80,43.36a2.27,2.27,0,0,0-.36-.2h0a3.47,3.47,0,0,0-3.18.43,10.55,10.55,0,0,0-4.77,8.27,3.43,3.43,0,0,0,1.28,3h0l.23.14Z"/><path class="cls-4" d="M73.92,54.33a12.84,12.84,0,0,1,5.6-9.91.35.35,0,0,0,.19-.33c0-2.73,0-5-1.23-6.73a2.09,2.09,0,0,0-1-.59,1.5,1.5,0,0,0-1.82.89c-5.56,9.79.71,7.58-18.43,19.32a6.11,6.11,0,0,0,1,.59c3.79-.35,4.33.77,4.53,3.67l1,.59,9.84-7A.57.57,0,0,0,73.92,54.33Z"/><path class="cls-6" d="M74.94,54.92A12.84,12.84,0,0,1,80.54,45a.35.35,0,0,0,.19-.33c-.06-3.18-.48-5.52-2.25-7.32-.43-.44-1.3,0-1.82.89-5.56,9.79.71,7.58-18.43,19.32,4.12-.51,5.34,1.26,5.55,4.26l10.86-6.41A.57.57,0,0,0,74.94,54.92Z"/><path class="cls-5" d="M85.5,48.83a10.55,10.55,0,0,1-4.77,8.27c-2.64,1.52-4.77.29-4.77-2.76a10.55,10.55,0,0,1,4.77-8.27C83.37,44.55,85.5,45.78,85.5,48.83Z"/><path class="cls-8" d="M83.73,50.52a5.32,5.32,0,0,1-2.4,4.16c-1.22.71-2.23.24-2.39-1,0-.12,0-.24,0-.37a5.32,5.32,0,0,1,2.41-4.16,1.67,1.67,0,0,1,.33-.16C82.83,48.48,83.73,49.12,83.73,50.52Z"/><path class="cls-9" d="M82.06,50.09a4.29,4.29,0,0,1-1.94,3.36,1.45,1.45,0,0,1-1.18.21c0-.12,0-.24,0-.37a5.32,5.32,0,0,1,2.41-4.16,1.67,1.67,0,0,1,.33-.16A1.48,1.48,0,0,1,82.06,50.09Z"/><path class="cls-5" d="M63,61.89a10.55,10.55,0,0,1-4.77,8.27c-2.64,1.52-4.77.29-4.77-2.76a10.55,10.55,0,0,1,4.77-8.27C60.86,57.61,63,58.85,63,61.89Z"/><path class="cls-8" d="M61.23,63.59a5.32,5.32,0,0,1-2.4,4.16c-1.22.71-2.23.24-2.39-1,0-.12,0-.24,0-.37a5.32,5.32,0,0,1,2.41-4.16,1.66,1.66,0,0,1,.33-.16C60.33,61.55,61.23,62.19,61.23,63.59Z"/><path class="cls-9" d="M59.56,63.16a4.29,4.29,0,0,1-1.94,3.36,1.45,1.45,0,0,1-1.18.21c0-.12,0-.24,0-.37a5.32,5.32,0,0,1,2.41-4.16,1.66,1.66,0,0,1,.33-.16A1.48,1.48,0,0,1,59.56,63.16Z"/><path class="cls-6" d="M34.06,52.83l-.29-.5a11,11,0,0,1,5.89-5.62l2.65,1.53L59.56,58l.3.5a12.64,12.64,0,0,0-5.59,6.12Z"/><path class="cls-4" d="M33.76,52.33a12.64,12.64,0,0,1,5.59-6.12L42,47.74l14.9,8.76L59.56,58A12.64,12.64,0,0,0,54,64.15Z"/><path class="cls-7" d="M37.68,53.48l-1.45-.84,4.29-33.07c.69-5.35,4.34-11,8.68-13.55L59.63,0l1.45.84L59.49,35.18,58,34.49V2.75l-8.22,5.1c-3.56,2.05-6.64,7-7.2,11.42Z"/><path class="cls-10" d="M40.35,16.31,37.68,46.71a17.13,17.13,0,0,1-.54-2.05c0-.18,2.55-28,2.55-28Z"/><path class="cls-8" d="M36.23,16.67c0,1.13.79,1.59,1.77,1a3.91,3.91,0,0,0,1.77-3.06c0-1.13-.79-1.59-1.77-1A3.91,3.91,0,0,0,36.23,16.67Z"/><path class="cls-8" d="M37.37,17.33c0,1.13.79,1.59,1.77,1a3.91,3.91,0,0,0,1.77-3.06c0-1.13-.79-1.59-1.77-1A3.91,3.91,0,0,0,37.37,17.33Z"/><path class="cls-10" d="M36.73,17.81a1.25,1.25,0,0,1-.51-1.13A3.91,3.91,0,0,1,38,13.61a1.27,1.27,0,0,1,1.12-.15l0,0,.07,0,.06,0,1.08.62-.71,1.24a4.14,4.14,0,0,1-1,1.82l-.73,1.28-1.13-.65h0Z"/><path class="cls-8" d="M37.37,17.33c0,1.13.79,1.59,1.77,1a3.91,3.91,0,0,0,1.77-3.06c0-1.13-.79-1.59-1.77-1A3.91,3.91,0,0,0,37.37,17.33Z"/><path class="cls-10" d="M38.32,16.78c0,.52.36.73.81.47A1.8,1.8,0,0,0,40,15.84c0-.52-.36-.73-.81-.47A1.8,1.8,0,0,0,38.32,16.78Z"/><path class="cls-8" d="M39.24,52.87l-1.57.61L42,20.41c.69-5.35,4.34-11,8.68-13.55l10.43-6V34.41l-1.59.92V3.58l-8.84,5.1A16.07,16.07,0,0,0,43.54,19.8Z"/><path class="cls-8" d="M68.45,42.07s-5.8,4.23-7.63,6.3L52.74,43.6V41.67a14.59,14.59,0,0,1,6.29-5c-1.08-3.88,1.2-10.71,2-10.92s8.88,3.67,9,5S68.45,42.07,68.45,42.07Z"/><path class="cls-7" d="M50.27,60.74l-1.45-.84,4.29-33.07c.69-5.35,4.34-11,8.68-13.55l10.43-6,1.45.84L72.09,42.44l-1.45-.69V10l-8.22,5.1c-3.56,2.05-6.64,7-7.2,11.42Z"/><path class="cls-8" d="M73.67,8.1V41.67l-1.59.92V10.84L63.24,16a13.22,13.22,0,0,0-3.69,3.29,16.46,16.46,0,0,0-3.43,7.82L51.83,60.13l-1.57.61,4.3-33.07a20,20,0,0,1,3.88-9.15c.22-.3.46-.59.71-.88a15.7,15.7,0,0,1,4.09-3.53Z"/><polygon class="cls-8" points="53.17 16.57 53.17 70.62 47.36 73.97 47.36 19.93 53.17 16.57"/><polygon class="cls-7" points="44.46 72.3 47.37 73.97 47.36 19.93 44.46 18.25 44.46 72.3"/><polygon class="cls-11" points="50.27 14.9 44.46 18.25 47.36 19.93 53.17 16.57 50.27 14.9"/><polygon class="cls-8" points="37.68 61.68 31.87 65.04 31.86 10.99 37.68 7.64 37.68 61.68"/><polygon class="cls-7" points="28.96 63.36 31.87 65.04 31.86 10.99 28.96 9.31 28.96 63.36"/><polygon class="cls-11" points="34.77 5.96 28.96 9.31 31.86 10.99 37.68 7.64 34.77 5.96"/><polygon class="cls-12" points="37.68 10.08 48.15 16.13 46.18 17.26 35.84 11.29 37.68 10.08"/><polygon class="cls-13" points="35.84 11.29 46.18 17.26 44.7 18.12 35.84 13 35.84 11.29"/><path class="cls-7" d="M45.86,11.26,57,17.69c2.55-3.46,7.08-5.45,15.23-10.43L61.08.84C54,4.9,48.09,7.23,45.86,11.26Z"/><polygon class="cls-8" points="58.22 18.25 56.18 19.43 54.14 18.25 54.14 17.26 56.18 17.07 58.22 17.26 58.22 18.25"/><polygon class="cls-14" points="58.22 17.26 56.18 18.44 54.14 17.26 56.18 16.08 58.22 17.26"/><path class="cls-15" d="M57.64,17.17l-.31-2.65H55l-.31,2.65a.7.7,0,0,0,.42.64,2.3,2.3,0,0,0,2.08,0A.7.7,0,0,0,57.64,17.17Z"/><path class="cls-16" d="M57,14A.5.5,0,0,1,57,15a1.8,1.8,0,0,1-1.63,0,.5.5,0,0,1,0-.94A1.8,1.8,0,0,1,57,14Z"/><polygon class="cls-8" points="47.2 11.89 45.16 13.07 43.12 11.89 43.12 10.9 45.16 10.71 47.2 10.9 47.2 11.89"/><polygon class="cls-14" points="47.2 10.9 45.16 12.08 43.12 10.9 45.16 9.72 47.2 10.9"/><path class="cls-15" d="M46.62,10.81l-.31-2.65H44l-.31,2.65a.7.7,0,0,0,.42.64,2.3,2.3,0,0,0,2.08,0A.7.7,0,0,0,46.62,10.81Z"/><path class="cls-16" d="M46,7.69a.5.5,0,0,1,0,.94,1.81,1.81,0,0,1-1.63,0,.5.5,0,0,1,0-.94A1.81,1.81,0,0,1,46,7.69Z"/><path class="cls-17" d="M26,35.89V62.33l22.2,12.82V48.71Zm1.36,9.3L46.87,56.44V62.7L27.39,51.46Zm19.48,27.6L27.39,61.55V53L46.87,64.28ZM27.39,43.62V38.25L46.87,49.49v5.38Z"/><path class="cls-7" d="M25.05,36.46V62.9l22.2,12.82V49.27Zm1.36,9.3L45.89,57v6.26L26.42,52Zm19.48,27.6L26.41,62.11V53.59L45.89,64.84ZM26.42,44.19V38.81L45.89,50.06v5.38Z"/><polygon class="cls-11" points="48.23 48.71 47.25 49.27 25.05 36.46 26.03 35.89 48.23 48.71"/><polygon class="cls-11" points="26.41 44.19 27.39 43.63 45.91 54.32 45.89 55.43 26.41 44.19"/><polygon class="cls-11" points="26.41 52.02 27.39 51.46 45.91 62.15 45.89 63.27 26.41 52.02"/><polygon class="cls-11" points="26.41 62.11 27.39 61.55 45.91 72.24 45.89 73.36 26.41 62.11"/><path class="cls-18" d="M16.27,88.31c-.47.15-2.77-1.54-2.83-1.58-.5-.4,12.39-7.37,20.09-11.56a7.33,7.33,0,0,0,3.37-5.3l2-20.29,2.46-1.42,2.71,1.57L42.3,53l-1.53,16.6c-.39,3.3-1.5,6.13-4.19,7.68l-7.29,4.39Z"/><path class="cls-6" d="M16.93,88.14c-4.42,1.45,10.7-6.72,19.31-11.4a7.33,7.33,0,0,0,3.37-5.3l2-20.29,2.46-1.42,1.16,3.38-1.42,1.12-1.91,16a12.16,12.16,0,0,1-5.37,8.45l-5,3.06Z"/><path class="cls-18" d="M2.84,80.56C2.37,80.72.07,79,0,79c-.5-.4,12.39-7.37,20.09-11.56a7.33,7.33,0,0,0,3.37-5.3l2-20.29,2.46-1.42L30.63,42l-1.75,3.3-1.53,16.6c-.39,3.3-1.5,6.13-4.19,7.68L15.87,74Z"/><path class="cls-6" d="M3.51,80.39C-.91,81.84,14.2,73.67,22.82,69a7.33,7.33,0,0,0,3.37-5.3l2-20.29L30.63,42l1.16,3.38-1.42,1.12-1.91,16a12.16,12.16,0,0,1-5.37,8.45l-5,3.06Z"/><path class="cls-19" d="M68.45,42.07s-5.8,4.23-7.63,6.3a20.87,20.87,0,0,1,.41-3.1l5.29-4.06L59,36.7l7.49,4s1-10,3.54-10C70.17,32.05,68.45,42.07,68.45,42.07Z"/><path class="cls-20" d="M23.72,70.48a12.67,12.67,0,0,0,3.84-4.87,7.85,7.85,0,0,0,.44-1l3.35,1.93V65l2.09.08-1.57-.89V56.74l-.52-.3V54.87l2.11.09L31.87,54V48.91l-.37-.25V47.12h2l-1.59-.92V42L29,40.28V41l1.67,1L28.17,43.4l-.8,8.19s-1,11.08-1.34,13.06a7.41,7.41,0,0,1-3,4.25c-.82.47-2,1.17-8.83,4.81S3.74,79.7,3.1,80.13s-.55.6.12.35,14.83-6.54,14.83-6.54A59.8,59.8,0,0,0,23.72,70.48ZM29,58.09v4.36l-.45-.27c0-.31.07-.64.11-1C28.77,59.53,29,58.09,29,58.09Z"/><path class="cls-20" d="M45.91,62.7v-.55l0-5.15-1.08-.62,0-1.6h1.12V50.06l-1.43-.83v1.68l-.41-1.18-2.46,1.42-2,20.29a7.33,7.33,0,0,1-3.37,5.3c-8.62,4.69-23.73,12.85-19.31,11.4l14.54-6.45,5-3.06a12,12,0,0,0,4.87-6.36l0,.07,3.41,2V72.73h1.1V64.65l-1.1-.5V62.7Zm-1.45,8.7-2.14-1.24-.45.13s0-.08,0-.11L42.74,63h0l1.72,1ZM43,60.5l.57-4.8.84.49v5.14Z"/><polygon class="cls-20" points="37.67 12.35 39.54 11.15 37.67 10.08 35.83 11.29 35.83 13 37.67 14.06 37.67 12.35"/><path class="cls-20" d="M46.46,9.38l.09.82h0l0,.34.61.36v1l-.13.07,1,.61c0-.53,0-1.5,0-1.5l-.41-.22c.15-.81,1.48-1.6,1.73-1.6L48,8.37A2.49,2.49,0,0,0,46.46,9.38Z"/><path class="cls-20" d="M57.61,16.9l.61.36v1l-.13.07.35.2c.22-.3.46-.59.71-.88,0-.13,0-.21,0-.21l-.41-.23c.15-.81,1.47-1.59,1.73-1.59L59,14.73a2.49,2.49,0,0,0-1.5,1l.09.82Z"/><polygon class="cls-20" points="63.78 50.58 65.39 48.97 53.25 49.23 53.13 50.14 53.18 50.86 63.78 50.58"/><polygon class="cls-20" points="53.17 54.51 60 54.32 61.63 52.7 53.17 52.88 53.17 54.51"/><path class="cls-20" d="M78.48,37.37s-.73-.59-1.59.55l-3.21,1.75v2a15.4,15.4,0,0,1-4.27,7.14c-3.07,2.7-11.42,7.71-11.88,8l-1.21-.65a4.38,4.38,0,0,0-3.18.85l0,6.69.8.47A12.81,12.81,0,0,1,59.56,58l-1-.68-1-.54,7.86-3.74-6.85,4.28.26.15a4.21,4.21,0,0,1,5,4.34l10.86-6.41a.57.57,0,0,0,.3-.51,11.89,11.89,0,0,1,2.94-7.56A15.63,15.63,0,0,1,80.54,45a.31.31,0,0,0,.19-.33C80.73,44.42,81,39.78,78.48,37.37Z"/><path class="cls-21" d="M44,8.3c0,.53.83.66,1,.53A2.64,2.64,0,0,1,44,8.3Z"/><path class="cls-21" d="M55.05,14.65c0,.53.83.66,1,.53A2.64,2.64,0,0,1,55.05,14.65Z"/><path class="cls-21" d="M29.18,9.44a7.71,7.71,0,0,1,2.31,1.33A11.79,11.79,0,0,1,29.18,9.44Z"/><path class="cls-21" d="M44.7,18.44A7.71,7.71,0,0,1,47,19.77,11.79,11.79,0,0,1,44.7,18.44Z"/><path class="cls-21" d="M39.68,13.49s4.45,2.53,5.19,3.09C44.87,16.57,40.49,14.17,39.68,13.49Z"/><path class="cls-21" d="M30.74,39.74c0-.07,4.42,2.44,5.28,3A34.47,34.47,0,0,1,30.74,39.74Z"/><path class="cls-21" d="M31.79,47.33c0-.07,4.42,2.44,5.28,3A34.47,34.47,0,0,1,31.79,47.33Z"/><path class="cls-21" d="M31.57,55c0-.07,4.42,2.44,5.28,3A34.47,34.47,0,0,1,31.57,55Z"/><path class="cls-21" d="M31.46,65c0-.07,4.42,2.44,5.28,3A34.47,34.47,0,0,1,31.46,65Z"/><path class="cls-21" d="M52.41,12.33c.32.22,1.4.84,1.4,1.31a7.6,7.6,0,0,1-2.72-1.34c-.42-.31-.8-.67-1.21-1a5.43,5.43,0,0,1-.77-.82,2.5,2.5,0,0,1,1.11.49C51,11.41,51.71,11.84,52.41,12.33Z"/><path class="cls-21" d="M27.07,43.06a5.25,5.25,0,0,1-1.56-1,5.89,5.89,0,0,1,1.45.68c.27.12.86.29,1,.58A1.45,1.45,0,0,1,27.07,43.06Z"/><path class="cls-21" d="M40.53,50.64l.06,0a2.79,2.79,0,0,1,.64.39c-.72-.21-2-.57-2.27-1.34a4.57,4.57,0,0,1,.53.17,4,4,0,0,1,.6.38C40.26,50.4,40.37,50.53,40.53,50.64Z"/><path class="cls-21" d="M23.77,66.69c-.38-.29-1.23-.8-1.28-1.3.57-.09,1,.36,1.42.7.18.15.58.33.57.6A3.63,3.63,0,0,1,23.77,66.69Z"/><path class="cls-21" d="M37.12,74.17c-.29-.2-1.23-.73-1.21-1.2.56-.2,2.32,1,2.41,1.62A1.7,1.7,0,0,1,37.12,74.17Z"/></g></g></g></svg>