<svg xmlns="http://www.w3.org/2000/svg" viewBox="0 0 88.59 79.1"><defs><style>.cls-1{isolation:isolate;}.cls-2{fill:#2148a5;}.cls-3{fill:#040d29;}.cls-4{fill:#051238;}.cls-5{fill:#121110;}.cls-6{fill:#48433f;}.cls-7{fill:#0d2b86;}.cls-8{fill:#302d2a;}.cls-9{fill:#211f1d;}.cls-10{fill:#929c93;}.cls-11{fill:#a5b0a6;}.cls-12{fill:#1f4399;}.cls-13{fill:#295acf;}.cls-14{fill:#272a2f;}.cls-15{fill:#47cded;}.cls-16{fill:#474d57;}.cls-17{fill:#2c2f36;}.cls-18{fill:#c5cfc7;}.cls-19{fill:#c9fffb;opacity:0.3;mix-blend-mode:soft-light;}.cls-20{fill:#535b66;}.cls-21{fill:#353940;}.cls-22{fill:#afbab0;}.cls-23{fill:#c8d1c9;}.cls-24{fill:#cfe8dc;}.cls-25{fill:#3c404a;}.cls-26{fill:#555d69;}.cls-27{fill:#1b1e21;}.cls-28{fill:#2ea9c7;}.cls-29{fill:#47433e;}.cls-30{fill:#081d59;}.cls-31{fill:#0b2573;}</style></defs><title>i9</title><g class="cls-1"><g id="Слой_2" data-name="Слой 2"><g id="Layer_3" data-name="Layer 3"><polygon class="cls-2" points="72.93 0 39.14 19.5 54.19 28.19 87.98 8.69 72.93 0"/><polygon class="cls-3" points="54.49 53.97 48.48 50.37 49.68 45.95 52.77 46.52 54.86 48.3 55.7 52.32 54.49 53.97"/><polygon class="cls-4" points="54.09 51.3 54.19 28.19 39.14 19.5 49.25 48.17 54.09 51.3"/><path class="cls-5" d="M67.87,46.24a2.63,2.63,0,0,1-.54,1.93h0l-.12.07h0a.7.7,0,0,1-.66-.16l-.84-.6Z"/><path class="cls-5" d="M75.79,41.68a2.47,2.47,0,0,1-.58,2l-.09,0a.66.66,0,0,1-.67-.14l-.84-.61Z"/><path class="cls-6" d="M59.38,53.33a5,5,0,0,1-2.26,3.92c-1.25.72-2.26.14-2.26-1.31A5,5,0,0,1,57.12,52C58.37,51.3,59.38,51.88,59.38,53.33Z"/><path class="cls-6" d="M67,49a5,5,0,0,1-2.26,3.92c-1.25.72-2.26.14-2.26-1.31a5,5,0,0,1,2.26-3.92C65.94,46.93,67,47.51,67,49Z"/><path class="cls-5" d="M59.38,53.46a4.75,4.75,0,0,1-2.15,3.72c-1.19.69-2.15.13-2.15-1.24a4.75,4.75,0,0,1,2.15-3.72C58.42,51.53,59.38,52.09,59.38,53.46Z"/><path class="cls-5" d="M66.95,49.09a4.75,4.75,0,0,1-2.15,3.72c-1.19.69-2.15.13-2.15-1.24a4.75,4.75,0,0,1,2.15-3.72C66,47.16,66.95,47.72,66.95,49.09Z"/><polygon class="cls-4" points="60.28 51.77 61.11 52.25 61.11 49.79 60.28 49.31 60.28 51.77"/><polygon class="cls-7" points="62.91 51.21 61.11 52.25 61.11 49.79 62.91 48.75 62.91 51.21"/><path class="cls-8" d="M64.42,47.88l-.85-.49-4.82,2.78a.92.92,0,0,0,.42.88h0l.84.49,2.21-1.83h0a2.35,2.35,0,0,0,.56-.47Z"/><path class="cls-6" d="M63.09,50.18l-2.16,1.25c-.74.42-1.33.08-1.33-.77h0l4.82-2.78h0A2.94,2.94,0,0,1,63.09,50.18Z"/><path class="cls-6" d="M60,53.68A5,5,0,0,1,57.7,57.6c-1.25.72-2.26.14-2.26-1.31a5,5,0,0,1,2.26-3.92C58.95,51.65,60,52.23,60,53.68Z"/><path class="cls-8" d="M60.05,53.71a5,5,0,0,1-2.26,3.92c-1.25.72-2.26.14-2.26-1.31a5,5,0,0,1,2.26-3.92C59,51.69,60.05,52.27,60.05,53.71Z"/><path class="cls-6" d="M59.88,53.81a4.62,4.62,0,0,1-2.09,3.62,1.41,1.41,0,0,1-1.56.09,1.52,1.52,0,0,1-.53-1.3,4.61,4.61,0,0,1,2.09-3.62,1.52,1.52,0,0,1,1.4-.19h0A1.42,1.42,0,0,1,59.88,53.81Z"/><path class="cls-6" d="M67.53,49.31a5,5,0,0,1-2.26,3.92C64,53.95,63,53.36,63,51.92A5,5,0,0,1,65.27,48C66.52,47.28,67.53,47.86,67.53,49.31Z"/><path class="cls-8" d="M67.62,49.34a5,5,0,0,1-2.26,3.92C64.11,54,63.1,53.4,63.1,52A5,5,0,0,1,65.36,48C66.61,47.32,67.62,47.9,67.62,49.34Z"/><path class="cls-6" d="M67.45,49.44a4.62,4.62,0,0,1-2.09,3.62,1.42,1.42,0,0,1-1.55.1,1.5,1.5,0,0,1-.55-1.31,4.62,4.62,0,0,1,2.09-3.62A1.52,1.52,0,0,1,66.75,48,1.41,1.41,0,0,1,67.45,49.44Z"/><path class="cls-9" d="M59.73,53.72a4.62,4.62,0,0,1-2.09,3.62,1.16,1.16,0,0,1-1.94-1.12,4.61,4.61,0,0,1,2.09-3.62,1.52,1.52,0,0,1,1.4-.19h0A1.53,1.53,0,0,1,59.73,53.72Z"/><path class="cls-9" d="M67.3,49.35A4.63,4.63,0,0,1,65.21,53a1.52,1.52,0,0,1-1.39.19,1.5,1.5,0,0,1-.55-1.31,4.62,4.62,0,0,1,2.09-3.62A1.52,1.52,0,0,1,66.75,48,1.5,1.5,0,0,1,67.3,49.35Z"/><path class="cls-8" d="M66.59,49.21c-.2-.14-.49-.34-.74-.28a4,4,0,0,0-.81.3c-.37.17-.73.42-1.08.62L61.4,51.33c-1.07.62-2.15,1.22-3.2,1.85a3.54,3.54,0,0,0-.36.26,3.74,3.74,0,0,0-.75.66c-.23.31-.47.88-.21,1.25a1.64,1.64,0,0,0,.4.39c.07,0,.37.27.44.17s0-.31,0-.38a4.12,4.12,0,0,1,0-.57c0-.13,0-.11.16-.19l.41-.23v.73l.44.25a2.45,2.45,0,0,0,.32-.18c.1-.08.07-.11.08-.25s.1-.45.28-.49.2.08.29.13l.47.27a1,1,0,0,0,1,0c.38-.21.75-.43,1.13-.65a5.62,5.62,0,0,0,.73-.45,2.94,2.94,0,0,0,.68-.84l.48-.84c.08-.13.18-.43.31-.51l.37.24c.12-.07.35-.15.39-.26a1,1,0,0,0,0-.3v-.44c0-.12,0-.39,0-.48s.21-.12.29-.17l.26-.15v.55l.44.25c.17-.05.28-.49.34-.64S67,49.43,66.59,49.21Zm-7.11,4.72c-.3-.17.1-.63.27-.73l.66-.38a5.83,5.83,0,0,1-.2.83c0,.17-.17.41-.36.44S59.59,54,59.48,53.94ZM61,52.4l1.55-.89V53c0,.07,0,.24,0,.29s-.25.15-.32.19l-.54.31-.68.39Zm3.08-1.64-.38.65a2.73,2.73,0,0,1-.43.69,2.22,2.22,0,0,1-.12-.38.79.79,0,0,1,.37-.71c.2-.13.41-.24.61-.35Z"/><path class="cls-4" d="M62.83,52.52a1.32,1.32,0,0,1-.45.31,8.67,8.67,0,0,1-1.07.62c-.13,0-.2,0-.3-.09l0,0-.14-.07,0,0,0-.11c0-.18,0-.33-.09-.39a.2.2,0,0,0-.1,0,.75.75,0,0,1,.07-.23,1,1,0,0,1,.4-.3l.66-.38a4.32,4.32,0,0,1,.47-.27.21.21,0,0,1,.23,0h0l.15.09s.12.05.14.11C63,51.75,62.9,52.41,62.83,52.52Z"/><path class="cls-10" d="M62.59,53.3c0-.07-.07-.05-.1,0s.18-.35,0-.22c0,0,.18-.35,0-.22,0,0,.18-.35,0-.22,0-.07,0-.09-.09-.05s0-.09-.09-.05,0-.09-.09-.05c0-.17-.33.09-.38.11a.8.8,0,0,0-.15.09c-.06.06-.1.25,0,.15,0,.06-.1.22-.15.24s0-.09-.09-.05,0-.09-.09-.05c0-.17-.33.09-.38.11a.79.79,0,0,0-.15.09c-.06.06-.1.25,0,.15s-.18.35,0,.22c0,0-.18.35,0,.22,0,0-.18.35,0,.22,0,0-.18.35,0,.22,0,.07,0,.09.09.05s0,.09.09.05,0,.09.09.05c0,.17.33-.09.38-.11a.8.8,0,0,0,.15-.09c.06-.06.1-.25,0-.15,0-.06.1-.22.15-.24s0,.09.09.05,0,.09.09.05c0,.17.33-.09.38-.11a.8.8,0,0,0,.15-.09c.06-.06.1-.25,0-.15C62.5,53.41,62.59,53.38,62.59,53.3Zm-.89,0-.05,0s0-.06.06-.08A.05.05,0,0,0,61.7,53.3Zm0,.2.05,0s0,.06-.06.08A.05.05,0,0,0,61.65,53.49ZM61.7,53s0,.06-.06.08S61.65,53.06,61.7,53Zm-.06.72s0-.06.06-.08S61.69,53.73,61.64,53.76Z"/><path class="cls-11" d="M61.67,53.26l-.47.27s-.07,0-.07,0h0a.16.16,0,0,1,.07-.13l.47-.27s.07,0,.07,0h0A.16.16,0,0,1,61.67,53.26Zm.07.09h0s0-.07-.07,0l-.47.27a.16.16,0,0,0-.07.13h0s0,.07.07,0l.47-.27A.16.16,0,0,0,61.74,53.35Zm0,.22h0s0-.07-.07,0l-.47.27a.16.16,0,0,0-.07.13h0s0,.07.07,0l.47-.27A.16.16,0,0,0,61.74,53.57Zm0,.22h0s0-.07-.07,0L61.2,54a.16.16,0,0,0-.07.13h0s0,.07.07,0l.47-.27A.16.16,0,0,0,61.74,53.78Zm0,.22h0s0-.07-.07,0l-.47.27a.16.16,0,0,0-.07.13h0s0,.07.07,0l.47-.27A.16.16,0,0,0,61.74,54Zm.84-1.35h0s0-.07-.07,0l-.47.27A.16.16,0,0,0,62,53h0s0,.07.07,0l.47-.27A.16.16,0,0,0,62.59,52.65Zm0,.22h0s0-.07-.07,0l-.47.27a.16.16,0,0,0-.07.13h0s0,.07.07,0l.47-.27A.16.16,0,0,0,62.59,52.87Zm0,.22h0s0-.07-.07,0l-.47.27a.16.16,0,0,0-.07.13h0s0,.07.07,0l.47-.27A.16.16,0,0,0,62.59,53.08Zm0,.22h0s0-.07-.07,0l-.47.27a.16.16,0,0,0-.07.13h0s0,.07.07,0l.47-.27A.16.16,0,0,0,62.59,53.3Zm0,.22h0s0-.07-.07,0l-.47.27a.16.16,0,0,0-.07.13h0s0,.07.07,0l.47-.27A.16.16,0,0,0,62.59,53.51Z"/><path class="cls-7" d="M62.71,52.64l-1.39.8c-.11.07-.21,0-.21-.12V53a.46.46,0,0,1,.21-.36l1.39-.8c.11-.07.21,0,.21.12v.36A.45.45,0,0,1,62.71,52.64Z"/><path class="cls-5" d="M58.73,55.09a1.52,1.52,0,0,1-.47.74.44.44,0,0,1-.53,0l-.13-.08-.31-.17a1.36,1.36,0,0,1,.41-1.38l.22.13c.12.07.28.13.41.21a.82.82,0,0,1,.18.14.28.28,0,0,1,.21.17A.5.5,0,0,1,58.73,55.09Z"/><path class="cls-6" d="M58.73,55a1.11,1.11,0,0,1-.5.87c-.28.16-.5,0-.5-.29a1.11,1.11,0,0,1,.5-.87C58.5,54.53,58.73,54.66,58.73,55Z"/><path class="cls-10" d="M58.13,54.92l-.21.54a.14.14,0,0,0,.2.17l.42-.24a.14.14,0,0,0,0-.2l-.21-.3A.14.14,0,0,0,58.13,54.92Z"/><path class="cls-11" d="M58.35,54.94a.15.15,0,0,1-.07.12s-.07,0-.07,0a.15.15,0,0,1,.07-.12S58.35,54.9,58.35,54.94Z"/><path class="cls-11" d="M58.13,55.5a.15.15,0,0,1-.07.12s-.07,0-.07,0a.15.15,0,0,1,.07-.12S58.13,55.46,58.13,55.5Z"/><path class="cls-11" d="M58.56,55.25a.15.15,0,0,1-.07.12s-.07,0-.07,0a.15.15,0,0,1,.07-.12S58.56,55.21,58.56,55.25Z"/><path class="cls-9" d="M66.29,50.73a1.5,1.5,0,0,1-.47.74.44.44,0,0,1-.53,0l-.13-.08L64.59,51l0,0c.15-.28,0-.53-.17-.45a1.16,1.16,0,0,1,.35-.63l.26-.15c.17,0,.31.06.49.16s.28.13.41.21a.81.81,0,0,1,.18.14.27.27,0,0,1,.21.17A.47.47,0,0,1,66.29,50.73Z"/><path class="cls-6" d="M66.29,50.61a1.11,1.11,0,0,1-.5.87c-.28.16-.5,0-.5-.29a1.11,1.11,0,0,1,.5-.87C66.07,50.16,66.29,50.29,66.29,50.61Z"/><path class="cls-10" d="M65.7,50.55l-.21.54a.14.14,0,0,0,.2.17l.42-.24a.14.14,0,0,0,0-.2l-.21-.3A.14.14,0,0,0,65.7,50.55Z"/><path class="cls-11" d="M65.92,50.57a.15.15,0,0,1-.07.12s-.07,0-.07,0a.15.15,0,0,1,.07-.12S65.92,50.53,65.92,50.57Z"/><path class="cls-11" d="M65.7,51.13a.15.15,0,0,1-.07.12s-.07,0-.07,0a.15.15,0,0,1,.07-.12S65.7,51.09,65.7,51.13Z"/><path class="cls-11" d="M66.13,50.88a.15.15,0,0,1-.07.12S66,51,66,51a.15.15,0,0,1,.07-.12S66.13,50.84,66.13,50.88Z"/><path class="cls-6" d="M66.21,49.2l-.74.28-.47.27-.26.15L62,51.48l-3.46,2-.74.58-.12.1a1.36,1.36,0,0,0-.41,1.38.37.37,0,0,0,.06.09l.3.32.08,0v-1l.61-.35.39-.23v1.24l.39-.23v-.22a.63.63,0,0,1,.28-.48l0,0,.9.52A.88.88,0,0,0,61.2,55l.81-.47.81-.47a2.51,2.51,0,0,0,.87-.91l.9-1.55,0,0c.15-.09.28,0,.28.16v.22l.39-.23V50.48l.61-.35.39-.23V51l.08,0,.3-.67C67,49.57,66.73,49,66.21,49.2Zm-5.56,4.71c-.07.28-.33.51-.49.41l-.68-.39c-.18-.11-.06-.55.21-.7l.79-.46a.4.4,0,0,1,.16-.05.2.2,0,0,1,.1,0c.1.06.13.21.09.39l0,.11ZM63,53.59l-2,1.14V52.4l1.45-.83.54-.31ZM64.55,51l0,0-.68,1.17c-.15.27-.42.35-.49.15l-.19-.55a.64.64,0,0,1,.09-.49.77.77,0,0,1,.27-.28l.79-.46.06,0C64.6,50.46,64.7,50.7,64.55,51Z"/><path class="cls-6" d="M80.36,41.22a5,5,0,0,1-2.26,3.92c-1.25.72-2.26.14-2.26-1.31a5,5,0,0,1,2.26-3.92C79.34,39.19,80.35,39.78,80.36,41.22Z"/><path class="cls-6" d="M87.92,36.85a5,5,0,0,1-2.26,3.92c-1.25.72-2.26.14-2.26-1.31a5,5,0,0,1,2.26-3.92C86.91,34.82,87.92,35.41,87.92,36.85Z"/><path class="cls-5" d="M80.35,41.35a4.75,4.75,0,0,1-2.15,3.72c-1.19.69-2.15.13-2.15-1.24a4.75,4.75,0,0,1,2.15-3.72C79.39,39.42,80.35,40,80.35,41.35Z"/><path class="cls-5" d="M87.92,37a4.75,4.75,0,0,1-2.15,3.72c-1.19.69-2.15.13-2.15-1.24a4.75,4.75,0,0,1,2.15-3.72C87,35.05,87.92,35.61,87.92,37Z"/><polygon class="cls-4" points="81.26 39.67 82.08 40.14 82.08 37.68 81.26 37.21 81.26 39.67"/><polygon class="cls-7" points="83.89 39.1 82.08 40.14 82.08 37.68 83.89 36.64 83.89 39.1"/><path class="cls-8" d="M85.39,35.77l-.85-.49-4.82,2.78a.92.92,0,0,0,.42.88h0l.84.49,2.21-1.83h0a2.34,2.34,0,0,0,.56-.47Z"/><path class="cls-6" d="M84.06,38.08,81.9,39.32c-.74.42-1.33.08-1.33-.77h0l4.82-2.78h0A2.94,2.94,0,0,1,84.06,38.08Z"/><path class="cls-6" d="M80.93,41.57a5,5,0,0,1-2.26,3.92c-1.25.72-2.26.14-2.26-1.31a5,5,0,0,1,2.26-3.92C79.92,39.54,80.93,40.13,80.93,41.57Z"/><path class="cls-8" d="M81,41.61a5,5,0,0,1-2.26,3.92c-1.25.72-2.26.14-2.26-1.31a5,5,0,0,1,2.26-3.92C80,39.58,81,40.16,81,41.61Z"/><path class="cls-6" d="M80.85,41.7a4.62,4.62,0,0,1-2.09,3.62,1.41,1.41,0,0,1-1.56.09,1.52,1.52,0,0,1-.53-1.3,4.61,4.61,0,0,1,2.09-3.62,1.52,1.52,0,0,1,1.4-.19h0A1.42,1.42,0,0,1,80.85,41.7Z"/><path class="cls-6" d="M88.5,37.2a5,5,0,0,1-2.26,3.92C85,41.84,84,41.25,84,39.81a5,5,0,0,1,2.26-3.92C87.49,35.17,88.5,35.76,88.5,37.2Z"/><path class="cls-8" d="M88.59,37.24a5,5,0,0,1-2.26,3.92c-1.25.72-2.26.14-2.26-1.31a5,5,0,0,1,2.26-3.92C87.58,35.21,88.59,35.79,88.59,37.24Z"/><path class="cls-6" d="M88.42,37.34A4.62,4.62,0,0,1,86.33,41a1.42,1.42,0,0,1-1.55.1,1.5,1.5,0,0,1-.55-1.31,4.62,4.62,0,0,1,2.09-3.62,1.52,1.52,0,0,1,1.39-.19A1.41,1.41,0,0,1,88.42,37.34Z"/><path class="cls-9" d="M80.7,41.62a4.62,4.62,0,0,1-2.09,3.62,1.16,1.16,0,0,1-1.94-1.12,4.61,4.61,0,0,1,2.09-3.62,1.52,1.52,0,0,1,1.4-.19h0A1.53,1.53,0,0,1,80.7,41.62Z"/><path class="cls-9" d="M88.27,37.24a4.63,4.63,0,0,1-2.09,3.62,1.53,1.53,0,0,1-1.39.19,1.5,1.5,0,0,1-.55-1.31,4.62,4.62,0,0,1,2.09-3.62,1.52,1.52,0,0,1,1.39-.19A1.5,1.5,0,0,1,88.27,37.24Z"/><path class="cls-8" d="M87.56,37.1c-.2-.14-.49-.34-.74-.28a4,4,0,0,0-.81.3c-.37.17-.73.42-1.08.62l-2.56,1.48c-1.07.62-2.15,1.22-3.2,1.85a3.54,3.54,0,0,0-.36.26,3.74,3.74,0,0,0-.75.66c-.23.31-.47.88-.21,1.25a1.64,1.64,0,0,0,.4.39c.07,0,.37.27.44.17s0-.31,0-.38a4.12,4.12,0,0,1,0-.57c0-.13,0-.11.16-.19l.41-.23q0,.37,0,.73l.44.25a2.44,2.44,0,0,0,.32-.18c.1-.08.07-.11.08-.25s.1-.45.28-.49.2.08.29.13l.47.27a1,1,0,0,0,1,0c.38-.21.75-.43,1.13-.65a5.61,5.61,0,0,0,.73-.45,2.94,2.94,0,0,0,.68-.84l.48-.84c.08-.13.18-.43.31-.51l.37.24c.12-.07.35-.15.39-.26a1,1,0,0,0,0-.3v-.44c0-.12,0-.39,0-.48s.21-.12.29-.17l.26-.15v.55l.44.25c.17-.05.28-.49.34-.64S87.94,37.32,87.56,37.1Zm-7.11,4.72c-.3-.17.1-.63.27-.73l.66-.38a5.83,5.83,0,0,1-.2.83c0,.17-.17.41-.36.44S80.57,41.89,80.46,41.83ZM82,40.3l1.55-.89v1.53c0,.07,0,.24,0,.29s-.25.15-.32.19l-.54.31-.68.39Zm3.08-1.64-.38.65a2.73,2.73,0,0,1-.43.69,2.22,2.22,0,0,1-.12-.38.79.79,0,0,1,.37-.71c.2-.13.41-.24.61-.35Z"/><path class="cls-4" d="M83.8,40.41a1.32,1.32,0,0,1-.45.31,8.67,8.67,0,0,1-1.07.62c-.13,0-.2,0-.3-.09l0,0-.14-.07,0,0,0-.11c0-.18,0-.33-.09-.39a.2.2,0,0,0-.1,0,.75.75,0,0,1,.07-.23,1,1,0,0,1,.4-.3l.66-.38a4.32,4.32,0,0,1,.47-.27.21.21,0,0,1,.23,0h0l.15.09s.12.05.14.11C84,39.64,83.87,40.3,83.8,40.41Z"/><path class="cls-10" d="M83.56,41.19c0-.07-.07-.05-.1,0s.18-.35,0-.22c0,0,.18-.35,0-.22,0,0,.18-.35,0-.22,0-.07,0-.09-.09-.05s0-.09-.09-.05,0-.09-.09-.05c0-.17-.33.09-.38.11a.8.8,0,0,0-.15.09c-.06.06-.1.25,0,.15,0,.06-.1.22-.15.24s0-.09-.09-.05,0-.09-.09-.05c0-.17-.33.09-.38.11a.79.79,0,0,0-.15.09c-.06.06-.1.25,0,.15s-.18.35,0,.22c0,0-.18.35,0,.22,0,0-.18.35,0,.22,0,0-.18.35,0,.22,0,.07,0,.09.09.05s0,.09.09.05,0,.09.09.05c0,.17.33-.09.38-.11a.8.8,0,0,0,.15-.09c.06-.06.1-.25,0-.15,0-.06.1-.22.15-.24s0,.09.09.05,0,.09.09.05c0,.17.33-.09.38-.11a.8.8,0,0,0,.15-.09c.06-.06.1-.25,0-.15C83.47,41.3,83.56,41.27,83.56,41.19Zm-.89,0-.05,0s0-.06.06-.08A.05.05,0,0,0,82.67,41.19Zm0,.2.05,0s0,.06-.06.08A.05.05,0,0,0,82.62,41.38Zm.05-.46s0,.06-.06.08S82.63,40.95,82.67,40.92Zm-.06.72s0-.06.06-.08S82.66,41.62,82.62,41.65Z"/><path class="cls-11" d="M82.64,41.15l-.47.27s-.07,0-.07,0h0a.16.16,0,0,1,.07-.13l.47-.27s.07,0,.07,0h0A.16.16,0,0,1,82.64,41.15Zm.07.09h0s0-.07-.07,0l-.47.27a.16.16,0,0,0-.07.13h0s0,.07.07,0l.47-.27A.16.16,0,0,0,82.72,41.24Zm0,.22h0s0-.07-.07,0l-.47.27a.16.16,0,0,0-.07.13h0s0,.07.07,0l.47-.27A.16.16,0,0,0,82.72,41.46Zm0,.22h0s0-.07-.07,0l-.47.27a.16.16,0,0,0-.07.13h0s0,.07.07,0l.47-.27A.16.16,0,0,0,82.72,41.67Zm0,.22h0s0-.07-.07,0l-.47.27a.16.16,0,0,0-.07.13h0s0,.07.07,0l.47-.27A.16.16,0,0,0,82.72,41.89Zm.84-1.35h0s0-.07-.07,0l-.47.27a.16.16,0,0,0-.07.13h0s0,.07.07,0l.47-.27A.16.16,0,0,0,83.56,40.54Zm0,.22h0s0-.07-.07,0L83,41a.16.16,0,0,0-.07.13h0s0,.07.07,0l.47-.27A.16.16,0,0,0,83.56,40.76Zm0,.22h0s0-.07-.07,0L83,41.2a.16.16,0,0,0-.07.13h0s0,.07.07,0l.47-.27A.16.16,0,0,0,83.56,41Zm0,.22h0s0-.07-.07,0l-.47.27a.16.16,0,0,0-.07.13h0s0,.07.07,0l.47-.27A.16.16,0,0,0,83.56,41.19Zm0,.22h0s0-.07-.07,0l-.47.27a.16.16,0,0,0-.07.13h0s0,.07.07,0l.47-.27A.16.16,0,0,0,83.56,41.4Z"/><path class="cls-7" d="M83.68,40.53l-1.39.8c-.11.07-.21,0-.21-.12v-.36a.46.46,0,0,1,.21-.36l1.39-.8c.11-.07.21,0,.21.12v.36A.46.46,0,0,1,83.68,40.53Z"/><path class="cls-5" d="M79.7,43a1.52,1.52,0,0,1-.47.74.44.44,0,0,1-.53,0l-.13-.08-.31-.17A1.36,1.36,0,0,1,78.67,42l.22.13c.12.07.28.13.41.21a.81.81,0,0,1,.18.14.28.28,0,0,1,.21.17A.5.5,0,0,1,79.7,43Z"/><path class="cls-6" d="M79.7,42.87a1.11,1.11,0,0,1-.5.87c-.28.16-.5,0-.5-.29a1.11,1.11,0,0,1,.5-.87C79.48,42.42,79.7,42.55,79.7,42.87Z"/><path class="cls-10" d="M79.1,42.81l-.21.54a.14.14,0,0,0,.2.17l.42-.24a.14.14,0,0,0,0-.2l-.21-.3A.14.14,0,0,0,79.1,42.81Z"/><path class="cls-11" d="M79.33,42.83a.15.15,0,0,1-.07.12s-.07,0-.07,0a.15.15,0,0,1,.07-.12S79.33,42.79,79.33,42.83Z"/><path class="cls-11" d="M79.11,43.39a.15.15,0,0,1-.07.12s-.07,0-.07,0a.15.15,0,0,1,.07-.12S79.11,43.35,79.11,43.39Z"/><path class="cls-11" d="M79.54,43.14a.15.15,0,0,1-.07.12s-.07,0-.07,0a.15.15,0,0,1,.07-.12S79.54,43.1,79.54,43.14Z"/><path class="cls-9" d="M87.27,38.62a1.5,1.5,0,0,1-.47.74.44.44,0,0,1-.53,0l-.13-.08-.57-.33,0,0c.15-.28,0-.53-.17-.45a1.16,1.16,0,0,1,.35-.63l.26-.15c.17,0,.31.06.49.16s.28.13.41.21a.81.81,0,0,1,.18.14.27.27,0,0,1,.21.17A.47.47,0,0,1,87.27,38.62Z"/><path class="cls-6" d="M87.27,38.5a1.11,1.11,0,0,1-.5.87c-.28.16-.5,0-.5-.29a1.11,1.11,0,0,1,.5-.87C87,38.05,87.27,38.18,87.27,38.5Z"/><path class="cls-10" d="M86.67,38.44l-.21.54a.14.14,0,0,0,.2.17l.42-.24a.14.14,0,0,0,0-.2l-.21-.3A.14.14,0,0,0,86.67,38.44Z"/><path class="cls-11" d="M86.89,38.46a.15.15,0,0,1-.07.12s-.07,0-.07,0a.15.15,0,0,1,.07-.12S86.89,38.42,86.89,38.46Z"/><path class="cls-11" d="M86.68,39a.15.15,0,0,1-.07.12s-.07,0-.07,0a.15.15,0,0,1,.07-.12S86.68,39,86.68,39Z"/><path class="cls-11" d="M87.11,38.77a.15.15,0,0,1-.07.12s-.07,0-.07,0a.15.15,0,0,1,.07-.12S87.11,38.73,87.11,38.77Z"/><path class="cls-6" d="M87.18,37.1l-.74.28-.47.27-.26.15L83,39.37l-3.46,2-.74.58-.12.1a1.36,1.36,0,0,0-.41,1.38.38.38,0,0,0,.06.09l.3.32.08,0v-1l.61-.35.39-.23V43.4l.39-.23v-.22a.63.63,0,0,1,.28-.48l0,0,.9.52a.88.88,0,0,0,.87-.09l.81-.47.81-.47a2.51,2.51,0,0,0,.87-.91l.9-1.55,0,0c.15-.09.28,0,.28.16v.22l.39-.23V38.37l.61-.35.39-.23v1.05l.08,0,.3-.67C88,37.46,87.7,36.9,87.18,37.1Zm-5.56,4.71c-.07.28-.33.51-.49.41l-.68-.39c-.18-.11-.06-.55.21-.7l.79-.46a.4.4,0,0,1,.16-.05.2.2,0,0,1,.1,0c.1.06.13.21.09.39l0,.11ZM84,41.48l-2,1.14V40.29l1.45-.83.54-.31Zm1.55-2.6,0,0-.68,1.17c-.15.27-.42.35-.49.15l-.19-.55a.64.64,0,0,1,.09-.49.77.77,0,0,1,.27-.28l.79-.46.06,0C85.58,38.35,85.67,38.59,85.53,38.88Z"/><polygon class="cls-4" points="54.49 53.97 87.64 34.83 87.64 31.42 54.19 49.74 54.49 53.97"/><polygon class="cls-7" points="54.19 28.19 54.09 51.3 87.98 31.74 87.98 8.69 54.19 28.19"/><path class="cls-8" d="M75.79,38.77v2.91a2.47,2.47,0,0,1-.58,2l-.09,0-7.24,4.18-.54.31a2.63,2.63,0,0,0,.54-1.93v-2.9Z"/><path class="cls-5" d="M31.23,67.4a2.63,2.63,0,0,1-.54,1.93h0l-.12.07h0a.7.7,0,0,1-.66-.16l-.84-.6Z"/><path class="cls-5" d="M39.14,62.84a2.47,2.47,0,0,1-.58,2l-.09,0a.66.66,0,0,1-.67-.14L37,64.09Z"/><path class="cls-6" d="M22.73,74.49a5,5,0,0,1-2.26,3.92c-1.25.72-2.26.14-2.26-1.31a5,5,0,0,1,2.26-3.92C21.72,72.46,22.73,73,22.73,74.49Z"/><path class="cls-6" d="M30.3,70.12A5,5,0,0,1,28,74c-1.25.72-2.26.14-2.26-1.31A5,5,0,0,1,28,68.81C29.29,68.09,30.3,68.67,30.3,70.12Z"/><path class="cls-5" d="M22.73,74.61a4.75,4.75,0,0,1-2.15,3.72c-1.19.69-2.15.13-2.15-1.24a4.75,4.75,0,0,1,2.15-3.72C21.77,72.69,22.73,73.24,22.73,74.61Z"/><path class="cls-5" d="M30.3,70.24A4.75,4.75,0,0,1,28.15,74C27,74.65,26,74.1,26,72.73A4.75,4.75,0,0,1,28.15,69C29.34,68.32,30.3,68.87,30.3,70.24Z"/><polygon class="cls-4" points="23.64 72.93 24.46 73.41 24.46 70.95 23.64 70.47 23.64 72.93"/><polygon class="cls-7" points="26.26 72.37 24.46 73.41 24.46 70.95 26.26 69.91 26.26 72.37"/><path class="cls-8" d="M27.77,69l-.85-.49L22.1,71.33a.92.92,0,0,0,.42.88h0l.84.49,2.21-1.83h0a2.34,2.34,0,0,0,.56-.47Z"/><path class="cls-6" d="M26.44,71.34l-2.16,1.25c-.74.42-1.33.08-1.33-.77h0L27.77,69h0A2.94,2.94,0,0,1,26.44,71.34Z"/><path class="cls-6" d="M23.31,74.84A5,5,0,0,1,21,78.76c-1.25.72-2.26.14-2.26-1.31A5,5,0,0,1,21,73.53C22.3,72.81,23.31,73.39,23.31,74.84Z"/><path class="cls-8" d="M23.4,74.87a5,5,0,0,1-2.26,3.92c-1.25.72-2.26.14-2.26-1.31a5,5,0,0,1,2.26-3.92C22.39,72.85,23.4,73.43,23.4,74.87Z"/><path class="cls-6" d="M23.23,75a4.62,4.62,0,0,1-2.09,3.62,1.41,1.41,0,0,1-1.56.09,1.52,1.52,0,0,1-.53-1.3,4.61,4.61,0,0,1,2.09-3.62,1.52,1.52,0,0,1,1.4-.19h0A1.42,1.42,0,0,1,23.23,75Z"/><path class="cls-6" d="M30.88,70.47a5,5,0,0,1-2.26,3.92c-1.25.72-2.26.14-2.26-1.31a5,5,0,0,1,2.26-3.92C29.87,68.44,30.88,69,30.88,70.47Z"/><path class="cls-8" d="M31,70.5a5,5,0,0,1-2.26,3.92c-1.25.72-2.26.14-2.26-1.31a5,5,0,0,1,2.26-3.92C30,68.48,31,69.06,31,70.5Z"/><path class="cls-6" d="M30.8,70.6a4.62,4.62,0,0,1-2.09,3.62,1.42,1.42,0,0,1-1.55.1A1.5,1.5,0,0,1,26.62,73a4.62,4.62,0,0,1,2.09-3.62,1.52,1.52,0,0,1,1.39-.19A1.41,1.41,0,0,1,30.8,70.6Z"/><path class="cls-9" d="M23.08,74.88A4.62,4.62,0,0,1,21,78.5a1.51,1.51,0,0,1-1.4.18,1.52,1.52,0,0,1-.53-1.3,4.61,4.61,0,0,1,2.09-3.62,1.52,1.52,0,0,1,1.4-.19h0A1.53,1.53,0,0,1,23.08,74.88Z"/><path class="cls-9" d="M30.65,70.51a4.63,4.63,0,0,1-2.09,3.62,1.53,1.53,0,0,1-1.39.19A1.5,1.5,0,0,1,26.62,73a4.62,4.62,0,0,1,2.09-3.62,1.52,1.52,0,0,1,1.39-.19A1.5,1.5,0,0,1,30.65,70.51Z"/><path class="cls-8" d="M29.94,70.37c-.2-.14-.49-.34-.74-.28a4,4,0,0,0-.81.3c-.37.17-.73.42-1.08.62l-2.56,1.48c-1.07.62-2.15,1.22-3.2,1.85a3.54,3.54,0,0,0-.36.26,3.74,3.74,0,0,0-.75.66c-.23.31-.47.88-.21,1.25a1.64,1.64,0,0,0,.4.39c.07,0,.37.27.44.17s0-.31,0-.38a4.12,4.12,0,0,1,0-.57c0-.13,0-.11.16-.19l.41-.23v.73l.44.25a2.44,2.44,0,0,0,.32-.18c.1-.08.07-.11.08-.25s.1-.45.28-.49.2.08.29.13l.47.27a1,1,0,0,0,1,0c.38-.21.75-.43,1.13-.65a5.61,5.61,0,0,0,.73-.45,2.94,2.94,0,0,0,.68-.84l.48-.84c.08-.13.18-.43.31-.51l.37.24c.12-.07.35-.15.39-.26a1,1,0,0,0,0-.3v-.44c0-.12,0-.39,0-.48s.21-.12.29-.17l.26-.15v.55l.44.25c.17-.05.28-.49.34-.64S30.32,70.59,29.94,70.37ZM22.83,75.1c-.3-.17.1-.63.27-.73l.66-.38a5.83,5.83,0,0,1-.2.83c0,.17-.17.41-.36.44S22.95,75.16,22.83,75.1Zm1.54-1.53,1.55-.89V74.2c0,.07,0,.24,0,.29s-.25.15-.32.19L25,75l-.68.39Zm3.08-1.64-.38.65a2.73,2.73,0,0,1-.43.69,2.22,2.22,0,0,1-.12-.38.79.79,0,0,1,.37-.71c.2-.13.41-.24.61-.35Z"/><path class="cls-4" d="M26.18,73.68a1.32,1.32,0,0,1-.45.31,8.67,8.67,0,0,1-1.07.62c-.13,0-.2,0-.3-.09l0,0-.14-.07,0,0,0-.11c0-.18,0-.33-.09-.39a.2.2,0,0,0-.1,0,.75.75,0,0,1,.07-.23,1,1,0,0,1,.4-.3l.66-.38a4.32,4.32,0,0,1,.47-.27.21.21,0,0,1,.23,0h0l.15.09s.12.05.14.11C26.37,72.91,26.25,73.57,26.18,73.68Z"/><path class="cls-10" d="M25.94,74.46c0-.07-.07-.05-.1,0s.18-.35,0-.22c0,0,.18-.35,0-.22,0,0,.18-.35,0-.22,0-.07,0-.09-.09-.05s0-.09-.09-.05,0-.09-.09-.05c0-.17-.33.09-.38.11a.8.8,0,0,0-.15.09c-.06.06-.1.25,0,.15,0,.06-.1.22-.15.24s0-.09-.09-.05,0-.09-.09-.05c0-.17-.33.09-.38.11a.79.79,0,0,0-.15.09c-.06.06-.1.25,0,.15s-.18.35,0,.22c0,0-.18.35,0,.22,0,0-.18.35,0,.22,0,0-.18.35,0,.22,0,.07,0,.09.09.05s0,.09.09.05,0,.09.09.05c0,.17.33-.09.38-.11a.8.8,0,0,0,.15-.09c.06-.06.1-.25,0-.15,0-.06.1-.22.15-.24s0,.09.09.05,0,.09.09.05c0,.17.33-.09.38-.11a.8.8,0,0,0,.15-.09c.06-.06.1-.25,0-.15C25.85,74.57,25.94,74.54,25.94,74.46Zm-.89,0-.05,0s0-.06.06-.08A.05.05,0,0,0,25,74.45Zm0,.2.05,0s0,.06-.06.08A.05.05,0,0,0,25,74.65Zm.05-.46s0,.06-.06.08S25,74.21,25.05,74.19Zm-.06.72s0-.06.06-.08S25,74.89,25,74.91Z"/><path class="cls-11" d="M25,74.42l-.47.27s-.07,0-.07,0h0a.16.16,0,0,1,.07-.13l.47-.27s.07,0,.07,0h0A.16.16,0,0,1,25,74.42Zm.07.09h0s0-.07-.07,0l-.47.27a.16.16,0,0,0-.07.13h0s0,.07.07,0l.47-.27A.16.16,0,0,0,25.1,74.51Zm0,.22h0s0-.07-.07,0l-.47.27a.16.16,0,0,0-.07.13h0s0,.07.07,0l.47-.27A.16.16,0,0,0,25.1,74.73Zm0,.22h0s0-.07-.07,0l-.47.27a.16.16,0,0,0-.07.13h0s0,.07.07,0l.47-.27A.16.16,0,0,0,25.1,74.94Zm0,.22h0s0-.07-.07,0l-.47.27a.16.16,0,0,0-.07.13h0s0,.07.07,0l.47-.27A.16.16,0,0,0,25.1,75.16Zm.84-1.35h0s0-.07-.07,0L25.4,74a.16.16,0,0,0-.07.13h0s0,.07.07,0l.47-.27A.16.16,0,0,0,25.94,73.81Zm0,.22h0s0-.07-.07,0l-.47.27a.16.16,0,0,0-.07.13h0s0,.07.07,0l.47-.27A.16.16,0,0,0,25.94,74Zm0,.22h0s0-.07-.07,0l-.47.27a.16.16,0,0,0-.07.13h0s0,.07.07,0l.47-.27A.16.16,0,0,0,25.94,74.24Zm0,.22h0s0-.07-.07,0l-.47.27a.16.16,0,0,0-.07.13h0s0,.07.07,0l.47-.27A.16.16,0,0,0,25.94,74.46Zm0,.22h0s0-.07-.07,0l-.47.27a.16.16,0,0,0-.07.13h0s0,.07.07,0l.47-.27A.16.16,0,0,0,25.94,74.67Z"/><path class="cls-7" d="M26.06,73.8l-1.39.8c-.11.07-.21,0-.21-.12v-.36a.46.46,0,0,1,.21-.36l1.39-.8c.11-.07.21,0,.21.12v.36A.46.46,0,0,1,26.06,73.8Z"/><path class="cls-5" d="M22.08,76.25a1.52,1.52,0,0,1-.47.74.44.44,0,0,1-.53,0l-.13-.08-.31-.17A1.36,1.36,0,0,1,21,75.32l.22.13c.12.07.28.13.41.21a.81.81,0,0,1,.18.14.28.28,0,0,1,.21.17A.5.5,0,0,1,22.08,76.25Z"/><path class="cls-6" d="M22.08,76.14a1.11,1.11,0,0,1-.5.87c-.28.16-.5,0-.5-.29a1.11,1.11,0,0,1,.5-.87C21.85,75.69,22.08,75.82,22.08,76.14Z"/><path class="cls-10" d="M21.48,76.08l-.21.54a.14.14,0,0,0,.2.17l.42-.24a.14.14,0,0,0,0-.2l-.21-.3A.14.14,0,0,0,21.48,76.08Z"/><path class="cls-11" d="M21.7,76.1a.15.15,0,0,1-.07.12s-.07,0-.07,0a.15.15,0,0,1,.07-.12S21.7,76.06,21.7,76.1Z"/><path class="cls-11" d="M21.48,76.66a.15.15,0,0,1-.07.12s-.07,0-.07,0a.15.15,0,0,1,.07-.12S21.48,76.62,21.48,76.66Z"/><path class="cls-11" d="M21.92,76.41a.15.15,0,0,1-.07.12s-.07,0-.07,0a.15.15,0,0,1,.07-.12S21.92,76.37,21.92,76.41Z"/><path class="cls-9" d="M29.65,71.88a1.5,1.5,0,0,1-.47.74.44.44,0,0,1-.53,0l-.13-.08-.57-.33,0,0c.15-.28,0-.53-.17-.45a1.16,1.16,0,0,1,.35-.63l.26-.15c.17,0,.31.06.49.16s.28.13.41.21a.81.81,0,0,1,.18.14.27.27,0,0,1,.21.17A.47.47,0,0,1,29.65,71.88Z"/><path class="cls-6" d="M29.65,71.77a1.11,1.11,0,0,1-.5.87c-.28.16-.5,0-.5-.29a1.11,1.11,0,0,1,.5-.87C29.42,71.32,29.65,71.45,29.65,71.77Z"/><path class="cls-10" d="M29.05,71.71l-.21.54a.14.14,0,0,0,.2.17l.42-.24a.14.14,0,0,0,0-.2l-.21-.3A.14.14,0,0,0,29.05,71.71Z"/><path class="cls-11" d="M29.27,71.73a.15.15,0,0,1-.07.12s-.07,0-.07,0a.15.15,0,0,1,.07-.12S29.27,71.69,29.27,71.73Z"/><path class="cls-11" d="M29.05,72.29a.15.15,0,0,1-.07.12s-.07,0-.07,0a.15.15,0,0,1,.07-.12S29.05,72.25,29.05,72.29Z"/><path class="cls-11" d="M29.49,72a.15.15,0,0,1-.07.12s-.07,0-.07,0a.15.15,0,0,1,.07-.12S29.49,72,29.49,72Z"/><path class="cls-6" d="M29.56,70.36l-.74.28-.47.27-.26.15-2.73,1.57-3.46,2-.74.58-.12.1a1.36,1.36,0,0,0-.41,1.38.37.37,0,0,0,.06.09l.3.32.08,0V76l.61-.35.39-.23v1.24l.39-.23v-.22a.63.63,0,0,1,.28-.48l0,0,.9.52a.88.88,0,0,0,.87-.09l.81-.47.81-.47A2.51,2.51,0,0,0,27,74.3l.9-1.55,0,0c.15-.09.28,0,.28.16v.22l.39-.23V71.64l.61-.35.39-.23v1.05l.08,0,.3-.67C30.33,70.72,30.08,70.17,29.56,70.36ZM24,75.07c-.07.28-.33.51-.49.41l-.68-.39c-.18-.11-.06-.55.21-.7l.79-.46a.4.4,0,0,1,.16-.05.2.2,0,0,1,.1,0c.1.06.13.21.09.39l0,.11Zm2.35-.33-2,1.14V73.56l1.45-.83.54-.31Zm1.55-2.6,0,0-.68,1.17c-.15.27-.42.35-.49.15l-.19-.55a.64.64,0,0,1,.09-.49.77.77,0,0,1,.27-.28l.79-.46.06,0C28,71.62,28.05,71.86,27.91,72.14Z"/><path class="cls-6" d="M43.71,62.38a5,5,0,0,1-2.26,3.92c-1.25.72-2.26.14-2.26-1.31a5,5,0,0,1,2.26-3.92C42.69,60.35,43.71,60.93,43.71,62.38Z"/><path class="cls-6" d="M51.28,58A5,5,0,0,1,49,61.93c-1.25.72-2.26.14-2.26-1.31A5,5,0,0,1,49,56.7C50.26,56,51.28,56.56,51.28,58Z"/><path class="cls-5" d="M43.7,62.51a4.75,4.75,0,0,1-2.15,3.72c-1.19.69-2.15.13-2.15-1.24a4.75,4.75,0,0,1,2.15-3.72C42.74,60.58,43.7,61.13,43.7,62.51Z"/><path class="cls-5" d="M51.27,58.14a4.75,4.75,0,0,1-2.15,3.72C47.94,62.54,47,62,47,60.62a4.75,4.75,0,0,1,2.15-3.72C50.31,56.21,51.27,56.77,51.27,58.14Z"/><polygon class="cls-4" points="44.61 60.83 45.43 61.3 45.43 58.84 44.61 58.37 44.61 60.83"/><polygon class="cls-7" points="47.24 60.26 45.43 61.3 45.43 58.84 47.24 57.8 47.24 60.26"/><path class="cls-8" d="M48.75,56.93l-.85-.49-4.82,2.78a.92.92,0,0,0,.42.88h0l.84.49,2.21-1.83h0a2.34,2.34,0,0,0,.56-.47Z"/><path class="cls-6" d="M47.41,59.23l-2.16,1.25c-.74.42-1.33.08-1.33-.77h0l4.82-2.78h0A2.94,2.94,0,0,1,47.41,59.23Z"/><path class="cls-6" d="M44.29,62.73A5,5,0,0,1,42,66.65c-1.25.72-2.26.14-2.26-1.31A5,5,0,0,1,42,61.42C43.27,60.7,44.29,61.28,44.29,62.73Z"/><path class="cls-8" d="M44.38,62.76a5,5,0,0,1-2.26,3.92c-1.25.72-2.26.14-2.26-1.31a5,5,0,0,1,2.26-3.92C43.36,60.74,44.38,61.32,44.38,62.76Z"/><path class="cls-6" d="M44.2,62.86a4.62,4.62,0,0,1-2.09,3.62,1.41,1.41,0,0,1-1.56.09,1.52,1.52,0,0,1-.53-1.3,4.61,4.61,0,0,1,2.09-3.62,1.52,1.52,0,0,1,1.4-.19h0A1.42,1.42,0,0,1,44.2,62.86Z"/><path class="cls-6" d="M51.85,58.36a5,5,0,0,1-2.26,3.92c-1.25.72-2.26.14-2.26-1.31a5,5,0,0,1,2.26-3.92C50.84,56.33,51.85,56.91,51.85,58.36Z"/><path class="cls-8" d="M51.95,58.39a5,5,0,0,1-2.26,3.92c-1.25.72-2.26.14-2.26-1.31a5,5,0,0,1,2.26-3.92C50.93,56.37,51.95,57,51.95,58.39Z"/><path class="cls-6" d="M51.77,58.49a4.62,4.62,0,0,1-2.09,3.62,1.42,1.42,0,0,1-1.55.1,1.5,1.5,0,0,1-.55-1.31,4.62,4.62,0,0,1,2.09-3.62,1.52,1.52,0,0,1,1.39-.19A1.41,1.41,0,0,1,51.77,58.49Z"/><path class="cls-9" d="M44.05,62.77A4.62,4.62,0,0,1,42,66.4a1.51,1.51,0,0,1-1.4.18,1.52,1.52,0,0,1-.53-1.3,4.61,4.61,0,0,1,2.09-3.62,1.52,1.52,0,0,1,1.4-.19h0A1.53,1.53,0,0,1,44.05,62.77Z"/><path class="cls-9" d="M51.62,58.4A4.63,4.63,0,0,1,49.53,62a1.53,1.53,0,0,1-1.39.19,1.5,1.5,0,0,1-.55-1.31,4.62,4.62,0,0,1,2.09-3.62,1.52,1.52,0,0,1,1.39-.19A1.5,1.5,0,0,1,51.62,58.4Z"/><path class="cls-8" d="M50.92,58.26a1.12,1.12,0,0,0-.74-.28,4,4,0,0,0-.81.3c-.37.17-.73.42-1.08.62l-2.56,1.48c-1.07.62-2.15,1.22-3.2,1.85a3.54,3.54,0,0,0-.36.26,3.74,3.74,0,0,0-.75.66c-.23.31-.47.88-.21,1.25a1.64,1.64,0,0,0,.4.39c.07,0,.37.27.44.17s0-.31,0-.38A4.12,4.12,0,0,1,42,64c0-.13,0-.11.16-.19l.41-.23q0,.37,0,.73l.44.25a2.45,2.45,0,0,0,.32-.18c.1-.08.07-.11.08-.25s.1-.45.28-.49.2.08.29.13l.47.27a1,1,0,0,0,1,0c.38-.21.75-.43,1.13-.65a5.62,5.62,0,0,0,.73-.45,2.94,2.94,0,0,0,.68-.84l.48-.84c.08-.13.18-.43.31-.51l.37.24c.12-.07.35-.15.39-.26a1,1,0,0,0,0-.3V60c0-.12,0-.39,0-.48s.21-.12.29-.17l.26-.15v.55l.44.25c.17-.05.28-.49.34-.64S51.29,58.48,50.92,58.26ZM43.81,63c-.3-.17.1-.63.27-.73l.66-.38a5.83,5.83,0,0,1-.2.83c0,.17-.16.41-.36.44S43.92,63.05,43.81,63Zm1.54-1.53,1.55-.89v1.53c0,.07,0,.24,0,.29s-.25.15-.32.19l-.54.31-.68.39Zm3.08-1.64-.38.65a2.73,2.73,0,0,1-.43.69,2.22,2.22,0,0,1-.12-.38.79.79,0,0,1,.37-.71c.2-.13.41-.24.61-.35Z"/><path class="cls-4" d="M47.16,61.57a1.32,1.32,0,0,1-.45.31,8.67,8.67,0,0,1-1.07.62c-.13,0-.2,0-.3-.09l0,0-.14-.07,0,0,0-.11c0-.18,0-.33-.09-.39a.2.2,0,0,0-.1,0,.75.75,0,0,1,.07-.24,1,1,0,0,1,.4-.3l.66-.38a4.32,4.32,0,0,1,.47-.27.21.21,0,0,1,.23,0h0l.15.09s.12.05.14.11C47.35,60.8,47.23,61.46,47.16,61.57Z"/><path class="cls-10" d="M46.91,62.35c0-.07-.07-.05-.1,0s.18-.35,0-.22c0,0,.18-.35,0-.22,0,0,.18-.35,0-.22,0-.07,0-.09-.09-.05s0-.09-.09-.05,0-.09-.09-.05c0-.17-.33.09-.38.11a.8.8,0,0,0-.15.09c-.06.06-.1.25,0,.15,0,.06-.1.22-.15.24s0-.09-.09-.05,0-.09-.09-.05c0-.17-.33.09-.38.11a.8.8,0,0,0-.15.09c-.06.06-.1.25,0,.15s-.18.35,0,.22c0,0-.18.35,0,.22,0,0-.18.35,0,.22,0,0-.18.35,0,.22,0,.07,0,.09.09.05s0,.09.09.05,0,.09.09.05c0,.17.33-.09.38-.11a.8.8,0,0,0,.15-.09c.06-.06.1-.25,0-.15,0-.06.1-.22.15-.24s0,.09.09.05,0,.09.09.05c0,.17.33-.09.38-.11a.8.8,0,0,0,.15-.09c.06-.06.1-.25,0-.15C46.83,62.46,46.91,62.43,46.91,62.35Zm-.89,0-.05,0s0-.06.06-.08A.05.05,0,0,0,46,62.35Zm0,.2.05,0s0,.06-.06.08A.05.05,0,0,0,46,62.54Zm.05-.46s0,.06-.06.08S46,62.11,46,62.08Zm-.06.72s0-.06.06-.08S46,62.78,46,62.81Z"/><path class="cls-11" d="M46,62.31l-.47.27s-.07,0-.07,0h0a.16.16,0,0,1,.07-.13l.47-.27s.07,0,.07,0h0A.16.16,0,0,1,46,62.31Zm.07.09h0s0-.07-.07,0l-.47.27a.16.16,0,0,0-.07.13h0s0,.07.07,0l.47-.27A.16.16,0,0,0,46.07,62.4Zm0,.22h0s0-.07-.07,0l-.47.27a.16.16,0,0,0-.07.13h0s0,.07.07,0l.47-.27A.16.16,0,0,0,46.07,62.62Zm0,.22h0s0-.07-.07,0l-.47.27a.16.16,0,0,0-.07.13h0s0,.07.07,0L46,63A.16.16,0,0,0,46.07,62.83Zm0,.22h0S46,63,46,63l-.47.27a.16.16,0,0,0-.07.13h0s0,.07.07,0l.47-.27A.16.16,0,0,0,46.07,63Zm.84-1.35h0s0-.07-.07,0l-.47.27a.16.16,0,0,0-.07.13h0s0,.07.07,0l.47-.27A.16.16,0,0,0,46.91,61.7Zm0,.22h0s0-.07-.07,0l-.47.27a.16.16,0,0,0-.07.13h0s0,.07.07,0l.47-.27A.16.16,0,0,0,46.91,61.92Zm0,.22h0s0-.07-.07,0l-.47.27a.16.16,0,0,0-.07.13h0s0,.07.07,0l.47-.27A.16.16,0,0,0,46.91,62.13Zm0,.22h0s0-.07-.07,0l-.47.27a.16.16,0,0,0-.07.13h0s0,.07.07,0l.47-.27A.16.16,0,0,0,46.91,62.35Zm0,.22h0s0-.07-.07,0l-.47.27a.16.16,0,0,0-.07.13h0s0,.07.07,0l.47-.27A.16.16,0,0,0,46.91,62.56Z"/><path class="cls-7" d="M47,61.69l-1.39.8c-.11.07-.21,0-.21-.12V62a.46.46,0,0,1,.21-.36l1.39-.8c.11-.07.21,0,.21.12v.36A.46.46,0,0,1,47,61.69Z"/><path class="cls-5" d="M43.05,64.14a1.52,1.52,0,0,1-.47.74.44.44,0,0,1-.53,0l-.13-.08-.31-.17A1.36,1.36,0,0,1,42,63.21l.22.13c.12.07.28.13.41.21a.81.81,0,0,1,.18.14.28.28,0,0,1,.21.17A.5.5,0,0,1,43.05,64.14Z"/><path class="cls-6" d="M43.05,64a1.11,1.11,0,0,1-.5.87c-.28.16-.5,0-.5-.29a1.11,1.11,0,0,1,.5-.87C42.83,63.58,43.05,63.71,43.05,64Z"/><path class="cls-10" d="M42.45,64l-.21.54a.14.14,0,0,0,.2.17l.42-.24a.14.14,0,0,0,0-.2l-.21-.3A.14.14,0,0,0,42.45,64Z"/><path class="cls-11" d="M42.68,64a.15.15,0,0,1-.07.12s-.07,0-.07,0a.15.15,0,0,1,.07-.12S42.68,63.95,42.68,64Z"/><path class="cls-11" d="M42.46,64.55a.15.15,0,0,1-.07.12s-.07,0-.07,0a.15.15,0,0,1,.07-.12S42.46,64.51,42.46,64.55Z"/><path class="cls-11" d="M42.89,64.3a.15.15,0,0,1-.07.12s-.07,0-.07,0a.15.15,0,0,1,.07-.12S42.89,64.26,42.89,64.3Z"/><path class="cls-9" d="M50.62,59.78a1.5,1.5,0,0,1-.47.74.44.44,0,0,1-.53,0l-.13-.08-.57-.33,0,0c.15-.28,0-.53-.17-.45a1.16,1.16,0,0,1,.35-.63l.26-.15c.17,0,.31.06.49.16s.28.13.41.21a.81.81,0,0,1,.18.14.27.27,0,0,1,.21.17A.47.47,0,0,1,50.62,59.78Z"/><path class="cls-6" d="M50.62,59.66a1.11,1.11,0,0,1-.5.87c-.28.16-.5,0-.5-.29a1.11,1.11,0,0,1,.5-.87C50.4,59.21,50.62,59.34,50.62,59.66Z"/><path class="cls-10" d="M50,59.6l-.21.54a.14.14,0,0,0,.2.17l.42-.24a.14.14,0,0,0,0-.2l-.21-.3A.14.14,0,0,0,50,59.6Z"/><path class="cls-11" d="M50.25,59.62a.15.15,0,0,1-.07.12s-.07,0-.07,0a.15.15,0,0,1,.07-.12S50.25,59.58,50.25,59.62Z"/><path class="cls-11" d="M50,60.18a.15.15,0,0,1-.07.12s-.07,0-.07,0a.15.15,0,0,1,.07-.12S50,60.14,50,60.18Z"/><path class="cls-11" d="M50.46,59.93a.15.15,0,0,1-.07.12s-.07,0-.07,0a.15.15,0,0,1,.07-.12S50.46,59.89,50.46,59.93Z"/><path class="cls-6" d="M50.53,58.25l-.74.28-.47.27-.26.15-2.73,1.57-3.46,2-.74.58-.12.1a1.36,1.36,0,0,0-.41,1.38.38.38,0,0,0,.06.09L42,65l.08,0v-1l.61-.35.39-.23v1.24l.39-.23v-.22a.63.63,0,0,1,.28-.48l0,0,.9.52a.88.88,0,0,0,.87-.09l.81-.47.81-.47a2.51,2.51,0,0,0,.87-.91l.9-1.55,0,0c.15-.09.28,0,.28.16V61l.39-.23V59.53l.61-.35.39-.23V60l.08,0,.3-.67C51.3,58.62,51.05,58.06,50.53,58.25ZM45,63c-.07.28-.33.51-.49.41L43.81,63c-.18-.11-.06-.55.21-.7l.79-.46a.4.4,0,0,1,.16-.05.2.2,0,0,1,.1,0c.1.06.13.21.09.39l0,.11Zm2.35-.33-2,1.14V61.45l1.45-.83.54-.31ZM48.88,60l0,0-.68,1.17c-.15.27-.42.35-.49.15l-.19-.55a.64.64,0,0,1,.09-.49.77.77,0,0,1,.27-.28l.79-.46.06,0C48.93,59.51,49,59.75,48.88,60Z"/><polygon class="cls-4" points="17.84 75.13 50.99 55.99 50.99 52.58 17.54 70.9 17.84 75.13"/><polygon class="cls-12" points="18.09 78.75 4.97 71.17 0.96 63.58 16.89 72.78 18.09 78.75"/><polygon class="cls-8" points="17.43 78.94 4.55 71.5 4.55 70.07 17.43 77.51 17.43 78.94"/><polygon class="cls-8" points="17.43 77.5 12.22 79.06 11.14 78.43 14.23 77.5 5.48 72.45 5.38 75.11 4.38 74.53 4.55 70.07 17.43 77.5"/><polygon class="cls-13" points="1.6 49.37 0.56 49.97 16.5 59.16 17.54 58.56 1.6 49.37"/><polygon class="cls-2" points="17.54 58.56 1.6 49.37 1.6 40.15 17.54 49.35 17.54 58.56"/><polygon class="cls-14" points="9.57 45.29 9.57 53.43 2.06 49.1 2.06 40.96 9.57 45.29"/><polygon class="cls-15" points="9.11 45.56 9.11 52.63 8.87 52.49 6.24 50.97 5.05 50.3 2.63 48.9 2.53 48.83 2.53 41.76 5.74 43.61 8.3 45.09 9.11 45.56"/><polygon class="cls-14" points="17.07 49.62 17.07 57.76 9.57 53.43 9.57 45.29 17.07 49.62"/><polygon class="cls-15" points="16.61 49.89 16.61 56.96 13 54.88 11.38 53.94 10.03 53.16 10.03 46.09 11.96 47.2 14.75 48.81 16.35 49.74 16.61 49.89"/><path class="cls-16" d="M10.11,72.52l-2.9-1.67a.91.91,0,0,1-.41-.71l-.61-3c0-.26.18-.37.41-.24l2.9,1.67a.91.91,0,0,1,.41.71l.61,3C10.52,72.54,10.33,72.65,10.11,72.52Z"/><path class="cls-17" d="M9.87,72,7.45,70.63A.76.76,0,0,1,7.11,70L6.49,67.6c0-.22.15-.31.34-.2L9.25,68.8a.76.76,0,0,1,.34.59l.61,2.44C10.21,72,10.05,72.13,9.87,72Z"/><path class="cls-16" d="M7.3,71.79l-1.12-.64A.35.35,0,0,1,6,70.87V69.58c0-.1.07-.14.16-.09l1.12.64a.35.35,0,0,1,.16.27V71.7C7.46,71.8,7.39,71.84,7.3,71.79Z"/><polygon class="cls-2" points="16.5 59.16 16.5 73.01 0.56 63.81 0.56 49.96 16.5 59.16"/><polygon class="cls-18" points="5.98 56.53 5.98 58.81 0.56 55.68 0.56 53.41 5.98 56.53"/><polygon class="cls-18" points="16.5 62.6 16.5 64.88 10.62 61.48 10.62 59.21 16.5 62.6"/><polygon class="cls-18" points="5.98 60.23 5.98 62.51 0.56 59.38 0.56 57.11 5.98 60.23"/><polygon class="cls-18" points="16.5 66.3 16.5 68.58 10.62 65.19 10.62 62.91 16.5 66.3"/><path class="cls-19" d="M8.3,45.09c-1.11,1.72-2.19,3.47-3.25,5.2L2.63,48.9c.39-.71.81-1.43,1.22-2.14.61-1.07,1.24-2.12,1.89-3.15Z"/><path class="cls-19" d="M16.35,49.74C15.15,51.43,14,53.16,13,54.88l-1.62-.93c1.05-1.68,2.17-3.41,3.37-5.13Z"/><path class="cls-19" d="M6.24,51c.93-1.48,1.89-3,2.87-4.49v5.57c-.08.14-.16.29-.24.44Z"/><path class="cls-19" d="M12,47.2c-.67,1-1.3,2.08-1.92,3.17V46.09Z"/><path class="cls-20" d="M51.82,29l-.46.27L16.61,49.35.68,40.15,35.88,19.83Q43.85,18.52,51.82,29Z"/><polygon class="cls-21" points="51.82 29.03 51.82 29.57 16.61 49.89 16.61 49.35 51.82 29.03"/><path class="cls-21" d="M43,34.34a.23.23,0,0,1-.18-.09c-5.23-6.9-10.52-10-15.71-9.11a.23.23,0,0,1-.27-.19.23.23,0,0,1,.19-.27C32.41,23.8,37.85,26.92,43.2,34a.23.23,0,0,1-.18.37Z"/><path class="cls-21" d="M34.21,39.42a.23.23,0,0,1-.18-.09c-5.23-6.9-10.52-10-15.71-9.11a.23.23,0,0,1-.07-.46C23.62,28.88,29,32,34.39,39a.23.23,0,0,1-.18.37Z"/><path class="cls-21" d="M25.41,44.5a.23.23,0,0,1-.18-.09c-5.23-6.9-10.52-10-15.71-9.11a.23.23,0,0,1-.27-.19.23.23,0,0,1,.19-.27c5.37-.88,10.81,2.24,16.16,9.29a.23.23,0,0,1-.18.37Z"/><path class="cls-16" d="M16.61,49.89.67,40.69v-.54q8-1.31,15.93,9.2Z"/><polygon class="cls-7" points="17.54 49.35 17.54 58.56 16.5 59.16 16.5 73 16.89 72.78 18.09 78.75 19.1 78.16 17.91 72.19 51.33 52.9 51.33 29.85 17.54 49.35"/><path class="cls-20" d="M15.65,73l-4-2.82c-.32-.19-.18-2.44-.07-2.71,0,0,.39-.25.46-.27a.34.34,0,0,1,.27,0l3.57,2.09a1.31,1.31,0,0,1,.5.93l-.15,2.23C16.23,72.64,15.75,73.07,15.65,73Z"/><path class="cls-16" d="M15.35,72.91,11.8,70.76a1,1,0,0,1-.43-1l.12-2.2c.06-.17.22-.21.41-.1l3.57,2.09a1.31,1.31,0,0,1,.5.93l-.15,2.23C15.78,73,15.58,73.08,15.35,72.91Z"/><path class="cls-22" d="M11.89,70.43a.55.55,0,0,1-.2-.27.26.26,0,0,1,0-.15l.13-2.21,3.6,2.11a.82.82,0,0,1,.26.5l-.15,2.2Z"/><path class="cls-23" d="M13.83,70.45c0,.58-.53.74-1.09.36a2.2,2.2,0,0,1-.95-1.73c0-.58.53-.74,1.09-.36A2.2,2.2,0,0,1,13.83,70.45Z"/><path class="cls-24" d="M13.38,70.14c0,.32-.29.41-.61.2a1.22,1.22,0,0,1-.53-1c0-.32.29-.41.61-.2A1.23,1.23,0,0,1,13.38,70.14Z"/><path class="cls-23" d="M15.49,71c0,.44-.41.57-.84.27A1.69,1.69,0,0,1,13.92,70c0-.44.41-.57.84-.27A1.69,1.69,0,0,1,15.49,71Z"/><path class="cls-24" d="M15.15,70.79c0,.25-.23.31-.47.15a.94.94,0,0,1-.41-.74c0-.25.23-.32.47-.15A.94.94,0,0,1,15.15,70.79Z"/><path class="cls-20" d="M4.31,66.45l-4-2.82C0,63.44.16,61.19.26,60.92c0,0,.39-.25.46-.27a.34.34,0,0,1,.27,0l3.57,2.09a1.31,1.31,0,0,1,.5.93l-.15,2.23C4.89,66.09,4.42,66.53,4.31,66.45Z"/><path class="cls-16" d="M4,66.37.46,64.22a1,1,0,0,1-.43-1l.12-2.2c.06-.17.22-.21.41-.1L4.14,63a1.31,1.31,0,0,1,.5.93l-.15,2.23C4.45,66.46,4.25,66.54,4,66.37Z"/><path class="cls-22" d="M.56,63.89a.55.55,0,0,1-.2-.27.26.26,0,0,1,0-.15l.13-2.21L4,63.37a.82.82,0,0,1,.26.5l-.15,2.2Z"/><path class="cls-23" d="M4.09,64.82c0,.58-.53.74-1.09.36A2.2,2.2,0,0,1,2,63.45c0-.58.53-.74,1.09-.36A2.2,2.2,0,0,1,4.09,64.82Z"/><path class="cls-24" d="M3.63,64.52c0,.32-.29.41-.61.2a1.23,1.23,0,0,1-.53-1c0-.32.29-.41.61-.2A1.22,1.22,0,0,1,3.63,64.52Z"/><path class="cls-23" d="M2,63.24c0,.44-.41.57-.84.27a1.69,1.69,0,0,1-.73-1.33c0-.44.41-.57.84-.27A1.69,1.69,0,0,1,2,63.24Z"/><path class="cls-24" d="M1.66,63c0,.25-.23.31-.47.15a.94.94,0,0,1-.41-.74c0-.25.23-.31.47-.15A.94.94,0,0,1,1.66,63Z"/><path class="cls-25" d="M8.76,69.66a.48.48,0,0,0-.16-.27l-1.12-.64a.1.1,0,0,0-.12,0h0l-1.29.75L7.41,71.8l1.73-1h0a.11.11,0,0,0,0-.1Z"/><path class="cls-16" d="M7.52,72.25,6,71.35A.49.49,0,0,1,5.74,71V69.16c0-.14.1-.2.22-.13l1.56.9a.49.49,0,0,1,.22.38v1.81C7.75,72.26,7.65,72.32,7.52,72.25Z"/><path class="cls-16" d="M7.11,72.49l-1.56-.9a.49.49,0,0,1-.22-.38V69.4c0-.14.1-.2.22-.13l1.56.9a.49.49,0,0,1,.22.38v1.81C7.33,72.51,7.23,72.56,7.11,72.49Z"/><path class="cls-16" d="M7.52,69.93,6,69a.13.13,0,0,0-.17,0l-.43.25.38.64v1a.49.49,0,0,0,.22.38l1,.55.37.62.33-.26a.12.12,0,0,0,.14-.14V70.32A.49.49,0,0,0,7.52,69.93Z"/><path class="cls-26" d="M7.11,72.49l-1.56-.9a.49.49,0,0,1-.22-.38V69.4c0-.14.1-.2.22-.13l1.56.9a.49.49,0,0,1,.22.38v1.81C7.33,72.51,7.23,72.56,7.11,72.49Z"/><path class="cls-27" d="M8.21,55.12A1.85,1.85,0,0,0,5.7,56.57a3.38,3.38,0,0,0,1.88,3c1.08.41,2.21-.75,2.3-1.78A2.67,2.67,0,0,0,8.21,55.12Z"/><path class="cls-21" d="M8.89,58.41c0,1-.69,1.39-1.55.89a3.42,3.42,0,0,1-1.55-2.68c0-1,.69-1.39,1.55-.89A3.42,3.42,0,0,1,8.89,58.41Z"/><path class="cls-22" d="M8.63,58.39c0,.89-.62,1.25-1.39.81a3.08,3.08,0,0,1-1.39-2.42c0-.89.62-1.25,1.39-.81A3.08,3.08,0,0,1,8.63,58.39Z"/><path class="cls-23" d="M8.18,57.56c.26.7,0,1.29-.48,1.31a1.76,1.76,0,0,1-1.42-1.24c-.26-.7,0-1.29.48-1.31A1.76,1.76,0,0,1,8.18,57.56Z"/><path class="cls-24" d="M7.76,57.57c.14.39,0,.72-.27.73a1,1,0,0,1-.79-.69c-.14-.39,0-.72.27-.73A1,1,0,0,1,7.76,57.57Z"/><polygon class="cls-14" points="19.96 49.02 19.96 54.79 25.28 51.72 25.28 45.95 19.96 49.02"/><polygon class="cls-28" points="20.29 49.21 20.29 54.22 22.85 52.75 24 52.08 24.95 51.53 24.95 46.52 23.59 47.3 21.61 48.45 20.47 49.1 20.29 49.21"/><polygon class="cls-14" points="35.94 39.79 35.94 45.57 41.26 42.5 41.26 36.72 35.94 39.79"/><polygon class="cls-28" points="36.26 39.98 36.26 45 38.82 43.52 39.97 42.86 40.93 42.31 40.93 37.29 39.57 38.08 37.58 39.22 36.45 39.88 36.26 39.98"/><polygon class="cls-14" points="43.92 35.18 43.92 40.96 49.25 37.89 49.25 32.11 43.92 35.18"/><polygon class="cls-28" points="44.25 35.37 44.25 40.39 46.81 38.91 47.96 38.25 48.92 37.7 48.92 32.68 47.55 33.47 45.57 34.61 44.44 35.27 44.25 35.37"/><path class="cls-4" d="M35.32,57.63a.24.24,0,0,1-.12,0,.29.29,0,0,1-.13-.27V39.88a.69.69,0,0,1,.31-.54l6.32-3.65a.3.3,0,0,1,.3,0,.29.29,0,0,1,.13.27V53.38a.68.68,0,0,1-.31.54h0l-6.33,3.65A.35.35,0,0,1,35.32,57.63Zm6.55-21.76-.06,0-6.32,3.65a.45.45,0,0,0-.2.34V57.33s0,.06,0,.07,0,0,.06,0l6.33-3.65a.45.45,0,0,0,.2-.34V35.94s0-.06,0-.07Z"/><path class="cls-8" d="M39.14,59.93v2.91a2.47,2.47,0,0,1-.58,2l-.09,0L31.23,69l-.54.31a2.63,2.63,0,0,0,.54-1.93V64.5Z"/><polygon class="cls-5" points="17.43 77.5 12.22 79.06 17.43 78.94 17.43 77.5"/><polygon class="cls-5" points="5.38 75.11 5.74 73.41 5.48 72.45 5.38 75.11"/><polygon class="cls-29" points="5.48 72.45 14.23 77.5 13.31 77.78 5.74 73.41 5.48 72.45"/><polygon class="cls-8" points="8.53 74.22 7.55 76.36 8.76 77.06 10.62 75.42 8.53 74.22"/><polygon class="cls-5" points="10.62 75.42 10.62 76.23 8.76 77.06 10.62 75.42"/><polygon class="cls-30" points="56.56 28.2 56.56 48.83 55.31 49.55 55.31 28.93 56.17 28.42 56.56 28.2"/><polygon class="cls-31" points="56.17 28.42 56.17 48.6 55.31 49.1 55.31 28.93 56.17 28.42"/><polygon class="cls-30" points="58.89 26.86 58.89 47.48 57.63 48.21 57.63 27.58 58.5 27.08 58.89 26.86"/><polygon class="cls-31" points="58.5 27.08 58.5 47.26 57.63 47.76 57.63 27.58 58.5 27.08"/><polygon class="cls-30" points="61.21 25.52 61.21 46.14 59.95 46.87 59.95 26.24 60.82 25.74 61.21 25.52"/><polygon class="cls-31" points="60.82 25.74 60.82 45.92 59.95 46.42 59.95 26.24 60.82 25.74"/><polygon class="cls-30" points="63.53 24.18 63.53 44.8 62.27 45.53 62.27 24.9 63.14 24.4 63.53 24.18"/><polygon class="cls-31" points="63.14 24.4 63.14 44.58 62.27 45.08 62.27 24.9 63.14 24.4"/><polygon class="cls-30" points="65.86 22.84 65.86 43.46 64.6 44.19 64.6 23.56 65.47 23.06 65.86 22.84"/><polygon class="cls-31" points="65.47 23.06 65.47 43.24 64.6 43.74 64.6 23.56 65.47 23.06"/><polygon class="cls-30" points="68.18 21.49 68.18 42.12 66.92 42.84 66.92 22.22 67.79 21.72 68.18 21.49"/><polygon class="cls-31" points="67.79 21.72 67.79 41.9 66.92 42.4 66.92 22.22 67.79 21.72"/><polygon class="cls-30" points="70.5 20.15 70.5 40.78 69.24 41.5 69.24 20.88 70.11 20.38 70.5 20.15"/><polygon class="cls-31" points="70.11 20.38 70.11 40.55 69.24 41.05 69.24 20.88 70.11 20.38"/><polygon class="cls-30" points="72.82 18.81 72.82 39.44 71.57 40.16 71.57 19.54 72.44 19.04 72.82 18.81"/><polygon class="cls-31" points="72.44 19.04 72.44 39.21 71.57 39.71 71.57 19.54 72.44 19.04"/><polygon class="cls-30" points="75.15 17.47 75.15 38.1 73.89 38.82 73.89 18.2 74.76 17.7 75.15 17.47"/><polygon class="cls-31" points="74.76 17.7 74.76 37.87 73.89 38.37 73.89 18.2 74.76 17.7"/><polygon class="cls-30" points="77.47 16.13 77.47 36.76 76.21 37.48 76.21 16.85 77.08 16.35 77.47 16.13"/><polygon class="cls-31" points="77.08 16.35 77.08 36.53 76.21 37.03 76.21 16.85 77.08 16.35"/><polygon class="cls-30" points="79.79 14.79 79.79 35.41 78.54 36.14 78.54 15.51 79.4 15.01 79.79 14.79"/><polygon class="cls-31" points="79.4 15.01 79.4 35.19 78.54 35.69 78.54 15.51 79.4 15.01"/><polygon class="cls-30" points="82.12 13.45 82.12 34.07 80.86 34.8 80.86 14.17 81.73 13.67 82.12 13.45"/><polygon class="cls-31" points="81.73 13.67 81.73 33.85 80.86 34.35 80.86 14.17 81.73 13.67"/><polygon class="cls-30" points="84.44 12.11 84.44 32.73 83.18 33.46 83.18 12.83 84.05 12.33 84.44 12.11"/><polygon class="cls-31" points="84.05 12.33 84.05 32.51 83.18 33.01 83.18 12.83 84.05 12.33"/><polygon class="cls-30" points="86.76 10.76 86.76 31.39 85.5 32.12 85.5 11.49 86.37 10.99 86.76 10.76"/><polygon class="cls-31" points="86.37 10.99 86.37 31.16 85.5 31.67 85.5 11.49 86.37 10.99"/></g></g></g></svg>