<svg xmlns="http://www.w3.org/2000/svg" viewBox="0 0 375.98 274.28"><defs><style>.cls-1{fill:#2030a5;}.cls-2{fill:#15298c;}.cls-3{fill:#ef9baa;}.cls-4{fill:#fe5773;}.cls-5{fill:#3046b5;}.cls-6{fill:#90caf4;}.cls-7{fill:#e2f1f7;}.cls-8{fill:#bddff4;}.cls-9{fill:#5ea6d3;}.cls-10{fill:#2c65d6;}.cls-11{fill:#f74169;}.cls-12{fill:#ca4560;}.cls-13{fill:#3685fc;}</style></defs><title>i11</title><g id="Слой_2" data-name="Слой 2"><g id="Layer_1" data-name="Layer 1"><path class="cls-1" d="M123.94,182.2c-4.44-3.38-7.55-9.41-7.79-14-.32-6.19,3.35-8.5,7.46-6.84,4.79,1.94,8.62,7.49,9.89,12C136.18,183,130.3,187,123.94,182.2Zm.22-16.78c.34.14-1.84-.87-3.26.17a4.34,4.34,0,0,0-1.53,3.91c.42,8,9.29,13.83,11.2,8.5C132,174.1,128.84,167.31,124.17,165.42Z"/><path class="cls-2" d="M132.31,153.92c3.72-.7,7.3,2.24,9.69,5.15a21.71,21.71,0,0,1,2.14,3.23c2.86,5.43,2.72,9.46,1.65,12a4.78,4.78,0,0,1-2,2.24l-12.31,7.11c2.17-1.34,2.7-3.74,2.66-6.28-.48-9.34-9.61-18.87-15.38-15.86C132.39,153.65,131.29,154.19,132.31,153.92Z"/><path class="cls-2" d="M121.76,165.22c-1.52,1.73-1.16,4.48-.41,6.66,2,5.43,6.2,7.87,8.5,7.28-1.05,5.73-7.09,1-9.95-6.82C118.5,167.79,120.22,165.43,121.76,165.22Z"/><path class="cls-3" d="M125,168.55c2.61-.49,5.55,4.85,3.23,6.35l-1.78,1c2.31-1.44-1.11-7.5-3.56-6.22C124.75,168.65,124.61,168.59,125,168.55Z"/><path class="cls-4" d="M126.51,171.8c-1.48-2.66-4.31-3.38-4.34-.47,0,3.8,5.43,7.46,5.06,2.69A5.72,5.72,0,0,0,126.51,171.8Z"/><path class="cls-5" d="M129.93,179.18h-.14c-5.43,1-11.65-9.89-8-14C126.81,163.56,133.76,174.88,129.93,179.18Zm-2.47-9.53a4,4,0,0,0-1.3-1c-1.13-.46-1.44,0-3.23,1-1.93,1.24.31,6.36,2.94,6.38.48,0,.37,0,2.41-1.19C129.58,174.15,129.07,171.31,127.46,169.65Z"/><path class="cls-1" d="M263.81,250.33c.9,7.28-3.53,10.63-9.67,6.61l-.39-.28c-7.91-6-10.76-18.85-4.32-21.09,0,0,.44-.12.65-.15C256.86,234.37,263.06,244.24,263.81,250.33Zm-3.88-3.77c.55,1.48-1.48-5.37-6.5-6.86l-.24-.06c-4.88-.9-5.14,5.85-1.78,10.63C256.47,257.49,263,254.8,259.93,246.56Z"/><path class="cls-2" d="M261.43,228.57c3.77-1.31,7.78,1.82,10.32,4.91a22,22,0,0,1,3.1,5.23c1.69,4.17,2.49,9.9-1.23,12.24l-12.31,7.11c7-4.39-.92-22-10.2-22.7a4.68,4.68,0,0,0-2.57.59C262.2,228.07,260.87,228.81,261.43,228.57Z"/><path class="cls-5" d="M259.62,253.6c-2.93,1.12-7.36-3.14-8.7-7.9-.54-1.92-.8-4.53.64-6.07,3.35-1,8.64,3.89,9.09,9.8C260.6,248.81,261.39,252.06,259.62,253.6Zm-1-5c.64-2.22-2-6.13-4.1-5.52l-1.86,1.07c-2.09,1.39,1.07,7.31,3.51,6.25C258.34,249.28,258.43,249.12,258.64,248.61Z"/><path class="cls-2" d="M249.58,241.37a2.9,2.9,0,0,1,2-1.73c-3.65,3.62,2.65,15.46,8.06,14C255.6,257.62,247.09,247.32,249.58,241.37Z"/><path class="cls-3" d="M255.7,243.06c2.12.74,3.85,4.23,2.75,5.91-.72.71-.29.31-2.19,1.4,2.28-1.44-1.11-7.52-3.59-6.21C254.6,243,254.76,242.78,255.7,243.06Z"/><path class="cls-4" d="M252.33,244.46c-1.39,1.66,1.19,6.51,3.59,6C259.16,249.87,254.75,241.57,252.33,244.46Z"/><path class="cls-1" d="M288.21,266c.9,7.27-3.53,10.63-9.67,6.61l-.39-.28c-8.64-6.52-10.58-20.18-3.67-21.24S287.45,259.87,288.21,266Zm-3.88-3.77c.55,1.48-1.48-5.37-6.5-6.86l-.24-.06c-4.88-.9-5.14,5.85-1.78,10.63C280.87,273.12,287.39,270.43,284.32,262.19Z"/><path class="cls-2" d="M285.82,244.19c3.77-1.31,7.78,1.82,10.32,4.91a22,22,0,0,1,3.1,5.23c1.69,4.17,2.49,9.9-1.23,12.24l-12.31,7.11c7-4.39-.92-22-10.2-22.7a4.68,4.68,0,0,0-2.57.59C286.59,243.69,285.26,244.44,285.82,244.19Z"/><path class="cls-5" d="M284,269.23c-2.93,1.12-7.36-3.14-8.7-7.9-.54-1.92-.8-4.53.64-6.07,3.35-1,8.64,3.89,9.09,9.8C285,264.44,285.79,267.68,284,269.23Zm-1-5c.64-2.22-2-6.13-4.1-5.52l-1.86,1.07c-2.09,1.39,1.07,7.31,3.51,6.25C282.73,264.91,282.82,264.75,283,264.23Z"/><path class="cls-2" d="M274,257a2.91,2.91,0,0,1,2-1.73c-3.65,3.62,2.65,15.46,8.06,14C280,273.25,271.49,263,274,257Z"/><path class="cls-3" d="M280.1,258.68c2.12.74,3.85,4.23,2.75,5.91-.72.71-.29.31-2.19,1.4,2.28-1.44-1.11-7.52-3.59-6.21C279,258.68,279.16,258.41,280.1,258.68Z"/><path class="cls-4" d="M276.73,260.09c-1.39,1.66,1.19,6.51,3.59,6C283.55,265.5,279.15,257.2,276.73,260.09Z"/><path class="cls-1" d="M1.3,99.56c1.41-4.77,6-4.88,9.9-1.92,7.12,5.37,8.88,14.35,7.3,18.11C14.09,126.26-1.71,109.72,1.3,99.56Zm4,1.18c-2.38,2.37-.59,9.76,4.49,13.08a7.24,7.24,0,0,0,1.74.79c1.94.46,3.26-.28,3.84-1.67C17.88,106.91,9.34,96.7,5.28,100.74Z"/><path class="cls-6" d="M21.3,117.58l61,35.21V138.5L54.07,122.22l-16.84-8.46v-5.28L11.79,93.79C20.59,99.27,24.7,111.89,21.3,117.58Z"/><path class="cls-6" d="M11.79,93.79,0,87v1.45l6.56,3.78A9.94,9.94,0,0,1,11.79,93.79Z"/><polygon class="cls-7" points="0 86.98 0.44 87.24 0.44 86.73 0 86.98"/><path class="cls-6" d="M39.58,58.23V84l-2.35-1.36v25.81L.44,87.24V61.43L13.85,43.37Z"/><polygon class="cls-7" points="13.85 43.37 39.58 58.23 49.45 52.53 49.45 49.96 112.48 13.57 88.98 0 13.85 43.37"/><polygon class="cls-8" points="39.58 58.23 39.58 84.03 49.45 78.33 49.45 52.53 39.58 58.23"/><polygon class="cls-8" points="49.45 78.33 39.58 84.03 37.23 82.67 37.23 108.48 37.23 113.75 49.45 106.7 49.45 78.33"/><polygon class="cls-7" points="37.23 113.75 54.07 122.22 63.68 116.67 59.48 114.25 49.45 108.45 49.45 106.7 37.23 113.75"/><polygon class="cls-7" points="82.28 138.5 100.91 150.52 111.61 144.34 91.89 132.95 82.28 138.5"/><polygon class="cls-7" points="82.28 138.5 91.89 132.95 63.68 116.67 54.07 122.22 82.28 138.5"/><polygon class="cls-8" points="111.11 149.65 111.11 157.66 117.44 154 117.44 147.71 111.61 144.34 100.91 150.52 100.91 155.53 111.11 149.65"/><path class="cls-9" d="M89.32,147.88l.86-.17a1.34,1.34,0,0,1,.31-.09l-.06,0a5.31,5.31,0,0,1,3.5.47L87.18,152A6,6,0,0,1,89.32,147.88Z"/><polygon class="cls-6" points="111.11 149.65 111.11 157.66 104.14 153.66 111.11 149.65"/><polygon class="cls-5" points="312.26 271.89 375.98 235.1 375.98 217.32 312.26 254.11 312.26 271.89"/><polygon class="cls-1" points="59.48 114.25 59.48 108.17 59.48 55.75 49.45 49.96 49.45 52.53 49.45 78.33 49.45 106.7 49.45 108.45 59.48 114.25"/><polygon class="cls-10" points="49.45 49.96 59.48 55.75 123.2 18.97 113.17 13.18 112.48 13.57 49.45 49.96"/><polygon class="cls-5" points="59.48 55.75 59.48 108.17 123.2 71.38 123.2 18.97 59.48 55.75"/><path class="cls-10" d="M376,217.32l-63.71,36.78L59.48,108.17,123.2,71.38ZM70.34,106.76,72.53,108,314.7,247.84,362.93,220l2.19-1.26L120.76,77.65Z"/><path class="cls-5" d="M15.75,111.48a4.43,4.43,0,0,1-1,2.42c-2.64.71-6.68-2.38-8.49-7.24-.73-2-1.13-5.17.43-6.72C10.38,98.93,16.49,105.36,15.75,111.48Zm-4.29-7.82a2,2,0,0,0-1.65-.35c-.24.09-1.86,1-2,1.14C6,105.59,7.73,109.9,10,110.69c1.32.46,1.51-.35,3-1C14.88,108.89,13.55,104.92,11.46,103.66Z"/><path class="cls-2" d="M6.66,99.93c-1.66,1.67-1.13,4.83-.31,7,1.94,4.8,5.85,7.59,8.37,6.92-2.74,2.73-8.24-1.36-10-7.12C3.91,104,4,100.65,6.66,99.93Z"/><path class="cls-3" d="M9.72,103.34c1.85-.65,4.39,2.53,4.15,5a1.48,1.48,0,0,1-1,1.38l-1.31.76c1.85-1.84-1.51-7.26-3.8-6C8,104.35,9.54,103.42,9.72,103.34Z"/><path class="cls-4" d="M10.23,105.1c-2.6-2.37-4.5.61-2.1,4,1,1.44,2.85,2.39,3.69,1.09C12.5,109.17,12,106.72,10.23,105.1Z"/><path class="cls-9" d="M1.09,86.87V63.82L13.84,46.64,31.38,56.77v47.58ZM14,47.48,1.73,64V86.5l29,16.75V57.14Z"/><polygon class="cls-5" points="29.35 57.94 16.61 50.59 15.83 51.04 28.56 58.4 29.35 57.94"/><polygon class="cls-1" points="29.35 75.46 29.35 57.94 28.56 58.4 28.56 75.91 29.35 75.46"/><polygon class="cls-2" points="28.56 75.91 28.56 58.4 15.83 51.04 6.73 63.3 28.56 75.91"/><polygon class="cls-11" points="29.45 80.43 29.45 78.71 28.51 79.25 28.51 80.97 29.45 80.43"/><polygon class="cls-4" points="29.45 78.71 25.18 76.24 24.24 76.79 28.51 79.25 29.45 78.71"/><polygon class="cls-12" points="28.51 79.25 24.24 76.79 24.24 78.51 28.51 80.97 28.51 79.25"/><polygon class="cls-1" points="365.12 218.73 120.76 77.65 120.76 80.17 362.93 220 365.12 218.73"/><polygon class="cls-5" points="120.76 77.65 70.34 106.76 72.53 108.02 120.76 80.17 120.76 77.65"/><polygon class="cls-13" points="120.76 80.17 72.53 108.02 314.7 247.84 362.93 220 120.76 80.17"/><path class="cls-2" d="M9.67,92.77l.22.08c4,1.66,6.93,4.89,9.2,8.57a24.3,24.3,0,0,1,3.08,7.85,14.7,14.7,0,0,1,.11,5.67l-5.61,3.24a5,5,0,0,0,1.83-2.42c3.14-8.84-7.89-23.18-14.87-19.51Z"/><path class="cls-2" d="M93.42,147.85c2-.37,3.86,1.18,5.12,2.72a11.47,11.47,0,0,1,1.13,1.71c1.51,2.87,1.44,5,.87,6.33a2.53,2.53,0,0,1-1,1.18L93,163.54a3.52,3.52,0,0,0,1.41-3.32c-.25-4.94-5.08-10-8.12-8.38C93.46,147.7,92.88,148,93.42,147.85Z"/><path class="cls-2" d="M87.85,153.81c-2,2.23,1.56,8.06,4.27,7.37-1.34,1.32-4.16-.39-5.26-3.61C86.12,155.18,87,153.92,87.85,153.81Z"/><path class="cls-3" d="M89.58,155.58c1.38-.26,2.93,2.56,1.71,3.36l-.94.54c1.22-.76-.59-4-1.88-3.29C89.43,155.63,89.35,155.59,89.58,155.58Z"/><path class="cls-4" d="M88.06,157c0,2,2.87,3.94,2.67,1.42C90.58,156.46,88.08,155,88.06,157Z"/><path class="cls-5" d="M92.16,161.19h-.08c-2.87.54-6.15-5.23-4.23-7.38C90.51,152.94,94.19,158.92,92.16,161.19Zm-1.31-5c-1-1.06-1.55-.46-2.4,0-1,.66.17,3.36,1.55,3.37.25,0,.2,0,1.27-.63C92,158.53,91.71,157,90.86,156.15Z"/><path class="cls-1" d="M89,162.79a11,11,0,0,1-4.11-7.37c-.17-3.27,1.77-4.49,3.94-3.61,2.53,1,4.56,4,5.22,6.35C95.46,163.23,92.36,165.34,89,162.79Zm.12-8.86a2,2,0,0,0-1.72.09,2.29,2.29,0,0,0-.81,2.07c.22,4.2,4.91,7.31,5.92,4.49C93.24,158.51,91.59,154.92,89.12,153.92Z"/><path class="cls-1" d="M270.41,247.77l4.52,2.61c6.46-3.73,5.71-3.3,6.1-3.51l.3-.13c6.17-2.15,14.34,7.5,14.81,15.88L312.32,272V254.19L59.54,108.25v6.08l4.2,2.42L91.94,133l19.73,11.39,5.83,3.37v11.7l2.58,1.49c6.54-3.78,5.73-3.32,6.13-3.52a5.73,5.73,0,0,1,.6-.23c6.4-1.67,14.07,8.19,14.48,16l107.91,62.3c6.44-3.72,7.06-4.72,10.63-3.47C264.67,233.74,270,240.93,270.41,247.77Z"/><path class="cls-6" d="M100.91,150.52v5l0-.07,0,0-.18-.35a19.15,19.15,0,0,0-1-1.68c-4.78-7.08-11.16-7.6-12.34-2.16l-1.07.62.07,0a3,3,0,0,0-1.44,2.49l-2.64-1.52V138.5Z"/><path class="cls-6" d="M86.67,151.7l.33-.09Z"/><polygon class="cls-1" points="15.83 51.04 25.51 56.63 28.56 61.48 28.56 75.91 27.53 75.31 13.9 53.65 15.83 51.04"/><polygon class="cls-1" points="10.87 57.73 18.74 70.24 6.73 63.3 10.87 57.73"/></g></g></svg>