<svg xmlns="http://www.w3.org/2000/svg" viewBox="0 0 79.68 66.14"><defs><style>.cls-1{isolation:isolate;}.cls-2{fill:#295acf;}.cls-3{fill:#47a147;}.cls-4{fill:#a19c47;}.cls-5{fill:#abd9ce;}.cls-6{fill:#c6efed;}.cls-7{fill:#ebe4d3;mix-blend-mode:multiply;}.cls-8{fill:#329dd1;}.cls-9{fill:#3bbaf7;}.cls-10{fill:#0d2b86;}.cls-11{fill:#f7b880;}.cls-12{fill:#eda86a;}.cls-13{fill:#f7c68d;}.cls-14{fill:#d69e67;}.cls-15{fill:#ba8552;}.cls-16{fill:#453224;}</style></defs><title>i14</title><g class="cls-1"><g id="Слой_2" data-name="Слой 2"><g id="Layer_3" data-name="Layer 3"><path class="cls-2" d="M64.9,32.45A32.5,32.5,0,0,1,48.29,60.78c-.67.37-1.35.72-2,1A32.45,32.45,0,0,1,4.13,48.29L4,48.15A32.47,32.47,0,0,1,40.83,1.09c.7.19,1.39.4,2.07.62a33.77,33.77,0,0,1,5.64,2.55h0a31.16,31.16,0,0,1,3.55,2.35h0l.47.37c.79.63,1.56,1.3,2.3,2a32.48,32.48,0,0,1,9.21,16.16c.11.52.22,1,.31,1.56v0A31.69,31.69,0,0,1,64.9,32.45Z"/><path class="cls-3" d="M54.07,27.43a4.23,4.23,0,0,1-1.2,2.33,4.53,4.53,0,0,1-1.51.89l-.67.26a3.47,3.47,0,0,0-1.59,1.14,9.28,9.28,0,0,1-1.56,2,5.77,5.77,0,0,0-.63.68,3.82,3.82,0,0,1-1.3.78,3.57,3.57,0,0,1-3.66-.35c-.39-.36-.5-1-1.12-.87-1,.2-1.07,1.5-1.21,2.27-.1.52-.15,1.61-.67,1.94s-1.23-.19-1.65.17-.07,1-.2,1.44a.86.86,0,0,1-.38.4,4,4,0,0,0-.94.76,3.28,3.28,0,0,1-.94.84,6.08,6.08,0,0,1-1.38.47,3.49,3.49,0,0,1-1.29.09,4.71,4.71,0,0,1-1.7-.75c-.93-.5-2.14-1.34-3.2-.69a8.68,8.68,0,0,0-1.15.87c-.21.17-.42.34-.64.5a2.14,2.14,0,0,0-1,1.06c-.12.35-.44.35-.75.44a1,1,0,0,0-.84.74,6.75,6.75,0,0,0,0,1.19c0,.55.36.82.64,1.22s-.09.44-.28.69A1.69,1.69,0,0,0,23,49.08c0,.57.44.64.91.84.21.09.43.17.64.27s.36.31.58.36.67-.19,1-.07.36.79.39,1.29c0,.18,0,.34,0,.44a4,4,0,0,0,.32,1,2.15,2.15,0,0,0,1.15,1c.34.16.48.46.71.72a2.13,2.13,0,0,0,1,.59c.8.32,1.54.76,2.35,1,.36.12.72.23,1.07.37s.8.18,1.21.3a6.46,6.46,0,0,1,.81.36,2.12,2.12,0,0,1,.74.47,3,3,0,0,1,.69,1.39c0,.14.08.38.24.46s.22,0,.31,0a3.08,3.08,0,0,1,.67.09,4.68,4.68,0,0,0,.65,0c.74,0,1.46.27,2.21.19.34,0,.65-.18,1-.19a4.31,4.31,0,0,1,1.85.25c.2.08.42.12.62.21a6,6,0,0,0,.73.45,1.32,1.32,0,0,0,.56,0c.88-.12,2-.83,2.88-.25l.08,0a2.06,2.06,0,0,1,.59.73h0a1.19,1.19,0,0,1,.07.23,1.71,1.71,0,0,1-.47,1.4c-.25.26-.5.49-.74.75-.09.09-.2.14-.29.23s-.1.18-.18.26a1.29,1.29,0,0,1-.75.31,16,16,0,0,0-1.67.36,21,21,0,0,1-2.58.61c-1.18.18-2.35.24-3.53.35s-2.2.07-3.3.07c-.65,0-1.28-.09-1.93-.09s-1.14,0-1.71,0c-.26,0-.52-.09-.78-.1s-.59,0-.89,0-.88-.1-1.33-.1-.75,0-1.12,0a14,14,0,0,1-1.59-.12,16,16,0,0,1-1.83-.21c-.45-.1-.89-.14-1.34-.23s-1-.24-1.53-.34a7.84,7.84,0,0,1-1.19-.24,6,6,0,0,0-.83-.33,6.59,6.59,0,0,1-1.21-.47,8.19,8.19,0,0,1-1.3-.63,4.46,4.46,0,0,1-1.09-1,6.1,6.1,0,0,1-.49-1.33,3.07,3.07,0,0,0-.17-.31c-.09-.17-.18-.31-.25-.48s-.14-.32-.2-.49a4.22,4.22,0,0,1-.31-1.33,1.68,1.68,0,0,0,0-.39c0-.07-.08-.1-.08-.19a1.1,1.1,0,0,1,.28-.72c.25-.34.53-.63.79-1s.23-.27.24-.54a1.83,1.83,0,0,1,0-.47.37.37,0,0,1,.12-.19h0c.06-.07.14-.12.2-.2s.12-.39.23-.52a.31.31,0,0,1,.37-.1c.19,0,.35.2.56.25a4.1,4.1,0,0,0,.7,0,1.62,1.62,0,0,0,1-.46,2.52,2.52,0,0,0,.45-.47c.16-.22.22-.53.39-.74l.2-.22a2.23,2.23,0,0,0,.22-.21c.14-.14.21-.14.23-.33a3.68,3.68,0,0,0,0-.47c0-.31.18-.27.36-.46a1.06,1.06,0,0,0,.2-.56c.09-.34.55-.49.57-.84a5.06,5.06,0,0,1,.27-1.35,2.6,2.6,0,0,0,.09-.78v-.22a2.74,2.74,0,0,0-.2-.73c-.1-.32-.32-.63-.45-.94a7.73,7.73,0,0,1-.25-1.2,10,10,0,0,0-.3-1.07c-.31-.83-.81-1.57-1.09-2.39-.15-.46-.43-.85-.6-1.29a4.87,4.87,0,0,1-.39-1,5.52,5.52,0,0,0-.45-1.39,10.14,10.14,0,0,1-.7-1.3,5.67,5.67,0,0,1,.06-1.79,1.81,1.81,0,0,0,0-.57c0-.13-.14-.22-.17-.35a1.71,1.71,0,0,1,.11-.78c.07-.21.19-.36.34-.34a1.82,1.82,0,0,1,.17.56,4.44,4.44,0,0,1,.4.82,6.44,6.44,0,0,0,0,.77.52.52,0,0,0,1,0c0-.14-.06-.21-.08-.32s0-.11.05-.21c.14-.29.43-.48.23-.82s-.34-.27-.43-.48a2,2,0,0,1-.15-.49c-.05-.48.28-.91.36-1.37s-.2-.73-.28-1.07c-.21-.84-.26-1.69-.42-2.53A6.35,6.35,0,0,0,18,25a7.92,7.92,0,0,1-.28-.82,2.31,2.31,0,0,1-.21-.66,7.46,7.46,0,0,1-.07-1.33c0-.34-.06-.63-.09-1a1.58,1.58,0,0,1,.2-1c.14-.26.36-.46.52-.71s.6-1.07.94-.88c.1.38,0,.78.29,1.06a.64.64,0,0,0,.48.13,1.84,1.84,0,0,0,1.14-.63A2.86,2.86,0,0,0,21.56,18c0-.12.06-.25.08-.38a7.3,7.3,0,0,0-.09-1,7.71,7.71,0,0,1,.08-1.07c0-.25.08-.44.09-.72a2.8,2.8,0,0,1,.38-1.25,2.47,2.47,0,0,1,.65-.64l.13-.12a3.54,3.54,0,0,0,.74-.85,10.66,10.66,0,0,1,.81-1c.14-.19.22-.43.36-.62s.4-.59.62-.88S26,9,26.43,9c.75-.11,1.4-.91,1.83-1.48a1.59,1.59,0,0,0,.26-.43,5.69,5.69,0,0,1,.27-.86c.22-.53.42-1.08.67-1.61s.84-1.32,1.42-1c.3.19.26.5.26.79a3.2,3.2,0,0,0,.11,1.38.81.81,0,0,0,.63.39A1.17,1.17,0,0,1,33,6.83a9,9,0,0,1,.5,2.11,2.5,2.5,0,0,0,.84,1.3,10.47,10.47,0,0,0,1.44,1.12,6.93,6.93,0,0,1,1.4,1.07,2.37,2.37,0,0,0,1.28.73,4.92,4.92,0,0,0,.94,0,.52.52,0,0,1,.48.23,1.78,1.78,0,0,0,.66.52c.15.08.31.16.36.32s-.09.54.06.76.41.22.58.28a5.19,5.19,0,0,0,1.52.13h1.29c.24,0,.32,0,.45.19a3.07,3.07,0,0,0,.6.65,2.57,2.57,0,0,0,.44.29c.31.15.56.06.79.36a4.1,4.1,0,0,1,.6,1.65,4.16,4.16,0,0,1,.12.72c0,.46-.17.91-.19,1.37s.33.43.61.56a4.23,4.23,0,0,1,1.1.61c.51.47.72,1.19,1.4,1.44.4.14,1,.13,1.08.6a1.37,1.37,0,0,0,.25.68,5.64,5.64,0,0,0,.56.53l.29.25c.22.17.44.35.65.54a2.87,2.87,0,0,1,.54.75C53.85,26.93,54.12,27,54.07,27.43Z"/><path class="cls-4" d="M65.93,30.17v2.16a19,19,0,0,1-.08,2.13c0,.35,0,.69-.08,1.06a1.41,1.41,0,0,1-.47.88A.85.85,0,0,0,65,37a1,1,0,0,1-.09.3,1.74,1.74,0,0,1-.38.51l-.09.08a.52.52,0,0,1-.11.1h0a2.43,2.43,0,0,0-.26.29c-.08.09-.14.2-.22.28h0v0a.33.33,0,0,1-.1.06s0,0,0,0-.22.15-.32.23a1.68,1.68,0,0,1-.37.33.74.74,0,0,1-.5.11c-.08,0-.16-.1-.24-.13s-.17,0-.26,0a6.55,6.55,0,0,1-.82-.27.64.64,0,0,1-.27-.22,2.36,2.36,0,0,1-.5-1,4.59,4.59,0,0,0-.4-1.09c-.21-.39-.41-.81-.62-1.2a6,6,0,0,1-.34-.61c-.14-.27,0-.32.21-.51a1.88,1.88,0,0,0,.5-.72.69.69,0,0,0,0-.25,2,2,0,0,1,.1-.6c0-.15,0-.28.06-.42S60,32.09,60,32s0-.49.15-.7c.35-.37,1.18-.57,1.17-1.17a2.65,2.65,0,0,1,.25-.86,1.8,1.8,0,0,0,.14-.54,1.4,1.4,0,0,1,.05-.5c.07-.14.09-.4.25-.45s.23,0,.32,0a.75.75,0,0,0,.48-.23,2.13,2.13,0,0,1,.45-.45c.15-.09.22-.11.24-.29a1.08,1.08,0,0,1,.1-.35c0-.1.14-.24.13-.34s-.07-.05-.07-.1.06-.15.1-.23a3.76,3.76,0,0,1,.23-.55.17.17,0,0,1,.08-.07c.1-.07.21,0,.34,0s.38,0,.53,0a.28.28,0,0,1,.1.09,1.21,1.21,0,0,1,.11.37c.1.4.22.76.31,1.16,0,.15,0,.29.08.44a.67.67,0,0,1,.07.17c0,.07,0,.16,0,.23s.07.21.08.33a2.92,2.92,0,0,0,0,.51,1,1,0,0,1,0,.31,1.89,1.89,0,0,0,.08.4A6.12,6.12,0,0,1,65.93,30.17Z"/><path class="cls-5" d="M46.42,9.89c-.16.13-.58,0-.77,0a4.59,4.59,0,0,1-1.1-.24A7.94,7.94,0,0,1,43,8.7a3.81,3.81,0,0,0-1.61-.79A17.87,17.87,0,0,0,38.4,8c-.49,0-1.49.18-1.66-.46s.11-1.09,0-1.61-.53-.33-.78-.6c-.41-.42-.1-1.18-.47-1.59s-1.22,0-1.28-.68A2.87,2.87,0,0,1,34.45,2c0-.11.1-.29.23-.3.3-.33.35-.46.47-.51a.63.63,0,0,1,.33,0,3.35,3.35,0,0,1,1,.18c.43.15.88.19,1.31.32a1.16,1.16,0,0,0,.37.07,1.48,1.48,0,0,1,.65.1,10.43,10.43,0,0,1,.91.66,2.62,2.62,0,0,1,.88,1,6.44,6.44,0,0,1,.2.68c.07.19.14.92.38.9s.49-.46.65-.61.29-.3.52-.24.33.24.47.35l.64.48a5.93,5.93,0,0,0,.75.38,2.41,2.41,0,0,1,.56.47,10,10,0,0,1,1.53,2.24,1.93,1.93,0,0,1,.25,1v0C46.53,9.28,46.56,9.76,46.42,9.89Z"/><path class="cls-5" d="M60.1,19a5.92,5.92,0,0,1-.1,1.19A11.38,11.38,0,0,1,59.8,22a3.27,3.27,0,0,1-.62.94c-.61.73-.93,1.59-1.54,2.3a3.28,3.28,0,0,1-.42.41.76.76,0,0,1-.79.24c0-.17.13-.33.17-.51s.18-.63.06-.77-.14,0-.23-.05a.89.89,0,0,1-.4-.12,3.66,3.66,0,0,1-1-.75,3,3,0,0,1-.6-1,8.66,8.66,0,0,0-1.26-2.34,5.12,5.12,0,0,0-.63-.5,6.21,6.21,0,0,1-.95-.74,12.86,12.86,0,0,1-1.47-2,13.23,13.23,0,0,1-.89-1.36,1,1,0,0,1-.13-.43,9.62,9.62,0,0,0-.4-1.42,4.76,4.76,0,0,0-.29-.65,1.15,1.15,0,0,1-.17-.33,1.7,1.7,0,0,1,.2-.77,2.61,2.61,0,0,0,.19-1.14,5.82,5.82,0,0,0-.2-1.25c0-.12-.22-.46,0-.48-.43-.89-.22-1.19,0-1.28A.86.86,0,0,1,48.69,8a4.21,4.21,0,0,1,1.62,0l.21,0a6.94,6.94,0,0,0,1.44,0,3,3,0,0,1,1.77.53,4.09,4.09,0,0,0,.46.25,4.83,4.83,0,0,0,.66.14h0a5.16,5.16,0,0,1,1.69,1.09,11.84,11.84,0,0,1,1.8,1.44,4.85,4.85,0,0,1,1.37,3.35v0c0,.51,0,1,0,1.55a3.7,3.7,0,0,0,.23,1A5.6,5.6,0,0,1,60.1,19Z"/><path class="cls-5" d="M52.57,7a.35.35,0,0,1,0,.13c-.12.28-.56.23-.82.19a1,1,0,0,1-.36-.15,11.51,11.51,0,0,0-1.82-.92A3.8,3.8,0,0,0,49,6.11,6,6,0,0,1,48.29,6l-.64-.18a1.62,1.62,0,0,0-.58,0c-.2,0-.44.35-.61.36C45.78,4.82,44.21,4.27,43.38,3a.29.29,0,0,1,.16,0,1.62,1.62,0,0,1-.75-.58A3.16,3.16,0,0,0,42.21,2a5.59,5.59,0,0,0-.91-.54c-.28-.13-.5-.07-.47-.36a.45.45,0,0,1,0-.11A2.38,2.38,0,0,0,41.56.6a1,1,0,0,1,.3-.11c.23,0,.5,0,.72,0A3,3,0,0,1,44.29,1a18.45,18.45,0,0,0,2.6,1.49c.32.16.65.32,1,.5a10.62,10.62,0,0,1,1.7,1.12c.51.4,1.1.68,1.61,1.08a3.82,3.82,0,0,1,.88,1,4.28,4.28,0,0,0,.41.45A.47.47,0,0,1,52.57,7Z"/><path class="cls-3" d="M65.93,30.17v2.16a19,19,0,0,1-.08,2.13c0,.35,0,.69-.08,1.06a1.41,1.41,0,0,1-.47.88A.85.85,0,0,0,65,37a1,1,0,0,1-.09.3,1.74,1.74,0,0,1-.38.51l-.09.08a.52.52,0,0,1-.11.1h0c0,.19-.25.36-.37.49l-.11.08h0v0a.33.33,0,0,1-.1.06s0,0,0,0-.2.11-.29.16a1.31,1.31,0,0,1-.84.19,1,1,0,0,1-.45-.23c-.09-.09-.15-.22-.25-.32s-.21-.26-.33-.38a2.55,2.55,0,0,1-.4-.47,3.62,3.62,0,0,1-.22-.63,6.86,6.86,0,0,0-.49-1.26c-.05-.14-.12-.3-.18-.44s-.17-.19-.24-.3,0-.25.07-.36a1.35,1.35,0,0,0,.3-.46,7.9,7.9,0,0,0,.11-.85c0-.07.05-.1.07-.16a.81.81,0,0,0,0-.22,2.68,2.68,0,0,1,.11-.49,1.55,1.55,0,0,1,.59-1.1,1.44,1.44,0,0,0,.38-.36,1.72,1.72,0,0,0,.31-.54,3,3,0,0,1,.23-.66.74.74,0,0,0,.08-.29c0-.1,0-.17,0-.27l.13-.49c.05-.15,0-.26.15-.37s.25-.09.39-.15a1.36,1.36,0,0,0,.44-.35c.17-.16.27-.4.47-.5a1,1,0,0,0,.28-.16c.07-.07,0-.08.07-.16s.14-.2.17-.33v0c0-.08,0-.17,0-.26a.73.73,0,0,0,.06-.21,1.74,1.74,0,0,1,0-.51c0-.07.12-.16.16-.24s.06-.1.2-.13a.52.52,0,0,0,.22-.07,1.21,1.21,0,0,1,.11.37c.1.4.22.76.31,1.16,0,.15,0,.29.08.44a.67.67,0,0,1,.07.17c0,.07,0,.16,0,.23s.07.21.08.33a2.92,2.92,0,0,0,0,.51,1,1,0,0,1,0,.31,1.89,1.89,0,0,0,.08.4A6.12,6.12,0,0,1,65.93,30.17Z"/><path class="cls-4" d="M21.9,47.41a3.92,3.92,0,0,1,.16,1.18,4.45,4.45,0,0,1-.23,1.36,7.77,7.77,0,0,1-.29.87c-.14.32-.18.64-.34.93s-.25.5-.39.75a3.93,3.93,0,0,1-.59.92c-.14.15-.32.24-.45.39a2.45,2.45,0,0,1-.28.31c-.21.16-.5.25-.7.43s-.16.23-.32.29A2.62,2.62,0,0,0,18,55a2.35,2.35,0,0,1-.41.2,2.93,2.93,0,0,1-1.8-.31,2.25,2.25,0,0,0,.2-.2c.11-.13.12-.39.23-.52a.3.3,0,0,1,.37-.1c.2,0,.35.2.56.25a4,4,0,0,0,.7,0,1.64,1.64,0,0,0,1-.46,2.26,2.26,0,0,0,.45-.47c.16-.22.23-.53.39-.73s.29-.29.42-.43.2-.14.23-.33a4.58,4.58,0,0,0,0-.47c0-.31.18-.27.36-.47a1.06,1.06,0,0,0,.2-.56c.09-.34.55-.49.57-.84a5.4,5.4,0,0,1,.28-1.36A2.76,2.76,0,0,0,21.9,47.41Z"/><path class="cls-4" d="M22.88,12.74l0,.11c-.13.49-.48.88-.62,1.36a3.52,3.52,0,0,0-.18,1c0,.38-.11.73-.11,1.13a3.12,3.12,0,0,1-.1,1.13,1.2,1.2,0,0,1-.29.47,3,3,0,0,0,.07-.38,7.51,7.51,0,0,0-.08-1,6.72,6.72,0,0,1,.07-1.07,6.39,6.39,0,0,0,.09-.72,2.76,2.76,0,0,1,.38-1.25,2.46,2.46,0,0,1,.65-.64Z"/><path class="cls-4" d="M49,61.56l-.18-.05a1.85,1.85,0,0,0-.62,0l-.79.19a4.66,4.66,0,0,1-1.13.11H45.3a10.65,10.65,0,0,0-1.78.19,1.46,1.46,0,0,1-1.14-.25,6.65,6.65,0,0,0-1.53-.82A8.83,8.83,0,0,0,38,60.8h-.83a2.42,2.42,0,0,0-.66.05,1.32,1.32,0,0,1-.59,0c-.26-.08-.45-.62-.63-.84a4.56,4.56,0,0,1-.73-1,2.21,2.21,0,0,0-.36-.76,2.28,2.28,0,0,0-.76-.39,16.76,16.76,0,0,0-2-.67,4.21,4.21,0,0,1-.58-.11,3.18,3.18,0,0,0-.53-.24A4.51,4.51,0,0,1,29.13,56a8.81,8.81,0,0,0-.92-.72c-.29-.17-.57-.31-.85-.48a2.69,2.69,0,0,1-1.1-2c0-.14,0-.33-.05-.45s-.08-.06-.1-.11a1.08,1.08,0,0,1,0-.36.26.26,0,0,0,0-.15c0-.12-.11-.24-.14-.36s0-.16,0-.19h-.13c-.16,0-.31-.09-.47-.11a.68.68,0,0,1-.15,0,1.92,1.92,0,0,0-.31-.11l-.24-.07a1.39,1.39,0,0,0-.43-.12,4.08,4.08,0,0,1-.6-.16,1.24,1.24,0,0,1-.49-.2,2.48,2.48,0,0,1-.39-.27.85.85,0,0,1-.11-.34,1.24,1.24,0,0,1,0-.47c0-.17,0-.35,0-.53v-.28c0-.09,0-.17,0-.25s0-.21,0-.31a1.3,1.3,0,0,1,0-.22,1.08,1.08,0,0,1,0-.4c.16,0,.5.09.54-.17s-.18-.26-.24-.35-.19-.36-.3-.55a2,2,0,0,1-.17-.59.75.75,0,0,0,0-.16.56.56,0,0,1,0-.22c0-.17,0-.34,0-.51s.08-.38.08-.57a.39.39,0,0,1,.09-.26l.16-.22c.07-.09.11-.08.21-.08H23a2.63,2.63,0,0,0,.63-.23,3.94,3.94,0,0,1,.69-.21c.33-.09.33-.56.64-.69s.37-.1.54-.19l.36-.17.25-.07c-.21.17-.42.34-.64.5a2.14,2.14,0,0,0-1,1.06c-.12.35-.44.35-.75.44a1,1,0,0,0-.84.74,6.75,6.75,0,0,0,0,1.19c0,.55.36.82.64,1.22s-.09.44-.28.69A1.69,1.69,0,0,0,23,49.08c0,.57.44.64.91.84.21.09.43.17.64.27s.36.31.58.36.67-.19,1-.07.36.79.39,1.29c0,.18,0,.34,0,.44a4,4,0,0,0,.32,1,2.15,2.15,0,0,0,1.15,1c.34.16.48.46.71.72a2.13,2.13,0,0,0,1,.59c.8.32,1.54.76,2.35,1,.36.12.72.23,1.07.37s.8.18,1.21.3a6.46,6.46,0,0,1,.81.36,2.12,2.12,0,0,1,.74.47,3,3,0,0,1,.69,1.39c0,.14.08.38.24.46s.22,0,.31,0a3.08,3.08,0,0,1,.67.09,4.68,4.68,0,0,0,.65,0c.74,0,1.46.27,2.21.19.34,0,.65-.18,1-.19a4.31,4.31,0,0,1,1.85.25c.2.08.42.12.62.21a6,6,0,0,0,.73.45,1.32,1.32,0,0,0,.56,0c.88-.12,2-.83,2.88-.25l.08,0A2.06,2.06,0,0,1,49,61.56Z"/><path class="cls-6" d="M46.53,9.1a2.51,2.51,0,0,0-.24.26c0,.07,0,.07-.12.08a2.28,2.28,0,0,1-.33,0,3,3,0,0,1-.47,0c-.24,0-.47-.07-.71-.13a2.88,2.88,0,0,1-.57-.23c-.12,0-.2-.16-.31-.22a.87.87,0,0,1-.2-.15,4.56,4.56,0,0,1-.49-.4A.94.94,0,0,0,42.45,8c-.18,0-.36-.11-.54-.16s-.52-.12-.78-.19a3.77,3.77,0,0,0-.91-.15,3.9,3.9,0,0,1-.54,0c-.13,0-.26,0-.38,0s-.47-.08-.7-.08H38a1.06,1.06,0,0,1-.42,0,.42.42,0,0,1-.3-.27,2.3,2.3,0,0,1-.11-.7c0-.11,0-.23,0-.34s0-.14,0-.21a.38.38,0,0,0,0-.17A.88.88,0,0,0,37,5.45c-.08-.09-.16-.19-.25-.27L36.5,5l-.14-.16a1.27,1.27,0,0,1-.1-.18,1.33,1.33,0,0,1-.2-.37c0-.13,0-.29-.07-.42a.79.79,0,0,0-.21-.37.79.79,0,0,0-.34-.24L35,3.11a.51.51,0,0,0-.19,0,.77.77,0,0,1-.15,0c-.15,0-.2,0-.24-.17a.55.55,0,0,1,0-.34s0-.11,0-.16,0-.07,0-.09,0-.13,0-.19a3.24,3.24,0,0,1,.17-.38c.3-.33.35-.46.47-.51a.63.63,0,0,1,.33,0,3.35,3.35,0,0,1,1,.18c.43.15.88.19,1.31.32a1.16,1.16,0,0,0,.37.07,1.48,1.48,0,0,1,.65.1,10.43,10.43,0,0,1,.91.66,2.62,2.62,0,0,1,.88,1,6.44,6.44,0,0,1,.2.68c.07.19.14.92.38.9s.49-.46.65-.61.29-.3.52-.24.33.24.47.35l.64.48a5.93,5.93,0,0,0,.75.38,2.41,2.41,0,0,1,.56.47,10,10,0,0,1,1.53,2.24A1.93,1.93,0,0,1,46.53,9.1Z"/><path class="cls-6" d="M52.45,6.6a.75.75,0,0,1-.21,0h-.15a4,4,0,0,1-1.37-.29l-.57-.26a2.6,2.6,0,0,1-.36-.13c-.11-.05-.23-.06-.34-.12l-.15-.08-.12,0-.31-.11c-.13,0-.29,0-.43-.09a2.59,2.59,0,0,0-.37-.11c-.14,0-.29,0-.43,0a1.94,1.94,0,0,0-.68,0,1.47,1.47,0,0,0-.28.08.29.29,0,0,1-.16,0,.23.23,0,0,1-.18,0s0-.09-.09-.13A2.76,2.76,0,0,1,46,5c-.24-.29-.51-.58-.74-.88a8.94,8.94,0,0,0-.67-.71c-.13-.12-.25-.26-.38-.38s-.25-.16-.35-.25a10.69,10.69,0,0,1-.71-.8l-.27-.27a2.32,2.32,0,0,1-.35-.35A3.18,3.18,0,0,0,42,.78,1.35,1.35,0,0,0,41.56.6a1,1,0,0,1,.3-.11c.23,0,.5,0,.72,0A3,3,0,0,1,44.29,1a18.45,18.45,0,0,0,2.6,1.49c.32.16.65.32,1,.5a10.62,10.62,0,0,1,1.7,1.12c.51.4,1.1.68,1.61,1.08a3.82,3.82,0,0,1,.88,1A4.28,4.28,0,0,0,52.45,6.6Z"/><path class="cls-6" d="M60.1,19a5.92,5.92,0,0,1-.1,1.19A11.38,11.38,0,0,1,59.8,22a3.27,3.27,0,0,1-.62.94c-.61.73-.93,1.59-1.54,2.3a.92.92,0,0,1-.24,0c-.08,0-.06-.17-.09-.23a5.62,5.62,0,0,1-.23-.77A1.2,1.2,0,0,0,57,24c0-.05-.1-.06-.15-.1a1.06,1.06,0,0,0-.21-.11.9.9,0,0,1-.22-.06l-.27-.1a.5.5,0,0,1-.14-.08,2.06,2.06,0,0,1-.37-.29,2.8,2.8,0,0,1-.38-.47,3.5,3.5,0,0,1-.26-.51.81.81,0,0,0-.16-.32.3.3,0,0,1-.12-.13c-.07-.19-.07-.39-.15-.57a2.39,2.39,0,0,0-.39-.72l-.26-.23c-.12-.09-.19-.19-.31-.27s-.3-.22-.45-.33-.21-.14-.32-.22l-.24-.17-.2-.16a1.2,1.2,0,0,1-.21-.17,1,1,0,0,1-.14-.21,4.28,4.28,0,0,0-.4-.45,2,2,0,0,1-.35-.47,3.56,3.56,0,0,1-.34-.6c-.07-.16-.12-.33-.2-.5a1.23,1.23,0,0,1-.11-.23,1.05,1.05,0,0,0-.06-.24l-.06-.16a1.46,1.46,0,0,0-.07-.19c-.05-.08-.13-.1-.18-.15a1.49,1.49,0,0,1-.12-.14L50,15.49a5.05,5.05,0,0,1-.37-1,1.92,1.92,0,0,1-.09-.4,1.94,1.94,0,0,0-.05-.2c0-.07-.08-.09-.12-.15l-.17-.27a.84.84,0,0,1-.17-.4,1.76,1.76,0,0,1,.09-.5,4.51,4.51,0,0,0,.09-.53,2.52,2.52,0,0,1,.18-.61,4.26,4.26,0,0,0,.2-.8,3.19,3.19,0,0,0,.08-.7.69.69,0,0,0-.13-.38,2.08,2.08,0,0,0-.13-.3c0-.1-.13-.18-.18-.27a2.44,2.44,0,0,0-.32-.4c-.1-.09-.21-.13-.22-.27V8a4.21,4.21,0,0,1,1.62,0l.21,0a6.94,6.94,0,0,0,1.44,0,3,3,0,0,1,1.77.53,4.09,4.09,0,0,0,.46.25,4.83,4.83,0,0,0,.66.14h0a5.16,5.16,0,0,1,1.69,1.09,11.84,11.84,0,0,1,1.8,1.44,4.85,4.85,0,0,1,1.37,3.35v0c0,.51,0,1,0,1.55a3.7,3.7,0,0,0,.23,1A5.6,5.6,0,0,1,60.1,19Z"/><path class="cls-7" d="M65.84,29.21a1.89,1.89,0,0,1-.08-.4,1,1,0,0,0,0-.31,2.92,2.92,0,0,1,0-.51c0-.12-.06-.2-.08-.33s0-.16,0-.23a.67.67,0,0,0-.07-.17c0-.15,0-.29-.08-.44-.09-.4-.21-.76-.31-1.16a1.21,1.21,0,0,0-.11-.37.28.28,0,0,0-.1-.09c-.15-.07-.37,0-.53,0s-.24-.09-.34,0a32.5,32.5,0,0,0-4.35-10.28,4.85,4.85,0,0,0-1.37-3.35,11.84,11.84,0,0,0-1.8-1.44A5.16,5.16,0,0,0,54.87,9c-.74-.7-1.51-1.37-2.3-2a.47.47,0,0,0-.12-.39A4.28,4.28,0,0,1,52,6.15a3.82,3.82,0,0,0-.88-1c-.51-.4-1.1-.68-1.61-1.08A10.62,10.62,0,0,0,47.85,3c.3.21.4.62.77,1.16,0,0,.88,1.32,1.12,1.82,0,0-.2.31-.2.31.28.58.53,1.17.77,1.76.21,0,.42,0,.5.2a34.88,34.88,0,0,1,1.28,4.12,28,28,0,0,0-25.5-.74,10.33,10.33,0,0,0,1.21,2.24c-1.57-1-3.09-2-3.58-2.25l-5.33,13.2,8.14,4,8-4.22-2.52-6.9a45.37,45.37,0,0,1,13.59-.9.9.9,0,0,1,.68.26,29.19,29.19,0,0,1,3.78.69l.54-.24c.6.18,1.42.82,2,1,0,.39,0,.77.05,1.15,0,.19-.55,0-.55.19V20a32.91,32.91,0,0,1-.4,5.1c0,.14.28.47.26.61a29.47,29.47,0,0,1-.78,4.47c-.08.26-.88.51-1,.76A32.5,32.5,0,0,1,26.54,51.77c-.15,0-.21.68-.37.7a33.08,33.08,0,0,1-5.31.55c-.24,0-.49-.08-.73-.08L20,52.41A32.32,32.32,0,0,1,4,48.15l.08.14A32.58,32.58,0,0,0,14.75,59.65c.06.17.13.33.2.49s.16.31.25.48a3.07,3.07,0,0,1,.17.31,6.1,6.1,0,0,0,.49,1.33,4.46,4.46,0,0,0,1.09,1,8.19,8.19,0,0,0,1.3.63,6.59,6.59,0,0,0,1.21.47,6,6,0,0,1,.83.33,7.85,7.85,0,0,0,1.19.24c.51.1,1,.24,1.53.34s.89.13,1.34.23a16,16,0,0,0,1.83.21,14,14,0,0,0,1.59.12c.37,0,.75,0,1.12,0s.88.09,1.33.1.6,0,.89,0,.52.09.78.1c.57,0,1.14,0,1.71,0s1.28.09,1.93.09c1.1,0,2.19,0,3.3-.07s2.35-.17,3.53-.35a21,21,0,0,0,2.58-.61,16,16,0,0,1,1.67-.36,1.29,1.29,0,0,0,.75-.31c.08-.08.11-.18.18-.26s.2-.14.29-.23c.24-.26.49-.49.74-.75A1.71,1.71,0,0,0,49,61.8a1.19,1.19,0,0,0-.07-.23h0a2.06,2.06,0,0,0-.59-.73l-.08,0a32.46,32.46,0,0,0,16.15-22.9l.09-.08a1.74,1.74,0,0,0,.38-.51A1,1,0,0,0,65,37a.85.85,0,0,1,.3-.59,1.41,1.41,0,0,0,.47-.88c.07-.37,0-.71.08-1.06a19,19,0,0,0,.08-2.13V30.17A6.12,6.12,0,0,0,65.84,29.21Z"/><path class="cls-8" d="M30.81,15.16a45.83,45.83,0,0,0-4.21-3.58c-.27-.21-1.46-4.67-1.2-4.79,20.76-9.36,30.37-.45,39.79,13.36a4,4,0,0,0,.61-1.26l1.3-.83c.88,4.38.7,6.41-.52,10.1l-2,.21a14.18,14.18,0,0,0-4.11-5.1,18,18,0,0,1,1.76-1.37c-4.81-7.35-18-16.27-30.62-6.85C31.28,15.37,30.94,15.33,30.81,15.16Z"/><path class="cls-9" d="M31.33,12.93c-1.54-1.09-4.78-3.49-5.9-5.52-.19-.41-.11-1,.15-1.14,20.82-8.94,30.8-2,41.18,13.92,0-.77.39-1.11.34-2.11,1,5.17.91,6.5-.52,10.1a16.93,16.93,0,0,0-3.38-5.26c.72-.22,1-.31,1.57-.44C58.23,13,46.08,3.84,32.3,12.78,32,13.09,31.63,13.21,31.33,12.93Z"/><path class="cls-10" d="M79.47,32.48h0a2.64,2.64,0,0,0-.29-.79c-.23-.39-1.06.15-1.6-.06a36.78,36.78,0,0,0-6.3-1.22,59.24,59.24,0,0,0-6.62-.56c-.13,0-.2.13-.23.32h0a3.27,3.27,0,0,0,.29,1.57,25,25,0,0,0,4,5.08h0a4.66,4.66,0,0,0,1.29.83,9.26,9.26,0,0,0,8.28-1.26,3,3,0,0,0,1.35-2.62A12.75,12.75,0,0,0,79.47,32.48Zm-3.2,3.12a5.08,5.08,0,0,1-4.53.69c-1-.39-1.36-1.12-1-1.84a2,2,0,0,1,.62-.77A5,5,0,0,1,75.87,33a2,2,0,0,1,.82.54C77.23,34.12,77.11,34.93,76.27,35.6Z"/><path class="cls-2" d="M79.31,32a2.13,2.13,0,0,0-.1-.21l0-.07-.05,0a3.51,3.51,0,0,0-1.75-1.32,25.07,25.07,0,0,0-6-.68c-2.47-.09-5-.07-6.35-.06a.57.57,0,0,0-.56.59h0a.62.62,0,0,0,.09.26,25,25,0,0,0,4,5.07,4.7,4.7,0,0,0,1.32.86,9.26,9.26,0,0,0,8.28-1.27,3,3,0,0,0,1.36-2.61h0A2.91,2.91,0,0,0,79.31,32Zm-8.17.41a5.08,5.08,0,0,1,4.53-.69c1,.39,1.36,1.13,1,1.85a2,2,0,0,1-.62.76,5.05,5.05,0,0,1-4.53.7,2.13,2.13,0,0,1-.82-.54C70.18,33.85,70.3,33,71.14,32.37Z"/><path class="cls-7" d="M71.28,30.4c-.48,1.77-2.82,4.85-2.82,4.85l0,.25c.06.3.16.84.23,1.32a25,25,0,0,1-4-5.08,3.27,3.27,0,0,1-.29-1.57h0a.57.57,0,0,1,.56-.59c1.35,0,3.88,0,6.35.06A1.64,1.64,0,0,1,71.28,30.4Z"/><polygon class="cls-11" points="26.7 20.61 18.89 24.76 12.6 24.58 22.22 19.67 26.7 20.61"/><polygon class="cls-12" points="24.23 11.57 26.7 20.61 22.22 19.67 18.63 8.87 24.23 11.57"/><polygon class="cls-13" points="18.63 8.87 19.86 12.52 20.61 14.49 22.23 19.68 12.6 24.58 11.52 19.78 10.88 17.72 9.72 13.3 18.63 8.87"/><polygon class="cls-14" points="20.07 13.07 20.81 15.12 11.65 20.34 11.05 18.25 20.07 13.07"/><polygon class="cls-15" points="20.81 15.12 22.31 15.9 22.56 16.06 22.17 15.58 22.17 15.58 22.3 15.42 21.88 14.92 22.01 14.77 21.57 14.27 21.57 14.27 21.57 14.27 21.57 14.27 21.7 14.13 21.41 13.96 20.07 13.06 20.81 15.12"/><path class="cls-15" d="M11.32,19.15l.06.19s.18.33,9.15-5l-.1-.31C18.74,15.41,11.56,19.06,11.32,19.15Z"/><path class="cls-16" d="M18.67,23.83h1.86l5.3-2.76-1.66,0Zm6.9-2.65-5,2.56H19l5.15-2.56ZM20,23.53h-.33l.32-.15.46-.07-.2,0,.9-.42h.26c.17,0,.07.13-.23.3h.26l.42-.24H22l-1,.57h-.08l.46-.25h-.26A3,3,0,0,1,20,23.53Zm5.15-2.2-1.08.54H24l1.06-.52Zm-1.41.4-.1,0-.15-.11.5,0-.11,0,.38,0-.07,0-.07,0Zm.45-.2-.11.05-.18-.12.53-.07-.11.06h.42l-.07,0-.07,0Zm-2.63,1.26.22-.15a5.22,5.22,0,0,1,.46-.28h-.07l.12-.07h.07l.53-.25.32-.13s0,0,0,0l-.73.38h.31c.11,0,.22,0,0,.15l-.23.1a.65.65,0,0,1-.22,0l.13-.07.14,0,.12-.05c.08,0,.14-.08,0-.08h-.31l-.79.43Zm-.12-.06s0-.06,0-.06l.25-.06s0,0-.05.06A.53.53,0,0,1,21.47,22.71Zm.44-.23s0-.06,0-.06l.23-.06s0,0-.05.06A.48.48,0,0,1,21.91,22.48Zm.46-.24s0-.06,0-.06l.22-.05s0,0-.05.06A.43.43,0,0,1,22.36,22.24Zm.39-.21s0-.06,0-.06l.21,0s0,0,0,.06A.4.4,0,0,1,22.75,22Z"/></g></g></g></svg>