<svg xmlns="http://www.w3.org/2000/svg" viewBox="0 0 83.93 87.11"><defs><style>.cls-1{isolation:isolate;}.cls-2{fill:#2846cd;}.cls-3{fill:#1748ba;}.cls-4{fill:#335abf;}.cls-5{fill:#1d1d1b;}.cls-6{fill:#1c4ac3;}.cls-7{fill:#b2e3df;}.cls-8{fill:#9dd4ba;}.cls-9{fill:#2ea9c7;}.cls-10{fill:#1943ae;}.cls-11{fill:#c1e8e5;}.cls-12{fill:#c6efed;}.cls-13{fill:#48433f;}.cls-14{fill:#292524;}.cls-15{fill:#1a1716;}.cls-16{fill:#39d1f6;}.cls-17{fill:#49a8f1;}.cls-18{fill:#3f9cd3;}.cls-19{fill:#4db2ff;}.cls-20{fill:#527068;}.cls-21{fill:#1e840b;}.cls-22{fill:#17e715;}.cls-23{fill:#21b510;}.cls-24{fill:#6b635e;}.cls-25{fill:#827872;}.cls-26{fill:#273531;}.cls-27{fill:#0d6b91;}.cls-28{fill:#168ef4;}.cls-29{fill:#1184c2;}.cls-30{fill:#d1ccc0;mix-blend-mode:multiply;}.cls-31{fill:#c9fffb;mix-blend-mode:soft-light;}</style></defs><title>i2</title><g class="cls-1"><g id="Слой_2" data-name="Слой 2"><g id="Layer_3" data-name="Layer 3"><polygon class="cls-2" points="83.93 44.13 59.31 29.91 12.95 56.59 12.35 56.94 12.35 57.52 13.2 57.02 59.31 30.49 82.93 44.13 82.76 44.22 83.79 44.21 83.93 44.13"/><path class="cls-3" d="M59.31,30.49l-5.17,3h0v-2l-8,4.61V38h0l-33,19-.85.5V55L8.73,57.09V54.37C1.39,58.92,0,64.64.66,68.54a12.88,12.88,0,0,0,1,3.31l.32.06C.93,66.42,3,61.46,8.43,58.18l1.82,1.05,2.32-1.34.85-.49,1.37.79h0l44.52-25.7L81.34,45l1.59-.91Z"/><polygon class="cls-2" points="46.17 38.05 45.66 37.76 45.66 35.83 46.17 36.12 46.17 38.05"/><polygon class="cls-2" points="53.64 31.22 45.66 35.83 46.17 36.12 54.14 31.51 53.64 31.22"/><path class="cls-4" d="M10.56,81.08c4.51,1.78,4,6.13,4.63,6A19.35,19.35,0,0,0,24,84.63c4.48-2.38,43.06-24.83,49-28.31a1.51,1.51,0,0,0,.76-1.15,5.81,5.81,0,0,1,2.05-3.65C78.35,49.2,10.56,81.08,10.56,81.08Z"/><polygon class="cls-2" points="36.97 68.62 34.92 69.81 33.34 70.72 33.34 70.14 34.42 69.52 36.55 68.29 36.97 68.62"/><polygon class="cls-5" points="34.42 69.52 33.34 70.14 33.34 68.89 34.42 69.52"/><polygon class="cls-2" points="12.35 54.98 8.73 57.09 8.73 56.51 11.94 54.64 12.35 54.98"/><path class="cls-2" d="M33.34,68q-.39.24-.78.45c-1.12.64-2.24,1.22-3.37,1.73-8.58,3.91-17.36,4.25-27.07,2.27l-.76-.15A12.21,12.21,0,0,1,.17,68.62s0-.06,0-.09L.1,68.1l0-.35a12.23,12.23,0,0,1,3.08-9.48,6.27,6.27,0,0,1,.43-.49,21.13,21.13,0,0,1,4.5-3.62l.2-.12.45.33C1.39,58.92,0,64.64.66,68.54a12.88,12.88,0,0,0,1,3.31l.32.06.21,0A53.55,53.55,0,0,0,13,73.12a37.65,37.65,0,0,0,15.65-3.26l.33-.15A33,33,0,0,0,32,68.15l.27-.15.61-.35Z"/><path class="cls-6" d="M37,70.57v-2l-.42-.33-2.13,1.23-1.08-.63V68l-.41-.34-.61.35-.27.15-17.26-10h0l44.52-25.7L81.34,45Z"/><polygon class="cls-7" points="79.07 25.12 66.42 32.43 66.42 52.45 79.07 45.15 79.07 25.12"/><polygon class="cls-8" points="76.81 41.86 76.81 44.67 78.5 43.69 78.5 40.88 78.2 41.05 76.81 41.86"/><polygon class="cls-9" points="76.81 41.86 76.81 44.32 78.2 43.52 78.2 41.05 76.81 41.86"/><polygon class="cls-8" points="67.85 47.05 67.85 49.85 69.54 48.88 69.54 46.06 69.24 46.23 67.85 47.05"/><polygon class="cls-9" points="67.85 47.05 67.85 49.51 69.24 48.7 69.24 46.23 67.85 47.05"/><path class="cls-6" d="M32,68.15A33,33,0,0,1,29,69.71l-.33.15L10.25,59.23l2.32-1.34.85-.49,1.37.79Z"/><path class="cls-6" d="M28.65,69.86A37.65,37.65,0,0,1,13,73.12,53.55,53.55,0,0,1,2.22,71.95l-.21,0C.93,66.42,3,61.46,8.43,58.18l1.82,1.05Z"/><polygon class="cls-6" points="34.42 69.52 33.34 70.14 33.34 68.89 34.42 69.52"/><polygon class="cls-10" points="10.25 59.23 10.56 59.05 28.98 69.71 28.65 69.86 10.25 59.23"/><polygon class="cls-10" points="14.79 58.18 15.11 58 32.38 68 32.05 68.15 14.79 58.18"/><polygon class="cls-10" points="34.75 69.37 34.42 69.52 33.34 68.9 33.34 68.55 34.75 69.37"/><polygon class="cls-11" points="66.42 32.43 66.42 32.43 48.06 21.83 48.06 21.83 44.58 19.82 44.58 22.79 48.06 27.45 48.06 27.45 48.06 41.86 66.42 52.45 66.42 38.05 66.42 38.05 70.29 37.37 70.29 34.66 66.42 32.43"/><polygon class="cls-7" points="70.29 37.37 70.29 34.66 82.94 27.36 82.93 30.07 70.29 37.37"/><polygon class="cls-12" points="57.43 12.63 44.58 19.82 70.29 34.66 82.94 27.36 57.43 12.63"/><polygon class="cls-2" points="51.4 12.36 50.39 14.98 68.78 25.57 69.55 22.84 51.4 12.36"/><polygon class="cls-6" points="60.09 9.63 51.4 12.36 69.55 22.84 78.24 20.11 60.09 9.63"/><path class="cls-11" d="M45.67,40.69c0,.23.5.23.5,0V34.16h-.5Z"/><path class="cls-11" d="M67.69,53.83c0,.23.5.23.5,0V47.3h-.5Z"/><path class="cls-11" d="M74.91,43.33v6.53c0,.23.5.23.5,0V43.33Z"/><path class="cls-11" d="M81.26,39.37V45.9c0,.23.5.23.5,0V39.37Z"/><polygon class="cls-2" points="82.76 44.22 81.34 45.04 36.97 70.57 36.97 71.15 81.84 45.33 83.79 44.21 82.76 44.22"/><path class="cls-13" d="M81.84,45.33l-3.58,2.06V45.44l-8,4.61V52L37,71.15V68.62l-2.05,1.19-1.58.91V68c-.16.1-.33.2-.49.28l-.29.17c-1.12.64-2.24,1.22-3.37,1.73-8.58,3.91-17.36,4.25-27.07,2.27l-.76-.15A12.21,12.21,0,0,1,.17,68.62c.51,4.62,1,5.33,2.82,7.68s11.52,10.63,28.26,1.43c16.44-9,49.25-27.51,49.25-27.51a6.7,6.7,0,0,0,3.43-6.09Z"/><polygon class="cls-2" points="70.29 51.98 69.79 51.69 69.79 49.75 70.29 50.04 70.29 51.98"/><polygon class="cls-2" points="77.76 45.15 69.79 49.75 70.29 50.04 78.26 45.44 77.76 45.15"/><path class="cls-14" d="M30.68,72.84a3.34,3.34,0,0,1-1.87,2.35c-.66.29-1.18.18-1.39-.22a1.06,1.06,0,0,1-.09-.64A3.4,3.4,0,0,1,29.19,72a1.31,1.31,0,0,1,1-.1h0A.83.83,0,0,1,30.68,72.84Z"/><path class="cls-15" d="M30.32,72.54a3.36,3.36,0,0,1-1.86,2.34,1.31,1.31,0,0,1-1,.09,1.06,1.06,0,0,1-.09-.64A3.4,3.4,0,0,1,29.19,72a1.31,1.31,0,0,1,1-.1h0A1.05,1.05,0,0,1,30.32,72.54Z"/><polygon class="cls-3" points="48.06 35.18 66.42 45.78 79.07 38.47 79.07 36.91 82.8 39.06 82.8 39.31 68.02 47.84 44.63 34.34 44.63 34.09 48.06 33.88 48.06 35.18"/><polygon class="cls-2" points="48.06 34.93 66.42 45.53 79.07 38.22 79.07 36.91 82.8 39.06 68.02 47.59 44.63 34.09 48.06 32.11 48.06 34.93"/><polygon class="cls-7" points="55.37 41.05 55.37 43.86 53.68 42.88 53.68 40.07 53.98 40.24 55.37 41.05"/><polygon class="cls-16" points="55.37 41.05 55.37 43.51 54.4 42.95 53.98 42.71 53.98 40.24 55.21 40.96 55.37 41.05"/><polygon class="cls-7" points="64.33 46.23 64.33 49.04 62.65 48.06 62.65 45.25 62.95 45.42 64.33 46.23"/><polygon class="cls-16" points="64.33 46.23 64.33 48.69 63.38 48.14 62.94 47.89 62.94 45.42 64.19 46.15 64.33 46.23"/><polygon class="cls-7" points="50.89 31.69 50.89 34.5 49.2 33.52 49.2 30.71 49.5 30.88 50.89 31.69"/><polygon class="cls-16" points="50.89 31.69 50.89 34.15 49.88 33.57 49.5 33.35 49.5 30.88 50.69 31.57 50.89 31.69"/><polygon class="cls-7" points="59.85 36.87 59.85 39.68 58.16 38.7 58.16 35.89 58.46 36.06 59.85 36.87"/><polygon class="cls-16" points="59.85 36.87 59.85 39.33 58.86 38.76 58.46 38.53 58.46 36.06 59.67 36.76 59.85 36.87"/><polygon class="cls-8" points="76.81 34.33 76.81 37.13 78.5 36.16 78.5 33.34 78.2 33.52 76.81 34.33"/><polygon class="cls-9" points="76.81 34.33 76.81 36.78 78.2 35.98 78.2 33.52 76.81 34.33"/><polygon class="cls-8" points="72.33 36.92 72.33 39.73 74.02 38.75 74.02 35.94 73.72 36.11 72.33 36.92"/><polygon class="cls-9" points="72.33 36.92 72.33 39.38 73.72 38.58 73.72 36.11 72.33 36.92"/><polygon class="cls-7" points="50.89 24.92 50.89 27.73 49.2 26.75 49.2 23.94 49.5 24.11 50.89 24.92"/><polygon class="cls-16" points="50.89 24.92 50.89 27.38 49.85 26.78 49.5 26.58 49.5 24.11 50.66 24.78 50.89 24.92"/><polygon class="cls-7" points="55.37 27.51 55.37 30.32 53.68 29.34 53.68 26.53 53.98 26.7 55.37 27.51"/><polygon class="cls-16" points="55.37 27.51 55.37 29.97 54.33 29.37 53.98 29.17 53.98 26.7 55.15 27.38 55.37 27.51"/><polygon class="cls-7" points="64.33 32.69 64.33 35.5 62.65 34.52 62.65 31.71 62.95 31.88 64.33 32.69"/><polygon class="cls-16" points="64.33 32.69 64.33 35.15 63.32 34.57 62.94 34.35 62.94 31.88 64.13 32.57 64.33 32.69"/><polygon class="cls-11" points="68.75 25.57 50.39 14.98 50.39 20.38 68.75 30.97 68.75 25.57"/><polygon class="cls-7" points="68.75 25.57 78.2 20.11 78.2 25.52 68.75 30.97 68.75 25.57"/><polygon class="cls-3" points="68.75 25.57 69.55 22.84 78.2 20.11 68.75 25.57"/><polygon class="cls-7" points="54.2 18.55 54.2 21.36 51.21 19.63 51.21 16.82 51.51 16.99 54.2 18.55"/><polygon class="cls-16" points="54.2 18.55 54.2 21.01 53.44 20.58 52.86 20.24 51.87 19.67 51.52 19.47 51.52 17 53.97 18.41 54.2 18.55"/><polygon class="cls-7" points="58.35 20.95 58.35 23.76 55.37 22.03 55.37 19.22 55.67 19.39 58.35 20.95"/><polygon class="cls-16" points="58.36 20.95 58.36 23.41 57.6 22.98 57.02 22.64 56.03 22.07 55.68 21.87 55.68 19.4 58.13 20.81 58.36 20.95"/><polygon class="cls-7" points="62.51 23.35 62.51 26.16 59.53 24.43 59.53 21.62 59.83 21.79 62.51 23.35"/><polygon class="cls-16" points="62.51 23.35 62.51 25.81 61.75 25.38 61.17 25.04 60.18 24.47 59.83 24.27 59.83 21.8 62.28 23.21 62.51 23.35"/><polygon class="cls-7" points="66.67 25.75 66.67 28.56 63.68 26.83 63.68 24.02 63.98 24.19 66.67 25.75"/><polygon class="cls-16" points="66.67 25.75 66.67 28.21 65.91 27.78 65.33 27.44 64.34 26.87 63.99 26.67 63.99 24.2 66.44 25.61 66.67 25.75"/><polygon class="cls-8" points="74.23 23.35 74.23 26.16 77.22 24.43 77.22 21.62 76.92 21.79 74.23 23.35"/><polygon class="cls-9" points="74.23 23.35 74.23 25.81 74.99 25.38 75.57 25.04 76.56 24.47 76.91 24.27 76.91 21.8 74.46 23.21 74.23 23.35"/><polygon class="cls-8" points="70.08 25.75 70.08 28.56 73.06 26.83 73.06 24.02 72.76 24.19 70.08 25.75"/><polygon class="cls-9" points="70.07 25.75 70.07 28.21 70.83 27.78 71.41 27.44 72.4 26.87 72.75 26.67 72.75 24.2 70.3 25.61 70.07 25.75"/><polygon class="cls-17" points="67.85 6.6 65.68 5.35 62.56 14.95 66.11 17 67.85 6.6"/><polygon class="cls-18" points="67.85 6.6 69.24 5.8 70.07 15.4 66.11 17 67.85 6.6"/><polygon class="cls-19" points="65.68 5.35 67.85 6.6 69.24 5.8 67.07 4.55 65.68 5.35"/><polygon class="cls-13" points="65.06 4.62 67.98 6.3 69.86 5.22 69.86 4.85 66.94 3.17 65.06 4.25 65.06 4.62"/><polygon class="cls-20" points="65.06 4.25 67.98 5.94 69.86 4.85 66.94 3.17 65.06 4.25"/><path class="cls-11" d="M68.34,4.87c0,.23.5.23.5,0V1.34c0-.61-.5-.61-.5,0Z"/><path class="cls-11" d="M66.82,4c0,.23.5.23.5,0V.46c0-.61-.5-.61-.5,0Z"/><path class="cls-11" d="M67.46,5.34c0,.17.36.17.36,0V2.77c0-.44-.36-.44-.36,0Z"/><path class="cls-11" d="M69.35,2.81,67.53,1.76a.25.25,0,0,1,.25-.43L69.6,2.38C70,2.58,69.7,3,69.35,2.81Z"/><path class="cls-11" d="M67.49,1.1l-1-.58a.14.14,0,0,1,.14-.24l1,.58C67.82,1,67.68,1.21,67.49,1.1Z"/><polygon class="cls-21" points="51.59 55.13 46.93 57.83 46.93 52.08 51.59 49.39 51.59 55.13"/><polygon class="cls-22" points="51.6 49.39 49.21 50.76 48.98 50.9 48.89 50.95 47.23 51.91 46.93 52.08 36.7 46.18 41.36 43.48 51.6 49.39"/><polygon class="cls-23" points="46.93 57.83 36.7 51.92 36.7 46.18 46.93 52.08 46.93 57.83"/><polygon class="cls-7" points="50.44 62.08 50.44 57.14 51.89 56.3 51.89 61.2 50.44 62.08"/><polygon class="cls-7" points="31.66 51.24 31.66 46.3 33.11 45.46 33.11 50.36 31.66 51.24"/><polygon class="cls-11" points="29.94 45.3 29.94 50.25 31.66 51.24 31.66 48.51 48.72 58.35 48.72 61.09 50.44 62.08 50.44 57.14 29.94 45.3"/><polygon class="cls-12" points="31.38 44.46 29.94 45.3 50.44 57.14 51.89 56.3 31.38 44.46"/><polygon class="cls-7" points="46.1 64.59 46.1 59.64 47.55 58.81 47.55 63.71 46.1 64.59"/><polygon class="cls-7" points="27.33 53.75 27.33 48.8 28.77 47.97 28.77 52.87 27.33 53.75"/><polygon class="cls-11" points="25.6 47.8 25.6 52.75 27.33 53.75 27.33 51.01 44.38 60.85 44.38 63.59 46.1 64.59 46.1 59.64 25.6 47.8"/><polygon class="cls-12" points="27.05 46.97 25.6 47.8 46.1 59.64 47.55 58.81 27.05 46.97"/><polygon class="cls-12" points="32.82 47.43 30.33 48.87 31.55 49.57 34.05 48.13 32.82 47.43"/><polygon class="cls-7" points="34.05 48.13 34.05 49.38 32.64 50.2 31.55 49.57 34.05 48.13"/><polygon class="cls-12" points="37.43 50.09 34.94 51.52 36.16 52.23 38.65 50.79 37.43 50.09"/><polygon class="cls-7" points="38.65 50.79 38.65 52.04 37.24 52.86 36.16 52.23 38.65 50.79"/><polygon class="cls-12" points="42.03 52.74 39.54 54.18 40.77 54.89 43.26 53.45 42.03 52.74"/><polygon class="cls-7" points="43.26 53.45 43.26 54.7 41.85 55.52 40.77 54.89 43.26 53.45"/><polygon class="cls-12" points="46.64 55.4 44.15 56.84 45.37 57.55 47.86 56.11 46.64 55.4"/><polygon class="cls-7" points="47.86 56.11 47.86 57.36 46.45 58.17 45.37 57.55 47.86 56.11"/><polygon class="cls-13" points="33.57 46.42 29.23 48.92 29.23 47.87 33.57 45.36 33.57 46.42"/><polygon class="cls-24" points="29.23 47.87 29.23 48.92 27.09 47.69 27.09 46.63 29.23 47.87"/><polygon class="cls-25" points="33.57 45.36 29.23 47.87 27.09 46.63 31.43 44.13 33.57 45.36"/><path class="cls-13" d="M30.95,45.64a.37.37,0,0,1,0,.71,1.36,1.36,0,0,1-1.23,0,.37.37,0,0,1,0-.71A1.36,1.36,0,0,1,30.95,45.64Z"/><path class="cls-13" d="M30.95,40.51a.37.37,0,0,1,0,.71,1.36,1.36,0,0,1-1.23,0,.37.37,0,0,1,0-.71A1.36,1.36,0,0,1,30.95,40.51Z"/><path class="cls-13" d="M31.2,40.86V46a.43.43,0,0,1-.25.35,1.34,1.34,0,0,1-1.23,0,.42.42,0,0,1-.26-.35V40.86a.45.45,0,0,1,.26-.35,1.34,1.34,0,0,1,1.23,0A.45.45,0,0,1,31.2,40.86Z"/><polygon class="cls-24" points="39.17 46 39.17 46.65 37.86 45.89 27.84 40.11 27.84 39.46 39.17 46"/><polygon class="cls-25" points="40.77 45.08 39.17 46 27.84 39.46 29.44 38.53 40.77 45.08"/><polygon class="cls-13" points="40.77 45.08 40.77 45.72 39.98 46.18 39.73 46.32 39.17 46.65 39.17 46 40.77 45.08"/><polygon class="cls-24" points="27.84 39.46 28.48 34.5 29.23 34.93 29.46 40.39 27.84 39.46"/><polygon class="cls-13" points="29.46 40.39 31.03 39.46 29.7 34.66 29.23 34.93 29.46 40.39"/><polygon class="cls-25" points="28.48 34.5 29.23 34.93 29.7 34.66 28.95 34.23 28.48 34.5"/><path class="cls-24" d="M29.69,34.25c0,.29-.21.41-.46.27a1,1,0,0,1-.46-.8c0-.29.21-.41.46-.27A1,1,0,0,1,29.69,34.25Z"/><path class="cls-24" d="M29.39,34.42c0,.29-.21.41-.46.27a1,1,0,0,1-.46-.8c0-.29.21-.41.46-.27A1,1,0,0,1,29.39,34.42Z"/><path class="cls-13" d="M29.56,34.54a.33.33,0,0,0,.13-.3,1,1,0,0,0-.46-.8.33.33,0,0,0-.29,0h0l-.28.16.18.32a1.08,1.08,0,0,0,.27.48l.19.33.3-.17h0Z"/><path class="cls-24" d="M29.39,34.42c0,.29-.21.41-.46.27a1,1,0,0,1-.46-.8c0-.29.21-.41.46-.27A1,1,0,0,1,29.39,34.42Z"/><path class="cls-26" d="M29.14,34.28c0,.14-.09.19-.21.12a.47.47,0,0,1-.21-.37c0-.14.1-.19.21-.12A.47.47,0,0,1,29.14,34.28Z"/><path class="cls-13" d="M40.27,49.06l-.26,0c.12.39.22.92-.27.94-.32,0-.66-.51-.37-.74,0,0,.17,0,.19,0a.44.44,0,0,0,.08.25c.11.07.15,0,.16-.18a1.59,1.59,0,0,0-.1-.46l-.32-.4v-1l.2,0,.15,0h.1l.15.19.09.12.2.26Z"/><rect class="cls-13" x="39.73" y="46.07" width="0.25" height="1.73"/><path class="cls-13" d="M39.24,45.58,29.18,33.75l.19-.17L40.28,45c.1.1-.08.28-.18.17l-8-8.33,7.3,8.58C39.58,45.59,39.39,45.75,39.24,45.58Z"/><polygon class="cls-27" points="40.79 65.22 36.12 67.91 36.12 62.17 40.79 59.47 40.79 65.22"/><polygon class="cls-28" points="36.12 62.17 25.89 56.26 30.56 53.57 40.79 59.47 36.12 62.17"/><polygon class="cls-29" points="36.12 67.91 25.89 62 25.89 56.26 36.12 62.17 36.12 67.91"/><path class="cls-30" d="M4.52,72.38C3.85,68.71,5,63.46,11,59.64L13.33,61l2.45-1.42-.51-.29L14,59.23l1.17-.68,1.35.64L18,58.35,17.4,58h-.55l8.91-5.14-.16-.4V49.88L12.89,57.2l-.54-.06V55l-2.92,1.7h-.7V54.37a18,18,0,0,0-6.89,7.06,11.62,11.62,0,0,0-.15,10.42Z"/><polygon class="cls-30" points="33.34 70.27 34.13 70.27 33.34 70.72 33.34 70.27"/><polygon class="cls-30" points="36.97 70.69 37.76 70.69 36.97 71.15 36.97 70.69"/><polygon class="cls-30" points="36.12 67.91 41.4 67.91 46 65.22 40.77 62.19 40.79 59.47 36.12 62.17 36.12 67.91"/><polygon class="cls-30" points="27.33 53.75 30.13 53.82 30.56 53.57 40.79 59.47 40.78 60.39 44.38 62.47 44.38 60.85 27.33 51.01 27.33 53.75"/><polygon class="cls-30" points="29.46 40.39 32.3 40.19 31.03 39.46 29.46 40.39"/><path class="cls-30" d="M33.3,47.21l2.86,0-1.1-.63h-.69l.27-.16-1.07-.62v-.45l-.34.19-2-.08V46a.43.43,0,0,1-.25.35,1.24,1.24,0,0,1-.62.15H31.6l-2.37,1.37v1.06h1.1l.05,0,.65.37,2.49-1.44-.25-.61Z"/><path class="cls-30" d="M49.21,50.76,49,50.9l0,0c-1.55-1.58-4.3-4.35-5.21-5.27l-2.2,1.15,7.34,4.19-1.66,1-7.16-4.14L40,47.65V46.18l.79-.46v-.37l2.48-.44,1,.45-.24.13Z"/><polygon class="cls-30" points="39.73 46.32 39.73 47.47 39.58 47.49 39.13 47.23 38.53 47.23 37.51 46.65 38.12 46.65 37.31 46.18 37.86 45.89 39.17 46.65 39.73 46.32"/><path class="cls-30" d="M57.1,55.13l-5.5-2.68v2.68l-.87.5,1.16.67-1.45.83v4.95l-1.18.63h-.75l1.54-.85-2.2-5.75-2.49,1.44,1.08.63,1-.57,1.28.74v2.74l-1.16.61V58.81l-1.45.83v4.95h1.26l6-3.46-1.48.07V59.56a2.77,2.77,0,0,0,.73-.37c.53-.37.39-.29.53-.39s0-.1-.09-.16c.27-.19.71-.5,1-.72l.58.31,1.88-1.09L55,56.34Zm-4.21,3.44-.15-.06h-.4s-.15,0-.45.17v-1h.8l.46-.26.76.4Z"/><polygon class="cls-30" points="43.26 53.45 44.49 55.91 42.83 54.95 41.85 55.52 40.77 54.89 43.26 53.45"/><polygon class="cls-30" points="38.65 50.79 39.88 53.25 38.22 52.29 37.24 52.86 36.16 52.23 38.65 50.79"/><polygon class="cls-30" points="34.05 48.13 35.28 50.59 33.62 49.63 32.64 50.2 31.55 49.57 34.05 48.13"/><polygon class="cls-30" points="78.26 47.39 83.93 44.13 81.76 42.88 81.76 39.91 81.26 40.2 81.26 42.61 79.19 41.39 68.19 47.74 68.19 52.45 68.45 52.45 69.46 51.88 69.45 51.88 70.29 51.88 70.29 51.52 69.79 51.52 69.79 50.66 70.29 50.66 70.29 50.04 78.26 45.44 78.26 46.81 78.26 47.39"/><polygon class="cls-30" points="66.42 45.53 71.6 45.53 82.8 39.06 79.07 36.91 79.07 32.29 82.93 30.07 82.94 27.36 70.29 34.66 70.28 37.35 66.42 38.05 66.42 45.53"/><polygon class="cls-30" points="66.42 46.92 48.06 36.32 48.06 36.76 66.42 47.3 66.42 52.45 67.69 52.45 67.69 51.72 67.69 47.66 66.42 46.92"/><polygon class="cls-30" points="35.46 46.81 33.57 45.73 33.57 45.36 33.51 45.33 35.21 44.36 37.46 45.66 35.46 46.81"/><path class="cls-30" d="M39.69,44.37l6.11-3.53a.75.75,0,0,1-.13-.41V38.34L38.09,42.7Z"/><polygon class="cls-30" points="37.44 43.07 37.87 42.83 39.09 44.11 37.57 43.23 37.44 43.07"/><polygon class="cls-30" points="46.17 40.63 47.68 39.76 48.06 39.76 48.06 36.32 46.94 35.67 46.17 36.12 46.17 40.63"/><polygon class="cls-30" points="66.11 17 72.54 16.82 70.07 15.4 69.24 5.8 67.85 6.6 66.11 17"/><polygon class="cls-30" points="78.2 24.62 78.2 20.11 69.55 22.84 68.78 25.57 68.75 30.97 74.68 30.97 77.81 30.32 82.42 27.06 78.2 24.62"/><polygon class="cls-31" points="50.89 24.92 50.89 25.52 49.85 26.78 49.5 26.58 49.5 26.17 50.66 24.78 50.89 24.92"/><polygon class="cls-31" points="55.37 27.51 55.37 28.13 54.33 29.37 53.98 29.17 53.98 28.78 55.15 27.38 55.37 27.51"/><polygon class="cls-31" points="64.33 32.69 64.33 33.35 63.32 34.57 62.94 34.35 62.94 33.99 64.13 32.57 64.33 32.69"/><polygon class="cls-31" points="52.91 17.8 53.31 18.03 51.87 19.66 51.52 19.46 51.52 19.05 52.67 17.66 52.91 17.8"/><polygon class="cls-31" points="54.2 18.64 54.2 19.71 53.44 20.58 53.09 20.38 52.86 20.24 54.2 18.64"/><polygon class="cls-31" points="57.06 20.2 57.46 20.43 56.02 22.06 55.67 21.86 55.67 21.45 56.83 20.06 57.06 20.2"/><polygon class="cls-31" points="58.36 21.04 58.36 22.11 57.6 22.98 57.25 22.78 57.02 22.64 58.36 21.04"/><polygon class="cls-31" points="61.22 22.6 61.62 22.83 60.18 24.46 59.83 24.26 59.83 23.85 60.99 22.46 61.22 22.6"/><polygon class="cls-31" points="62.51 23.44 62.51 24.51 61.75 25.38 61.4 25.18 61.17 25.04 62.51 23.44"/><polygon class="cls-31" points="65.38 25 65.78 25.23 64.34 26.86 63.99 26.66 63.99 26.25 65.15 24.86 65.38 25"/><polygon class="cls-31" points="66.67 25.84 66.67 26.91 65.91 27.78 65.56 27.58 65.33 27.44 66.67 25.84"/><polygon class="cls-31" points="50.89 31.69 50.89 32.35 49.88 33.57 49.5 33.35 49.5 33 50.69 31.57 50.89 31.69"/><polygon class="cls-31" points="59.85 36.87 59.85 37.57 58.86 38.76 58.46 38.53 58.46 38.22 59.67 36.76 59.85 36.87"/><polygon class="cls-31" points="55.37 41.05 55.37 41.78 54.4 42.95 53.98 42.71 53.98 42.44 55.21 40.96 55.37 41.05"/><polygon class="cls-31" points="64.33 46.23 64.33 47 63.38 48.14 62.94 47.89 62.94 47.65 64.19 46.15 64.33 46.23"/></g></g></g></svg>