<svg xmlns="http://www.w3.org/2000/svg" viewBox="0 0 79.11 80.57"><defs><style>.cls-1{isolation:isolate;}.cls-2{fill:#383431;}.cls-3{fill:#48433f;}.cls-4{fill:#302d2a;}.cls-5{fill:#8db0a1;}.cls-6{fill:#b2e3df;}.cls-7{fill:#9fc7b5;}.cls-8{fill:#c1e8e5;}.cls-9{fill:#54695e;}.cls-10{fill:#647d70;}.cls-11{fill:#181f33;}.cls-12{fill:#0d2b86;}.cls-13{fill:#244fb5;}.cls-14{fill:#2148a5;}.cls-15{fill:#d1dbd3;}.cls-16{fill:#c8d1c9;}.cls-17{fill:#cfe8dc;}.cls-18{fill:#979e98;}.cls-19{fill:#23293b;}.cls-20{fill:#2ea9c7;}.cls-21{fill:#415248;}.cls-22{fill:#47cded;}.cls-23{fill:#c6efed;}.cls-24{fill:#afd9d4;mix-blend-mode:multiply;}.cls-25{fill:#c9fffb;opacity:0.3;mix-blend-mode:soft-light;}.cls-26{fill:#7fb39a;}</style></defs><title>i6</title><g class="cls-1"><g id="Слой_2" data-name="Слой 2"><g id="Layer_3" data-name="Layer 3"><path class="cls-2" d="M63.71,58.39l6.9-11.59-4.17-2.39a2.27,2.27,0,0,0-.36-.2h0a3.47,3.47,0,0,0-3.18.43,10.55,10.55,0,0,0-4.77,8.27,3.43,3.43,0,0,0,1.28,3h0l.23.14Z"/><path class="cls-3" d="M72,49.87a10.55,10.55,0,0,1-4.77,8.27c-2.64,1.52-4.77.29-4.77-2.76a10.55,10.55,0,0,1,4.77-8.27C69.85,45.6,72,46.83,72,49.87Z"/><path class="cls-4" d="M70.22,51.57a5.32,5.32,0,0,1-2.4,4.16c-1.22.71-2.23.24-2.39-1,0-.12,0-.24,0-.37a5.32,5.32,0,0,1,2.41-4.16,1.66,1.66,0,0,1,.33-.16C69.32,49.53,70.22,50.17,70.22,51.57Z"/><path class="cls-5" d="M68.55,51.14a4.29,4.29,0,0,1-1.94,3.36,1.45,1.45,0,0,1-1.18.21c0-.12,0-.24,0-.37a5.32,5.32,0,0,1,2.41-4.16,1.66,1.66,0,0,1,.33-.16A1.48,1.48,0,0,1,68.55,51.14Z"/><polygon class="cls-6" points="65.57 52.65 51.72 60.65 51.72 62.82 65.57 54.82 65.57 52.65"/><polygon class="cls-7" points="65.58 52.65 51.72 60.65 50.77 60.11 49.84 59.57 63.7 51.56 64.64 52.11 65.58 52.65"/><polygon class="cls-8" points="65.58 52.65 51.72 60.65 50.77 60.11 64.64 52.11 65.58 52.65"/><polygon class="cls-8" points="49.84 59.56 49.84 61.73 51.72 62.82 51.72 60.65 49.84 59.56"/><path class="cls-9" d="M48.43,62.82l1.41.81,1.88-.81-1.88-1.09V59.56l13.86-8s1.69-3.35,4.12-4.34,3.59.63,3.85,2.11l3-1.72V42L48.43,57.19Z"/><path class="cls-9" d="M12.39,44.86,11.53,44a3.34,3.34,0,0,1-.88-2l.54-4.76c.08-.66,1-1.35,1.27-1.07l.86.85a2.37,2.37,0,0,1,.38,1.7L13,44.19C13,44.85,12.67,45.15,12.39,44.86Z"/><path class="cls-10" d="M11.67,43.77l-.7-.69a1.93,1.93,0,0,1-.31-1.39l.53-4.43c.06-.53.3-.78.54-.55l.7.69a1.93,1.93,0,0,1,.31,1.39l-.53,4.43C12.14,43.76,11.9,44,11.67,43.77Z"/><path class="cls-11" d="M38.41,62.52C41,66.4,38.08,71,34.18,66.29S38.41,62.52,38.41,62.52Z"/><path class="cls-2" d="M30.68,76.93l6.9-11.59-4.17-2.39a2.27,2.27,0,0,0-.36-.2h0a3.47,3.47,0,0,0-3.18.43,10.55,10.55,0,0,0-4.77,8.27,3.43,3.43,0,0,0,1.28,3h0l.23.14Z"/><polygon class="cls-8" points="27.43 15.82 27.43 45.07 51.72 59.09 51.72 29.84 27.43 15.82"/><path class="cls-12" d="M48.43,32.94V64.19l-9.79,5.65c0-.59,0-1.18,0-1.77.11-4.17-3.36-5.32-6.8-2.22a12.81,12.81,0,0,0-3.53,5.72,14.59,14.59,0,0,0-.39,4.48l-6.49,3.74a1.17,1.17,0,0,1-.83.18c-.39-.08-.64-.44-.64-1V74.81c0-6.61,6.13-12.31,9.7-18.9.25-.46.5-.93.73-1.39,3.55-7,5.55-14.36,11.59-17.85Z"/><polygon class="cls-5" points="29.18 21.84 29.18 29.3 22.7 25.57 29.18 21.84"/><path class="cls-3" d="M39,68.41a10.55,10.55,0,0,1-4.77,8.27c-2.64,1.52-4.77.29-4.77-2.76a10.55,10.55,0,0,1,4.77-8.27C36.82,64.13,39,65.37,39,68.41Z"/><path class="cls-4" d="M37.18,70.11a5.32,5.32,0,0,1-2.4,4.16c-1.22.71-2.23.24-2.39-1,0-.12,0-.24,0-.37a5.32,5.32,0,0,1,2.41-4.16,1.66,1.66,0,0,1,.33-.16C36.28,68.07,37.18,68.71,37.18,70.11Z"/><path class="cls-5" d="M35.51,69.68A4.29,4.29,0,0,1,33.57,73a1.45,1.45,0,0,1-1.18.21c0-.12,0-.24,0-.37a5.32,5.32,0,0,1,2.41-4.16,1.66,1.66,0,0,1,.33-.16A1.48,1.48,0,0,1,35.51,69.68Z"/><polygon class="cls-13" points="48.42 32.95 41.95 36.67 29.18 29.3 22.7 25.57 29.18 21.84 48.42 32.95"/><path class="cls-13" d="M42,36.67c-6,3.49-8,10.83-11.59,17.85-.23.46-.48.93-.73,1.39-3.57,6.59-9.7,12.29-9.7,18.9V79c0,.58.25.94.64,1l-.1,0C18.63,80.17,4,71.89,1.24,69.07,1,68.78.8,68.55.8,68.39a1.52,1.52,0,0,1-.1-.56,28.87,28.87,0,0,1,.13-4.46A30.2,30.2,0,0,1,6,51.52a74.75,74.75,0,0,0,4.35-6.72c1.71-3.15,3-6.42,4.48-9.42.05-.11.1-.22.16-.33.13-.28.27-.56.41-.83l.11-.21c.28-.57.57-1.11.88-1.64a17.41,17.41,0,0,1,6.28-6.81l6.47,3.73Z"/><path class="cls-14" d="M41,36.12c-3.91,2.29-6.8,7.53-8.63,12S28.07,58.14,24.5,60s-7.64,4.88-7.5,10,1.07,8.81,2.54,9.72a2.21,2.21,0,0,0,2.72-.5s-1.84-5.36,1.37-8.71,4.27-6.27,5.37-9.75c6.51-20.53,13-24.16,13-24.16Z"/><path class="cls-14" d="M10.39,44.8c1.71-3.15,3-6.42,4.48-9.42-1.19,2.69-3.17,8.14-4.73,10.75-1.78,3-2.82,3.54-3.33,7.15a10.58,10.58,0,0,1-4.25,7.56C.29,62.54,1,65.27,1.24,69.07,1,68.78.8,68.55.8,68.39a1.52,1.52,0,0,1-.1-.56,28.87,28.87,0,0,1,.13-4.46A30.2,30.2,0,0,1,6,51.52,74.75,74.75,0,0,0,10.39,44.8Z"/><path class="cls-6" d="M16.43,32.37c-.25.52-.58,1.11-.88,1.64C15.83,33.44,16.12,32.9,16.43,32.37Z"/><path class="cls-12" d="M17,68.87c2.22-4.35,6.53-6.41,8.18-7.21S25.16,68,24,68.87,16.36,70.22,17,68.87Z"/><path class="cls-15" d="M17.46,68.57c2-3.95,5.92-5.82,7.42-6.54s-.06,5.71-1.08,6.54S16.83,69.8,17.46,68.57Z"/><path class="cls-16" d="M22.86,67.82a1.47,1.47,0,0,1-2,1.18,2.35,2.35,0,0,1-1.44-2.49,1.47,1.47,0,0,1,2-1.18A2.35,2.35,0,0,1,22.86,67.82Z"/><path class="cls-17" d="M22.09,67.53a.82.82,0,0,1-1.14.66,1.31,1.31,0,0,1-.8-1.38.82.82,0,0,1,1.14-.66A1.31,1.31,0,0,1,22.09,67.53Z"/><path class="cls-16" d="M24.7,65.08a1,1,0,0,1-1.34.77,1.55,1.55,0,0,1-.94-1.63,1,1,0,0,1,1.34-.77A1.55,1.55,0,0,1,24.7,65.08Z"/><path class="cls-17" d="M24.21,64.89a.55.55,0,0,1-.77.44.88.88,0,0,1-.54-.93.55.55,0,0,1,.77-.44A.88.88,0,0,1,24.21,64.89Z"/><path class="cls-12" d="M5.55,52.23a26.18,26.18,0,0,0-2.4,6.6C3,59.52,2.57,61,2.22,60A4.64,4.64,0,0,1,2,59c-.25-1.89,1.63-4.52,2.76-5.89C5.18,52.63,5.49,52.29,5.55,52.23Z"/><path class="cls-17" d="M4.77,53.14A28.14,28.14,0,0,0,3,58.55c-.1.58-.45,1.76-.77,1.47A4.64,4.64,0,0,1,2,59C1.76,57.14,3.64,54.51,4.77,53.14Z"/><path class="cls-12" d="M15,68a1.19,1.19,0,0,1-.59-.16L4.34,62.16A1.19,1.19,0,0,1,4,60.45c2.88-4.16,3.27-6.54,3.55-8.27,0-.29.09-.57.15-.83a10,10,0,0,1,1.92-3.65,1.2,1.2,0,0,1,1.54-.3l15.2,8.78a1.21,1.21,0,0,1,.6.93,1.16,1.16,0,0,1-.4,1,17.29,17.29,0,0,1-3.22,2.09,15.89,15.89,0,0,0-7.21,7.15A1.19,1.19,0,0,1,15,68Zm-.46-.37a.93.93,0,0,0,.75.08,1,1,0,0,0,.57-.52A16.14,16.14,0,0,1,23.18,60a17.06,17.06,0,0,0,3.17-2.06.91.91,0,0,0,.31-.79,1,1,0,0,0-.47-.74L11,47.6a1,1,0,0,0-1.22.24,10.06,10.06,0,0,0-1.88,3.55c-.05.26-.1.53-.14.82-.29,1.76-.68,4.17-3.59,8.38a.95.95,0,0,0,.31,1.36Z"/><path class="cls-15" d="M10.27,66.1,7.55,64.61,2.74,62l-.26,1.26a.26.26,0,0,0,.13.28l1.38.8a8.76,8.76,0,0,1,3.19,3.13,2.63,2.63,0,0,0,1.21,1.1,1.83,1.83,0,0,0,.59.14,10.34,10.34,0,0,1,4.61,1.16l2,1.13a.26.26,0,0,0,.39-.18l.23-1.25a.26.26,0,0,0-.13-.28Z"/><path class="cls-15" d="M15.54,71.5V76L2.47,68.27c0-.11,0-.22,0-.34s0-.27,0-.41V67.2c0-.14,0-.28,0-.42v-1c0-.14,0-.28,0-.41v-.73c0-.11,0-.22,0-.31,0-.25,0-.4,0-.4h0l.08,0a10.07,10.07,0,0,1,1.68,1,11.76,11.76,0,0,1,1.45,1.25,8.05,8.05,0,0,1,.62.67c.19.23.38.47.56.73l.15.21c.08.12.16.24.24.34h0a3.77,3.77,0,0,0,1,.95l.18.1a1.54,1.54,0,0,0,.53.16l.47,0h1.3l.57,0a3.19,3.19,0,0,1,1.16.26s0,0,.08,0c.69.36,1.43.81,2,1.16l.39.24Z"/><path class="cls-18" d="M15.54,75.08v.4L2.46,67.93c0-.13,0-.27,0-.41Z"/><path class="cls-18" d="M15.54,74.35v.41L2.45,67.2c0-.14,0-.28,0-.42Z"/><polygon class="cls-18" points="15.54 73.64 15.54 74.03 2.44 66.47 2.44 66.06 15.54 73.64"/><path class="cls-18" d="M15.54,72.9v.41l-7.09-4.1-.18-.1L2.44,65.75c0-.14,0-.28,0-.41l4.83,2.79h0a3.77,3.77,0,0,0,1,.95l.18.1a1.54,1.54,0,0,0,.53.16l.47,0h0Z"/><path class="cls-18" d="M6.89,67.58,2.45,65v-.41l3.88,2.24C6.52,67.08,6.71,67.32,6.89,67.58Z"/><path class="cls-18" d="M15.54,72.17v.41L10,69.4h.73Z"/><path class="cls-18" d="M5.71,66.18,2.46,64.3c0-.25,0-.4,0-.4h0l.08,0,1.68,1A11.76,11.76,0,0,1,5.71,66.18Z"/><path class="cls-18" d="M15.54,71.5v.36l-4.21-2.43a3.19,3.19,0,0,1,1.16.26l2.08,1.19.39.24Z"/><path class="cls-11" d="M39.51,68l0-.23a4.74,4.74,0,0,0-2.17-4.42c-1.12-.58-3.11-.74-6.2,1.78l-.2.17V57.61c.46-2.69,5.86-14.71,7.74-16.78s8.53-5.41,8.82-5.56l.18-.09V63.3Zm-3.68-5.27a3.53,3.53,0,0,1,1.64.39,5,5,0,0,1,2.32,4.43l7.65-4.42V35.59c-1.11.58-7,3.67-8.56,5.41s-7.18,13.79-7.68,16.65v7.14A7.74,7.74,0,0,1,35.82,62.76Z"/><path class="cls-19" d="M40.5,40.85c1.35-.92,5.87-3.44,6.16-3.59s.1,8.78,0,11.93a1.86,1.86,0,0,1-1,1.6L34.06,57.12a.73.73,0,0,1-1-.93C34.5,51.61,37.92,42.6,40.5,40.85Z"/><path class="cls-20" d="M33.75,56.69a.18.18,0,0,1-.14-.08.3.3,0,0,1,0-.27c1.63-5.34,5-13.54,7.21-15.07,1.07-.73,4.14-2.47,5.48-3.21.06,1.53,0,5.63-.06,11.13a1.37,1.37,0,0,1-.71,1.17L33.83,56.68Z"/><path class="cls-9" d="M17,70.93c.15,2,0,5.89-1.5,5S3.8,69,2.47,68.27s-1.19-3.76-1-4.62a15.79,15.79,0,0,0,.31-2s-.33-.12-.35-.91c0,0-.84.54-1.15,3S-.16,68.21.29,69,3,71.67,8,74.76s11,6.34,13.29,5.73,6.12-3.56,6.12-3.56l-.13-4S23,75,23.63,70.59A13.24,13.24,0,0,1,17,70.93Z"/><path class="cls-9" d="M40.66,57.38a.09.09,0,0,1,0,0,.83.83,0,0,1-1.06.82l-1.78-.4a1.47,1.47,0,0,1-1.08-1.36V51.38a.84.84,0,0,1,1.07-.87l1.78.4a1.4,1.4,0,0,1,.38.16,1.47,1.47,0,0,1,.7,1.2Z"/><path class="cls-10" d="M39.92,57.05a.69.69,0,0,1-.87.71l-1.45-.33a1.18,1.18,0,0,1-.87-1,.28.28,0,0,1,0-.09V52.16a.19.19,0,0,1,0-.08.67.67,0,0,1,.86-.62l1.11.25.34.08a1.19,1.19,0,0,1,.88,1.1l0,3.2Z"/><path class="cls-21" d="M11.69,39c-.54,0-.48,1.22-.53,2s-.78,3.89-.78,3.89,1-1.9,1.31-2.57l.48-1S12.62,39,11.69,39Z"/><path class="cls-21" d="M39.26,54.93a.59.59,0,0,1-.09.24c-.46.7-.52.45-1.31.57a5.29,5.29,0,0,0-1.13.47h0c-1.52.74-4,2.08-4.85,2.07-1.15,0-.13-2,.36-2.93s.64-.21,1.09,0c.29.15,2.1-.58,3.39-1.13L38,53.69h0C38.47,53.39,39.39,54.24,39.26,54.93Z"/><path class="cls-22" d="M36.69,39.77C34.77,41.56,28.33,56,28.33,56q-4.65-2.12-8.63-4.28l-1.59-.88c-.55-.3-1.09-.61-1.62-.92-1-.57-1.93-1.14-2.85-1.72l-.86-.54-1.47-.93-.86-.58S17,31,18.72,29.82a17.63,17.63,0,0,0,5.08,4.39c.56.33,1.15.67,1.78,1s1,.53,1.56.79c.78.38,1.62.76,2.5,1.13s1.83.76,2.83,1.15l1.68.61C35,39.19,35.81,39.48,36.69,39.77Z"/><polygon class="cls-6" points="51.72 29.84 51.72 59.09 79.11 43.27 79.11 14.02 51.72 29.84"/><polygon class="cls-23" points="54.83 0 27.43 15.82 51.72 29.84 79.11 14.02 54.83 0"/><polygon class="cls-24" points="48.42 32.95 51.72 38.03 51.72 59.09 48.42 57.19 48.42 32.95"/><path class="cls-25" d="M29.64,37.14q-4.47,3.91-8.76,8.25-2.22,2.25-4.39,4.48c-1-.57-1.93-1.14-2.85-1.72,3.25-3,6.55-5.94,9.83-9,1.2-1.1,2.43-2.16,3.67-3.18C27.92,36.39,28.76,36.77,29.64,37.14Z"/><path class="cls-25" d="M25.58,35.22c-4.29,4.1-8.55,8.26-12.8,12.39l-1.47-.93c1.71-1.92,3.47-3.8,5.32-5.65q3.49-3.52,7.17-6.82C24.36,34.54,24.95,34.88,25.58,35.22Z"/><path class="cls-25" d="M34.15,38.9l-.26.21c-4.9,4.1-9.57,8.34-14.19,12.56l-1.59-.88c4.3-3.53,8.64-7.11,12.8-11.11.51-.49,1-.95,1.56-1.39Z"/><polygon class="cls-26" points="72.58 22.98 53.24 34.15 53.24 31.75 72.58 20.58 72.58 22.98"/><polygon class="cls-26" points="67.42 29.87 53.24 38.06 53.24 35.66 67.42 27.47 67.42 29.87"/><polygon class="cls-26" points="62.01 36.9 53.24 41.97 53.24 39.57 62.01 34.5 62.01 36.9"/></g></g></g></svg>