<svg xmlns="http://www.w3.org/2000/svg" viewBox="0 0 33.86 44.12"><title>i10</title><g id="Слой_2" data-name="Слой 2"><g id="_1" data-name=" 1"><path d="M33.28,44.12H.58A.58.58,0,0,1,0,43.54V10.84a.58.58,0,0,1,.27-.49L16.62.09a.58.58,0,0,1,.62,0L33.59,10.35a.58.58,0,0,1,.27.49v32.7A.58.58,0,0,1,33.28,44.12ZM1.16,43H32.7V11.17L16.93,1.27,1.16,11.17Z"/><path d="M27.84,44.12H6a.58.58,0,0,1-.58-.58V18.37A.58.58,0,0,1,6,17.79H27.84a.58.58,0,0,1,.58.58V43.54A.58.58,0,0,1,27.84,44.12ZM6.6,43H27.26v-24H6.6Z"/><path d="M27.84,22.55h-5.6a.58.58,0,0,1,0-1.16h5V18.95H6.6v2.43h.88a.58.58,0,0,1,0,1.16H6A.58.58,0,0,1,5.43,22v-3.6A.58.58,0,0,1,6,17.79H27.84a.58.58,0,0,1,.58.58V22A.58.58,0,0,1,27.84,22.55Z"/><path d="M9.22,22.55H7.48a.58.58,0,0,1,0-1.16H9.22a.58.58,0,0,1,0,1.16Z"/><path d="M16.74,22.55H13a.58.58,0,0,1,0-1.16h3.76a.58.58,0,0,1,0,1.16Z"/><path d="M22.25,22.55H20.5a.58.58,0,0,1,0-1.16h1.74a.58.58,0,0,1,0,1.16Z"/><path d="M27.84,29.74H6a.58.58,0,0,1-.58-.58v-3.6A.58.58,0,0,1,6,25H27.84a.58.58,0,0,1,.58.58v3.6A.58.58,0,0,1,27.84,29.74ZM6.6,28.58H27.26V26.14H6.6Z"/><path d="M27.84,36.93H6a.58.58,0,0,1-.58-.58v-3.6A.58.58,0,0,1,6,32.17H27.84a.58.58,0,0,1,.58.58v3.6A.58.58,0,0,1,27.84,36.93ZM6.6,35.77H27.26V33.33H6.6Z"/><path d="M27.84,44.12H6a.58.58,0,0,1-.58-.58v-3.6A.58.58,0,0,1,6,39.36H27.84a.58.58,0,0,1,.58.58v3.6A.58.58,0,0,1,27.84,44.12ZM6.6,43H27.26V40.53H6.6Z"/><path d="M27.84,16H6a2.3,2.3,0,1,1,0-4.6H27.84a2.3,2.3,0,0,1,0,4.6ZM6,12.59a1.14,1.14,0,1,0,0,2.27H27.84a1.14,1.14,0,0,0,0-2.27Z"/></g></g></svg>