<svg xmlns="http://www.w3.org/2000/svg" viewBox="0 0 42.12 45.44"><title>i6</title><g id="Слой_2" data-name="Слой 2"><g id="_1" data-name=" 1"><path d="M21.06,18.91a.58.58,0,0,1-.5-.29l-5-8.64a6.74,6.74,0,0,1-.15-6.51,6.22,6.22,0,0,1,5-3.43,7.34,7.34,0,0,1,1.29,0,6.22,6.22,0,0,1,5,3.43A6.74,6.74,0,0,1,26.59,10l-5,8.64A.58.58,0,0,1,21.06,18.91Zm0-17.75-.54,0A5.08,5.08,0,0,0,16.41,4a5.58,5.58,0,0,0,.12,5.4l4.53,7.78,4.53-7.78.5.29-.5-.29A5.58,5.58,0,0,0,25.71,4,5.08,5.08,0,0,0,21.6,1.19Z"/><path d="M21.06,10.36a3.78,3.78,0,1,1,3.78-3.78A3.78,3.78,0,0,1,21.06,10.36Zm0-6.39a2.62,2.62,0,1,0,2.62,2.62A2.62,2.62,0,0,0,21.06,4Z"/><path d="M33,45.44H9.16a.58.58,0,0,1-.58-.58V21.06a.58.58,0,0,1,.58-.58H33a.58.58,0,0,1,.58.58v23.8A.58.58,0,0,1,33,45.44ZM9.74,44.28H32.38V21.64H9.74Z"/><path d="M23.55,28h-5a.58.58,0,0,1-.58-.58V21.06a.58.58,0,0,1,.58-.58h5a.58.58,0,0,1,.58.58v6.36A.58.58,0,0,1,23.55,28Zm-4.4-1.16H23v-5.2H19.15Z"/><path d="M17.84,41.36H12a.58.58,0,0,1,0-1.16h5.89a.58.58,0,0,1,0,1.16Z"/><path d="M17.84,38.07H12a.58.58,0,0,1,0-1.16h5.89a.58.58,0,0,1,0,1.16Z"/><path d="M41.54,45.44H.58a.58.58,0,1,1,0-1.16h41a.58.58,0,1,1,0,1.16Z"/><path d="M37.17,42.44a.58.58,0,0,1-.58-.58V40.12a.58.58,0,1,1,1.16,0v1.74A.58.58,0,0,1,37.17,42.44Z"/><path d="M37.17,37.66a.58.58,0,0,1-.58-.58V34a.58.58,0,0,1,1.16,0v3A.58.58,0,0,1,37.17,37.66Z"/><path d="M37.17,31.6a.58.58,0,0,1-.58-.58V29.27a.58.58,0,0,1,1.16,0V31A.58.58,0,0,1,37.17,31.6Z"/></g></g></svg>