<svg xmlns="http://www.w3.org/2000/svg" viewBox="0 0 83.13 67.65"><defs><style>.cls-1{isolation:isolate;}.cls-2{fill:#c6efed;}.cls-3{fill:#244fb5;}.cls-4{fill:#0d2b86;}.cls-5{fill:#366373;}.cls-6{fill:#b7e8e4;}.cls-7{fill:#47cded;}.cls-8{fill:#f2f2e9;mix-blend-mode:multiply;}.cls-9{mix-blend-mode:soft-light;}.cls-10{fill:#c9fffb;}.cls-11{fill:#7fb39a;}</style></defs><title>i1</title><g class="cls-1"><g id="Слой_2" data-name="Слой 2"><g id="Layer_3" data-name="Layer 3"><path class="cls-2" d="M57.44,55.16a41.33,41.33,0,0,1-10.85,10.4l-.49-.83-5.25-8.8L42.32,55c4.17-2.58,10.24-6.13,13.14-6.34h.17a2.56,2.56,0,0,1,.81.12C58.68,49.5,58.45,53.48,57.44,55.16Z"/><path class="cls-3" d="M47.71,63c0,2.53-1.78,3.56-4,2.29a8.77,8.77,0,0,1-4-6.87c0-2.53,1.78-3.56,4-2.29A8.77,8.77,0,0,1,47.71,63Z"/><path class="cls-4" d="M46.32,62.77a3.19,3.19,0,0,1-.13.95c-.38,1.21-1.53,1.59-2.9.8a6.68,6.68,0,0,1-3-5.24c0-1.57.89-2.39,2.13-2.11a3.1,3.1,0,0,1,.89.36A6.69,6.69,0,0,1,46.32,62.77Z"/><path class="cls-5" d="M46.32,62.77a3.19,3.19,0,0,1-.13.95,1.76,1.76,0,0,1-2.13,0A6,6,0,0,1,41.37,59a1.77,1.77,0,0,1,1-1.85,3.1,3.1,0,0,1,.89.36A6.69,6.69,0,0,1,46.32,62.77Z"/><path class="cls-3" d="M43.3,59.6a1.26,1.26,0,0,0-.36-.15.65.65,0,0,0-.62.15h0c-1.24,1.28-2.1,3.12-1.48,3.34A10.76,10.76,0,0,0,44,62.59h0a.65.65,0,0,0,.47-.47,1.29,1.29,0,0,0,.05-.38A2.72,2.72,0,0,0,43.3,59.6Z"/><path class="cls-2" d="M20.77,24.48c-3.27.23-10.55,4.7-14.62,7.26l5.74,9.63A41.42,41.42,0,0,0,22.75,31C23.88,29.07,24,24.25,20.77,24.48Z"/><path class="cls-3" d="M13,38.83c0,2.53-1.78,3.56-4,2.29a8.77,8.77,0,0,1-4-6.87c0-2.53,1.78-3.56,4-2.29A8.77,8.77,0,0,1,13,38.83Z"/><path class="cls-4" d="M11.63,38.56a3.19,3.19,0,0,1-.13.95c-.38,1.21-1.53,1.59-2.9.8a6.68,6.68,0,0,1-3-5.24c0-1.57.89-2.39,2.13-2.11a3.1,3.1,0,0,1,.89.36A6.69,6.69,0,0,1,11.63,38.56Z"/><path class="cls-5" d="M11.63,38.56a3.19,3.19,0,0,1-.13.95,1.76,1.76,0,0,1-2.13,0,6,6,0,0,1-2.69-4.68,1.77,1.77,0,0,1,1-1.85,3.1,3.1,0,0,1,.89.36A6.69,6.69,0,0,1,11.63,38.56Z"/><path class="cls-3" d="M8.61,35.39a1.25,1.25,0,0,0-.36-.15.65.65,0,0,0-.62.15h0c-1.24,1.28-2.1,3.12-1.48,3.34a10.76,10.76,0,0,0,3.17-.36h0a.65.65,0,0,0,.47-.47,1.29,1.29,0,0,0,.05-.38A2.72,2.72,0,0,0,8.61,35.39Z"/><path class="cls-2" d="M17.67,19.89a39,39,0,0,1-7.4,7.85h0l0,0a34,34,0,0,1-3.42,2.5l-.38-.64-5.36-9c4.07-2.56,11.35-7,14.62-7.26S18.8,18,17.67,19.89Z"/><path class="cls-3" d="M7.94,27.74c0,2.53-1.78,3.56-4,2.29a8.77,8.77,0,0,1-4-6.87c0-2.53,1.78-3.56,4-2.29A8.77,8.77,0,0,1,7.94,27.74Z"/><path class="cls-4" d="M6.55,27.47a3.19,3.19,0,0,1-.13.95c-.38,1.21-1.53,1.59-2.9.8A6.68,6.68,0,0,1,.5,24c0-1.57.89-2.39,2.13-2.11a3.09,3.09,0,0,1,.89.36A6.69,6.69,0,0,1,6.55,27.47Z"/><path class="cls-5" d="M6.55,27.47a3.19,3.19,0,0,1-.13.95,1.76,1.76,0,0,1-2.13,0,6,6,0,0,1-2.69-4.68,1.77,1.77,0,0,1,1-1.85,3.09,3.09,0,0,1,.89.36A6.69,6.69,0,0,1,6.55,27.47Z"/><path class="cls-3" d="M3.52,24.3a1.25,1.25,0,0,0-.36-.15.65.65,0,0,0-.62.15h0C1.3,25.59.44,27.42,1.06,27.64a10.76,10.76,0,0,0,3.17-.36h0a.65.65,0,0,0,.47-.47,1.3,1.3,0,0,0,.05-.38A2.72,2.72,0,0,0,3.52,24.3Z"/><path class="cls-2" d="M71.7,57c-.14.23-.32.5-.55.81l-.45.59-.72.88h0l-.28.32a43.79,43.79,0,0,1-8.61,7.63l0,0-.21.14L58,62.67,55.1,57.73l1.47-.92.18-.11.48-.3h0c4.12-2.54,9.72-5.74,12.48-5.93C73,50.24,72.83,55.06,71.7,57Z"/><path class="cls-3" d="M62,64.81c0,2.53-1.78,3.56-4,2.29a8.77,8.77,0,0,1-4-6.87c0-2.53,1.78-3.56,4-2.29A8.77,8.77,0,0,1,62,64.81Z"/><path class="cls-4" d="M60.57,64.54a3.19,3.19,0,0,1-.13.95c-.38,1.21-1.53,1.59-2.9.8a6.68,6.68,0,0,1-3-5.24c0-1.57.89-2.39,2.13-2.11a3.1,3.1,0,0,1,.89.36A6.69,6.69,0,0,1,60.57,64.54Z"/><path class="cls-5" d="M60.57,64.54a3.19,3.19,0,0,1-.13.95,1.76,1.76,0,0,1-2.13,0,6,6,0,0,1-2.69-4.68,1.77,1.77,0,0,1,1-1.85,3.1,3.1,0,0,1,.89.36A6.69,6.69,0,0,1,60.57,64.54Z"/><path class="cls-3" d="M57.55,61.38a1.25,1.25,0,0,0-.36-.15.65.65,0,0,0-.62.15h0c-1.24,1.28-2.1,3.12-1.48,3.34a10.76,10.76,0,0,0,3.17-.36h0a.65.65,0,0,0,.47-.47,1.29,1.29,0,0,0,.05-.38A2.72,2.72,0,0,0,57.55,61.38Z"/><path class="cls-2" d="M51.46,24.18c-.16-.21-5.65-12-5.57-13.19s4.15-1,4.15-1L61,21.33Z"/><path class="cls-6" d="M69.16,7.24c-1.58,3.93-3.42,8.75-5.25,13l-.33.64,0,0-.19.35L63,22a52.46,52.46,0,0,1-5.14,1.26,5.9,5.9,0,0,1-2.22-.1l-.47-.12a.48.48,0,0,1-.21-.77A16.47,16.47,0,0,0,56,21C57.1,19.43,67.52,2.64,69.16.74L69.4.5A1.69,1.69,0,0,1,70,.07a.49.49,0,0,1,.62.08l.06.09C71.08.93,70.81,3.14,69.16,7.24Z"/><path class="cls-2" d="M69.16,7.24c-1.58,3.93-3.42,8.75-5.25,13l-.33.64,0,0a3.77,3.77,0,0,1-1.82,1.15,39.53,39.53,0,0,1-4.05,1,5.9,5.9,0,0,1-2.22-.1L55,22.81a.34.34,0,0,1-.18-.11.44.44,0,0,1,.11-.39A16.47,16.47,0,0,0,56,21C57.1,19.43,67.52,2.64,69.16.74L69.4.5A4.86,4.86,0,0,1,70,.07a.49.49,0,0,1,.62.08l.06.09C71.08.93,70.81,3.14,69.16,7.24Z"/><path class="cls-2" d="M14.14,9.43c.51.74,18.91,20.58,19.5,21s-19.26,9.72-19.26,9.72-9.08-26.89-9.1-29C5.26,9.32,13.09,7.94,14.14,9.43Z"/><path class="cls-2" d="M65.81,21.17a.38.38,0,0,1,0,.1s0,.08,0,.11,0,0,0,0a35.22,35.22,0,0,1-6,9.56c-3.15,3.52-11.54,14.25-25.25,23.45S16.61,64,11.06,64L7.37,58.37,4.5,54a43.06,43.06,0,0,1,1.7-5.53,41.8,41.8,0,0,1,1.74-4,29.55,29.55,0,0,1,2.27-3.8C14.27,35,23.11,32.59,32,29.35S56,21,56,21a16.47,16.47,0,0,1-1.1,1.33.47.47,0,0,0,.21.77l.47.12a5.9,5.9,0,0,0,2.22.1A52.46,52.46,0,0,0,63,22l.4-.76.19-.35.35-.67.05-.1h.28a5.62,5.62,0,0,1,.57.09,3,3,0,0,1,.32.09l.15.07.12.06.16.13.1.1a.68.68,0,0,1,.13.27A.58.58,0,0,1,65.81,21.17Z"/><path class="cls-6" d="M78.37,58.56a1.19,1.19,0,0,1-.32.16c-1.54.47-45.46-5-47-5.18s-2.57.11-.52-2.31c6.29-7.4,14.9-11.69,16.18-11.94a1.15,1.15,0,0,1,.33,0h0c3.84.73,34.71,11.55,35.87,11.91S80.13,57.45,78.37,58.56Z"/><path class="cls-2" d="M78.37,58.56C72.6,58.4,33.48,53.48,32,53.36s-2.57.1-.52-2.31A47.14,47.14,0,0,1,47,39.32h0c3.84.73,34.71,11.55,35.87,11.91S80.13,57.45,78.37,58.56Z"/><path class="cls-3" d="M10.09,64.4c-4.95,0-6.31-.6-7.47-1.49a4.14,4.14,0,0,1-1.11-1.14c-.74-1.11-1.08-3,.56-6.36A10.33,10.33,0,0,1,5,51.83a.41.41,0,0,1,.32-.07c2.49.48,3.68,2.42,5.08,5.56C11.82,60.62,12.86,64.06,10.09,64.4Z"/><path class="cls-7" d="M17.76,50.82l0,.05a1.35,1.35,0,0,1-.36.22,10,10,0,0,1-2.1.49,10.29,10.29,0,0,1-1.52.15,5.61,5.61,0,0,1-.73,0,9,9,0,0,1-3.71-.93,5.4,5.4,0,0,1-2-1.74,3.05,3.05,0,0,1-.54-1.5,1.49,1.49,0,0,1,0-.29,7.34,7.34,0,0,1,1.09-2.7c.3-.59.62-1.19,1-1.78a3.1,3.1,0,0,0,.17,1,2.28,2.28,0,0,0,.12.36,4.59,4.59,0,0,0,.53.93,5.9,5.9,0,0,0,1.07,1.07,8.88,8.88,0,0,0,5.69,1.5h.1l.82-.07c.35,0,.49.13.52.48a14.91,14.91,0,0,1,0,1.51C17.92,50,18,50.5,17.76,50.82Z"/><path class="cls-7" d="M17.13,46.79h0Z"/><path class="cls-6" d="M81.81,29c-.62.54-2.76,2.47-4.2,2.86l-.08,0c-.21,0-19.2-2.93-19.2-2.93-.6-.13.57-1.37.73-1.52a21,21,0,0,1,4.08-2.58,7.21,7.21,0,0,0,2-1.91l.25.08,8.09,2.74,8.13,2.75a.41.41,0,0,1,.2.19C81.88,28.78,81.89,28.9,81.81,29Z"/><path class="cls-2" d="M81.81,29c-.62.54-2.76,2.47-4.2,2.86-2.15-.28-19-2.91-19-2.91-.6-.13.57-1.37.73-1.52a21,21,0,0,1,4.08-2.58A6.85,6.85,0,0,0,65.38,23l8.09,2.74,8.13,2.75a.41.41,0,0,1,.2.19C81.88,28.78,81.89,28.9,81.81,29Z"/><path class="cls-6" d="M25.37,53.14a.56.56,0,0,1-.27-.06.32.32,0,0,1-.17-.29c0-.89-.5-4.53-.69-5.89h0c-.19-1.1,1.63-2.4,2.94-2.89.88-.34,1.47-.28,1.63.15a29.42,29.42,0,0,1,.56,6.44c0,.87-2.88,2.47-3.94,2.53ZM28.16,44a2.61,2.61,0,0,0-.9.2c-1.21.46-2.9,1.68-2.76,2.59h0c.16,1.15.66,5,.67,5.94a.07.07,0,0,0,0,.07.45.45,0,0,0,.22,0c1.07-.07,3.69-1.67,3.7-2.27a28.6,28.6,0,0,0-.54-6.35C28.54,44.13,28.39,44.05,28.16,44Z"/><path class="cls-6" d="M25.56,47.83c.06.87.69,1.27,1.41.89a2.57,2.57,0,0,0,1.22-2.26c-.05-.87-.68-1.26-1.42-.89A2.53,2.53,0,0,0,25.56,47.83Z"/><path class="cls-7" d="M25.78,47.72c0,.72.57,1.05,1.18.74a2.13,2.13,0,0,0,1-1.87c0-.72-.57-1.05-1.18-.74A2.1,2.1,0,0,0,25.78,47.72Z"/><path class="cls-8" d="M13.75,51.73a10.3,10.3,0,0,0,1.52-.15,10,10,0,0,0,2.1-.49,1.34,1.34,0,0,0,.36-.22l0-.05c.27-.32.16-.85.17-1.21a14.94,14.94,0,0,0,0-1.51c0-.35-.16-.52-.52-.48l-.45,0c.18,0,.35,0,.39.16a15.19,15.19,0,0,1-.19,2.7C17,51,15.14,51.59,13.75,51.73Z"/><path class="cls-8" d="M3.45,27.45c.17.2.67.83.67.83a6,6,0,0,1-1.69,0s-.19.08-.16.24A7.22,7.22,0,0,0,4,30a2.76,2.76,0,0,0,2.84.25L7,30.14a31.48,31.48,0,0,0,3.21-2.36l0,0h0L8.61,22.63a27.13,27.13,0,0,1,.7,2.81l-1.52,1a2.18,2.18,0,0,1-.92,2.19c-.32.16-.59.13-.54,0a3.84,3.84,0,0,0,.2-.75L4.44,25.31s-3.1,2-3.53,2.19a.26.26,0,0,0,.15.14.84.84,0,0,0,.3,0h.19A11.76,11.76,0,0,0,3.45,27.45Z"/><path class="cls-8" d="M2,24.93H2c0-.67.6-2.73,2.4-2a4.93,4.93,0,0,0-.88-.66,2.91,2.91,0,0,0-.89-.37C1.39,21.59.5,22.41.5,24a5.85,5.85,0,0,0,.59,2.42A7,7,0,0,1,2,24.93Z"/><path class="cls-8" d="M82.95,51.24v0c-.31.6-1,1.87-1.45,2.63-.66,1-2.86,3.88-3.88,4C77.1,58,66.79,57,56.88,56L43,54.62h0l-4.48-.45c-.16-1.85,1.15-3.33,2.46-4.41.59-.49,1.18-1,1.79-1.47a51.15,51.15,0,0,1,5.6-4.14c1.65-1,3.29-2,4.85-3-.73-.24-1.42-.46-2.06-.65,4.17-4.24,7-7.77,8.59-9.52.46-.52.92-1.06,1.34-1.62,5.26.82,16.31,2.53,16.47,2.5,1.44-.34,3.65-2.33,4.28-2.88.08-.07.07-.19,0-.3s-3.39,2.83-4.31,2.85c-.77,0-12.36-2-16-2.67l-1.11-.2a12.94,12.94,0,0,1,2.9-2.42l.73-.5h9.5l-8.34-2.82a10.75,10.75,0,0,0,.64-1.5s0,0,0,0a1.65,1.65,0,0,1-.3.24c-.37-.45-.92-.56-1.86-.68h-.06l.35-.67c1.83-4.27,3.67-9.09,5.25-13,1.65-4.1,1.92-6.31,1.5-7C70,0,69.21,1.66,69.21,1.66S58.29,19,55.61,23.2h0c1.14.24,4.86.65,6.15,1.77a.53.53,0,0,1,.12.1H61.7c-.59.14-2.53,1-2.82,1.11l-.63.23-2.65,1L49,29.77l-5.29,1.91c-2.52.93-5,1.9-7.45,3l-.13.05a37.5,37.5,0,0,0-9.08,5.62c-3.29,2.86-4.8,7-7.2,10.53a13.58,13.58,0,0,1-3.38,2.83A23.2,23.2,0,0,1,12.6,56.3c-.63.3-1.42.71-2.24,1h0c-.65.42-1.56,1-2.52,1.53-2.55,1.36-5.68,3-6.3,2.91A4.29,4.29,0,0,0,2.63,62.9c1.16.89,2.52,1.51,7.46,1.49a1.94,1.94,0,0,0,1.1-.41c5.49,0,9.68-.43,23.28-9.56l.59-.41,3.4.41,4,.5-.18.11a2.74,2.74,0,0,1,.54-.07h0l4.17.5h0a10.1,10.1,0,0,1,2.21.84C51.76,57.65,51.94,58,51.94,58l-4.37,3.72c.06,1.53-.65,2.11-1.1,2.27-.23.07-.4,0-.36,0a3.84,3.84,0,0,0,.2-.75l-2.09-2.59s-3.1,2-3.53,2.19a.26.26,0,0,0,.15.14,1.09,1.09,0,0,0,.3.05h0a10.1,10.1,0,0,0,2.09-.23c.17.2.67.83.67.83a6,6,0,0,1-1.69.05s-.2.08-.16.25a7.2,7.2,0,0,0,1.7,1.45,2.76,2.76,0,0,0,2.84.25l.21-.14a42.43,42.43,0,0,0,7.34-6.22,2.15,2.15,0,0,1,1.59-1.76l.72-.88.41,0-.11.07-.18.11a2.74,2.74,0,0,1,.54-.07h0l4.17.5h0a10.1,10.1,0,0,1,2.21.84c2.48,1.34,2.66,1.69,2.66,1.69L61.82,63.5h0a3.83,3.83,0,0,1,0,.7l0,.13a2.61,2.61,0,0,1-.14.52v0a1.86,1.86,0,0,1-.21.36l-.06.08a1.11,1.11,0,0,1-.92.48h0s0,0,0-.05h0a3.84,3.84,0,0,0,.2-.75l-2.09-2.59h0l-.08.05-.35.23c-.75.49-2.31,1.49-2.91,1.82h0l-.18.09h0a.26.26,0,0,0,.15.14h0a1.19,1.19,0,0,0,.28,0h0a7.68,7.68,0,0,0,1.56-.14l.53-.09c.17.2.67.83.67.83l-.14,0a6,6,0,0,1-1.55,0h0a.34.34,0,0,0-.09.06.23.23,0,0,0-.05.07h0a.19.19,0,0,0,0,.07s0,0,0,0h0a7.74,7.74,0,0,0,1.16,1.06,5.87,5.87,0,0,0,.54.39,4.52,4.52,0,0,0,.81.37l.12,0a3.18,3.18,0,0,0,.64.13h.1a2.32,2.32,0,0,0,.58,0l.08,0a1.93,1.93,0,0,0,.52-.21h0l.21-.14,0,0a43.79,43.79,0,0,0,8.61-7.63.35.35,0,0,1,.28-.32h0l.72-.88.13-.17a58.67,58.67,0,0,0,7.22.53C79.58,58.25,84.09,51.71,82.95,51.24Z"/><path class="cls-8" d="M41.77,60.24h0c0-.67.6-2.73,2.4-2a4.93,4.93,0,0,0-.88-.66,2.91,2.91,0,0,0-.89-.37c-1.24-.27-2.13.55-2.13,2.11a5.85,5.85,0,0,0,.59,2.42A7,7,0,0,1,41.77,60.24Z"/><path class="cls-8" d="M56,62h0c0-.67.6-2.73,2.4-2a4.93,4.93,0,0,0-.88-.66,2.91,2.91,0,0,0-.89-.37c-1.24-.27-2.13.55-2.13,2.11a5.85,5.85,0,0,0,.59,2.42A7,7,0,0,1,56,62Z"/><path class="cls-8" d="M7.52,39.42s-.19.08-.16.25a7.41,7.41,0,0,0,1.7,1.45,3.87,3.87,0,0,0,.66.31l.49-.72a13.5,13.5,0,0,1,1.39-1.65.17.17,0,0,0,0-.07L9.53,36.4s-3.1,2-3.53,2.19a.26.26,0,0,0,.15.14.84.84,0,0,0,.3,0h.19a11.76,11.76,0,0,0,1.9-.24c.17.2.67.83.67.83A6,6,0,0,1,7.52,39.42Z"/><path class="cls-8" d="M7.08,36c0-.67.6-2.73,2.4-2a4.93,4.93,0,0,0-.88-.66A2.91,2.91,0,0,0,7.71,33c-1.24-.27-2.13.55-2.13,2.11a5.85,5.85,0,0,0,.59,2.42A7,7,0,0,1,7.08,36Z"/><g class="cls-9"><path class="cls-10" d="M41.93,60.82a2.27,2.27,0,0,0-.78.88c0,.08-.38.49-.21.69.1-.11.19-.25.29-.37.29-.31.72-.55.92-.94S42.24,60.64,41.93,60.82Z"/><path class="cls-10" d="M41.64,56.35c0-.24-.54-.08-.67,0-.37.15-1.09.7-.9,1.19a.23.23,0,0,1,0,.09.77.77,0,0,0,.24-.26,2.11,2.11,0,0,1,.9-.72C41.33,56.59,41.67,56.51,41.64,56.35Z"/><path class="cls-10" d="M7.46,36.87c.15-.28.09-.45-.22-.27a2.27,2.27,0,0,0-.78.88c0,.08-.38.49-.21.69.1-.11.19-.25.29-.37C6.83,37.5,7.26,37.26,7.46,36.87Z"/><path class="cls-10" d="M7,32.14c0-.24-.54-.08-.67,0-.37.15-1.09.7-.9,1.19a.23.23,0,0,1,0,.09.77.77,0,0,0,.24-.26,2.11,2.11,0,0,1,.9-.72C6.64,32.38,7,32.3,7,32.14Z"/><path class="cls-10" d="M2.37,25.79c.15-.28.09-.45-.22-.27a2.27,2.27,0,0,0-.78.88c0,.08-.38.49-.21.69.1-.11.19-.25.29-.37C1.74,26.41,2.17,26.17,2.37,25.79Z"/><path class="cls-10" d="M1.87,21c0-.24-.54-.08-.67,0-.37.15-1.09.7-.9,1.19a.23.23,0,0,1,0,.09A.77.77,0,0,0,.56,22a2.11,2.11,0,0,1,.9-.72C1.55,21.29,1.9,21.21,1.87,21Z"/><path class="cls-10" d="M56.18,62.6a2.27,2.27,0,0,0-.78.88c0,.08-.38.49-.21.69.1-.11.19-.25.29-.37.29-.31.72-.55.92-.94S56.49,62.41,56.18,62.6Z"/><path class="cls-10" d="M55.89,58.13c0-.24-.54-.08-.67,0-.37.15-1.09.7-.9,1.19a.23.23,0,0,1,0,.09.76.76,0,0,0,.24-.26,2.11,2.11,0,0,1,.9-.72C55.58,58.37,55.92,58.29,55.89,58.13Z"/><path class="cls-10" d="M14.41,36.77c-2.62-7.48-9-27.33-9-25.84,0,1.69,6.16,19.26,8.58,26.12a15.89,15.89,0,0,0-3.78,3.66l-.54.79a16.61,16.61,0,0,1,4.45-4.09,4.32,4.32,0,0,1,.42-.27c4.82-3.07,11.54-5.22,17.85-7.51,3.62-1.32,8.51-3.21,13-5C41,26.17,35.92,27.94,32,29.35,25.5,31.72,19,33.67,14.41,36.77Z"/><path class="cls-10" d="M7.13,48.76c.06.11.12.22.19.32a12.71,12.71,0,0,1,2.35-4,4.61,4.61,0,0,1-.53-.93A2.27,2.27,0,0,1,9,43.81a14.21,14.21,0,0,0-2.23,3.77s0,0,0,.07,0-.07,0-.1c0,1.63,1,4.17,5.92,4.19C12.7,51.74,8.45,51.46,7.13,48.76Z"/><path class="cls-10" d="M3.06,56.58a3.53,3.53,0,0,0-1.75,2.65,1,1,0,0,0,.2.53c.76,1,1.79-1,2.05-1.49C3.91,57.6,4.52,55.92,3.06,56.58Z"/><path class="cls-10" d="M54.85,22.43s-.09.22,0,.27a16.59,16.59,0,0,0,1.29-1.49l2.7-4.59L56,21l-4.7,1.61C48.41,16.21,45.83,10.19,46,11s2.37,6.18,4.91,11.75L50,23l.9-.27.41-.12,4.41-1.33Z"/><path class="cls-10" d="M76.38,56.77C75.59,56.7,62,56,55.15,55.44c4.69.43,20.47,1.87,21.34,1.87a4.12,4.12,0,0,0,2.79-1A13.38,13.38,0,0,1,76.38,56.77Z"/><path class="cls-10" d="M55.15,55.44l-1.31-.12Z"/><path class="cls-10" d="M79.27,30.24a13.38,13.38,0,0,1-2.9.46c-.84-.08-5.54-.87-11.91-1.65,0,0,11,2.19,12,2.19A4.12,4.12,0,0,0,79.27,30.24Z"/></g><polygon class="cls-11" points="46.79 34.47 34.41 41.43 34.23 40.35 46.73 33.71 46.79 34.47"/><polygon class="cls-11" points="43.59 37.54 34.71 43.2 34.53 42.11 43.5 36.7 43.59 37.54"/><polygon class="cls-11" points="40.42 41.28 35 44.96 34.82 43.88 40.27 40.25 40.42 41.28"/></g></g></g></svg>