<svg xmlns="http://www.w3.org/2000/svg" viewBox="0 0 57.71 69.08"><defs><style>.cls-1{isolation:isolate;}.cls-2{fill:#f2c79a;}.cls-3{fill:#e3b788;}.cls-4{fill:#edc397;}.cls-5{fill:#deb081;}.cls-6{fill:#c99b6d;}.cls-7{fill:#d9ac7e;}.cls-8{fill:#f7cfa2;}.cls-9{fill:#edc091;}.cls-10{fill:#f2ca9f;}.cls-11{fill:#453224;}.cls-12{fill:#edb983;}.cls-13{fill:#dead7a;}.cls-14{fill:#e8dfcc;mix-blend-mode:multiply;}.cls-15{fill:#f7b880;}.cls-16{fill:#eda86a;}.cls-17{fill:#f7c68d;}.cls-18{fill:#d69e67;}.cls-19{fill:#ba8552;}.cls-20{fill:#d4d1b6;}.cls-21{fill:#c4c09d;}.cls-22{fill:#e0ddc3;}.cls-23{fill:#877f73;}.cls-24{fill:#8db0a1;}.cls-25{fill:#a5cfbd;}.cls-26{fill:#1034a3;}.cls-27{fill:#6e675d;}.cls-28{fill:#0d2b86;}.cls-29{fill:#295acf;}.cls-30{fill:#9aa39b;}.cls-31{fill:#afbab0;}</style></defs><title>i13</title><g class="cls-1"><g id="Слой_2" data-name="Слой 2"><g id="Layer_3" data-name="Layer 3"><polygon class="cls-2" points="32.65 60.51 11.86 48.51 11.86 24.51 32.65 36.51 32.65 60.51"/><polygon class="cls-3" points="30.36 37.83 30.36 56.56 14.14 47.19 14.14 28.46 15.33 29.14 30.36 37.83"/><polygon class="cls-4" points="30.36 37.83 30.36 55.18 15.33 46.51 15.33 29.14 30.36 37.83"/><polygon class="cls-5" points="53.44 48.51 32.65 60.51 32.65 36.51 53.44 24.51 53.44 48.51"/><polygon class="cls-6" points="51.16 28.46 51.16 47.19 34.94 56.56 34.94 37.83 50.07 29.08 51.16 28.46"/><polygon class="cls-7" points="50.07 29.08 50.07 46.57 34.94 55.31 34.94 37.83 50.07 29.08"/><polygon class="cls-8" points="53.44 24.51 32.65 36.51 26.91 33.2 11.9 24.54 11.86 24.51 32.65 12.51 53.44 24.51"/><polygon class="cls-9" points="48.87 24.51 47.55 25.27 32.65 33.88 17.74 25.27 16.42 24.51 32.65 15.14 48.87 24.51"/><polygon class="cls-10" points="47.55 25.27 32.65 33.88 17.74 25.27 32.65 16.66 47.55 25.27"/><path class="cls-11" d="M15.79,31.14v-.8l.38.22.2.85.11-.67,1.17.68v.8c0,.55-.36.8-.83.59v.82l.66.38v.24L16,33.36v-.24l.66.38v-.82A2.08,2.08,0,0,1,15.79,31.14Zm6.71,6L21,36.25V36l1.53.88Zm-1.21-2.3-.17-.1.27-1,.27,1.28-.17-.1v1.12l-.1-.06-.1-.06Zm.7.4-.17-.1.27-1,.27,1.28-.17-.1v1.12l-.1-.06-.1-.06Zm-4.13-2.89.45,0a2.14,2.14,0,0,1,.84.26v-.28l.21.12v.28a4.15,4.15,0,0,1,.83.7l.46.49s0,.06,0,0l-1.28-.74v1.16c0,.41-.05.85-.47.61a.86.86,0,0,1-.31-.33,1.13,1.13,0,0,1-.14-.57l.21.13a.72.72,0,0,0,.09.36.43.43,0,0,0,.16.17c.13.08.26.1.26-.49V33.13l-1.27-.73S17.84,32.35,17.86,32.35Zm.18-.67a.93.93,0,0,1,.18-.34,3.1,3.1,0,0,1,.18.54c0,.11-.08.16-.18.1A.39.39,0,0,1,18,31.68Zm.67.39a.93.93,0,0,1,.18-.34,3.1,3.1,0,0,1,.18.54c0,.11-.08.16-.18.1A.39.39,0,0,1,18.71,32.06Zm.74.43a.93.93,0,0,1,.18-.34,3.1,3.1,0,0,1,.18.54c0,.11-.08.16-.18.1A.39.39,0,0,1,19.45,32.49Zm.67.39a.93.93,0,0,1,.18-.34,3.1,3.1,0,0,1,.18.54c0,.11-.08.16-.18.1A.39.39,0,0,1,20.12,32.88Z"/><polygon class="cls-2" points="33.84 40.72 35.36 41.6 35.36 43.76 33.84 42.88 33.84 40.72"/><polygon class="cls-12" points="33.84 40.72 52.66 29.85 54.18 30.73 35.36 41.6 33.84 40.72"/><polygon class="cls-12" points="33.84 40.72 34.76 41.25 34.76 43.42 33.84 42.88 33.84 40.72"/><polygon class="cls-13" points="35.36 41.6 54.18 30.73 54.18 32.89 35.36 43.76 35.36 41.6"/><polygon class="cls-2" points="33.84 52.93 35.36 53.81 35.36 55.98 33.84 55.1 33.84 52.93"/><polygon class="cls-12" points="33.84 52.93 52.66 42.07 54.18 42.94 35.36 53.81 33.84 52.93"/><polygon class="cls-12" points="33.84 52.93 34.76 53.47 34.76 55.63 33.84 55.1 33.84 52.93"/><polygon class="cls-13" points="35.36 53.81 54.18 42.94 54.18 45.11 35.36 55.98 35.36 53.81"/><path class="cls-14" d="M32.65,42.35,26.91,33.2l-1.29-1.14s.62-.53.38-.91a19.85,19.85,0,0,0-2-2.08c1.12,0,2.35-.15,2.13-.48-.33-.5-1.51-.84-3.64-.79a8.14,8.14,0,0,0-3.86-1.89l-2.1-1.84-1.91-.4-2.68.87,3,1.73-.12,13.5L16,50.89l16.68,9.63ZM22.91,28a4.5,4.5,0,0,1,1.88.16c.54.17.56.38.05.47a4.13,4.13,0,0,1-1.35,0c-.22-.19-.44-.38-.68-.57Z"/><polygon class="cls-15" points="32.58 16.72 32.58 33.43 31.19 32.63 28.24 30.92 24.94 29.01 24.44 28.72 23.22 28.02 22.84 27.8 22.83 27.8 18.11 25.07 18.11 8.36 32.58 16.72"/><polygon class="cls-16" points="47.05 8.35 47.05 25.07 46.68 25.29 42.45 27.74 41.44 28.32 39.08 29.67 37.81 30.4 37.34 30.67 36.78 30.99 36.78 31 32.58 33.42 32.58 16.71 38.44 13.33 39.02 12.99 39.41 12.77 39.43 12.75 39.68 12.61 39.82 12.53 40.58 12.09 40.67 12.04 40.67 12.03 40.68 12.03 41.26 11.69 47.05 8.35"/><polygon class="cls-17" points="47.05 8.35 41.26 11.7 39.02 12.99 32.58 16.71 18.11 8.35 24.55 4.64 26.79 3.34 32.58 0 47.05 8.35"/><polygon class="cls-18" points="40.68 12.04 38.44 13.33 35.68 11.74 30.64 8.83 29.64 8.26 24.6 5.35 23.96 4.98 26.21 3.68 29.09 5.35 34.13 8.26 35.13 8.83 40.16 11.74 40.68 12.04"/><polygon class="cls-19" points="38.44 13.33 38.44 15.95 38.44 16.53 38.81 15.73 38.81 15.73 39.18 16.1 39.56 15.3 39.93 15.67 40.3 14.87 40.3 14.87 40.3 14.87 40.3 14.87 40.68 15.24 40.68 14.65 40.68 12.04 38.44 13.33"/><path class="cls-19" d="M25.23,4.24,25,4.36s-.09.1,14.41,8.39l.25-.14C35.78,10.38,25.54,4.51,25.23,4.24Z"/><path class="cls-11" d="M21.16,20.06v5.8l10.41,6v-5.8ZM31.29,31.4l-9.86-5.69V20.53l9.86,5.69Zm-9.16-8.64v-1l.5.29.26,1.12.15-.88,1.54.89v1c0,.73-.48,1-1.09.77V26l.87.5v.31l-2-1.16v-.31l.87.5V24.79A2.73,2.73,0,0,1,22.13,22.76Zm8.81,7.87-2-1.16v-.31l2,1.16Zm-1.59-3-.22-.13.36-1.27.36,1.68-.22-.13v1.47l-.14-.08-.14-.08Zm.92.53L30,28l.36-1.27.36,1.68-.22-.13v1.47l-.14-.08-.14-.08Zm-5.41-3.8.58,0a2.81,2.81,0,0,1,1.1.34v-.36l.27.16v.37a5.44,5.44,0,0,1,1.09.92l.6.65s0,.07,0,.06l-1.68-1v1.53c0,.54-.07,1.12-.61.8a1.13,1.13,0,0,1-.41-.44,1.48,1.48,0,0,1-.19-.75l.27.18a1,1,0,0,0,.11.47.57.57,0,0,0,.21.23c.17.1.34.13.34-.65V25.38l-1.67-1S24.82,24.35,24.85,24.35Zm.24-.88a1.22,1.22,0,0,1,.23-.45,4.07,4.07,0,0,1,.23.71c0,.15-.1.21-.23.13A.51.51,0,0,1,25.09,23.47ZM26,24a1.22,1.22,0,0,1,.23-.45,4.07,4.07,0,0,1,.23.71c0,.15-.1.21-.23.13A.51.51,0,0,1,26,24Zm1,.56a1.22,1.22,0,0,1,.23-.45,4.07,4.07,0,0,1,.23.71c0,.15-.1.21-.23.13A.51.51,0,0,1,26.94,24.54Zm.88.51A1.22,1.22,0,0,1,28,24.6a4.07,4.07,0,0,1,.23.71c0,.15-.1.21-.23.13A.51.51,0,0,1,27.82,25Z"/><polygon class="cls-14" points="32.58 33.42 33.43 33.42 35.4 32.29 39.96 32.29 53.44 24.51 47.05 20.82 47.05 25.07 32.58 33.42"/><polygon class="cls-20" points="53.86 40.46 22.4 48.77 25.29 69.08 56.76 60.77 53.86 40.46"/><polygon class="cls-21" points="54.25 40.46 22.78 48.77 25.67 69.08 57.14 60.77 54.25 40.46"/><polygon class="cls-20" points="54.63 40.46 23.16 48.77 26.05 69.08 57.52 60.77 54.63 40.46"/><polygon class="cls-22" points="54.82 40.46 23.36 48.77 26.25 69.08 57.71 60.77 54.82 40.46"/><path class="cls-23" d="M27.61,67.82,25.27,51.34l.22-.06,28.27-7.46L56.1,60.3l-.22.06ZM25.83,51.71,28,67.19l27.51-7.26-2.2-15.48Z"/><path class="cls-24" d="M23.43,48.5l.77-.2s-.51-1.05,0-1.73,1.91.56,1.47,2.39,1.08,1.5.92.53.55-2.68-1.24-4S22.23,46.76,23.43,48.5Z"/><path class="cls-25" d="M23.26,46.11a1,1,0,0,1,1-.85c.3,0,.8.18.49.51s-.53.11-.82.15a.87.87,0,0,0-.61.32A.28.28,0,0,1,23.26,46.11Z"/><path class="cls-24" d="M26.94,47.57l.77-.2s-.51-1.05,0-1.73,1.91.56,1.47,2.39,1.08,1.5.92.53.55-2.68-1.24-4S25.74,45.84,26.94,47.57Z"/><path class="cls-25" d="M26.77,45.18a1,1,0,0,1,1-.85c.3,0,.8.18.49.51s-.53.11-.82.15a.87.87,0,0,0-.61.32A.28.28,0,0,1,26.77,45.18Z"/><path class="cls-24" d="M30.45,46.65l.77-.2s-.51-1.05,0-1.73,1.91.56,1.47,2.39,1.08,1.5.92.53.55-2.68-1.24-4S29.24,44.91,30.45,46.65Z"/><path class="cls-25" d="M30.28,44.25a1,1,0,0,1,1-.85c.3,0,.8.18.49.51s-.53.11-.82.15a.87.87,0,0,0-.61.32A.28.28,0,0,1,30.28,44.25Z"/><path class="cls-24" d="M34,45.72l.77-.2s-.51-1.05,0-1.73,1.91.56,1.47,2.39,1.08,1.5.92.53.55-2.68-1.24-4S32.75,44,34,45.72Z"/><path class="cls-25" d="M33.78,43.33a1,1,0,0,1,1-.85c.3,0,.8.18.49.51s-.53.11-.82.15a.87.87,0,0,0-.61.32A.28.28,0,0,1,33.78,43.33Z"/><path class="cls-24" d="M37.46,44.79l.77-.2s-.51-1.05,0-1.73,1.91.56,1.47,2.39,1.08,1.5.92.53.55-2.68-1.24-4S36.26,43.06,37.46,44.79Z"/><path class="cls-25" d="M37.29,42.4a1,1,0,0,1,1-.85c.3,0,.8.18.49.51s-.53.11-.82.15a.87.87,0,0,0-.61.32A.28.28,0,0,1,37.29,42.4Z"/><path class="cls-24" d="M41,43.87l.77-.2s-.51-1.05,0-1.73,1.91.56,1.47,2.39,1.08,1.5.92.53.55-2.68-1.24-4S39.76,42.13,41,43.87Z"/><path class="cls-24" d="M44.47,42.94l.77-.2s-.51-1.05,0-1.73,1.91.56,1.47,2.39,1.08,1.5.92.53.55-2.68-1.24-4S43.27,41.21,44.47,42.94Z"/><path class="cls-24" d="M48,42l.77-.2s-.51-1.05,0-1.73,1.91.56,1.47,2.39,1.08,1.5.92.53.55-2.68-1.24-4S46.78,40.28,48,42Z"/><path class="cls-24" d="M51.48,41.09l.77-.2s-.51-1.05,0-1.73,1.91.56,1.47,2.39,1.08,1.5.92.53.55-2.68-1.24-4S50.28,39.35,51.48,41.09Z"/><path class="cls-23" d="M27.79,57.32l0-.13-.75-5,5.48-1.41,0,.13.75,5Zm-.49-5L28,57l5-1.28L32.29,51Z"/><path class="cls-23" d="M34.08,55.7l0-.13-.75-5,5.48-1.41,0,.13.75,5Zm-.49-5,.7,4.68,5-1.28-.7-4.68Z"/><path class="cls-23" d="M40.37,54.07l0-.13-.75-5,5.48-1.41,0,.13.75,5Zm-.49-5,.7,4.68,5-1.28-.7-4.68Z"/><path class="cls-23" d="M46.66,52.45l0-.13-.75-5,5.48-1.41,0,.13.75,5Zm-.49-5,.7,4.68,5-1.28-.7-4.68Z"/><path class="cls-23" d="M28.74,63.1l0-.13-.75-5,5.48-1.41,0,.13.75,5Zm-.49-5,.7,4.68,5-1.28-.7-4.68Z"/><path class="cls-23" d="M35,61.48l0-.13-.75-5,5.48-1.41,0,.13.75,5Zm-.49-5,.7,4.68,5-1.28-.7-4.68Z"/><path class="cls-23" d="M41.32,59.85l0-.13-.75-5L46,53.27l0,.13.75,5Zm-.49-5,.7,4.68,5-1.28-.7-4.68Z"/><path class="cls-23" d="M47.61,58.23l0-.13-.75-5,5.48-1.41,0,.13.75,5Zm-.49-5,.7,4.68,5-1.28L52.11,52Z"/><path class="cls-26" d="M39.53,54.88a4.78,4.78,0,0,0-5.73,1.8c-1.25,2.21.36,4,2.42,4.72.15,0,.21-.18.06-.23a3.72,3.72,0,0,1-2.48-2A3,3,0,0,1,35,55.8c1.45-1.07,3.9-1.38,5.27,0A3.12,3.12,0,0,1,40,60.13a5,5,0,0,1-4.08,1.35c-.16,0-.2.25,0,.28a4.77,4.77,0,0,0,5.2-2.53A3.15,3.15,0,0,0,39.53,54.88Z"/><polygon class="cls-27" points="28.37 53.02 28.33 52.78 31.48 51.97 31.51 52.21 28.37 53.02"/><polygon class="cls-27" points="27.98 53.74 27.93 53.49 31.59 52.55 31.62 52.8 27.98 53.74"/><polygon class="cls-27" points="28.08 54.33 28.04 54.08 31.7 53.14 31.73 53.39 28.08 54.33"/><polygon class="cls-27" points="28.19 54.92 28.15 54.67 31.81 53.73 31.84 53.98 28.19 54.92"/><polygon class="cls-27" points="28.3 55.51 28.26 55.26 31.39 54.45 31.42 54.7 28.3 55.51"/><polygon class="cls-27" points="28.41 56.1 28.37 55.85 30.95 55.19 30.98 55.43 28.41 56.1"/><polygon class="cls-27" points="34.91 51.34 34.87 51.09 38.03 50.28 38.05 50.53 34.91 51.34"/><polygon class="cls-27" points="34.52 52.05 34.48 51.81 38.13 50.87 38.16 51.12 34.52 52.05"/><polygon class="cls-27" points="34.63 52.64 34.59 52.4 38.24 51.46 38.27 51.7 34.63 52.64"/><polygon class="cls-27" points="34.74 53.23 34.7 52.99 38.35 52.05 38.38 52.29 34.74 53.23"/><polygon class="cls-27" points="34.85 53.82 34.81 53.58 37.94 52.77 37.97 53.02 34.85 53.82"/><polygon class="cls-27" points="34.96 54.41 34.91 54.16 37.5 53.5 37.53 53.75 34.96 54.41"/><polygon class="cls-27" points="41.25 49.72 41.21 49.47 44.36 48.66 44.39 48.91 41.25 49.72"/><polygon class="cls-27" points="40.86 50.44 40.82 50.19 44.47 49.25 44.5 49.5 40.86 50.44"/><polygon class="cls-27" points="40.97 51.02 40.93 50.78 44.58 49.84 44.61 50.09 40.97 51.02"/><polygon class="cls-27" points="41.08 51.61 41.03 51.37 44.69 50.43 44.72 50.67 41.08 51.61"/><polygon class="cls-27" points="41.18 52.2 41.14 51.96 44.28 51.15 44.3 51.4 41.18 52.2"/><polygon class="cls-27" points="41.29 52.79 41.25 52.55 43.84 51.88 43.87 52.13 41.29 52.79"/><polygon class="cls-27" points="47.49 48.11 47.45 47.86 50.6 47.05 50.63 47.3 47.49 48.11"/><polygon class="cls-27" points="47.1 48.83 47.06 48.58 50.71 47.64 50.74 47.89 47.1 48.83"/><polygon class="cls-27" points="47.21 49.41 47.17 49.17 50.82 48.23 50.85 48.48 47.21 49.41"/><polygon class="cls-27" points="47.32 50 47.28 49.76 50.93 48.82 50.96 49.06 47.32 50"/><polygon class="cls-27" points="47.43 50.59 47.38 50.35 50.52 49.54 50.55 49.79 47.43 50.59"/><polygon class="cls-27" points="47.53 51.18 47.49 50.94 50.08 50.27 50.11 50.52 47.53 51.18"/><polygon class="cls-27" points="29.47 58.77 29.43 58.52 32.58 57.71 32.61 57.96 29.47 58.77"/><polygon class="cls-27" points="29.08 59.49 29.04 59.24 32.69 58.3 32.72 58.55 29.08 59.49"/><polygon class="cls-27" points="29.19 60.08 29.15 59.83 32.8 58.89 32.83 59.14 29.19 60.08"/><polygon class="cls-27" points="29.3 60.67 29.26 60.42 32.91 59.48 32.94 59.73 29.3 60.67"/><polygon class="cls-27" points="29.41 61.26 29.36 61.01 32.5 60.2 32.53 60.45 29.41 61.26"/><polygon class="cls-27" points="29.51 61.84 29.47 61.6 32.06 60.93 32.09 61.18 29.51 61.84"/><polygon class="cls-27" points="36.02 57.08 35.98 56.84 39.13 56.02 39.16 56.27 36.02 57.08"/><polygon class="cls-27" points="35.63 57.8 35.59 57.55 39.24 56.61 39.27 56.86 35.63 57.8"/><polygon class="cls-27" points="35.73 58.39 35.69 58.14 39.35 57.2 39.38 57.45 35.73 58.39"/><polygon class="cls-27" points="35.84 58.98 35.8 58.73 39.45 57.79 39.48 58.04 35.84 58.98"/><polygon class="cls-27" points="35.95 59.57 35.91 59.32 39.04 58.51 39.07 58.76 35.95 59.57"/><polygon class="cls-27" points="36.06 60.16 36.02 59.91 38.6 59.24 38.63 59.49 36.06 60.16"/><polygon class="cls-27" points="42.36 55.46 42.31 55.22 45.47 54.41 45.49 54.65 42.36 55.46"/><polygon class="cls-27" points="41.96 56.18 41.92 55.94 45.58 54.99 45.6 55.24 41.96 56.18"/><polygon class="cls-27" points="42.07 56.77 42.03 56.52 45.68 55.58 45.71 55.83 42.07 56.77"/><polygon class="cls-27" points="42.18 57.36 42.14 57.11 45.79 56.17 45.82 56.42 42.18 57.36"/><polygon class="cls-27" points="42.29 57.95 42.25 57.7 45.38 56.9 45.41 57.14 42.29 57.95"/><polygon class="cls-27" points="42.4 58.54 42.36 58.29 44.94 57.63 44.97 57.88 42.4 58.54"/><polygon class="cls-27" points="48.6 53.85 48.56 53.61 51.71 52.8 51.74 53.04 48.6 53.85"/><polygon class="cls-27" points="48.2 54.57 48.16 54.33 51.82 53.38 51.85 53.63 48.2 54.57"/><polygon class="cls-27" points="48.31 55.16 48.27 54.91 51.92 53.97 51.95 54.22 48.31 55.16"/><polygon class="cls-27" points="48.42 55.75 48.38 55.5 52.03 54.56 52.06 54.81 48.42 55.75"/><polygon class="cls-27" points="48.53 56.34 48.49 56.09 51.62 55.28 51.65 55.53 48.53 56.34"/><polygon class="cls-27" points="48.64 56.93 48.6 56.68 51.18 56.02 51.21 56.27 48.64 56.93"/><polygon class="cls-28" points="19.06 29.91 9.52 16.23 8.57 16.17 0.95 50.68 9.54 64.31 10.49 64.37 19.06 29.91"/><polygon class="cls-29" points="18.11 29.85 8.57 16.17 0 50.63 9.54 64.31 18.11 29.85"/><polygon class="cls-22" points="17.4 29.24 9.14 17.38 1.71 47.25 9.97 59.11 17.4 29.24"/><polygon class="cls-23" points="13.94 28.21 13.94 28.22 13.78 28.84 10 23.41 10.16 22.79 13.94 28.21"/><polygon class="cls-23" points="15.14 32.78 8.75 23.61 8.57 24.32 14.97 33.49 15.14 32.78"/><polygon class="cls-23" points="14.79 34.21 8.4 25.04 8.22 25.75 14.61 34.92 14.79 34.21"/><polygon class="cls-23" points="14.44 35.63 8.04 26.46 7.87 27.17 14.26 36.35 14.44 35.63"/><polygon class="cls-23" points="12.26 34.45 12.08 35.16 7.51 28.6 7.69 27.89 12.26 34.45"/><polygon class="cls-23" points="13.55 39.2 7.16 30.02 6.98 30.74 13.37 39.91 13.55 39.2"/><polygon class="cls-23" points="13.19 40.62 6.8 31.45 6.62 32.16 13.02 41.34 13.19 40.62"/><polygon class="cls-23" points="12.84 42.05 6.45 32.88 6.27 33.59 12.66 42.76 12.84 42.05"/><polygon class="cls-23" points="12.48 43.47 6.09 34.3 5.92 35.02 12.31 44.19 12.48 43.47"/><polygon class="cls-23" points="12.13 44.9 5.74 35.73 5.56 36.44 11.95 45.61 12.13 44.9"/><polygon class="cls-23" points="11.78 46.33 5.38 37.15 5.21 37.87 11.6 47.04 11.78 46.33"/><polygon class="cls-23" points="9.6 45.14 9.42 45.85 4.85 39.29 5.03 38.59 9.6 45.14"/><polygon class="cls-23" points="8.89 47.99 8.71 48.7 4.14 42.14 4.32 41.44 8.89 47.99"/><path class="cls-30" d="M16.1,26.22c.39,0,1.31,1.31,1.31,1.31A5.81,5.81,0,0,0,17,25.75c-.3-.6-4.53-7.6-5.71-6.92C12,20.42,16.1,26.22,16.1,26.22Z"/><path class="cls-30" d="M15.89,21.19c-.47-.93-1.28-1.07-2.29.4l1.11,1.82S16.36,22.11,15.89,21.19Zm-.43.61a.6.6,0,1,1-.28-.85A.63.63,0,0,1,15.46,21.79Z"/><path class="cls-31" d="M11.34,18.83A7.15,7.15,0,0,0,12.41,25c1.22,1.73,3.71,2.25,4.08,1.18S11.34,18.83,11.34,18.83Z"/><path class="cls-31" d="M15.25,21.67a.6.6,0,1,1-.28-.85A.63.63,0,0,1,15.25,21.67Zm.43-.61c-.47-.93-1.28-1.07-2.29.4l1.11,1.82S16.15,22,15.68,21.07Z"/><path class="cls-26" d="M10.64,48.95a5.42,5.42,0,0,0-2,2.35,2,2,0,0,0-.27.88c0,.3.59,0,.14.71-.08.13,0,.31.13.19s.19-.3.27-.46h0a4.44,4.44,0,0,0-.31,1.9.1.1,0,0,0,.08.1c.16,0,.47-.27.61-.53a5.48,5.48,0,0,0-.13.77c0,1,.39,1.07.89.81.08,0,0-.24,0-.2-1.13.55-.45-1.64-.48-2,0-.07-.07-.1-.11-.07-.33.33-.78,1.24-.52.06,0-.08.17-.58.29-1a3.49,3.49,0,0,0,.44-1.08c0-.07,0-.11-.08-.07a3.41,3.41,0,0,0-.43.74s0,0-.08,0a2.65,2.65,0,0,0-.26.35s0,0,0-.07-.12-.13-.13-.2a2,2,0,0,1,.5-1.32,8.49,8.49,0,0,1,1-1.3c.21-.22.34-.39.08,0A14.46,14.46,0,0,0,9,51.28c0,.07,0,.16.08.09.48-.76,1.33-1.32,1.67-2.25C10.77,49,10.71,48.91,10.64,48.95Z"/><path class="cls-14" d="M24.95,27.93a1.37,1.37,0,0,0-2.11-.13l.38.22a.77.77,0,0,1,.82-.24.59.59,0,0,1,.51.74.49.49,0,0,1-.11.2l.5.29A.85.85,0,0,0,24.95,27.93Z"/></g></g></g></svg>