<svg xmlns="http://www.w3.org/2000/svg" viewBox="0 0 70.8 90.52"><defs><style>.cls-1{isolation:isolate;}.cls-2{fill:#202b96;}.cls-3{fill:#3441ba;}.cls-4{fill:#3a48ce;}.cls-5{fill:#1f2a94;}.cls-6{fill:#2835a8;}.cls-7{fill:#151e75;}.cls-8{fill:#404ece;}.cls-9{fill:#182070;}.cls-10{fill:#27329b;}.cls-11{fill:#c5cfc7;}.cls-12{fill:#f7b880;}.cls-13{fill:#eda86a;}.cls-14{fill:#f7c68d;}.cls-15{fill:#d69e67;}.cls-16{fill:#ba8552;}.cls-17{fill:#453224;}.cls-18{fill:#d1ccc0;mix-blend-mode:multiply;}</style></defs><title>i4</title><g class="cls-1"><g id="Слой_2" data-name="Слой 2"><g id="Layer_3" data-name="Layer 3"><path class="cls-2" d="M22.22,0V50.83l2,1.53.3-.17V1.36ZM24,49.32c0,.36-.26.51-.57.33a1.26,1.26,0,0,1-.57-1v-2c0-.36.26-.51.57-.33a1.26,1.26,0,0,1,.57,1Zm0-5c0,.36-.26.51-.57.33a1.26,1.26,0,0,1-.57-1v-2c0-.36.25-.51.57-.33a1.26,1.26,0,0,1,.57,1Zm0-5c0,.36-.25.51-.57.33a1.26,1.26,0,0,1-.57-1v-2c0-.36.26-.51.57-.33a1.26,1.26,0,0,1,.57,1Zm0-5c0,.36-.26.51-.57.33a1.26,1.26,0,0,1-.57-1v-2c0-.36.26-.51.57-.33a1.26,1.26,0,0,1,.57,1Zm0-5c0,.36-.26.51-.57.33a1.26,1.26,0,0,1-.57-1v-2c0-.36.26-.51.57-.33a1.26,1.26,0,0,1,.57,1Zm0-5c0,.36-.26.51-.57.33a1.26,1.26,0,0,1-.57-1v-2c0-.36.26-.51.57-.33a1.26,1.26,0,0,1,.57,1Zm0-5c0,.36-.26.51-.57.33a1.26,1.26,0,0,1-.57-1v-2c0-.36.26-.51.57-.33a1.26,1.26,0,0,1,.57,1Zm0-5c0,.36-.26.51-.57.33a1.26,1.26,0,0,1-.57-1v-2c0-.36.26-.51.57-.33a1.26,1.26,0,0,1,.57,1Zm0-5c0,.36-.26.51-.57.33a1.26,1.26,0,0,1-.57-1v-2c0-.36.25-.51.57-.33a1.26,1.26,0,0,1,.57,1Zm0-5c0,.36-.25.51-.57.33a1.26,1.26,0,0,1-.57-1v-2c0-.36.26-.51.57-.33a1.26,1.26,0,0,1,.57,1Z"/><path class="cls-3" d="M21.92.17V51l2.35,1.36V1.53Zm1.74,49.32c0,.36-.26.51-.57.33a1.26,1.26,0,0,1-.57-1v-2c0-.36.26-.51.57-.33a1.26,1.26,0,0,1,.57,1Zm0-5c0,.36-.26.51-.57.33a1.26,1.26,0,0,1-.57-1v-2c0-.36.26-.51.57-.33a1.26,1.26,0,0,1,.57,1Zm0-5c0,.36-.26.51-.57.33a1.26,1.26,0,0,1-.57-1v-2c0-.36.26-.51.57-.33a1.26,1.26,0,0,1,.57,1Zm0-5c0,.36-.26.51-.57.33a1.26,1.26,0,0,1-.57-1v-2c0-.36.26-.51.57-.33a1.26,1.26,0,0,1,.57,1Zm0-5c0,.36-.26.51-.57.33a1.26,1.26,0,0,1-.57-1v-2c0-.36.25-.51.57-.33a1.26,1.26,0,0,1,.57,1Zm0-5c0,.36-.25.51-.57.33a1.26,1.26,0,0,1-.57-1V22c0-.36.26-.51.57-.33a1.26,1.26,0,0,1,.57,1Zm0-5c0,.36-.26.51-.57.33a1.26,1.26,0,0,1-.57-1V17c0-.36.26-.51.57-.33a1.26,1.26,0,0,1,.57,1Zm0-5c0,.36-.26.51-.57.33a1.26,1.26,0,0,1-.57-1V12c0-.36.26-.51.57-.33a1.26,1.26,0,0,1,.57,1Zm0-5c0,.36-.26.51-.57.33a1.26,1.26,0,0,1-.57-1v-2c0-.36.26-.51.57-.33a1.26,1.26,0,0,1,.57,1Zm0-5c0,.36-.26.51-.57.33a1.26,1.26,0,0,1-.57-1v-2c0-.36.25-.51.57-.33a1.26,1.26,0,0,1,.57,1Z"/><path class="cls-3" d="M19.87,1.36V52.18l.3.17,2-1.53V0Zm1.74,47.3a1.26,1.26,0,0,1-.57,1c-.31.18-.57,0-.57-.33v-2a1.26,1.26,0,0,1,.57-1c.31-.18.57,0,.57.33Zm0-5a1.26,1.26,0,0,1-.57,1c-.31.18-.57,0-.57-.33v-2a1.26,1.26,0,0,1,.57-1c.31-.18.57,0,.57.33Zm0-5a1.26,1.26,0,0,1-.57,1c-.31.18-.57,0-.57-.33v-2a1.26,1.26,0,0,1,.57-1c.31-.18.57,0,.57.33Zm0-5a1.26,1.26,0,0,1-.57,1c-.31.18-.57,0-.57-.33v-2a1.26,1.26,0,0,1,.57-1c.31-.18.57,0,.57.33Zm0-5a1.26,1.26,0,0,1-.57,1c-.31.18-.57,0-.57-.33v-2a1.26,1.26,0,0,1,.57-1c.31-.18.57,0,.57.33Zm0-5a1.26,1.26,0,0,1-.57,1c-.31.18-.57,0-.57-.33v-2a1.26,1.26,0,0,1,.57-1c.31-.18.57,0,.57.33Zm0-5a1.26,1.26,0,0,1-.57,1c-.31.18-.57,0-.57-.33v-2a1.26,1.26,0,0,1,.57-1c.31-.18.57,0,.57.33Zm0-5a1.26,1.26,0,0,1-.57,1c-.31.18-.57,0-.57-.33v-2a1.26,1.26,0,0,1,.57-1c.31-.18.57,0,.57.33Zm0-5a1.26,1.26,0,0,1-.57,1c-.31.18-.57,0-.57-.33v-2a1.26,1.26,0,0,1,.57-1c.31-.18.57,0,.57.33Zm0-5a1.26,1.26,0,0,1-.57,1c-.31.18-.57,0-.57-.33v-2a1.26,1.26,0,0,1,.57-1c.31-.18.57,0,.57.33Z"/><polygon class="cls-4" points="24.57 1.36 24.27 1.53 22.22 0.35 20.18 1.53 19.88 1.36 22.22 0 24.57 1.36"/><path class="cls-2" d="M22.22.35l-2,1.18V52.36l2-1.18ZM20.78,2.74a1.26,1.26,0,0,1,.57-1c.31-.18.57,0,.57.33v2a1.26,1.26,0,0,1-.57,1c-.31.18-.57,0-.57-.33Zm0,5a1.26,1.26,0,0,1,.57-1c.31-.18.57,0,.57.33v2a1.26,1.26,0,0,1-.57,1c-.31.18-.57,0-.57-.33Zm0,5a1.26,1.26,0,0,1,.57-1c.31-.18.57,0,.57.33v2a1.26,1.26,0,0,1-.57,1c-.31.18-.57,0-.57-.33ZM21.92,19a1.26,1.26,0,0,1-.57,1c-.31.18-.57,0-.57-.33v-2a1.26,1.26,0,0,1,.57-1c.31-.18.57,0,.57.33Zm-.57,2.65c.31-.18.57,0,.57.33v2a1.26,1.26,0,0,1-.57,1c-.31.18-.57,0-.57-.33v-2A1.26,1.26,0,0,1,21.35,21.65Zm0,5c.31-.18.57,0,.57.33v2a1.26,1.26,0,0,1-.57,1c-.31.18-.57,0-.57-.33v-2A1.26,1.26,0,0,1,21.35,26.62Zm0,5c.31-.18.57,0,.57.33v2a1.26,1.26,0,0,1-.57,1c-.31.18-.57,0-.57-.33v-2A1.26,1.26,0,0,1,21.35,31.59Zm0,5c.31-.18.57,0,.57.33v2a1.26,1.26,0,0,1-.57,1c-.31.18-.57,0-.57-.33v-2A1.26,1.26,0,0,1,21.35,36.56Zm0,5c.31-.18.57,0,.57.33v2a1.26,1.26,0,0,1-.57,1c-.31.18-.57,0-.57-.33v-2A1.26,1.26,0,0,1,21.35,41.54Zm0,8.28c-.31.18-.57,0-.57-.33v-2a1.26,1.26,0,0,1,.57-1c.31-.18.57,0,.57.33v2A1.26,1.26,0,0,1,21.35,49.82Z"/><polygon class="cls-5" points="2.05 54.69 22.22 43.04 22.22 39.12 2.05 50.77 2.05 54.69"/><polygon class="cls-6" points="2.79 51.2 2.79 53.39 21.47 42.61 21.47 40.42 21.15 40.6 2.79 51.2"/><polygon class="cls-7" points="2.79 51.2 2.79 53.05 21.15 42.45 21.15 40.6 2.79 51.2"/><polygon class="cls-5" points="2.79 51.39 2.79 53.05 21.15 42.45 21.15 40.79 2.79 51.39"/><polygon class="cls-8" points="21.57 38.75 22.22 39.12 2.05 50.77 1.39 50.4 21.57 38.75"/><path class="cls-2" d="M68.45,26.69V77.52l2.35,1.36V28ZM70.2,76c0,.36-.26.51-.57.33a1.26,1.26,0,0,1-.57-1v-2c0-.36.26-.51.57-.33a1.26,1.26,0,0,1,.57,1Zm0-5c0,.36-.26.51-.57.33a1.26,1.26,0,0,1-.57-1v-2c0-.36.26-.51.57-.33a1.26,1.26,0,0,1,.57,1Zm0-5c0,.36-.26.51-.57.33a1.26,1.26,0,0,1-.57-1v-2c0-.36.26-.51.57-.33a1.26,1.26,0,0,1,.57,1Zm0-5c0,.36-.26.51-.57.33a1.26,1.26,0,0,1-.57-1v-2c0-.36.25-.51.57-.33a1.26,1.26,0,0,1,.57,1Zm0-5c0,.36-.26.51-.57.33a1.26,1.26,0,0,1-.57-1v-2c0-.36.26-.51.57-.33a1.26,1.26,0,0,1,.57,1Zm0-5c0,.36-.26.51-.57.33a1.26,1.26,0,0,1-.57-1v-2c0-.36.26-.51.57-.33a1.26,1.26,0,0,1,.57,1Zm0-5c0,.36-.26.51-.57.33a1.26,1.26,0,0,1-.57-1v-2c0-.36.26-.51.57-.33a1.26,1.26,0,0,1,.57,1Zm0-5c0,.36-.26.51-.57.33a1.26,1.26,0,0,1-.57-1v-2c0-.36.26-.51.57-.33a1.26,1.26,0,0,1,.57,1Zm0-5c0,.36-.26.51-.57.33a1.26,1.26,0,0,1-.57-1v-2c0-.36.25-.51.57-.33a1.26,1.26,0,0,1,.57,1Zm0-5c0,.36-.26.51-.57.33a1.26,1.26,0,0,1-.57-1v-2c0-.36.26-.51.57-.33a1.26,1.26,0,0,1,.57,1Z"/><path class="cls-9" d="M68.15,26.87V77.69L70.5,79V28.22ZM69.9,76.18c0,.36-.25.51-.57.33a1.26,1.26,0,0,1-.57-1v-2c0-.36.26-.51.57-.33a1.26,1.26,0,0,1,.57,1Zm0-5c0,.36-.26.51-.57.33a1.26,1.26,0,0,1-.57-1v-2c0-.36.26-.51.57-.33a1.26,1.26,0,0,1,.57,1Zm0-5c0,.36-.26.51-.57.33a1.26,1.26,0,0,1-.57-1v-2c0-.36.26-.51.57-.33a1.26,1.26,0,0,1,.57,1Zm0-5c0,.36-.26.51-.57.33a1.26,1.26,0,0,1-.57-1v-2c0-.36.26-.51.57-.33a1.26,1.26,0,0,1,.57,1Zm0-5c0,.36-.26.51-.57.33a1.26,1.26,0,0,1-.57-1v-2c0-.36.25-.51.57-.33a1.26,1.26,0,0,1,.57,1Zm0-5c0,.36-.25.51-.57.33a1.26,1.26,0,0,1-.57-1v-2c0-.36.26-.51.57-.33a1.26,1.26,0,0,1,.57,1Zm0-5c0,.36-.26.51-.57.33a1.26,1.26,0,0,1-.57-1v-2c0-.36.26-.51.57-.33a1.26,1.26,0,0,1,.57,1Zm0-5c0,.36-.26.51-.57.33a1.26,1.26,0,0,1-.57-1v-2c0-.36.26-.51.57-.33a1.26,1.26,0,0,1,.57,1Zm0-5c0,.36-.26.51-.57.33a1.26,1.26,0,0,1-.57-1v-2c0-.36.26-.51.57-.33a1.26,1.26,0,0,1,.57,1Zm0-5c0,.36-.26.51-.57.33a1.26,1.26,0,0,1-.57-1v-2c0-.36.26-.51.57-.33a1.26,1.26,0,0,1,.57,1Z"/><path class="cls-3" d="M0,10.47V61.29l2.35-1.36V9.11Zm1.74,47.3a1.26,1.26,0,0,1-.57,1c-.31.18-.57,0-.57-.33v-2a1.26,1.26,0,0,1,.57-1c.31-.18.57,0,.57.33Zm0-5a1.26,1.26,0,0,1-.57,1c-.31.18-.57,0-.57-.33v-2a1.26,1.26,0,0,1,.57-1c.31-.18.57,0,.57.33Zm0-5a1.26,1.26,0,0,1-.57,1c-.31.18-.57,0-.57-.33v-2a1.26,1.26,0,0,1,.57-1c.31-.18.57,0,.57.33Zm0-5a1.26,1.26,0,0,1-.57,1c-.31.18-.57,0-.57-.33v-2a1.26,1.26,0,0,1,.57-1c.31-.18.57,0,.57.33Zm0-5a1.26,1.26,0,0,1-.57,1c-.31.18-.57,0-.57-.33v-2a1.26,1.26,0,0,1,.57-1c.31-.18.57,0,.57.33Zm0-5a1.26,1.26,0,0,1-.57,1c-.31.18-.57,0-.57-.33v-2a1.26,1.26,0,0,1,.57-1c.31-.18.57,0,.57.33Zm0-5a1.26,1.26,0,0,1-.57,1c-.31.18-.57,0-.57-.33v-2a1.26,1.26,0,0,1,.57-1c.31-.18.57,0,.57.33Zm0-5a1.26,1.26,0,0,1-.57,1c-.31.18-.57,0-.57-.33v-2a1.26,1.26,0,0,1,.57-1c.31-.18.57,0,.57.33Zm0-5a1.26,1.26,0,0,1-.57,1c-.31.18-.57,0-.57-.33v-2a1.26,1.26,0,0,1,.57-1c.31-.18.57,0,.57.33Zm0-5a1.26,1.26,0,0,1-.57,1c-.31.18-.57,0-.57-.33v-2a1.26,1.26,0,0,1,.57-1c.31-.18.57,0,.57.33Z"/><path class="cls-9" d="M.3,10.64V61.47l2.35-1.36V9.29ZM2,57.94a1.26,1.26,0,0,1-.57,1c-.31.18-.57,0-.57-.33v-2a1.26,1.26,0,0,1,.57-1c.31-.18.57,0,.57.33Zm0-5a1.26,1.26,0,0,1-.57,1c-.31.18-.57,0-.57-.33v-2a1.26,1.26,0,0,1,.57-1c.31-.18.57,0,.57.33Zm0-5a1.26,1.26,0,0,1-.57,1c-.31.18-.57,0-.57-.33v-2a1.26,1.26,0,0,1,.57-1c.31-.18.57,0,.57.33Zm0-5a1.26,1.26,0,0,1-.57,1c-.31.18-.57,0-.57-.33v-2a1.26,1.26,0,0,1,.57-1c.31-.18.57,0,.57.33Zm0-5a1.26,1.26,0,0,1-.57,1c-.31.18-.57,0-.57-.33v-2a1.26,1.26,0,0,1,.57-1c.31-.18.57,0,.57.33Zm0-5a1.26,1.26,0,0,1-.57,1c-.31.18-.57,0-.57-.33v-2a1.26,1.26,0,0,1,.57-1c.31-.18.57,0,.57.33Zm0-5a1.26,1.26,0,0,1-.57,1c-.31.18-.57,0-.57-.33v-2a1.26,1.26,0,0,1,.57-1c.31-.18.57,0,.57.33Zm0-5a1.26,1.26,0,0,1-.57,1c-.31.18-.57,0-.57-.33v-2a1.26,1.26,0,0,1,.57-1c.31-.18.57,0,.57.33Zm0-5a1.26,1.26,0,0,1-.57,1c-.31.18-.57,0-.57-.33v-2a1.26,1.26,0,0,1,.57-1c.31-.18.57,0,.57.33Zm0-5a1.26,1.26,0,0,1-.57,1c-.31.18-.57,0-.57-.33v-2a1.26,1.26,0,0,1,.57-1c.31-.18.57,0,.57.33Z"/><polygon class="cls-3" points="50.32 83.78 0.33 54.91 0.33 50.99 50.32 79.86 50.32 83.78"/><polygon class="cls-8" points="49.58 80.29 49.58 82.48 1.08 54.48 1.08 52.29 1.4 52.47 49.58 80.29"/><polygon class="cls-10" points="49.58 80.29 49.58 82.14 1.4 54.32 1.4 52.47 49.58 80.29"/><polygon class="cls-3" points="49.58 80.48 49.58 82.14 1.4 54.32 1.4 52.66 49.58 80.48"/><polygon class="cls-8" points="0.98 50.62 0.33 50.99 50.32 79.86 50.98 79.49 0.98 50.62"/><polygon class="cls-3" points="69.85 71.28 21.57 43.41 21.57 39.49 69.85 67.36 69.85 71.28"/><polygon class="cls-8" points="69.1 67.79 69.1 69.98 22.32 42.98 22.32 40.79 22.64 40.97 69.1 67.79"/><polygon class="cls-10" points="69.1 67.79 69.1 69.64 22.64 42.82 22.64 40.97 69.1 67.79"/><polygon class="cls-3" points="69.1 67.98 69.1 69.64 22.64 42.82 22.64 41.16 69.1 67.98"/><polygon class="cls-8" points="22.22 39.12 21.57 39.49 69.85 67.36 70.5 66.99 22.22 39.12"/><polygon class="cls-5" points="50.32 83.78 70.5 72.13 70.5 68.21 50.32 79.86 50.32 83.78"/><polygon class="cls-6" points="51.07 80.29 51.07 82.48 69.75 71.7 69.75 69.51 69.43 69.69 51.07 80.29"/><polygon class="cls-7" points="51.07 80.29 51.07 82.14 69.43 71.54 69.43 69.69 51.07 80.29"/><polygon class="cls-5" points="51.07 80.48 51.07 82.14 69.43 71.54 69.43 69.88 51.07 80.48"/><polygon class="cls-8" points="69.85 67.84 70.5 68.21 50.32 79.86 49.67 79.49 69.85 67.84"/><polygon class="cls-11" points="21.57 39.49 70.2 67.65 50.36 79.12 1.62 50.99 21.57 39.49"/><polygon class="cls-12" points="43.66 71.32 29.26 63.01 29.26 46.37 43.66 54.69 43.66 71.32"/><polygon class="cls-13" points="58.07 63.01 43.66 71.32 43.66 54.69 58.06 46.37 58.07 63.01"/><polygon class="cls-14" points="58.06 46.37 52.31 49.7 50.08 50.99 43.66 54.69 29.26 46.37 35.67 42.67 37.9 41.38 43.66 38.06 58.06 46.37"/><polygon class="cls-15" points="51.72 50.04 49.49 51.33 46.75 49.74 41.73 46.85 40.74 46.27 35.72 43.38 35.08 43.01 37.32 41.72 40.19 43.38 45.2 46.27 46.2 46.85 51.21 49.74 51.72 50.04"/><polygon class="cls-16" points="49.49 51.33 49.49 53.93 49.49 54.51 49.86 53.72 49.86 53.72 50.23 54.08 50.61 53.29 50.98 53.65 51.35 52.86 51.35 52.86 51.35 52.86 51.35 52.86 51.72 53.22 51.72 52.64 51.72 50.04 49.49 51.33"/><path class="cls-16" d="M36.35,42.28l-.21.12s-.09.1,14.35,8.35l.25-.14C46.84,48.39,36.66,42.55,36.35,42.28Z"/><path class="cls-17" d="M32.29,58V63.8l10.36,6V64ZM42.38,69.31l-9.82-5.67V58.49l9.82,5.67Zm-9.12-8.6v-1l.49.29L34,61.07l.15-.88,1.53.88v1c0,.72-.48,1-1.08.77V64l.86.5v.31l-2-1.15V63.3l.86.5V62.73A2.72,2.72,0,0,1,33.26,60.71ZM42,68.54l-2-1.15v-.31l2,1.15Zm-1.59-3-.22-.13.36-1.26.36,1.67-.22-.13v1.47l-.14-.08L40.44,67Zm.91.53-.22-.13.36-1.26.36,1.67-.22-.13v1.47l-.14-.08-.14-.08ZM36,62.29l.58,0a2.8,2.8,0,0,1,1.1.34v-.36l.27.16v.36a5.41,5.41,0,0,1,1.08.91l.6.65s0,.07,0,.06l-1.67-1V65c0,.54-.07,1.11-.61.8a1.13,1.13,0,0,1-.41-.44,1.47,1.47,0,0,1-.19-.75l.27.17a.94.94,0,0,0,.11.47.57.57,0,0,0,.21.22c.17.1.34.13.34-.64V63.32l-1.66-1S35.94,62.29,36,62.29Zm.24-.87a1.21,1.21,0,0,1,.23-.44,4,4,0,0,1,.23.71c0,.15-.1.21-.23.13A.51.51,0,0,1,36.21,61.42Zm.87.5a1.21,1.21,0,0,1,.23-.44,4.05,4.05,0,0,1,.23.71c0,.15-.1.21-.23.13A.51.51,0,0,1,37.08,61.92Zm1,.56a1.21,1.21,0,0,1,.23-.44,4.05,4.05,0,0,1,.23.71c0,.15-.1.21-.23.13A.51.51,0,0,1,38,62.49Zm.87.5a1.21,1.21,0,0,1,.23-.44,4,4,0,0,1,.23.71c0,.15-.1.21-.23.13A.51.51,0,0,1,38.92,63Z"/><polygon class="cls-5" points="2.05 27.57 22.22 15.92 22.22 12 2.05 23.65 2.05 27.57"/><polygon class="cls-6" points="2.79 24.08 2.79 26.27 21.47 15.49 21.47 13.3 21.15 13.48 2.79 24.08"/><polygon class="cls-7" points="2.79 24.08 2.79 25.93 21.15 15.33 21.15 13.48 2.79 24.08"/><polygon class="cls-5" points="2.79 24.27 2.79 25.93 21.15 15.33 21.15 13.67 2.79 24.27"/><polygon class="cls-8" points="21.57 11.63 22.22 12 1.62 23.87 0.98 23.5 21.57 11.63"/><polygon class="cls-3" points="50.32 56.66 0.33 27.8 0.33 23.87 50.32 52.74 50.32 56.66"/><polygon class="cls-8" points="49.58 53.17 49.58 55.36 1.08 27.36 1.08 25.17 1.4 25.35 49.58 53.17"/><polygon class="cls-10" points="49.58 53.17 49.58 55.02 1.4 27.2 1.4 25.35 49.58 53.17"/><polygon class="cls-3" points="49.58 53.36 49.58 55.02 1.4 27.2 1.4 25.54 49.58 53.36"/><polygon class="cls-8" points="0.98 23.5 0.33 23.87 50.32 52.74 50.98 52.37 0.98 23.5"/><polygon class="cls-3" points="69.85 44.16 21.57 16.29 21.57 12.37 69.85 40.24 69.85 44.16"/><polygon class="cls-8" points="69.1 40.67 69.1 42.87 22.32 15.86 22.32 13.67 22.64 13.85 69.1 40.67"/><polygon class="cls-10" points="69.1 40.67 69.1 42.52 22.64 15.7 22.64 13.85 69.1 40.67"/><polygon class="cls-3" points="69.1 40.87 69.1 42.52 22.64 15.7 22.64 14.04 69.1 40.87"/><polygon class="cls-8" points="22.22 12 21.57 12.37 69.85 40.24 70.5 39.87 22.22 12"/><polygon class="cls-5" points="50.32 56.66 70.5 45.01 70.5 41.09 50.32 52.74 50.32 56.66"/><polygon class="cls-6" points="51.07 53.17 51.07 55.36 69.75 44.58 69.75 42.39 69.43 42.57 51.07 53.17"/><polygon class="cls-7" points="51.07 53.17 51.07 55.02 69.43 44.42 69.43 42.57 51.07 53.17"/><polygon class="cls-5" points="51.07 53.36 51.07 55.02 69.43 44.42 69.43 42.76 51.07 53.36"/><polygon class="cls-8" points="69.85 40.72 70.5 41.09 50.32 52.74 49.67 52.37 69.85 40.72"/><polygon class="cls-11" points="21.57 12.37 70.2 40.53 50.36 52 1.62 23.87 21.57 12.37"/><path class="cls-3" d="M50.32,39.52V90.35L52.67,89V38.17Zm1.74,47.3a1.26,1.26,0,0,1-.57,1c-.31.18-.57,0-.57-.33v-2a1.26,1.26,0,0,1,.57-1c.31-.18.57,0,.57.33Zm0-5a1.26,1.26,0,0,1-.57,1c-.31.18-.57,0-.57-.33v-2a1.26,1.26,0,0,1,.57-1c.31-.18.57,0,.57.33Zm0-5a1.26,1.26,0,0,1-.57,1c-.31.18-.57,0-.57-.33v-2a1.26,1.26,0,0,1,.57-1c.31-.18.57,0,.57.33Zm0-5a1.26,1.26,0,0,1-.57,1c-.31.18-.57,0-.57-.33v-2a1.26,1.26,0,0,1,.57-1c.31-.18.57,0,.57.33Zm0-5a1.26,1.26,0,0,1-.57,1c-.31.18-.57,0-.57-.33v-2a1.26,1.26,0,0,1,.57-1c.31-.18.57,0,.57.33Zm0-5a1.26,1.26,0,0,1-.57,1c-.31.18-.57,0-.57-.33v-2a1.26,1.26,0,0,1,.57-1c.31-.18.57,0,.57.33Zm0-5a1.26,1.26,0,0,1-.57,1c-.31.18-.57,0-.57-.33v-2a1.26,1.26,0,0,1,.57-1c.31-.18.57,0,.57.33Zm0-5a1.26,1.26,0,0,1-.57,1c-.31.18-.57,0-.57-.33v-2a1.26,1.26,0,0,1,.57-1c.31-.18.57,0,.57.33Zm0-5a1.26,1.26,0,0,1-.57,1c-.31.18-.57,0-.57-.33v-2a1.26,1.26,0,0,1,.57-1c.31-.18.57,0,.57.33Zm0-5a1.26,1.26,0,0,1-.57,1c-.31.18-.57,0-.57-.33v-2a1.26,1.26,0,0,1,.57-1c.31-.18.57,0,.57.33Z"/><path class="cls-2" d="M48.58,38.17V89l2.35,1.36V39.52Zm1.74,49.32c0,.36-.26.51-.57.33a1.26,1.26,0,0,1-.57-1v-2c0-.36.26-.51.57-.33a1.26,1.26,0,0,1,.57,1Zm0-5c0,.36-.26.51-.57.33a1.26,1.26,0,0,1-.57-1v-2c0-.36.26-.51.57-.33a1.26,1.26,0,0,1,.57,1Zm0-5c0,.36-.26.51-.57.33a1.26,1.26,0,0,1-.57-1v-2c0-.36.26-.51.57-.33a1.26,1.26,0,0,1,.57,1Zm0-5c0,.36-.26.51-.57.33a1.26,1.26,0,0,1-.57-1v-2c0-.36.26-.51.57-.33a1.26,1.26,0,0,1,.57,1Zm0-5c0,.36-.26.51-.57.33a1.26,1.26,0,0,1-.57-1v-2c0-.36.25-.51.57-.33a1.26,1.26,0,0,1,.57,1Zm0-5c0,.36-.25.51-.57.33a1.26,1.26,0,0,1-.57-1V60c0-.36.26-.51.57-.33a1.26,1.26,0,0,1,.57,1Zm0-5c0,.36-.26.51-.57.33a1.26,1.26,0,0,1-.57-1V55c0-.36.26-.51.57-.33a1.26,1.26,0,0,1,.57,1Zm0-5c0,.36-.26.51-.57.33a1.26,1.26,0,0,1-.57-1V50c0-.36.26-.51.57-.33a1.26,1.26,0,0,1,.57,1Zm0-5c0,.36-.26.51-.57.33a1.26,1.26,0,0,1-.57-1V45c0-.36.26-.51.57-.33a1.26,1.26,0,0,1,.57,1Zm0-5c0,.36-.26.51-.57.33a1.26,1.26,0,0,1-.57-1v-2c0-.36.26-.51.57-.33a1.26,1.26,0,0,1,.57,1Z"/><path class="cls-3" d="M48.28,38.34V89.17l2.35,1.36V39.7ZM50,87.66c0,.36-.26.51-.57.33a1.26,1.26,0,0,1-.57-1V85c0-.36.25-.51.57-.33a1.26,1.26,0,0,1,.57,1Zm0-5c0,.36-.26.51-.57.33a1.26,1.26,0,0,1-.57-1V80c0-.36.26-.51.57-.33a1.26,1.26,0,0,1,.57,1Zm0-5c0,.36-.26.51-.57.33a1.26,1.26,0,0,1-.57-1v-2c0-.36.26-.51.57-.33a1.26,1.26,0,0,1,.57,1Zm0-5c0,.36-.26.51-.57.33a1.26,1.26,0,0,1-.57-1v-2c0-.36.26-.51.57-.33a1.26,1.26,0,0,1,.57,1Zm0-5c0,.36-.26.51-.57.33a1.26,1.26,0,0,1-.57-1v-2c0-.36.26-.51.57-.33a1.26,1.26,0,0,1,.57,1Zm0-5c0,.36-.26.51-.57.33a1.26,1.26,0,0,1-.57-1v-2c0-.36.26-.51.57-.33a1.26,1.26,0,0,1,.57,1Zm0-5c0,.36-.25.51-.57.33a1.26,1.26,0,0,1-.57-1v-2c0-.36.26-.51.57-.33a1.26,1.26,0,0,1,.57,1Zm0-5c0,.36-.26.51-.57.33a1.26,1.26,0,0,1-.57-1v-2c0-.36.26-.51.57-.33a1.26,1.26,0,0,1,.57,1Zm0-5c0,.36-.26.51-.57.33a1.26,1.26,0,0,1-.57-1v-2c0-.36.26-.51.57-.33a1.26,1.26,0,0,1,.57,1Zm0-5c0,.36-.26.51-.57.33a1.26,1.26,0,0,1-.57-1v-2c0-.36.26-.51.57-.33a1.26,1.26,0,0,1,.57,1Z"/><path class="cls-2" d="M50.62,39.7V90.52L53,89.17V38.34ZM52.37,87a1.26,1.26,0,0,1-.57,1c-.31.18-.57,0-.57-.33v-2a1.26,1.26,0,0,1,.57-1c.31-.18.57,0,.57.33Zm0-5a1.26,1.26,0,0,1-.57,1c-.31.18-.57,0-.57-.33v-2a1.26,1.26,0,0,1,.57-1c.31-.18.57,0,.57.33Zm0-5a1.26,1.26,0,0,1-.57,1c-.31.18-.57,0-.57-.33v-2a1.26,1.26,0,0,1,.57-1c.31-.18.57,0,.57.33Zm0-5a1.26,1.26,0,0,1-.57,1c-.31.18-.57,0-.57-.33v-2a1.26,1.26,0,0,1,.57-1c.31-.18.57,0,.57.33Zm0-5a1.26,1.26,0,0,1-.57,1c-.31.18-.57,0-.57-.33v-2a1.26,1.26,0,0,1,.57-1c.31-.18.57,0,.57.33Zm0-5a1.26,1.26,0,0,1-.57,1c-.31.18-.57,0-.57-.33v-2a1.26,1.26,0,0,1,.57-1c.31-.18.57,0,.57.33Zm0-5a1.26,1.26,0,0,1-.57,1c-.31.18-.57,0-.57-.33v-2a1.26,1.26,0,0,1,.57-1c.31-.18.57,0,.57.33Zm0-5a1.26,1.26,0,0,1-.57,1c-.31.18-.57,0-.57-.33v-2a1.26,1.26,0,0,1,.57-1c.31-.18.57,0,.57.33Zm0-5a1.26,1.26,0,0,1-.57,1c-.31.18-.57,0-.57-.33v-2a1.26,1.26,0,0,1,.57-1c.31-.18.57,0,.57.33Zm0-5a1.26,1.26,0,0,1-.57,1c-.31.18-.57,0-.57-.33v-2a1.26,1.26,0,0,1,.57-1c.31-.18.57,0,.57.33Z"/><polygon class="cls-4" points="48.28 38.34 48.58 38.17 50.63 39.35 52.67 38.17 52.97 38.34 50.63 39.7 48.28 38.34"/><path class="cls-2" d="M.3,10.29V61.12l2,1.53.3-.17V11.65ZM2,59.61c0,.36-.26.51-.57.33a1.26,1.26,0,0,1-.57-1V57c0-.36.26-.51.57-.33a1.26,1.26,0,0,1,.57,1Zm0-5c0,.36-.26.51-.57.33a1.26,1.26,0,0,1-.57-1V52c0-.36.26-.51.57-.33a1.26,1.26,0,0,1,.57,1Zm0-5c0,.36-.26.51-.57.33a1.26,1.26,0,0,1-.57-1V47c0-.36.25-.51.57-.33a1.26,1.26,0,0,1,.57,1Zm0-5c0,.36-.25.51-.57.33a1.26,1.26,0,0,1-.57-1V42c0-.36.26-.51.57-.33a1.26,1.26,0,0,1,.57,1Zm0-5c0,.36-.26.51-.57.33a1.26,1.26,0,0,1-.57-1v-2c0-.36.26-.51.57-.33a1.26,1.26,0,0,1,.57,1Zm0-5c0,.36-.26.51-.57.33a1.26,1.26,0,0,1-.57-1v-2c0-.36.26-.51.57-.33a1.26,1.26,0,0,1,.57,1Zm0-5c0,.36-.26.51-.57.33a1.26,1.26,0,0,1-.57-1v-2c0-.36.26-.51.57-.33a1.26,1.26,0,0,1,.57,1Zm0-5c0,.36-.26.51-.57.33a1.26,1.26,0,0,1-.57-1v-2c0-.36.26-.51.57-.33a1.26,1.26,0,0,1,.57,1Zm0-5c0,.36-.26.51-.57.33a1.26,1.26,0,0,1-.57-1v-2c0-.36.26-.51.57-.33a1.26,1.26,0,0,1,.57,1Zm0-5c0,.36-.26.51-.57.33a1.26,1.26,0,0,1-.57-1v-2c0-.36.25-.51.57-.33a1.26,1.26,0,0,1,.57,1Z"/><path class="cls-3" d="M0,10.47V61.29l2.35,1.36V11.82ZM1.74,59.78c0,.36-.26.51-.57.33a1.26,1.26,0,0,1-.57-1v-2c0-.36.26-.51.57-.33a1.26,1.26,0,0,1,.57,1Zm0-5c0,.36-.26.51-.57.33a1.26,1.26,0,0,1-.57-1v-2c0-.36.26-.51.57-.33a1.26,1.26,0,0,1,.57,1Zm0-5c0,.36-.26.51-.57.33a1.26,1.26,0,0,1-.57-1v-2c0-.36.26-.51.57-.33a1.26,1.26,0,0,1,.57,1Zm0-5c0,.36-.26.51-.57.33a1.26,1.26,0,0,1-.57-1v-2c0-.36.26-.51.57-.33a1.26,1.26,0,0,1,.57,1Zm0-5c0,.36-.26.51-.57.33a1.26,1.26,0,0,1-.57-1v-2c0-.36.26-.51.57-.33a1.26,1.26,0,0,1,.57,1Zm0-5c0,.36-.26.51-.57.33a1.26,1.26,0,0,1-.57-1v-2c0-.36.26-.51.57-.33a1.26,1.26,0,0,1,.57,1Zm0-5c0,.36-.26.51-.57.33a1.26,1.26,0,0,1-.57-1v-2c0-.36.26-.51.57-.33a1.26,1.26,0,0,1,.57,1Zm0-5c0,.36-.26.51-.57.33a1.26,1.26,0,0,1-.57-1v-2c0-.36.26-.51.57-.33a1.26,1.26,0,0,1,.57,1Zm0-5c0,.36-.26.51-.57.33a1.26,1.26,0,0,1-.57-1v-2c0-.36.26-.51.57-.33a1.26,1.26,0,0,1,.57,1Zm0-5c0,.36-.26.51-.57.33a1.26,1.26,0,0,1-.57-1v-2c0-.36.26-.51.57-.33a1.26,1.26,0,0,1,.57,1Z"/><polygon class="cls-4" points="2.35 9.11 2.65 9.29 0.6 10.47 2.65 11.65 2.35 11.82 0 10.47 2.35 9.11"/><path class="cls-3" d="M68.15,29.23V80.05l.3.17,2-1.53V27.87Zm1.74,47.3a1.26,1.26,0,0,1-.57,1c-.31.18-.57,0-.57-.33v-2a1.26,1.26,0,0,1,.57-1c.31-.18.57,0,.57.33Zm0-5a1.26,1.26,0,0,1-.57,1c-.31.18-.57,0-.57-.33v-2a1.26,1.26,0,0,1,.57-1c.31-.18.57,0,.57.33Zm0-5a1.26,1.26,0,0,1-.57,1c-.31.18-.57,0-.57-.33v-2a1.26,1.26,0,0,1,.57-1c.31-.18.57,0,.57.33Zm0-5a1.26,1.26,0,0,1-.57,1c-.31.18-.57,0-.57-.33v-2a1.26,1.26,0,0,1,.57-1c.31-.18.57,0,.57.33Zm0-5a1.26,1.26,0,0,1-.57,1c-.31.18-.57,0-.57-.33v-2a1.26,1.26,0,0,1,.57-1c.31-.18.57,0,.57.33Zm0-5a1.26,1.26,0,0,1-.57,1c-.31.18-.57,0-.57-.33v-2a1.26,1.26,0,0,1,.57-1c.31-.18.57,0,.57.33Zm0-5a1.26,1.26,0,0,1-.57,1c-.31.18-.57,0-.57-.33v-2a1.26,1.26,0,0,1,.57-1c.31-.18.57,0,.57.33Zm0-5a1.26,1.26,0,0,1-.57,1c-.31.18-.57,0-.57-.33v-2a1.26,1.26,0,0,1,.57-1c.31-.18.57,0,.57.33Zm0-5a1.26,1.26,0,0,1-.57,1c-.31.18-.57,0-.57-.33v-2a1.26,1.26,0,0,1,.57-1c.31-.18.57,0,.57.33Zm0-5a1.26,1.26,0,0,1-.57,1c-.31.18-.57,0-.57-.33v-2a1.26,1.26,0,0,1,.57-1c.31-.18.57,0,.57.33Z"/><path class="cls-2" d="M68.45,29.4V80.23l2.35-1.36V28Zm1.74,47.3a1.26,1.26,0,0,1-.57,1c-.31.18-.57,0-.57-.33v-2a1.26,1.26,0,0,1,.57-1c.31-.18.57,0,.57.33Zm0-5a1.26,1.26,0,0,1-.57,1c-.31.18-.57,0-.57-.33v-2a1.26,1.26,0,0,1,.57-1c.31-.18.57,0,.57.33Zm0-5a1.26,1.26,0,0,1-.57,1c-.31.18-.57,0-.57-.33v-2a1.26,1.26,0,0,1,.57-1c.31-.18.57,0,.57.33Zm0-5a1.26,1.26,0,0,1-.57,1c-.31.18-.57,0-.57-.33v-2a1.26,1.26,0,0,1,.57-1c.31-.18.57,0,.57.33Zm0-5a1.26,1.26,0,0,1-.57,1c-.31.18-.57,0-.57-.33v-2a1.26,1.26,0,0,1,.57-1c.31-.18.57,0,.57.33Zm0-5a1.26,1.26,0,0,1-.57,1c-.31.18-.57,0-.57-.33v-2a1.26,1.26,0,0,1,.57-1c.31-.18.57,0,.57.33Zm0-5a1.26,1.26,0,0,1-.57,1c-.31.18-.57,0-.57-.33v-2a1.26,1.26,0,0,1,.57-1c.31-.18.57,0,.57.33Zm0-5a1.26,1.26,0,0,1-.57,1c-.31.18-.57,0-.57-.33v-2a1.26,1.26,0,0,1,.57-1c.31-.18.57,0,.57.33Zm0-5a1.26,1.26,0,0,1-.57,1c-.31.18-.57,0-.57-.33v-2a1.26,1.26,0,0,1,.57-1c.31-.18.57,0,.57.33Zm0-5a1.26,1.26,0,0,1-.57,1c-.31.18-.57,0-.57-.33v-2a1.26,1.26,0,0,1,.57-1c.31-.18.57,0,.57.33Z"/><polygon class="cls-4" points="68.45 29.4 68.15 29.23 70.2 28.05 68.15 26.87 68.45 26.69 70.8 28.05 68.45 29.4"/><polygon class="cls-12" points="33.69 37.04 19.28 28.73 19.28 12.09 33.69 20.41 33.69 37.04"/><polygon class="cls-13" points="48.09 28.73 33.69 37.04 33.69 20.41 48.09 12.09 48.09 28.73"/><polygon class="cls-14" points="48.09 12.09 42.33 15.42 40.1 16.71 33.69 20.41 19.28 12.09 25.69 8.39 27.93 7.11 33.69 3.78 48.09 12.09"/><polygon class="cls-15" points="41.75 15.76 39.52 17.05 36.77 15.46 31.76 12.57 30.76 11.99 25.75 9.1 25.11 8.73 27.34 7.44 30.21 9.1 35.23 11.99 36.22 12.57 41.23 15.46 41.75 15.76"/><polygon class="cls-16" points="39.52 17.04 39.52 19.65 39.52 20.23 39.89 19.44 39.89 19.44 40.26 19.8 40.63 19.01 41 19.37 41.38 18.58 41.38 18.58 41.38 18.58 41.38 18.58 41.75 18.94 41.75 18.36 41.75 15.76 39.52 17.04"/><path class="cls-16" d="M26.37,8l-.21.12s-.09.1,14.35,8.35l.25-.14C36.87,14.11,26.68,8.27,26.37,8Z"/><path class="cls-17" d="M22.32,23.75v5.78l10.36,6V29.73ZM32.41,35l-9.82-5.67V24.21l9.82,5.67Zm-9.12-8.6v-1l.49.29L24,26.79l.15-.88,1.53.89v1c0,.72-.48,1-1.08.77v1.07l.86.5v.31l-2-1.15V29l.86.5V28.45A2.72,2.72,0,0,1,23.29,26.43Zm8.77,7.83-2-1.15V32.8l2,1.15Zm-1.59-3-.22-.13.36-1.26L31,31.55l-.22-.13v1.47l-.14-.08-.14-.08Zm.91.53-.22-.13.36-1.26.36,1.67-.22-.13v1.47l-.14-.08-.14-.08ZM26,28l.58,0a2.8,2.8,0,0,1,1.1.34V28l.27.16v.36a5.42,5.42,0,0,1,1.08.91l.6.65s0,.07,0,.06l-1.67-1v1.52c0,.54-.07,1.11-.61.8a1.13,1.13,0,0,1-.41-.44,1.47,1.47,0,0,1-.19-.75l.27.17a.94.94,0,0,0,.11.47.57.57,0,0,0,.21.22c.17.1.34.13.34-.64V29l-1.66-1S26,28,26,28Zm.24-.87a1.21,1.21,0,0,1,.23-.44,4,4,0,0,1,.23.71c0,.15-.1.21-.23.13A.51.51,0,0,1,26.23,27.14Zm.87.5a1.21,1.21,0,0,1,.23-.44,4,4,0,0,1,.23.71c0,.15-.1.21-.23.13A.51.51,0,0,1,27.1,27.64Zm1,.56a1.21,1.21,0,0,1,.23-.44,4,4,0,0,1,.23.71c0,.15-.1.21-.23.13A.51.51,0,0,1,28.07,28.21Zm.87.5a1.21,1.21,0,0,1,.23-.44,4,4,0,0,1,.23.71c0,.15-.1.21-.23.13A.51.51,0,0,1,28.95,28.71Z"/><polygon class="cls-18" points="28.02 49.67 29.26 48.43 29.26 52.97 28.48 52.51 2.97 52.51 2.96 53.37 3.52 53.69 3.52 55.54 2.96 55.57 2.96 56.43 2.65 56.26 2.65 49.67 28.02 49.67"/><polygon class="cls-18" points="14.5 23.95 16.55 25.19 16.25 25.37 2.97 25.37 2.96 26.23 3.52 26.55 3.52 28.4 2.96 28.43 2.96 29.29 2.65 29.12 2.65 22.53 16.25 22.53 16.55 22.71 14.5 23.95"/><path class="cls-18" d="M50,60.8a1.28,1.28,0,0,0-.57-1,.55.55,0,0,0-.23-.07.53.53,0,0,0,0,.23v2a1.24,1.24,0,0,0,.57,1A.74.74,0,0,0,50,63a.57.57,0,0,0,.05-.24Z"/><path class="cls-18" d="M49.46,64.79a.58.58,0,0,0-.23-.08.53.53,0,0,0,0,.23v2a1.24,1.24,0,0,0,.57,1A.54.54,0,0,0,50,68a.52.52,0,0,0,.05-.23v-2A1.26,1.26,0,0,0,49.46,64.79Z"/><path class="cls-18" d="M52.07,60a.53.53,0,0,0,0-.23.55.55,0,0,0-.23.07,1.28,1.28,0,0,0-.57,1v2a.57.57,0,0,0,0,.24.54.54,0,0,0,.22-.08,1.24,1.24,0,0,0,.57-1Z"/><path class="cls-18" d="M50,56.49,49.19,56v1a1.27,1.27,0,0,0,.57,1A.51.51,0,0,0,50,58a.52.52,0,0,0,.05-.23Z"/><path class="cls-18" d="M51.23,65.77v2a.52.52,0,0,0,0,.23.54.54,0,0,0,.22-.08,1.24,1.24,0,0,0,.57-1v-2a.53.53,0,0,0,0-.23.58.58,0,0,0-.23.08A1.26,1.26,0,0,0,51.23,65.77Z"/><path class="cls-18" d="M49.46,69.76a.58.58,0,0,0-.23-.08.53.53,0,0,0,0,.23v1.37H50v-.53A1.26,1.26,0,0,0,49.46,69.76Z"/><path class="cls-18" d="M29.26,46.38v1.07l14.41,8.32V71.32h4.61l0-15.82L30.9,45.44Z"/><polygon class="cls-18" points="58.07 59.81 58.07 52.19 54.86 54.04 54.86 54.04 52.98 55.13 52.98 55.13 52.97 55.13 52.97 66.66 52.98 66.66 52.98 71.28 60.98 71.28 63.07 72.5 68.15 69.56 68.15 65.64 58.07 59.81"/><path class="cls-18" d="M51.23,57.82a.52.52,0,0,0,0,.23A.51.51,0,0,0,51.5,58a1.25,1.25,0,0,0,.57-1V55.65l-.84.49Z"/><path class="cls-18" d="M52,69.68a.58.58,0,0,0-.23.08,1.26,1.26,0,0,0-.57,1v.53h.84V69.91A.53.53,0,0,0,52,69.68Z"/><polygon class="cls-18" points="33.69 37.04 52.37 37.04 59.32 33.42 48.09 26.93 48.09 12.09 33.69 20.41 33.69 37.04"/></g></g></g></svg>