<svg xmlns="http://www.w3.org/2000/svg" viewBox="0 0 90.05 72.17"><defs><style>.cls-1{isolation:isolate;}.cls-2{fill:#383431;}.cls-3{fill:#1c1a19;}.cls-4{fill:#48433f;}.cls-5{fill:#302d2a;}.cls-6{fill:#59534b;}.cls-7{fill:#1a1816;}.cls-8{fill:#8db0a1;}.cls-9{fill:#afbab0;}.cls-10{fill:#c5cfc7;}.cls-11{fill:#244fb5;}.cls-12{fill:#0f3199;}.cls-13{fill:#0d2b86;}.cls-14{fill:#a5b0a6;}.cls-15{fill:#929c93;}.cls-16{fill:#c9d6ca;}.cls-17{fill:#d1dbd3;}.cls-18{fill:#181f33;}.cls-19{fill:#2148a5;}.cls-20{fill:#bbc7bc;}.cls-21{fill:#98ab9d;}.cls-22{fill:#1d4091;}.cls-23{fill:#979e98;}.cls-24{fill:#54695e;}.cls-25{fill:#475950;}.cls-26{fill:#f9b233;}.cls-27{fill:#c8d1c9;}.cls-28{fill:#cfe8dc;}.cls-29{fill:#47cded;}.cls-30{fill:#23293b;}.cls-31{fill:#2ea9c7;}.cls-32{fill:#d8e5eb;mix-blend-mode:multiply;}</style></defs><title>i7</title><g class="cls-1"><g id="Слой_2" data-name="Слой 2"><g id="Layer_3" data-name="Layer 3"><path class="cls-2" d="M59,27.8l6-10.13-1.8-1a2,2,0,0,0-.31-.18h0a3,3,0,0,0-2.78.37A9.22,9.22,0,0,0,56,24.06a3,3,0,0,0,1.12,2.63h0l.2.12Z"/><path class="cls-3" d="M66.22,20.36a9.22,9.22,0,0,1-4.17,7.22c-2.3,1.33-4.17.25-4.17-2.41A9.22,9.22,0,0,1,62.05,18C64.36,16.63,66.22,17.7,66.22,20.36Z"/><path class="cls-2" d="M61.56,29.29l6-10.13-1.8-1a2,2,0,0,0-.31-.18h0a3,3,0,0,0-2.78.37,9.22,9.22,0,0,0-4.17,7.22,3,3,0,0,0,1.12,2.63h0l.2.12Z"/><path class="cls-4" d="M68.79,21.85a9.22,9.22,0,0,1-4.17,7.22c-2.3,1.33-4.17.25-4.17-2.41a9.22,9.22,0,0,1,4.17-7.22C66.92,18.11,68.79,19.19,68.79,21.85Z"/><path class="cls-5" d="M67.24,23.33A4.64,4.64,0,0,1,65.14,27c-1.07.62-1.95.21-2.09-.89,0-.1,0-.21,0-.32a4.64,4.64,0,0,1,2.1-3.63,1.46,1.46,0,0,1,.29-.14C66.46,21.55,67.24,22.11,67.24,23.33Z"/><path class="cls-6" d="M69,20.44,54.36,28.89l7.34,14,21.94-14Zm3.35,9.43a6.4,6.4,0,0,1-5.78,0c-.16-.1-.31-.2-.44-.3a3.8,3.8,0,0,1,.44-.31,6.4,6.4,0,0,1,5.78,0,3.8,3.8,0,0,1,.44.31A2.84,2.84,0,0,1,72.35,29.87Z"/><polygon class="cls-7" points="83.63 31.36 62.81 43.38 62.81 40.91 83.63 28.89 83.63 31.36"/><path class="cls-2" d="M80.26,40.07l6-10.13-1.8-1a2,2,0,0,0-.31-.18h0a3,3,0,0,0-2.78.37,9.22,9.22,0,0,0-4.17,7.22A3,3,0,0,0,78.34,39h0l.2.12Z"/><path class="cls-3" d="M87.49,32.63a9.22,9.22,0,0,1-4.17,7.22c-2.3,1.33-4.17.25-4.17-2.41a9.22,9.22,0,0,1,4.17-7.22C85.62,28.9,87.49,30,87.49,32.63Z"/><path class="cls-2" d="M82.82,41.56l6-10.13-1.8-1a2,2,0,0,0-.31-.18h0a3,3,0,0,0-2.78.37,9.22,9.22,0,0,0-4.17,7.22,3,3,0,0,0,1.12,2.63h0l.2.12Z"/><path class="cls-4" d="M90.05,34.12a9.22,9.22,0,0,1-4.17,7.22c-2.3,1.33-4.17.25-4.17-2.41a9.22,9.22,0,0,1,4.17-7.22C88.18,30.38,90.05,31.46,90.05,34.12Z"/><path class="cls-5" d="M88.5,35.6a4.64,4.64,0,0,1-2.1,3.63c-1.07.62-1.95.21-2.09-.89,0-.1,0-.21,0-.32a4.64,4.64,0,0,1,2.1-3.63,1.45,1.45,0,0,1,.29-.14C87.72,33.82,88.5,34.38,88.5,35.6Z"/><path class="cls-8" d="M87,35.23a3.75,3.75,0,0,1-1.69,2.93,1.26,1.26,0,0,1-1,.18c0-.1,0-.21,0-.32a4.64,4.64,0,0,1,2.1-3.63,1.45,1.45,0,0,1,.29-.14A1.29,1.29,0,0,1,87,35.23Z"/><path class="cls-2" d="M70.62,45.63l6-10.13-1.8-1a2,2,0,0,0-.31-.18h0a3,3,0,0,0-2.78.37,9.22,9.22,0,0,0-4.17,7.22,3,3,0,0,0,1.12,2.63h0l.2.12Z"/><path class="cls-3" d="M77.85,38.19a9.22,9.22,0,0,1-4.17,7.22c-2.3,1.33-4.17.25-4.17-2.41a9.22,9.22,0,0,1,4.17-7.22C76,34.46,77.85,35.54,77.85,38.19Z"/><path class="cls-9" d="M34.39,16.09c-1.26-.32-5.18-2.3-5.47.16-.13,1,0,14.85,0,15.9s0,2.22,0,3.34c.05,2.4,5.15,2.58,5.43.25a27.61,27.61,0,0,0,0-3.18V18.37C34.39,17.84,34.45,17,34.39,16.09Z"/><path class="cls-10" d="M33.59,15.12a1.18,1.18,0,0,1,0,2.24,4.28,4.28,0,0,1-3.87,0,1.18,1.18,0,0,1,0-2.24A4.28,4.28,0,0,1,33.59,15.12Z"/><path class="cls-9" d="M30.78,16.26l-.29-7.68a2.7,2.7,0,0,1,.68-1.85l2.57-2.88C34.93,2.51,36.23,3.67,35,5L32.55,7.8a1.23,1.23,0,0,0-.31.84l.28,7.57C32.54,16.93,30.79,17,30.78,16.26Z"/><path class="cls-11" d="M62.81,8.29,33.49,43.38V17.13c0-4.23,3.69-9.84,9.67-13.3l6-3.45Z"/><path class="cls-12" d="M68.1,33.77c1.14.72,3.44,2.26,4.17,2.75a.18.18,0,0,1,0,.29c-1.42,1.56-2.76,3.07-2.86,6a.24.24,0,0,1-.37.21l-3.81-2.39a.82.82,0,0,1-.39-.61c-.1-1,0-3.49,2.78-6.22A.37.37,0,0,1,68.1,33.77Z"/><path class="cls-13" d="M62.81,35A1.91,1.91,0,0,0,65.4,37l2.19,1.43c1.27.73.93,2.16-.34,1.42C67,39.66,65,38.39,65,38.39s-2.5.42-2.59-.23A18,18,0,0,1,62.81,35Z"/><path class="cls-13" d="M62.81,42.25l-15.64,9V25c0-4.23,3.69-9.84,9.67-13.3l6-3.45Z"/><path class="cls-14" d="M54.83,54.77A47.63,47.63,0,0,0,59.58,52l4.56-2.63c1.41-.81,3.4-1.47,3.74-3.25a7.67,7.67,0,0,0-1.81-5.75c-1.24-1.59-3.19-3-5.16-1.87l-4.56,2.63L51.78,43.8,49.5,45.11a4.41,4.41,0,0,0-1.92,1.49c-1.07,2,.15,4.78,1.36,6.42a6.68,6.68,0,0,0,2.76,2.31A3.05,3.05,0,0,0,54.83,54.77Z"/><path class="cls-15" d="M55,52.8c0,2.49-1.75,3.5-3.91,2.26a8.63,8.63,0,0,1-3.91-6.76c0-2.49,1.75-3.5,3.91-2.26A8.63,8.63,0,0,1,55,52.8Z"/><path class="cls-15" d="M58.69,52.79a1,1,0,0,1-.35.15l-.42.1a3.57,3.57,0,0,0,1.26-2.77,8.41,8.41,0,0,0-3.8-6.58,2.55,2.55,0,0,0-2.54-.27L52.63,43c1.38-.8,3.48,0,5.34,2.44a7.81,7.81,0,0,1,1.65,4.79A2.88,2.88,0,0,1,58.69,52.79Z"/><path class="cls-15" d="M63.88,48.94a2.14,2.14,0,0,1-1.48,1.47h0a3.47,3.47,0,0,0,1.18-2.67,8.4,8.4,0,0,0-3.8-6.58,3.38,3.38,0,0,0-3.05-.23,1.25,1.25,0,0,1,.37-.39C58,40,59,40.15,60.3,41A9,9,0,0,1,64,48.18,4.21,4.21,0,0,1,63.88,48.94Z"/><path class="cls-9" d="M53,26.33c-1.26-.32-5.18-2.3-5.47.16-.13,1,0,14.85,0,15.9s0,2.22,0,3.34c.05,2.4,5.15,2.58,5.43.25a27.61,27.61,0,0,0,0-3.18V28.61C53,28.08,53.09,27.24,53,26.33Z"/><path class="cls-10" d="M52.22,25.36a1.18,1.18,0,0,1,0,2.24,4.28,4.28,0,0,1-3.87,0,1.18,1.18,0,0,1,0-2.24A4.28,4.28,0,0,1,52.22,25.36Z"/><path class="cls-9" d="M21.42,30.81l-.75-.74a2.92,2.92,0,0,1-.77-1.74l.47-4.16c.07-.57.86-1.18,1.11-.93l.75.74a2.07,2.07,0,0,1,.33,1.49L22,30.23C21.93,30.8,21.67,31.06,21.42,30.81Z"/><path class="cls-16" d="M20.79,29.86l-.61-.61A1.69,1.69,0,0,1,19.91,28l.46-3.87c.06-.47.27-.68.47-.48l.61.61a1.69,1.69,0,0,1,.27,1.21l-.46,3.87C21.21,29.85,21,30.06,20.79,29.86Z"/><path class="cls-16" d="M20.79,33.9l-.65-2.27a1.75,1.75,0,0,1,0-.75l1.22-7.78A1.23,1.23,0,0,1,23,22.17l1.77.81-.18.4-1.77-.81a.8.8,0,0,0-1.12.6l-1.22,7.78a1.3,1.3,0,0,0,0,.56l.65,2.27Z"/><path class="cls-2" d="M6.61,60l6-10.13L9,47.79a2,2,0,0,0-.31-.18h0A3,3,0,0,0,5.91,48,9.22,9.22,0,0,0,1.74,55.2a3,3,0,0,0,1.12,2.63h0l.2.12Z"/><path class="cls-4" d="M13.84,52.56a9.22,9.22,0,0,1-4.17,7.22C7.37,61.11,5.5,60,5.5,57.38a9.22,9.22,0,0,1,4.17-7.22C12,48.83,13.84,49.9,13.84,52.56Z"/><path class="cls-10" d="M13.7,46.77l-.94-.65C10.48,44.6,4.59,44.82.63,51.45A4.62,4.62,0,0,0,0,54.24c1.1.64,4.51,2.51,4.51,2.51,1.19.69,1.54-.08,1.9-1.69s2.9-5.58,6.34-6.07a6.91,6.91,0,0,1,.94-.06Z"/><path class="cls-17" d="M13.7,46.77l-.94-.65c-2.43-1.62-8.23-1.94-12,5.06C2.38,52.08,6.13,54,6,53.33s3.75-6.26,7.39-5.55l.3,0Z"/><path class="cls-13" d="M19.34,53.68c2.84-2.81,14.88-9.6,15.95-10.46l4.57-14.07,8-4.61v23.2L35.13,54.91l-1,.2v4.13L19.34,64.65Z"/><path class="cls-18" d="M36.09,53V42.41l4.07-12.48,7.33-4.23V46.58Zm.22-10.54V52.62l11-6.17V26.07l-6.93,4Z"/><path class="cls-19" d="M4,44.83C6.88,42,18.77,35.56,19.83,34.7l4.28-13.2a2.39,2.39,0,0,1,1.08-1.33L32,16.23a.78.78,0,0,1,.76,0l15.07,8.31L40.63,28.7a2.32,2.32,0,0,0-1,1.29L35.29,43.22,19.34,53.68,3.88,56.13Z"/><polygon class="cls-20" points="37.27 56.14 34.13 54.33 34.13 59.23 37.27 61.94 37.27 61.32 37.27 56.14"/><path class="cls-9" d="M34.13,58.57s3,2.07,3.14,2.75-3.14-2.09-3.14-2.09Z"/><path class="cls-21" d="M37.39,63.38c-.43.25-3.62-2.32-3.62-2.32l.15-1.31a2.13,2.13,0,0,1,1.65.43A3.78,3.78,0,0,1,37.39,63.38Z"/><polygon class="cls-4" points="34.64 59.75 34.91 59.75 35.87 66.93 35.57 67.07 34.64 59.75"/><polygon class="cls-7" points="34.64 59.75 35.57 67.07 30.14 64.1 29.93 58.09 34.64 59.75"/><path class="cls-2" d="M27.08,71.82l6-10.13L29.46,59.6a2,2,0,0,0-.31-.18h0a3,3,0,0,0-2.78.37A9.22,9.22,0,0,0,22.2,67a3,3,0,0,0,1.12,2.63h0l.2.12Z"/><path class="cls-4" d="M34.3,64.38a9.22,9.22,0,0,1-4.17,7.22c-2.3,1.33-4.17.25-4.17-2.41A9.22,9.22,0,0,1,30.13,62C32.44,60.64,34.3,61.72,34.3,64.38Z"/><path class="cls-5" d="M32.76,65.86a4.64,4.64,0,0,1-2.1,3.63c-1.07.62-1.95.21-2.09-.89,0-.1,0-.21,0-.32a4.64,4.64,0,0,1,2.1-3.63A1.45,1.45,0,0,1,31,64.5C32,64.08,32.76,64.64,32.76,65.86Z"/><path class="cls-8" d="M31.3,65.48a3.75,3.75,0,0,1-1.69,2.93,1.26,1.26,0,0,1-1,.18c0-.1,0-.21,0-.32a4.64,4.64,0,0,1,2.1-3.63A1.45,1.45,0,0,1,31,64.5,1.29,1.29,0,0,1,31.3,65.48Z"/><path class="cls-2" d="M73.19,47.12l6-10.13-1.8-1a2,2,0,0,0-.31-.18h0a3,3,0,0,0-2.78.37,9.22,9.22,0,0,0-4.17,7.22A3,3,0,0,0,71.27,46h0l.2.12Z"/><path class="cls-4" d="M80.42,39.68a9.22,9.22,0,0,1-4.17,7.22c-2.3,1.33-4.17.25-4.17-2.41a9.22,9.22,0,0,1,4.17-7.22C78.55,35.95,80.42,37,80.42,39.68Z"/><path class="cls-5" d="M78.87,41.17a4.64,4.64,0,0,1-2.1,3.63c-1.07.62-1.95.21-2.09-.89,0-.1,0-.21,0-.32A4.64,4.64,0,0,1,76.77,40a1.46,1.46,0,0,1,.29-.14C78.08,39.38,78.87,39.94,78.87,41.17Z"/><path class="cls-8" d="M77.41,40.79a3.75,3.75,0,0,1-1.69,2.93,1.26,1.26,0,0,1-1,.18c0-.1,0-.21,0-.32A4.64,4.64,0,0,1,76.77,40a1.46,1.46,0,0,1,.29-.14A1.29,1.29,0,0,1,77.41,40.79Z"/><path class="cls-22" d="M11.27,47.51,4.38,44.76a.41.41,0,0,0-.5.4l-.1,11.18.36.22L18.56,65l.78.45V53.68a.41.41,0,0,0-.17-.33S12,47.68,11.27,47.51Z"/><path class="cls-17" d="M18.55,63.59c0,.19-.18.23-.39.11l-6.82-3.94L4.53,55.83a.78.78,0,0,1-.39-.56V47c0-1.25,5.26,1.6,6.8,3.38a1.25,1.25,0,0,0,.83.48c1.53,0,6.8,3.22,6.8,4.47v8.27Z"/><path class="cls-23" d="M11.18,50.78a2.22,2.22,0,0,1-.38-.34,13.49,13.49,0,0,0-3.06-2.27C5.84,47.07,4.36,46.6,4.36,47.1v8a.33.33,0,0,0,.17.24l6.65,3.84Z"/><path class="cls-23" d="M14.95,52.33a8.58,8.58,0,0,0-3.06-1.26.88.88,0,0,1-.25,0v8.42l6.53,3.77c.09.05.17,0,.17,0v-8C18.33,54.67,16.84,53.42,14.95,52.33Z"/><polygon class="cls-17" points="18.43 62.89 4.24 54.7 4.24 54.2 18.43 62.39 18.43 62.89"/><polygon class="cls-17" points="18.43 61.69 4.24 53.5 4.24 53 18.43 61.19 18.43 61.69"/><polygon class="cls-17" points="18.43 60.49 4.24 52.3 4.24 51.8 18.43 59.99 18.43 60.49"/><polygon class="cls-17" points="18.43 59.29 4.24 51.1 4.24 50.6 18.43 58.79 18.43 59.29"/><polygon class="cls-17" points="18.43 58.09 4.24 49.9 4.24 49.4 18.43 57.59 18.43 58.09"/><polygon class="cls-17" points="18.43 56.88 4.24 48.69 4.24 48.19 18.43 56.38 18.43 56.88"/><polygon class="cls-17" points="18.43 55.68 4.24 47.49 4.34 47.05 18.33 55.12 18.43 55.68"/><path class="cls-10" d="M51.83,55.22,37.39,63.38a5.34,5.34,0,0,0-6.1-3.62c-3.44.49-6,4.45-6.34,6.07s-.71,2.38-1.9,1.69c0,0-3.41-1.87-4.51-2.51l-.13-1.41c3.92-8,10.45-8.32,12.87-6.71.81.53,1.74,1.2,2.62,1.86,1.77,1.31,3.35,2.58,3.35,2.58L50,54.15Z"/><path class="cls-17" d="M33.92,58.75c-.46-.06-1.13,0-2-.2-3.64-.71-7.51,4.9-7.4,5.55s-3.63-1.25-5.21-2.16c3.73-7,9.53-6.67,12-5,.39.25.81.54,1.23.84S33.46,58.4,33.92,58.75Z"/><polygon class="cls-9" points="37.27 61.32 37.27 56.14 49.98 48.98 49.98 54.15 37.27 61.32"/><polygon class="cls-16" points="46.84 47.16 34.13 54.33 37.27 56.14 49.98 48.98 46.84 47.16"/><path class="cls-10" d="M35.58,44.34,19.34,54.2c-.17-.12-.32-.78-.49-.9A51.15,51.15,0,0,0,4,45.21s-.12.21-.15.41c-.2-1,.59-1.5,2.42-2.81,3.07-2.19,12-7.27,13.22-7.94a.65.65,0,0,1,.62,0l10.88,6h0l.1.05.08,0,.19.1.12.07L34.89,43a1,1,0,0,1,.51.66Z"/><path class="cls-9" d="M19.34,54.2c.25-.15-.1-1,0-1.21S34.67,43.65,35,43.43s-2.36-1.66-3.46-2.28L34.89,43a1,1,0,0,1,.51.66l.18.69Z"/><path class="cls-24" d="M24.59,70.67c-.26.14-.94.68-1.62.26l-.73-.43,0,0C18.49,68.32,3,59.29,1.74,58.58S0,57.59,0,57.13V54.24L3.16,56c.71.39.62-.95.62-.95l.35.2c.34.66,6.86,4.28,6.86,4.28s7.17,4.15,7.56,4v.8a1.07,1.07,0,0,0,.53.92,33.83,33.83,0,0,0,4.59,2.41c.48,0,1-.82,1-.82S24.84,70.53,24.59,70.67Z"/><path class="cls-25" d="M24.59,70.67c-.26.14-.94.68-1.62.26l-.73-.43c1.91.8,1.44-1.66,1.44-2.78.48,0,1-.82,1-.82S24.84,70.53,24.59,70.67Z"/><path class="cls-10" d="M12.2,50.09c0,.46-.32.65-.72.42a1.59,1.59,0,0,1-.72-1.25c0-.46.32-.65.72-.42A1.59,1.59,0,0,1,12.2,50.09Z"/><path class="cls-9" d="M19.11,64.5c.14-1.29.41-1.75.53-1.84s3.77,1.93,4.23,2,.6,0,.54.55-.35,1.68-.73,1.7S19,65.33,19.11,64.5Z"/><path class="cls-9" d="M.8,51.55a13.8,13.8,0,0,0,2.66,1.59,4,4,0,0,1-.17,2.27A11,11,0,0,1,.18,53.74C-.18,53.2.6,51.27.8,51.55Z"/><path class="cls-26" d="M.43,53.66C.2,53.52,0,53.1.25,52.42s.51-.61.72-.5,0,.38,0,.38Z"/><path class="cls-27" d="M21.6,64.63a.85.85,0,0,1-1.18.68,1.36,1.36,0,0,1-.83-1.43.84.84,0,0,1,1.18-.68A1.36,1.36,0,0,1,21.6,64.63Z"/><path class="cls-28" d="M21.16,64.46a.47.47,0,0,1-.66.38A.76.76,0,0,1,20,64a.47.47,0,0,1,.66-.38A.76.76,0,0,1,21.16,64.46Z"/><path class="cls-27" d="M23.63,65.74a.77.77,0,0,1-1.08.62,1.24,1.24,0,0,1-.76-1.31.77.77,0,0,1,1.08-.62A1.24,1.24,0,0,1,23.63,65.74Z"/><path class="cls-28" d="M23.24,65.59a.44.44,0,0,1-.61.35.71.71,0,0,1-.43-.75.44.44,0,0,1,.61-.35A.71.71,0,0,1,23.24,65.59Z"/><path class="cls-27" d="M3.3,54.06c0,.59-.3,1-.76,1a1.24,1.24,0,0,1-.9-1.18c0-.59.3-1,.76-1A1.24,1.24,0,0,1,3.3,54.06Z"/><path class="cls-28" d="M2.94,54c0,.33-.17.57-.42.53a.69.69,0,0,1-.5-.66c0-.33.17-.57.42-.53A.69.69,0,0,1,2.94,54Z"/><path class="cls-27" d="M1.42,53.89c-.28.28-.72.17-1-.23a1,1,0,0,1,0-1.24c.28-.28.72-.17,1,.23A1,1,0,0,1,1.42,53.89Z"/><path class="cls-28" d="M1.22,53.58c-.16.16-.41.1-.57-.13a.59.59,0,0,1,0-.71c.16-.16.41-.1.57.13A.59.59,0,0,1,1.22,53.58Z"/><path class="cls-26" d="M23.38,64.5c.32.24.75,1.8-.39,2.07,0,0,.93.45,1.14-.27S24.76,64.94,23.38,64.5Z"/><path class="cls-20" d="M36.6,45.41l-1.19-.69h0a.63.63,0,0,0-.73,0,2.11,2.11,0,0,0-1,1.65.63.63,0,0,0,.35.64l1.21.7a.63.63,0,0,0,.73,0,2.11,2.11,0,0,0,1-1.65A.62.62,0,0,0,36.6,45.41Z"/><path class="cls-9" d="M39.55,43.48c-1.05-.27-4.31-1.92-4.56.14a19.4,19.4,0,0,0,0,2.76c0,.93,0,1.85,0,2.78,0,2,4.29,2.15,4.52.2a23,23,0,0,0,0-2.65V45.38C39.55,44.93,39.61,44.24,39.55,43.48Z"/><path class="cls-10" d="M38.89,42.67a1,1,0,0,1,0,1.86,3.57,3.57,0,0,1-3.23,0,1,1,0,0,1,0-1.86A3.57,3.57,0,0,1,38.89,42.67Z"/><path class="cls-29" d="M39,29.71,35,42.28c-2.65-1.21-5-2.35-7.08-3.41l-1.31-.69-1.67-.91c-.88-.5-1.67-1-2.38-1.42-.29-.17-.55-.35-.8-.52-.5-.33-.93-.66-1.33-1L20,34.05,24.12,21.5l10.89,6,2.3,1.27,1.27.7Z"/><path class="cls-30" d="M37.29,40.89l2.88-9.41a3.42,3.42,0,0,1,1.56-2l4.59-2.65a.43.43,0,0,1,.65.37v8.42a.88.88,0,0,1-.44.76l-8.61,5A.43.43,0,0,1,37.29,40.89Z"/><path class="cls-31" d="M40.59,31.6a3,3,0,0,1,1.36-1.71l4.59-2.65v8.42a.45.45,0,0,1-.22.39l-8.6,5Z"/><path class="cls-9" d="M44.77,40.78a.08.08,0,0,1,0,0,.72.72,0,0,1-.93.72l-1.55-.35A1.29,1.29,0,0,1,41.34,40V35.54a.73.73,0,0,1,.93-.76l1.55.35a1.22,1.22,0,0,1,.33.14,1.28,1.28,0,0,1,.61,1Z"/><path class="cls-16" d="M44.12,40.49a.6.6,0,0,1-.76.62l-1.27-.29a1,1,0,0,1-.76-.88.24.24,0,0,1,0-.08V36.22a.17.17,0,0,1,0-.07.59.59,0,0,1,.75-.54l1,.22.3.07a1,1,0,0,1,.77,1l0,2.79Z"/><path class="cls-16" d="M41.55,42.59l-.25,0-5-.9a.22.22,0,1,1,.08-.43l5,.9a.95.95,0,0,0,1.12-.93V33.68a1,1,0,0,0-.54-.86l-2.62-1.15c-.24-.11,0-.51.19-.39l2.62,1.15a1.39,1.39,0,0,1,.79,1.25V41.2a1.39,1.39,0,0,1-1.38,1.39Z"/><path class="cls-11" d="M40.63,28.7a4.33,4.33,0,0,0-1,1.29c-.43,1-.43,2.49-1.36,2.19-.35-.11-1-.4-1.9-.79l-1.23-.59c-.72-.34-1.52-.72-2.36-1.14l-2.16-1.09c-.4-.2-.8-.41-1.2-.63-.57-.29-1.13-.59-1.66-.87-2.89-1.57-5.24-3-5.28-3.44-.09-1.07,1.28-2.6,2.75-3.46Z"/><path class="cls-26" d="M24.24,24.36,23,23.62a.49.49,0,0,1-.2-.57h0a.31.31,0,0,1,.47-.17l1.23.74a.49.49,0,0,1,.2.57h0A.31.31,0,0,1,24.24,24.36Z"/><path class="cls-26" d="M27.86,26.56l-1.23-.74a.49.49,0,0,1-.2-.57h0a.31.31,0,0,1,.47-.17l1.23.74a.49.49,0,0,1,.2.57h0A.31.31,0,0,1,27.86,26.56Z"/><path class="cls-26" d="M32.86,29.33l-1.27-.65a.46.46,0,0,1-.21-.55h0a.34.34,0,0,1,.48-.2l1.27.65a.46.46,0,0,1,.21.55h0A.34.34,0,0,1,32.86,29.33Z"/><path class="cls-26" d="M37.64,31.26l-1.27-.65a.46.46,0,0,1-.21-.55h0a.34.34,0,0,1,.48-.2l1.27.65a.46.46,0,0,1,.21.55h0A.34.34,0,0,1,37.64,31.26Z"/><path class="cls-9" d="M49.41,26.49l-.29-7.68A2.7,2.7,0,0,1,49.81,17l2.57-2.88c1.19-1.33,2.49-.17,1.3,1.16L51.19,18a1.23,1.23,0,0,0-.31.84l.28,7.57C51.18,27.16,49.43,27.2,49.41,26.49Z"/><path class="cls-10" d="M61.26,7.39a56.91,56.91,0,0,0-7.18,4c-5.81,3.78-8,12.18-8,12.18a5.35,5.35,0,0,1-2.91,1l-.14,0c-2,.12-10-4.21-9.55-5.42S33.81,16.8,37,11C39.53,6.36,47.19,2,50.32.32a2.68,2.68,0,0,1,2.6,0c1.65.93,4.52,2.59,6.31,3.65A4.5,4.5,0,0,1,61,5.77,2.3,2.3,0,0,1,61.26,7.39Z"/><path class="cls-9" d="M61.26,7.39a56.91,56.91,0,0,0-7.18,4c-5.81,3.78-8,12.18-8,12.18a5.35,5.35,0,0,1-2.91,1c1.45-.3,2.24-5.07,4.22-8.39C51.64,9,57.64,7.18,61,5.77A2.3,2.3,0,0,1,61.26,7.39Z"/><path class="cls-7" d="M72.79,29.57a3.8,3.8,0,0,0-.44-.31,6.4,6.4,0,0,0-5.78,0,3.8,3.8,0,0,0-.44.31c-1.13-.93-1-2.22.44-3a6.4,6.4,0,0,1,5.78,0C73.79,27.36,73.93,28.65,72.79,29.57Z"/><path class="cls-32" d="M32.53,57.73a3.84,3.84,0,0,0-1.23-.15,8.54,8.54,0,0,0-5.78,2.81s-4.36.5-6.18,1.55c3.73-7,9.53-6.67,12-5C31.69,57.14,32.11,57.43,32.53,57.73Z"/></g></g></g></svg>