<svg xmlns="http://www.w3.org/2000/svg" xmlns:xlink="http://www.w3.org/1999/xlink" viewBox="0 0 245.92 222.44"><defs><style>.cls-1{fill:url(#linear-gradient);}.cls-2{fill:#bddff4;}.cls-3{fill:url(#linear-gradient-2);}.cls-4{fill:url(#linear-gradient-3);}.cls-5{fill:url(#linear-gradient-4);}.cls-6{fill:url(#linear-gradient-5);}.cls-7{fill:url(#linear-gradient-6);}.cls-8{fill:url(#linear-gradient-7);}.cls-9{fill:url(#linear-gradient-8);}.cls-10{fill:url(#linear-gradient-9);}.cls-11{fill:url(#linear-gradient-10);}.cls-12{fill:url(#linear-gradient-11);}.cls-13{fill:url(#linear-gradient-12);}.cls-14{fill:url(#linear-gradient-13);}.cls-15{fill:url(#linear-gradient-14);}.cls-16{fill:url(#linear-gradient-15);}.cls-17{fill:url(#linear-gradient-16);}.cls-18{fill:url(#linear-gradient-17);}.cls-19{fill:#e2f1f7;}.cls-20{fill:url(#linear-gradient-18);}.cls-21{fill:url(#linear-gradient-19);}.cls-22{fill:url(#linear-gradient-20);}.cls-23{fill:url(#linear-gradient-21);}.cls-24{fill:url(#linear-gradient-22);}.cls-25{fill:url(#linear-gradient-23);}.cls-26{fill:url(#linear-gradient-24);}.cls-27{fill:url(#linear-gradient-25);}.cls-28{fill:url(#linear-gradient-26);}.cls-29{fill:url(#linear-gradient-27);}.cls-30{fill:url(#linear-gradient-28);}.cls-31{fill:url(#linear-gradient-29);}.cls-32{fill:url(#linear-gradient-30);}.cls-33{fill:url(#linear-gradient-31);}.cls-34{fill:url(#linear-gradient-32);}.cls-35{fill:url(#linear-gradient-33);}.cls-36{fill:url(#linear-gradient-34);}.cls-37{fill:url(#linear-gradient-35);}.cls-38{fill:url(#linear-gradient-36);}.cls-39{fill:url(#linear-gradient-37);}.cls-40{fill:url(#linear-gradient-38);}.cls-41{fill:url(#linear-gradient-39);}.cls-42{fill:url(#linear-gradient-40);}.cls-43{fill:url(#linear-gradient-41);}.cls-44{fill:url(#linear-gradient-42);}.cls-45{fill:url(#linear-gradient-43);}.cls-46{fill:url(#linear-gradient-44);}.cls-47{fill:url(#linear-gradient-45);}.cls-48{fill:url(#linear-gradient-46);}.cls-49{fill:url(#linear-gradient-47);}.cls-50{fill:url(#linear-gradient-48);}.cls-51{fill:url(#linear-gradient-49);}.cls-52{fill:url(#linear-gradient-50);}.cls-53{fill:url(#linear-gradient-51);}.cls-54{fill:url(#linear-gradient-52);}.cls-55{fill:url(#linear-gradient-53);}.cls-56{fill:url(#linear-gradient-54);}.cls-57{fill:url(#linear-gradient-55);}.cls-58{fill:url(#linear-gradient-56);}.cls-59{fill:url(#linear-gradient-57);}.cls-60{fill:url(#linear-gradient-58);}.cls-61{fill:url(#linear-gradient-59);}.cls-62{fill:url(#linear-gradient-60);}.cls-63{fill:url(#linear-gradient-61);}.cls-64{fill:url(#linear-gradient-62);}.cls-65{fill:url(#linear-gradient-63);}.cls-66{fill:url(#linear-gradient-64);}.cls-67{fill:url(#linear-gradient-65);}.cls-68{fill:url(#linear-gradient-66);}.cls-69{fill:url(#linear-gradient-67);}.cls-70{fill:url(#linear-gradient-68);}.cls-71{fill:url(#linear-gradient-69);}.cls-72{fill:url(#linear-gradient-70);}.cls-73{fill:url(#linear-gradient-71);}.cls-74{fill:url(#linear-gradient-72);}.cls-75{fill:url(#linear-gradient-73);}.cls-76{fill:url(#linear-gradient-74);}.cls-77{fill:url(#linear-gradient-75);}.cls-78{fill:url(#linear-gradient-76);}.cls-79{fill:url(#linear-gradient-77);}.cls-80{fill:url(#linear-gradient-78);}.cls-81{fill:url(#linear-gradient-79);}.cls-82{fill:url(#linear-gradient-80);}.cls-83{fill:url(#linear-gradient-81);}.cls-84{fill:url(#linear-gradient-82);}.cls-85{fill:url(#linear-gradient-83);}.cls-86{fill:url(#linear-gradient-84);}.cls-87{fill:url(#linear-gradient-85);}.cls-88{fill:url(#linear-gradient-86);}.cls-89{fill:url(#linear-gradient-87);}.cls-90{fill:url(#linear-gradient-88);}.cls-91{fill:url(#linear-gradient-89);}.cls-92{fill:url(#linear-gradient-90);}.cls-93{fill:url(#linear-gradient-91);}.cls-94{fill:url(#linear-gradient-92);}.cls-95{fill:url(#linear-gradient-93);}.cls-96{fill:url(#linear-gradient-94);}.cls-97{fill:url(#linear-gradient-95);}.cls-98{fill:url(#linear-gradient-96);}.cls-99{fill:url(#linear-gradient-97);}.cls-100{fill:url(#linear-gradient-98);}.cls-101{fill:url(#linear-gradient-99);}.cls-102{fill:url(#linear-gradient-100);}.cls-103{fill:url(#linear-gradient-101);}.cls-104{fill:url(#linear-gradient-102);}.cls-105{fill:url(#linear-gradient-103);}.cls-106{fill:url(#linear-gradient-104);}.cls-107{fill:url(#linear-gradient-105);}.cls-108{fill:url(#linear-gradient-106);}.cls-109{fill:url(#linear-gradient-107);}.cls-110{fill:url(#linear-gradient-108);}.cls-111{fill:url(#linear-gradient-109);}.cls-112{fill:url(#linear-gradient-110);}.cls-113{fill:url(#linear-gradient-111);}.cls-114{fill:url(#linear-gradient-112);}.cls-115{fill:url(#linear-gradient-113);}.cls-116{fill:url(#linear-gradient-114);}.cls-117{fill:url(#linear-gradient-115);}.cls-118{fill:url(#linear-gradient-116);}.cls-119{fill:url(#linear-gradient-117);}.cls-120{fill:url(#linear-gradient-118);}.cls-121{fill:url(#linear-gradient-119);}.cls-122{fill:url(#linear-gradient-120);}.cls-123{fill:url(#linear-gradient-121);}.cls-124{fill:url(#linear-gradient-122);}.cls-125{fill:url(#linear-gradient-123);}.cls-126{fill:url(#linear-gradient-124);}.cls-127{fill:url(#linear-gradient-125);}.cls-128{fill:url(#linear-gradient-126);}.cls-129{fill:url(#linear-gradient-127);}.cls-130{fill:url(#linear-gradient-128);}.cls-131{fill:url(#linear-gradient-129);}.cls-132{fill:url(#linear-gradient-130);}.cls-133{fill:url(#linear-gradient-131);}.cls-134{fill:url(#linear-gradient-132);}.cls-135{fill:url(#linear-gradient-133);}.cls-136{fill:url(#linear-gradient-134);}.cls-137{fill:url(#linear-gradient-135);}.cls-138{fill:url(#linear-gradient-136);}.cls-139{fill:url(#linear-gradient-137);}.cls-140{fill:url(#linear-gradient-138);}.cls-141{fill:url(#linear-gradient-139);}.cls-142{fill:url(#linear-gradient-140);}.cls-143{fill:url(#linear-gradient-141);}.cls-144{fill:url(#linear-gradient-142);}.cls-145{fill:url(#linear-gradient-143);}.cls-146{fill:url(#linear-gradient-144);}.cls-147{fill:url(#linear-gradient-145);}.cls-148{fill:url(#linear-gradient-146);}.cls-149{fill:url(#linear-gradient-147);}.cls-150{fill:url(#linear-gradient-148);}.cls-151{fill:url(#linear-gradient-149);}.cls-152{fill:url(#linear-gradient-150);}.cls-153{fill:url(#linear-gradient-151);}.cls-154{fill:url(#linear-gradient-152);}.cls-155{fill:url(#linear-gradient-153);}.cls-156{fill:url(#linear-gradient-154);}.cls-157{fill:url(#linear-gradient-155);}.cls-158{fill:url(#linear-gradient-156);}.cls-159{fill:url(#linear-gradient-157);}.cls-160{fill:url(#linear-gradient-158);}.cls-161{fill:url(#linear-gradient-159);}.cls-162{fill:url(#linear-gradient-160);}.cls-163{fill:url(#linear-gradient-161);}.cls-164{fill:url(#linear-gradient-162);}</style><linearGradient id="linear-gradient" x1="197.04" y1="132.42" x2="197.04" y2="134.1" gradientTransform="translate(1.41)" gradientUnits="userSpaceOnUse"><stop offset="0.01" stop-color="#3685fc"/><stop offset="1" stop-color="#2c65d6"/></linearGradient><linearGradient id="linear-gradient-2" x1="185.76" y1="207.9" x2="186.3" y2="208.84" gradientTransform="translate(1.41)" gradientUnits="userSpaceOnUse"><stop offset="0" stop-color="#83b8fc"/><stop offset="0.99" stop-color="#609ffd"/></linearGradient><linearGradient id="linear-gradient-3" x1="199.4" y1="132.74" x2="199.4" y2="205.25" xlink:href="#linear-gradient"/><linearGradient id="linear-gradient-4" x1="186.3" y1="211.79" x2="186.3" y2="207.3" gradientTransform="translate(1.41)" gradientUnits="userSpaceOnUse"><stop offset="0" stop-color="#2c65d6"/><stop offset="1" stop-color="#3046b5"/></linearGradient><linearGradient id="linear-gradient-5" x1="182.91" y1="215.51" x2="182.91" y2="142.15" xlink:href="#linear-gradient-4"/><linearGradient id="linear-gradient-6" x1="217.17" y1="122.48" x2="217.17" y2="195" xlink:href="#linear-gradient"/><linearGradient id="linear-gradient-7" x1="214.81" y1="122.16" x2="214.81" y2="123.84" xlink:href="#linear-gradient"/><linearGradient id="linear-gradient-8" x1="218.45" y1="195" x2="218.45" y2="121.64" xlink:href="#linear-gradient-4"/><linearGradient id="linear-gradient-9" x1="221.84" y1="191.27" x2="221.84" y2="186.79" xlink:href="#linear-gradient-4"/><linearGradient id="linear-gradient-10" x1="221.29" y1="187.38" x2="221.84" y2="188.32" xlink:href="#linear-gradient-2"/><linearGradient id="linear-gradient-11" x1="234.94" y1="112.22" x2="234.94" y2="184.74" xlink:href="#linear-gradient"/><linearGradient id="linear-gradient-12" x1="232.58" y1="111.9" x2="232.58" y2="113.58" xlink:href="#linear-gradient"/><linearGradient id="linear-gradient-13" x1="203.53" y1="197.64" x2="204.07" y2="198.58" xlink:href="#linear-gradient-2"/><linearGradient id="linear-gradient-14" x1="200.1" y1="134.1" x2="200.1" y2="130.13" xlink:href="#linear-gradient-4"/><linearGradient id="linear-gradient-15" x1="204.07" y1="201.53" x2="204.07" y2="197.04" xlink:href="#linear-gradient-4"/><linearGradient id="linear-gradient-16" x1="200.68" y1="205.25" x2="200.68" y2="131.89" xlink:href="#linear-gradient-4"/><linearGradient id="linear-gradient-17" x1="181.64" y1="143" x2="181.64" y2="215.51" xlink:href="#linear-gradient"/><linearGradient id="linear-gradient-18" x1="179.27" y1="142.68" x2="179.27" y2="144.36" xlink:href="#linear-gradient"/><linearGradient id="linear-gradient-19" x1="182.33" y1="144.36" x2="182.33" y2="140.39" xlink:href="#linear-gradient-4"/><linearGradient id="linear-gradient-20" x1="236.21" y1="184.74" x2="236.21" y2="111.38" xlink:href="#linear-gradient-4"/><linearGradient id="linear-gradient-21" x1="239.61" y1="181.01" x2="239.61" y2="176.53" xlink:href="#linear-gradient-4"/><linearGradient id="linear-gradient-22" x1="239.06" y1="177.12" x2="239.61" y2="178.06" xlink:href="#linear-gradient-2"/><linearGradient id="linear-gradient-23" x1="242.74" y1="180.08" x2="242.74" y2="174.6" xlink:href="#linear-gradient-4"/><linearGradient id="linear-gradient-24" x1="1.37" y1="121.42" x2="1.37" y2="128.08" xlink:href="#linear-gradient"/><linearGradient id="linear-gradient-25" x1="-0.02" y1="120.62" x2="2.76" y2="125.44" xlink:href="#linear-gradient-2"/><linearGradient id="linear-gradient-26" x1="4.22" y1="128.08" x2="4.22" y2="124.64" xlink:href="#linear-gradient-4"/><linearGradient id="linear-gradient-27" x1="85.87" y1="124.63" x2="85.87" y2="219.07" xlink:href="#linear-gradient"/><linearGradient id="linear-gradient-28" x1="20.56" y1="134.07" x2="20.56" y2="137.51" xlink:href="#linear-gradient"/><linearGradient id="linear-gradient-29" x1="17.71" y1="130.86" x2="17.71" y2="134.07" xlink:href="#linear-gradient"/><linearGradient id="linear-gradient-30" x1="85.94" y1="171.82" x2="85.94" y2="175.26" xlink:href="#linear-gradient"/><linearGradient id="linear-gradient-31" x1="66.75" y1="159.17" x2="66.75" y2="162.38" xlink:href="#linear-gradient"/><linearGradient id="linear-gradient-32" x1="36.91" y1="143.51" x2="36.91" y2="146.95" xlink:href="#linear-gradient"/><linearGradient id="linear-gradient-33" x1="34.06" y1="140.3" x2="34.06" y2="143.51" xlink:href="#linear-gradient"/><linearGradient id="linear-gradient-34" x1="69.6" y1="162.38" x2="69.6" y2="165.82" xlink:href="#linear-gradient"/><linearGradient id="linear-gradient-35" x1="50.4" y1="149.73" x2="50.4" y2="152.95" xlink:href="#linear-gradient"/><linearGradient id="linear-gradient-36" x1="83.09" y1="168.61" x2="83.09" y2="171.82" xlink:href="#linear-gradient"/><linearGradient id="linear-gradient-37" x1="53.25" y1="152.95" x2="53.25" y2="156.39" xlink:href="#linear-gradient"/><linearGradient id="linear-gradient-38" x1="132.13" y1="196.92" x2="132.13" y2="200.13" xlink:href="#linear-gradient"/><linearGradient id="linear-gradient-39" x1="102.29" y1="181.26" x2="102.29" y2="184.7" xlink:href="#linear-gradient"/><linearGradient id="linear-gradient-40" x1="99.44" y1="178.04" x2="99.44" y2="181.26" xlink:href="#linear-gradient"/><linearGradient id="linear-gradient-41" x1="134.98" y1="200.13" x2="134.98" y2="203.57" xlink:href="#linear-gradient"/><linearGradient id="linear-gradient-42" x1="115.78" y1="187.48" x2="115.78" y2="190.69" xlink:href="#linear-gradient"/><linearGradient id="linear-gradient-43" x1="118.63" y1="190.69" x2="118.63" y2="194.13" xlink:href="#linear-gradient"/><linearGradient id="linear-gradient-44" x1="164.82" y1="215.79" x2="164.82" y2="219" xlink:href="#linear-gradient"/><linearGradient id="linear-gradient-45" x1="151.32" y1="209.57" x2="151.32" y2="213.01" xlink:href="#linear-gradient"/><linearGradient id="linear-gradient-46" x1="148.47" y1="206.35" x2="148.47" y2="209.57" xlink:href="#linear-gradient"/><linearGradient id="linear-gradient-47" x1="17.71" y1="130.86" x2="17.71" y2="137.51" xlink:href="#linear-gradient"/><linearGradient id="linear-gradient-48" x1="34.06" y1="140.3" x2="34.06" y2="146.95" xlink:href="#linear-gradient"/><linearGradient id="linear-gradient-49" x1="83.09" y1="168.61" x2="83.09" y2="175.26" xlink:href="#linear-gradient"/><linearGradient id="linear-gradient-50" x1="66.75" y1="159.17" x2="66.75" y2="165.82" xlink:href="#linear-gradient"/><linearGradient id="linear-gradient-51" x1="50.4" y1="149.74" x2="50.4" y2="156.39" xlink:href="#linear-gradient"/><linearGradient id="linear-gradient-52" x1="99.44" y1="178.04" x2="99.44" y2="184.7" xlink:href="#linear-gradient"/><linearGradient id="linear-gradient-53" x1="132.13" y1="196.92" x2="132.13" y2="203.57" xlink:href="#linear-gradient"/><linearGradient id="linear-gradient-54" x1="115.78" y1="187.48" x2="115.78" y2="194.13" xlink:href="#linear-gradient"/><linearGradient id="linear-gradient-55" x1="148.47" y1="206.36" x2="148.47" y2="213.01" xlink:href="#linear-gradient"/><linearGradient id="linear-gradient-56" x1="164.82" y1="215.79" x2="164.82" y2="222.44" xlink:href="#linear-gradient"/><linearGradient id="linear-gradient-57" x1="243.11" y1="175.4" x2="243.11" y2="175.4" xlink:href="#linear-gradient-2"/><linearGradient id="linear-gradient-58" x1="172.45" y1="222.44" x2="172.45" y2="215.75" xlink:href="#linear-gradient-4"/><linearGradient id="linear-gradient-59" x1="209.23" y1="199.2" x2="209.23" y2="196.03" xlink:href="#linear-gradient-4"/><linearGradient id="linear-gradient-60" x1="217.87" y1="123.84" x2="217.87" y2="119.88" xlink:href="#linear-gradient-4"/><linearGradient id="linear-gradient-61" x1="235.64" y1="113.58" x2="235.64" y2="109.62" xlink:href="#linear-gradient-4"/><linearGradient id="linear-gradient-62" x1="1.37" y1="47.84" x2="1.37" y2="124.63" xlink:href="#linear-gradient"/><linearGradient id="linear-gradient-63" x1="34.06" y1="66.72" x2="34.06" y2="143.5" xlink:href="#linear-gradient"/><linearGradient id="linear-gradient-64" x1="17.71" y1="57.28" x2="17.71" y2="134.07" xlink:href="#linear-gradient"/><linearGradient id="linear-gradient-65" x1="23.85" y1="134.07" x2="23.85" y2="60.41" xlink:href="#linear-gradient-4"/><linearGradient id="linear-gradient-66" x1="29.24" y1="64.21" x2="29.24" y2="132.54" xlink:href="#linear-gradient"/><linearGradient id="linear-gradient-67" x1="24.87" y1="131.54" x2="30.26" y2="140.88" xlink:href="#linear-gradient-2"/><linearGradient id="linear-gradient-68" x1="20.56" y1="60.49" x2="20.56" y2="57.05" xlink:href="#linear-gradient-4"/><linearGradient id="linear-gradient-69" x1="7.51" y1="124.63" x2="7.51" y2="50.98" xlink:href="#linear-gradient-4"/><linearGradient id="linear-gradient-70" x1="12.9" y1="54.78" x2="12.9" y2="123.1" xlink:href="#linear-gradient"/><linearGradient id="linear-gradient-71" x1="8.52" y1="122.1" x2="13.92" y2="131.44" xlink:href="#linear-gradient-2"/><linearGradient id="linear-gradient-72" x1="4.22" y1="51.05" x2="4.22" y2="47.61" xlink:href="#linear-gradient-4"/><linearGradient id="linear-gradient-73" x1="40.2" y1="143.5" x2="40.2" y2="69.85" xlink:href="#linear-gradient-4"/><linearGradient id="linear-gradient-74" x1="45.59" y1="73.65" x2="45.59" y2="141.98" xlink:href="#linear-gradient"/><linearGradient id="linear-gradient-75" x1="41.21" y1="140.98" x2="46.61" y2="150.32" xlink:href="#linear-gradient-2"/><linearGradient id="linear-gradient-76" x1="36.91" y1="69.93" x2="36.91" y2="66.49" xlink:href="#linear-gradient-4"/><linearGradient id="linear-gradient-77" x1="50.4" y1="76.15" x2="50.4" y2="152.94" xlink:href="#linear-gradient"/><linearGradient id="linear-gradient-78" x1="66.75" y1="85.59" x2="66.75" y2="162.38" xlink:href="#linear-gradient"/><linearGradient id="linear-gradient-79" x1="72.89" y1="162.38" x2="72.89" y2="88.72" xlink:href="#linear-gradient-4"/><linearGradient id="linear-gradient-80" x1="78.28" y1="92.52" x2="78.28" y2="160.85" xlink:href="#linear-gradient"/><linearGradient id="linear-gradient-81" x1="73.9" y1="159.85" x2="79.3" y2="169.19" xlink:href="#linear-gradient-2"/><linearGradient id="linear-gradient-82" x1="69.6" y1="88.8" x2="69.6" y2="85.36" xlink:href="#linear-gradient-4"/><linearGradient id="linear-gradient-83" x1="83.09" y1="95.03" x2="83.09" y2="171.81" xlink:href="#linear-gradient"/><linearGradient id="linear-gradient-84" x1="89.23" y1="171.81" x2="89.23" y2="98.16" xlink:href="#linear-gradient-4"/><linearGradient id="linear-gradient-85" x1="94.62" y1="101.96" x2="94.62" y2="170.29" xlink:href="#linear-gradient"/><linearGradient id="linear-gradient-86" x1="90.25" y1="169.29" x2="95.64" y2="178.63" xlink:href="#linear-gradient-2"/><linearGradient id="linear-gradient-87" x1="85.94" y1="98.24" x2="85.94" y2="94.8" xlink:href="#linear-gradient-4"/><linearGradient id="linear-gradient-88" x1="56.54" y1="152.94" x2="56.54" y2="79.29" xlink:href="#linear-gradient-4"/><linearGradient id="linear-gradient-89" x1="61.93" y1="83.09" x2="61.93" y2="151.41" xlink:href="#linear-gradient"/><linearGradient id="linear-gradient-90" x1="57.56" y1="150.41" x2="62.95" y2="159.75" xlink:href="#linear-gradient-2"/><linearGradient id="linear-gradient-91" x1="53.25" y1="79.36" x2="53.25" y2="75.92" xlink:href="#linear-gradient-4"/><linearGradient id="linear-gradient-92" x1="99.44" y1="104.46" x2="99.44" y2="181.25" xlink:href="#linear-gradient"/><linearGradient id="linear-gradient-93" x1="132.13" y1="123.34" x2="132.13" y2="200.12" xlink:href="#linear-gradient"/><linearGradient id="linear-gradient-94" x1="138.27" y1="200.12" x2="138.27" y2="126.47" xlink:href="#linear-gradient-4"/><linearGradient id="linear-gradient-95" x1="143.66" y1="130.27" x2="143.66" y2="198.6" xlink:href="#linear-gradient"/><linearGradient id="linear-gradient-96" x1="139.28" y1="197.6" x2="144.68" y2="206.94" xlink:href="#linear-gradient-2"/><linearGradient id="linear-gradient-97" x1="134.98" y1="126.55" x2="134.98" y2="123.11" xlink:href="#linear-gradient-4"/><linearGradient id="linear-gradient-98" x1="105.58" y1="181.25" x2="105.58" y2="107.6" xlink:href="#linear-gradient-4"/><linearGradient id="linear-gradient-99" x1="110.97" y1="111.4" x2="110.97" y2="179.72" xlink:href="#linear-gradient"/><linearGradient id="linear-gradient-100" x1="106.59" y1="178.72" x2="111.99" y2="188.06" xlink:href="#linear-gradient-2"/><linearGradient id="linear-gradient-101" x1="102.29" y1="107.68" x2="102.29" y2="104.23" xlink:href="#linear-gradient-4"/><linearGradient id="linear-gradient-102" x1="115.78" y1="113.9" x2="115.78" y2="190.69" xlink:href="#linear-gradient"/><linearGradient id="linear-gradient-103" x1="148.47" y1="132.77" x2="148.47" y2="209.56" xlink:href="#linear-gradient"/><linearGradient id="linear-gradient-104" x1="121.92" y1="190.69" x2="121.92" y2="117.03" xlink:href="#linear-gradient-4"/><linearGradient id="linear-gradient-105" x1="127.31" y1="120.83" x2="127.31" y2="189.16" xlink:href="#linear-gradient"/><linearGradient id="linear-gradient-106" x1="122.94" y1="188.16" x2="128.33" y2="197.5" xlink:href="#linear-gradient-2"/><linearGradient id="linear-gradient-107" x1="118.63" y1="117.11" x2="118.63" y2="113.67" xlink:href="#linear-gradient-4"/><linearGradient id="linear-gradient-108" x1="164.82" y1="142.21" x2="164.82" y2="219" xlink:href="#linear-gradient"/><linearGradient id="linear-gradient-109" x1="170.96" y1="219" x2="170.96" y2="141.55" xlink:href="#linear-gradient-4"/><linearGradient id="linear-gradient-110" x1="175.91" y1="141.55" x2="175.91" y2="216.96" xlink:href="#linear-gradient"/><linearGradient id="linear-gradient-111" x1="154.61" y1="209.56" x2="154.61" y2="135.91" xlink:href="#linear-gradient-4"/><linearGradient id="linear-gradient-112" x1="160" y1="139.71" x2="160" y2="208.03" xlink:href="#linear-gradient"/><linearGradient id="linear-gradient-113" x1="155.63" y1="207.03" x2="161.02" y2="216.37" xlink:href="#linear-gradient-2"/><linearGradient id="linear-gradient-114" x1="151.32" y1="135.99" x2="151.32" y2="132.54" xlink:href="#linear-gradient-4"/><linearGradient id="linear-gradient-115" x1="83.09" y1="44.4" x2="83.09" y2="145.42" xlink:href="#linear-gradient"/><linearGradient id="linear-gradient-116" x1="241.15" y1="176.21" x2="241.15" y2="101.02" xlink:href="#linear-gradient-4"/><linearGradient id="linear-gradient-117" x1="34.06" y1="63.28" x2="34.06" y2="66.49" xlink:href="#linear-gradient"/><linearGradient id="linear-gradient-118" x1="17.71" y1="53.84" x2="17.71" y2="57.05" xlink:href="#linear-gradient"/><linearGradient id="linear-gradient-119" x1="50.4" y1="72.71" x2="50.4" y2="75.92" xlink:href="#linear-gradient"/><linearGradient id="linear-gradient-120" x1="66.75" y1="82.15" x2="66.75" y2="85.36" xlink:href="#linear-gradient"/><linearGradient id="linear-gradient-121" x1="83.09" y1="91.59" x2="83.09" y2="94.8" xlink:href="#linear-gradient"/><linearGradient id="linear-gradient-122" x1="99.44" y1="101.02" x2="99.44" y2="104.23" xlink:href="#linear-gradient"/><linearGradient id="linear-gradient-123" x1="132.13" y1="119.9" x2="132.13" y2="123.11" xlink:href="#linear-gradient"/><linearGradient id="linear-gradient-124" x1="115.78" y1="110.46" x2="115.78" y2="113.67" xlink:href="#linear-gradient"/><linearGradient id="linear-gradient-125" x1="148.47" y1="129.33" x2="148.47" y2="132.54" xlink:href="#linear-gradient"/><linearGradient id="linear-gradient-126" x1="164.82" y1="138.77" x2="164.82" y2="141.98" xlink:href="#linear-gradient"/><linearGradient id="linear-gradient-127" x1="209.21" y1="122.32" x2="209.21" y2="197.73" xlink:href="#linear-gradient"/><linearGradient id="linear-gradient-128" x1="206.15" y1="125.71" x2="206.15" y2="122.32" xlink:href="#linear-gradient-4"/><linearGradient id="linear-gradient-129" x1="206.05" y1="145.42" x2="206.05" y2="97.59" xlink:href="#linear-gradient-4"/><linearGradient id="linear-gradient-130" x1="171.5" y1="222.28" x2="171.5" y2="215.12" xlink:href="#linear-gradient-4"/><linearGradient id="linear-gradient-131" x1="170.96" y1="219" x2="170.96" y2="215.12" xlink:href="#linear-gradient-4"/><linearGradient id="linear-gradient-132" x1="195.16" y1="96.02" x2="195.16" y2="134.27" xlink:href="#linear-gradient-2"/><linearGradient id="linear-gradient-133" x1="189.77" y1="129.76" x2="189.77" y2="92.65" xlink:href="#linear-gradient-4"/><linearGradient id="linear-gradient-134" x1="225.74" y1="92.65" x2="225.74" y2="100.52" xlink:href="#linear-gradient"/><linearGradient id="linear-gradient-135" x1="42.67" y1="44.83" x2="42.67" y2="7.72" xlink:href="#linear-gradient-4"/><linearGradient id="linear-gradient-136" x1="48.06" y1="11.09" x2="48.06" y2="49.33" xlink:href="#linear-gradient-2"/><linearGradient id="linear-gradient-137" x1="78.63" y1="7.72" x2="78.63" y2="15.59" xlink:href="#linear-gradient"/><linearGradient id="linear-gradient-138" x1="59.01" y1="54.26" x2="59.01" y2="17.16" xlink:href="#linear-gradient-4"/><linearGradient id="linear-gradient-139" x1="64.4" y1="20.52" x2="64.4" y2="58.77" xlink:href="#linear-gradient-2"/><linearGradient id="linear-gradient-140" x1="94.98" y1="17.16" x2="94.98" y2="25.03" xlink:href="#linear-gradient"/><linearGradient id="linear-gradient-141" x1="75.36" y1="63.7" x2="75.36" y2="26.6" xlink:href="#linear-gradient-4"/><linearGradient id="linear-gradient-142" x1="80.75" y1="29.96" x2="80.75" y2="68.21" xlink:href="#linear-gradient-2"/><linearGradient id="linear-gradient-143" x1="111.32" y1="26.6" x2="111.32" y2="34.47" xlink:href="#linear-gradient"/><linearGradient id="linear-gradient-144" x1="91.7" y1="73.14" x2="91.7" y2="36.03" xlink:href="#linear-gradient-4"/><linearGradient id="linear-gradient-145" x1="97.09" y1="39.4" x2="97.09" y2="77.64" xlink:href="#linear-gradient-2"/><linearGradient id="linear-gradient-146" x1="127.67" y1="36.03" x2="127.67" y2="43.9" xlink:href="#linear-gradient"/><linearGradient id="linear-gradient-147" x1="108.05" y1="82.57" x2="108.05" y2="45.47" xlink:href="#linear-gradient-4"/><linearGradient id="linear-gradient-148" x1="113.44" y1="48.83" x2="113.44" y2="87.08" xlink:href="#linear-gradient-2"/><linearGradient id="linear-gradient-149" x1="144.01" y1="45.47" x2="144.01" y2="53.34" xlink:href="#linear-gradient"/><linearGradient id="linear-gradient-150" x1="124.39" y1="92.01" x2="124.39" y2="54.91" xlink:href="#linear-gradient-4"/><linearGradient id="linear-gradient-151" x1="129.78" y1="58.27" x2="129.78" y2="96.52" xlink:href="#linear-gradient-2"/><linearGradient id="linear-gradient-152" x1="160.36" y1="54.91" x2="160.36" y2="62.78" xlink:href="#linear-gradient"/><linearGradient id="linear-gradient-153" x1="140.73" y1="101.45" x2="140.73" y2="64.34" xlink:href="#linear-gradient-4"/><linearGradient id="linear-gradient-154" x1="146.13" y1="67.71" x2="146.13" y2="105.95" xlink:href="#linear-gradient-2"/><linearGradient id="linear-gradient-155" x1="176.7" y1="64.34" x2="176.7" y2="72.21" xlink:href="#linear-gradient"/><linearGradient id="linear-gradient-156" x1="157.08" y1="110.89" x2="157.08" y2="73.78" xlink:href="#linear-gradient-4"/><linearGradient id="linear-gradient-157" x1="162.47" y1="77.14" x2="162.47" y2="115.39" xlink:href="#linear-gradient-2"/><linearGradient id="linear-gradient-158" x1="193.05" y1="73.78" x2="193.05" y2="81.65" xlink:href="#linear-gradient"/><linearGradient id="linear-gradient-159" x1="173.42" y1="120.32" x2="173.42" y2="83.22" xlink:href="#linear-gradient-4"/><linearGradient id="linear-gradient-160" x1="178.82" y1="86.58" x2="178.82" y2="124.83" xlink:href="#linear-gradient-2"/><linearGradient id="linear-gradient-161" x1="209.39" y1="83.22" x2="209.39" y2="91.09" xlink:href="#linear-gradient"/><linearGradient id="linear-gradient-162" x1="79.29" y1="-2.19" x2="163.79" y2="144.18" xlink:href="#linear-gradient-2"/></defs><title>i2</title><g id="Слой_2" data-name="Слой 2"><g id="Layer_1" data-name="Layer 1"><polygon class="cls-1" points="197.91 133.47 197.91 132.42 199 133.04 199 134.1 197.91 133.47"/><polygon class="cls-2" points="197.91 132.42 197.91 133.47 199 134.1 200.27 133.36 200.27 204.63 185.05 213.42 185.05 211.79 190.37 208.71 190.37 207.3 189.29 206.68 185.05 209.13 185.05 142.15 186.26 141.45 186.26 140.39 185.18 139.77 197.91 132.42"/><polygon class="cls-3" points="185.05 209.13 189.29 206.68 190.37 207.3 185.05 210.38 185.05 209.13"/><polygon class="cls-4" points="200.27 204.63 200.27 133.36 201.36 132.74 201.36 205.25 200.27 204.63"/><polygon class="cls-5" points="185.05 210.38 190.37 207.3 190.37 208.71 185.05 211.79 185.05 210.38"/><polygon class="cls-6" points="185.05 210.38 185.05 211.79 185.05 213.42 185.05 214.67 183.59 215.51 183.59 143 185.05 142.15 185.05 209.13 185.05 210.38"/><polygon class="cls-7" points="219.13 195 218.04 194.37 218.04 123.1 219.13 122.48 219.13 195"/><polygon class="cls-2" points="218.04 123.1 218.04 194.37 212.22 197.73 212.22 124.16 215.68 122.16 215.68 123.21 216.77 123.84 218.04 123.1"/><polygon class="cls-8" points="215.68 123.21 215.68 122.16 216.77 122.78 216.77 123.84 215.68 123.21"/><polygon class="cls-9" points="220.59 194.15 219.13 195 219.13 122.48 220.59 121.64 220.59 188.61 220.59 189.86 220.59 191.27 220.59 192.9 220.59 194.15"/><polygon class="cls-10" points="220.59 191.27 220.59 189.86 225.91 186.79 225.91 188.2 220.59 191.27"/><polygon class="cls-11" points="225.91 186.79 220.59 189.86 220.59 188.61 224.82 186.16 225.91 186.79"/><polygon class="cls-2" points="224.82 186.16 220.59 188.61 220.59 121.64 221.8 120.93 221.8 119.88 220.72 119.25 233.45 111.9 233.45 112.96 234.53 113.58 235.81 112.84 235.81 184.11 220.59 192.9 220.59 191.27 225.91 188.2 225.91 186.79 224.82 186.16"/><polygon class="cls-12" points="235.81 184.11 235.81 112.84 236.9 112.22 236.9 184.74 235.81 184.11"/><polygon class="cls-13" points="233.45 112.96 233.45 111.9 234.53 112.53 234.53 113.58 233.45 112.96"/><polygon class="cls-2" points="204.03 130.13 202.95 129.51 209.28 125.86 209.28 196.03 209.28 199.2 209.28 199.43 202.82 203.16 202.82 201.53 208.14 198.45 208.14 197.04 207.06 196.42 202.82 198.87 202.82 131.89 204.03 131.19 204.03 130.13"/><polygon class="cls-14" points="202.82 198.87 207.06 196.42 208.14 197.04 202.82 200.12 202.82 198.87"/><polygon class="cls-15" points="202.82 130.84 201.36 131.68 199 133.04 199 134.1 200.27 133.36 201.36 132.74 202.82 131.89 204.03 131.19 204.03 130.13 202.82 130.84"/><polygon class="cls-16" points="202.82 200.12 208.14 197.04 208.14 198.45 202.82 201.53 202.82 200.12"/><polygon class="cls-17" points="202.82 200.12 202.82 201.53 202.82 203.16 202.82 204.41 201.36 205.25 201.36 132.74 202.82 131.89 202.82 198.87 202.82 200.12"/><polygon class="cls-18" points="183.59 215.51 182.5 214.89 182.5 143.62 183.59 143 183.59 215.51"/><polygon class="cls-19" points="209.28 125.86 209.03 125.72 206.09 124.02 175.72 141.55 178.91 143.39 180.14 142.68 181.23 143.3 183.59 141.94 185.05 141.1 186.26 140.39 185.18 139.77 197.91 132.42 199 133.04 201.36 131.68 202.82 130.84 204.03 130.13 202.95 129.51 209.28 125.86"/><polygon class="cls-20" points="180.14 142.68 181.23 143.3 181.23 144.36 180.14 143.73 180.14 142.68"/><polygon class="cls-2" points="180.14 142.68 180.14 143.73 181.23 144.36 182.5 143.62 182.5 214.89 178.91 216.96 178.91 143.39 180.14 142.68"/><polygon class="cls-21" points="185.05 141.1 183.59 141.94 181.23 143.3 181.23 144.36 182.5 143.62 183.59 143 185.05 142.15 186.26 141.45 186.26 140.39 185.05 141.1"/><polygon class="cls-22" points="238.36 183.9 236.9 184.74 236.9 112.22 238.36 111.38 238.36 178.35 238.36 179.6 238.36 181.01 238.36 182.64 238.36 183.9"/><polygon class="cls-23" points="238.36 181.01 238.36 179.6 243.68 176.53 243.68 177.94 242.39 178.68 238.36 181.01"/><polygon class="cls-24" points="243.68 176.53 238.36 179.6 238.36 178.35 242.39 176.02 242.59 175.9 243.13 176.21 243.68 176.53"/><polygon class="cls-2" points="242.39 176.02 238.36 178.35 238.36 111.38 239.57 110.67 239.57 109.62 238.49 108.99 242.39 106.73 242.39 176.02"/><polygon class="cls-25" points="243.68 177.94 243.68 176.53 243.13 176.21 245.92 174.6 245.92 178.04 242.39 180.08 242.39 178.68 243.68 177.94"/><polygon class="cls-26" points="0 124.86 0 121.42 5.56 124.64 5.56 128.08 0 124.86"/><polygon class="cls-27" points="5.56 124.64 0 121.42 5.56 124.63 5.56 124.64"/><polygon class="cls-28" points="5.56 128.08 5.56 124.64 5.56 127.92 5.7 128 5.56 128.08"/><polygon class="cls-29" points="5.56 127.92 5.56 124.64 16.34 130.85 21.91 134.07 32.69 140.29 38.25 143.5 49.03 149.73 54.6 152.94 65.38 159.16 70.94 162.38 81.72 168.6 87.29 171.81 98.07 178.04 103.63 181.25 114.41 187.47 119.97 190.69 130.76 196.91 136.32 200.12 147.1 206.35 152.66 209.56 163.45 215.78 169.01 219 163.45 215.79 163.45 219.07 152.8 212.93 152.67 212.85 152.67 209.56 147.1 206.35 147.1 209.63 136.46 203.49 136.32 203.41 136.32 200.13 130.76 196.92 130.76 200.2 120.11 194.05 119.98 193.97 119.98 190.69 114.42 187.48 114.41 190.76 103.77 184.62 103.63 184.54 103.63 181.25 98.07 178.04 98.07 181.32 87.42 175.18 87.29 175.1 87.29 171.82 81.72 168.61 81.72 171.89 71.08 165.74 70.94 165.66 70.94 162.38 65.38 159.17 65.38 162.45 54.73 156.31 54.6 156.23 54.6 152.94 49.03 149.73 49.03 153.01 38.39 146.87 38.25 146.79 38.25 143.51 32.69 140.3 32.69 143.58 22.05 137.43 21.91 137.35 21.91 134.07 16.35 130.86 16.34 134.14 5.7 128 5.56 127.92"/><polygon class="cls-30" points="21.91 134.07 21.91 137.35 22.05 137.43 21.91 137.51 21.91 134.07 21.91 134.07"/><polygon class="cls-31" points="16.35 130.86 21.91 134.07 16.34 130.86 16.35 130.86"/><polygon class="cls-32" points="87.29 171.82 87.29 175.1 87.42 175.18 87.29 175.26 87.29 171.82 87.29 171.82"/><polygon class="cls-33" points="65.38 159.17 70.94 162.38 65.38 159.17 65.38 159.17"/><polygon class="cls-34" points="38.25 143.51 38.25 146.79 38.39 146.87 38.25 146.95 38.25 143.51 38.25 143.51"/><polygon class="cls-35" points="32.69 140.3 38.25 143.51 32.69 140.3 32.69 140.3"/><polygon class="cls-36" points="70.94 162.38 70.94 165.66 71.08 165.74 70.94 165.82 70.94 162.38 70.94 162.38"/><polygon class="cls-37" points="49.03 149.73 54.6 152.94 49.03 149.74 49.03 149.73"/><polygon class="cls-38" points="81.72 168.61 87.29 171.82 81.72 168.61 81.72 168.61"/><polygon class="cls-39" points="54.6 152.94 54.6 156.23 54.73 156.31 54.6 156.39 54.6 152.94 54.6 152.94"/><polygon class="cls-40" points="130.76 196.92 136.32 200.13 130.76 196.92 130.76 196.92"/><polygon class="cls-41" points="103.63 181.25 103.63 184.54 103.77 184.62 103.63 184.7 103.63 181.25 103.63 181.25"/><polygon class="cls-42" points="98.07 178.04 103.63 181.25 98.07 178.04 98.07 178.04"/><polygon class="cls-43" points="136.32 200.13 136.32 203.41 136.46 203.49 136.32 203.57 136.32 200.13 136.32 200.13"/><polygon class="cls-44" points="114.42 187.48 119.98 190.69 114.41 187.48 114.42 187.48"/><polygon class="cls-45" points="119.98 190.69 119.98 193.97 120.11 194.05 119.97 194.13 119.97 190.69 119.98 190.69"/><polygon class="cls-46" points="163.45 215.79 169.01 219 163.45 215.79 163.45 215.79"/><polygon class="cls-47" points="152.67 209.56 152.67 212.85 152.8 212.93 152.66 213.01 152.66 209.57 152.67 209.56"/><polygon class="cls-48" points="147.1 206.35 152.67 209.56 147.1 206.36 147.1 206.35"/><polygon class="cls-49" points="21.91 137.51 16.34 134.3 16.34 134.14 16.34 130.86 21.91 134.07 21.91 137.51"/><polygon class="cls-50" points="32.69 140.3 38.25 143.51 38.25 146.95 32.69 143.74 32.69 143.58 32.69 140.3"/><polygon class="cls-51" points="87.29 171.82 87.29 175.26 81.72 172.05 81.72 171.89 81.72 168.61 87.29 171.82"/><polygon class="cls-52" points="70.94 165.82 65.38 162.61 65.38 162.45 65.38 159.17 70.94 162.38 70.94 165.82"/><polygon class="cls-53" points="54.6 156.39 49.03 153.18 49.03 153.01 49.03 149.74 54.6 152.94 54.6 156.39"/><polygon class="cls-54" points="98.07 178.04 103.63 181.25 103.63 184.7 98.07 181.49 98.07 181.32 98.07 178.04"/><polygon class="cls-55" points="136.32 203.57 130.76 200.36 130.76 200.2 130.76 196.92 136.32 200.13 136.32 203.57"/><polygon class="cls-56" points="119.97 194.13 114.41 190.92 114.41 190.76 114.41 187.48 119.97 190.69 119.97 194.13"/><polygon class="cls-57" points="147.1 206.36 152.66 209.57 152.66 213.01 147.1 209.8 147.1 209.63 147.1 206.36"/><polygon class="cls-58" points="169.01 222.44 163.45 219.23 163.45 219.07 163.45 215.79 169.01 219 169.01 222.44"/><polygon class="cls-59" points="245.92 174.6 243.13 176.21 245.91 174.6 245.92 174.6"/><polygon class="cls-60" points="178.71 216.84 169.01 222.44 169.01 219 169.01 222.28 176.81 217.78 176.81 215.75 178.71 216.84"/><polygon class="cls-61" points="212.01 197.61 209.28 199.2 209.28 196.03 212.01 197.61"/><polygon class="cls-62" points="220.59 120.58 219.13 121.42 216.77 122.78 216.77 123.84 218.04 123.1 219.13 122.48 220.59 121.64 221.8 120.93 221.8 119.88 220.59 120.58"/><polygon class="cls-19" points="242.39 106.73 239.21 104.89 209.03 122.32 212.22 124.16 215.68 122.16 216.77 122.78 219.13 121.42 220.59 120.58 221.8 119.88 220.72 119.25 233.45 111.9 234.53 112.53 236.9 111.16 238.36 110.32 239.57 109.62 238.49 108.99 242.39 106.73"/><polygon class="cls-63" points="238.36 110.32 236.9 111.16 234.53 112.53 234.53 113.58 235.81 112.84 236.9 112.22 238.36 111.38 239.57 110.67 239.57 109.62 238.36 110.32"/><polygon class="cls-64" points="0 121.42 0 47.84 5.56 51.05 5.56 124.63 0 121.42 0 121.42"/><polygon class="cls-65" points="38.25 143.5 32.69 140.29 32.69 132.54 32.69 66.72 38.25 69.93 38.25 143.5"/><polygon class="cls-66" points="21.91 134.07 16.34 130.86 16.34 123.1 16.34 57.28 21.91 60.49 21.91 134.07"/><polygon class="cls-67" points="21.91 134.07 21.91 60.49 22.04 60.41 28.62 64.21 28.62 130.19 21.91 134.07 21.91 134.07"/><polygon class="cls-68" points="28.62 130.19 28.62 64.21 32.69 66.56 32.69 66.72 32.69 132.54 28.62 130.19"/><polygon class="cls-69" points="21.91 134.07 28.62 130.19 32.69 132.54 32.69 140.29 21.91 134.07"/><polygon class="cls-70" points="22.04 60.41 21.91 60.49 21.91 57.05 21.91 60.34 22.04 60.41"/><polygon class="cls-71" points="5.56 124.63 5.56 51.05 5.7 50.98 12.28 54.78 12.28 120.75 5.56 124.63 5.56 124.63"/><polygon class="cls-72" points="12.28 120.75 12.28 54.78 16.34 57.13 16.34 57.28 16.34 123.1 12.28 120.75"/><polygon class="cls-73" points="12.28 120.75 16.34 123.1 16.34 130.85 5.56 124.63 12.28 120.75"/><polygon class="cls-74" points="5.7 50.98 5.56 51.05 5.56 47.61 5.56 50.9 5.7 50.98"/><polygon class="cls-75" points="38.25 143.5 38.25 69.93 38.38 69.85 44.97 73.65 44.97 139.63 38.25 143.5 38.25 143.5"/><polygon class="cls-76" points="44.97 139.63 44.97 73.65 49.03 76 49.03 76.15 49.03 141.98 44.97 139.63"/><polygon class="cls-77" points="38.25 143.5 44.97 139.63 49.03 141.98 49.03 149.73 38.25 143.5"/><polygon class="cls-78" points="38.38 69.85 38.25 69.93 38.25 66.49 38.25 69.77 38.38 69.85"/><polygon class="cls-79" points="54.6 152.94 49.03 149.73 49.03 141.98 49.03 76.15 54.6 79.36 54.6 152.94"/><polygon class="cls-80" points="70.94 162.38 65.38 159.17 65.38 151.41 65.38 85.59 70.94 88.8 70.94 162.38"/><polygon class="cls-81" points="70.94 162.38 70.94 88.8 71.07 88.72 77.66 92.52 77.66 158.5 70.94 162.38 70.94 162.38"/><polygon class="cls-82" points="77.66 158.5 77.66 92.52 81.72 94.87 81.72 95.03 81.72 160.85 77.66 158.5"/><polygon class="cls-83" points="70.94 162.38 77.66 158.5 81.72 160.85 81.72 168.6 70.94 162.38"/><polygon class="cls-84" points="71.07 88.72 70.94 88.8 70.94 85.36 70.94 88.65 71.07 88.72"/><polygon class="cls-85" points="87.29 171.81 81.72 168.6 81.72 160.85 81.72 95.03 87.29 98.24 87.29 171.81"/><polygon class="cls-86" points="87.29 171.81 87.29 98.24 87.42 98.16 94 101.96 94 167.94 87.29 171.81 87.29 171.81"/><polygon class="cls-87" points="94 167.94 94 101.96 98.07 104.31 98.07 104.46 98.07 170.29 94 167.94"/><polygon class="cls-88" points="87.29 171.81 94 167.94 98.07 170.29 98.07 178.04 87.29 171.81"/><polygon class="cls-89" points="87.42 98.16 87.29 98.24 87.29 94.8 87.29 98.08 87.42 98.16"/><polygon class="cls-90" points="54.6 152.94 54.6 79.36 54.73 79.29 61.31 83.09 61.31 149.06 54.6 152.94 54.6 152.94"/><polygon class="cls-91" points="61.31 149.06 61.31 83.09 65.38 85.44 65.38 85.59 65.38 151.41 61.31 149.06"/><polygon class="cls-92" points="54.6 152.94 61.31 149.06 65.38 151.41 65.38 159.16 54.6 152.94"/><polygon class="cls-93" points="54.73 79.29 54.6 79.36 54.6 75.92 54.6 79.21 54.73 79.29"/><polygon class="cls-94" points="103.63 181.25 98.07 178.04 98.07 170.29 98.07 104.46 103.63 107.67 103.63 181.25"/><polygon class="cls-95" points="136.32 200.12 130.76 196.91 130.76 189.16 130.76 123.34 136.32 126.55 136.32 200.12"/><polygon class="cls-96" points="136.32 200.12 136.32 126.55 136.46 126.47 143.03 130.27 143.03 196.25 136.32 200.12 136.32 200.12"/><polygon class="cls-97" points="143.03 196.25 143.03 130.27 147.1 132.62 147.1 132.78 147.1 198.6 143.03 196.25"/><polygon class="cls-98" points="136.32 200.12 143.03 196.25 147.1 198.6 147.1 206.35 136.32 200.12"/><polygon class="cls-99" points="136.46 126.47 136.32 126.55 136.32 123.11 136.32 126.39 136.46 126.47"/><polygon class="cls-100" points="103.63 181.25 103.63 107.67 103.77 107.6 110.34 111.4 110.34 177.37 103.63 181.25 103.63 181.25"/><polygon class="cls-101" points="110.34 177.37 110.34 111.4 114.41 113.75 114.41 113.9 114.41 179.72 110.34 177.37"/><polygon class="cls-102" points="103.63 181.25 110.34 177.37 114.41 179.72 114.41 187.47 103.63 181.25"/><polygon class="cls-103" points="103.77 107.6 103.63 107.67 103.63 104.23 103.63 107.52 103.77 107.6"/><polygon class="cls-104" points="119.97 190.69 114.41 187.48 114.41 179.72 114.41 113.9 119.97 117.11 119.97 190.69"/><polygon class="cls-105" points="152.66 209.56 147.1 206.35 147.1 198.6 147.1 132.78 152.66 135.99 152.66 209.56"/><polygon class="cls-106" points="119.97 190.69 119.97 117.11 120.11 117.03 126.69 120.83 126.69 186.81 119.98 190.69 119.97 190.69"/><polygon class="cls-107" points="126.69 186.81 126.69 120.83 130.76 123.18 130.76 123.34 130.76 189.16 126.69 186.81"/><polygon class="cls-108" points="119.98 190.69 126.69 186.81 130.76 189.16 130.76 196.91 119.98 190.69"/><polygon class="cls-109" points="120.11 117.03 119.97 117.11 119.97 113.67 119.98 116.96 120.11 117.03"/><polygon class="cls-110" points="169.01 219 163.45 215.79 163.45 208.03 163.45 142.21 169.01 145.42 169.01 219"/><polygon class="cls-111" points="169.01 219 169.01 145.42 175.72 141.55 175.72 215.12 169.01 219 169.01 219"/><polygon class="cls-112" points="175.72 215.12 175.72 141.55 178.91 143.39 178.91 216.96 178.71 216.84 176.81 215.75 175.73 215.12 175.72 215.12"/><polygon class="cls-113" points="152.66 209.56 152.66 135.99 152.8 135.91 159.38 139.71 159.38 205.69 152.67 209.56 152.66 209.56"/><polygon class="cls-114" points="159.38 205.69 159.38 139.71 163.45 142.06 163.45 142.21 163.45 208.03 159.38 205.69"/><polygon class="cls-115" points="152.67 209.56 159.38 205.69 163.45 208.03 163.45 215.78 152.67 209.56"/><polygon class="cls-116" points="152.8 135.91 152.66 135.99 152.66 132.54 152.67 135.83 152.8 135.91"/><polygon class="cls-117" points="0 44.4 0 47.84 169.01 145.42 169.01 141.98 0 44.4"/><polygon class="cls-118" points="239.21 104.89 245.92 101.02 245.92 174.59 243.13 176.21 242.59 175.9 242.39 176.02 242.39 106.73 239.21 104.89"/><polygon class="cls-119" points="38.25 66.49 32.69 63.28 38.25 66.49 38.25 66.49"/><polygon class="cls-120" points="21.91 57.05 16.34 53.84 21.91 57.05 21.91 57.05"/><polygon class="cls-121" points="54.6 75.92 49.03 72.71 54.6 75.92 54.6 75.92"/><polygon class="cls-122" points="70.94 85.36 65.38 82.15 70.94 85.36 70.94 85.36"/><polygon class="cls-123" points="87.29 94.8 81.72 91.59 87.29 94.8 87.29 94.8"/><polygon class="cls-124" points="103.63 104.23 98.07 101.02 103.63 104.23 103.63 104.23"/><polygon class="cls-125" points="136.32 123.11 130.76 119.9 136.32 123.11 136.32 123.11"/><polygon class="cls-126" points="119.97 113.67 114.41 110.46 119.98 113.67 119.97 113.67"/><polygon class="cls-127" points="152.66 132.54 147.1 129.33 152.67 132.54 152.66 132.54"/><polygon class="cls-128" points="169.01 141.98 163.45 138.77 169.01 141.98 169.01 141.98"/><polygon class="cls-2" points="242.39 180.31 238.36 182.64 238.36 181.01 242.39 178.68 242.39 180.08 242.39 180.31"/><polygon class="cls-129" points="212.22 124.16 212.22 197.73 212.01 197.61 209.28 196.03 209.28 125.86 209.03 125.72 209.03 122.32 212.22 124.16"/><polygon class="cls-130" points="209.03 122.32 209.03 125.72 206.09 124.02 209.03 122.32"/><polygon class="cls-131" points="245.91 97.58 237.33 102.54 177.85 136.88 169.01 141.98 169.01 145.27 169.01 141.98 169.01 145.42 175.72 141.55 206.09 124.02 209.03 122.32 239.21 104.89 245.92 101.02 245.91 97.58"/><polygon class="cls-132" points="176.81 217.78 169.01 222.28 169.01 219 175.73 215.12 176.81 215.75 176.81 217.78"/><polygon class="cls-133" points="175.73 215.12 169.01 219 175.72 215.12 175.73 215.12"/><polygon class="cls-134" points="171.25 134.26 163.45 129.76 221.89 96.02 229.7 100.52 171.25 134.26"/><polygon class="cls-135" points="221.89 96.02 163.45 129.76 160.47 128.04 221.76 92.66 221.76 95.94 221.89 96.02"/><polygon class="cls-136" points="221.76 95.94 221.76 92.66 232.54 98.88 229.7 100.52 221.89 96.02 221.76 95.94"/><polygon class="cls-137" points="13.37 43.11 74.65 7.72 74.65 11.01 74.79 11.09 16.35 44.83 13.37 43.11"/><polygon class="cls-138" points="16.35 44.83 74.79 11.09 82.59 15.59 24.15 49.33 16.35 44.83"/><polygon class="cls-139" points="74.65 11.01 74.65 7.72 85.44 13.95 82.59 15.59 74.79 11.09 74.65 11.01"/><polygon class="cls-140" points="29.71 52.55 91 17.16 91 20.45 91.13 20.52 32.69 54.27 29.71 52.55"/><polygon class="cls-141" points="32.69 54.27 91.13 20.52 98.94 25.03 40.49 58.77 32.69 54.27"/><polygon class="cls-142" points="91 20.45 91 17.16 101.78 23.39 98.94 25.03 91.13 20.52 91 20.45"/><polygon class="cls-143" points="46.06 61.98 107.34 26.6 107.34 29.88 107.48 29.96 49.03 63.7 46.06 61.98"/><polygon class="cls-144" points="49.03 63.7 107.48 29.96 115.28 34.47 56.84 68.21 49.03 63.7"/><polygon class="cls-145" points="107.34 29.88 107.34 26.6 118.13 32.82 115.28 34.47 107.48 29.96 107.34 29.88"/><polygon class="cls-146" points="62.4 71.42 123.69 36.03 123.69 39.32 123.82 39.4 65.38 73.14 62.4 71.42"/><polygon class="cls-147" points="65.38 73.14 123.82 39.4 131.63 43.9 73.18 77.64 65.38 73.14"/><polygon class="cls-148" points="123.69 39.32 123.69 36.03 134.47 42.26 131.63 43.9 123.82 39.4 123.69 39.32"/><polygon class="cls-149" points="78.75 80.86 140.03 45.47 140.03 48.76 140.17 48.83 81.72 82.58 78.75 80.86"/><polygon class="cls-150" points="81.72 82.58 140.17 48.83 147.97 53.34 89.53 87.08 81.72 82.58"/><polygon class="cls-151" points="140.03 48.76 140.03 45.47 150.82 51.7 147.97 53.34 140.17 48.83 140.03 48.76"/><polygon class="cls-152" points="95.09 90.29 156.38 54.91 156.38 58.19 156.51 58.27 98.07 92.01 95.09 90.29"/><polygon class="cls-153" points="98.07 92.01 156.51 58.27 164.32 62.78 105.88 96.52 98.07 92.01"/><polygon class="cls-154" points="156.38 58.19 156.38 54.91 167.16 61.13 164.32 62.78 156.51 58.27 156.38 58.19"/><polygon class="cls-155" points="111.44 99.73 172.72 64.34 172.72 67.63 172.86 67.71 114.42 101.45 111.44 99.73"/><polygon class="cls-156" points="114.42 101.45 172.86 67.71 180.66 72.21 122.22 105.95 114.42 101.45"/><polygon class="cls-157" points="172.72 67.63 172.72 64.34 183.51 70.57 180.66 72.21 172.86 67.71 172.72 67.63"/><polygon class="cls-158" points="127.78 109.17 189.07 73.78 189.07 77.07 189.2 77.14 130.76 110.89 127.78 109.17"/><polygon class="cls-159" points="130.76 110.89 189.2 77.14 197.01 81.65 138.56 115.39 130.76 110.89"/><polygon class="cls-160" points="189.07 77.07 189.07 73.78 199.85 80.01 197.01 81.65 189.2 77.14 189.07 77.07"/><polygon class="cls-161" points="144.13 118.6 205.41 83.22 205.41 86.5 205.55 86.58 147.1 120.32 144.13 118.6"/><polygon class="cls-162" points="147.1 120.32 205.55 86.58 213.35 91.09 154.91 124.83 147.1 120.32"/><polygon class="cls-163" points="205.41 86.5 205.41 83.22 216.2 89.44 213.35 91.09 205.55 86.58 205.41 86.5"/><path class="cls-164" d="M240.35,94.37l-10.78-6.23L224,84.94l-10.78-6.23-5.56-3.21-10.78-6.23-5.56-3.21-10.78-6.23L175,56.63,164.18,50.4l-5.56-3.21L147.84,41l-5.56-3.21-10.78-6.23-5.56-3.21-10.78-6.23-5.56-3.21L98.8,12.65,93.24,9.44,82.46,3.22S76.91,0,76.91,0L0,44.4l5.56,3.21,10.78,6.23,5.56,3.21,10.78,6.23,5.56,3.21L49,72.71l5.56,3.21,10.78,6.23,5.56,3.21,10.78,6.23,5.56,3.21L98.07,101l5.56,3.21,10.78,6.23,5.56,3.21,10.78,6.23,5.56,3.21,10.78,6.23,5.56,3.21,10.78,6.23L169,142l7.8-4.51,61.29-35.38,7.8-4.51Zm-224-49.55-3-1.72L74.65,7.72l10.78,6.23-2.85,1.64L24.15,49.33Zm16.34,9.44-3-1.72L91,17.16l10.78,6.23L98.94,25,40.49,58.77ZM49,63.7l-3-1.72L107.34,26.6l10.78,6.23-2.85,1.64L56.84,68.21Zm16.34,9.44-3-1.72L123.69,36l10.78,6.23-2.85,1.64L73.18,77.64Zm16.35,9.44-3-1.72L140,45.47l10.78,6.23L148,53.34,89.53,87.08ZM98.07,92l-3-1.72,61.29-35.39,10.78,6.23-2.85,1.64L105.87,96.52Zm16.35,9.44-3-1.72,61.29-35.39,10.78,6.23-2.85,1.64L122.22,106Zm16.34,9.44-3-1.72,61.29-35.38L199.85,80,197,81.65l-58.44,33.74Zm16.35,9.44-3-1.72,61.29-35.38,10.78,6.23-2.85,1.64-58.44,33.74Zm82.59-19.8-58.44,33.74-7.8-4.51-3-1.72,61.29-35.38,10.78,6.23Z"/></g></g></svg>