<svg xmlns="http://www.w3.org/2000/svg" viewBox="0 0 213.49 191.7"><defs><style>.cls-1{fill:#bddff4;}.cls-2{fill:#90caf4;}.cls-3{fill:#5ea6d3;}.cls-4{fill:#2c65d6;}.cls-5{fill:#2030a5;}.cls-6{fill:#3685fc;}.cls-7{fill:#f74169;}.cls-8{fill:#ca4560;}.cls-9{fill:#fe5773;}.cls-10{fill:#e2f1f7;}</style></defs><title>i3</title><g id="Слой_2" data-name="Слой 2"><g id="Layer_1" data-name="Layer 1"><polygon class="cls-1" points="72.05 94.91 69.58 96.34 143.87 139.23 143.87 118.34 85.22 84.47 72.05 92.08 72.05 94.91"/><polygon class="cls-2" points="69.58 96.34 72.05 94.91 72.05 92.08 72.05 76.87 69.58 75.44 69.58 73.71 69.52 73.75 69.52 141.15 69.58 141.12 69.58 138.94 72.05 137.52 72.05 134.68 72.05 99.94 69.58 98.52 69.58 96.34"/><polygon class="cls-3" points="69.58 96.34 69.58 98.52 72.05 99.94 102.13 117.31 143.87 141.41 143.87 139.23 69.58 96.34"/><polygon class="cls-3" points="69.58 73.71 69.58 75.44 72.05 76.87 85.22 84.47 143.87 118.34 143.87 116.6 146.29 118 146.29 117.56 67.12 71.85 67.12 72.29 69.58 73.71"/><polygon class="cls-1" points="72.05 137.52 69.58 138.94 143.87 181.84 143.87 141.41 102.13 117.31 72.05 134.68 72.05 137.52"/><polygon class="cls-3" points="69.58 138.94 69.58 141.12 143.87 184.01 143.87 181.84 69.58 138.94"/><polygon class="cls-1" points="69.58 73.71 67.12 72.29 67.06 72.33 69.52 73.75 69.58 73.71"/><polygon class="cls-3" points="146.29 118 143.87 116.6 143.87 118.34 146.29 119.73 146.29 118"/><polygon class="cls-3" points="67.06 139.74 69.52 141.15 69.52 73.75 67.06 72.33 67.06 139.74"/><path class="cls-2" d="M146.32,185.43l2.53-1.46V116.56L146.32,118Z"/><path class="cls-3" d="M146.32,185.43V118s0,1.71,0,1.71l-2.42-1.4v20.9l2.42,1.4v2.17l-2.42-1.4v40.43l2.42,1.4v2.18Z"/><path class="cls-1" d="M146.32,118l2.53-1.46s-2.57,1.44-2.57,1.44Z"/><path class="cls-2" d="M146.29,118l2.53-1.46s0,1.71,0,1.71l22.29-12.87,13-7.53,2.46-1.42L189.18,95l.06,0V92.76l-43,24.8Z"/><polygon class="cls-1" points="189.25 115.83 189.18 115.79 186.65 117.25 184.2 115.84 184.2 112.91 171.15 105.38 148.85 118.25 148.85 139.15 189.25 115.83"/><polygon class="cls-3" points="184.2 115.84 186.65 117.25 186.65 96.43 184.2 97.84 184.2 112.91 184.2 115.84"/><polygon class="cls-2" points="186.65 117.25 189.18 115.79 189.18 94.97 186.65 96.43 186.65 117.25"/><polygon class="cls-2" points="189.25 115.83 148.85 139.15 148.85 141.32 154.24 138.22 184.2 120.92 186.65 119.5 189.18 118.04 189.25 118 189.25 115.83"/><polygon class="cls-3" points="146.29 142.81 146.29 140.63 143.87 139.23 143.87 141.41 146.29 142.81"/><polygon class="cls-1" points="189.25 92.75 110.08 47.05 67.12 71.85 146.29 117.56 189.25 92.75"/><polygon class="cls-2" points="148.85 183.93 189.25 160.6 189.25 158.43 148.85 181.75 148.85 183.93"/><polygon class="cls-1" points="189.25 158.43 189.18 158.39 186.65 159.86 184.2 158.44 184.2 155.51 154.24 138.22 148.85 141.32 148.85 181.75 189.25 158.43"/><polygon class="cls-2" points="186.65 159.86 189.18 158.39 189.18 118.04 186.65 119.5 186.65 159.86"/><polygon class="cls-3" points="184.2 158.44 186.65 159.86 186.65 119.5 184.2 120.92 184.2 155.51 184.2 158.44"/><polygon class="cls-3" points="146.29 185.41 146.29 183.23 143.87 181.84 143.87 184.01 146.29 185.41"/><polygon class="cls-4" points="197.84 184.19 201.87 181.86 204.07 180.59 204.75 180.2 208.78 177.88 211.07 176.55 211.75 176.16 213.49 175.16 213.49 172.52 213.49 148.28 184.84 164.82 184.84 191.7 187.96 189.89 190.14 188.64 190.82 188.25 194.84 185.92 197.17 184.58 197.84 184.19"/><polygon class="cls-5" points="159.81 177.25 184.84 191.7 184.84 164.82 159.81 150.38 159.81 176.12 159.81 177.25"/><polygon class="cls-6" points="213.49 148.28 188.46 133.83 159.81 150.38 184.84 164.82 213.49 148.28"/><polygon class="cls-7" points="167.13 97.2 172.71 93.98 175.76 92.22 176.69 91.67 182.27 88.45 185.45 86.62 186.38 86.08 188.8 84.68 188.8 81.04 188.8 47.47 149.12 70.38 149.12 107.59 153.45 105.09 156.46 103.35 157.4 102.81 162.98 99.59 166.19 97.74 167.13 97.2"/><polygon class="cls-8" points="114.47 87.58 149.12 107.59 149.12 70.38 114.47 50.37 114.47 86.02 114.47 87.58"/><polygon class="cls-9" points="188.8 47.47 154.14 27.46 114.47 50.37 149.12 70.38 188.8 47.47"/><polygon class="cls-2" points="52.66 169.91 58.24 166.69 61.29 164.93 62.23 164.38 67.81 161.17 70.98 159.33 71.92 158.79 74.33 157.4 74.33 153.75 74.33 120.19 34.66 143.09 34.66 180.3 38.98 177.81 42 176.07 42.93 175.53 48.51 172.31 51.73 170.45 52.66 169.91"/><polygon class="cls-1" points="0 160.29 34.66 180.3 34.66 143.09 0 123.08 0 158.73 0 160.29"/><polygon class="cls-10" points="74.33 120.19 39.68 100.18 0 123.08 34.66 143.09 74.33 120.19"/><polygon class="cls-4" points="167.89 47.8 171.72 45.59 173.81 44.39 174.45 44.01 178.27 41.81 180.45 40.55 181.09 40.18 182.75 39.22 182.75 36.72 182.75 13.72 155.55 29.42 155.55 54.93 158.52 53.21 160.58 52.02 161.23 51.65 165.05 49.45 167.25 48.17 167.89 47.8"/><polygon class="cls-5" points="131.79 41.21 155.55 54.93 155.55 29.42 131.79 15.7 131.79 40.14 131.79 41.21"/><polygon class="cls-6" points="182.75 13.72 158.99 0 131.79 15.7 155.55 29.42 182.75 13.72"/></g></g></svg>