<svg xmlns="http://www.w3.org/2000/svg" viewBox="0 0 43.16 43.16"><title>i13</title><g id="Слой_2" data-name="Слой 2"><g id="_1" data-name=" 1"><path d="M42.58,43.16H.58A.58.58,0,0,1,0,42.58V.58A.58.58,0,0,1,.58,0h42a.58.58,0,0,1,.58.58v42A.58.58,0,0,1,42.58,43.16ZM1.16,42H42V1.16H1.16Z"/><path d="M15.84,36.26H9.63A.58.58,0,0,1,9,35.68V18.57H5.89a.58.58,0,0,1-.45-.95L12.28,9.2a.6.6,0,0,1,.9,0L20,17.62a.58.58,0,0,1-.45.95H16.42V35.68A.58.58,0,0,1,15.84,36.26ZM10.21,35.1h5V18a.58.58,0,0,1,.58-.58h2.52l-5.63-6.92L7.11,17.41H9.63a.58.58,0,0,1,.58.58Z"/><path d="M33.53,36.26H27.32a.58.58,0,0,1-.58-.58V18.57H23.58a.58.58,0,0,1-.45-.95L30,9.2a.58.58,0,0,1,.9,0l6.85,8.42a.58.58,0,0,1-.45.95H34.11V35.68A.58.58,0,0,1,33.53,36.26ZM27.9,35.1h5V18a.58.58,0,0,1,.58-.58h2.52l-5.62-6.92L24.8,17.41h2.52a.58.58,0,0,1,.58.58Z"/><path d="M37.65,39.26H5.51a.58.58,0,0,1,0-1.16H37.65a.58.58,0,0,1,0,1.16Z"/><path d="M37.65,36.26H5.51a.58.58,0,0,1,0-1.16H37.65a.58.58,0,0,1,0,1.16Z"/><path d="M28,7.34H15.17a.58.58,0,0,1-.58-.58V.58A.58.58,0,0,1,15.17,0H28a.58.58,0,0,1,.58.58V6.76A.58.58,0,0,1,28,7.34ZM15.75,6.18H27.41v-5H15.75Z"/><path d="M33.08,4.25H31.33a.58.58,0,0,1,0-1.16h1.74a.58.58,0,0,1,0,1.16Z"/><path d="M39.27,4.25H37.53a.58.58,0,0,1,0-1.16h1.74a.58.58,0,0,1,0,1.16Z"/></g></g></svg>