<svg xmlns="http://www.w3.org/2000/svg" viewBox="0 0 45.76 36.51"><title>i3</title><g id="Слой_2" data-name="Слой 2"><g id="_1" data-name=" 1"><path d="M45.17,28.76H.58A.58.58,0,0,1,0,28.18V25.11a.58.58,0,0,1,.58-.58H45.17a.58.58,0,0,1,.58.58v3.07A.58.58,0,0,1,45.17,28.76Zm-44-1.16H44.59v-1.9H1.16Z"/><path d="M45.17,36.51H.58A.58.58,0,0,1,0,35.93V32.87a.58.58,0,0,1,.58-.58H45.17a.58.58,0,0,1,.58.58v3.07A.58.58,0,0,1,45.17,36.51Zm-44-1.16H44.59v-1.9H1.16Z"/><path d="M8.95,33.45H1.73a.58.58,0,0,1-.58-.58V28.18a.58.58,0,0,1,.58-.58H8.95a.58.58,0,0,1,.58.58v4.69A.58.58,0,0,1,8.95,33.45ZM2.32,32.28H8.37V28.76H2.32Z"/><path d="M26.49,33.45H19.27a.58.58,0,0,1-.58-.58V28.18a.58.58,0,0,1,.58-.58h7.21a.58.58,0,0,1,.58.58v4.69A.58.58,0,0,1,26.49,33.45Zm-6.63-1.16H25.9V28.76H19.85Z"/><path d="M44,33.45H36.81a.58.58,0,0,1-.58-.58V28.18a.58.58,0,0,1,.58-.58H44a.58.58,0,0,1,.58.58v4.69A.58.58,0,0,1,44,33.45Zm-6.63-1.16h6.05V28.76H37.39Z"/><path d="M14.13,25.69H1.61A.58.58,0,0,1,1,25.11V12.85a.58.58,0,0,1,.58-.58H14.13a.58.58,0,0,1,.58.58V25.11A.58.58,0,0,1,14.13,25.69ZM2.19,24.53H13.55V13.43H2.19Z"/><path d="M7.87,19.56a.58.58,0,0,1-.39-.15l-1.42-1.3a.58.58,0,0,1-.19-.43V12.85a.58.58,0,0,1,.58-.58H9.29a.58.58,0,0,1,.58.58v4.84a.58.58,0,0,1-.19.43l-1.42,1.3A.58.58,0,0,1,7.87,19.56ZM7,17.43l.84.77.84-.77v-4H7Z"/><path d="M6.11,22.58H3.78a.58.58,0,0,1,0-1.16H6.11a.58.58,0,0,1,0,1.16Z"/><path d="M21.47,13.43H8.95a.58.58,0,0,1-.58-.58V.58A.58.58,0,0,1,8.95,0H21.47A.58.58,0,0,1,22,.58V12.85A.58.58,0,0,1,21.47,13.43ZM9.53,12.26H20.89V1.16H9.53Z"/><path d="M15.21,7.3a.58.58,0,0,1-.39-.15l-1.42-1.3a.58.58,0,0,1-.19-.43V.58A.58.58,0,0,1,13.79,0h2.85a.58.58,0,0,1,.58.58V5.42a.58.58,0,0,1-.19.43L15.6,7.15A.58.58,0,0,1,15.21,7.3Zm-.84-2.14.84.77L16,5.16v-4H14.37Z"/><path d="M13.45,10.31H11.12a.58.58,0,0,1,0-1.16h2.33a.58.58,0,0,1,0,1.16Z"/><path d="M37,13.43H24.53a.58.58,0,0,1-.58-.58V.58A.58.58,0,0,1,24.53,0H37a.58.58,0,0,1,.58.58V12.85A.58.58,0,0,1,37,13.43ZM25.11,12.26H36.46V1.16H25.11Z"/><path d="M30.79,7.3a.58.58,0,0,1-.39-.15L29,5.85a.58.58,0,0,1-.19-.43V.58A.58.58,0,0,1,29.36,0h2.85a.58.58,0,0,1,.58.58V5.42a.58.58,0,0,1-.19.43l-1.42,1.3A.58.58,0,0,1,30.79,7.3Zm-.84-2.14.84.77.84-.77v-4H29.94Z"/><path d="M29,10.31H26.69a.58.58,0,0,1,0-1.16H29a.58.58,0,1,1,0,1.16Z"/><path d="M29.14,25.69H16.62a.58.58,0,0,1-.58-.58V12.85a.58.58,0,0,1,.58-.58H29.14a.58.58,0,0,1,.58.58V25.11A.58.58,0,0,1,29.14,25.69ZM17.2,24.53H28.56V13.43H17.2Z"/><path d="M22.88,19.56a.58.58,0,0,1-.39-.15l-1.42-1.3a.58.58,0,0,1-.19-.43V12.85a.58.58,0,0,1,.58-.58H24.3a.58.58,0,0,1,.58.58v4.84a.58.58,0,0,1-.19.43l-1.42,1.3A.58.58,0,0,1,22.88,19.56ZM22,17.43l.84.77.84-.77v-4H22Z"/><path d="M21.12,22.58H18.79a.58.58,0,0,1,0-1.16h2.33a.58.58,0,0,1,0,1.16Z"/><path d="M44.15,25.69H31.63a.58.58,0,0,1-.58-.58V12.85a.58.58,0,0,1,.58-.58H44.15a.58.58,0,0,1,.58.58V17a.58.58,0,1,1-1.16,0V13.43H32.21v11.1H43.56V22.65a.58.58,0,1,1,1.16,0v2.46A.58.58,0,0,1,44.15,25.69Z"/><path d="M44.15,23.23a.58.58,0,0,1-.58-.58V20.91a.58.58,0,0,1,1.16,0v1.74A.58.58,0,0,1,44.15,23.23Z"/><path d="M44.15,19.31a.58.58,0,0,1-.58-.58V17a.58.58,0,0,1,1.16,0v1.74A.58.58,0,0,1,44.15,19.31Z"/><path d="M37.89,19.56a.58.58,0,0,1-.39-.15l-1.42-1.3a.58.58,0,0,1-.19-.43V12.85a.58.58,0,0,1,.58-.58h2.85a.58.58,0,0,1,.58.58v4.84a.58.58,0,0,1-.19.43l-1.42,1.3A.58.58,0,0,1,37.89,19.56ZM37,17.43l.84.77.84-.77v-4H37Z"/><path d="M36.13,22.58H33.79a.58.58,0,0,1,0-1.16h2.33a.58.58,0,0,1,0,1.16Z"/></g></g></svg>