<svg xmlns="http://www.w3.org/2000/svg" viewBox="0 0 45.48 36.92"><title>i5</title><g id="Слой_2" data-name="Слой 2"><g id="_1" data-name=" 1"><path d="M13.06,19a.58.58,0,0,1-.58-.58c0-.69,0-1.38.06-2.06a.58.58,0,1,1,1.16.07c0,.66-.06,1.32-.06,2A.58.58,0,0,1,13.06,19Z"/><path d="M32.42,19a.58.58,0,0,1-.58-.58A30.22,30.22,0,0,0,31,11.31.58.58,0,1,1,32.14,11,31.38,31.38,0,0,1,33,18.46.58.58,0,0,1,32.42,19Z"/><path d="M15.47,7.27a.58.58,0,0,1-.52-.83C16.89,2.39,19.73.06,22.74.06s5.59,2.09,7.55,5.88a.58.58,0,1,1-1,.53c-1.72-3.34-4.09-5.25-6.51-5.25s-5,2.08-6.74,5.72A.58.58,0,0,1,15.47,7.27Z"/><path d="M32.58,9.3a.58.58,0,0,1-.18-1.13A20.2,20.2,0,0,0,35.52,6.9,17.23,17.23,0,0,0,11.69,5.23a.58.58,0,0,1-.75-.89A18.39,18.39,0,0,1,36.88,6.69a.58.58,0,0,1-.16.88,20.38,20.38,0,0,1-4,1.7Z"/><path d="M22.77,7.21a.58.58,0,0,1-.58-.58l0-6a.58.58,0,0,1,1.16,0l0,6A.58.58,0,0,1,22.77,7.21Z"/><path d="M8.85,19a.58.58,0,0,1-.37-.13L.21,12a.58.58,0,0,1,0-.9l8.27-6.8a.58.58,0,0,1,1,.45v3H29.77a.58.58,0,0,1,.58.58v6.49a.58.58,0,0,1-.58.58H9.43v3a.58.58,0,0,1-.58.58ZM1.5,11.59l6.77,5.57V14.84a.58.58,0,0,1,.58-.58H29.19V8.93H8.85a.58.58,0,0,1-.58-.58V6Z"/><path d="M40.56,19a.58.58,0,0,1-.58-.58v-.06A17.24,17.24,0,0,0,11,5.79a.58.58,0,1,1-.79-.85A18.4,18.4,0,0,1,41.14,18.4v.07A.59.59,0,0,1,40.56,19Z"/><path d="M40.56,19H39.19a.58.58,0,1,1,0-1.16h1.37a.58.58,0,1,1,0,1.16Z"/><path d="M34.3,19H10.86a.58.58,0,1,1,0-1.16H34.3a.58.58,0,1,1,0,1.16Z"/><path d="M6.36,19H4.92a.58.58,0,1,1,0-1.16H6.36a.58.58,0,1,1,0,1.16Z"/><path d="M4.92,19a.55.55,0,0,1-.58-.54V18.4c0-.51,0-1,.06-1.53a.58.58,0,1,1,1.16.1c0,.47-.06,1-.06,1.43a.61.61,0,0,1-.58.61Z"/><path d="M22.74,19a.58.58,0,0,1-.58-.58v-2a.58.58,0,1,1,1.16,0v2A.58.58,0,0,1,22.74,19Z"/><path d="M32.36,21.19a.59.59,0,0,1-.58-.62c0-.66.06-1.32.06-2a.58.58,0,0,1,1.16,0c0,.69,0,1.38-.06,2.06A.58.58,0,0,1,32.36,21.19Z"/><path d="M13.9,26.39a.58.58,0,0,1-.56-.44,31.39,31.39,0,0,1-.86-7.42.58.58,0,1,1,1.16,0,30.22,30.22,0,0,0,.83,7.15.58.58,0,0,1-.43.7Z"/><path d="M22.74,36.92c-2.91,0-5.59-2.09-7.55-5.88a.58.58,0,1,1,1-.53c1.72,3.34,4.09,5.25,6.51,5.25s5-2.08,6.74-5.71a.58.58,0,1,1,1,.5C28.59,34.6,25.75,36.92,22.74,36.92Z"/><path d="M22.74,36.92A18.36,18.36,0,0,1,8.6,30.29a.58.58,0,0,1,.16-.88,20.37,20.37,0,0,1,4-1.7.58.58,0,0,1,.35,1.11A20.18,20.18,0,0,0,10,30.09a17.23,17.23,0,0,0,23.83,1.66.58.58,0,0,1,.75.89A18.41,18.41,0,0,1,22.74,36.92Z"/><path d="M22.69,36.92a.58.58,0,0,1-.58-.58l0-6a.58.58,0,0,1,1.16,0l0,6A.58.58,0,0,1,22.69,36.92Z"/><path d="M36.63,32.78a.58.58,0,0,1-.58-.58v-3H15.71a.58.58,0,0,1-.58-.58V22.15a.58.58,0,0,1,.58-.58H36.05v-3a.58.58,0,0,1,1-.45l8.27,6.8a.58.58,0,0,1,0,.9L37,32.65A.58.58,0,0,1,36.63,32.78ZM16.29,28.06H36.63a.58.58,0,0,1,.58.58V31L44,25.39l-6.77-5.57v2.33a.58.58,0,0,1-.58.58H16.29Z"/><path d="M22.74,36.92a18.42,18.42,0,0,1-18.4-18.4l.58-.06h.58a17.24,17.24,0,0,0,29,12.67.58.58,0,0,1,.79.85A18.33,18.33,0,0,1,22.74,36.92Z"/><path d="M40.5,20.59a.59.59,0,0,1-.58-.63c0-.48.06-1,.06-1.43a.58.58,0,1,1,1.16,0c0,.51,0,1-.06,1.53A.58.58,0,0,1,40.5,20.59Z"/><path d="M22.74,21.15a.58.58,0,0,1-.58-.58v-2a.58.58,0,0,1,1.16,0v2A.58.58,0,0,1,22.74,21.15Z"/></g></g></svg>