<svg xmlns="http://www.w3.org/2000/svg" viewBox="0 0 389.81 285.86"><defs><style>.cls-1{fill:#2030a5;}.cls-2{fill:#15298c;}.cls-3{fill:#ef9baa;}.cls-4{fill:#fe5773;}.cls-5{fill:#3046b5;}.cls-6{fill:#90caf4;}.cls-7{fill:#e2f1f7;}.cls-8{fill:#bddff4;}.cls-9{fill:#5ea6d3;}.cls-10{fill:#2c65d6;}.cls-11{fill:#f74169;}.cls-12{fill:#ca4560;}.cls-13{fill:#3685fc;}</style></defs><title>i10</title><g id="Слой_2" data-name="Слой 2"><g id="Layer_1" data-name="Layer 1"><path class="cls-1" d="M128.07,189.43c-4.64-3.53-7.89-9.83-8.14-14.59-.34-6.47,3.5-8.89,7.8-7.15,5,2,9,7.83,10.34,12.57C140.86,190.31,134.71,194.48,128.07,189.43Zm.23-17.54c.35.14-1.92-.91-3.41.17a4.54,4.54,0,0,0-1.6,4.09c.43,8.32,9.71,14.46,11.71,8.89C136.46,181,133.19,173.86,128.3,171.89Z"/><path class="cls-2" d="M136.81,159.87c3.89-.73,7.63,2.34,10.14,5.38a23,23,0,0,1,2.23,3.38c3,5.68,2.84,9.9,1.72,12.52a5,5,0,0,1-2.06,2.34L136,190.93c2.27-1.4,2.83-3.91,2.78-6.56-.5-9.77-10-19.73-16.08-16.58C136.9,159.58,135.75,160.15,136.81,159.87Z"/><path class="cls-2" d="M125.79,171.68c-1.59,1.81-1.21,4.68-.44,7,2.11,5.68,6.49,8.23,8.89,7.61-1.1,6-7.42,1-10.4-7.14C122.37,174.37,124.18,171.9,125.79,171.68Z"/><path class="cls-3" d="M129.21,175.17c2.73-.51,5.8,5.07,3.38,6.64l-1.86,1.08c2.41-1.5-1.16-7.84-3.73-6.51C128.92,175.27,128.76,175.2,129.21,175.17Z"/><path class="cls-4" d="M130.75,178.57c-1.55-2.78-4.51-3.54-4.54-.49,0,4,5.67,7.8,5.29,2.81A6,6,0,0,0,130.75,178.57Z"/><path class="cls-5" d="M134.33,186.27h-.15c-5.68,1.07-12.18-10.35-8.37-14.61C131.06,169.95,138.34,181.78,134.33,186.27Zm-2.59-10a4.18,4.18,0,0,0-1.36-1c-1.18-.48-1.51,0-3.38,1.06-2,1.3.33,6.65,3.07,6.68.5,0,.39,0,2.52-1.25C134,181,133.43,178.05,131.74,176.31Z"/><path class="cls-1" d="M273.92,260.81c.94,7.61-3.69,11.11-10.11,6.91l-.41-.29c-8.27-6.24-11.25-19.71-4.52-22.05,0,0,.46-.12.68-.16C266.66,244.12,273.14,254.45,273.92,260.81Zm-4.06-3.94c.58,1.55-1.55-5.62-6.8-7.18l-.25-.06c-5.1-.94-5.38,6.12-1.87,11.11C266.25,268.3,273.07,265.49,269.86,256.87Z"/><path class="cls-2" d="M271.43,238.05c3.94-1.37,8.14,1.9,10.79,5.14a23,23,0,0,1,3.24,5.47c1.76,4.36,2.6,10.35-1.29,12.8l-12.87,7.43c7.29-4.59-1-23.05-10.66-23.74a4.89,4.89,0,0,0-2.68.62C272.24,237.53,270.85,238.31,271.43,238.05Z"/><path class="cls-5" d="M269.54,264.23c-3.06,1.17-7.69-3.28-9.1-8.26-.57-2-.83-4.74.67-6.34,3.51-1,9,4.07,9.51,10.25C270.57,259.22,271.39,262.62,269.54,264.23Zm-1-5.22c.67-2.33-2.11-6.41-4.29-5.77l-1.94,1.12c-2.18,1.46,1.12,7.65,3.67,6.54C268.2,259.71,268.3,259.55,268.52,259Z"/><path class="cls-2" d="M259,251.44a3,3,0,0,1,2.07-1.81c-3.82,3.79,2.77,16.16,8.43,14.6C265.34,268.43,256.44,257.67,259,251.44Z"/><path class="cls-3" d="M265.45,253.2c2.22.77,4,4.42,2.88,6.18-.75.74-.3.32-2.28,1.47,2.39-1.5-1.16-7.86-3.75-6.5C264.3,253.2,264.47,252.91,265.45,253.2Z"/><path class="cls-4" d="M261.92,254.67c-1.45,1.74,1.24,6.81,3.76,6.32C269.06,260.33,264.45,251.65,261.92,254.67Z"/><path class="cls-1" d="M299.43,277.15c.94,7.61-3.69,11.11-10.11,6.91l-.41-.29c-9-6.81-11.06-21.1-3.84-22.21S298.65,270.79,299.43,277.15Zm-4.06-3.94c.58,1.55-1.55-5.62-6.8-7.18l-.25-.06c-5.1-.94-5.37,6.11-1.87,11.11C291.76,284.64,298.58,281.83,295.37,273.21Z"/><path class="cls-2" d="M296.94,254.39c3.94-1.37,8.14,1.9,10.79,5.14A23,23,0,0,1,311,265c1.76,4.36,2.6,10.35-1.29,12.8l-12.87,7.43c7.29-4.59-1-23.05-10.66-23.74a4.88,4.88,0,0,0-2.68.62C297.75,253.87,296.36,254.65,296.94,254.39Z"/><path class="cls-5" d="M295.05,280.57c-3.06,1.17-7.69-3.28-9.1-8.26-.57-2-.83-4.73.67-6.34,3.51-1,9,4.07,9.51,10.25C296.08,275.56,296.9,279,295.05,280.57Zm-1-5.22c.67-2.33-2.11-6.41-4.29-5.77l-1.94,1.12c-2.18,1.46,1.12,7.65,3.67,6.54C293.71,276.06,293.81,275.89,294,275.35Z"/><path class="cls-2" d="M284.56,267.78a3,3,0,0,1,2.07-1.81c-3.82,3.79,2.77,16.16,8.43,14.6C290.85,284.78,282,274,284.56,267.78Z"/><path class="cls-3" d="M291,269.55c2.22.77,4,4.42,2.88,6.18-.75.74-.3.32-2.29,1.47,2.39-1.5-1.16-7.86-3.75-6.5C289.81,269.54,290,269.26,291,269.55Z"/><path class="cls-4" d="M287.43,271c-1.45,1.74,1.24,6.81,3.76,6.32C294.57,276.67,290,268,287.43,271Z"/><path class="cls-1" d="M1.36,104.11c1.48-5,6.24-5.11,10.35-2,7.44,5.61,9.29,15,7.64,18.94C14.74,132-1.79,114.73,1.36,104.11Zm4.16,1.23C3,107.81,4.91,115.54,10.22,119a7.56,7.56,0,0,0,1.82.82c2,.49,3.41-.29,4-1.75C18.7,111.79,9.76,101.12,5.52,105.34Z"/><path class="cls-6" d="M22.27,122.95,86,159.76V144.82l-29.49-17-17.61-8.85v-5.52L12.32,98.07C21.53,103.8,25.82,117,22.27,122.95Z"/><path class="cls-6" d="M12.32,98.07,0,91v1.52l6.85,4A10.4,10.4,0,0,1,12.32,98.07Z"/><polygon class="cls-7" points="0 90.95 0.47 91.22 0.47 90.69 0 90.95"/><path class="cls-6" d="M41.39,60.88v27l-2.46-1.42v27L.46,91.22v-27l14-18.89Z"/><polygon class="cls-7" points="14.48 45.35 41.39 60.88 51.71 54.93 51.71 52.24 117.61 14.19 93.03 0 14.48 45.35"/><polygon class="cls-8" points="41.39 60.88 41.39 87.87 51.71 81.91 51.71 54.93 41.39 60.88"/><polygon class="cls-8" points="51.71 81.91 41.39 87.87 38.93 86.45 38.93 113.43 38.93 118.95 51.71 111.57 51.71 81.91"/><polygon class="cls-7" points="38.93 118.95 56.54 127.79 66.58 121.99 62.2 119.46 51.71 113.4 51.71 111.57 38.93 118.95"/><polygon class="cls-7" points="86.03 144.82 105.52 157.39 116.71 150.93 96.08 139.02 86.03 144.82"/><polygon class="cls-7" points="86.03 144.82 96.08 139.02 66.58 121.99 56.54 127.79 86.03 144.82"/><polygon class="cls-8" points="116.18 156.47 116.18 164.86 122.8 161.03 122.8 154.45 116.71 150.93 105.52 157.39 105.52 162.63 116.18 156.47"/><path class="cls-9" d="M93.39,154.63l.9-.17a1.46,1.46,0,0,1,.32-.09l-.06,0a5.54,5.54,0,0,1,3.66.49L91.16,159A6.23,6.23,0,0,1,93.39,154.63Z"/><polygon class="cls-6" points="116.18 156.47 116.18 164.86 108.89 160.68 116.18 156.47"/><polygon class="cls-1" points="62.2 119.46 62.2 113.1 62.2 58.3 51.71 52.24 51.71 54.93 51.71 81.91 51.71 111.57 51.71 113.4 62.2 119.46"/><polygon class="cls-10" points="51.71 52.24 62.2 58.3 128.82 19.84 118.33 13.78 117.61 14.19 51.71 52.24"/><polygon class="cls-5" points="62.2 58.3 62.2 113.1 128.82 74.64 128.82 19.84 62.2 58.3"/><path class="cls-5" d="M16.47,116.56a4.62,4.62,0,0,1-1.08,2.53c-2.77.74-7-2.49-8.87-7.57-.76-2.05-1.18-5.4.44-7C10.85,103.45,17.24,110.17,16.47,116.56ZM12,108.39a2.09,2.09,0,0,0-1.72-.36c-.25.09-1.95,1.08-2.12,1.19-1.89,1.19-.05,5.7,2.34,6.53,1.38.48,1.58-.37,3.11-1C15.56,113.85,14.17,109.71,12,108.39Z"/><path class="cls-2" d="M7,104.49c-1.74,1.74-1.18,5-.32,7.36,2,5,6.12,7.94,8.75,7.23-2.87,2.85-8.62-1.43-10.5-7.45C4.09,108.8,4.18,105.24,7,104.49Z"/><path class="cls-3" d="M10.17,108.06c1.94-.68,4.59,2.64,4.34,5.24a1.55,1.55,0,0,1-1,1.44l-1.38.8c1.94-1.93-1.58-7.59-4-6.33C8.32,109.11,10,108.14,10.17,108.06Z"/><path class="cls-4" d="M10.7,109.9c-2.71-2.48-4.7.64-2.2,4.2,1.06,1.51,3,2.5,3.86,1.14C13.07,114.15,12.54,111.59,10.7,109.9Z"/><path class="cls-9" d="M1.14,90.83V66.73l13.33-18L32.81,59.36v49.75ZM14.65,49.65,1.81,66.95v23.5L32.14,108V59.75Z"/><polygon class="cls-5" points="30.69 60.59 17.37 52.9 16.55 53.37 29.86 61.06 30.69 60.59"/><polygon class="cls-1" points="30.69 78.9 30.69 60.59 29.86 61.06 29.86 79.38 30.69 78.9"/><polygon class="cls-2" points="29.86 79.38 29.86 61.06 16.55 53.37 7.03 66.19 29.86 79.38"/><polygon class="cls-11" points="30.79 84.1 30.79 82.3 29.81 82.87 29.81 84.67 30.79 84.1"/><polygon class="cls-4" points="30.79 82.3 26.33 79.72 25.34 80.29 29.81 82.87 30.79 82.3"/><polygon class="cls-12" points="29.81 82.87 25.34 80.29 25.34 82.09 29.81 84.67 29.81 82.87"/><path class="cls-2" d="M10.11,97l.24.08c4.17,1.74,7.24,5.11,9.62,9a25.44,25.44,0,0,1,3.22,8.21,15.37,15.37,0,0,1,.12,5.93l-5.86,3.39A5.25,5.25,0,0,0,19.35,121c3.28-9.24-8.25-24.24-15.54-20.41Z"/><path class="cls-2" d="M97.68,154.59c2.06-.39,4,1.24,5.36,2.84a12,12,0,0,1,1.18,1.79c1.58,3,1.5,5.23.91,6.62a2.64,2.64,0,0,1-1.09,1.24L97.24,171a3.68,3.68,0,0,0,1.47-3.47c-.27-5.16-5.31-10.42-8.5-8.76C97.72,154.44,97.12,154.74,97.68,154.59Z"/><path class="cls-2" d="M91.86,160.83c-2,2.33,1.63,8.43,4.47,7.7-1.4,1.38-4.35-.41-5.5-3.77C90.05,162.26,91,161,91.86,160.83Z"/><path class="cls-3" d="M93.66,162.68c1.44-.27,3.07,2.68,1.79,3.51l-1,.57c1.28-.79-.62-4.14-2-3.44C93.51,162.73,93.43,162.7,93.66,162.68Z"/><path class="cls-4" d="M92.08,164.22c0,2.1,3,4.12,2.8,1.49C94.72,163.6,92.1,162.06,92.08,164.22Z"/><path class="cls-5" d="M96.37,168.55h-.08c-3,.56-6.44-5.47-4.42-7.72C94.64,159.92,98.48,166.17,96.37,168.55ZM95,163.28c-1.08-1.11-1.62-.48-2.51,0-1.06.69.17,3.51,1.62,3.53.27,0,.2,0,1.33-.66C96.17,165.77,95.89,164.2,95,163.28Z"/><path class="cls-1" d="M93.06,170.21a11.51,11.51,0,0,1-4.3-7.71c-.18-3.42,1.85-4.7,4.12-3.78,2.65,1.07,4.76,4.14,5.46,6.64C99.82,170.68,96.57,172.88,93.06,170.21Zm.12-9.27a2.13,2.13,0,0,0-1.8.09,2.4,2.4,0,0,0-.84,2.16c.23,4.39,5.13,7.64,6.19,4.7C97.49,165.74,95.76,162,93.18,160.95Z"/><path class="cls-6" d="M105.52,157.39v5.24l0-.07,0-.05-.18-.37a20.14,20.14,0,0,0-1-1.76c-5-7.4-11.67-7.94-12.91-2.25l-1.12.65.08,0a3.17,3.17,0,0,0-1.5,2.6L86,159.76V144.82Z"/><path class="cls-6" d="M90.63,158.62a2.67,2.67,0,0,1,.34-.09Z"/><polygon class="cls-1" points="16.55 53.37 26.68 59.22 29.86 64.29 29.86 79.38 28.78 78.75 14.53 56.09 16.55 53.37"/><polygon class="cls-1" points="11.36 60.36 19.59 73.44 7.03 66.19 11.36 60.36"/><path class="cls-1" d="M146,180.08,258.8,245.23l5.18-3L144,173A19.08,19.08,0,0,1,146,180.08Z"/><path class="cls-10" d="M144,173l120,69.27c1.3-.75,3.93-2.74,9.22,1.25a17.21,17.21,0,0,1,1.58,1.41,22.58,22.58,0,0,1,4.24,6l11.86,6.85a7.46,7.46,0,0,1,1.83-.92,5.76,5.76,0,0,1,1.38-.22c5.06,0,9.57,5.27,11.83,9.83l15.46,8.93V214L56.94,61.28v49.19l71.09,41v12.23l.93.54a5.59,5.59,0,0,1,4-1.11C135.9,163.4,140.74,166.35,144,173Z"/><path class="cls-1" d="M279,250.92a18.92,18.92,0,0,1,2,7.11l4.72,2.73,5.18-3Z"/><path class="cls-1" d="M305.92,266.45a19.07,19.07,0,0,1,2,7.11l18.69,10.79V211L51.76,52.31v61.16l14.88,8.59,29.49,17L116.75,151l6.1,3.52v12.23l.93.54,5.18-3-.93-.54V151.52l-71.09-41V61.28L321.38,214v61.42Z"/><path class="cls-5" d="M326.56,284.36V211l63.25-36.52v73.39Zm31.62-22.61L386,245.67V181l-27.86,16.09-27.86,16.08v64.7Z"/><polygon class="cls-13" points="389.81 174.45 115 15.79 114.04 16.35 51.76 52.31 326.56 210.96 389.81 174.45"/><polygon class="cls-13" points="330.32 213.14 330.32 277.84 358.18 261.75 358.18 197.05 330.32 213.14"/><polygon class="cls-13" points="386.04 245.67 386.04 180.97 358.18 197.05 358.18 261.75 386.04 245.67"/><polygon class="cls-10" points="357.27 262.28 357.27 262.18 357.81 261.87 357.81 197.27 358.48 196.88 358.48 197.17 358.48 261.58 357.27 262.28"/></g></g></svg>