<svg xmlns="http://www.w3.org/2000/svg" xmlns:xlink="http://www.w3.org/1999/xlink" viewBox="0 0 356.98 280.69"><defs><style>.cls-1{fill:#2030a5;}.cls-2{fill:#3046b5;}.cls-3{fill:#5ea6d3;}.cls-4{fill:#90caf4;}.cls-5{fill:#bddff4;}.cls-6{fill:url(#radial-gradient);}.cls-7{fill:url(#radial-gradient-2);}.cls-8{fill:url(#radial-gradient-3);}.cls-9{fill:url(#radial-gradient-4);}.cls-10{fill:#3685fc;}.cls-11{fill:#2c65d6;}.cls-12{fill:#83b8fc;}.cls-13{fill:#15298c;}.cls-14{fill:url(#linear-gradient);}.cls-15{fill:url(#linear-gradient-2);}.cls-16{fill:url(#linear-gradient-3);}.cls-17{fill:url(#linear-gradient-4);}.cls-18{fill:#e2f1f7;}.cls-19{fill:url(#linear-gradient-5);}.cls-20{fill:#fe5773;}.cls-21{fill:#f74169;}.cls-22{fill:#ca4560;}.cls-23{fill:url(#linear-gradient-6);}.cls-24{fill:url(#linear-gradient-7);}.cls-25{fill:url(#linear-gradient-8);}</style><radialGradient id="radial-gradient" cx="-6184.73" cy="134.87" r="108.33" gradientTransform="translate(6311.28)" gradientUnits="userSpaceOnUse"><stop offset="0.01" stop-color="#bddff4"/><stop offset="1" stop-color="#90caf4"/></radialGradient><radialGradient id="radial-gradient-2" cx="-6275.83" cy="81.77" r="158.42" xlink:href="#radial-gradient"/><radialGradient id="radial-gradient-3" cx="-6275.83" cy="81.77" r="158.42" xlink:href="#radial-gradient"/><radialGradient id="radial-gradient-4" cx="-6287.21" cy="128.04" r="38.9" xlink:href="#radial-gradient"/><linearGradient id="linear-gradient" x1="-6023.42" y1="242.9" x2="-5954.31" y2="242.9" gradientTransform="translate(6311.28)" gradientUnits="userSpaceOnUse"><stop offset="0" stop-color="#83b8fc"/><stop offset="0.99" stop-color="#609ffd"/></linearGradient><linearGradient id="linear-gradient-2" x1="-6075.07" y1="239.37" x2="-6058.85" y2="239.37" xlink:href="#linear-gradient"/><linearGradient id="linear-gradient-3" x1="-6120.18" y1="213.52" x2="-6093.3" y2="213.52" xlink:href="#linear-gradient"/><linearGradient id="linear-gradient-4" x1="-6102.23" y1="226.23" x2="-6066.14" y2="226.23" xlink:href="#linear-gradient"/><linearGradient id="linear-gradient-5" x1="-6021.32" y1="215.03" x2="-5959.26" y2="215.03" xlink:href="#linear-gradient"/><linearGradient id="linear-gradient-6" x1="-6054.96" y1="202.62" x2="-6037.46" y2="202.62" xlink:href="#linear-gradient"/><linearGradient id="linear-gradient-7" x1="-6035.35" y1="254.78" x2="-6027.87" y2="254.78" xlink:href="#linear-gradient"/><linearGradient id="linear-gradient-8" x1="-6053.51" y1="247.37" x2="-6034.34" y2="247.37" xlink:href="#linear-gradient"/></defs><title>i6</title><g id="Слой_2" data-name="Слой 2"><g id="Layer_1" data-name="Layer 1"><path class="cls-1" d="M207,220.54l-2.68,1.55c-1.76-3.76-6-7.87-9.28-6.11l-.57.33L189.73,219c3.77-2,9.44,3.7,10.41,9.75.33,2.16,0,4.21-1.68,5.27,8.7-5,7.88-4.54,8.14-4.71C209.08,227.51,208.31,223.34,207,220.54Z"/><path class="cls-2" d="M190,218.9l.2-.09c3.72-1.3,8.12,3.47,9.63,8.28s-.71,9-5.41,6.68A11.35,11.35,0,0,1,191,230.9C188.19,227.24,186.37,220.79,190,218.9Zm3.13,11.43c1.2,1.1,3.06,1.84,4.2.71l0,0c1-1.19.78-3.05.26-4.55-1.46-4.27-6.21-6.91-7.29-3.28C189.8,224.9,190.68,228.11,193.1,230.33Z"/><path class="cls-3" d="M197.3,231a4,4,0,0,1-3.33-1.21c-2.49-2.14-3.87-6.61-2.16-8.31C195.49,220.51,199.92,228.32,197.3,231Zm-1.94-6.74c-1.16-.93-1.59-.39-2.75.28-1.5.86.73,5,2.39,4.26.08,0,1.27-.72,1.35-.8C197.25,227.13,196.32,225.07,195.36,224.3Z"/><path class="cls-1" d="M191.8,221.52c-2.29.62-2.22,4.87.65,8.16,1.32,1.44,3.47,2.72,4.84,1.35C193.75,232,189.17,224.15,191.8,221.52Z"/><path class="cls-4" d="M193.87,223.86c-.13.06-1.13.64-1.26.72a1.2,1.2,0,0,1,1.15.08c1.55.86,2.39,3.45,1.29,4.15a9.41,9.41,0,0,0,1.35-.82C197.51,226.71,195.44,223.31,193.87,223.86Z"/><path class="cls-5" d="M194,224.79c1.34.81,2.23,3.41,1,4a1.31,1.31,0,0,1-1.32-.24C191.4,226.84,191.59,223.36,194,224.79Z"/><path class="cls-1" d="M185.77,198.73,182,200.92c-2.48-5.31-8.48-11.13-13.13-8.65l-.81.47-6.69,3.86c5.34-2.85,13.36,5.24,14.73,13.8.47,3.05,0,6-2.38,7.45,12.3-7.11,11.14-6.43,11.51-6.66C188.71,208.59,187.62,202.7,185.77,198.73Z"/><path class="cls-2" d="M161.67,196.41l.29-.12c5.27-1.84,11.49,4.9,13.62,11.71s-1,12.78-7.65,9.45a16.05,16.05,0,0,1-4.72-4.06C159.16,208.22,156.58,199.08,161.67,196.41Zm4.43,16.17c1.7,1.56,4.33,2.6,5.94,1l.06-.06c1.47-1.68,1.1-4.32.37-6.44-2.06-6-8.79-9.78-10.31-4.64C161.44,204.9,162.68,209.44,166.1,212.58Z"/><path class="cls-3" d="M172,213.58c-1.64.44-3.41-.59-4.72-1.71-3.52-3-5.47-9.34-3.06-11.75C169.48,198.69,175.76,209.74,172,213.58Zm-2.74-9.53c-1.64-1.32-2.25-.55-3.89.39-2.13,1.22,1,7,3.38,6,.11,0,1.79-1,1.91-1.13C172,208.05,170.66,205.15,169.3,204.05Z"/><path class="cls-1" d="M164.27,200.11c-3.24.87-3.14,6.89.92,11.55,1.87,2,4.91,3.84,6.85,1.92C167,214.93,160.55,203.83,164.27,200.11Z"/><path class="cls-4" d="M167.19,203.43c-.18.08-1.6.91-1.78,1a1.69,1.69,0,0,1,1.63.12c2.2,1.21,3.38,4.88,1.83,5.87a13.29,13.29,0,0,0,1.91-1.16C172.35,207.45,169.41,202.65,167.19,203.43Z"/><path class="cls-5" d="M167.35,204.74c1.89,1.14,3.15,4.83,1.45,5.72a1.85,1.85,0,0,1-1.86-.34C163.7,207.65,164,202.72,167.35,204.74Z"/><path class="cls-1" d="M61.36,126.87l-3.79,2.19c-2.48-5.31-8.48-11.13-13.13-8.65l-.81.47-6.69,3.87c5.34-2.85,13.36,5.24,14.73,13.8.47,3.05,0,6-2.38,7.45,12.31-7.1,11.14-6.43,11.51-6.66C64.3,136.73,63.2,130.84,61.36,126.87Z"/><path class="cls-2" d="M37.26,124.55l.29-.12c5.27-1.84,11.49,4.9,13.62,11.71s-1,12.78-7.65,9.45a16.06,16.06,0,0,1-4.72-4.06C34.75,136.36,32.17,127.23,37.26,124.55Zm4.43,16.17c1.7,1.56,4.33,2.6,5.94,1l.06-.06c1.47-1.68,1.1-4.32.37-6.44-2.06-6-8.79-9.78-10.31-4.64C37,133,38.27,137.59,41.69,140.72Z"/><path class="cls-3" d="M47.63,141.72c-1.64.44-3.41-.59-4.72-1.71-3.52-3-5.47-9.35-3.06-11.75C45.07,126.83,51.35,137.88,47.63,141.72Zm-2.74-9.53c-1.64-1.32-2.25-.55-3.89.39-2.13,1.22,1,7,3.38,6,.11,0,1.79-1,1.91-1.14C47.57,136.2,46.25,133.29,44.89,132.19Z"/><path class="cls-1" d="M39.86,128.26c-3.24.87-3.14,6.89.92,11.55,1.87,2,4.91,3.84,6.85,1.92C42.62,143.07,36.14,132,39.86,128.26Z"/><path class="cls-4" d="M42.78,131.57c-.18.08-1.6.91-1.78,1a1.69,1.69,0,0,1,1.63.12c2.2,1.22,3.38,4.88,1.83,5.87a13.31,13.31,0,0,0,1.91-1.16C47.93,135.6,45,130.79,42.78,131.57Z"/><path class="cls-5" d="M42.93,132.89c1.89,1.14,3.15,4.83,1.45,5.72a1.86,1.86,0,0,1-1.86-.34C39.29,135.79,39.57,130.86,42.93,132.89Z"/><path class="cls-1" d="M36.86,112.54l-3.79,2.19c-2.48-5.31-8.48-11.13-13.13-8.65l-.81.47-6.69,3.87c5.34-2.85,13.36,5.24,14.73,13.8.47,3.05,0,6-2.38,7.45,12.31-7.11,11.14-6.43,11.52-6.66C39.8,122.39,38.71,116.5,36.86,112.54Z"/><path class="cls-2" d="M12.76,110.21l.28-.12c5.27-1.84,11.49,4.9,13.62,11.71s-1,12.78-7.65,9.45a16.06,16.06,0,0,1-4.72-4.06C10.25,122,7.67,112.89,12.76,110.21Zm4.43,16.17c1.7,1.56,4.33,2.6,5.94,1l.06-.06c1.47-1.68,1.1-4.32.37-6.44-2.06-6-8.79-9.78-10.31-4.64C12.53,118.7,13.77,123.25,17.2,126.38Z"/><path class="cls-3" d="M23.13,127.38c-1.64.44-3.41-.58-4.72-1.71-3.52-3-5.47-9.34-3.06-11.75C20.57,112.49,26.85,123.54,23.13,127.38Zm-2.74-9.53c-1.64-1.32-2.25-.55-3.89.39-2.13,1.22,1,7,3.38,6,.11,0,1.79-1,1.91-1.13C23.07,121.86,21.75,118.95,20.39,117.86Z"/><path class="cls-1" d="M15.36,113.92c-3.24.87-3.14,6.89.92,11.55,1.87,2,4.91,3.84,6.85,1.92C18.12,128.73,11.64,117.64,15.36,113.92Z"/><path class="cls-4" d="M18.28,117.23c-.18.08-1.6.91-1.78,1a1.69,1.69,0,0,1,1.63.12c2.2,1.22,3.38,4.88,1.83,5.87a13.1,13.1,0,0,0,1.91-1.16C23.44,121.26,20.5,116.45,18.28,117.23Z"/><path class="cls-5" d="M18.43,118.55c1.89,1.14,3.15,4.83,1.45,5.72a1.85,1.85,0,0,1-1.86-.34C14.79,121.45,15.07,116.52,18.43,118.55Z"/><path class="cls-2" d="M328.45,225.11l.23-.22a4.46,4.46,0,0,1,3.57-1.1c8.34,1.07,15.46,16.07,10.22,21.28a4.86,4.86,0,0,1-.49.39l-.26.16c-3.94,2.07-8.62-1.73-11.44-5.74C327.8,236.34,325.1,229,328.45,225.11Zm3.73,13a12.13,12.13,0,0,0,2.66,2.81c6.18,4.36,8.78-3.53,3.3-10.16C332.49,223.92,326.66,229.81,332.19,238.12Z"/><path class="cls-4" d="M340.07,241.36c-1.64.44-3.41-.59-4.72-1.71-3.52-3-5.47-9.34-3.06-11.75C337.52,226.47,343.72,237.7,340.07,241.36Zm-2.74-9.53c-1.64-1.32-2.25-.55-3.89.39-2.13,1.22,1,7,3.38,6,.11,0,1.79-1,1.91-1.14C340,235.84,338.69,232.93,337.33,231.83Z"/><path class="cls-1" d="M353.8,226.51l-5.62,3.24-6.31-3.65c-.68-.8-1.12-1.24-1.44-1.56l-.09.05.08-.06a15.61,15.61,0,0,0-5.2-3.5l-5.23,3c2.83-1,5.52.59,7.84,2.52a19.6,19.6,0,0,1,3.9,4.85c2.51,4.48,4.17,11.56,0,14.2,12.31-7.1,11.14-6.43,11.52-6.66C356.74,236.37,355.65,230.48,353.8,226.51Z"/><path class="cls-1" d="M335.13,239.44a12.52,12.52,0,0,1-2.09-2.61c-1.56-2.62-2.73-6.95-.73-8.94-2.52.68-2.58,4.05-1.87,6.57,1.85,5.92,7.18,9.32,9.64,6.89C338.36,241.82,336.44,240.64,335.13,239.44Z"/><path class="cls-4" d="M338.53,237.25l.14-.08Z"/><path class="cls-4" d="M335.22,231.21c-.18.08-1.6.91-1.78,1a1.7,1.7,0,0,1,1.63.12c2.2,1.22,3.38,4.88,1.83,5.87A13.35,13.35,0,0,0,338.8,237C340.38,235.23,337.44,230.43,335.22,231.21Z"/><path class="cls-4" d="M335.38,232.52c1.89,1.14,3.15,4.83,1.45,5.72a1.86,1.86,0,0,1-1.86-.34C331.73,235.43,332,230.5,335.38,232.52Z"/><path class="cls-6" d="M171,191.69l-.33,0-.32,0-.31.06-.3.08-.3.11-.28.13-.28.15-.81.47-110.5-63.8c-2.39-4.82-7.63-10.43-12.46-8.74l-.28.12c-.35.18-.13.06-1.1.62l-10.92-6.31c-2.75-5.54-8.49-10.86-13-8.48l-.83.48L4.77,98.47V41.9L248.33,182.52v45.31L182.85,190v11.27l-1-.55-.24-.47-.25-.48-.26-.47-.28-.46-.28-.45-.29-.44-.31-.43-.32-.43-.33-.41-.33-.4-.34-.39-.35-.37-.35-.36-.36-.35-.37-.33-.37-.32-.37-.3-.37-.28-.38-.26-.38-.25-.38-.23-.38-.21-.38-.19-.37-.17-.38-.15-.37-.13-.37-.11-.36-.09-.36-.06-.35,0-.35,0Z"/><polygon class="cls-7" points="181.9 200.74 182.85 201.29 182.85 190.02 248.33 227.83 248.33 182.52 4.77 41.9 4.77 98.47 18.91 106.64 14.14 109.39 0 101.23 0 33.63 253.11 179.76 253.11 189.44 250.17 191.14 250.17 215.99 252.43 217.3 252.43 235.71 245.14 231.5 217.98 215.81 201.09 206.06 197.38 203.92 187.63 198.29 187.63 209.56 186.85 209.11 186.69 209.01 186.44 208.88 186.18 208.72 185.9 208.56 185.61 208.39 185.29 208.21 184.95 208.01 184.59 207.81 184.22 207.59 183.83 207.37 183.69 207.28 183.67 206.99 183.63 206.54 183.57 206.07 183.5 205.59 183.4 205.11 183.3 204.63 183.18 204.15 183.04 203.66 182.88 203.17 182.71 202.68 182.53 202.19 182.33 201.7 182.12 201.22 181.9 200.74"/><path class="cls-8" d="M57.54,128.94,168,192.74l-4.77,2.76-103.93-60A17.61,17.61,0,0,0,57.54,128.94Z"/><path class="cls-9" d="M32.76,114.64l10.92,6.31-4.77,2.76-4.35-2.51A17.59,17.59,0,0,0,32.76,114.64Z"/><path class="cls-10" d="M250.17,216V191.14l24.78,14.31,12.91,32.31v24.85l-10.92-6.31-24.51-14.15V217.3Zm35.7,21.25-12.05-30.15-16.5-9.53-1,.58v45.11l28.55,16.49,1-.58Z"/><path class="cls-11" d="M287.86,237.75l-12.91-32.31,68.69-39.65,12.91,32.31ZM352,197.15l-10.6-26.52-.63.36-61.32,35.4L290,232.64l.11.28Z"/><polygon class="cls-12" points="274.95 205.45 250.17 191.14 253.11 189.44 311.36 155.81 318.85 151.49 343.63 165.79 274.95 205.45"/><polygon class="cls-10" points="295.42 270.06 295.5 269.67 295.56 269.27 295.6 268.85 295.62 268.43 295.63 268 295.62 267.56 295.6 267.11 295.56 266.65 295.5 266.18 295.42 265.7 295.33 265.23 295.23 264.75 295.11 264.27 294.97 263.78 294.81 263.29 294.65 262.79 294.47 262.31 294.27 261.82 294.06 261.34 293.91 261.01 300.79 257.04 297.06 271.11 295.4 270.15 295.42 270.06"/><path class="cls-13" d="M269.44,255.66c-1.06,1-2.8,2.34-2.83,6.94a18,18,0,0,0,.53,3.94c-.12-3.46-.14-2.93,0-3.75a5.87,5.87,0,0,1,1.66-3.41c.52-.45-.13,0,6.48-3.87A7,7,0,0,0,269.44,255.66Z"/><polygon class="cls-11" points="297.06 271.11 300.79 257.04 344.7 231.69 344.57 232.18 344.38 232.89 344.19 233.6 344.01 234.3 343.82 234.99 343.64 235.68 343.5 236.21 340.97 245.76 340.32 246.13 297.06 271.11"/><polygon class="cls-11" points="356.98 223.2 356.98 224.6 354.01 226.31 344.7 231.69 300.79 257.04 293.91 261.01 288.29 264.25 288.29 262.86 356.98 223.2"/><polygon class="cls-10" points="288.29 262.86 288.29 264.25 288.11 264.15 287.58 263.84 287.04 263.54 286.51 263.23 285.98 262.92 285.44 262.61 284.91 262.3 284.37 261.99 283.85 261.69 283.33 261.39 282.82 261.1 282.31 260.8 281.98 260.61 281.87 260.48 281.79 260.39 281.53 260.1 281.37 259.92 281.2 259.74 280.95 259.47 280.87 259.39 280.54 259.05 280.2 258.73 280.1 258.63 279.86 258.42 279.65 258.24 279.53 258.13 279.21 257.86 278.88 257.6 278.75 257.5 278.56 257.36 278.3 257.17 278.24 257.13 277.94 256.92 277.85 256.86 277.63 256.72 277.4 256.57 277.35 256.54 277.07 256.38 276.94 256.3 287.86 262.61 288.29 262.86"/><polygon class="cls-14" points="288.29 262.86 287.86 262.61 356.55 222.95 356.98 223.2 288.29 262.86"/><path class="cls-11" d="M287.86,237.75l68.69-39.65V223l-68.69,39.65Zm57.61-29.81-46.53,26.86v7.8l1.34.77,46.53-26.86v-7.8Z"/><polygon class="cls-15" points="252.43 247.23 236.21 236.66 245.14 231.5 252.43 235.71 252.43 242.15 252.43 247.23"/><polygon class="cls-16" points="191.1 211.82 201.09 206.06 217.98 215.81 209.05 220.97 191.1 211.82"/><path class="cls-10" d="M191.1,211.82,209,221v13.76l-5-2.88,0-.11.08-.31.07-.32.05-.34,0-.15v-.15l0-.2v-.58s0-.23,0-.23v-.66l0-.25,0-.26,0-.15,0-.12,0-.28-.05-.28,0-.13,0-.16-.05-.25v-.06l-.08-.31-.08-.31,0-.15-.05-.17-.07-.25,0-.08-.11-.33-.12-.33,0-.1-.09-.23-.07-.18-.06-.15-.11-.26,0-.07-.15-.33-.16-.33,0-.08-.13-.25-.08-.16-.1-.18-.12-.23-.06-.1L202,222l-.22-.35-.21-.32-.06-.1-.15-.21-.11-.16-.11-.15-.16-.22-.06-.08-.22-.28-.24-.29,0-.05-.19-.23-.09-.11-.15-.16-.15-.16-.09-.1-.21-.22,0,0-.24-.24-.24-.23-.09-.09-.15-.13-.16-.14-.09-.07-.23-.19-.26-.2-.06,0-.18-.13-.14-.1-.09-.06-.23-.16-.23-.14-.1-.06-.13-.07-.2-.11-.22-.12-.1-.05-.1,0-.18-.09-.18-.07-.16-.07-.15-.05-.13,0-.07,0-.14,0-.07,0-.05,0-.36-.1-.31-.06-.3,0-.3,0h-.58l-.28,0-.27,0-.26.06-.13,0-.13,0-.25.1-.24.12-.23.13-.21.15-.21.17S191.1,211.82,191.1,211.82Z"/><polygon class="cls-17" points="209.05 220.97 217.98 215.81 245.14 231.5 236.21 236.66 209.05 220.97"/><path class="cls-1" d="M191.1,216.65l.24-.2.21-.15.23-.13L192,216l.25-.1.13,0Z"/><polygon class="cls-3" points="311.36 146.13 311.36 155.81 253.11 189.44 253.11 179.76 311.36 146.13"/><polygon class="cls-18" points="58.25 0 311.36 146.13 253.11 179.76 0 33.63 58.25 0"/><polygon class="cls-3" points="197.38 203.92 187.63 209.56 187.63 198.29 197.38 203.92"/><path class="cls-2" d="M269.81,258.69l.29-.12c5.27-1.84,11.49,4.9,13.62,11.71s-1,12.78-7.65,9.45a16.06,16.06,0,0,1-4.72-4.06C267.3,270.49,264.72,261.36,269.81,258.69Zm4.43,16.17c1.7,1.56,4.33,2.6,5.94,1l.06-.06c1.47-1.68,1.1-4.32.37-6.44-2.06-6-8.79-9.78-10.31-4.64C269.57,267.18,270.82,271.72,274.24,274.86Z"/><path class="cls-3" d="M280.18,275.86c-1.64.44-3.41-.59-4.72-1.71-3.52-3-5.47-9.35-3.06-11.76C277.62,261,283.9,272,280.18,275.86Zm-2.74-9.53c-1.64-1.32-2.25-.55-3.89.39-2.13,1.22,1,7,3.38,6,.11,0,1.79-1,1.91-1.14C280.12,270.33,278.8,267.43,277.44,266.33Z"/><path class="cls-1" d="M293.91,261l-5.62,3.24L282,260.61c-.68-.8-1.12-1.24-1.44-1.56l-.09.05.08-.06a15.63,15.63,0,0,0-5.2-3.5l-5.23,3c2.83-1,5.52.59,7.84,2.52a19.67,19.67,0,0,1,3.9,4.85c2.51,4.48,4.17,11.56,0,14.2,12.3-7.1,11.14-6.43,11.51-6.66C296.85,270.87,295.75,265,293.91,261Z"/><path class="cls-1" d="M272.41,262.39c-3.24.87-3.14,6.89.92,11.55,1.87,2,4.91,3.84,6.85,1.92C275.17,277.21,268.69,266.11,272.41,262.39Z"/><path class="cls-4" d="M275.33,265.71c-.18.08-1.6.91-1.78,1a1.69,1.69,0,0,1,1.63.12c2.2,1.21,3.38,4.88,1.83,5.87a13.33,13.33,0,0,0,1.91-1.16C280.48,269.73,277.55,264.93,275.33,265.71Z"/><path class="cls-5" d="M275.48,267c1.89,1.14,3.15,4.83,1.45,5.72a1.85,1.85,0,0,1-1.86-.34C271.83,269.93,272.11,265,275.48,267Z"/><polygon class="cls-10" points="352.02 197.15 351.28 197.24 340.79 170.99 341.42 170.63 352.02 197.15"/><polygon class="cls-19" points="351.28 197.24 352.02 197.15 290.07 232.92 289.96 232.64 351.28 197.24"/><polygon class="cls-13" points="351.28 197.24 289.96 232.64 279.47 206.39 340.79 170.99 351.28 197.24"/><polygon class="cls-20" points="298.94 234.81 345.47 207.94 346.81 208.72 300.28 235.58 298.94 234.81"/><polygon class="cls-21" points="298.94 242.6 298.94 234.81 300.28 235.58 300.28 243.38 298.94 242.6"/><polygon class="cls-22" points="300.28 235.58 346.81 208.72 346.81 216.51 300.28 243.38 300.28 235.58"/><polygon class="cls-2" points="273.82 207.09 285.87 237.24 284.87 237.82 272.82 207.67 273.82 207.09"/><polygon class="cls-23" points="257.32 197.57 273.82 207.09 272.82 207.67 256.32 198.15 257.32 197.57"/><polygon class="cls-2" points="285.87 237.24 285.87 259.17 284.87 259.75 284.87 237.82 285.87 237.24"/><path class="cls-11" d="M272.82,207.67l12.05,30.15v21.92l-28.55-16.49V198.14Zm3.12,45.23,7.48,4.32V237.45L281,231.31l-8.76-21.93-.06-.14-.15-.37-13.22-7.63-1-.58v41.75Z"/><polygon class="cls-24" points="276.94 252.33 283.41 256.07 283.41 257.23 275.93 252.91 276.94 252.33"/><path class="cls-10" d="M283.41,256.07l-6.48-3.74-18.16-10.49V201.25L272,208.88l.15.37-12.12-7-.72.41v16.87l21,12.14.62-.36,2.45,6.13ZM264,224.51l-4.11-2.37-.86.5v1.66l4.11,2.38.86-.5Z"/><polygon class="cls-25" points="258.77 241.84 276.94 252.33 275.93 252.91 257.77 242.42 258.77 241.84"/><polygon class="cls-2" points="258.77 220.96 258.77 241.84 257.77 242.42 257.77 221.54 258.77 220.96"/><polygon class="cls-2" points="258.77 201.25 258.77 220.96 257.77 221.54 257.77 200.66 258.77 201.25"/><polygon class="cls-2" points="260.03 202.25 272.14 209.25 272.2 209.38 271.57 209.75 259.31 202.66 260.03 202.25"/><polygon class="cls-1" points="259.31 219.53 259.31 202.66 271.57 209.75 280.34 231.67 259.31 219.53"/><polygon class="cls-13" points="280.34 231.67 271.57 209.75 272.2 209.38 280.96 231.31 280.34 231.67"/><polygon class="cls-20" points="259.93 222.13 264.04 224.51 263.18 225.01 259.06 222.63 259.93 222.13"/><polygon class="cls-22" points="264.04 224.51 264.04 226.17 263.18 226.66 263.18 225.01 264.04 224.51"/><polygon class="cls-21" points="259.06 222.63 263.18 225.01 263.18 226.66 259.06 224.29 259.06 222.63"/><path class="cls-10" d="M267.61,268.54,209,234.73V221l27.17,15.69,16.22,10.58v-5.08l24.51,14.15c-3.56-1.9-7.08-2.07-9.21,1.35C265.93,260.52,266.69,265.29,267.61,268.54Z"/><polygon class="cls-1" points="337.59 172.84 310.31 188.59 290.98 232.06 318.26 216.3 337.59 172.84"/><polygon class="cls-1" points="287.85 201.56 282.42 213.77 287.75 227.1 303 192.81 287.85 201.56"/><polygon class="cls-1" points="349.78 193.49 347.02 199.7 351.28 197.24 349.78 193.49"/><polygon class="cls-1" points="348.21 189.56 342.54 175.37 326.43 211.59 342.55 202.28 348.21 189.56"/><polygon class="cls-2" points="262.77 204.66 259.31 207.18 259.31 216.41 269.84 208.75 262.77 204.66"/><polygon class="cls-2" points="279 228.33 273.59 214.78 263.63 222.03 277.03 229.76 279 228.33"/></g></g></svg>