<svg xmlns="http://www.w3.org/2000/svg" viewBox="0 0 370.96 247.47"><defs><style>.cls-1{fill:#2c65d6;}.cls-2{fill:#15298c;}.cls-3{fill:#3046b5;}.cls-4{fill:#fe5773;}.cls-5{fill:#f74169;}.cls-6{fill:#bddff4;}.cls-7{fill:#5ea6d3;}.cls-8{fill:#ca4560;}.cls-9{fill:#e2f1f7;}.cls-10{fill:#90caf4;}.cls-11{fill:#2030a5;}.cls-12{fill:#3685fc;}</style></defs><title>i8</title><g id="Слой_2" data-name="Слой 2"><g id="Layer_1" data-name="Layer 1"><path class="cls-1" d="M49.49,233c6.1,3.56,5.38,3.16,5.74,3.31a4.26,4.26,0,0,1,2.08,2.46C57.21,233.64,53.85,231.31,49.49,233Z"/><path class="cls-2" d="M91.08,212.81c1.13-4,4.55-9,8.82-10.72,3.67-1.48,6.94.58,6.65,6.1-.21,4.05-3,9.43-6.95,12.44C93.94,224.95,88.7,221.38,91.08,212.81Zm2.61,4.08c1.7,4.75,9.62-.49,10-7.58a3.87,3.87,0,0,0-1.36-3.49,3.43,3.43,0,0,0-2.91-.15C95.24,207.35,92.45,213.41,93.69,216.89Z"/><path class="cls-3" d="M92.15,195.42c-3.32-.63-6.51,2-8.65,4.59a19.41,19.41,0,0,0-1.91,2.88c-2.55,4.85-2.42,8.44-1.47,10.69a4.27,4.27,0,0,0,1.76,2l11,6.34c-1.93-1.2-2.41-3.34-2.37-5.6.43-8.33,8.57-16.83,13.72-14.15C92.08,195.17,93.05,195.65,92.15,195.42Z"/><path class="cls-3" d="M101.55,205.49c1.36,1.55,1,4,.37,5.94-1.8,4.84-5.53,7-7.58,6.49,2.26,2.22,7-.66,8.87-6.09C104.47,207.79,102.93,205.68,101.55,205.49Z"/><path class="cls-4" d="M98.64,208.46c-2.33-.44-5,4.33-2.89,5.66l1.59.92c-2.06-1.28,1-6.69,3.18-5.55C98.89,208.55,99,208.5,98.64,208.46Z"/><path class="cls-5" d="M97.32,211.36c1.32-2.37,3.84-3,3.87-.41,0,3.39-4.84,6.66-4.52,2.4A5.1,5.1,0,0,1,97.32,211.36Z"/><path class="cls-6" d="M101.53,205.47c3.25,3.64-2.3,13.38-7.14,12.47h-.13C90.85,214.11,97.05,204,101.53,205.47Zm-5.78,8.66c1.82,1,1.72,1,2.15,1.06,2.34,0,4.34-4.59,2.62-5.7-1.6-.92-1.88-1.31-2.89-.9C95.55,209.44,94.2,213.23,95.75,214.13Z"/><path class="cls-2" d="M6.78,221.21c.66-2.37,2.66-5.26,5.16-6.28,2.15-.87,4.06.34,3.89,3.57a10.88,10.88,0,0,1-4.07,7.28C8.46,228.31,5.39,226.22,6.78,221.21Zm1.53,2.39c1,2.78,5.63-.29,5.85-4.44a2.27,2.27,0,0,0-.8-2,2,2,0,0,0-1.7-.09C9.22,218,7.58,221.56,8.31,223.6Z"/><path class="cls-3" d="M7.41,211c-1.94-.37-3.81,1.17-5.06,2.69a11.45,11.45,0,0,0-1.12,1.69c-1.49,2.84-1.42,4.94-.86,6.25a2.5,2.5,0,0,0,1,1.17l6.43,3.71a3.48,3.48,0,0,1-1.39-3.28c.25-4.88,5-9.85,8-8.28C7.37,210.88,7.94,211.16,7.41,211Z"/><path class="cls-3" d="M12.91,216.92c.79.91.6,2.34.22,3.48-1.05,2.84-3.24,4.11-4.44,3.8,1.32,1.3,4.11-.39,5.2-3.56C14.62,218.27,13.72,217,12.91,216.92Z"/><path class="cls-2" d="M48.15,242.12c.62-2.24,2.52-5,4.89-5.94,2-.82,3.84.32,3.69,3.38a10.29,10.29,0,0,1-3.85,6.89C49.73,248.84,46.83,246.87,48.15,242.12Zm1.45,2.26c.94,2.63,5.33-.27,5.53-4.2a2.14,2.14,0,0,0-.75-1.93,1.9,1.9,0,0,0-1.61-.08C50.45,239.1,48.9,242.45,49.6,244.38Z"/><path class="cls-3" d="M48.74,232.48c-1.84-.35-3.6,1.11-4.79,2.54a10.79,10.79,0,0,0-1.06,1.6c-1.41,2.69-1.34,4.68-.82,5.92a2.37,2.37,0,0,0,1,1.11l6.08,3.51a3.29,3.29,0,0,1-1.31-3.1c.24-4.61,4.75-9.32,7.6-7.84C48.7,232.35,49.24,232.62,48.74,232.48Z"/><path class="cls-3" d="M53.95,238.07c.75.86.57,2.21.21,3.29-1,2.68-3.07,3.89-4.2,3.6,1.25,1.23,3.89-.37,4.92-3.37C55.56,239.34,54.71,238.17,53.95,238.07Z"/><path class="cls-4" d="M52.33,239.71c-1.29-.24-2.74,2.4-1.6,3.14l.88.51c-1.14-.71.55-3.71,1.76-3.07C52.47,239.76,52.54,239.73,52.33,239.71Z"/><path class="cls-5" d="M51.6,241.32c.73-1.31,2.13-1.67,2.15-.23,0,1.88-2.68,3.69-2.5,1.33A2.82,2.82,0,0,1,51.6,241.32Z"/><path class="cls-6" d="M53.94,238.06c1.8,2-1.27,7.41-4,6.91h-.07C48,242.84,51.46,237.25,53.94,238.06Zm-3.2,4.8c1,.58,1,.58,1.19.59,1.3,0,2.41-2.54,1.45-3.15s-1-.73-1.6-.5C50.62,240.25,49.88,242.36,50.73,242.85Z"/><path class="cls-7" d="M42.62,239.13v.07a11.8,11.8,0,0,0-.88,2.85l-2.81,1.63v-7l3.83,2.21s-.09,0-.09,0,0,.06,0,.16,0,.1,0,.1Z"/><polygon class="cls-5" points="100.5 199.88 100.36 199.79 100.36 199.17 100.47 199.14 100.5 199.88"/><path class="cls-5" d="M100.5,199.88l0-.74a6.54,6.54,0,0,1,1.72-.18l2.2-1.27.21,4.55Z"/><polygon class="cls-5" points="76.73 131.48 80.83 133.85 80.93 136.08 81.72 153.04 77.62 150.68 76.73 131.48"/><polygon class="cls-5" points="80.93 136.08 80.83 133.85 87.22 137.54 87.32 139.77 84.13 137.93 80.93 136.08"/><polygon class="cls-5" points="87.32 139.77 87.22 137.54 91.32 139.91 91.42 142.14 87.32 139.77"/><polygon class="cls-4" points="100.22 142.21 83.82 131.94 82.95 131.4 79.75 129.55 76.73 131.48 80.83 133.85 87.22 137.54 91.32 139.91 97.89 143.69 101.99 146.06 104.32 144.57 100.22 142.21"/><polygon class="cls-5" points="91.32 139.91 97.89 143.69 97.99 145.93 93.89 143.57 91.42 142.14 91.32 139.91"/><path class="cls-5" d="M98,145.93l-.1-2.24,4.1,2.37L104,190.12l-3.24-1.87-1.11-5.88-.12-2.62-.05-1.07-.22-4.84Z"/><polygon class="cls-5" points="87.32 139.77 91.42 142.14 92.2 158.82 88.9 156.92 88.7 157.08 88.11 156.74 87.32 139.77"/><polygon class="cls-8" points="81.72 153.04 80.93 136.08 84.13 137.93 84.92 154.89 81.72 153.04"/><polygon class="cls-8" points="104.6 202.24 104.39 197.69 106.73 196.34 106.89 199.69 111.21 196.93 111.26 198 104.6 202.24"/><polygon class="cls-8" points="104.04 190.12 101.99 146.06 104.32 144.57 105.5 169.88 105.72 174.72 105.77 175.78 106.51 191.55 104.04 190.12"/><polygon class="cls-8" points="133.3 183.94 111.26 198 111.21 196.93 133.25 182.87 133.3 183.94"/><polygon class="cls-8" points="92.2 158.82 91.42 142.14 93.89 143.57 94.67 160.25 92.2 158.82"/><polygon class="cls-8" points="112.78 170.21 112.83 171.28 105.77 175.78 105.72 174.72 112.78 170.21"/><polygon class="cls-4" points="133.25 182.87 111.21 196.93 107.9 195.02 107.9 194.06 129.15 180.5 133.25 182.87"/><polygon class="cls-4" points="107.9 195.02 111.21 196.93 106.89 199.69 106.73 196.34 107.9 195.66 107.9 195.02"/><polygon class="cls-4" points="112.78 170.21 105.72 174.72 105.5 169.88 108.68 167.84 112.78 170.21"/><polygon class="cls-4" points="98.21 174.53 99.29 173.84 99.52 178.68 99.05 178.97 98.21 174.53"/><polygon class="cls-8" points="99.05 178.97 99.52 178.68 99.56 179.74 99.23 179.96 99.05 178.97"/><path class="cls-5" d="M82.95,131.4l.9.52A10,10,0,0,1,82.95,131.4Z"/><path class="cls-4" d="M83.82,131.94s16.4,10.27,16.4,10.27Z"/><polygon class="cls-9" points="55.81 222.43 48.7 226.53 48.7 218.31 55.81 222.43"/><polygon class="cls-10" points="55.81 222.43 48.7 218.31 48.7 211.5 58.27 217.03 55.81 222.43"/><polygon class="cls-9" points="37.82 225.05 9.85 208.91 14.01 206.51 14.01 198.72 14.38 198.5 37.82 212.03 37.82 225.05"/><polygon class="cls-10" points="14.38 198.5 16.84 193.1 34.21 203.13 34.23 204.33 37.82 206.4 37.82 212.03 14.38 198.5"/><polygon class="cls-10" points="37.82 206.4 34.23 204.33 34.21 203.13 34.01 186.77 37.82 188.97 37.82 206.4"/><polygon class="cls-11" points="16.84 193.1 32.22 185.74 34.01 186.77 34.21 203.13 16.84 193.1"/><polygon class="cls-7" points="14.01 206.51 9.85 208.91 9.85 172.83 14.01 175.22 14.01 198.72 14.01 206.51"/><polygon class="cls-9" points="87.58 212.68 71.7 221.85 74.25 209.38 62.14 202.39 62.44 198.17 87.58 212.68"/><polygon class="cls-10" points="87.58 204.09 87.58 212.68 62.44 198.17 62.51 197.2 50.99 190.55 50.04 191.01 49.84 190.9 49.83 190.1 49.57 189.95 56.33 186.05 65.97 191.61 66.86 194.95 73.35 198.7 73.35 195.87 87.58 204.09"/><path class="cls-10" d="M73.35,198.7,66.86,195l-.9-3.34-.76-2.84a12.14,12.14,0,0,0,5.34-.54Z"/><path class="cls-7" d="M73.35,195.87v2.82l-2.81-10.48a12.14,12.14,0,0,0,3.28-1.67l2.1,7.84Z"/><path class="cls-9" d="M73.35,195.87l2.57-1.49-2.1-7.84a8.45,8.45,0,0,0,2.63-3c1.19-2.56.21-3.22.13-4.52l.45,1.67a10,10,0,0,0-.48-2l-.05-.27a5,5,0,0,0-2-2.94l2.14-1.24,2.12,1.23,4.1,2.37,3.2,1.85,2.06,1.19.66.38,2.43,12.89L98,198.1l-10.38,6Z"/><polygon class="cls-10" points="97.96 198.1 91.23 194.22 88.81 181.33 88.67 180.61 86.42 168.67 91.83 165.55 97.96 198.1"/><path class="cls-9" d="M66,191.61,56.33,186l3.1-1.79a4.56,4.56,0,0,0,.37,1.19l-.33-1.21.06,0,.4,1.5a7,7,0,0,0,5.27,3.07Z"/><polygon class="cls-11" points="58.27 217.03 48.7 211.5 48.7 208.82 50.06 208.17 62.14 202.39 74.25 209.38 58.27 217.03"/><polygon class="cls-9" points="49.84 190.9 50.04 191.01 49.85 191.1 49.84 190.9"/><path class="cls-7" d="M48.7,226.54l-4.16,2.4V192.85l4.16-2.4v36.08Z"/><path class="cls-7" d="M100.36,199.17v.77l-.87-.5A7.83,7.83,0,0,1,100.36,199.17Z"/><polygon class="cls-9" points="100.8 188.25 101.18 188.47 100.87 188.65 100.8 188.25"/><path class="cls-9" d="M107.9,192.35l-5.71,3.3-1.32-7,.31-.18Z"/><polygon class="cls-7" points="102.19 195.65 98.11 198.93 97.96 198.1 102.19 195.65"/><path class="cls-7" d="M48.7,190.45l-4.16,2.4v-2.6l50.81-29.34v.1l-3.81,3.06.28,1.48-5.4,3.12-.83.48-3,1.75-3.89,2.24-2,1.16-2.14,1.24-1.72,1-11.5,6.64-1.72,1,0,0-.06,0L56.33,186l-6.76,3.9Z"/><polygon class="cls-7" points="91.83 165.55 91.55 164.08 95.36 161.01 95.36 163.51 91.83 165.55"/><path class="cls-10" d="M3.13,166.35V205s0,7.47,0,7.47v2.66l2.83,1.64,1.61.93v7.88l.54.31,30.82,17.8v-7l5.62,3.25V190.25ZM37.82,206.4v18.65l-28-16.15V172.83l4.15,2.4,18.21,10.51,1.78,1,3.81,2.2Z"/><polygon class="cls-7" points="60.74 140.93 60.94 140.77 60.99 141.08 60.74 140.93"/><path class="cls-11" d="M63.48,186.84a6.53,6.53,0,0,1-3.91-2.67l1.72-1c1.05,2,3.68,2.66,6,2.5,4-.27,8.48-3.63,7.06-7.34a4.05,4.05,0,0,0-1.55-1.8l1.72-1c2.9,2.15,3,6.06-.93,9.18A12.23,12.23,0,0,1,63.48,186.84Z"/><polygon class="cls-7" points="74.59 185.93 74.14 184.26 74.41 184.02 74.86 185.69 74.59 185.93"/><polygon class="cls-9" points="3.13 166.35 53.95 137.01 54.02 137.05 60.74 140.93 60.99 141.08 77.62 150.68 81.72 153.04 84.92 154.89 88.11 156.74 88.7 157.08 95.36 160.92 44.54 190.25 3.13 166.35"/><path class="cls-7" d="M76.55,178.76a5.77,5.77,0,0,1-1.66,4.76c-4.53,4.9-12.89,4.64-15.32.66l-.14.08s.25.93.26.95l.11.24a5.07,5.07,0,0,0,1.48,1.78c3.81,2.83,10,1.77,13.58-1.54C78,182.55,76.93,180.15,76.55,178.76Z"/><path class="cls-2" d="M61.29,183.18l11.5-6.64c3,2,2.34,6.13-2.29,8.31C67.34,186.35,62.75,185.93,61.29,183.18Z"/><polygon class="cls-2" points="50 203.18 49.85 191.1 49.84 190.9 49.83 190.1 48.7 190.78 48.7 203.81 48.7 208.82 50.06 208.17 62.14 202.39 62.44 198.17 62.51 197.2 50 203.18"/><polygon class="cls-11" points="49.83 190.1 48.7 190.78 48.7 190.45 49.57 189.95 49.83 190.1"/><polygon class="cls-11" points="62.51 197.2 50 203.18 49.85 191.1 50.04 191.01 50.99 190.55 62.51 197.2"/><path class="cls-7" d="M95.36,161l.27-.22,2.58,13.73L99,179l.18,1,.45,2.41,2.5,13.29L98,198.1l-6.13-32.54,3.53-2Z"/><polygon class="cls-5" points="78.78 175.54 78.67 173.15 82.55 170.91 82.88 177.91 78.78 175.54"/><polygon class="cls-8" points="82.88 177.91 82.55 170.91 85.59 169.16 86.08 179.75 82.88 177.91"/><polygon class="cls-4" points="88.14 180.94 88.67 180.61 88.81 181.33 88.14 180.94"/><path class="cls-7" d="M56.85,239.44a5.42,5.42,0,0,0-.3-1.88c0-6.84-8.08-5.89-12,2.39v-11l11.27-6.51,2.46-5.4,16-7.65L71.7,221.85l15.88-9.17v-8.6l10.38-6,.16.83,4.08-3.28,5.71-3.3v3.31l-5.71,3.3c-5.17-.18-11.88,6.58-13.61,14.84a15.27,15.27,0,0,0-.29,3.14,8.35,8.35,0,0,0,1,4.12L56.77,239.85A1.21,1.21,0,0,1,56.85,239.44Z"/><polygon class="cls-1" points="204.78 138.55 212.04 142.74 197.88 150.92 197.88 143.03 197.88 142.54 204.78 138.55"/><polygon class="cls-1" points="219.29 138.55 219.29 130.67 219.29 130.18 226.2 126.19 233.45 130.38 219.29 138.55"/><polygon class="cls-1" points="158.34 126.08 158.34 127.48 153.16 124.49 157.62 121.91 161.59 124.2 158.34 126.08"/><polygon class="cls-1" points="165.6 131.67 170.06 129.09 174.25 131.5 171 133.38 171 134.79 165.6 131.67"/><polygon class="cls-1" points="168.85 128.39 165.6 130.26 158.34 126.08 161.59 124.2 168.85 128.39"/><polygon class="cls-6" points="168.85 128.39 161.59 124.2 157.62 121.91 156.41 121.2 149.15 117.02 145.02 114.63 143.81 113.93 140.66 112.11 140.66 107.37 140.66 63.72 192.27 93.51 192.27 141.91 186.64 138.66 182.72 136.4 181.5 135.69 174.25 131.5 170.06 129.09 168.85 128.39"/><polygon class="cls-12" points="175.28 122.76 175.28 127.5 178.42 129.32 179.64 130.02 183.77 132.41 187.72 134.69 187.72 124.87 175.28 117.69 175.28 122.76"/><polygon class="cls-12" points="181.68 113.33 181.68 118.86 183.77 120.07 187.72 122.35 187.72 112.54 181.68 109.05 181.68 113.33"/><polygon class="cls-1" points="140.66 112.11 143.81 113.93 140.56 115.81 133.3 111.62 140.66 107.37 140.66 112.11"/><polygon class="cls-1" points="186.64 138.66 192.27 141.91 237.34 115.88 237.34 113.85 240.72 115.81 190.64 144.72 183.39 140.53 186.64 138.66"/><polygon class="cls-10" points="237.34 115.88 192.27 141.91 192.27 93.51 237.34 67.48 237.34 113.85 237.34 115.88"/><polygon class="cls-1" points="149.15 117.02 156.41 121.2 153.16 123.08 145.9 118.89 149.15 117.02"/><polygon class="cls-1" points="174.25 131.5 181.5 135.69 178.25 137.57 171 133.38 174.25 131.5"/><polygon class="cls-1" points="140.56 117.21 145.02 114.63 149.15 117.02 145.9 118.89 145.9 120.3 140.56 117.21"/><polygon class="cls-1" points="183.39 140.53 183.39 141.94 178.25 138.97 182.72 136.4 186.64 138.66 183.39 140.53"/><polygon class="cls-3" points="204.78 137.96 204.78 138.55 212.04 142.74 212.04 134.85 212.04 133.77 211.1 134.31 204.78 137.96"/><path class="cls-3" d="M183.39,141.94l-5.14-3v-1.41L171,133.38v1.41l-5.4-3.12v-1.41l-7.25-4.19v1.4l-5.19-3v-1.41l-7.25-4.19v1.4l-5.35-3.09V115.8l-7.25-4.19V113s0,1.09,0,1.09v9.29l7.25,4.19V118.3l6.83,3.94,1.22.7,9.74,5.62v9.29l7.25,4.19v-9.29l6.83,3.94,1.22.7,9.74,5.62v9.29l7.25,4.19V146.12s0-1.4,0-1.4l-7.25-4.19Z"/><polygon class="cls-3" points="232.52 121.95 226.2 125.6 226.2 126.19 233.45 130.38 233.45 122.49 233.45 121.41 232.52 121.95"/><polygon class="cls-11" points="165.58 132.76 165.58 140.64 165.58 142.05 173.63 137.4 172.41 136.7 165.58 132.76"/><polygon class="cls-11" points="153.16 123.08 153.16 124.49 157.62 121.91 156.41 121.2 153.16 123.08"/><polygon class="cls-11" points="168.85 128.39 165.6 130.26 165.6 131.67 170.06 129.09 168.85 128.39"/><polygon class="cls-11" points="143.81 113.93 140.56 115.8 140.56 117.21 145.02 114.63 143.81 113.93"/><path class="cls-11" d="M240.72,115.8l-50.08,28.92v1.39s0,1.11,0,1.11v9.29l50.08-28.92V117.22l-7.25,4.19v9l-14.16,8.18v-9l6.91-4,6.32-3.65.94-.54,7.27-4.2Zm-28.69,19v7.89l-14.16,8.18v-9l6.91-4,6.32-3.65.93-.54Z"/><polygon class="cls-11" points="178.25 137.57 178.25 138.97 182.72 136.4 181.5 135.69 178.25 137.57"/><polygon class="cls-11" points="140.54 118.3 140.54 126.19 140.54 127.59 148.58 122.95 147.37 122.24 140.54 118.3"/><polygon class="cls-9" points="140.66 63.72 185.74 37.69 237.34 67.48 192.27 93.51 140.66 63.72"/><polygon class="cls-1" points="301.12 155.94 296.15 153.07 293.43 151.5 292.59 151.02 287.62 148.15 284.79 146.51 283.95 146.03 281.8 144.79 281.8 141.53 281.8 111.61 317.17 132.03 317.17 165.21 313.31 162.98 310.63 161.43 309.79 160.95 304.82 158.08 301.95 156.42 301.12 155.94"/><polygon class="cls-11" points="348.07 147.37 317.17 165.21 317.17 132.03 348.07 114.19 348.07 145.98 348.07 147.37"/><polygon class="cls-12" points="281.8 111.61 312.7 93.77 348.07 114.19 317.17 132.03 281.8 111.61"/><polygon class="cls-1" points="260.97 187.58 268.22 191.76 254.06 199.94 254.06 192.06 254.06 191.57 260.97 187.58"/><polygon class="cls-1" points="275.48 187.58 275.48 179.69 275.48 179.2 282.39 175.21 289.64 179.4 275.48 187.58"/><polygon class="cls-1" points="214.53 175.1 214.53 176.51 209.34 173.51 213.81 170.93 217.78 173.22 214.53 175.1"/><polygon class="cls-1" points="221.78 180.7 226.25 178.12 230.43 180.53 227.18 182.41 227.18 183.81 221.78 180.7"/><polygon class="cls-1" points="225.03 177.41 221.78 179.29 214.53 175.1 217.78 173.22 225.03 177.41"/><polygon class="cls-6" points="225.03 177.41 217.78 173.22 213.81 170.93 212.59 170.23 205.34 166.04 201.21 163.66 199.99 162.95 196.85 161.14 196.85 156.39 196.85 112.74 248.45 142.53 248.45 190.93 242.82 187.68 238.91 185.42 237.69 184.72 230.43 180.53 226.25 178.12 225.03 177.41"/><polygon class="cls-12" points="231.47 171.78 231.47 176.53 234.61 178.34 235.83 179.05 239.96 181.43 243.91 183.71 243.91 173.9 231.47 166.71 231.47 171.78"/><polygon class="cls-12" points="237.87 162.35 237.87 167.89 239.96 169.1 243.91 171.38 243.91 161.56 237.87 158.07 237.87 162.35"/><polygon class="cls-1" points="196.85 161.14 199.99 162.95 196.74 164.83 189.49 160.64 196.85 156.39 196.85 161.14"/><polygon class="cls-1" points="242.82 187.68 248.45 190.93 293.53 164.91 293.53 162.88 296.91 164.83 246.83 193.75 239.57 189.56 242.82 187.68"/><polygon class="cls-10" points="293.53 164.91 248.45 190.93 248.45 142.53 293.53 116.51 293.53 162.88 293.53 164.91"/><polygon class="cls-1" points="205.34 166.04 212.59 170.23 209.34 172.1 202.09 167.92 205.34 166.04"/><polygon class="cls-1" points="230.43 180.53 237.69 184.72 234.44 186.59 227.18 182.41 230.43 180.53"/><polygon class="cls-1" points="196.74 166.24 201.21 163.66 205.34 166.04 202.09 167.92 202.09 169.32 196.74 166.24"/><polygon class="cls-1" points="239.57 189.56 239.57 190.97 234.44 188 238.91 185.42 242.82 187.68 239.57 189.56"/><polygon class="cls-3" points="260.97 186.99 260.97 187.58 268.22 191.76 268.22 183.88 268.22 182.8 267.29 183.34 260.97 186.99"/><path class="cls-3" d="M239.57,191l-5.14-3v-1.41l-7.25-4.19v1.41l-5.4-3.12v-1.41l-7.25-4.19v1.41l-5.19-3v-1.41l-7.25-4.19v1.4l-5.35-3.09v-1.41l-7.25-4.19V162s0,1.09,0,1.09v9.29l7.25,4.19v-9.29l6.83,3.94,1.22.7,9.74,5.62v9.29l7.25,4.19v-9.29l6.83,3.94,1.22.7,9.74,5.62v9.29l7.25,4.19V195.14s0-1.4,0-1.4l-7.25-4.19Z"/><polygon class="cls-3" points="288.7 170.97 282.39 174.62 282.39 175.21 289.64 179.4 289.64 171.51 289.64 170.44 288.7 170.97"/><polygon class="cls-11" points="221.77 181.78 221.77 189.67 221.77 191.08 229.81 186.43 228.59 185.73 221.77 181.78"/><polygon class="cls-11" points="209.34 172.1 209.34 173.51 213.81 170.93 212.59 170.23 209.34 172.1"/><polygon class="cls-11" points="225.03 177.41 221.78 179.29 221.78 180.7 226.25 178.12 225.03 177.41"/><polygon class="cls-11" points="199.99 162.95 196.74 164.83 196.74 166.24 201.21 163.66 199.99 162.95"/><path class="cls-11" d="M296.91,164.83l-50.09,28.92v1.39s0,1.11,0,1.11v9.29l50.09-28.92V166.25l-7.25,4.19v9l-14.16,8.18v-9l6.91-4L288.7,171l.94-.54,7.27-4.2Zm-28.69,19v7.89l-14.16,8.18v-9l6.91-4,6.32-3.65.93-.54Z"/><polygon class="cls-11" points="234.44 186.59 234.44 188 238.91 185.42 237.69 184.72 234.44 186.59"/><polygon class="cls-11" points="196.72 167.33 196.72 175.21 196.72 176.62 204.77 171.97 203.55 171.27 196.72 167.33"/><polygon class="cls-9" points="196.85 112.74 241.93 86.72 293.53 116.51 248.45 142.53 196.85 112.74"/><polygon class="cls-1" points="335.02 226.63 342.27 230.82 328.11 239 328.11 231.11 328.11 230.62 335.02 226.63"/><polygon class="cls-1" points="349.52 226.63 349.52 218.75 349.52 218.26 356.43 214.27 363.69 218.46 349.52 226.63"/><polygon class="cls-1" points="288.58 214.16 288.58 215.56 283.39 212.57 287.86 209.99 291.83 212.28 288.58 214.16"/><polygon class="cls-1" points="295.83 219.75 300.3 217.17 304.48 219.59 301.23 221.46 301.23 222.87 295.83 219.75"/><polygon class="cls-1" points="299.08 216.47 295.83 218.34 288.58 214.16 291.83 212.28 299.08 216.47"/><polygon class="cls-6" points="299.08 216.47 291.83 212.28 287.86 209.99 286.64 209.28 279.39 205.1 275.26 202.72 274.04 202.01 270.9 200.2 270.9 195.45 270.9 151.8 322.5 181.59 322.5 229.99 316.87 226.74 312.95 224.48 311.74 223.78 304.48 219.59 300.3 217.17 299.08 216.47"/><polygon class="cls-12" points="305.51 210.84 305.51 215.59 308.65 217.4 309.87 218.11 314 220.49 317.96 222.77 317.96 212.95 305.51 205.77 305.51 210.84"/><polygon class="cls-12" points="311.91 201.41 311.91 206.95 314 208.15 317.96 210.44 317.96 200.62 311.91 197.13 311.91 201.41"/><polygon class="cls-1" points="270.9 200.2 274.04 202.01 270.79 203.89 263.54 199.7 270.9 195.45 270.9 200.2"/><polygon class="cls-1" points="316.87 226.74 322.5 229.99 367.57 203.97 367.57 201.93 370.96 203.89 320.87 232.8 313.62 228.62 316.87 226.74"/><polygon class="cls-10" points="367.57 203.97 322.5 229.99 322.5 181.59 367.57 155.57 367.57 201.93 367.57 203.97"/><polygon class="cls-1" points="279.39 205.1 286.64 209.28 283.39 211.16 276.14 206.97 279.39 205.1"/><polygon class="cls-1" points="304.48 219.59 311.74 223.78 308.49 225.65 301.23 221.46 304.48 219.59"/><polygon class="cls-1" points="270.79 205.29 275.26 202.72 279.39 205.1 276.14 206.97 276.14 208.38 270.79 205.29"/><polygon class="cls-1" points="313.62 228.62 313.62 230.02 308.49 227.06 312.95 224.48 316.87 226.74 313.62 228.62"/><polygon class="cls-3" points="335.02 226.04 335.02 226.63 342.27 230.82 342.27 222.94 342.27 221.86 341.34 222.4 335.02 226.04"/><path class="cls-3" d="M313.62,230l-5.14-3v-1.41l-7.25-4.19v1.41l-5.4-3.12v-1.41l-7.25-4.19v1.4l-5.19-3v-1.41L276.14,207v1.41l-5.35-3.09v-1.41l-7.25-4.19v1.41s0,1.09,0,1.09v9.29l7.25,4.19v-9.29l6.83,3.94,1.22.7,9.74,5.62v9.29l7.25,4.19v-9.29l6.83,3.94,1.22.7,9.74,5.62v9.29l7.25,4.19V234.2s0-1.4,0-1.4l-7.25-4.19Z"/><polygon class="cls-3" points="362.75 210.03 356.43 213.68 356.43 214.27 363.69 218.46 363.69 210.57 363.69 209.49 362.75 210.03"/><polygon class="cls-11" points="295.81 220.84 295.81 228.73 295.81 230.13 303.86 225.49 302.64 224.78 295.81 220.84"/><polygon class="cls-11" points="283.39 211.16 283.39 212.57 287.86 209.99 286.64 209.28 283.39 211.16"/><polygon class="cls-11" points="299.08 216.47 295.83 218.35 295.83 219.75 300.3 217.17 299.08 216.47"/><polygon class="cls-11" points="274.04 202.01 270.79 203.89 270.79 205.29 275.26 202.72 274.04 202.01"/><path class="cls-11" d="M371,203.89,320.87,232.8v1.39s0,1.11,0,1.11v9.29l50.09-28.92V205.3l-7.25,4.19v9l-14.16,8.18v-9l6.91-4,6.32-3.65.94-.54,7.27-4.2Zm-28.69,19v7.89L328.11,239v-9l6.91-4,6.32-3.65.93-.54Z"/><polygon class="cls-11" points="308.49 225.65 308.49 227.06 312.95 224.48 311.74 223.78 308.49 225.65"/><polygon class="cls-11" points="270.77 206.38 270.77 214.27 270.77 215.68 278.82 211.03 277.6 210.33 270.77 206.38"/><polygon class="cls-9" points="270.9 151.8 315.97 125.77 367.57 155.57 322.5 181.59 270.9 151.8"/><polygon class="cls-1" points="178.95 68.12 173.71 65.09 170.84 63.44 169.97 62.93 164.73 59.91 161.75 58.18 160.87 57.68 158.6 56.37 158.6 52.94 158.6 21.42 195.86 42.93 195.86 77.88 191.79 75.53 188.97 73.9 188.09 73.39 182.85 70.37 179.83 68.63 178.95 68.12"/><polygon class="cls-11" points="228.41 59.09 195.86 77.88 195.86 42.93 228.41 24.14 228.41 57.62 228.41 59.09"/><polygon class="cls-12" points="158.6 21.42 191.15 2.62 228.41 24.14 195.86 42.93 158.6 21.42"/><polygon class="cls-5" points="235.47 124.73 228.22 120.55 224.25 118.25 223.03 117.55 215.78 113.36 211.65 110.98 210.43 110.28 207.29 108.46 207.29 103.72 207.29 60.06 258.89 89.86 258.89 138.25 253.26 135 249.34 132.74 248.13 132.04 240.87 127.85 236.69 125.44 235.47 124.73"/><polygon class="cls-8" points="303.96 112.23 258.89 138.25 258.89 89.86 303.96 63.83 303.96 110.2 303.96 112.23"/><polygon class="cls-4" points="207.29 60.06 252.36 34.04 303.96 63.83 258.89 89.86 207.29 60.06"/><polygon class="cls-6" points="237.66 62.17 232.69 59.3 229.97 57.73 229.13 57.25 224.16 54.38 221.33 52.74 220.5 52.26 218.34 51.02 218.34 47.76 218.34 17.84 253.72 38.26 253.72 71.44 249.86 69.21 247.17 67.66 246.34 67.18 241.36 64.31 238.5 62.65 237.66 62.17"/><polygon class="cls-10" points="284.61 53.6 253.72 71.44 253.72 38.26 284.61 20.42 284.61 52.21 284.61 53.6"/><polygon class="cls-9" points="218.34 17.84 249.24 0 284.61 20.42 253.72 38.26 218.34 17.84"/><polygon class="cls-5" points="239.9 231.55 234.93 228.68 232.21 227.11 231.37 226.63 226.4 223.75 223.57 222.12 222.73 221.64 220.58 220.39 220.58 217.14 220.58 187.22 255.95 207.64 255.95 240.82 252.09 238.59 249.41 237.04 248.57 236.56 243.6 233.69 240.73 232.03 239.9 231.55"/><polygon class="cls-8" points="286.85 222.98 255.95 240.82 255.95 207.64 286.85 189.8 286.85 221.59 286.85 222.98"/><polygon class="cls-4" points="220.58 187.22 251.48 169.38 286.85 189.8 255.95 207.64 220.58 187.22"/></g></g></svg>