<svg xmlns="http://www.w3.org/2000/svg" viewBox="0 0 82.5 82.5"><defs><style>.cls-1{fill:none;stroke:#0f0f0f;stroke-linecap:round;stroke-linejoin:round;stroke-width:2.5px;}</style></defs><title>Ресурс 1</title><g id="Слой_2" data-name="Слой 2"><g id="Layer_2" data-name="Layer 2"><line class="cls-1" x1="41.25" y1="15.24" x2="41.25" y2="1.25"/><line class="cls-1" x1="20.44" y1="20.44" x2="16.21" y2="16.21"/><line class="cls-1" x1="62.06" y1="62.06" x2="66.29" y2="66.29"/><line class="cls-1" x1="20.44" y1="62.06" x2="16.21" y2="66.29"/><line class="cls-1" x1="62.06" y1="20.44" x2="66.29" y2="16.21"/><polyline class="cls-1" points="45.69 6.68 41.25 1.25 36.81 6.68"/><line class="cls-1" x1="41.25" y1="67.26" x2="41.25" y2="81.25"/><polyline class="cls-1" points="36.81 75.82 41.25 81.25 45.69 75.82"/><line class="cls-1" x1="15.24" y1="41.25" x2="1.25" y2="41.25"/><polyline class="cls-1" points="6.68 36.81 1.25 41.25 6.68 45.69"/><line class="cls-1" x1="67.26" y1="41.25" x2="81.25" y2="41.25"/><polyline class="cls-1" points="75.82 45.69 81.25 41.25 75.82 36.81"/><polyline class="cls-1" points="58.09 40.7 58.09 50.27 41.53 58.56 23.93 50.27 23.93 40.79"/><polyline class="cls-1" points="23.93 31.64 41.53 38.88 58.09 31.64"/><line class="cls-1" x1="41.53" y1="38.89" x2="41.53" y2="58.56"/><polyline class="cls-1" points="41.53 38.88 36.35 46.65 18.75 38.37 23.93 31.64"/><polyline class="cls-1" points="23.93 31.64 41.01 25.94 58.09 31.64"/><polyline class="cls-1" points="58.09 31.64 62.75 38.37 47.22 46.13 41.53 38.88"/><line class="cls-1" x1="41.01" y1="25.94" x2="41.01" y2="33.19"/></g></g></svg>