<svg xmlns="http://www.w3.org/2000/svg" viewBox="0 0 82.5 67.48"><defs><style>.cls-1{fill:none;stroke:#0f0f0f;stroke-linecap:round;stroke-linejoin:round;stroke-width:2.5px;}</style></defs><title>Ресурс 12</title><g id="Слой_2" data-name="Слой 2"><g id="Layer_2" data-name="Layer 2"><path class="cls-1" d="M67.3,66.23s-14-10.95-14-25.25a14,14,0,0,1,27.91,0C81.25,55.28,67.3,66.23,67.3,66.23Z"/><ellipse class="cls-1" cx="67.3" cy="40.98" rx="7.26" ry="6.98"/><polyline class="cls-1" points="52.72 58.03 36.32 66.23 1.25 49.73 1.25 12.6 36.32 27.04 69.32 12.6 69.32 21.7"/><polyline class="cls-1" points="1.25 12.6 35.29 1.25 69.32 12.6"/><line class="cls-1" x1="18" y1="19.49" x2="50.49" y2="6.32"/><line class="cls-1" x1="36.32" y1="27.03" x2="36.32" y2="66.23"/><polyline class="cls-1" points="50.49 52.95 36.32 60.04 1.25 43.54"/><line class="cls-1" x1="6.41" y1="52.15" x2="6.41" y2="45.96"/><line class="cls-1" x1="30.13" y1="63.31" x2="30.13" y2="57.13"/><line class="cls-1" x1="42.51" y1="63.13" x2="42.51" y2="56.94"/></g></g></svg>