<svg xmlns="http://www.w3.org/2000/svg" viewBox="0 0 82.5 55.34"><defs><style>.cls-1{fill:none;stroke:#0f0f0f;stroke-linecap:round;stroke-linejoin:round;stroke-width:2.5px;}</style></defs><title>Ресурс 6</title><g id="Слой_2" data-name="Слой 2"><g id="Layer_2" data-name="Layer 2"><path class="cls-1" d="M47.92,49H80.7a.55.55,0,0,1,.55.55v1.69a2.88,2.88,0,0,1-2.88,2.88H4.13A2.88,2.88,0,0,1,1.25,51.2V49.52A.55.55,0,0,1,1.8,49H35.92"/><line class="cls-1" x1="40.04" y1="5.22" x2="42.46" y2="5.22"/><line class="cls-1" x1="8.93" y1="9.02" x2="73.57" y2="9.02"/><path class="cls-1" d="M1.65,49l7.27-8.11V7.11a5.86,5.86,0,0,1,5.86-5.86H67.71a5.86,5.86,0,0,1,5.86,5.86V40.89L80.85,49"/><line class="cls-1" x1="63.47" y1="40.91" x2="73.57" y2="40.91"/><line class="cls-1" x1="8.93" y1="40.91" x2="19.03" y2="40.91"/><line class="cls-1" x1="23.07" y1="45.2" x2="24.68" y2="45.2"/><line class="cls-1" x1="11.76" y1="45.2" x2="13.37" y2="45.2"/><line class="cls-1" x1="17.41" y1="45.2" x2="19.03" y2="45.2"/><line class="cls-1" x1="63.47" y1="45.2" x2="65.09" y2="45.2"/><line class="cls-1" x1="69.13" y1="45.2" x2="70.74" y2="45.2"/><line class="cls-1" x1="57.82" y1="45.2" x2="59.43" y2="45.2"/><polyline class="cls-1" points="57.02 31.35 57.02 40.05 41.96 46.41 25.96 40.05 25.96 31.43"/><polyline class="cls-1" points="25.96 23.11 41.96 29.7 57.02 23.11"/><line class="cls-1" x1="41.96" y1="29.7" x2="41.96" y2="46.4"/><polyline class="cls-1" points="41.96 29.7 37.25 36.76 21.25 29.23 25.96 23.11"/><polyline class="cls-1" points="25.96 23.11 41.48 17.93 57.02 23.11"/><polyline class="cls-1" points="57.02 23.11 61.25 29.23 47.13 36.29 41.96 29.7"/><line class="cls-1" x1="41.49" y1="17.93" x2="41.49" y2="24.52"/></g></g></svg>