<svg xmlns="http://www.w3.org/2000/svg" viewBox="0 0 49.15 82.5"><defs><style>.cls-1{fill:none;stroke:#0f0f0f;stroke-linecap:round;stroke-linejoin:round;stroke-width:2.5px;}</style></defs><title>Ресурс 8</title><g id="Слой_2" data-name="Слой 2"><g id="Layer_2" data-name="Layer 2"><path class="cls-1" d="M36.82,32.31c-1.71,6.18-6.54,12.36-12.24,12.36S14,38.44,12.31,32.24"/><path class="cls-1" d="M25.66,9.48"/><line class="cls-1" x1="12.59" y1="63.98" x2="12.59" y2="76.53"/><line class="cls-1" x1="36.56" y1="63.98" x2="36.56" y2="76.53"/><path class="cls-1" d="M17.92,50.51c1.66-1.37,1.66-7.37,1.66-7.37"/><path class="cls-1" d="M31.23,50.51c-1.66-1.37-1.66-7.37-1.66-7.37"/><path class="cls-1" d="M24.19,9.48c12.19,0,17.37,4.55,13.49,22.31a.69.69,0,0,1-1.35,0c-.71-2.61-1.7-7.9-1.7-7.9a1.19,1.19,0,0,0-1.25-1.09c-4.28,0-9-2.75-9-2.75a.84.84,0,0,0-1,.93l1.78,4.77L17.18,21.6a1.88,1.88,0,0,0-2.26.39l-2.1,9.76a.69.69,0,0,1-1.35,0C7.61,14,12.72,9.48,24.89,9.48"/><polyline class="cls-1" points="25.86 59.59 28.58 76.6 24.58 81.25 20.58 76.6 23.3 59.58"/><path class="cls-1" d="M14.57,51.38,19.45,59,24,54.43l-6.08-3.92c-11,2.32-15.78,7.62-15.78,18.12v4.21a3.69,3.69,0,0,0,3.69,3.69H20.58"/><path class="cls-1" d="M34.58,51.37,29.7,59l-4.55-4.55,6.08-3.92C42.23,52.83,47,58.14,47,68.63v4.21a3.69,3.69,0,0,1-3.69,3.69H28.58"/><circle class="cls-1" cx="24.58" cy="57.44" r="2.5"/><path class="cls-1" d="M9,35.91H9a2.78,2.78,0,0,0,2-3.31L9.21,24.26A2.68,2.68,0,0,0,6,22.15H6a2.78,2.78,0,0,0-2,3.31L4.53,28,5.77,33.8A2.68,2.68,0,0,0,9,35.91Z"/><path class="cls-1" d="M3.94,25.17,1.87,26.61a1.22,1.22,0,0,0-.6,1.23l0,.21,1,4.8a1.17,1.17,0,0,0,1,.85l2.48.42"/><path class="cls-1" d="M40.19,35.91h0a2.78,2.78,0,0,1-2-3.31l1.78-8.34a2.68,2.68,0,0,1,3.19-2.11h0a2.78,2.78,0,0,1,2,3.31L44.62,28,43.38,33.8A2.68,2.68,0,0,1,40.19,35.91Z"/><path class="cls-1" d="M45.21,25.17l2.07,1.44a1.22,1.22,0,0,1,.6,1.23l0,.21-1,4.8a1.17,1.17,0,0,1-1,.85l-2.48.42"/><path class="cls-1" d="M3.76,25.29A22.82,22.82,0,0,1,3.64,23C3.64,11,13,1.25,24.58,1.25S45.51,11,45.51,23a22.82,22.82,0,0,1-.12,2.31"/><path class="cls-1" d="M8.88,35.94c2.69,5.38,13.34,2.87,13.34,2.87"/><path class="cls-1" d="M26.23,39.93l-2.52.4a1.26,1.26,0,0,1-1.43-1.09l-.17-1.14a1.29,1.29,0,0,1,1-1.48l2.52-.4a1.26,1.26,0,0,1,1.43,1.09l.17,1.14A1.29,1.29,0,0,1,26.23,39.93Z"/></g></g></svg>