<svg xmlns="http://www.w3.org/2000/svg" xmlns:xlink="http://www.w3.org/1999/xlink" viewBox="0 0 288.64 223.48"><defs><style>.cls-1{fill:none;}.cls-2{isolation:isolate;}.cls-3{fill:#e4ecf5;}.cls-4{fill:#fff;}.cls-5{fill:#bdf291;}.cls-6{fill:#d2e4f7;}.cls-30,.cls-32,.cls-6,.cls-94{mix-blend-mode:multiply;}.cls-7{fill:#b8cbe0;}.cls-8{fill:#ff624d;}.cls-9{fill:#8daccc;}.cls-10{fill:#7b99b8;}.cls-11{fill:#cedef0;}.cls-12{fill:#7996b5;}.cls-13{fill:#6788ab;}.cls-14{fill:#4d637a;}.cls-15{fill:#ba3e2f;}.cls-16{fill:#596e85;}.cls-17{fill:#2b3845;}.cls-18{fill:#5c7a99;}.cls-19{fill:#738fad;}.cls-20{fill:#3e4d5d;}.cls-21{fill:#f2f6fa;}.cls-22{clip-path:url(#clip-path);}.cls-23{fill:#ccdbeb;}.cls-24{fill:#ffc936;}.cls-25{fill:#25303b;}.cls-26{fill:#3f546e;}.cls-27{clip-path:url(#clip-path-2);}.cls-28{fill:#a9bed6;}.cls-29{fill:#89a8c7;}.cls-30{fill:#d9e8f7;}.cls-31{fill:#99bbde;}.cls-33{opacity:0;}.cls-34{opacity:0.04;}.cls-35{fill:#fdf8f8;}.cls-36{opacity:0.08;}.cls-37{fill:#fcf1f0;}.cls-38{opacity:0.12;}.cls-39{fill:#faeae9;}.cls-40{opacity:0.15;}.cls-41{fill:#f8e3e1;}.cls-42{opacity:0.19;}.cls-43{fill:#f7ddda;}.cls-44{opacity:0.23;}.cls-45{fill:#f5d6d2;}.cls-46{opacity:0.27;}.cls-47{fill:#f3cfcb;}.cls-48{opacity:0.31;}.cls-49{fill:#f2c8c4;}.cls-50{opacity:0.35;}.cls-51{fill:#f0c1bc;}.cls-52{opacity:0.38;}.cls-53{fill:#eebab5;}.cls-54{opacity:0.42;}.cls-55{fill:#edb3ad;}.cls-56{opacity:0.46;}.cls-57{fill:#ebaca6;}.cls-58{opacity:0.5;}.cls-59{fill:#eaa69f;}.cls-60{opacity:0.54;}.cls-61{fill:#e89f97;}.cls-62{opacity:0.58;}.cls-63{fill:#e69890;}.cls-64{opacity:0.62;}.cls-65{fill:#e59188;}.cls-66{opacity:0.65;}.cls-67{fill:#e38a81;}.cls-68{opacity:0.69;}.cls-69{fill:#e18379;}.cls-70{opacity:0.73;}.cls-71{fill:#e07c72;}.cls-72{opacity:0.77;}.cls-73{fill:#de756b;}.cls-74{opacity:0.81;}.cls-75{fill:#dc6e63;}.cls-76{opacity:0.85;}.cls-77{fill:#db685c;}.cls-78{opacity:0.88;}.cls-79{fill:#d96154;}.cls-80{opacity:0.92;}.cls-81{fill:#d75a4d;}.cls-82{opacity:0.96;}.cls-83{fill:#d65345;}.cls-84{fill:#d44c3e;}.cls-85{clip-path:url(#clip-path-3);}.cls-86{fill:#84a1bf;}.cls-87{fill:#465f7a;}.cls-88{clip-path:url(#clip-path-4);}.cls-89{fill:#577391;}.cls-90,.cls-94{fill:#45596e;}.cls-91{fill:#3a4a5d;}.cls-92{fill:#516c8a;}.cls-93{fill:#3d4f61;}.cls-95{fill:url(#linear-gradient);}.cls-96{fill:#8a99a8;}.cls-97{fill:url(#linear-gradient-2);}.cls-98{fill:url(#linear-gradient-3);}.cls-99{fill:#899eb5;}.cls-100{fill:#b0c2d6;}</style><clipPath id="clip-path"><polygon class="cls-1" points="220.66 124.48 219.43 152.02 238.82 140.75 239.03 113.87 220.66 124.48"/></clipPath><clipPath id="clip-path-2"><polygon class="cls-1" points="178.52 148.82 177.29 176.36 196.68 165.09 196.89 138.21 178.52 148.82"/></clipPath><clipPath id="clip-path-3"><polygon class="cls-1" points="209.29 19.46 105.25 79.58 52.24 62.09 156.33 1.97 209.29 19.46"/></clipPath><clipPath id="clip-path-4"><polygon class="cls-1" points="257.12 60.8 153.08 120.92 105.25 79.58 209.29 19.46 257.12 60.8"/></clipPath><linearGradient id="linear-gradient" x1="144.83" y1="149.47" x2="149.54" y2="149.47" gradientUnits="userSpaceOnUse"><stop offset="0" stop-color="#b8cbe0"/><stop offset="0.12" stop-color="#bdcfe2"/><stop offset="0.26" stop-color="#cddae9"/><stop offset="0.43" stop-color="#e7edf4"/><stop offset="0.55" stop-color="#fff"/></linearGradient><linearGradient id="linear-gradient-2" x1="146.32" y1="147.4" x2="148.03" y2="147.4" gradientUnits="userSpaceOnUse"><stop offset="0" stop-color="#99a8ba"/><stop offset="0.17" stop-color="#9dadbf"/><stop offset="0.39" stop-color="#aabbcf"/><stop offset="0.55" stop-color="#b8cbe0"/></linearGradient><linearGradient id="linear-gradient-3" x1="151.53" y1="144.83" x2="150.33" y2="142.36" gradientUnits="userSpaceOnUse"><stop offset="0" stop-color="#9babbd"/><stop offset="0.09" stop-color="#a0b0c1"/><stop offset="0.2" stop-color="#b0bece"/><stop offset="0.32" stop-color="#cad5e2"/><stop offset="0.44" stop-color="#e9f1fa"/></linearGradient></defs><title>i10</title><g class="cls-2"><g id="Слой_2" data-name="Слой 2"><g id="_лой_1" data-name="—лой_1"><g id="building"><polygon class="cls-3" points="288.64 127.99 123.15 223.48 0 152.76 165.49 57.26 288.64 127.99"/><polygon class="cls-4" points="84.89 183.68 113.44 167.33 114.64 168.03 86.09 184.38 84.89 183.68"/><polygon class="cls-4" points="103.67 194.39 132.23 178.04 133.43 178.73 104.88 195.08 103.67 194.39"/><polygon class="cls-4" points="122.36 205.06 150.92 188.71 152.12 189.41 123.56 205.76 122.36 205.06"/><path class="cls-4" d="M120,179.91a1.06,1.06,0,0,0-.4-.38l-8.06-4.65a1.79,1.79,0,0,0-1.68,0l-8,4.66a.81.81,0,0,0-.39,1.12,1.07,1.07,0,0,0,.4.38L110,185.7a1.73,1.73,0,0,0,1.62,0l8.07-4.66A.83.83,0,0,0,120,179.91Zm-.67.61-8.07,4.66a1.13,1.13,0,0,1-1,0l-8.09-4.67a.49.49,0,0,1-.18-.16c-.07-.13.08-.24.18-.3l8-4.65a1.2,1.2,0,0,1,1.08,0l8.06,4.65a.49.49,0,0,1,.18.16C119.57,180.33,119.44,180.46,119.34,180.52Z"/><path class="cls-4" d="M114.2,178.3l-1.9-1.1-6.88,4,1.17.67,1.94-1.12.73.42C113.05,183.34,118,180.49,114.2,178.3Zm-3.93,2.27-.74-.42,2.92-1.68.74.42C115.43,180.18,112.51,181.86,110.27,180.57Z"/><polygon class="cls-5" points="73.8 121.53 26.08 149.5 15.98 143.67 63.7 115.69 73.8 121.53"/><polygon class="cls-6" points="152.12 189.41 127.65 180.27 92.74 160.15 81.14 167.06 91.79 173.61 89.99 174.66 87.29 173.65 35.63 143.91 50.23 135.35 40.07 129.55 164.17 56.34 152.12 189.41"/><polygon class="cls-5" points="216.2 105.5 263.92 133.48 281.48 123.67 233.76 95.7 216.2 105.5"/><polygon class="cls-7" points="152.12 120.07 152.12 189.41 108.3 164.4 108.3 159.38 66.86 135.49 62.03 137.75 53.98 133.19 53.98 63.86 62.03 66.77 105.25 82.39 108.3 84.85 152.12 120.07"/><polygon class="cls-8" points="66.86 135.49 62.03 137.75 62.03 67.17 66.86 69.33 66.86 135.49"/><polygon class="cls-9" points="108.3 83.11 108.3 159.38 66.86 135.49 66.86 69.33 108.3 83.11"/><polygon class="cls-10" points="67.46 135.1 67.46 69.53 66.86 69.33 66.86 135.49 108.3 159.38 108.3 158.64 67.46 135.1"/><polygon class="cls-6" points="108.3 83.11 108.3 89.37 103.94 86.07 66.86 73.59 66.86 69.33 108.3 83.11"/><polygon class="cls-11" points="256.16 129.28 152.12 189.41 152.12 120.07 256.16 59.95 256.16 129.28"/><polygon class="cls-12" points="256.16 129.28 152.12 189.41 152.12 181.28 256.16 121.16 256.16 129.28"/><polygon class="cls-13" points="77.33 141.53 76.7 141.94 75.67 69.71 77.33 70.67 77.33 141.53"/><polygon class="cls-14" points="76.7 141.94 75.03 140.97 75.03 69.71 76.7 70.67 76.7 141.94"/><polygon class="cls-13" points="98.46 153.73 97.82 154.13 96.79 79.18 98.46 80.15 98.46 153.73"/><polygon class="cls-14" points="97.82 154.13 96.15 153.17 96.37 78.94 98.04 79.9 97.82 154.13"/><polygon class="cls-13" points="88.18 108.28 86.52 107.32 86.52 75.61 88.18 76.57 88.18 108.28"/><polygon class="cls-14" points="87.58 107.77 85.91 106.81 85.91 75.1 87.58 76.06 87.58 107.77"/><polygon class="cls-15" points="152.12 120.07 152.12 189.41 108.3 164.4 108.3 84.85 152.12 120.07"/><polygon class="cls-15" points="62.03 66.77 62.03 137.75 53.98 133.19 53.98 63.86 62.03 66.77"/><polygon class="cls-6" points="108.3 126.14 100.85 155.09 98.47 153.71 97.82 154.13 96.15 153.17 96.14 152.37 77.33 141.53 76.7 141.94 75.03 140.97 75.03 140.2 66.86 135.49 62.03 137.75 53.98 133.19 66.86 99.3 108.3 126.14"/><polygon class="cls-16" points="257.12 64.33 153.08 124.45 153.08 120.92 257.12 60.8 257.12 64.33"/><polygon class="cls-17" points="105.25 79.58 105.81 80.06 105.25 83.11 52.24 65.62 52.24 62.09 105.25 79.58"/><polygon class="cls-17" points="153.08 120.92 153.08 124.45 105.1 83.06 105.25 79.58 153.08 120.92"/><polygon class="cls-18" points="209.29 19.46 105.25 79.58 52.24 62.09 156.33 1.97 209.29 19.46"/><polygon class="cls-19" points="257.12 60.8 153.08 120.92 105.25 79.58 209.29 19.46 257.12 60.8"/><polygon class="cls-19" points="246.44 104.04 242.77 101.9 212.3 119.49 215.92 122.74 246.44 104.04"/><polygon class="cls-20" points="214.41 155.93 212.3 154.69 212.3 119.49 216.2 121.79 214.41 155.93"/><polygon class="cls-16" points="244.87 138.34 240 141.16 238.83 140.35 219.44 151.7 219.34 153.08 214.41 155.93 215.97 121.63 246.44 104.04 244.87 138.34"/><polygon class="cls-20" points="241.23 112.61 238.6 114.12 238.82 140.75 240 141.16 241.23 112.61"/><polygon class="cls-21" points="220.66 124.48 219.43 152.02 238.82 140.75 239.03 113.87 220.66 124.48"/><g class="cls-22"><rect class="cls-4" x="217.36" y="122.99" width="24.72" height="0.3" transform="translate(-30.8 131.2) rotate(-29.96)"/><rect class="cls-4" x="217.11" y="127.56" width="24.72" height="0.3" transform="translate(-33.12 131.68) rotate(-29.96)"/><polygon class="cls-4" points="218.66 138.56 218.51 138.3 239.94 125.97 240.09 126.23 218.66 138.56"/><polygon class="cls-4" points="218.5 143.1 218.35 142.84 239.77 130.51 239.92 130.77 218.5 143.1"/><rect class="cls-4" x="216.58" y="141.15" width="24.72" height="0.3" transform="translate(-39.98 133.27) rotate(-29.97)"/><polygon class="cls-23" points="219.16 129.7 219.01 129.44 240.43 117.11 240.58 117.37 219.16 129.7"/><polygon class="cls-23" points="218.91 134.28 218.76 134.01 240.18 121.69 240.33 121.95 218.91 134.28"/><polygon class="cls-23" points="218.74 138.83 218.59 138.57 240.01 126.24 240.16 126.5 218.74 138.83"/><polygon class="cls-23" points="218.57 143.37 218.42 143.11 239.85 130.78 240 131.04 218.57 143.37"/><polygon class="cls-23" points="218.38 147.87 218.23 147.61 239.65 135.28 239.8 135.54 218.38 147.87"/></g><polygon class="cls-24" points="219.36 128.8 218.53 129.28 218.62 127.33 219.45 126.85 219.36 128.8"/><polygon class="cls-24" points="219.23 131.9 218.4 132.38 218.48 130.43 219.31 129.95 219.23 131.9"/><polygon class="cls-24" points="219.1 135.01 218.26 135.49 218.35 133.53 219.18 133.06 219.1 135.01"/><polygon class="cls-24" points="218.97 138.11 218.13 138.59 218.22 136.64 219.05 136.16 218.97 138.11"/><polygon class="cls-24" points="218.83 141.22 218 141.7 218.09 139.74 218.92 139.26 218.83 141.22"/><polygon class="cls-24" points="218.7 144.32 217.87 144.8 217.96 142.85 218.79 142.37 218.7 144.32"/><polygon class="cls-24" points="218.57 147.42 217.74 147.9 217.82 145.95 218.66 145.47 218.57 147.42"/><polygon class="cls-24" points="218.44 150.53 217.61 151.01 217.69 149.06 218.53 148.58 218.44 150.53"/><polygon class="cls-24" points="243.02 115.42 242.19 115.9 242.27 113.94 243.1 113.47 243.02 115.42"/><polygon class="cls-24" points="242.89 118.52 242.06 119 242.14 117.05 242.97 116.57 242.89 118.52"/><polygon class="cls-24" points="242.75 121.63 241.92 122.11 242.01 120.15 242.84 119.67 242.75 121.63"/><polygon class="cls-24" points="242.62 124.73 241.79 125.21 241.88 123.26 242.71 122.78 242.62 124.73"/><polygon class="cls-24" points="242.49 127.83 241.66 128.31 241.75 126.36 242.58 125.88 242.49 127.83"/><polygon class="cls-24" points="242.36 130.94 241.53 131.42 241.61 129.47 242.45 128.99 242.36 130.94"/><polygon class="cls-24" points="242.23 134.04 241.4 134.52 241.48 132.57 242.31 132.09 242.23 134.04"/><polygon class="cls-24" points="242.1 137.15 241.26 137.63 241.35 135.67 242.18 135.19 242.1 137.15"/><path class="cls-25" d="M233.53,117.3s0,.56-1,1.15a3.44,3.44,0,0,1-2.84.14l-.13-.08a3.16,3.16,0,0,1,1.66-2.24C232.05,115.8,233.53,116.45,233.53,117.3Z"/><path class="cls-26" d="M232.9,116.64c.05.11-.63.16-1.07.36s-1,.63-1.06.52.41-.78.87-.93A1.53,1.53,0,0,1,232.9,116.64Z"/><polygon class="cls-19" points="204.3 128.38 200.63 126.24 170.16 143.83 173.78 147.07 204.3 128.38"/><polygon class="cls-20" points="172.27 180.27 170.16 179.03 170.16 143.83 174.06 146.13 172.27 180.27"/><polygon class="cls-16" points="202.73 162.68 197.86 165.5 196.69 164.29 177.29 175.38 177.2 177.43 172.27 180.27 173.83 145.97 204.3 128.38 202.73 162.68"/><polygon class="cls-20" points="199.09 136.94 196.46 138.46 196.68 165.09 197.86 165.5 199.09 136.94"/><polygon class="cls-21" points="178.52 148.82 177.29 176.36 196.68 165.09 196.89 138.21 178.52 148.82"/><g class="cls-27"><polygon class="cls-4" points="176.81 153.83 176.66 153.57 198.09 141.25 198.24 141.51 176.81 153.83"/><polygon class="cls-4" points="176.56 158.41 176.41 158.15 197.84 145.82 197.99 146.08 176.56 158.41"/><rect class="cls-4" x="174.67" y="156.52" width="24.72" height="0.3" transform="translate(-53.25 114.36) rotate(-29.96)"/><polygon class="cls-4" points="176.23 167.5 176.08 167.24 197.5 154.91 197.65 155.18 176.23 167.5"/><polygon class="cls-4" points="176.03 172 175.88 171.74 197.31 159.41 197.46 159.68 176.03 172"/><polygon class="cls-23" points="177.02 154.04 176.87 153.78 198.29 141.45 198.44 141.71 177.02 154.04"/><polygon class="cls-23" points="176.77 158.62 176.62 158.35 198.04 146.03 198.19 146.29 176.77 158.62"/><polygon class="cls-23" points="176.6 163.17 176.45 162.91 197.88 150.58 198.03 150.84 176.6 163.17"/><polygon class="cls-23" points="176.43 167.71 176.28 167.45 197.71 155.12 197.86 155.38 176.43 167.71"/><polygon class="cls-23" points="176.24 172.21 176.09 171.95 197.51 159.62 197.66 159.88 176.24 172.21"/></g><polygon class="cls-24" points="177.18 153.01 176.35 153.49 176.44 151.53 177.27 151.06 177.18 153.01"/><polygon class="cls-24" points="177.05 156.11 176.22 156.59 176.31 154.64 177.14 154.16 177.05 156.11"/><polygon class="cls-24" points="176.92 159.22 176.09 159.7 176.17 157.74 177 157.26 176.92 159.22"/><polygon class="cls-24" points="176.79 162.32 175.96 162.8 176.04 160.85 176.87 160.37 176.79 162.32"/><polygon class="cls-24" points="176.66 165.42 175.82 165.9 175.91 163.95 176.74 163.47 176.66 165.42"/><polygon class="cls-24" points="176.52 168.53 175.69 169.01 175.78 167.06 176.61 166.58 176.52 168.53"/><polygon class="cls-24" points="176.39 171.63 175.56 172.11 175.65 170.16 176.48 169.68 176.39 171.63"/><polygon class="cls-24" points="176.26 174.74 175.43 175.22 175.51 173.26 176.35 172.78 176.26 174.74"/><polygon class="cls-24" points="200.84 139.63 200.01 140.1 200.09 138.15 200.93 137.67 200.84 139.63"/><polygon class="cls-24" points="200.71 142.73 199.88 143.21 199.96 141.26 200.79 140.78 200.71 142.73"/><polygon class="cls-24" points="200.58 145.83 199.75 146.31 199.83 144.36 200.66 143.88 200.58 145.83"/><polygon class="cls-24" points="200.44 148.94 199.61 149.42 199.7 147.47 200.53 146.99 200.44 148.94"/><polygon class="cls-24" points="200.31 152.04 199.48 152.52 199.57 150.57 200.4 150.09 200.31 152.04"/><polygon class="cls-24" points="200.18 155.15 199.35 155.63 199.44 153.68 200.27 153.19 200.18 155.15"/><polygon class="cls-24" points="200.05 158.25 199.22 158.73 199.31 156.78 200.14 156.3 200.05 158.25"/><polygon class="cls-24" points="199.92 161.35 199.09 161.84 199.17 159.88 200 159.4 199.92 161.35"/><path class="cls-25" d="M190.75,142s0,.56-1,1.15a3.44,3.44,0,0,1-2.84.14l-.13-.08a3.16,3.16,0,0,1,1.66-2.24C189.27,140.49,190.75,141.14,190.75,142Z"/><path class="cls-26" d="M190.09,141.31c.05.11-.61.18-1,.38s-1.14.66-1.19.55.56-.8,1-1A1.28,1.28,0,0,1,190.09,141.31Z"/><polygon class="cls-28" points="89.99 174.66 88.18 173.61 88.18 126.31 89.99 126.31 89.99 174.66"/><polygon class="cls-11" points="91.79 173.61 89.99 174.66 89.99 126.31 91.79 126.31 91.79 173.61"/><polygon class="cls-29" points="89.99 136.26 88.18 135.21 88.18 126.31 91.46 126.35 89.99 136.26"/><polygon class="cls-28" points="91.79 135.21 89.99 136.26 89.99 126.31 91.79 126.31 91.79 135.21"/><polygon class="cls-28" points="49.04 151.02 47.23 149.97 47.23 108.83 49.04 108.83 49.04 151.02"/><polygon class="cls-11" points="50.84 150 49.04 151.02 49.04 108.83 50.84 108.83 50.84 150"/><polygon class="cls-29" points="49.04 112.6 47.23 111.55 47.23 108.83 49.64 108.83 49.04 112.6"/><polygon class="cls-28" points="50.84 111.58 49.04 112.6 49.04 108.83 50.84 108.83 50.84 111.58"/><g class="cls-2"><polygon class="cls-16" points="92.01 133.55 92 136.37 108.29 126.9 108.3 124.09 92.01 133.55"/><polygon class="cls-19" points="66.87 94.28 45.5 106.7 92.01 133.55 108.3 124.09 108.3 118.19 66.87 94.28"/><polygon class="cls-30" points="66.87 94.28 59.95 98.3 97.09 119.74 108.3 124.09 108.3 118.26 66.87 94.28"/><polygon class="cls-20" points="45.5 106.7 45.49 109.51 92 136.37 92.01 133.55 45.5 106.7"/></g><polygon class="cls-31" points="249.61 83.38 158.67 135.94 158.67 128.63 249.61 76.07 249.61 83.38"/><polygon class="cls-20" points="249.61 83.38 249.61 76.07 247.35 77.37 247.35 82.13 249.61 83.38"/><polygon class="cls-19" points="247.35 82.13 158.67 133.39 158.67 135.94 249.61 83.38 247.35 82.13"/><polygon class="cls-19" points="176.25 123.64 175.29 124.2 175.29 119.02 176.25 118.46 176.25 123.64"/><polygon class="cls-19" points="194.44 113.14 193.48 113.69 193.48 108.51 194.44 107.96 194.44 113.14"/><polygon class="cls-19" points="212.63 102.61 211.68 103.17 211.68 97.98 212.63 97.43 212.63 102.61"/><polygon class="cls-19" points="230.83 92.11 229.87 92.67 229.87 87.48 230.83 86.93 230.83 92.11"/><g class="cls-32"><g class="cls-33"><polygon class="cls-4" points="114.32 111.38 113.66 116.49 113.06 110.66 112.09 110.1 111.44 115.21 110.83 109.37 109.71 108.72 110.8 117.62 111.91 118.26 112.56 113.72 113.17 118.99 114.28 119.63 115.41 112.01 114.32 111.38"/><path class="cls-4" d="M117,118.2l.45-3.23s.46,3.75.46,3.75Zm1.17-4.58-1.39-.8-1.26,7.54,1.09.63.24-1.74,1.2.69.23,2,1.11.64Z"/><path class="cls-4" d="M122.49,118.7c0,.7-.24.88-.76.58l-.44-.25v-2.45l.44.25a1.5,1.5,0,0,1,.76,1.45Zm.31,2.09c.5,0,.77-.5.78-1.37v-.59a3.46,3.46,0,0,0-1.8-3.13l-1.57-.91,0,8.26,1.09.63v-3.49l.5.29.85,4,1.15.67Z"/><polygon class="cls-4" points="127.67 120.25 127.67 119.09 124.61 117.32 124.59 125.58 127.65 127.35 127.65 126.19 125.68 125.06 125.69 122.6 127.28 123.52 127.28 122.37 125.69 121.45 125.7 119.11 127.67 120.25"/><polygon class="cls-4" points="130.98 121 130.97 124.48 129.68 123.74 129.69 120.25 128.6 119.63 128.57 127.89 129.66 128.51 129.67 124.92 130.97 125.67 130.96 129.26 132.05 129.89 132.07 121.63 130.98 121"/><path class="cls-4" d="M135.54,129.92c0,.61-.24.81-.67.56a1.44,1.44,0,0,1-.67-1.33v-4.3c0-.61.24-.81.67-.56a1.44,1.44,0,0,1,.67,1.33Zm-.65-6.78c-1.09-.63-1.76-.23-1.76,1.07v4.32a3.54,3.54,0,0,0,1.75,3.1c1.09.63,1.76.22,1.76-1.07v-4.32A3.54,3.54,0,0,0,134.89,123.14Z"/><path class="cls-4" d="M139.92,126.16l0,6.37c0,.6-.24.69-.62.47a1.24,1.24,0,0,1-.62-1.19l0-6.37-1-.61,0,6.41a3.29,3.29,0,0,0,1.67,2.94c1,.61,1.7.31,1.7-1l0-6.41Z"/><path class="cls-4" d="M143.77,131.86a4.05,4.05,0,0,1-.91-2.14v-.11c0-.47.2-.61.56-.4a1.12,1.12,0,0,1,.55,1v.31l1,.49v-.21a3.13,3.13,0,0,0-1.62-2.79c-1-.6-1.63-.27-1.63.92v.18a6.07,6.07,0,0,0,1.33,3.39,4.18,4.18,0,0,1,.94,2.19V135c0,.52-.21.66-.62.42a1.21,1.21,0,0,1-.61-1.14v-.59l-1-.49v.56a3.19,3.19,0,0,0,1.68,2.83c1.08.62,1.68.3,1.69-.88v-.41A6.23,6.23,0,0,0,143.77,131.86Z"/><polygon class="cls-4" points="148.86 132.48 148.86 131.32 145.8 129.56 145.78 137.82 148.84 139.59 148.84 138.43 146.87 137.29 146.87 134.84 148.47 135.76 148.47 134.6 146.88 133.68 146.88 131.34 148.86 132.48"/></g><g class="cls-34"><polygon class="cls-35" points="114.32 111.29 113.66 116.4 113.06 110.56 112.09 110.01 111.44 115.11 110.83 109.28 109.71 108.63 110.8 117.53 111.91 118.17 112.56 113.62 113.17 118.9 114.28 119.54 115.41 111.92 114.32 111.29"/><path class="cls-35" d="M117,118.1l.45-3.23s.46,3.75.46,3.75Zm1.17-4.58-1.39-.8-1.26,7.54,1.09.63.24-1.74,1.2.69.23,2,1.11.64Z"/><path class="cls-35" d="M122.49,118.61c0,.7-.24.88-.76.58l-.44-.25v-2.45l.44.25a1.5,1.5,0,0,1,.76,1.45Zm.31,2.09c.5,0,.77-.5.78-1.37v-.59a3.46,3.46,0,0,0-1.8-3.13l-1.57-.91,0,8.26,1.09.63v-3.49l.5.29.85,4,1.15.67Z"/><polygon class="cls-35" points="127.67 120.16 127.67 119 124.61 117.23 124.59 125.49 127.65 127.26 127.65 126.1 125.68 124.97 125.69 122.51 127.28 123.43 127.28 122.28 125.69 121.36 125.7 119.02 127.67 120.16"/><polygon class="cls-35" points="130.98 120.91 130.97 124.39 129.68 123.64 129.69 120.16 128.6 119.53 128.57 127.79 129.66 128.42 129.67 124.83 130.97 125.58 130.96 129.17 132.05 129.8 132.07 121.54 130.98 120.91"/><path class="cls-35" d="M135.54,129.83c0,.61-.24.81-.67.56a1.44,1.44,0,0,1-.67-1.33v-4.3c0-.61.24-.81.67-.56a1.44,1.44,0,0,1,.67,1.33Zm-.65-6.78c-1.09-.63-1.76-.23-1.76,1.07v4.32a3.54,3.54,0,0,0,1.75,3.1c1.09.63,1.76.22,1.76-1.07v-4.32A3.54,3.54,0,0,0,134.89,123Z"/><path class="cls-35" d="M139.92,126.07l0,6.37c0,.6-.24.69-.62.47a1.24,1.24,0,0,1-.62-1.19l0-6.37-1-.61,0,6.41a3.29,3.29,0,0,0,1.67,2.94c1,.61,1.7.31,1.7-1l0-6.41Z"/><path class="cls-35" d="M143.77,131.77a4.05,4.05,0,0,1-.91-2.14v-.11c0-.47.2-.61.56-.4a1.12,1.12,0,0,1,.55,1v.31l1,.49v-.21A3.13,3.13,0,0,0,143.4,128c-1-.6-1.63-.27-1.63.92v.18a6.07,6.07,0,0,0,1.33,3.39,4.18,4.18,0,0,1,.94,2.19v.27c0,.52-.21.66-.62.42a1.21,1.21,0,0,1-.61-1.14v-.59l-1-.49v.56a3.19,3.19,0,0,0,1.68,2.83c1.08.62,1.68.3,1.69-.88v-.41A6.23,6.23,0,0,0,143.77,131.77Z"/><polygon class="cls-35" points="148.86 132.39 148.86 131.23 145.8 129.47 145.78 137.73 148.84 139.49 148.84 138.34 146.87 137.2 146.87 134.75 148.47 135.66 148.47 134.51 146.88 133.59 146.88 131.25 148.86 132.39"/></g><g class="cls-36"><polygon class="cls-37" points="114.32 111.2 113.66 116.31 113.06 110.47 112.09 109.92 111.44 115.02 110.83 109.19 109.71 108.54 110.8 117.44 111.91 118.08 112.56 113.53 113.17 118.81 114.28 119.45 115.41 111.83 114.32 111.2"/><path class="cls-37" d="M117,118l.45-3.23s.46,3.75.46,3.75Zm1.17-4.58-1.39-.8-1.26,7.54,1.09.63.24-1.74,1.2.69.23,2,1.11.64Z"/><path class="cls-37" d="M122.49,118.52c0,.7-.24.88-.76.58l-.44-.25v-2.45l.44.26a1.5,1.5,0,0,1,.76,1.45Zm.31,2.09c.5,0,.77-.5.78-1.37v-.59a3.46,3.46,0,0,0-1.8-3.13l-1.57-.91,0,8.26,1.09.63V120l.5.29.85,4,1.15.67Z"/><polygon class="cls-37" points="127.67 120.06 127.67 118.91 124.61 117.14 124.59 125.4 127.65 127.17 127.65 126.01 125.68 124.88 125.69 122.42 127.28 123.34 127.28 122.18 125.69 121.27 125.7 118.93 127.67 120.06"/><polygon class="cls-37" points="130.98 120.82 130.97 124.3 129.68 123.55 129.69 120.07 128.6 119.44 128.57 127.7 129.66 128.33 129.67 124.74 130.97 125.48 130.96 129.08 132.05 129.71 132.07 121.45 130.98 120.82"/><path class="cls-37" d="M135.54,129.74c0,.61-.24.81-.67.56a1.44,1.44,0,0,1-.67-1.33v-4.3c0-.61.24-.81.67-.56a1.44,1.44,0,0,1,.67,1.33Zm-.65-6.78c-1.09-.63-1.76-.23-1.76,1.07v4.32a3.54,3.54,0,0,0,1.75,3.1c1.09.63,1.76.22,1.76-1.07v-4.32A3.54,3.54,0,0,0,134.89,123Z"/><path class="cls-37" d="M139.92,126l0,6.37c0,.6-.24.69-.62.47a1.24,1.24,0,0,1-.62-1.19l0-6.37-1-.61,0,6.41a3.29,3.29,0,0,0,1.67,2.94c1,.61,1.7.31,1.7-1l0-6.41Z"/><path class="cls-37" d="M143.77,131.67a4.05,4.05,0,0,1-.91-2.14v-.11c0-.47.2-.61.56-.4a1.12,1.12,0,0,1,.55,1v.31l1,.49v-.21a3.13,3.13,0,0,0-1.62-2.79c-1-.6-1.63-.27-1.63.92V129a6.07,6.07,0,0,0,1.33,3.39,4.18,4.18,0,0,1,.94,2.19v.27c0,.52-.21.66-.62.42a1.21,1.21,0,0,1-.61-1.14v-.59l-1-.49v.56a3.19,3.19,0,0,0,1.68,2.83c1.08.62,1.68.3,1.69-.88v-.41A6.23,6.23,0,0,0,143.77,131.67Z"/><polygon class="cls-37" points="148.86 132.3 148.86 131.14 145.8 129.38 145.78 137.63 148.84 139.4 148.84 138.25 146.87 137.11 146.87 134.65 148.47 135.57 148.47 134.42 146.88 133.5 146.88 131.16 148.86 132.3"/></g><g class="cls-38"><polygon class="cls-39" points="114.32 111.11 113.66 116.21 113.06 110.38 112.09 109.82 111.44 114.93 110.83 109.09 109.71 108.45 110.8 117.35 111.91 117.99 112.56 113.44 113.17 118.72 114.28 119.36 115.41 111.74 114.32 111.11"/><path class="cls-39" d="M117,117.92l.45-3.23s.46,3.75.46,3.75Zm1.17-4.58-1.39-.8-1.26,7.54,1.09.63.24-1.74,1.2.69.23,2,1.11.64Z"/><path class="cls-39" d="M122.49,118.43c0,.7-.24.88-.76.58l-.44-.26v-2.45l.44.25a1.5,1.5,0,0,1,.76,1.45Zm.31,2.09c.5,0,.77-.5.78-1.37v-.59a3.46,3.46,0,0,0-1.8-3.13l-1.57-.91,0,8.26,1.09.63v-3.49l.5.29.85,4,1.15.67Z"/><polygon class="cls-39" points="127.67 119.97 127.67 118.82 124.61 117.05 124.59 125.31 127.65 127.08 127.65 125.92 125.68 124.78 125.69 122.33 127.28 123.25 127.28 122.09 125.69 121.17 125.7 118.84 127.67 119.97"/><polygon class="cls-39" points="130.98 120.73 130.97 124.21 129.68 123.46 129.69 119.98 128.6 119.35 128.57 127.61 129.66 128.24 129.67 124.64 130.97 125.39 130.96 128.99 132.05 129.62 132.07 121.36 130.98 120.73"/><path class="cls-39" d="M135.54,129.65c0,.61-.24.81-.67.56a1.44,1.44,0,0,1-.67-1.33v-4.3c0-.61.24-.81.67-.56a1.44,1.44,0,0,1,.67,1.33Zm-.65-6.78c-1.09-.63-1.76-.23-1.76,1.07v4.32a3.54,3.54,0,0,0,1.75,3.1c1.09.63,1.76.22,1.76-1.07V126A3.54,3.54,0,0,0,134.89,122.86Z"/><path class="cls-39" d="M139.92,125.89l0,6.37c0,.6-.24.69-.62.47a1.24,1.24,0,0,1-.62-1.19l0-6.37-1-.61,0,6.41a3.29,3.29,0,0,0,1.67,2.94c1,.61,1.7.31,1.7-1l0-6.41Z"/><path class="cls-39" d="M143.77,131.58a4.05,4.05,0,0,1-.91-2.14v-.11c0-.47.2-.61.56-.4a1.12,1.12,0,0,1,.55,1v.31l1,.49v-.21a3.13,3.13,0,0,0-1.62-2.79c-1-.6-1.63-.27-1.63.92v.18a6.07,6.07,0,0,0,1.33,3.39,4.18,4.18,0,0,1,.94,2.19v.27c0,.52-.21.66-.62.42a1.21,1.21,0,0,1-.61-1.14v-.59l-1-.49v.56a3.19,3.19,0,0,0,1.68,2.83c1.08.62,1.68.3,1.69-.88V135A6.23,6.23,0,0,0,143.77,131.58Z"/><polygon class="cls-39" points="148.86 132.21 148.86 131.05 145.8 129.28 145.78 137.54 148.84 139.31 148.84 138.16 146.87 137.01 146.87 134.56 148.47 135.48 148.47 134.33 146.88 133.41 146.88 131.07 148.86 132.21"/></g><g class="cls-40"><polygon class="cls-41" points="114.32 111.02 113.66 116.12 113.06 110.29 112.09 109.73 111.44 114.84 110.83 109 109.71 108.36 110.8 117.26 111.91 117.9 112.56 113.35 113.17 118.63 114.28 119.27 115.41 111.65 114.32 111.02"/><path class="cls-41" d="M117,117.83l.45-3.23s.46,3.75.46,3.75Zm1.17-4.58-1.39-.8L115.54,120l1.09.63.24-1.74,1.2.69.23,2,1.11.64Z"/><path class="cls-41" d="M122.49,118.34c0,.7-.24.88-.76.58l-.44-.25V116.2l.44.25a1.5,1.5,0,0,1,.76,1.45Zm.31,2.09c.5,0,.77-.5.78-1.37v-.59a3.46,3.46,0,0,0-1.8-3.13l-1.57-.91,0,8.26,1.09.63v-3.49l.5.29.85,4,1.15.67Z"/><polygon class="cls-41" points="127.67 119.88 127.67 118.72 124.61 116.96 124.59 125.22 127.65 126.99 127.65 125.83 125.68 124.69 125.69 122.24 127.28 123.16 127.28 122 125.69 121.08 125.7 118.74 127.67 119.88"/><polygon class="cls-41" points="130.98 120.64 130.97 124.12 129.68 123.37 129.69 119.89 128.6 119.26 128.57 127.52 129.66 128.15 129.67 124.55 130.97 125.3 130.96 128.9 132.05 129.53 132.07 121.27 130.98 120.64"/><path class="cls-41" d="M135.54,129.56c0,.61-.24.81-.67.56a1.44,1.44,0,0,1-.67-1.33v-4.3c0-.61.24-.81.67-.56a1.44,1.44,0,0,1,.67,1.33Zm-.65-6.78c-1.09-.63-1.76-.23-1.76,1.07v4.32a3.54,3.54,0,0,0,1.75,3.1c1.09.63,1.76.22,1.76-1.07v-4.32A3.54,3.54,0,0,0,134.89,122.77Z"/><path class="cls-41" d="M139.92,125.8l0,6.37c0,.6-.24.69-.62.47a1.24,1.24,0,0,1-.62-1.19l0-6.37-1-.61,0,6.41a3.29,3.29,0,0,0,1.67,2.94c1,.61,1.7.31,1.7-1l0-6.41Z"/><path class="cls-41" d="M143.77,131.49a4.05,4.05,0,0,1-.91-2.14v-.11c0-.47.2-.61.56-.4a1.12,1.12,0,0,1,.55,1v.31l1,.49v-.21a3.13,3.13,0,0,0-1.62-2.79c-1-.6-1.63-.27-1.63.92v.18a6.07,6.07,0,0,0,1.33,3.39,4.18,4.18,0,0,1,.94,2.19v.27c0,.52-.21.66-.62.42a1.21,1.21,0,0,1-.61-1.14v-.59l-1-.49v.56a3.19,3.19,0,0,0,1.68,2.83c1.08.62,1.68.3,1.69-.88v-.41A6.23,6.23,0,0,0,143.77,131.49Z"/><polygon class="cls-41" points="148.86 132.12 148.86 130.96 145.8 129.19 145.78 137.45 148.84 139.22 148.84 138.06 146.87 136.92 146.87 134.47 148.47 135.39 148.47 134.24 146.88 133.31 146.88 130.98 148.86 132.12"/></g><g class="cls-42"><polygon class="cls-43" points="114.32 110.93 113.66 116.03 113.06 110.2 112.09 109.64 111.44 114.75 110.83 108.91 109.71 108.27 110.8 117.17 111.91 117.81 112.56 113.26 113.17 118.54 114.28 119.18 115.41 111.56 114.32 110.93"/><path class="cls-43" d="M117,117.74l.45-3.23s.46,3.75.46,3.75Zm1.17-4.58-1.39-.8-1.26,7.54,1.09.63.24-1.74,1.2.69.23,2,1.11.64Z"/><path class="cls-43" d="M122.49,118.24c0,.7-.24.88-.76.58l-.44-.25v-2.45l.44.25a1.5,1.5,0,0,1,.76,1.45Zm.31,2.09c.5,0,.77-.5.78-1.37v-.59a3.46,3.46,0,0,0-1.8-3.13l-1.57-.91,0,8.26,1.09.63v-3.49l.5.29.85,4,1.15.67Z"/><polygon class="cls-43" points="127.67 119.79 127.67 118.63 124.61 116.87 124.59 125.13 127.65 126.89 127.65 125.74 125.68 124.6 125.69 122.15 127.28 123.07 127.28 121.91 125.69 120.99 125.7 118.65 127.67 119.79"/><polygon class="cls-43" points="130.98 120.55 130.97 124.03 129.68 123.28 129.69 119.8 128.6 119.17 128.57 127.43 129.66 128.06 129.67 124.46 130.97 125.21 130.96 128.81 132.05 129.44 132.07 121.17 130.98 120.55"/><path class="cls-43" d="M135.54,129.47c0,.61-.24.81-.67.56a1.44,1.44,0,0,1-.67-1.33v-4.3c0-.61.24-.81.67-.56a1.44,1.44,0,0,1,.67,1.33Zm-.65-6.78c-1.09-.63-1.76-.23-1.76,1.07v4.32a3.54,3.54,0,0,0,1.75,3.1c1.09.63,1.76.22,1.76-1.07v-4.32A3.54,3.54,0,0,0,134.89,122.68Z"/><path class="cls-43" d="M139.92,125.71l0,6.37c0,.6-.24.69-.62.47a1.24,1.24,0,0,1-.62-1.19l0-6.37-1-.61,0,6.41a3.29,3.29,0,0,0,1.67,2.94c1,.61,1.7.31,1.7-1l0-6.41Z"/><path class="cls-43" d="M143.77,131.4a4.05,4.05,0,0,1-.91-2.14v-.11c0-.47.2-.61.56-.4a1.12,1.12,0,0,1,.55,1v.31l1,.49v-.21a3.13,3.13,0,0,0-1.62-2.79c-1-.6-1.63-.27-1.63.92v.18a6.07,6.07,0,0,0,1.33,3.39,4.18,4.18,0,0,1,.94,2.19v.27c0,.52-.21.66-.62.42a1.21,1.21,0,0,1-.61-1.14v-.59l-1-.49v.56a3.19,3.19,0,0,0,1.68,2.83c1.08.62,1.68.3,1.69-.88v-.41A6.23,6.23,0,0,0,143.77,131.4Z"/><polygon class="cls-43" points="148.86 132.02 148.86 130.87 145.8 129.1 145.78 137.36 148.84 139.13 148.84 137.97 146.87 136.83 146.87 134.38 148.47 135.3 148.47 134.14 146.88 133.22 146.88 130.88 148.86 132.02"/></g><g class="cls-44"><polygon class="cls-45" points="114.32 110.84 113.66 115.94 113.06 110.11 112.09 109.55 111.44 114.66 110.83 108.82 109.71 108.17 110.8 117.08 111.91 117.72 112.56 113.17 113.17 118.44 114.28 119.09 115.41 111.47 114.32 110.84"/><path class="cls-45" d="M117,117.65l.45-3.23s.46,3.75.46,3.75Zm1.17-4.58-1.39-.8-1.26,7.54,1.09.63.24-1.74,1.2.69.23,2,1.11.64Z"/><path class="cls-45" d="M122.49,118.15c0,.7-.24.88-.76.58l-.44-.25V116l.44.25a1.5,1.5,0,0,1,.76,1.45Zm.31,2.09c.5,0,.77-.5.78-1.37v-.59a3.46,3.46,0,0,0-1.8-3.13l-1.57-.91,0,8.26,1.09.63v-3.49l.5.29.85,4,1.15.67Z"/><polygon class="cls-45" points="127.67 119.7 127.67 118.54 124.61 116.78 124.59 125.04 127.65 126.8 127.65 125.65 125.68 124.51 125.69 122.06 127.28 122.97 127.28 121.82 125.69 120.9 125.7 118.56 127.67 119.7"/><polygon class="cls-45" points="130.98 120.45 130.97 123.94 129.68 123.19 129.69 119.71 128.6 119.08 128.57 127.34 129.66 127.97 129.67 124.37 130.97 125.12 130.96 128.72 132.05 129.34 132.07 121.08 130.98 120.45"/><path class="cls-45" d="M135.54,129.37c0,.61-.24.81-.67.56a1.44,1.44,0,0,1-.67-1.33v-4.3c0-.61.24-.81.67-.56a1.44,1.44,0,0,1,.67,1.33Zm-.65-6.78c-1.09-.63-1.76-.23-1.76,1.07V128a3.54,3.54,0,0,0,1.75,3.1c1.09.63,1.76.22,1.76-1.07v-4.32A3.54,3.54,0,0,0,134.89,122.59Z"/><path class="cls-45" d="M139.92,125.62l0,6.37c0,.6-.24.69-.62.47a1.24,1.24,0,0,1-.62-1.19l0-6.37-1-.61,0,6.41a3.29,3.29,0,0,0,1.67,2.94c1,.61,1.7.31,1.7-1l0-6.41Z"/><path class="cls-45" d="M143.77,131.31a4.05,4.05,0,0,1-.91-2.14v-.11c0-.47.2-.61.56-.4a1.12,1.12,0,0,1,.55,1V130l1,.49v-.21a3.13,3.13,0,0,0-1.62-2.79c-1-.6-1.63-.27-1.63.92v.18a6.07,6.07,0,0,0,1.33,3.39,4.18,4.18,0,0,1,.94,2.19v.27c0,.52-.21.66-.62.42a1.21,1.21,0,0,1-.61-1.14v-.59l-1-.49v.56a3.19,3.19,0,0,0,1.68,2.83c1.08.62,1.68.3,1.69-.88v-.41A6.23,6.23,0,0,0,143.77,131.31Z"/><polygon class="cls-45" points="148.86 131.93 148.86 130.78 145.8 129.01 145.78 137.27 148.84 139.04 148.84 137.88 146.87 136.74 146.87 134.29 148.47 135.21 148.47 134.05 146.88 133.13 146.88 130.79 148.86 131.93"/></g><g class="cls-46"><polygon class="cls-47" points="114.32 110.75 113.66 115.85 113.06 110.02 112.09 109.46 111.44 114.57 110.83 108.73 109.71 108.08 110.8 116.98 111.91 117.62 112.56 113.08 113.17 118.35 114.28 118.99 115.41 111.38 114.32 110.75"/><path class="cls-47" d="M117,117.56l.45-3.23s.46,3.75.46,3.75Zm1.17-4.58-1.39-.8-1.26,7.54,1.09.63.24-1.74,1.2.69.23,2,1.11.64Z"/><path class="cls-47" d="M122.49,118.06c0,.7-.24.88-.76.58l-.44-.26v-2.45l.44.26a1.5,1.5,0,0,1,.76,1.45Zm.31,2.09c.5,0,.77-.5.78-1.37v-.59a3.46,3.46,0,0,0-1.8-3.13l-1.57-.91,0,8.26,1.09.63v-3.49l.5.29.85,4,1.15.67Z"/><polygon class="cls-47" points="127.67 119.61 127.67 118.45 124.61 116.69 124.59 124.94 127.65 126.71 127.65 125.56 125.68 124.42 125.69 121.97 127.28 122.88 127.28 121.73 125.69 120.81 125.7 118.47 127.67 119.61"/><polygon class="cls-47" points="130.98 120.36 130.97 123.84 129.68 123.1 129.69 119.62 128.6 118.99 128.57 127.25 129.66 127.88 129.67 124.28 130.97 125.03 130.96 128.62 132.05 129.25 132.07 120.99 130.98 120.36"/><path class="cls-47" d="M135.54,129.28c0,.61-.24.81-.67.56a1.44,1.44,0,0,1-.67-1.33v-4.3c0-.61.24-.81.67-.56a1.44,1.44,0,0,1,.67,1.33Zm-.65-6.78c-1.09-.63-1.76-.23-1.76,1.07v4.32a3.54,3.54,0,0,0,1.75,3.1c1.09.63,1.76.22,1.76-1.07V125.6A3.54,3.54,0,0,0,134.89,122.5Z"/><path class="cls-47" d="M139.92,125.52l0,6.37c0,.6-.24.69-.62.47a1.24,1.24,0,0,1-.62-1.19l0-6.37-1-.61,0,6.41a3.29,3.29,0,0,0,1.67,2.94c1,.61,1.7.31,1.7-1l0-6.41Z"/><path class="cls-47" d="M143.77,131.22a4.05,4.05,0,0,1-.91-2.14V129c0-.47.2-.61.56-.4a1.12,1.12,0,0,1,.55,1v.31l1,.49v-.21a3.13,3.13,0,0,0-1.62-2.79c-1-.6-1.63-.27-1.63.92v.18a6.07,6.07,0,0,0,1.33,3.39,4.18,4.18,0,0,1,.94,2.19v.27c0,.52-.21.66-.62.42a1.21,1.21,0,0,1-.61-1.14v-.59l-1-.49v.56a3.19,3.19,0,0,0,1.68,2.83c1.08.62,1.68.3,1.69-.88v-.41A6.23,6.23,0,0,0,143.77,131.22Z"/><polygon class="cls-47" points="148.86 131.84 148.86 130.69 145.8 128.92 145.78 137.18 148.84 138.95 148.84 137.79 146.87 136.65 146.87 134.2 148.47 135.12 148.47 133.96 146.88 133.04 146.88 130.7 148.86 131.84"/></g><g class="cls-48"><polygon class="cls-49" points="114.32 110.65 113.66 115.76 113.06 109.92 112.09 109.37 111.44 114.48 110.83 108.64 109.71 107.99 110.8 116.89 111.91 117.53 112.56 112.98 113.17 118.26 114.28 118.9 115.41 111.28 114.32 110.65"/><path class="cls-49" d="M117,117.47l.45-3.23s.46,3.75.46,3.75Zm1.17-4.58-1.39-.8-1.26,7.54,1.09.63.24-1.74,1.2.69.23,2,1.11.64Z"/><path class="cls-49" d="M122.49,118c0,.7-.24.88-.76.58l-.44-.25v-2.45l.44.25a1.5,1.5,0,0,1,.76,1.45Zm.31,2.09c.5,0,.77-.5.78-1.37v-.59a3.46,3.46,0,0,0-1.8-3.13l-1.57-.91,0,8.26,1.09.63v-3.49l.5.29.85,4,1.15.67Z"/><polygon class="cls-49" points="127.67 119.52 127.67 118.36 124.61 116.59 124.59 124.85 127.65 126.62 127.65 125.47 125.68 124.33 125.69 121.87 127.28 122.79 127.28 121.64 125.69 120.72 125.7 118.38 127.67 119.52"/><polygon class="cls-49" points="130.98 120.27 130.97 123.75 129.68 123.01 129.69 119.52 128.6 118.89 128.57 127.16 129.66 127.78 129.67 124.19 130.97 124.94 130.96 128.53 132.05 129.16 132.07 120.9 130.98 120.27"/><path class="cls-49" d="M135.54,129.19c0,.61-.24.81-.67.56a1.44,1.44,0,0,1-.67-1.33v-4.3c0-.61.24-.81.67-.56a1.44,1.44,0,0,1,.67,1.33Zm-.65-6.78c-1.09-.63-1.76-.23-1.76,1.07v4.32a3.54,3.54,0,0,0,1.75,3.1c1.09.63,1.76.22,1.76-1.07v-4.32A3.54,3.54,0,0,0,134.89,122.41Z"/><path class="cls-49" d="M139.92,125.43l0,6.37c0,.6-.24.69-.62.47a1.24,1.24,0,0,1-.62-1.19l0-6.37-1-.61,0,6.41a3.29,3.29,0,0,0,1.67,2.94c1,.61,1.7.31,1.7-1l0-6.41Z"/><path class="cls-49" d="M143.77,131.13a4.05,4.05,0,0,1-.91-2.14v-.11c0-.47.2-.61.56-.4a1.12,1.12,0,0,1,.55,1v.31l1,.49v-.21a3.13,3.13,0,0,0-1.62-2.79c-1-.6-1.63-.27-1.63.92v.18a6.07,6.07,0,0,0,1.33,3.39A4.18,4.18,0,0,1,144,134v.27c0,.52-.21.66-.62.42a1.21,1.21,0,0,1-.61-1.14V133l-1-.49V133a3.19,3.19,0,0,0,1.68,2.83c1.08.62,1.68.3,1.69-.88v-.41A6.23,6.23,0,0,0,143.77,131.13Z"/><polygon class="cls-49" points="148.86 131.75 148.86 130.59 145.8 128.83 145.78 137.09 148.84 138.85 148.84 137.7 146.87 136.56 146.87 134.11 148.47 135.03 148.47 133.87 146.88 132.95 146.88 130.61 148.86 131.75"/></g><g class="cls-50"><polygon class="cls-51" points="114.32 110.56 113.66 115.67 113.06 109.83 112.09 109.28 111.44 114.39 110.83 108.55 109.71 107.9 110.8 116.8 111.91 117.44 112.56 112.89 113.17 118.17 114.28 118.81 115.41 111.19 114.32 110.56"/><path class="cls-51" d="M117,117.37l.45-3.23s.46,3.75.46,3.75Zm1.17-4.58-1.39-.8-1.26,7.54,1.09.63.24-1.74,1.2.69.23,2,1.11.64Z"/><path class="cls-51" d="M122.49,117.88c0,.7-.24.88-.76.58l-.44-.25v-2.45l.44.25a1.5,1.5,0,0,1,.76,1.45Zm.31,2.09c.5,0,.77-.5.78-1.37V118a3.46,3.46,0,0,0-1.8-3.13l-1.57-.91,0,8.26,1.09.63v-3.49l.5.29.85,4,1.15.67Z"/><polygon class="cls-51" points="127.67 119.42 127.67 118.27 124.61 116.5 124.59 124.76 127.65 126.53 127.65 125.37 125.68 124.24 125.69 121.78 127.28 122.7 127.28 121.54 125.69 120.63 125.7 118.29 127.67 119.42"/><polygon class="cls-51" points="130.98 120.18 130.97 123.66 129.68 122.92 129.69 119.43 128.6 118.8 128.57 127.06 129.66 127.69 129.67 124.1 130.97 124.84 130.96 128.44 132.05 129.07 132.07 120.81 130.98 120.18"/><path class="cls-51" d="M135.54,129.1c0,.61-.24.81-.67.56a1.44,1.44,0,0,1-.67-1.33V124c0-.61.24-.81.67-.56a1.44,1.44,0,0,1,.67,1.33Zm-.65-6.78c-1.09-.63-1.76-.23-1.76,1.07v4.32a3.54,3.54,0,0,0,1.75,3.1c1.09.63,1.76.22,1.76-1.07v-4.32A3.54,3.54,0,0,0,134.89,122.32Z"/><path class="cls-51" d="M139.92,125.34l0,6.37c0,.6-.24.69-.62.47a1.24,1.24,0,0,1-.62-1.19l0-6.37-1-.61,0,6.41a3.29,3.29,0,0,0,1.67,2.94c1,.61,1.7.31,1.7-1l0-6.41Z"/><path class="cls-51" d="M143.77,131a4.05,4.05,0,0,1-.91-2.14v-.11c0-.47.2-.61.56-.4a1.12,1.12,0,0,1,.55,1v.31l1,.49V130a3.13,3.13,0,0,0-1.62-2.79c-1-.6-1.63-.27-1.63.92v.18a6.07,6.07,0,0,0,1.33,3.39,4.18,4.18,0,0,1,.94,2.19v.27c0,.52-.21.66-.62.42a1.21,1.21,0,0,1-.61-1.14v-.59l-1-.49v.56a3.19,3.19,0,0,0,1.68,2.83c1.08.62,1.68.3,1.69-.88v-.41A6.23,6.23,0,0,0,143.77,131Z"/><polygon class="cls-51" points="148.86 131.66 148.86 130.5 145.8 128.74 145.78 137 148.84 138.76 148.84 137.61 146.87 136.47 146.87 134.01 148.47 134.93 148.47 133.78 146.88 132.86 146.88 130.52 148.86 131.66"/></g><g class="cls-52"><polygon class="cls-53" points="114.32 110.47 113.66 115.58 113.06 109.74 112.09 109.19 111.44 114.29 110.83 108.46 109.71 107.81 110.8 116.71 111.91 117.35 112.56 112.8 113.17 118.08 114.28 118.72 115.41 111.1 114.32 110.47"/><path class="cls-53" d="M117,117.28l.45-3.23s.46,3.75.46,3.75Zm1.17-4.58-1.39-.8-1.26,7.54,1.09.63.24-1.74,1.2.69.23,2,1.11.64Z"/><path class="cls-53" d="M122.49,117.79c0,.7-.24.88-.76.58l-.44-.25v-2.45l.44.26a1.5,1.5,0,0,1,.76,1.45Zm.31,2.09c.5,0,.77-.5.78-1.37v-.59a3.46,3.46,0,0,0-1.8-3.13l-1.57-.91,0,8.26,1.09.63v-3.49l.5.29.85,4,1.15.67Z"/><polygon class="cls-53" points="127.67 119.33 127.67 118.18 124.61 116.41 124.59 124.67 127.65 126.44 127.65 125.28 125.68 124.14 125.69 121.69 127.28 122.61 127.28 121.45 125.69 120.53 125.7 118.2 127.67 119.33"/><polygon class="cls-53" points="130.98 120.09 130.97 123.57 129.68 122.82 129.69 119.34 128.6 118.71 128.57 126.97 129.66 127.6 129.67 124.01 130.97 124.75 130.96 128.35 132.05 128.98 132.07 120.72 130.98 120.09"/><path class="cls-53" d="M135.54,129c0,.61-.24.81-.67.56a1.44,1.44,0,0,1-.67-1.33v-4.3c0-.61.24-.81.67-.56a1.44,1.44,0,0,1,.67,1.33Zm-.65-6.78c-1.09-.63-1.76-.23-1.76,1.07v4.32a3.54,3.54,0,0,0,1.75,3.1c1.09.63,1.76.22,1.76-1.07v-4.32A3.54,3.54,0,0,0,134.89,122.22Z"/><path class="cls-53" d="M139.92,125.25l0,6.37c0,.6-.24.69-.62.47a1.24,1.24,0,0,1-.62-1.19l0-6.37-1-.61,0,6.41a3.29,3.29,0,0,0,1.67,2.94c1,.61,1.7.31,1.7-1l0-6.41Z"/><path class="cls-53" d="M143.77,130.94a4.05,4.05,0,0,1-.91-2.14v-.11c0-.47.2-.61.56-.4a1.12,1.12,0,0,1,.55,1v.31l1,.49v-.21a3.13,3.13,0,0,0-1.62-2.79c-1-.6-1.63-.27-1.63.92v.18a6.07,6.07,0,0,0,1.33,3.39,4.18,4.18,0,0,1,.94,2.19v.27c0,.52-.21.66-.62.42a1.21,1.21,0,0,1-.61-1.14v-.59l-1-.49v.56a3.19,3.19,0,0,0,1.68,2.83c1.08.62,1.68.3,1.69-.88v-.41A6.23,6.23,0,0,0,143.77,130.94Z"/><polygon class="cls-53" points="148.86 131.57 148.86 130.41 145.8 128.65 145.78 136.91 148.84 138.67 148.84 137.52 146.87 136.38 146.87 133.92 148.47 134.84 148.47 133.69 146.88 132.77 146.88 130.43 148.86 131.57"/></g><g class="cls-54"><polygon class="cls-55" points="114.32 110.38 113.66 115.48 113.06 109.65 112.09 109.09 111.44 114.2 110.83 108.36 109.71 107.72 110.8 116.62 111.91 117.26 112.56 112.71 113.17 117.99 114.28 118.63 115.41 111.01 114.32 110.38"/><path class="cls-55" d="M117,117.19l.45-3.23s.46,3.75.46,3.75Zm1.17-4.58-1.39-.8-1.26,7.54,1.09.63.24-1.74,1.2.69.23,2,1.11.64Z"/><path class="cls-55" d="M122.49,117.7c0,.7-.24.88-.76.58l-.44-.26v-2.45l.44.25a1.5,1.5,0,0,1,.76,1.45Zm.31,2.09c.5,0,.77-.5.78-1.37v-.59a3.46,3.46,0,0,0-1.8-3.13l-1.57-.91,0,8.26,1.09.63v-3.49l.5.29.85,4,1.15.67Z"/><polygon class="cls-55" points="127.67 119.24 127.67 118.09 124.61 116.32 124.59 124.58 127.65 126.35 127.65 125.19 125.68 124.05 125.69 121.6 127.28 122.52 127.28 121.36 125.69 120.44 125.7 118.11 127.67 119.24"/><polygon class="cls-55" points="130.98 120 130.97 123.48 129.68 122.73 129.69 119.25 128.6 118.62 128.57 126.88 129.66 127.51 129.67 123.92 130.97 124.66 130.96 128.26 132.05 128.89 132.07 120.63 130.98 120"/><path class="cls-55" d="M135.54,128.92c0,.61-.24.81-.67.56a1.44,1.44,0,0,1-.67-1.33v-4.3c0-.61.24-.81.67-.56a1.44,1.44,0,0,1,.67,1.33Zm-.65-6.78c-1.09-.63-1.76-.23-1.76,1.07v4.32a3.54,3.54,0,0,0,1.75,3.1c1.09.63,1.76.22,1.76-1.07v-4.32A3.54,3.54,0,0,0,134.89,122.13Z"/><path class="cls-55" d="M139.92,125.16l0,6.37c0,.6-.24.69-.62.47a1.24,1.24,0,0,1-.62-1.19l0-6.37-1-.61,0,6.41a3.29,3.29,0,0,0,1.67,2.94c1,.61,1.7.31,1.7-1l0-6.41Z"/><path class="cls-55" d="M143.77,130.85a4.05,4.05,0,0,1-.91-2.14v-.11c0-.47.2-.61.56-.4a1.12,1.12,0,0,1,.55,1v.31l1,.49v-.21A3.13,3.13,0,0,0,143.4,127c-1-.6-1.63-.27-1.63.92v.18a6.07,6.07,0,0,0,1.33,3.39,4.18,4.18,0,0,1,.94,2.19V134c0,.52-.21.66-.62.42a1.21,1.21,0,0,1-.61-1.14v-.59l-1-.49v.56a3.19,3.19,0,0,0,1.68,2.83c1.08.62,1.68.3,1.69-.88v-.41A6.23,6.23,0,0,0,143.77,130.85Z"/><polygon class="cls-55" points="148.86 131.48 148.86 130.32 145.8 128.55 145.78 136.81 148.84 138.58 148.84 137.43 146.87 136.28 146.87 133.83 148.47 134.75 148.47 133.6 146.88 132.68 146.88 130.34 148.86 131.48"/></g><g class="cls-56"><polygon class="cls-57" points="114.32 110.29 113.66 115.39 113.06 109.56 112.09 109 111.44 114.11 110.83 108.27 109.71 107.63 110.8 116.53 111.91 117.17 112.56 112.62 113.17 117.9 114.28 118.54 115.41 110.92 114.32 110.29"/><path class="cls-57" d="M117,117.1l.45-3.23s.46,3.75.46,3.75Zm1.17-4.58-1.39-.8-1.26,7.54,1.09.63.24-1.74,1.2.69.23,2,1.11.64Z"/><path class="cls-57" d="M122.49,117.61c0,.7-.24.88-.76.58l-.44-.25v-2.45l.44.25a1.5,1.5,0,0,1,.76,1.45Zm.31,2.09c.5,0,.77-.5.78-1.37v-.59a3.46,3.46,0,0,0-1.8-3.13l-1.57-.91,0,8.26,1.09.63v-3.49l.5.29.85,4,1.15.67Z"/><polygon class="cls-57" points="127.67 119.15 127.67 118 124.61 116.23 124.59 124.49 127.65 126.26 127.65 125.1 125.68 123.96 125.69 121.51 127.28 122.43 127.28 121.27 125.69 120.35 125.7 118.01 127.67 119.15"/><polygon class="cls-57" points="130.98 119.91 130.97 123.39 129.68 122.64 129.69 119.16 128.6 118.53 128.57 126.79 129.66 127.42 129.67 123.82 130.97 124.57 130.96 128.17 132.05 128.8 132.07 120.54 130.98 119.91"/><path class="cls-57" d="M135.54,128.83c0,.61-.24.81-.67.56a1.44,1.44,0,0,1-.67-1.33v-4.3c0-.61.24-.81.67-.56a1.44,1.44,0,0,1,.67,1.33Zm-.65-6.78c-1.09-.63-1.76-.23-1.76,1.07v4.32a3.54,3.54,0,0,0,1.75,3.1c1.09.63,1.76.22,1.76-1.07v-4.32A3.54,3.54,0,0,0,134.89,122Z"/><path class="cls-57" d="M139.92,125.07l0,6.37c0,.6-.24.69-.62.47a1.24,1.24,0,0,1-.62-1.19l0-6.37-1-.61,0,6.41a3.29,3.29,0,0,0,1.67,2.94c1,.61,1.7.31,1.7-1l0-6.41Z"/><path class="cls-57" d="M143.77,130.76a4.05,4.05,0,0,1-.91-2.14v-.11c0-.47.2-.61.56-.4a1.12,1.12,0,0,1,.55,1v.31l1,.49v-.21A3.13,3.13,0,0,0,143.4,127c-1-.6-1.63-.27-1.63.92V128a6.07,6.07,0,0,0,1.33,3.39,4.18,4.18,0,0,1,.94,2.19v.27c0,.52-.21.66-.62.42a1.21,1.21,0,0,1-.61-1.14v-.59l-1-.49v.56a3.19,3.19,0,0,0,1.68,2.83c1.08.62,1.68.3,1.69-.88v-.41A6.23,6.23,0,0,0,143.77,130.76Z"/><polygon class="cls-57" points="148.86 131.38 148.86 130.23 145.8 128.46 145.78 136.72 148.84 138.49 148.84 137.33 146.87 136.19 146.87 133.74 148.47 134.66 148.47 133.5 146.88 132.58 146.88 130.25 148.86 131.38"/></g><g class="cls-58"><polygon class="cls-59" points="114.32 110.2 113.66 115.3 113.06 109.47 112.09 108.91 111.44 114.02 110.83 108.18 109.71 107.53 110.8 116.44 111.91 117.08 112.56 112.53 113.17 117.81 114.28 118.45 115.41 110.83 114.32 110.2"/><path class="cls-59" d="M117,117l.45-3.23s.46,3.75.46,3.75Zm1.17-4.58-1.39-.8-1.26,7.54,1.09.63.24-1.74,1.2.69.23,2,1.11.64Z"/><path class="cls-59" d="M122.49,117.51c0,.7-.24.88-.76.58l-.44-.25v-2.45l.44.26a1.5,1.5,0,0,1,.76,1.45Zm.31,2.09c.5,0,.77-.5.78-1.37v-.59a3.46,3.46,0,0,0-1.8-3.13l-1.57-.91,0,8.26,1.09.63V119l.5.29.85,4,1.15.67Z"/><polygon class="cls-59" points="127.67 119.06 127.67 117.9 124.61 116.14 124.59 124.4 127.65 126.16 127.65 125.01 125.68 123.87 125.69 121.42 127.28 122.33 127.28 121.18 125.69 120.26 125.7 117.92 127.67 119.06"/><polygon class="cls-59" points="130.98 119.81 130.97 123.3 129.68 122.55 129.69 119.07 128.6 118.44 128.57 126.7 129.66 127.33 129.67 123.73 130.97 124.48 130.96 128.07 132.05 128.71 132.07 120.44 130.98 119.81"/><path class="cls-59" d="M135.54,128.73c0,.61-.24.81-.67.56a1.44,1.44,0,0,1-.67-1.33v-4.3c0-.61.24-.81.67-.56a1.44,1.44,0,0,1,.67,1.33Zm-.65-6.78c-1.09-.63-1.76-.23-1.76,1.07v4.32a3.54,3.54,0,0,0,1.75,3.1c1.09.63,1.76.22,1.76-1.07v-4.32A3.54,3.54,0,0,0,134.89,122Z"/><path class="cls-59" d="M139.92,125l0,6.37c0,.6-.24.69-.62.47a1.24,1.24,0,0,1-.62-1.19l0-6.37-1-.61,0,6.41a3.29,3.29,0,0,0,1.67,2.94c1,.61,1.7.31,1.7-1l0-6.41Z"/><path class="cls-59" d="M143.77,130.67a4.05,4.05,0,0,1-.91-2.14v-.11c0-.47.2-.61.56-.4a1.12,1.12,0,0,1,.55,1v.31l1,.49v-.21a3.13,3.13,0,0,0-1.62-2.79c-1-.6-1.63-.27-1.63.92V128a6.07,6.07,0,0,0,1.33,3.39,4.18,4.18,0,0,1,.94,2.19v.27c0,.52-.21.66-.62.42a1.21,1.21,0,0,1-.61-1.14v-.59l-1-.49v.56a3.19,3.19,0,0,0,1.68,2.83c1.08.62,1.68.3,1.69-.88v-.41A6.23,6.23,0,0,0,143.77,130.67Z"/><polygon class="cls-59" points="148.86 131.29 148.86 130.14 145.8 128.37 145.78 136.63 148.84 138.4 148.84 137.24 146.87 136.1 146.87 133.65 148.47 134.57 148.47 133.41 146.88 132.49 146.88 130.15 148.86 131.29"/></g><g class="cls-60"><polygon class="cls-61" points="114.32 110.11 113.66 115.21 113.06 109.38 112.09 108.82 111.44 113.93 110.83 108.09 109.71 107.44 110.8 116.34 111.91 116.98 112.56 112.44 113.17 117.72 114.28 118.36 115.41 110.74 114.32 110.11"/><path class="cls-61" d="M117,116.92l.45-3.23s.46,3.75.46,3.75Zm1.17-4.58-1.39-.8-1.26,7.54,1.09.63.24-1.74,1.2.69.23,2,1.11.64Z"/><path class="cls-61" d="M122.49,117.42c0,.7-.24.88-.76.58l-.44-.25v-2.45l.44.25a1.5,1.5,0,0,1,.76,1.45Zm.31,2.09c.5,0,.77-.5.78-1.37v-.59a3.46,3.46,0,0,0-1.8-3.13l-1.57-.91,0,8.26,1.09.63V118.9l.5.29.85,4,1.15.67Z"/><polygon class="cls-61" points="127.67 118.97 127.67 117.81 124.61 116.05 124.59 124.31 127.65 126.07 127.65 124.92 125.68 123.78 125.69 121.33 127.28 122.24 127.28 121.09 125.69 120.17 125.7 117.83 127.67 118.97"/><polygon class="cls-61" points="130.98 119.72 130.97 123.2 129.68 122.46 129.69 118.98 128.6 118.35 128.57 126.61 129.66 127.24 129.67 123.64 130.97 124.39 130.96 127.98 132.05 128.61 132.07 120.35 130.98 119.72"/><path class="cls-61" d="M135.54,128.64c0,.61-.24.81-.67.56a1.44,1.44,0,0,1-.67-1.33v-4.3c0-.61.24-.81.67-.56a1.44,1.44,0,0,1,.67,1.33Zm-.65-6.78c-1.09-.63-1.76-.23-1.76,1.07v4.32a3.54,3.54,0,0,0,1.75,3.1c1.09.63,1.76.22,1.76-1.07V125A3.54,3.54,0,0,0,134.89,121.86Z"/><path class="cls-61" d="M139.92,124.89l0,6.37c0,.6-.24.69-.62.47a1.24,1.24,0,0,1-.62-1.19l0-6.37-1-.61,0,6.41a3.29,3.29,0,0,0,1.67,2.94c1,.61,1.7.31,1.7-1l0-6.41Z"/><path class="cls-61" d="M143.77,130.58a4.05,4.05,0,0,1-.91-2.14v-.11c0-.47.2-.61.56-.4a1.12,1.12,0,0,1,.55,1v.31l1,.49v-.21a3.13,3.13,0,0,0-1.62-2.79c-1-.6-1.63-.27-1.63.92v.18a6.07,6.07,0,0,0,1.33,3.39,4.18,4.18,0,0,1,.94,2.19v.27c0,.52-.21.66-.62.42a1.21,1.21,0,0,1-.61-1.14v-.59l-1-.49v.56a3.19,3.19,0,0,0,1.68,2.83c1.08.62,1.68.3,1.69-.88V134A6.23,6.23,0,0,0,143.77,130.58Z"/><polygon class="cls-61" points="148.86 131.2 148.86 130.05 145.8 128.28 145.78 136.54 148.84 138.31 148.84 137.15 146.87 136.01 146.87 133.56 148.47 134.48 148.47 133.32 146.88 132.4 146.88 130.06 148.86 131.2"/></g><g class="cls-62"><polygon class="cls-63" points="114.32 110.02 113.66 115.12 113.06 109.28 112.09 108.73 111.44 113.84 110.83 108 109.71 107.35 110.8 116.25 111.91 116.89 112.56 112.35 113.17 117.62 114.28 118.26 115.41 110.64 114.32 110.02"/><path class="cls-63" d="M117,116.83l.45-3.23s.46,3.75.46,3.75Zm1.17-4.58-1.39-.8L115.54,119l1.09.63.24-1.74,1.2.69.23,2,1.11.64Z"/><path class="cls-63" d="M122.49,117.33c0,.7-.24.88-.76.58l-.44-.26V115.2l.44.26a1.5,1.5,0,0,1,.76,1.45Zm.31,2.09c.5,0,.77-.5.78-1.37v-.59a3.46,3.46,0,0,0-1.8-3.13l-1.57-.91,0,8.26,1.09.63v-3.49l.5.29.85,4,1.15.67Z"/><polygon class="cls-63" points="127.67 118.88 127.67 117.72 124.61 115.95 124.59 124.22 127.65 125.98 127.65 124.83 125.68 123.69 125.69 121.23 127.28 122.15 127.28 121 125.69 120.08 125.7 117.74 127.67 118.88"/><polygon class="cls-63" points="130.98 119.63 130.97 123.11 129.68 122.37 129.69 118.89 128.6 118.26 128.57 126.52 129.66 127.15 129.67 123.55 130.97 124.3 130.96 127.89 132.05 128.52 132.07 120.26 130.98 119.63"/><path class="cls-63" d="M135.54,128.55c0,.61-.24.81-.67.56a1.44,1.44,0,0,1-.67-1.33v-4.3c0-.61.24-.81.67-.56a1.44,1.44,0,0,1,.67,1.33Zm-.65-6.78c-1.09-.63-1.76-.23-1.76,1.07v4.32a3.54,3.54,0,0,0,1.75,3.1c1.09.63,1.76.22,1.76-1.07v-4.32A3.54,3.54,0,0,0,134.89,121.77Z"/><path class="cls-63" d="M139.92,124.79l0,6.37c0,.6-.24.69-.62.47a1.24,1.24,0,0,1-.62-1.19l0-6.37-1-.61,0,6.41a3.29,3.29,0,0,0,1.67,2.94c1,.61,1.7.31,1.7-1l0-6.41Z"/><path class="cls-63" d="M143.77,130.49a4.05,4.05,0,0,1-.91-2.14v-.11c0-.47.2-.61.56-.4a1.12,1.12,0,0,1,.55,1v.31l1,.49v-.21a3.13,3.13,0,0,0-1.62-2.79c-1-.6-1.63-.27-1.63.92v.18a6.07,6.07,0,0,0,1.33,3.39,4.18,4.18,0,0,1,.94,2.19v.27c0,.52-.21.66-.62.42a1.21,1.21,0,0,1-.61-1.14v-.59l-1-.49v.56a3.19,3.19,0,0,0,1.68,2.83c1.08.62,1.68.3,1.69-.88v-.41A6.23,6.23,0,0,0,143.77,130.49Z"/><polygon class="cls-63" points="148.86 131.11 148.86 129.96 145.8 128.19 145.78 136.45 148.84 138.22 148.84 137.06 146.87 135.92 146.87 133.47 148.47 134.39 148.47 133.23 146.88 132.31 146.88 129.97 148.86 131.11"/></g><g class="cls-64"><polygon class="cls-65" points="114.32 109.92 113.66 115.03 113.06 109.19 112.09 108.64 111.44 113.75 110.83 107.91 109.71 107.26 110.8 116.16 111.91 116.8 112.56 112.25 113.17 117.53 114.28 118.17 115.41 110.55 114.32 109.92"/><path class="cls-65" d="M117,116.74l.45-3.23s.46,3.75.46,3.75Zm1.17-4.58-1.39-.8-1.26,7.54,1.09.63.24-1.74,1.2.69.23,2,1.11.64Z"/><path class="cls-65" d="M122.49,117.24c0,.7-.24.88-.76.58l-.44-.25v-2.45l.44.25a1.5,1.5,0,0,1,.76,1.45Zm.31,2.09c.5,0,.77-.5.78-1.37v-.59a3.46,3.46,0,0,0-1.8-3.13l-1.57-.91,0,8.26,1.09.63v-3.49l.5.29.85,4,1.15.67Z"/><polygon class="cls-65" points="127.67 118.79 127.67 117.63 124.61 115.86 124.59 124.12 127.65 125.89 127.65 124.73 125.68 123.6 125.69 121.14 127.28 122.06 127.28 120.91 125.69 119.99 125.7 117.65 127.67 118.79"/><polygon class="cls-65" points="130.98 119.54 130.97 123.02 129.68 122.28 129.69 118.79 128.6 118.16 128.57 126.42 129.66 127.05 129.67 123.46 130.97 124.2 130.96 127.8 132.05 128.43 132.07 120.17 130.98 119.54"/><path class="cls-65" d="M135.54,128.46c0,.61-.24.81-.67.56a1.44,1.44,0,0,1-.67-1.33v-4.3c0-.61.24-.81.67-.56a1.44,1.44,0,0,1,.67,1.33Zm-.65-6.78c-1.09-.63-1.76-.23-1.76,1.07v4.32a3.54,3.54,0,0,0,1.75,3.1c1.09.63,1.76.22,1.76-1.07v-4.32A3.54,3.54,0,0,0,134.89,121.68Z"/><path class="cls-65" d="M139.92,124.7l0,6.37c0,.6-.24.69-.62.47a1.24,1.24,0,0,1-.62-1.19l0-6.37-1-.61,0,6.41a3.29,3.29,0,0,0,1.67,2.94c1,.61,1.7.31,1.7-1l0-6.41Z"/><path class="cls-65" d="M143.77,130.4a4.05,4.05,0,0,1-.91-2.14v-.11c0-.47.2-.61.56-.4a1.12,1.12,0,0,1,.55,1v.31l1,.49v-.21a3.13,3.13,0,0,0-1.62-2.79c-1-.6-1.63-.27-1.63.92v.18a6.07,6.07,0,0,0,1.33,3.39,4.18,4.18,0,0,1,.94,2.19v.27c0,.52-.21.66-.62.42a1.21,1.21,0,0,1-.61-1.14v-.59l-1-.49v.56a3.19,3.19,0,0,0,1.68,2.83c1.08.62,1.68.3,1.69-.88v-.41A6.23,6.23,0,0,0,143.77,130.4Z"/><polygon class="cls-65" points="148.86 131.02 148.86 129.86 145.8 128.1 145.78 136.36 148.84 138.12 148.84 136.97 146.87 135.83 146.87 133.38 148.47 134.29 148.47 133.14 146.88 132.22 146.88 129.88 148.86 131.02"/></g><g class="cls-66"><polygon class="cls-67" points="114.32 109.83 113.66 114.94 113.06 109.1 112.09 108.55 111.44 113.65 110.83 107.82 109.71 107.17 110.8 116.07 111.91 116.71 112.56 112.16 113.17 117.44 114.28 118.08 115.41 110.46 114.32 109.83"/><path class="cls-67" d="M117,116.64l.45-3.23s.46,3.75.46,3.75Zm1.17-4.58-1.39-.8-1.26,7.54,1.09.63.24-1.74,1.2.69.23,2,1.11.64Z"/><path class="cls-67" d="M122.49,117.15c0,.7-.24.88-.76.58l-.44-.25V115l.44.25a1.5,1.5,0,0,1,.76,1.45Zm.31,2.09c.5,0,.77-.5.78-1.37v-.59a3.46,3.46,0,0,0-1.8-3.13l-1.57-.91,0,8.26,1.09.63v-3.49l.5.29.85,4,1.15.67Z"/><polygon class="cls-67" points="127.67 118.69 127.67 117.54 124.61 115.77 124.59 124.03 127.65 125.8 127.65 124.64 125.68 123.51 125.69 121.05 127.28 121.97 127.28 120.81 125.69 119.9 125.7 117.56 127.67 118.69"/><polygon class="cls-67" points="130.98 119.45 130.97 122.93 129.68 122.18 129.69 118.7 128.6 118.07 128.57 126.33 129.66 126.96 129.67 123.37 130.97 124.11 130.96 127.71 132.05 128.34 132.07 120.08 130.98 119.45"/><path class="cls-67" d="M135.54,128.37c0,.61-.24.81-.67.56a1.44,1.44,0,0,1-.67-1.33v-4.3c0-.61.24-.81.67-.56a1.44,1.44,0,0,1,.67,1.33Zm-.65-6.78c-1.09-.63-1.76-.23-1.76,1.07V127a3.54,3.54,0,0,0,1.75,3.1c1.09.63,1.76.22,1.76-1.07v-4.32A3.54,3.54,0,0,0,134.89,121.59Z"/><path class="cls-67" d="M139.92,124.61l0,6.37c0,.6-.24.69-.62.47a1.24,1.24,0,0,1-.62-1.19l0-6.37-1-.61,0,6.41a3.29,3.29,0,0,0,1.67,2.94c1,.61,1.7.31,1.7-1l0-6.41Z"/><path class="cls-67" d="M143.77,130.31a4.05,4.05,0,0,1-.91-2.14v-.11c0-.47.2-.61.56-.4a1.12,1.12,0,0,1,.55,1V129l1,.49v-.21a3.13,3.13,0,0,0-1.62-2.79c-1-.6-1.63-.27-1.63.92v.18a6.07,6.07,0,0,0,1.33,3.39,4.18,4.18,0,0,1,.94,2.19v.27c0,.52-.21.66-.62.42a1.21,1.21,0,0,1-.61-1.14v-.59l-1-.49v.56a3.19,3.19,0,0,0,1.68,2.83c1.08.62,1.68.3,1.69-.88v-.41A6.23,6.23,0,0,0,143.77,130.31Z"/><polygon class="cls-67" points="148.86 130.93 148.86 129.77 145.8 128.01 145.78 136.27 148.84 138.03 148.84 136.88 146.87 135.74 146.87 133.28 148.47 134.2 148.47 133.05 146.88 132.13 146.88 129.79 148.86 130.93"/></g><g class="cls-68"><polygon class="cls-69" points="114.32 109.74 113.66 114.84 113.06 109.01 112.09 108.45 111.44 113.56 110.83 107.72 109.71 107.08 110.8 115.98 111.91 116.62 112.56 112.07 113.17 117.35 114.28 117.99 115.41 110.37 114.32 109.74"/><path class="cls-69" d="M117,116.55l.45-3.23s.46,3.75.46,3.75Zm1.17-4.58-1.39-.8-1.26,7.54,1.09.63.24-1.74,1.2.69.23,2,1.11.64Z"/><path class="cls-69" d="M122.49,117.06c0,.7-.24.88-.76.58l-.44-.25v-2.45l.44.26a1.5,1.5,0,0,1,.76,1.45Zm.31,2.09c.5,0,.77-.5.78-1.37v-.59a3.46,3.46,0,0,0-1.8-3.13l-1.57-.91,0,8.26,1.09.63v-3.49l.5.29.85,4,1.15.67Z"/><polygon class="cls-69" points="127.67 118.6 127.67 117.45 124.61 115.68 124.59 123.94 127.65 125.71 127.65 124.55 125.68 123.41 125.69 120.96 127.28 121.88 127.28 120.72 125.69 119.81 125.7 117.47 127.67 118.6"/><polygon class="cls-69" points="130.98 119.36 130.97 122.84 129.68 122.09 129.69 118.61 128.6 117.98 128.57 126.24 129.66 126.87 129.67 123.28 130.97 124.02 130.96 127.62 132.05 128.25 132.07 119.99 130.98 119.36"/><path class="cls-69" d="M135.54,128.28c0,.61-.24.81-.67.56a1.44,1.44,0,0,1-.67-1.33v-4.3c0-.61.24-.81.67-.56a1.44,1.44,0,0,1,.67,1.33Zm-.65-6.78c-1.09-.63-1.76-.23-1.76,1.07v4.32a3.54,3.54,0,0,0,1.75,3.1c1.09.63,1.76.22,1.76-1.07v-4.32A3.54,3.54,0,0,0,134.89,121.49Z"/><path class="cls-69" d="M139.92,124.52l0,6.37c0,.6-.24.69-.62.47a1.24,1.24,0,0,1-.62-1.19l0-6.37-1-.61,0,6.41a3.29,3.29,0,0,0,1.67,2.94c1,.61,1.7.31,1.7-1l0-6.41Z"/><path class="cls-69" d="M143.77,130.21a4.05,4.05,0,0,1-.91-2.14V128c0-.47.2-.61.56-.4a1.12,1.12,0,0,1,.55,1v.31l1,.49v-.21a3.13,3.13,0,0,0-1.62-2.79c-1-.6-1.63-.27-1.63.92v.18a6.07,6.07,0,0,0,1.33,3.39,4.18,4.18,0,0,1,.94,2.19v.27c0,.52-.21.66-.62.42a1.21,1.21,0,0,1-.61-1.14V132l-1-.49v.56a3.19,3.19,0,0,0,1.68,2.83c1.08.62,1.68.3,1.69-.88v-.41A6.23,6.23,0,0,0,143.77,130.21Z"/><polygon class="cls-69" points="148.86 130.84 148.86 129.68 145.8 127.91 145.78 136.18 148.84 137.94 148.84 136.79 146.87 135.65 146.87 133.19 148.47 134.11 148.47 132.96 146.88 132.04 146.88 129.7 148.86 130.84"/></g><g class="cls-70"><polygon class="cls-71" points="114.32 109.65 113.66 114.75 113.06 108.92 112.09 108.36 111.44 113.47 110.83 107.63 109.71 106.99 110.8 115.89 111.91 116.53 112.56 111.98 113.17 117.26 114.28 117.9 115.41 110.28 114.32 109.65"/><path class="cls-71" d="M117,116.46l.45-3.23s.46,3.75.46,3.75Zm1.17-4.58-1.39-.8-1.26,7.54,1.09.63.24-1.74,1.2.69.23,2,1.11.64Z"/><path class="cls-71" d="M122.49,117c0,.7-.24.88-.76.58l-.44-.26v-2.45l.44.25a1.5,1.5,0,0,1,.76,1.45Zm.31,2.09c.5,0,.77-.5.78-1.37v-.59a3.46,3.46,0,0,0-1.8-3.13l-1.57-.91,0,8.26,1.09.63v-3.49l.5.29.85,4,1.15.67Z"/><polygon class="cls-71" points="127.67 118.51 127.67 117.36 124.61 115.59 124.59 123.85 127.65 125.62 127.65 124.46 125.68 123.32 125.69 120.87 127.28 121.79 127.28 120.63 125.69 119.71 125.7 117.38 127.67 118.51"/><polygon class="cls-71" points="130.98 119.27 130.97 122.75 129.68 122 129.69 118.52 128.6 117.89 128.57 126.15 129.66 126.78 129.67 123.18 130.97 123.93 130.96 127.53 132.05 128.16 132.07 119.9 130.98 119.27"/><path class="cls-71" d="M135.54,128.19c0,.61-.24.81-.67.56a1.44,1.44,0,0,1-.67-1.33v-4.3c0-.61.24-.81.67-.56a1.44,1.44,0,0,1,.67,1.33Zm-.65-6.78c-1.09-.63-1.76-.23-1.76,1.07v4.32a3.54,3.54,0,0,0,1.75,3.1c1.09.63,1.76.22,1.76-1.07V124.5A3.54,3.54,0,0,0,134.89,121.4Z"/><path class="cls-71" d="M139.92,124.43l0,6.37c0,.6-.24.69-.62.47a1.24,1.24,0,0,1-.62-1.19l0-6.37-1-.61,0,6.41a3.29,3.29,0,0,0,1.67,2.94c1,.61,1.7.31,1.7-1l0-6.41Z"/><path class="cls-71" d="M143.77,130.12a4.05,4.05,0,0,1-.91-2.14v-.11c0-.47.2-.61.56-.4a1.12,1.12,0,0,1,.55,1v.31l1,.49v-.21a3.13,3.13,0,0,0-1.62-2.79c-1-.6-1.63-.27-1.63.92v.18a6.07,6.07,0,0,0,1.33,3.39A4.18,4.18,0,0,1,144,133v.27c0,.52-.21.66-.62.42a1.21,1.21,0,0,1-.61-1.14V132l-1-.49V132a3.19,3.19,0,0,0,1.68,2.83c1.08.62,1.68.3,1.69-.88v-.41A6.23,6.23,0,0,0,143.77,130.12Z"/><polygon class="cls-71" points="148.86 130.75 148.86 129.59 145.8 127.82 145.78 136.08 148.84 137.85 148.84 136.69 146.87 135.56 146.87 133.1 148.47 134.02 148.47 132.87 146.88 131.94 146.88 129.61 148.86 130.75"/></g><g class="cls-72"><polygon class="cls-73" points="114.32 109.56 113.66 114.66 113.06 108.83 112.09 108.27 111.44 113.38 110.83 107.54 109.71 106.89 110.8 115.8 111.91 116.44 112.56 111.89 113.17 117.17 114.28 117.81 115.41 110.19 114.32 109.56"/><path class="cls-73" d="M117,116.37l.45-3.23s.46,3.75.46,3.75Zm1.17-4.58-1.39-.8-1.26,7.54,1.09.63.24-1.74,1.2.69.23,2,1.11.64Z"/><path class="cls-73" d="M122.49,116.88c0,.7-.24.88-.76.58l-.44-.25v-2.45l.44.25a1.5,1.5,0,0,1,.76,1.45Zm.31,2.09c.5,0,.77-.5.78-1.37V117a3.46,3.46,0,0,0-1.8-3.13l-1.57-.91,0,8.26,1.09.63v-3.49l.5.29.85,4,1.15.67Z"/><polygon class="cls-73" points="127.67 118.42 127.67 117.27 124.61 115.5 124.59 123.76 127.65 125.53 127.65 124.37 125.68 123.23 125.69 120.78 127.28 121.7 127.28 120.54 125.69 119.62 125.7 117.28 127.67 118.42"/><polygon class="cls-73" points="130.98 119.18 130.97 122.66 129.68 121.91 129.69 118.43 128.6 117.8 128.57 126.06 129.66 126.69 129.67 123.09 130.97 123.84 130.96 127.44 132.05 128.07 132.07 119.81 130.98 119.18"/><path class="cls-73" d="M135.54,128.1c0,.61-.24.81-.67.56a1.44,1.44,0,0,1-.67-1.33V123c0-.61.24-.81.67-.56a1.44,1.44,0,0,1,.67,1.33Zm-.65-6.78c-1.09-.63-1.76-.23-1.76,1.07v4.32a3.54,3.54,0,0,0,1.75,3.1c1.09.63,1.76.22,1.76-1.07v-4.32A3.54,3.54,0,0,0,134.89,121.31Z"/><path class="cls-73" d="M139.92,124.34l0,6.37c0,.6-.24.69-.62.47a1.24,1.24,0,0,1-.62-1.19l0-6.37-1-.61,0,6.41a3.29,3.29,0,0,0,1.67,2.94c1,.61,1.7.31,1.7-1l0-6.41Z"/><path class="cls-73" d="M143.77,130a4.05,4.05,0,0,1-.91-2.14v-.11c0-.47.2-.61.56-.4a1.12,1.12,0,0,1,.55,1v.31l1,.49V129a3.13,3.13,0,0,0-1.62-2.79c-1-.6-1.63-.27-1.63.92v.18a6.07,6.07,0,0,0,1.33,3.39,4.18,4.18,0,0,1,.94,2.19v.27c0,.52-.21.66-.62.42a1.21,1.21,0,0,1-.61-1.14v-.59l-1-.49v.56a3.19,3.19,0,0,0,1.68,2.83c1.08.62,1.68.3,1.69-.88v-.41A6.23,6.23,0,0,0,143.77,130Z"/><polygon class="cls-73" points="148.86 130.66 148.86 129.5 145.8 127.73 145.78 135.99 148.84 137.76 148.84 136.6 146.87 135.46 146.87 133.01 148.47 133.93 148.47 132.77 146.88 131.85 146.88 129.51 148.86 130.66"/></g><g class="cls-74"><polygon class="cls-75" points="114.32 109.47 113.66 114.57 113.06 108.74 112.09 108.18 111.44 113.29 110.83 107.45 109.71 106.8 110.8 115.7 111.91 116.35 112.56 111.8 113.17 117.08 114.28 117.72 115.41 110.1 114.32 109.47"/><path class="cls-75" d="M117,116.28l.45-3.23s.46,3.75.46,3.75Zm1.17-4.58-1.39-.8-1.26,7.54,1.09.63.24-1.74,1.2.69.23,2,1.11.64Z"/><path class="cls-75" d="M122.49,116.78c0,.7-.24.88-.76.58l-.44-.25v-2.45l.44.25a1.5,1.5,0,0,1,.76,1.45Zm.31,2.09c.5,0,.77-.5.78-1.37v-.59a3.46,3.46,0,0,0-1.8-3.13l-1.57-.91,0,8.26,1.09.63v-3.49l.5.29.85,4,1.15.67Z"/><polygon class="cls-75" points="127.67 118.33 127.67 117.17 124.61 115.41 124.59 123.67 127.65 125.43 127.65 124.28 125.68 123.14 125.69 120.69 127.28 121.61 127.28 120.45 125.69 119.53 125.7 117.19 127.67 118.33"/><polygon class="cls-75" points="130.98 119.08 130.97 122.57 129.68 121.82 129.69 118.34 128.6 117.71 128.57 125.97 129.66 126.6 129.67 123 130.97 123.75 130.96 127.34 132.05 127.97 132.07 119.71 130.98 119.08"/><path class="cls-75" d="M135.54,128c0,.61-.24.81-.67.56a1.44,1.44,0,0,1-.67-1.33v-4.3c0-.61.24-.81.67-.56a1.44,1.44,0,0,1,.67,1.33Zm-.65-6.78c-1.09-.63-1.76-.23-1.76,1.07v4.32a3.54,3.54,0,0,0,1.75,3.1c1.09.63,1.76.22,1.76-1.07v-4.32A3.54,3.54,0,0,0,134.89,121.22Z"/><path class="cls-75" d="M139.92,124.25l0,6.37c0,.6-.24.69-.62.47a1.24,1.24,0,0,1-.62-1.19l0-6.37-1-.61,0,6.41a3.29,3.29,0,0,0,1.67,2.94c1,.61,1.7.31,1.7-1l0-6.41Z"/><path class="cls-75" d="M143.77,129.94a4.05,4.05,0,0,1-.91-2.14v-.11c0-.47.2-.61.56-.4a1.12,1.12,0,0,1,.55,1v.31l1,.49v-.21a3.13,3.13,0,0,0-1.62-2.79c-1-.6-1.63-.27-1.63.92v.18a6.07,6.07,0,0,0,1.33,3.39,4.18,4.18,0,0,1,.94,2.19v.27c0,.52-.21.66-.62.42a1.21,1.21,0,0,1-.61-1.14v-.59l-1-.49v.56a3.19,3.19,0,0,0,1.68,2.83c1.08.62,1.68.3,1.69-.88v-.41A6.23,6.23,0,0,0,143.77,129.94Z"/><polygon class="cls-75" points="148.86 130.56 148.86 129.41 145.8 127.64 145.78 135.9 148.84 137.67 148.84 136.51 146.87 135.37 146.87 132.92 148.47 133.84 148.47 132.68 146.88 131.76 146.88 129.42 148.86 130.56"/></g><g class="cls-76"><polygon class="cls-77" points="114.32 109.38 113.66 114.48 113.06 108.65 112.09 108.09 111.44 113.2 110.83 107.36 109.71 106.71 110.8 115.61 111.91 116.25 112.56 111.71 113.17 116.98 114.28 117.63 115.41 110 114.32 109.38"/><path class="cls-77" d="M117,116.19l.45-3.23s.46,3.75.46,3.75Zm1.17-4.58-1.39-.8-1.26,7.54,1.09.63.24-1.74,1.2.69.23,2,1.11.64Z"/><path class="cls-77" d="M122.49,116.69c0,.7-.24.88-.76.58l-.44-.25v-2.45l.44.25a1.5,1.5,0,0,1,.76,1.45Zm.31,2.09c.5,0,.77-.5.78-1.37v-.59a3.46,3.46,0,0,0-1.8-3.13l-1.57-.91,0,8.26,1.09.63v-3.49l.5.29.85,4,1.15.67Z"/><polygon class="cls-77" points="127.67 118.24 127.67 117.08 124.61 115.31 124.59 123.58 127.65 125.34 127.65 124.19 125.68 123.05 125.69 120.6 127.28 121.51 127.28 120.36 125.69 119.44 125.7 117.1 127.67 118.24"/><polygon class="cls-77" points="130.98 118.99 130.97 122.47 129.68 121.73 129.69 118.25 128.6 117.62 128.57 125.88 129.66 126.51 129.67 122.91 130.97 123.66 130.96 127.25 132.05 127.88 132.07 119.62 130.98 118.99"/><path class="cls-77" d="M135.54,127.91c0,.61-.24.81-.67.56a1.44,1.44,0,0,1-.67-1.33v-4.3c0-.61.24-.81.67-.56a1.44,1.44,0,0,1,.67,1.33Zm-.65-6.78c-1.09-.63-1.76-.23-1.76,1.07v4.32a3.54,3.54,0,0,0,1.75,3.1c1.09.63,1.76.22,1.76-1.07v-4.32A3.54,3.54,0,0,0,134.89,121.13Z"/><path class="cls-77" d="M139.92,124.15l0,6.37c0,.6-.24.69-.62.47a1.24,1.24,0,0,1-.62-1.19l0-6.37-1-.61,0,6.41a3.29,3.29,0,0,0,1.67,2.94c1,.61,1.7.31,1.7-1l0-6.41Z"/><path class="cls-77" d="M143.77,129.85a4.05,4.05,0,0,1-.91-2.14v-.11c0-.47.2-.61.56-.4a1.12,1.12,0,0,1,.55,1v.31l1,.49v-.21A3.13,3.13,0,0,0,143.4,126c-1-.6-1.63-.27-1.63.92v.18a6.07,6.07,0,0,0,1.33,3.39,4.18,4.18,0,0,1,.94,2.19V133c0,.52-.21.66-.62.42a1.21,1.21,0,0,1-.61-1.14v-.59l-1-.49v.56a3.19,3.19,0,0,0,1.68,2.83c1.08.62,1.68.3,1.69-.88v-.41A6.23,6.23,0,0,0,143.77,129.85Z"/><polygon class="cls-77" points="148.86 130.47 148.86 129.32 145.8 127.55 145.78 135.81 148.84 137.58 148.84 136.42 146.87 135.28 146.87 132.83 148.47 133.75 148.47 132.59 146.88 131.67 146.88 129.33 148.86 130.47"/></g><g class="cls-78"><polygon class="cls-79" points="114.32 109.28 113.66 114.39 113.06 108.56 112.09 108 111.44 113.11 110.83 107.27 109.71 106.62 110.8 115.52 111.91 116.16 112.56 111.62 113.17 116.89 114.28 117.53 115.41 109.91 114.32 109.28"/><path class="cls-79" d="M117,116.1l.45-3.23s.46,3.75.46,3.75Zm1.17-4.58-1.39-.8-1.26,7.54,1.09.63.24-1.74,1.2.69.23,2,1.11.64Z"/><path class="cls-79" d="M122.49,116.6c0,.7-.24.88-.76.58l-.44-.26v-2.45l.44.26a1.5,1.5,0,0,1,.76,1.45Zm.31,2.09c.5,0,.77-.5.78-1.37v-.59a3.46,3.46,0,0,0-1.8-3.13l-1.57-.91,0,8.26,1.09.63v-3.49l.5.29.85,4,1.15.67Z"/><polygon class="cls-79" points="127.67 118.15 127.67 116.99 124.61 115.22 124.59 123.48 127.65 125.25 127.65 124.09 125.68 122.96 125.69 120.5 127.28 121.42 127.28 120.27 125.69 119.35 125.7 117.01 127.67 118.15"/><polygon class="cls-79" points="130.98 118.9 130.97 122.38 129.68 121.64 129.69 118.16 128.6 117.53 128.57 125.79 129.66 126.42 129.67 122.82 130.97 123.57 130.96 127.16 132.05 127.79 132.07 119.53 130.98 118.9"/><path class="cls-79" d="M135.54,127.82c0,.61-.24.81-.67.56a1.44,1.44,0,0,1-.67-1.33v-4.3c0-.61.24-.81.67-.56a1.44,1.44,0,0,1,.67,1.33Zm-.65-6.78c-1.09-.63-1.76-.23-1.76,1.07v4.32a3.54,3.54,0,0,0,1.75,3.1c1.09.63,1.76.22,1.76-1.07v-4.32A3.54,3.54,0,0,0,134.89,121Z"/><path class="cls-79" d="M139.92,124.06l0,6.37c0,.6-.24.69-.62.47a1.24,1.24,0,0,1-.62-1.19l0-6.37-1-.61,0,6.41a3.29,3.29,0,0,0,1.67,2.94c1,.61,1.7.31,1.7-1l0-6.41Z"/><path class="cls-79" d="M143.77,129.76a4.05,4.05,0,0,1-.91-2.14v-.11c0-.47.2-.61.56-.4a1.12,1.12,0,0,1,.55,1v.31l1,.49v-.21A3.13,3.13,0,0,0,143.4,126c-1-.6-1.63-.27-1.63.92V127a6.07,6.07,0,0,0,1.33,3.39,4.18,4.18,0,0,1,.94,2.19v.27c0,.52-.21.66-.62.42a1.21,1.21,0,0,1-.61-1.14v-.59l-1-.49v.56a3.19,3.19,0,0,0,1.68,2.83c1.08.62,1.68.3,1.69-.88v-.41A6.23,6.23,0,0,0,143.77,129.76Z"/><polygon class="cls-79" points="148.86 130.38 148.86 129.22 145.8 127.46 145.78 135.72 148.84 137.49 148.84 136.33 146.87 135.19 146.87 132.74 148.47 133.66 148.47 132.5 146.88 131.58 146.88 129.24 148.86 130.38"/></g><g class="cls-80"><polygon class="cls-81" points="114.32 109.19 113.66 114.3 113.06 108.46 112.09 107.91 111.44 113.02 110.83 107.18 109.71 106.53 110.8 115.43 111.91 116.07 112.56 111.53 113.17 116.8 114.28 117.44 115.41 109.82 114.32 109.19"/><path class="cls-81" d="M117,116l.45-3.23s.46,3.75.46,3.75Zm1.17-4.58-1.39-.8-1.26,7.54,1.09.63.24-1.74,1.2.69.23,2,1.11.64Z"/><path class="cls-81" d="M122.49,116.51c0,.7-.24.88-.76.58l-.44-.25v-2.45l.44.25a1.5,1.5,0,0,1,.76,1.45Zm.31,2.09c.5,0,.77-.5.78-1.37v-.59a3.46,3.46,0,0,0-1.8-3.13l-1.57-.91,0,8.26,1.09.63V118l.5.29.85,4,1.15.67Z"/><polygon class="cls-81" points="127.67 118.06 127.67 116.9 124.61 115.13 124.59 123.39 127.65 125.16 127.65 124 125.68 122.87 125.69 120.41 127.28 121.33 127.28 120.17 125.69 119.26 125.7 116.92 127.67 118.06"/><polygon class="cls-81" points="130.98 118.81 130.97 122.29 129.68 121.55 129.69 118.06 128.6 117.43 128.57 125.69 129.66 126.32 129.67 122.73 130.97 123.47 130.96 127.07 132.05 127.7 132.07 119.44 130.98 118.81"/><path class="cls-81" d="M135.54,127.73c0,.61-.24.81-.67.56a1.44,1.44,0,0,1-.67-1.33v-4.3c0-.61.24-.81.67-.56a1.44,1.44,0,0,1,.67,1.33Zm-.65-6.78c-1.09-.63-1.76-.23-1.76,1.07v4.32a3.54,3.54,0,0,0,1.75,3.1c1.09.63,1.76.22,1.76-1.07V124A3.54,3.54,0,0,0,134.89,120.95Z"/><path class="cls-81" d="M139.92,124l0,6.37c0,.6-.24.69-.62.47a1.24,1.24,0,0,1-.62-1.19l0-6.37-1-.61,0,6.41a3.29,3.29,0,0,0,1.67,2.94c1,.61,1.7.31,1.7-1l0-6.41Z"/><path class="cls-81" d="M143.77,129.67a4.05,4.05,0,0,1-.91-2.14v-.11c0-.47.2-.61.56-.4a1.12,1.12,0,0,1,.55,1v.31l1,.49v-.21a3.13,3.13,0,0,0-1.62-2.79c-1-.6-1.63-.27-1.63.92V127a6.07,6.07,0,0,0,1.33,3.39,4.18,4.18,0,0,1,.94,2.19v.27c0,.52-.21.66-.62.42a1.21,1.21,0,0,1-.61-1.14v-.59l-1-.49v.56a3.19,3.19,0,0,0,1.68,2.83c1.08.62,1.68.3,1.69-.88v-.41A6.23,6.23,0,0,0,143.77,129.67Z"/><polygon class="cls-81" points="148.86 130.29 148.86 129.13 145.8 127.37 145.78 135.63 148.84 137.39 148.84 136.24 146.87 135.1 146.87 132.65 148.47 133.56 148.47 132.41 146.88 131.49 146.88 129.15 148.86 130.29"/></g><g class="cls-82"><polygon class="cls-83" points="114.32 109.1 113.66 114.2 113.06 108.37 112.09 107.82 111.44 112.92 110.83 107.09 109.71 106.44 110.8 115.34 111.91 115.98 112.56 111.43 113.17 116.71 114.28 117.35 115.41 109.73 114.32 109.1"/><path class="cls-83" d="M117,115.91l.45-3.23s.46,3.75.46,3.75Zm1.17-4.58-1.39-.8-1.26,7.54,1.09.63.24-1.74,1.2.69.23,2,1.11.64Z"/><path class="cls-83" d="M122.49,116.42c0,.7-.24.88-.76.58l-.44-.25v-2.45l.44.25a1.5,1.5,0,0,1,.76,1.45Zm.31,2.09c.5,0,.77-.5.78-1.37v-.59a3.46,3.46,0,0,0-1.8-3.13l-1.57-.91,0,8.26,1.09.63V117.9l.5.29.85,4,1.15.67Z"/><polygon class="cls-83" points="127.67 117.97 127.67 116.81 124.61 115.04 124.59 123.3 127.65 125.07 127.65 123.91 125.68 122.78 125.69 120.32 127.28 121.24 127.28 120.08 125.69 119.17 125.7 116.83 127.67 117.97"/><polygon class="cls-83" points="130.98 118.72 130.97 122.2 129.68 121.45 129.69 117.97 128.6 117.34 128.57 125.6 129.66 126.23 129.67 122.64 130.97 123.38 130.96 126.98 132.05 127.61 132.07 119.35 130.98 118.72"/><path class="cls-83" d="M135.54,127.64c0,.61-.24.81-.67.56a1.44,1.44,0,0,1-.67-1.33v-4.3c0-.61.24-.81.67-.56a1.44,1.44,0,0,1,.67,1.33Zm-.65-6.78c-1.09-.63-1.76-.23-1.76,1.07v4.32a3.54,3.54,0,0,0,1.75,3.1c1.09.63,1.76.22,1.76-1.07V124A3.54,3.54,0,0,0,134.89,120.86Z"/><path class="cls-83" d="M139.92,123.88l0,6.37c0,.6-.24.69-.62.47a1.24,1.24,0,0,1-.62-1.19l0-6.37-1-.61,0,6.41a3.29,3.29,0,0,0,1.67,2.94c1,.61,1.7.31,1.7-1l0-6.41Z"/><path class="cls-83" d="M143.77,129.58a4.05,4.05,0,0,1-.91-2.14v-.11c0-.47.2-.61.56-.4a1.12,1.12,0,0,1,.55,1v.31l1,.49v-.21a3.13,3.13,0,0,0-1.62-2.79c-1-.6-1.63-.27-1.63.92v.18a6.07,6.07,0,0,0,1.33,3.39,4.18,4.18,0,0,1,.94,2.19v.27c0,.52-.21.66-.62.42a1.21,1.21,0,0,1-.61-1.14v-.59l-1-.49v.56a3.19,3.19,0,0,0,1.68,2.83c1.08.62,1.68.3,1.69-.88V133A6.23,6.23,0,0,0,143.77,129.58Z"/><polygon class="cls-83" points="148.86 130.2 148.86 129.04 145.8 127.28 145.78 135.54 148.84 137.3 148.84 136.15 146.87 135.01 146.87 132.55 148.47 133.47 148.47 132.32 146.88 131.4 146.88 129.06 148.86 130.2"/></g><polygon class="cls-84" points="114.32 109.01 113.66 114.11 113.06 108.28 112.09 107.72 111.44 112.83 110.83 107 109.71 106.35 110.8 115.25 111.91 115.89 112.56 111.34 113.17 116.62 114.28 117.26 115.41 109.64 114.32 109.01"/><path class="cls-84" d="M117,115.82l.45-3.23s.46,3.75.46,3.75Zm1.17-4.58-1.39-.8L115.54,118l1.09.63.24-1.74,1.2.69.23,2,1.11.64Z"/><path class="cls-84" d="M122.49,116.33c0,.7-.24.88-.76.58l-.44-.25V114.2l.44.26a1.5,1.5,0,0,1,.76,1.45Zm.31,2.09c.5,0,.77-.5.78-1.37v-.59a3.46,3.46,0,0,0-1.8-3.13l-1.57-.91,0,8.26,1.09.63v-3.49l.5.29.85,4,1.15.67Z"/><polygon class="cls-84" points="127.67 117.87 127.67 116.72 124.61 114.95 124.59 123.21 127.65 124.98 127.65 123.82 125.68 122.68 125.69 120.23 127.28 121.15 127.28 119.99 125.69 119.08 125.7 116.74 127.67 117.87"/><polygon class="cls-84" points="130.98 118.63 130.97 122.11 129.68 121.36 129.69 117.88 128.6 117.25 128.57 125.51 129.66 126.14 129.67 122.55 130.97 123.29 130.96 126.89 132.05 127.52 132.07 119.26 130.98 118.63"/><path class="cls-84" d="M135.54,127.55c0,.61-.24.81-.67.56a1.44,1.44,0,0,1-.67-1.33v-4.3c0-.61.24-.81.67-.56a1.44,1.44,0,0,1,.67,1.33Zm-.65-6.78c-1.09-.63-1.76-.23-1.76,1.07v4.32a3.54,3.54,0,0,0,1.75,3.1c1.09.63,1.76.22,1.76-1.07v-4.32A3.54,3.54,0,0,0,134.89,120.76Z"/><path class="cls-84" d="M139.92,123.79l0,6.37c0,.6-.24.69-.62.47a1.24,1.24,0,0,1-.62-1.19l0-6.37-1-.61,0,6.41a3.29,3.29,0,0,0,1.67,2.94c1,.61,1.7.31,1.7-1l0-6.41Z"/><path class="cls-84" d="M143.77,129.48a4.05,4.05,0,0,1-.91-2.14v-.11c0-.47.2-.61.56-.4a1.12,1.12,0,0,1,.55,1v.31l1,.49v-.21a3.13,3.13,0,0,0-1.62-2.79c-1-.6-1.63-.27-1.63.92v.18a6.07,6.07,0,0,0,1.33,3.39,4.18,4.18,0,0,1,.94,2.19v.27c0,.52-.21.66-.62.42a1.21,1.21,0,0,1-.61-1.14v-.59l-1-.49v.56a3.19,3.19,0,0,0,1.68,2.83c1.08.62,1.68.3,1.69-.88v-.41A6.23,6.23,0,0,0,143.77,129.48Z"/><polygon class="cls-84" points="148.86 130.11 148.86 128.95 145.8 127.18 145.78 135.44 148.84 137.21 148.84 136.06 146.87 134.92 146.87 132.46 148.47 133.38 148.47 132.23 146.88 131.31 146.88 128.97 148.86 130.11"/></g><g class="cls-2"><polygon class="cls-3" points="112.21 111.07 111.91 115.89 112.75 115.4 113.41 110.85 112.21 111.07"/><polygon class="cls-4" points="110.56 105.86 109.71 106.35 110.6 107.31 111.68 106.5 110.56 105.86"/><polygon class="cls-3" points="111.68 106.5 110.83 107 110.97 113.37 112.29 112.34 111.68 106.5"/><polygon class="cls-4" points="112.94 107.23 112.09 107.72 113.06 108.62 113.91 107.79 112.94 107.23"/><polygon class="cls-3" points="113.91 107.79 113.06 108.28 113.44 114.35 114.51 113.62 113.91 107.79"/><polygon class="cls-4" points="115.17 108.52 114.32 109.01 115.37 109.95 116.26 109.15 115.17 108.52"/><polygon class="cls-3" points="115.12 109.81 114.28 117.26 115.13 116.77 116.26 109.15 115.12 109.81"/><polygon class="cls-7" points="114.32 109.01 113.66 114.11 113.06 108.28 112.09 107.72 111.44 112.83 110.83 107 109.71 106.35 110.8 115.25 111.91 115.89 112.56 111.34 113.17 116.62 114.28 117.26 115.41 109.64 114.32 109.01"/></g><g class="cls-2"><polygon class="cls-3" points="116.62 116.6 116.62 118.61 117.47 118.12 117.71 116.38 116.62 116.6"/><polygon class="cls-4" points="117.86 115.33 116.52 115.82 117.92 116.35 118.77 115.86 117.86 115.33"/><polygon class="cls-3" points="117.01 112.41 117.01 115.82 117.86 115.33 118.31 112.1 117.01 112.41"/><polygon class="cls-4" points="117.65 109.95 116.8 110.44 118.19 111.47 119.03 110.75 117.65 109.95"/><polygon class="cls-3" points="119.03 110.75 117.92 111.4 119.41 120.22 120.25 119.73 119.03 110.75"/><path class="cls-7" d="M118.19,111.24l-1.39-.8L115.54,118l1.09.63.24-1.74,1.2.69.23,2,1.11.64ZM117,115.82l.45-3.23s.46,3.75.46,3.75Z"/></g><g class="cls-2"><polygon class="cls-3" points="120.98 117.5 121.28 121.3 122.12 120.81 122.13 117.32 120.98 117.5"/><polygon class="cls-3" points="123.66 117.92 122.5 118.28 123.8 122.75 124.64 122.26 123.66 117.92"/><path class="cls-4" d="M122.58,116.41l-.44-.25-.85.49.27.4a1.3,1.3,0,0,0,.85.13l.72-.66C123,116.59,122.82,116.55,122.58,116.41Z"/><polygon class="cls-3" points="120.98 114.12 121.29 116.65 122.14 116.16 122.14 113.7 120.98 114.12"/><path class="cls-4" d="M122.63,112.83l-1.57-.91-.85.49,1.43,1a3.3,3.3,0,0,1,1.83,3l0,.65c0,.68,0,1-.32,1.2l.85-.49c.31-.18.47-.6.47-1.28V116A3.46,3.46,0,0,0,122.63,112.83Z"/><path class="cls-7" d="M122.81,118.41c.5,0,.77-.5.78-1.37v-.59a3.46,3.46,0,0,0-1.8-3.13l-1.57-.91,0,8.26,1.09.63v-3.49l.5.29.85,4,1.15.67Zm-.31-2.09c0,.7-.24.88-.76.58l-.44-.25V114.2l.44.26a1.5,1.5,0,0,1,.76,1.45Z"/></g><g class="cls-2"><polygon class="cls-3" points="127.27 124.02 127.65 124.98 128.5 124.48 128.5 123.33 127.27 124.02"/><polygon class="cls-4" points="126.53 122.19 125.68 122.68 127.42 123.93 128.5 123.33 126.53 122.19"/><polygon class="cls-3" points="125.31 120.09 125.68 122.68 126.53 122.19 126.53 119.74 125.31 120.09"/><polygon class="cls-4" points="126.54 118.58 125.69 119.08 127.09 120.34 128.13 119.5 126.54 118.58"/><polygon class="cls-3" points="126.91 120.22 127.28 121.15 128.13 120.66 128.13 119.5 126.91 120.22"/><polygon class="cls-3" points="125.42 116.53 125.69 119.08 126.54 118.58 126.55 116.24 125.42 116.53"/><polygon class="cls-4" points="125.46 114.46 124.61 114.95 127.65 117.05 128.52 116.22 125.46 114.46"/><polygon class="cls-3" points="127.42 116.85 127.67 117.87 128.51 117.38 128.52 116.22 127.42 116.85"/><polygon class="cls-7" points="127.67 117.87 127.67 116.72 124.61 114.95 124.59 123.21 127.65 124.98 127.65 123.82 125.68 122.68 125.69 120.23 127.28 121.15 127.28 119.99 125.69 119.08 125.7 116.74 127.67 117.87"/></g><g class="cls-2"><polygon class="cls-3" points="129.44 122.39 129.66 126.14 130.51 125.65 130.52 122.05 129.44 122.39"/><polygon class="cls-4" points="130.52 120.87 129.28 121.49 130.97 122.11 131.82 121.62 130.52 120.87"/><polygon class="cls-4" points="129.44 116.76 128.6 117.25 129.69 118.06 130.53 117.39 129.44 116.76"/><polygon class="cls-3" points="129.38 118.06 129.68 121.36 130.52 120.87 130.53 117.39 129.38 118.06"/><polygon class="cls-4" points="131.83 118.14 130.98 118.63 132.07 119.46 132.92 118.77 131.83 118.14"/><polygon class="cls-3" points="131.82 119.38 132.05 127.52 132.9 127.03 132.92 118.77 131.82 119.38"/><polygon class="cls-7" points="130.98 118.63 130.97 122.11 129.68 121.36 129.69 117.88 128.6 117.25 128.57 125.51 129.66 126.14 129.67 122.55 130.97 123.29 130.96 126.89 132.05 127.52 132.07 119.26 130.98 118.63"/></g><g class="cls-2"><path class="cls-3" d="M135.71,127.61a1.44,1.44,0,0,1-.67-1.33V122c0-.34.07-.55.21-.63l-1.07.46c-.14.08-.22.43-.22.77l.09,4.31a1.47,1.47,0,0,0,.73,1.32c.19.11.51.21.62.14l.75-.67A.46.46,0,0,1,135.71,127.61Z"/><path class="cls-4" d="M135.73,120.27a1.3,1.3,0,0,0-1.28-.19l-.85.49c.3-.18.62,0,1.16.3a3.3,3.3,0,0,1,1.67,3l.06,4.35c0,.66,0,1.06-.36,1.24L137,129c.31-.18.48-.61.49-1.27v-4.32A3.54,3.54,0,0,0,135.73,120.27Z"/><path class="cls-7" d="M134.89,120.76c-1.09-.63-1.76-.23-1.76,1.07v4.32a3.54,3.54,0,0,0,1.75,3.1c1.09.63,1.76.22,1.76-1.07v-4.32A3.54,3.54,0,0,0,134.89,120.76Zm.65,6.78c0,.61-.24.81-.67.56a1.44,1.44,0,0,1-.67-1.33v-4.3c0-.61.24-.81.67-.56a1.44,1.44,0,0,1,.67,1.33Z"/></g><g class="cls-2"><polygon class="cls-4" points="138.49 121.98 137.64 122.47 138.69 123.33 139.53 122.58 138.49 121.98"/><path class="cls-3" d="M140.13,130.14a1.24,1.24,0,0,1-.62-1.19l0-6.37-1.09.64.1,6.28a1.39,1.39,0,0,0,.7,1.24.59.59,0,0,0,.52.05l.8-.58C140.47,130.28,140.32,130.25,140.13,130.14Z"/><polygon class="cls-4" points="140.77 123.3 139.92 123.79 141.01 124.64 141.86 123.93 140.77 123.3"/><path class="cls-3" d="M140.76,124.56l.23,6.27c0,.64-.16,1-.45,1.2l.85-.49c.29-.17.44-.56.45-1.2l0-6.41Z"/><path class="cls-7" d="M139.92,123.79l0,6.37c0,.6-.24.69-.62.47a1.24,1.24,0,0,1-.62-1.19l0-6.37-1-.61,0,6.41a3.29,3.29,0,0,0,1.67,2.94c1,.61,1.7.31,1.7-1l0-6.41Z"/></g><g class="cls-2"><polygon class="cls-4" points="142.6 130.34 141.75 130.83 142.8 131.52 143.65 130.83 142.6 130.34"/><path class="cls-3" d="M144.26,132.55a1.21,1.21,0,0,1-.61-1.14v-.59l-1,.59.07.49a1.44,1.44,0,0,0,.67,1.25.52.52,0,0,0,.49.06l.85-.58Q144.56,132.72,144.26,132.55Z"/><path class="cls-3" d="M144.61,129a4.05,4.05,0,0,1-.91-2.14v-.11c0-.25.06-.4.16-.46l-1,.43a.54.54,0,0,0-.22.47v.48c0,.49.29.94,1,2.07,1,1.54,1.34,2.11,1.34,3.1v.6c0,.58,0,.83-.29,1l.85-.49c.27-.16.42-.53.42-1.11v-.41A6.23,6.23,0,0,0,144.61,129Z"/><path class="cls-4" d="M144.24,125.18c-.52-.3-.93-.37-1.21-.21l-.85.49c.28-.16.61.05,1.14.36a2.69,2.69,0,0,1,1.55,2.53l.13.32.85-.49V128A3.13,3.13,0,0,0,144.24,125.18Z"/><path class="cls-7" d="M143.77,129.48a4.05,4.05,0,0,1-.91-2.14v-.11c0-.47.2-.61.56-.4a1.12,1.12,0,0,1,.55,1v.31l1,.49v-.21a3.13,3.13,0,0,0-1.62-2.79c-1-.6-1.63-.27-1.63.92v.18a6.07,6.07,0,0,0,1.33,3.39,4.18,4.18,0,0,1,.94,2.19v.27c0,.52-.21.66-.62.42a1.21,1.21,0,0,1-.61-1.14v-.59l-1-.49v.56a3.19,3.19,0,0,0,1.68,2.83c1.08.62,1.68.3,1.69-.88v-.41A6.23,6.23,0,0,0,143.77,129.48Z"/></g><g class="cls-2"><polygon class="cls-4" points="147.71 134.42 146.72 134.99 148.84 136.19 149.69 135.56 147.71 134.42"/><polygon class="cls-3" points="148.59 136.19 148.84 137.21 149.69 136.72 149.69 135.56 148.59 136.19"/><polygon class="cls-3" points="146.64 132.39 146.72 134.99 147.71 134.42 147.72 131.97 146.64 132.39"/><polygon class="cls-4" points="147.72 130.81 146.57 131.47 148.47 132.39 149.32 131.73 147.72 130.81"/><polygon class="cls-3" points="148.3 132.33 148.47 133.38 149.31 132.89 149.32 131.73 148.3 132.33"/><polygon class="cls-3" points="146.64 128.96 146.64 131.44 147.72 130.81 147.73 128.47 146.64 128.96"/><polygon class="cls-4" points="146.65 126.69 145.8 127.18 148.86 129.15 149.71 128.46 146.65 126.69"/><polygon class="cls-3" points="148.65 129.07 148.86 130.11 149.71 129.61 149.71 128.46 148.65 129.07"/><polygon class="cls-7" points="148.86 130.11 148.86 128.95 145.8 127.18 145.78 135.44 148.84 137.21 148.84 136.06 146.87 134.92 146.87 132.46 148.47 133.38 148.47 132.23 146.88 131.31 146.88 128.97 148.86 130.11"/></g><g class="cls-85"><rect class="cls-86" x="47.23" y="33.74" width="134.39" height="0.6" transform="translate(-1.68 61.82) rotate(-30.02)"/><rect class="cls-86" x="55.92" y="36.83" width="134.39" height="0.6" transform="matrix(0.87, -0.5, 0.5, 0.87, -2.06, 66.59)"/><rect class="cls-86" x="64.62" y="39.91" width="134.39" height="0.6" transform="matrix(0.87, -0.5, 0.5, 0.87, -2.43, 71.35)"/><rect class="cls-86" x="73.32" y="43" width="134.39" height="0.6" transform="translate(-2.81 76.12) rotate(-30.02)"/><rect class="cls-86" x="82.01" y="46.09" width="134.39" height="0.6" transform="translate(-3.19 80.89) rotate(-30.03)"/><rect class="cls-87" x="46.64" y="33.64" width="134.39" height="0.6" transform="translate(-1.71 61.51) rotate(-30.02)"/><rect class="cls-87" x="55.34" y="36.72" width="134.39" height="0.6" transform="translate(-2.08 66.28) rotate(-30.02)"/><rect class="cls-87" x="64.03" y="39.81" width="134.39" height="0.6" transform="matrix(0.87, -0.5, 0.5, 0.87, -2.46, 71.04)"/><rect class="cls-87" x="72.73" y="42.9" width="134.39" height="0.6" transform="translate(-2.84 75.8) rotate(-30.02)"/><rect class="cls-87" x="81.42" y="45.98" width="134.39" height="0.6" transform="translate(-3.22 80.57) rotate(-30.02)"/></g><g class="cls-88"><rect class="cls-86" x="110.75" y="65.6" width="134.39" height="0.6" transform="translate(-9.1 97.88) rotate(-30.02)"/><rect class="cls-86" x="105.82" y="59.4" width="134.39" height="0.6" transform="translate(-6.66 94.59) rotate(-30.03)"/><rect class="cls-86" x="100.89" y="53.21" width="134.39" height="0.6" transform="translate(-4.22 91.29) rotate(-30.03)"/><rect class="cls-86" x="116.29" y="70.56" width="134.39" height="0.6" transform="translate(-10.83 101.32) rotate(-30.02)"/><rect class="cls-86" x="122.62" y="74.93" width="134.39" height="0.6" transform="translate(-12.17 105.07) rotate(-30.02)"/><rect class="cls-86" x="127.73" y="80.04" width="134.39" height="0.6" transform="translate(-14.05 108.31) rotate(-30.02)"/><rect class="cls-86" x="133.63" y="84.84" width="134.39" height="0.6" transform="translate(-15.65 111.91) rotate(-30.02)"/><rect class="cls-89" x="111.15" y="65.93" width="134.39" height="0.6" transform="translate(-9.21 98.1) rotate(-30.02)"/><polygon class="cls-89" points="115.42 93.97 115.12 93.45 231.42 26.1 231.72 26.62 115.42 93.97"/><polygon class="cls-89" points="110.49 87.78 110.19 87.26 226.49 19.91 226.79 20.43 110.49 87.78"/><rect class="cls-89" x="116.7" y="70.89" width="134.39" height="0.6" transform="translate(-10.95 101.57) rotate(-30.02)"/><rect class="cls-89" x="123.02" y="75.26" width="134.39" height="0.6" transform="translate(-12.28 105.32) rotate(-30.02)"/><rect class="cls-89" x="128.13" y="80.37" width="134.39" height="0.6" transform="translate(-14.16 108.56) rotate(-30.02)"/><rect class="cls-89" x="134.03" y="85.17" width="134.39" height="0.6" transform="translate(-15.77 112.16) rotate(-30.02)"/></g><g class="cls-2"><polygon class="cls-90" points="207.86 116.78 203.21 119.08 204.31 120.87 208.63 118.38 207.86 116.78"/><polygon class="cls-91" points="208.63 120.52 208.18 120.79 207.86 120.63 208.18 120.45 204.77 122.43 204.78 122.75 204.31 123.02 204.02 121.03 208.63 118.38 208.63 120.52"/><polygon class="cls-4" points="204.77 121.13 208.18 119.16 208.18 120.45 204.77 122.43 204.77 121.13"/><polygon class="cls-7" points="204.77 121.13 208.18 119.16 208.18 119.49 204.77 121.47 204.77 121.13"/><polygon class="cls-25" points="203.54 119.27 202.78 118.82 202.78 122.09 204.31 123.02 204.31 120.87 203.54 119.27"/><polygon class="cls-92" points="207.09 116.33 202.78 118.82 203.54 119.27 207.86 116.78 207.09 116.33"/></g><path class="cls-25" d="M145.17,151c0-.36.9-.55,2-.55s2,.12,2,.55a2,2,0,0,1-2,2A1.94,1.94,0,0,1,145.17,151Z"/><path class="cls-93" d="M147.43,152.89c-.69,0-.82-1.25-.82-1.42s2.43-.12,2.45-.09A1.63,1.63,0,0,1,147.43,152.89Z"/><path class="cls-94" d="M147.19,150.49c-1.11,0-2,.19-2,.55a1.55,1.55,0,0,0,.14.87,3.09,3.09,0,0,0,1.63.37,5.48,5.48,0,0,0,2.08-.41,2,2,0,0,0,.18-.83C149.2,150.61,148.3,150.49,147.19,150.49Z"/><path class="cls-95" d="M144.87,150.45c.15-1.36.93-3.38,2.27-3.38s2.33,2.1,2.38,3.47c0,0,0,.15,0,.15a3.23,3.23,0,0,1,0,.34c-.05.42-1.19.84-2.48.84s-2.21-.42-2.21-.93a1.57,1.57,0,0,1,0-.22Z"/><path class="cls-96" d="M149.53,150.56a3.77,3.77,0,0,1-2.49.78c-1.23,0-2.15-.36-2.15-.84,0,0,0,.23,0,.23.22.42,1.08.72,2.19.72a4.16,4.16,0,0,0,2.5-.74S149.53,150.56,149.53,150.56Z"/><g class="cls-2"><path class="cls-18" d="M147.83,147.14a1.44,1.44,0,0,0-1.31,0c-.37.22-.36.56,0,.77a1.44,1.44,0,0,0,1.32,0C148.21,147.69,148.2,147.35,147.83,147.14Z"/><path class="cls-97" d="M147.79,147.18a1.32,1.32,0,0,1-1.21,0,.43.43,0,0,1-.25-.35v.64a.43.43,0,0,0,.25.35,1.32,1.32,0,0,0,1.21,0,.41.41,0,0,0,.24-.34v-.64A.41.41,0,0,1,147.79,147.18Z"/><path class="cls-3" d="M147.78,146.48a1.32,1.32,0,0,0-1.2,0c-.34.2-.33.51,0,.7a1.32,1.32,0,0,0,1.21,0C148.12,147,148.11,146.67,147.78,146.48Z"/></g><g class="cls-2"><path class="cls-98" d="M151.16,144.57a2.05,2.05,0,0,0-.43-1.83.67.67,0,0,0-.63-.26l.56-.12a.67.67,0,0,1,.63.26,2.05,2.05,0,0,1,.43,1.83.64.64,0,0,1-.43.49l-.56.12A.64.64,0,0,0,151.16,144.57Z"/><path class="cls-99" d="M150.1,144.79a2,2,0,0,1-.44-1.81c.18-.59.65-.68,1.06-.24a2.05,2.05,0,0,1,.43,1.83C151,145.14,150.51,145.23,150.1,144.79Z"/></g><g class="cls-2"><path class="cls-100" d="M150.88,143.43s-.22,0-.3,0-2,1.23-2.14,1.39a3.68,3.68,0,0,0-.89.91,7,7,0,0,0-.37.81,2.54,2.54,0,0,1-.22.45.86.86,0,0,0,.43.08c.21,0,.37-.31.37-.31a3.4,3.4,0,0,1,.27-.58,2.23,2.23,0,0,1,.59-.59,23.56,23.56,0,0,1,2.26-1.2Z"/><path class="cls-3" d="M150.06,143l-.15.09-.41.26-.89.57-.45.29a3.69,3.69,0,0,0-.51.37,1.84,1.84,0,0,0-.69.94c-.09.35-.2.73-.25,1-.11.61.5.68.61.52s.19-.75.35-1.08a3.2,3.2,0,0,1,.81-.9,3.68,3.68,0,0,1,.51-.37l.45-.29.89-.57.41-.26.15-.09Z"/></g></g></g></g></g></svg>