<svg xmlns="http://www.w3.org/2000/svg" xmlns:xlink="http://www.w3.org/1999/xlink" viewBox="0 0 20.93 44.6"><defs><style>.cls-1{isolation:isolate;}.cls-12,.cls-2{fill:#e4ecf5;}.cls-2{mix-blend-mode:multiply;}.cls-3{fill:#f5c59a;}.cls-4{fill:#ba3e2f;}.cls-5{fill:#0d0d0d;}.cls-6{fill:#151b21;}.cls-7{fill:#fcd1a9;}.cls-8{fill:#25303b;}.cls-9{fill:#3a4a5d;}.cls-10{fill:#ff624d;}.cls-11{fill:#fff;}.cls-13{fill:#b8cbe0;}.cls-14{fill:#87a7c7;}.cls-15{fill:#de4d3a;}.cls-16{fill:url(#linear-gradient);}.cls-17{fill:url(#linear-gradient-2);}.cls-18{fill:#e8b07d;}</style><linearGradient id="linear-gradient" x1="-424.97" y1="116.81" x2="-424.97" y2="113.49" gradientTransform="translate(441.23 -69.81) rotate(5.13)" gradientUnits="userSpaceOnUse"><stop offset="0.13" stop-color="#fcd1a9"/><stop offset="0.56" stop-color="#f2b98c"/></linearGradient><linearGradient id="linear-gradient-2" x1="-447.3" y1="133.84" x2="-446.75" y2="127.83" gradientTransform="translate(467.37 -81.12) rotate(5.77)" gradientUnits="userSpaceOnUse"><stop offset="0" stop-color="#f2b98c"/><stop offset="0.41" stop-color="#f7c69b"/><stop offset="0.91" stop-color="#fcd1a9"/></linearGradient></defs><title>i5</title><g class="cls-1"><g id="Слой_2" data-name="Слой 2"><g id="_лой_1" data-name="—лой_1"><g id="male_back_with_tablet" data-name="male back with tablet"><path class="cls-2" d="M15.56,37.88c-1,1.5-3.8,2.33-6.34,2.9C5.65,41.59,10,42,7.9,43.63c-1.53,1.22-5.09,1.21-6,.38C1.2,43.34,3,39.67,5.77,39.42c2.6-.23,3.85-2.91,5.27-3.34C13,35.48,17.23,35.37,15.56,37.88Z"/><path class="cls-3" d="M5.09,6c-1-.4-1.62.61-1.87,1A67.48,67.48,0,0,0,.08,13a1.24,1.24,0,0,0-.06.38c-.1,2,.23,6.76.23,6.76a5.51,5.51,0,0,0-.06,2.1c0,.13.15.12.2.23s.06.38.14.47S.7,23,.77,23s.07.1.1.11a.52.52,0,0,0,.27,0s.11-.11.15-.13.17,0,.23-.19a1.83,1.83,0,0,0,.17-.53c0-.25.05-.71.07-1.05a.84.84,0,0,1,.07.19,2.12,2.12,0,0,0,0,.33.32.32,0,0,0,.17.22c.08,0,.22.05.19-.09a6.21,6.21,0,0,1,0-.74,2,2,0,0,0-.59-.83s.86-6.56.86-6.56S5.19,9.4,5.74,8.11A1.52,1.52,0,0,0,5.09,6Z"/><path class="cls-4" d="M4.79,10.09a22.37,22.37,0,0,0,1-2c.24-.55.48-1.79-.63-2.23s-1.82.68-2.06,1.06-.66,1.23-1,1.78a3.65,3.65,0,0,0,.93.78C4.41,10.17,4.79,10.09,4.79,10.09Z"/><path class="cls-3" d="M9.9,38.42a1.43,1.43,0,0,0,.92.15c.55-.1.68-.23,1-.26A12.85,12.85,0,0,0,13.24,38c.34-.08.84-.19,1-.63s-.28-.51-.68-.59a7.81,7.81,0,0,1-1.05-.1,4.53,4.53,0,0,1-.63-.13c-.14,0,0-.56,0-.56-.82-.81-1.63-.49-1.68-.08C10,36.89,9.08,37.88,9.9,38.42Z"/><path class="cls-5" d="M9.94,38.79a1.43,1.43,0,0,0,.92.1c.54-.13.67-.27,1-.32s1.33-.23,1.55-.3a1.45,1.45,0,0,0,.89-.8c.29-.69-.18-.78-.58-.84a5.27,5.27,0,0,0-1,.09,2,2,0,0,1-.89-.14c-.16,0-.36.66-.36.66-.15.35-.92.54-1.18.22s-.4-.58-.5-.31C9.6,37.83,9.33,38.44,9.94,38.79Z"/><path class="cls-6" d="M14.34,36.77c-.1-.24-.38-.23-.67-.23a6.83,6.83,0,0,1-.85,0,5.88,5.88,0,0,1-.87-.16c-.16,0-.35.58-.35.58a.44.44,0,0,1-.1.13.79.79,0,0,1-.24.15,1.09,1.09,0,0,1-.29.08.9.9,0,0,1-.31,0,.49.49,0,0,1-.25-.14c-.17-.21-.4-.58-.5-.31l-.14.37a3.46,3.46,0,0,0-.1.35c0,.19,0,.27,0,.34a1.53,1.53,0,0,0,.36.22,1.25,1.25,0,0,0,.87.14c.12,0,.24.26.33.23a3.74,3.74,0,0,1,.72-.23c.2,0,.31,0,.5-.07l.24-.05c.43-.11.52-.48.59-.49a1.58,1.58,0,0,0,.8-.38.65.65,0,0,0,.26-.43Z"/><path class="cls-7" d="M3,43.78a1.43,1.43,0,0,0,.91.21c.55-.06.69-.19,1-.2s1.34-.08,1.57-.12a1.13,1.13,0,0,0,.83-.51.85.85,0,0,0-.42-1.26c-.23-.06-.56.15-.88.15s-.6.18-.93.05c-.14-.06.06-.56.06-.56-.77-.86-1.69-.57-1.77-.16C3.2,42.49,2.2,43.19,3,43.78Z"/><path class="cls-5" d="M2.87,44a1.43,1.43,0,0,0,.91.21c.55-.06.69-.19,1-.2S6.17,44,6.4,43.94a1.45,1.45,0,0,0,1-.69c.37-.66-.18-1-.57-1.08-.23-.06-.56.15-.88.15a2,2,0,0,1-.86-.24c-.15-.06-.44.61-.44.61-.19.33-1,.43-1.2.09s-.33-.62-.46-.36C2.65,43.05,2.3,43.62,2.87,44Z"/><path class="cls-6" d="M7.47,42.55a.82.82,0,0,0-.55-.65c-.23-.06-.56.15-.88.15a2,2,0,0,1-.86-.24c-.15-.06-.44.61-.44.61a.44.44,0,0,1-.11.12.79.79,0,0,1-.25.13,1.09,1.09,0,0,1-.3,0,.9.9,0,0,1-.31,0,.49.49,0,0,1-.23-.17,2,2,0,0,0-.29-.42l-.06,0s-.07,0-.1.08a6.73,6.73,0,0,0-.32.69c-.13.36-.06.34.29.6a1.25,1.25,0,0,0,.84.24c.12,0,.21.28.3.27a3.76,3.76,0,0,1,.74-.15,5.05,5.05,0,0,0,.75,0c.44-.05.57-.42.64-.42a1.55,1.55,0,0,0,.55-.14A1.85,1.85,0,0,0,7.18,43a.93.93,0,0,0,.22-.21.35.35,0,0,0,.09-.19A.76.76,0,0,0,7.47,42.55Z"/><path class="cls-8" d="M12.87,27.27a1.48,1.48,0,0,0,0-.26A3.8,3.8,0,0,0,12,25L6.45,19.09a18.21,18.21,0,0,0-2,1.25,2.43,2.43,0,0,0-.61,2.82,17.12,17.12,0,0,0,1.79,1.5l4.16,2.81a4.75,4.75,0,0,0-.39,1.31c0,1.63.59,4.91.35,7-.13,1.14-.06,1.56.38,1.69,1,.28,2.72-.43,2.64-.87a27,27,0,0,1-.17-7.72C12.74,28.37,12.83,27.66,12.87,27.27Z"/><path class="cls-9" d="M9.8,21.72a6.16,6.16,0,0,0-4.5,1.12s.07,6.58.07,8.85a11.12,11.12,0,0,0-.74,1.74C4.22,35,3.28,40.35,2.87,42c-.13.51-.38.9,1.07,1,.45,0,1.84-.48,1.91-.92a53.38,53.38,0,0,1,1.81-8c.26-.78.63-2.26.63-2.26a3.38,3.38,0,0,0,.12-.42s1.11-3.95,1.51-5.58c.21-.86.43-3.48.43-3.48S10.29,21.78,9.8,21.72Z"/><path class="cls-8" d="M6.66,19.42l-3-.74s-.38,1.45-.42,1.65a4,4,0,0,0,.28,2.29c.46.81.92,1.14,1.71.44A6.73,6.73,0,0,1,6.66,19.42Z"/><path class="cls-9" d="M10.54,21.28a3.23,3.23,0,0,0,0-.68l-4.7-1.29c-.64,1.89-1,3.64-.31,4.39a3.59,3.59,0,0,0,1.88.91c.7,0,1.33-.37,2.52-1.52a2,2,0,0,0,.42-.59C10.36,22.37,10.49,21.72,10.54,21.28Z"/><path class="cls-10" d="M11.34,13a55,55,0,0,0-.8,8.32,2.3,2.3,0,0,1-1.33.94,9.31,9.31,0,0,1-3.79-.29,4.21,4.21,0,0,1-1.63-.85,1.3,1.3,0,0,1-.5-1.2A27.81,27.81,0,0,0,3.64,15c0-.31-.53-3.54-.6-4.39a10.55,10.55,0,0,1,.26-3.48,2,2,0,0,1,1.9-1.29,5.38,5.38,0,0,1,.53.24c.74.39,2.18,1.16,2.72,1.55.14.1.35.27.58.47.57.49,2.19,2,2.19,2,.4.45.26,1,.26,2C11.48,12.11,11.45,12.08,11.34,13Z"/><g class="cls-1"><path class="cls-8" d="M20.8,6.26l-4-2.3a.17.17,0,0,0-.1,0h-.13a.17.17,0,0,1,.1,0l4,2.3a.32.32,0,0,1,.12.36l-2.2,7.07a.21.21,0,0,1-.17.16h.13a.21.21,0,0,0,.17-.16l2.2-7.07A.32.32,0,0,0,20.8,6.26Z"/><path class="cls-9" d="M20.67,6.27l-4-2.3a.19.19,0,0,0-.27.14l-2.2,7.07a.32.32,0,0,0,.12.36l4,2.3a.19.19,0,0,0,.27-.14l2.2-7.07A.32.32,0,0,0,20.67,6.27Z"/><polygon class="cls-11" points="20.52 7.16 18.52 13.5 14.36 11.11 16.36 4.77 20.52 7.16"/><polygon class="cls-12" points="18.95 7.11 18.87 7.32 17.07 6.28 17.15 6.08 18.95 7.11"/><polygon class="cls-12" points="19.75 8.22 19.67 8.43 16.14 6.41 16.22 6.2 19.75 8.22"/><polygon class="cls-12" points="19.58 8.78 19.5 8.98 15.97 6.96 16.05 6.75 19.58 8.78"/><polygon class="cls-12" points="19.41 9.32 19.33 9.53 15.81 7.51 15.89 7.3 19.41 9.32"/><polygon class="cls-12" points="19.25 9.88 19.17 10.08 15.64 8.06 15.72 7.85 19.25 9.88"/><polygon class="cls-12" points="19.08 10.43 19 10.63 15.47 8.61 15.55 8.4 19.08 10.43"/><polygon class="cls-12" points="17.54 10.19 17.46 10.4 15.3 9.16 15.38 8.95 17.54 10.19"/><polygon class="cls-12" points="18.57 12.07 18.5 12.28 17.5 11.7 17.58 11.49 18.57 12.07"/></g><path class="cls-2" d="M16.72,5h-.07c-.12,0-.12.21-.12.21L19.7,7s.18.11.19,0Z"/><path class="cls-13" d="M19.94,6.65a1.9,1.9,0,0,0-.68-.81.79.79,0,0,0-.38-1,.63.63,0,0,0-.88.24A2.38,2.38,0,0,0,16.83,5c-.12,0-.12.21-.12.21L19.88,7A.53.53,0,0,0,19.94,6.65ZM18.76,5.12c.21.11.33.25.3.32s-.22,0-.43-.07-.32-.24-.29-.31S18.56,5,18.76,5.12Z"/><path class="cls-14" d="M19.27,6.39a6.64,6.64,0,0,0-2.56-1.19L19.88,7Z"/><path class="cls-7" d="M19.6,13c-.08.06-.11.28-.15.32s-.28.32-.27.22.24-.31.32-.46a2.4,2.4,0,0,0,.23-.58c0-.18-.16-.29-.25-.16s-.16.4-.22.49-.34.45-.35.36.26-.31.33-.48a3.63,3.63,0,0,0,.22-.71c0-.2-.19-.35-.3-.19s-.18.55-.28.67-.3.41-.34.38.26-.41.3-.52S19,12.11,19,12s0-.23-.18-.2-.28.3-.41.5a2.23,2.23,0,0,1-.74.63c0-.09-.07-.32,0-.4a2.36,2.36,0,0,0,.22-.29A.34.34,0,0,0,18,12c0-.1,0-.17-.16-.05a5.46,5.46,0,0,1-.56.42,2,2,0,0,0-.36,1.12.51.51,0,0,0-.18.05l-4.29,2.13c-.14-1-.4-2.89-.52-3.87-.21-1.65-1.3-1.89-1.72-1.8-1.07.23-1.13,1.7-1.08,2.16a18.94,18.94,0,0,0,1.23,5.15,2,2,0,0,1,.08.19,1.76,1.76,0,0,0,2.11,1c1.31-.39,4.06-2.94,4.76-3.6a1.07,1.07,0,0,0,.78-.05,3.3,3.3,0,0,0,1-.7,4.18,4.18,0,0,0,.5-.54,2.36,2.36,0,0,0,.15-.36A.13.13,0,0,0,19.6,13Z"/><path class="cls-15" d="M12.25,13.06c-.06-.53-.18-1.07-.23-1.43-.21-1.65-1.37-1.88-1.79-1.78-1.07.23-1.18,1.73-1.13,2.19s.06,1,.13,1.45a3.08,3.08,0,0,0,1.24,0A8.28,8.28,0,0,0,12.25,13.06Z"/><path class="cls-16" d="M6.57,5.08l-.23,2.6a.61.61,0,0,0,.31.53,1.93,1.93,0,0,0,1.74.16.61.61,0,0,0,.4-.47L9,5.31Z"/><path class="cls-17" d="M10.76,3.52a3.18,3.18,0,0,0,0-2.24C10.22.94,8.36,2.82,8.17,3.44a1.88,1.88,0,0,0,0,1.12c0,.15.47.71.6,1a2.6,2.6,0,0,1,.11,1.05c0,.2,0,.42,0,.42A.48.48,0,0,0,9.3,7a5,5,0,0,0,.89-1,4.21,4.21,0,0,0,.64-1.63A8,8,0,0,0,10.76,3.52Z"/><path class="cls-18" d="M9.58,4.47a1.53,1.53,0,0,0,.2.53c.1.15,0,.33.17.33.29,0,.21-.7.27-1s0-.65-.27-.49A.68.68,0,0,0,9.58,4.47Z"/><path class="cls-8" d="M10.82,1.13A2,2,0,0,0,10,.4,2.79,2.79,0,0,0,7.44.25,5,5,0,0,0,6.06,1a3,3,0,0,0-.8,1.33,8,8,0,0,0-.15,1A3.84,3.84,0,0,0,5.3,4.7a3.18,3.18,0,0,0,.44,1,3.85,3.85,0,0,0,.38.46,1.83,1.83,0,0,0,1.14.72A1.56,1.56,0,0,0,8.9,6.22a5.93,5.93,0,0,1,.69-2,1,1,0,0,1,.4-.41c.14-.07.2.07.24.18s.22.2.22.2l.11.06s.07-.72.07-.76a1.44,1.44,0,0,1,.15-.88c.08-.18.16-.35.24-.55A1.54,1.54,0,0,0,10.82,1.13Z"/><path class="cls-15" d="M9.25,8.31s-3,.82-3.26-.69a.77.77,0,0,1,.44-.86,1.05,1.05,0,0,0,.86.76,4,4,0,0,0,1.56-.07Z"/></g></g></g></g></svg>