<svg xmlns="http://www.w3.org/2000/svg" xmlns:xlink="http://www.w3.org/1999/xlink" viewBox="0 0 68.42 78.75"><defs><style>.cls-1{isolation:isolate;}.cls-2{fill:#e4ecf5;mix-blend-mode:multiply;}.cls-3{fill:#313e4a;}.cls-4{fill:#15202e;}.cls-5{fill:#0c121a;}.cls-6{fill:#dde8ff;}.cls-7{fill:#798dab;}.cls-8{fill:#bed0eb;}.cls-9{fill:#59738f;}.cls-10{fill:#3e4d5d;}.cls-11{fill:url(#linear-gradient);}.cls-12{fill:#fa0;}.cls-13{fill:#ffc936;}.cls-14{fill:#25303b;}.cls-15{fill:#5c7a99;}.cls-16{fill:url(#linear-gradient-2);}.cls-17{fill:#45596e;}.cls-18{fill:#ffde6e;}.cls-19{fill:#fb0;}.cls-20{fill:#efab30;}.cls-21{fill:url(#linear-gradient-3);}.cls-22{fill:#3a4a5d;}.cls-23{fill:url(#linear-gradient-4);}.cls-24{fill:#5f7fa1;}.cls-25{fill:url(#linear-gradient-5);}.cls-26{fill:#5d7794;}.cls-27{fill:url(#linear-gradient-6);}.cls-28{fill:url(#linear-gradient-7);}.cls-29{fill:#ff8d7d;}.cls-30{fill:url(#linear-gradient-8);}.cls-31{fill:#ff4b33;}.cls-32{fill:url(#linear-gradient-9);}.cls-33{fill:#7597ba;}.cls-34{fill:#eb9c00;}.cls-35{fill:#ffc800;}.cls-36{fill:#cedef0;}.cls-37{fill:#fff;}.cls-38{fill:#efd630;}.cls-39{fill:#50667d;}.cls-40{fill:#354555;}.cls-41{fill:url(#linear-gradient-10);}.cls-42{fill:#4d637a;}.cls-43{fill:url(#linear-gradient-11);}</style><linearGradient id="linear-gradient" x1="37.14" y1="32" x2="68.38" y2="32" gradientUnits="userSpaceOnUse"><stop offset="0" stop-color="#fa0"/><stop offset="0.13" stop-color="#ffb615"/><stop offset="0.35" stop-color="#ffc630"/><stop offset="0.56" stop-color="#ffd144"/><stop offset="0.78" stop-color="#ffd850"/><stop offset="1" stop-color="#ffda54"/></linearGradient><linearGradient id="linear-gradient-2" x1="18.88" y1="14.88" x2="32.64" y2="38.71" gradientUnits="userSpaceOnUse"><stop offset="0" stop-color="#5c7a99"/><stop offset="0.18" stop-color="#4a627a"/><stop offset="0.38" stop-color="#3a4c5f"/><stop offset="0.59" stop-color="#2e3c4b"/><stop offset="0.79" stop-color="#27333f"/><stop offset="1" stop-color="#25303b"/></linearGradient><linearGradient id="linear-gradient-3" x1="41.68" y1="33.97" x2="50.18" y2="33.97" gradientUnits="userSpaceOnUse"><stop offset="0.61" stop-color="#25303b"/><stop offset="0.96" stop-color="#45596e"/></linearGradient><linearGradient id="linear-gradient-4" x1="54.35" y1="26.79" x2="50.09" y2="19.42" gradientUnits="userSpaceOnUse"><stop offset="0" stop-color="#45596e"/><stop offset="0.02" stop-color="#465a6f"/><stop offset="0.37" stop-color="#526c86"/><stop offset="0.71" stop-color="#597694"/><stop offset="1" stop-color="#5c7a99"/></linearGradient><linearGradient id="linear-gradient-5" x1="44.21" y1="15.15" x2="44.94" y2="15.15" gradientTransform="translate(-3.72 17.48) rotate(7.34)" gradientUnits="userSpaceOnUse"><stop offset="0.5" stop-color="#3e4d5d"/><stop offset="0.76" stop-color="#3f4f60"/><stop offset="0.94" stop-color="#435568"/><stop offset="1" stop-color="#45596e"/></linearGradient><linearGradient id="linear-gradient-6" x1="29.64" y1="36.7" x2="35.48" y2="37.32" gradientUnits="userSpaceOnUse"><stop offset="0.5" stop-color="#303c47"/><stop offset="0.64" stop-color="#323f4b"/><stop offset="0.78" stop-color="#384756"/><stop offset="0.9" stop-color="#425568"/><stop offset="0.93" stop-color="#45596e"/></linearGradient><linearGradient id="linear-gradient-7" x1="37.86" y1="25.89" x2="51.61" y2="49.72" gradientUnits="userSpaceOnUse"><stop offset="0" stop-color="#5c7a99"/><stop offset="0.14" stop-color="#4f6883"/><stop offset="0.37" stop-color="#3d5064"/><stop offset="0.59" stop-color="#303e4d"/><stop offset="0.81" stop-color="#283440"/><stop offset="1" stop-color="#25303b"/></linearGradient><linearGradient id="linear-gradient-8" x1="60.59" y1="10.3" x2="59.9" y2="9.1" gradientUnits="userSpaceOnUse"><stop offset="0.62" stop-color="#ff624d"/><stop offset="1" stop-color="#ff8d7d"/></linearGradient><linearGradient id="linear-gradient-9" x1="50.88" y1="4.68" x2="50.19" y2="3.48" xlink:href="#linear-gradient-8"/><linearGradient id="linear-gradient-10" x1="9.61" y1="73.2" x2="16.68" y2="60.94" gradientUnits="userSpaceOnUse"><stop offset="0" stop-color="#5c7a99"/><stop offset="0.3" stop-color="#5a7896"/><stop offset="0.49" stop-color="#55718e"/><stop offset="0.65" stop-color="#4d667f"/><stop offset="0.79" stop-color="#41556a"/><stop offset="0.92" stop-color="#31404f"/><stop offset="1" stop-color="#25303b"/></linearGradient><linearGradient id="linear-gradient-11" x1="16.48" y1="77.25" x2="23.55" y2="64.99" xlink:href="#linear-gradient-10"/></defs><title>i8</title><g class="cls-1"><g id="Слой_2" data-name="Слой 2"><g id="_лой_1" data-name="—лой_1"><g id="loader_3" data-name="loader 3"><path class="cls-2" d="M0,73.11l1.62,1,2.07.61,15.39-9.79,4.5,2.63L6.87,77.12l1.68,1,2,.67L26.2,69.06l3.92,2.25L36,72.8l4.47-1.62,2.27-1.37L45,67.38,59.49,59l3.42-.75,1.79-1.1L66.86,55a.71.71,0,0,0-.15-1.13L39.88,38.81,8.21,57.09a.9.9,0,0,0,0,1.56l8.21,4.74Z"/><path class="cls-3" d="M25.51,44,46,55.92c1.18.69,1.92,2.15,1.93,4.23,0,1.91,0,4.81,0,5L27.46,53.24c0-.15,0-3.05,0-5C27.43,46.2,26.7,44.73,25.51,44Z"/><path class="cls-3" d="M47.46,38.25l18.91,11a2.57,2.57,0,0,1,1.12,2l-18.91-11A2.57,2.57,0,0,0,47.46,38.25Z"/><g class="cls-1"><path class="cls-4" d="M61.57,48.82a2.36,2.36,0,0,1,2.38-.23l2.32,1.35c-.61-.35-5.33,7.79-4.73,8.13l-2.32-1.35a2.34,2.34,0,0,1-1-2.14A7.33,7.33,0,0,1,61.57,48.82Z"/><path class="cls-5" d="M63.89,50.17c1.84-1.06,3.34-.21,3.35,1.91a7.34,7.34,0,0,1-3.33,5.76c-1.84,1.06-3.34.21-3.35-1.91A7.33,7.33,0,0,1,63.89,50.17Z"/></g><path class="cls-6" d="M64.13,56.52a4.83,4.83,0,0,0,2.18-3.78c0-1.39-1-2-2.18-1.26a4.83,4.83,0,0,0-2.18,3.78C61.95,56.65,62.93,57.22,64.13,56.52Z"/><path class="cls-7" d="M64.26,56.62a4.83,4.83,0,0,0,2.18-3.78c0-1.39-1-2-2.18-1.26a4.83,4.83,0,0,0-2.18,3.78C62.08,56.75,63.06,57.31,64.26,56.62Z"/><path class="cls-8" d="M63.4,56.49a1.66,1.66,0,0,0,.81-.25A4.18,4.18,0,0,0,66.1,53c0-.79-.37-1.27-1-1.27a1.66,1.66,0,0,0-.81.25,4.18,4.18,0,0,0-1.89,3.27C62.43,56,62.8,56.49,63.4,56.49Z"/><path class="cls-6" d="M62.66,56.05a1.66,1.66,0,0,0,.81-.25,4.18,4.18,0,0,0,1.89-3.27,1.62,1.62,0,0,0-.2-.83c.58,0,.94.5.94,1.27a4.18,4.18,0,0,1-1.89,3.27,1.66,1.66,0,0,1-.81.25.85.85,0,0,1-.76-.44Z"/><g class="cls-1"><path class="cls-4" d="M37.6,55.13c1.6-.92,3-1,4.09-.4l4,2.32c-1-.61-9.17,13.4-8.14,14l-4-2.32A4,4,0,0,1,31.88,65,12.61,12.61,0,0,1,37.6,55.13Z"/><path class="cls-5" d="M41.6,57.45c3.17-1.83,5.76-.36,5.77,3.29a12.63,12.63,0,0,1-5.73,9.91c-3.17,1.83-5.75.36-5.76-3.28A12.61,12.61,0,0,1,41.6,57.45Z"/></g><path class="cls-6" d="M42,68.39a8.32,8.32,0,0,0,3.76-6.51c0-2.39-1.69-3.37-3.76-2.17a8.32,8.32,0,0,0-3.76,6.51C38.25,68.61,39.94,69.58,42,68.39Z"/><path class="cls-7" d="M42.24,68.55A8.32,8.32,0,0,0,46,62c0-2.39-1.69-3.37-3.76-2.17a8.32,8.32,0,0,0-3.76,6.51C38.48,68.77,40.17,69.74,42.24,68.55Z"/><path class="cls-8" d="M40.74,68.33a2.86,2.86,0,0,0,1.39-.43,7.19,7.19,0,0,0,3.25-5.63c0-1.35-.63-2.19-1.66-2.19a2.86,2.86,0,0,0-1.39.43,7.19,7.19,0,0,0-3.25,5.63C39.09,67.5,39.72,68.33,40.74,68.33Z"/><path class="cls-6" d="M39.47,67.58a2.86,2.86,0,0,0,1.39-.43,7.19,7.19,0,0,0,3.25-5.63,2.79,2.79,0,0,0-.34-1.43c1,0,1.62.85,1.62,2.19a7.19,7.19,0,0,1-3.25,5.63,2.86,2.86,0,0,1-1.39.43,1.47,1.47,0,0,1-1.32-.76Z"/><g class="cls-1"><path class="cls-4" d="M21.56,44.91c1.6-.92,3-1,4.09-.4l4,2.32c-1-.61-9.17,13.4-8.14,14l-4-2.32a4,4,0,0,1-1.68-3.68A12.61,12.61,0,0,1,21.56,44.91Z"/><path class="cls-5" d="M25.56,47.23c3.17-1.83,5.76-.36,5.77,3.29a12.63,12.63,0,0,1-5.73,9.91c-3.17,1.83-5.75.36-5.76-3.28A12.61,12.61,0,0,1,25.56,47.23Z"/></g><path class="cls-6" d="M26,58.17a8.32,8.32,0,0,0,3.76-6.51c0-2.39-1.69-3.37-3.76-2.17A8.32,8.32,0,0,0,22.21,56C22.21,58.39,23.9,59.36,26,58.17Z"/><path class="cls-7" d="M26.2,58.33A8.32,8.32,0,0,0,30,51.82c0-2.39-1.69-3.37-3.76-2.17a8.32,8.32,0,0,0-3.76,6.51C22.44,58.55,24.12,59.52,26.2,58.33Z"/><path class="cls-8" d="M24.7,58.11a2.86,2.86,0,0,0,1.39-.43,7.19,7.19,0,0,0,3.25-5.63c0-1.35-.63-2.19-1.66-2.19a2.86,2.86,0,0,0-1.39.43A7.19,7.19,0,0,0,23,55.92C23,57.27,23.68,58.11,24.7,58.11Z"/><path class="cls-6" d="M23.43,57.36a2.86,2.86,0,0,0,1.39-.43,7.19,7.19,0,0,0,3.25-5.63,2.79,2.79,0,0,0-.34-1.43c1,0,1.62.85,1.62,2.19a7.19,7.19,0,0,1-3.25,5.63,2.86,2.86,0,0,1-1.39.43,1.47,1.47,0,0,1-1.32-.76Z"/><polygon class="cls-9" points="40.96 56.07 20.31 44.12 25.2 41.24 27.13 42.35 33.94 38.4 31.97 37.26 33.21 36.52 53.74 48.41 40.96 56.07"/><path class="cls-9" d="M20.31,44.12a4.91,4.91,0,0,0-.45.29A15.2,15.2,0,0,0,16,48.63a3.07,3.07,0,0,0-.21.8V50L36.38,61.88v-.57a3.06,3.06,0,0,1,.21-.8,15.2,15.2,0,0,1,3.8-4.22,4.92,4.92,0,0,1,.45-.29Z"/><polygon class="cls-10" points="31.97 39.55 33.94 38.4 31.97 37.26 31.97 39.55"/><polygon class="cls-11" points="57.68 41 37.15 29.12 47.84 23 68.38 34.87 57.68 41"/><path class="cls-12" d="M57.68,41,37.14,29.12a8.67,8.67,0,0,0-3.94,6.82v.59l20.68,12,.05-.73A8.39,8.39,0,0,1,57.68,41Z"/><path class="cls-13" d="M53.74,48.4v-.59A8.69,8.69,0,0,1,57.68,41l10.7-6.12,0,10.14L53.74,54.54Z"/><g class="cls-1"><polygon class="cls-14" points="45.33 2.56 43.31 1.92 43.34 25.66 44.8 26.51 45.33 2.56"/><polygon class="cls-15" points="44.36 0.11 28.24 9.47 29.71 10.32 45.82 0.96 44.36 0.11"/><path class="cls-16" d="M29.95,10.32l-1.71-.85A14.67,14.67,0,0,0,21.6,21l0,22.39,1.46.85.17-22.38A14.72,14.72,0,0,1,29.95,10.32Z"/><path class="cls-17" d="M45.82,1,29.71,10.32a14.67,14.67,0,0,0-6.65,11.51l0,22.39,1.05-.61,0-22.39a12.35,12.35,0,0,1,5.6-9.7L44.77,2.77l0,23.74,1.05-.61Z"/></g><path class="cls-13" d="M66.39,33.75V32L53.61,39a7.73,7.73,0,0,0-3.81,8.38l.19.3,1.24-.7.05-1.2a6.79,6.79,0,0,1,3.88-5.87l.15-.09Z"/><polygon class="cls-18" points="53.98 38.89 38.52 29.93 50.93 23 66.39 31.96 53.98 38.89"/><path class="cls-19" d="M54,38.89l-15.46-9c-1.7,1-4,4-4,5.94v2.84l15.46,9V44.83C50,43,52.27,39.89,54,38.89Z"/><g class="cls-1"><path class="cls-20" d="M49.37,28.43l-7,4a1.24,1.24,0,0,0,0,2.34L46,36.86a4.45,4.45,0,0,0,4,0l6.21-3.56a.51.51,0,0,0,0-.89Z"/><path class="cls-17" d="M49.92,34.51l.25,1.72,5.71-3.31a.78.78,0,0,0,.39-.67V31Z"/><path class="cls-21" d="M46.16,34.39,42.6,32.33c-.56-.33-.92-.67-.92-1.1V33a1.43,1.43,0,0,0,.85,1.18l3.61,2.08a4.45,4.45,0,0,0,4,0V34.42A4.41,4.41,0,0,1,46.16,34.39Z"/><path class="cls-22" d="M48.61,26.54l-6.1,3.53a1.24,1.24,0,0,0,0,2.34l3.61,2.08a4.45,4.45,0,0,0,4,0L56.28,31Z"/></g><g class="cls-1"><path class="cls-23" d="M54.27,22.15l-3.61-2.08a1.43,1.43,0,0,0-1.45-.14l-1.49.87c.37-.21.79,0,1.36.3l3.65,2a4.3,4.3,0,0,1,2,3.44l1.59-.93A4.46,4.46,0,0,0,54.27,22.15Z"/><path class="cls-14" d="M52.78,23l-3.61-2.08c-1.12-.65-2-.13-2,1.16v3.82a2.59,2.59,0,0,1-1.29,2.23l-.5.29,1.81-.28a2.93,2.93,0,0,1,1.9.36l3.43,2a1.11,1.11,0,0,1,.45,1.43l-.62,1.34L55,31.71l-.21-5.19A4.46,4.46,0,0,0,52.78,23Z"/><path class="cls-17" d="M54.79,26.3v3.35A4.69,4.69,0,0,1,54,32l-.68.8,1.43-.49,1.48-.69,0-5.92Z"/></g><circle class="cls-14" cx="29.56" cy="29.69" r="0.95"/><path class="cls-24" d="M27.13,35.68a.42.42,0,0,1-.42-.42V32.92a3.74,3.74,0,0,1,1.18-2.79,3.82,3.82,0,0,1,1-.67.42.42,0,0,1,.34.78,3,3,0,0,0-.82.53,2.9,2.9,0,0,0-.91,2.16v2.34A.42.42,0,0,1,27.13,35.68Z"/><g class="cls-1"><polygon class="cls-22" points="36.39 46.59 35.58 51.4 38.48 49.86 37.88 46.13 36.39 46.59"/><polygon class="cls-17" points="40.31 44.52 40.62 49.15 41.86 48.43 41.88 43.81 40.31 44.52"/><path class="cls-22" d="M24.32,33.66l-1.27.73L40.42,44.66l1-.6a.85.85,0,0,0,0-1.47L26,33.66A1.66,1.66,0,0,0,24.32,33.66Z"/><polygon class="cls-14" points="23.06 34.39 23.05 39.01 27.03 41.31 28.05 47.05 35.58 51.4 36.63 46.85 40.62 49.15 40.63 44.53 23.06 34.39"/></g><g class="cls-1"><path class="cls-14" d="M38.51,42.22h-.07a.42.42,0,0,1-.35-.48l.52-3.35a.42.42,0,1,1,.84.13l-.52,3.35A.42.42,0,0,1,38.51,42.22Z"/><path class="cls-17" d="M40.23,36l-1.18.34-.42,3.95.66-.22c.09,0,.15-.08.16-.14l1-4C40.45,36,40.33,36,40.23,36Z"/><path class="cls-25" d="M38.79,36.28l-.22-.16c-.06,0-.12,0-.11-.08l-.41,4a.16.16,0,0,0,.08.14l.08.07a.5.5,0,0,0,.42.07l.52-4A.39.39,0,0,1,38.79,36.28Z"/><path class="cls-26" d="M40.37,35.73,40,35.47a.55.55,0,0,0-.53-.05l-.94.52c-.11.06-.11.17,0,.25l.19.15a.5.5,0,0,0,.42.07L40.3,36C40.48,36,40.51,35.84,40.37,35.73Z"/></g><g class="cls-1"><path class="cls-17" d="M36.33,35.6l-1,.28-.49,4.51.81-.27c.26-.09.41-.22.43-.37l.77-4.47C36.87,35.44,36.59,35.51,36.33,35.6Z"/><path class="cls-27" d="M33.59,35.47,30.9,33.92c-.34-.2-.64-.27-.61-.47l-.77,4.47c0,.2.12.42.47.62l2.72,1.57a3.07,3.07,0,0,0,2.18.29l.77-4.68A2.74,2.74,0,0,1,33.59,35.47Z"/><path class="cls-26" d="M36.43,34.66l-2.72-1.57a3.07,3.07,0,0,0-2.18-.29l-.81.27c-.6.2-.58.64,0,1l2.72,1.57a3.07,3.07,0,0,0,2.18.29l.81-.27C37.06,35.46,37,35,36.43,34.66Z"/></g><g class="cls-1"><path class="cls-14" d="M38.3,33.31,38,34a.58.58,0,0,0,0-.14,1.45,1.45,0,0,0-.76-1l.17-.81a1.75,1.75,0,0,1,.85,1.06A1,1,0,0,1,38.3,33.31Z"/><path class="cls-14" d="M36.81,31.77l-.15.76A7.36,7.36,0,0,0,34.74,32a5.61,5.61,0,0,0-2.26,0,1.44,1.44,0,0,0-.77.44l.15-.76a1.3,1.3,0,0,1,.72-.47,5.74,5.74,0,0,1,2.3-.07A7.59,7.59,0,0,1,36.81,31.77Z"/><polygon class="cls-14" points="37.68 32.01 37.27 32.87 35.86 33.26 35.92 32.46 37.68 32.01"/><polygon class="cls-14" points="33.78 32.47 33.46 33.23 31.57 32.77 31.7 31.96 33.78 32.47"/><polygon class="cls-14" points="34.74 33.04 34.55 33.85 33.46 33.23 33.64 32.39 34.74 33.04"/><path class="cls-14" d="M36.12,32.79l-.7.25-.06.88.67-.33a.12.12,0,0,0,.08-.08l.15-.76S36.17,32.77,36.12,32.79Z"/><polygon class="cls-14" points="35.04 33.98 34.89 34.74 34.55 33.85 34.7 32.92 35.04 33.98"/><path class="cls-14" d="M37.88,34.22l-.25.06a5.65,5.65,0,0,1-1.94.11l-.3,0a8.55,8.55,0,0,1-3.23-1c-.92-.53-1.36-1.09-1.26-1.57l-.15.76c-.1.49.31,1.07,1.24,1.6a9,9,0,0,0,3.37,1A7,7,0,0,0,37.73,35c.67-.19,1-.5,1.12-.87l.15-.76C38.93,33.79,38.55,34,37.88,34.22Z"/><path class="cls-22" d="M37.77,31.81A9,9,0,0,0,32,30.9a1.51,1.51,0,0,0-1.08.74c-.2.52.2,1.16,1.2,1.73a9,9,0,0,0,3.43,1h.06a6.46,6.46,0,0,0,2.26-.13C39.45,33.85,39.39,32.75,37.77,31.81ZM35,34a7,7,0,0,1-2.3-.77c-.64-.37-1-.78-1-1.13a.63.63,0,0,1,0-.07l1.89.46,1.08.63L35,34Zm.3-1.87A1.1,1.1,0,0,0,34.7,32l-1,.14-1.8-.44a1.44,1.44,0,0,1,.77-.44,5.61,5.61,0,0,1,2.26,0,7.36,7.36,0,0,1,1.92.57l-1.4.38Zm2,1.83a4.7,4.7,0,0,1-1.42.13l-.35-.9.67-.33c.13-.06.1-.18-.07-.27L36,32.51l1.41-.39a1.45,1.45,0,0,1,.76,1C38.21,33.46,37.91,33.77,37.29,33.94Z"/></g><path class="cls-15" d="M44.17,24.65a.63.63,0,0,1-.32-.08l-17.3-9.9a.64.64,0,0,1,.63-1.1l17.3,9.9a.64.64,0,0,1-.32,1.19Z"/><g class="cls-1"><polygon class="cls-14" points="64.09 13.59 62.33 12.91 62.36 36.65 63.82 37.5 64.09 13.59"/><polygon class="cls-15" points="63.38 11.09 47.26 20.46 48.73 21.31 64.84 11.94 63.38 11.09"/><path class="cls-28" d="M48.86,21.31l-1.59-.85A14.67,14.67,0,0,0,40.62,32l0,22.39,1.46.85.32-22.42C42.42,28.56,45.18,23.43,48.86,21.31Z"/><path class="cls-17" d="M64.84,11.94,48.73,21.31a14.67,14.67,0,0,0-6.65,11.51l0,22.39,1.05-.61,0-22.39a12.35,12.35,0,0,1,5.6-9.7l15.06-8.76,0,23.74,1.05-.61Z"/></g><g class="cls-1"><path class="cls-29" d="M57.84,7.35a.28.28,0,0,0-.28,0l-.64.37a.28.28,0,0,1,.28,0l2.55,1.47.64-.37Z"/><path class="cls-30" d="M60.39,8.82l-.64.37a.88.88,0,0,1,.4.69v.49a.28.28,0,0,1-.12.26l.64-.37a.28.28,0,0,0,.12-.26V9.51A.88.88,0,0,0,60.39,8.82Z"/><path class="cls-31" d="M59.74,9.19,57.19,7.72c-.22-.13-.4,0-.4.23v.49a.88.88,0,0,0,.4.69l2.55,1.47c.22.13.4,0,.4-.23V9.88A.88.88,0,0,0,59.74,9.19Z"/></g><g class="cls-1"><path class="cls-29" d="M48.12,1.73a.28.28,0,0,0-.28,0l-.64.37a.28.28,0,0,1,.28,0L50,3.57l.64-.37Z"/><path class="cls-32" d="M50.67,3.2,50,3.57a.88.88,0,0,1,.4.69v.49a.28.28,0,0,1-.12.26L51,4.64a.28.28,0,0,0,.12-.26V3.89A.88.88,0,0,0,50.67,3.2Z"/><path class="cls-31" d="M50,3.57,47.48,2.1c-.22-.13-.4,0-.4.23v.49a.88.88,0,0,0,.4.69L50,5c.22.13.4,0,.4-.23V4.26A.88.88,0,0,0,50,3.57Z"/></g><polygon class="cls-33" points="48.73 21.31 28.29 9.45 44.47 0 64.84 11.94 48.73 21.31"/><polygon class="cls-10" points="48.73 21.31 28.29 9.45 29.59 10.39 29.86 11.45 46.46 20.98 46.96 20.65 48.73 21.31"/><path class="cls-15" d="M32,17.64a.64.64,0,0,1-.57-.92,9.85,9.85,0,0,1,3.12-3.15.64.64,0,1,1,.68,1.07,8.74,8.74,0,0,0-2.66,2.64A.64.64,0,0,1,32,17.64Z"/><path class="cls-15" d="M38.84,21.47a.64.64,0,0,1-.57-.92,9.2,9.2,0,0,1,3.08-3.06A.64.64,0,0,1,42,18.58a8,8,0,0,0-2.6,2.54A.64.64,0,0,1,38.84,21.47Z"/><g class="cls-1"><polygon class="cls-34" points="41.17 40.27 40.23 39.72 40.23 41.53 41.18 42.08 41.17 40.27"/><polygon class="cls-18" points="40.92 38.52 40.23 39.72 41.17 40.27 41.86 39.07 40.92 38.52"/><polygon class="cls-35" points="41.86 39.07 41.17 40.27 41.18 42.08 41.87 42.47 41.86 39.07"/></g><g class="cls-1"><polygon class="cls-12" points="22.09 29.27 21.15 28.72 21.15 30.54 22.1 31.08 22.09 29.27"/><polygon class="cls-18" points="21.84 27.53 21.15 28.72 22.09 29.27 22.78 28.08 21.84 27.53"/><polygon class="cls-35" points="22.78 28.08 22.09 29.27 22.1 31.08 22.79 31.48 22.78 28.08"/></g><path class="cls-10" d="M21.57,20.37a1.59,1.59,0,0,0,.72,1.25c.4.23.72,0,.72-.42A1.59,1.59,0,0,0,22.28,20C21.89,19.73,21.57,19.92,21.57,20.37Z"/><path class="cls-36" d="M21.5,20a3.08,3.08,0,0,0,.93,1.81l.23-.11a.5.5,0,0,0,.21-.47A1.59,1.59,0,0,0,22.15,20a.58.58,0,0,0-.4-.09A.44.44,0,0,0,21.5,20Z"/><path class="cls-37" d="M21.25,20.52A1.59,1.59,0,0,0,22,21.77c.4.23.72,0,.72-.42A1.59,1.59,0,0,0,22,20.1C21.57,19.87,21.25,20.06,21.25,20.52Z"/><path class="cls-10" d="M40.55,31.16a1.59,1.59,0,0,0,.72,1.25c.4.23.72,0,.72-.42a1.59,1.59,0,0,0-.72-1.25C40.88,30.51,40.55,30.7,40.55,31.16Z"/><path class="cls-36" d="M40.48,30.82a3.08,3.08,0,0,0,.93,1.81l.23-.11a.5.5,0,0,0,.21-.47,1.59,1.59,0,0,0-.72-1.25.58.58,0,0,0-.4-.09A.44.44,0,0,0,40.48,30.82Z"/><path class="cls-37" d="M40.24,31.3A1.59,1.59,0,0,0,41,32.55c.4.23.72,0,.72-.42A1.59,1.59,0,0,0,41,30.89C40.56,30.66,40.24,30.84,40.24,31.3Z"/><path class="cls-17" d="M55.52,51.44l-1.78-3L40.84,56c-.15.09-.3.18-.45.29a15.24,15.24,0,0,0-3.8,4.22,3.15,3.15,0,0,0-.21.8v.57a13.71,13.71,0,0,1,5-5.49c2.63-1.52,4.89-1,6,.93a4.2,4.2,0,0,1,.51,1.7c0,.27.08,1.33.08,1.37,0,1.91.09,4.58.09,4.74l11.58-6.75c0-.06,0-1.31,0-2a8.79,8.79,0,0,1,3.9-6.76c2-1.16,3.67-.42,4,1.63a11.2,11.2,0,0,0,.79-2.52,8.16,8.16,0,0,0,.14-1.48V44Z"/><polygon class="cls-17" points="50.56 51.33 46.22 53.83 45.77 53.1 43.73 51.94 50.56 47.98 50.56 51.33"/><polygon class="cls-9" points="50.56 51.33 46.22 53.83 47.22 55.51 52.52 52.46 50.56 51.33"/><polygon class="cls-10" points="50.56 51.33 52.52 52.46 52.53 49.12 50.56 47.98 50.56 51.33"/><path class="cls-15" d="M38.91,8a1.15,1.15,0,0,1,0,2.17,4.16,4.16,0,0,1-3.76,0,1.15,1.15,0,0,1,0-2.17A4.15,4.15,0,0,1,38.91,8Z"/><path class="cls-12" d="M39.49,8.68l-1-3.85h-3l-.91,3.63c-.21.48,0,1,.64,1.38a3.89,3.89,0,0,0,3.52,0A1.15,1.15,0,0,0,39.49,8.68Z"/><path class="cls-13" d="M37,9.84a3.19,3.19,0,0,1-1.55-.36c-.2-.12-.65-.43-.46-.84,0,0,.85-3.38.85-3.38h2.32l.89,3.52c0,.22-.14.48-.5.69A3.2,3.2,0,0,1,37,9.84Z"/><path class="cls-38" d="M37,8.56a2.34,2.34,0,0,1-.65-.09s.09-1.64.49-1.95a.39.39,0,0,1,.34,0c.4.31.49,1.95.49,1.95A2.33,2.33,0,0,1,37,8.56Z"/><path class="cls-13" d="M38.09,4.22a.64.64,0,0,1,0,1.22,2.33,2.33,0,0,1-2.11,0,.64.64,0,0,1,0-1.22A2.33,2.33,0,0,1,38.09,4.22Z"/><path class="cls-38" d="M37.94,4.31a.55.55,0,0,1,0,1,2,2,0,0,1-1.81,0,.55.55,0,0,1,0-1A2,2,0,0,1,37.94,4.31Z"/><g class="cls-1"><polygon class="cls-39" points="21.96 23.35 18.52 25.05 18.87 64.13 22.07 62.28 21.96 23.35"/><polygon class="cls-10" points="18.76 25.2 17.84 24.66 17.95 63.59 18.87 64.13 18.76 25.2"/><polygon class="cls-33" points="21.04 22.81 17.84 24.66 18.76 25.2 21.96 23.35 21.04 22.81"/></g><g class="cls-1"><polygon class="cls-39" points="32.36 29.38 28.91 31.08 29.27 70.15 32.47 68.3 32.36 29.38"/><polygon class="cls-10" points="29.16 31.22 28.24 30.68 28.35 69.61 29.27 70.15 29.16 31.22"/><polygon class="cls-33" points="31.43 28.83 28.24 30.68 29.16 31.22 32.36 29.38 31.43 28.83"/></g><path class="cls-35" d="M36.91,51.94,13.48,38.41a.8.8,0,0,0-.86,0l-.73.42.26.39.32,6.14v1l.13,12.94.88-.51V46.93L36.9,60.45,37,73.39l.88-.51V53.53A2.08,2.08,0,0,0,36.91,51.94ZM18.24,48.66l-4.76-2.75V39.42l4.76,2.75Zm6.44,3.72-5.42-3.13V42.76l5.42,3.13Zm6.52,3.76L25.69,53V46.48l5.51,3.18Zm5.7,3.29-4.68-2.7V50.24l3.49,2a2.37,2.37,0,0,1,1.19,2.06Z"/><g class="cls-1"><polygon class="cls-40" points="36.38 70.63 36.37 72.33 36.97 71.98 36.97 70.28 36.38 70.63"/><polygon class="cls-17" points="13.33 56.65 12.73 57 36.38 70.63 36.97 70.28 13.33 56.65"/><polygon class="cls-14" points="12.73 57 12.72 58.7 36.37 72.33 36.38 70.63 12.73 57"/></g><g class="cls-1"><polygon class="cls-40" points="36.39 65.18 36.39 66.88 36.98 66.53 36.99 64.83 36.39 65.18"/><polygon class="cls-17" points="13.34 51.2 12.74 51.55 36.39 65.18 36.99 64.83 13.34 51.2"/><polygon class="cls-14" points="12.74 51.55 12.74 53.25 36.39 66.88 36.39 65.18 12.74 51.55"/></g><path class="cls-12" d="M36,52.45,12.59,38.92c-.56-.33-1-.14-1,.42V58.7l1,.59V47.44L36,61V72.8l1,.59V54A2.08,2.08,0,0,0,36,52.45ZM17.36,49.18l-4.76-2.75V39.94l4.76,2.75Zm6.44,3.72-5.42-3.13V43.27L23.8,46.4Zm6.52,3.76-5.51-3.18V47l5.51,3.18ZM36,59.95l-4.68-2.7V50.75L36,53.46Z"/><g class="cls-1"><polygon class="cls-14" points="20.55 55.42 18.82 54.41 18.84 62.2 20.72 63.59 20.55 55.42"/><path class="cls-15" d="M21.32,55l-1.73-1s0,0-.24.12l-.52.3,1.73,1,.72-.41Z"/><path class="cls-41" d="M18.84,62.21a1.59,1.59,0,0,1-.72,1.25L5.44,70.77,7.55,72,20,64.55a1.66,1.66,0,0,0,.73-1.28Z"/><polygon class="cls-42" points="5.44 70.77 1.95 73.36 3.69 74.37 7.55 72.01 5.44 70.77"/><polygon class="cls-10" points="3.69 74.37 1.95 73.36 1.95 73.69 3.69 74.7 3.69 74.37"/><path class="cls-17" d="M21.34,55s0-.06-.07,0l-.72.41,0,7.79a1.59,1.59,0,0,1-.72,1.25L7.18,71.78,3.69,74.37v.34l16.44-9.49a2.72,2.72,0,0,0,1.23-2.14Z"/></g><g class="cls-1"><polygon class="cls-14" points="27.42 59.47 25.69 58.46 25.71 66.26 27.59 67.64 27.42 59.47"/><path class="cls-15" d="M26.45,58a.54.54,0,0,0-.12,0l-.64.37,1.73,1,.72-.41S26.45,58,26.45,58Z"/><path class="cls-43" d="M25.71,66.26A1.59,1.59,0,0,1,25,67.5L12.31,74.82l2.11,1.24L26.84,68.6a1.66,1.66,0,0,0,.73-1.28Z"/><polygon class="cls-42" points="12.31 74.82 8.82 77.41 10.56 78.42 14.42 76.06 12.31 74.82"/><polygon class="cls-10" points="10.56 78.42 8.82 77.41 8.82 77.75 10.56 78.75 10.56 78.42"/><path class="cls-17" d="M28.21,59.1s0-.06-.07,0l-.72.41,0,7.79a1.59,1.59,0,0,1-.72,1.25L14,75.83l-3.49,2.59v.34L27,69.26a2.72,2.72,0,0,0,1.23-2.14Z"/></g><polygon class="cls-14" points="32.7 29.84 21.27 23.2 21.27 20.16 32.68 26.77 32.7 29.84"/><g class="cls-1"><polygon class="cls-22" points="32.68 26.77 28.34 28.91 28.79 32.23 32.82 29.9 32.68 26.77"/><polygon class="cls-14" points="28.65 29.09 27.48 28.41 27.62 31.55 28.79 32.23 28.65 29.09"/><polygon class="cls-33" points="31.51 26.08 27.48 28.41 28.65 29.09 32.68 26.77 31.51 26.08"/></g><g class="cls-1"><polygon class="cls-22" points="22.45 20.85 18.11 23 18.56 26.31 22.59 23.99 22.45 20.85"/><polygon class="cls-14" points="18.42 23.18 17.25 22.5 17.39 25.63 18.56 26.31 18.42 23.18"/><polygon class="cls-33" points="21.29 20.17 17.25 22.5 18.42 23.18 22.45 20.85 21.29 20.17"/></g><polygon class="cls-33" points="31.51 26.08 22.45 20.85 21.27 21.18 30.71 26.64 31.51 26.08"/></g></g></g></g></svg>